<svg xmlns="http://www.w3.org/2000/svg" id="_переходник" data-name="переходник" viewBox="0 0 1170 2532"><defs><style>.cls-5{fill:#a6a6a0;stroke-width:5px}.cls-5,.cls-6,.cls-7{stroke:#a0a099}.cls-5,.cls-6,.cls-7,.cls-8{stroke-linecap:round;stroke-linejoin:round}.cls-6,.cls-7,.cls-8{fill:none}.cls-6,.cls-8{stroke-width:8px}.cls-7{stroke-width:10px}.cls-8{stroke:#96968f}</style></defs><path d="M853.57 1896.16c-5.81 29.72 24.58 57.33 54.54 84.54 27.71 25.17 47.45 43.1 79.16 47.88 36.33 5.48 83.85-6.98 91.07-32.98 2.57-9.25.25-20.98-17.02-44.27-33-44.51-112.58-120.44-172.37-94.49-15.01 6.52-31.76 20.75-35.39 39.31Z" style="stroke-width:0;fill:#000001;opacity:.1"/><path d="m893.88 1848.26-2.85 42.18 95.05 101.11c23.05-3.72 46.1-7.45 69.15-11.17 1.43-13.86 2.85-27.72 4.28-41.58l-69.15 9.5c-1.43 14.42-2.85 28.83-4.28 43.25 1.43-14.42 2.85-28.83 4.28-43.25" style="fill:#bebeb8;stroke-width:0"/><path d="m893.88 1848.26-2.85 42.18 95.05 101.11c23.05-3.72 46.1-7.45 69.15-11.17 1.43-13.86 2.85-27.72 4.28-41.58l-69.15 9.5c-1.43 14.42-2.85 28.83-4.28 43.25 1.43-14.42 2.85-28.83 4.28-43.25" class="cls-7"/><path d="M894.12 1847.31c32.08 33.66 64.16 67.33 96.24 100.99 23.05-3.49 46.1-6.97 69.15-10.46l-103.37-99.8-62.02 9.27Z" style="fill:#dcdcd6;stroke-width:0"/><path d="M894.12 1847.31c32.08 33.66 64.16 67.33 96.24 100.99 23.05-3.49 46.1-6.97 69.15-10.46l-103.37-99.8-62.02 9.27Z" class="cls-7"/><path d="M1024.57 1903.39c-22.26 2.77-44.51 5.54-66.77 8.32M989.41 1870.36c-22.26 2.77-44.51 5.54-66.77 8.32" class="cls-6"/><ellipse cx="1007.7" cy="1925.25" class="cls-5" rx="23.05" ry="10.3"/><ellipse cx="972.42" cy="1890.63" class="cls-5" rx="21.63" ry="9.66"/><path d="M883.43 1850.34c1.59-.8 17.37-8.43 32.08-.18 7 3.92 10.7 9.73 12.36 12.83 3.33 1.3 10.25 3.47 19.01 2.38 7.5-.94 12.99-3.86 15.92-5.7.37-3.3 2.32-22.94-9.86-32.67-9.08-7.25-21.16-5.14-37.66-2.26-15.56 2.72-27.65 7.91-35.41 11.88 1.19 4.57 2.38 9.15 3.56 13.72Z" style="stroke-width:10px;stroke-linecap:round;stroke-linejoin:round;stroke:#a0a099;fill:#dcdcd6"/><path d="M876.06 1846.12c-3.22 1.69-7.71 4.57-11.52 9.39-8.36 10.57-5.18 19.98-10.34 27.09-7.94 10.95-30.51 14.43-40.85 6.24-15.35-12.16-10.49-55.34 12.34-77.88 12.68-12.52 24.41-14.43 106.22-22.1 0 0 14.59-1.72 74.85-9.98 68.06-9.33 86.72-12.91 95.52-28.51 6.78-12.02 6.22-28.54 0-39.92-10.31-18.86-29.17-10.73-57.74-34.22-16.18-13.3-18.64-22.9-35.64-29.94-11.85-4.91-23.03-5.37-30.65-4.99M1024.69 1967.43c6.63 4.39 14.98 11.53 18.77 22.46 3.74 10.77 1.06 19.46.36 26.73-2.21 22.87 14.09 42.47 27.09 58.1 24.06 28.93 43 26.93 91.96 62.73a432.784 432.784 0 0 1 34.22 27.8" class="cls-8"/></svg>