<svg xmlns="http://www.w3.org/2000/svg" id="_батарея" data-name="батарея" viewBox="0 0 1170 2532"><defs><style>.cls-1,.cls-2{stroke:#969696;stroke-linecap:round;stroke-linejoin:round;stroke-width:10px}.cls-1,.cls-3{fill:#b4b4b4}.cls-2{fill:none}.cls-4{fill:#a5a5a5}.cls-3,.cls-4{stroke-width:0}</style></defs><path d="M862.32 1272.89c-.5 72.13-1.01 144.26-1.51 216.38-.79.7-9.25 8.02-20.22 5.65-9.33-2.01-16.53-10.17-17.52-20.22l1.35-197.68c-.47-9.58 6.39-17.93 15.5-19.57 10.06-1.81 20.42 4.98 22.41 15.44Z" class="cls-3"/><path d="M857.78 1267.58c.56 72.5 1.11 145.01 1.67 217.51-.78.64-8.61 6.9-19.08 5.86-6.89-4.18-9.01-5.94-8.73-6.39.55-.89 6.57 2.14 11.77.31 2.69-.95 4.36-2.93 5.34-4.46.32-66.7.63-133.4.95-200.09-.32-2.19-.63-4.39-.95-6.58-.5-1.46-1.59-3.97-4.04-6.37-3.36-3.3-7.32-4.47-9.03-4.89 1.17-.52 6.49-2.72 12.89-.96 5.45 1.5 8.35 4.95 9.21 6.05Z" class="cls-4"/><path d="M862.32 1271.97c-.5 72.13-1.01 144.26-1.51 216.38-.79.7-9.25 8.02-20.22 5.65-9.33-2.01-16.53-10.17-17.52-20.22l1.35-197.68c-.47-9.58 6.39-17.93 15.5-19.57 10.06-1.81 20.42 4.98 22.41 15.44Z" class="cls-2"/><path d="M901.41 1291.89c-.5 72.13-1.01 144.26-1.51 216.38-.79.7-9.25 8.02-20.22 5.65-9.33-2.01-16.53-10.17-17.52-20.22l1.35-197.68c-.47-9.58 6.39-17.93 15.5-19.57 10.06-1.81 20.42 4.98 22.41 15.44Z" class="cls-3"/><path d="M896.28 1287.54c.56 72.5 1.11 145.01 1.67 217.51-.78.64-8.61 6.9-19.08 5.86-6.89-4.18-9.01-5.94-8.73-6.39.55-.89 6.57 2.14 11.77.31 2.69-.95 4.36-2.93 5.34-4.46.32-66.7.63-133.4.95-200.09-.32-2.19-.63-4.39-.95-6.58-.5-1.46-1.59-3.97-4.04-6.37-3.36-3.3-7.32-4.47-9.03-4.89 1.17-.52 6.49-2.72 12.89-.96 5.45 1.5 8.35 4.95 9.21 6.05Z" class="cls-4"/><path d="M901.41 1291.89c-.5 72.13-1.01 144.26-1.51 216.38-.79.7-9.25 8.02-20.22 5.65-9.33-2.01-16.53-10.17-17.52-20.22l1.35-197.68c-.47-9.58 6.39-17.93 15.5-19.57 10.06-1.81 20.42 4.98 22.41 15.44Z" class="cls-2"/><path d="M941.1 1313.01c-.52 74.41-1.05 148.82-1.57 223.23-.82.73-9.61 8.27-21.02 5.83-9.7-2.08-17.18-10.49-18.21-20.86.47-67.98.93-135.96 1.4-203.94-.49-9.88 6.64-18.5 16.11-20.19 10.45-1.87 21.22 5.13 23.29 15.93Z" class="cls-3"/><path d="M936.2 1306.78c.56 75.2 1.11 150.41 1.67 225.61-.78.67-8.61 7.16-19.08 6.08-6.89-4.34-9.01-6.16-8.73-6.63.55-.93 6.57 2.22 11.77.32 2.69-.98 4.36-3.04 5.34-4.62.32-69.18.63-138.37.95-207.55-.32-2.28-.63-4.55-.95-6.83-.5-1.52-1.59-4.12-4.04-6.61-3.36-3.43-7.32-4.64-9.03-5.07 1.17-.54 6.49-2.82 12.89-.99 5.45 1.55 8.35 5.13 9.21 6.28Z" class="cls-4"/><path d="M941.1 1312.06c-.53 74.41-1.05 148.82-1.57 223.23-.82.73-9.61 8.27-21.02 5.83-9.7-2.08-17.18-10.49-18.21-20.86.47-67.98.93-135.96 1.4-203.94-.49-9.88 6.64-18.5 16.11-20.19 10.45-1.87 21.22 5.13 23.29 15.93Z" class="cls-2"/><path d="M981.73 1332.61c-.52 74.41-1.05 148.82-1.57 223.23-.82.73-9.61 8.27-21.02 5.83-9.7-2.08-17.18-10.49-18.21-20.86.47-67.98.93-135.96 1.4-203.94-.49-9.88 6.64-18.5 16.11-20.19 10.45-1.87 21.22 5.13 23.29 15.93Z" class="cls-3"/><path d="M976.12 1327.24c.56 75.91 1.11 151.81 1.67 227.72-.78.67-8.61 7.22-19.08 6.14-6.89-4.38-9.01-6.21-8.73-6.69.55-.94 6.57 2.24 11.77.33 2.69-.99 4.36-3.07 5.34-4.67.32-69.83.63-139.66.95-209.49-.32-2.3-.63-4.6-.95-6.89a17.15 17.15 0 0 0-4.04-6.67c-3.36-3.46-7.32-4.68-9.03-5.11 1.17-.54 6.49-2.84 12.89-1 5.45 1.57 8.35 5.18 9.21 6.34Z" class="cls-4"/><path d="M981.73 1332.61c-.52 74.41-1.05 148.82-1.57 223.23-.82.73-9.61 8.27-21.02 5.83-9.7-2.08-17.18-10.49-18.21-20.86.47-67.98.93-135.96 1.4-203.94-.49-9.88 6.64-18.5 16.11-20.19 10.45-1.87 21.22 5.13 23.29 15.93Z" class="cls-2"/><path d="M1023.8 1356.9c-.53 76.98-1.07 153.97-1.6 230.95-.83.75-9.78 8.56-21.39 6.03-9.87-2.15-17.49-10.86-18.53-21.59.48-70.33.95-140.66 1.43-210.99-.5-10.22 6.75-19.14 16.4-20.89 10.64-1.94 21.6 5.31 23.7 16.48Z" class="cls-3"/><path d="m1018.63 1349.16 1.65 235.99c-.77.7-8.51 7.49-18.87 6.36-6.81-4.54-8.91-6.44-8.63-6.93.54-.97 6.5 2.32 11.64.34 2.66-1.03 4.31-3.18 5.28-4.84.31-72.37.63-144.73.94-217.1l-.94-7.14c-.49-1.59-1.57-4.31-3.99-6.91-3.33-3.58-7.23-4.86-8.93-5.3 1.16-.56 6.41-2.95 12.75-1.04 5.39 1.63 8.26 5.37 9.1 6.57Z" class="cls-4"/><path d="M1023.8 1355.93c-.53 76.98-1.07 153.97-1.6 230.95-.83.75-9.78 8.56-21.39 6.03-9.87-2.15-17.49-10.86-18.53-21.59.48-70.33.95-140.66 1.43-210.99-.5-10.22 6.75-19.14 16.4-20.89 10.64-1.94 21.6 5.31 23.7 16.48Z" class="cls-2"/><path d="M1065.15 1377.19c-.53 76.98-1.07 153.97-1.6 230.95-.83.75-9.78 8.56-21.39 6.03-9.87-2.15-17.49-10.86-18.53-21.59.48-70.33.95-140.66 1.43-210.99-.5-10.22 6.75-19.14 16.4-20.89 10.64-1.94 21.6 5.31 23.7 16.48Z" class="cls-3"/><path d="M1060.81 1368.67c.56 79.81 1.11 159.62 1.67 239.42-.78.71-8.61 7.6-19.08 6.45-6.89-4.6-9.01-6.53-8.73-7.04.55-.98 6.57 2.35 11.77.34 2.69-1.04 4.36-3.22 5.34-4.91.32-73.42.63-146.84.95-220.25-.32-2.42-.63-4.83-.95-7.25-.5-1.61-1.59-4.37-4.04-7.01-3.36-3.64-7.32-4.93-9.03-5.38 1.17-.57 6.49-2.99 12.89-1.05 5.45 1.65 8.35 5.45 9.21 6.66Z" class="cls-4"/><path d="M1065.15 1377.19c-.53 76.98-1.07 153.97-1.6 230.95-.83.75-9.78 8.56-21.39 6.03-9.87-2.15-17.49-10.86-18.53-21.59.48-70.33.95-140.66 1.43-210.99-.5-10.22 6.75-19.14 16.4-20.89 10.64-1.94 21.6 5.31 23.7 16.48Z" class="cls-2"/><path d="M1106.02 1400.72c-.53 78.81-1.07 157.62-1.6 236.44-.83.77-9.78 8.76-21.39 6.18-9.87-2.2-17.49-11.11-18.53-22.1.48-72 .95-144 1.43-216-.5-10.47 6.75-19.59 16.4-21.39 10.64-1.98 21.6 5.44 23.7 16.87Z" class="cls-3"/><path d="M1100.61 1392.85c.56 81.11 1.11 162.22 1.67 243.33-.78.72-8.61 7.72-19.08 6.56-6.89-4.68-9.01-6.64-8.73-7.15.55-1 6.57 2.39 11.77.35 2.69-1.06 4.36-3.28 5.34-4.99.32-74.61.63-149.23.95-223.84-.32-2.46-.63-4.91-.95-7.37-.5-1.64-1.59-4.44-4.04-7.13-3.36-3.69-7.32-5.01-9.03-5.47 1.17-.58 6.49-3.04 12.89-1.07 5.45 1.68 8.35 5.54 9.21 6.77Z" class="cls-4"/><path d="M1106.02 1399.72c-.53 78.81-1.07 157.62-1.6 236.44-.83.77-9.78 8.76-21.39 6.18-9.87-2.2-17.49-11.11-18.53-22.1.48-72 .95-144 1.43-216-.5-10.47 6.75-19.59 16.4-21.39 10.64-1.98 21.6 5.44 23.7 16.87Z" class="cls-2"/><path d="M1147.37 1421.49c-.53 78.81-1.07 157.62-1.6 236.43-.78.72-8.61 7.72-19.08 6.56-.76-.08-1.53-.2-2.31-.38-9.87-2.2-17.49-11.12-18.53-22.1.47-72 .95-144 1.42-216-.49-10.23 6.44-19.18 15.75-21.26.22-.05.43-.09.65-.13 10.64-1.98 21.59 5.44 23.7 16.88Z" class="cls-3"/><path d="M1142.32 1414.59c.56 81.11 1.11 162.22 1.67 243.33-.78.72-8.61 7.72-19.08 6.56-6.89-4.68-9.01-6.64-8.73-7.15.55-1 6.57 2.39 11.77.35 2.69-1.06 4.36-3.28 5.34-4.99.32-74.61.63-149.23.95-223.84-.32-2.46-.63-4.91-.95-7.37-.5-1.64-1.59-4.44-4.04-7.13-3.36-3.69-7.32-5.01-9.03-5.47 1.17-.58 6.49-3.04 12.89-1.07 5.45 1.68 8.35 5.54 9.21 6.77Z" class="cls-4"/><path d="M1147.37 1421.49c-.53 78.81-1.07 157.62-1.6 236.43-.78.72-8.61 7.72-19.08 6.56-.76-.08-1.53-.2-2.31-.38-9.87-2.2-17.49-11.12-18.53-22.1.47-72 .95-144 1.42-216-.49-10.23 6.44-19.18 15.75-21.26.22-.05.43-.09.65-.13 10.64-1.98 21.59 5.44 23.7 16.88Z" class="cls-2"/><path d="m1147.07 1442.87 29.82 18.3v21.15c-9.94-6.38-19.88-12.75-29.82-19.13v-20.32ZM1145.64 1611.82l29.82 18.3v21.15c-9.94-6.38-19.88-12.75-29.82-19.13v-20.32Z" class="cls-1"/></svg>