<?xml version="1.0" encoding="UTF-8"?>
<svg id="_Слой_205" data-name="Слой 205" xmlns="http://www.w3.org/2000/svg" xmlns:xlink="http://www.w3.org/1999/xlink" viewBox="0 0 1170 2532">
  <defs>
    <style>
      .cls-1 {
        fill: #b6c2ff;
        opacity: .25;
      }

      .cls-1, .cls-2, .cls-3, .cls-4, .cls-5, .cls-6, .cls-7, .cls-8, .cls-9, .cls-10, .cls-11 {
        stroke-width: 0px;
      }

      .cls-2 {
        fill: #ffa300;
      }

      .cls-3 {
        opacity: .14;
      }

      .cls-4 {
        fill: #c20000;
        opacity: .5;
      }

      .cls-5 {
        fill: #fff31e;
      }

      .cls-6 {
        fill: #00d41d;
      }

      .cls-7 {
        fill: #ff3623;
      }

      .cls-8 {
        fill: #fff;
      }

      .cls-12 {
        stroke: url(#_Безымянный_градиент_154);
        stroke-linecap: round;
        stroke-linejoin: round;
      }

      .cls-12, .cls-13 {
        fill: none;
        stroke-width: 10px;
      }

      .cls-9 {
        fill: #3f80ff;
      }

      .cls-13 {
        stroke: #c30600;
        stroke-miterlimit: 10;
      }

      .cls-10 {
        fill: #7500f4;
      }

      .cls-11 {
        fill: #ff251a;
      }
    </style>
    <linearGradient id="_Безымянный_градиент_154" data-name="Безымянный градиент 154" x1="209.02" y1="924" x2="693.18" y2="924" gradientUnits="userSpaceOnUse">
      <stop offset="0" stop-color="#bd1d00"/>
      <stop offset=".51" stop-color="#009f22"/>
      <stop offset="1" stop-color="#6400cf"/>
    </linearGradient>
  </defs>
  <path class="cls-10" d="m685.26,948.74c-1.83,5.25-4.34,9.74-7.1,13.53-6.52,9.01-14.4,14.08-17.64,16-2.99-1.34-5.84-2.54-8.52-3.59-9.5-3.73-16.74-5.6-19.85-5.44-1.77.09-3.27.37-3.27.37-3.38.73-5.44,2.4-13.92,4.33-9.89,2.25-16.76,2.18-23.57,2.46-2.04.08-4.06.17-6.06.26-3.42.16-6.77.34-10.07.59-11.32.85-21.99,2.52-32.48,6.88-17.45,7.26-17.33,14.31-31.66,17.3-12.31,2.56-23.52-.54-31.31-3.74-8.75,4.19-19.5,8.46-32.11,11.69-.3.08-.59.16-.89.23-22.51,5.66-42.24,5.84-56.4,4.76-4.12,3.8-8.2,6.97-12.13,9.62-11.33,7.64-21.4,10.96-27.46,12.53-12.87,3.32-24.78,3.14-32.85,3.01-2.26-.04-4.44-.12-6.52-.24-6.93-.39-12.81-1.18-17.32-1.94-1.56,1.28-24.7,19.81-47.24,10.97-12.13-4.76-18.42-15.21-22.8-22.49-.77-1.28-2.77-4.71-4.79-9.83-2.83-7.17-5.7-17.68-5.23-30.26,1.03-27.65,17.42-45.93,22.25-50.96-3.29-4.07-10.94-14.74-10.92-29.42.02-10.14,3.7-19.98,10.15-28.28,5.64-7.3,13.42-13.4,22.71-17.51,1.49-2.54,3.95-6.31,7.56-10.32,4.22-4.68,10.04-9.7,17.79-13.49,26.93-13.19,53.66-.05,57.01,1.67.26-.28.55-.59.86-.92.88-.94,1.98-2.06,3.28-3.34,9.69-9.47,30.94-27.06,62.56-33.47,3.3-.67,6.72-1.22,10.25-1.62,34.53-3.95,60.92,8.04,71.07,13.32,2.01-1.48,25-17.89,52.19-8.39,21.71,7.57,30.69,26.27,32.3,29.77,6.06-3.3,12.76-4.79,19.36-4.55,7.85.28,15.58,3.02,21.93,8.1,11.26,9.01,16.31,23.86,12.91,38,4.92-.23,25.19-.62,41.83,14.25,16.31,14.59,23.52,38.83,16.1,60.16Z"/>
  <path class="cls-9" d="m587.59,935.55c4.65,5.72,10.08,14.56,8.55,24.23,0,0-1.18,7.5-7.84,14.26-.55.56-1.55,1.44-2.97,2.62-15.16.69-29,1.84-42.55,7.47-17.45,7.26-17.33,14.31-31.66,17.3-12.31,2.56-23.52-.54-31.31-3.74-8.75,4.19-19.5,8.46-32.11,11.69-.3.08-.59.16-.89.23-22.51,5.66-42.24,5.84-56.4,4.76-4.12,3.8-8.2,6.97-12.13,9.62-11.33,7.64-21.4,10.96-27.46,12.53-12.87,3.32-24.78,3.14-32.85,3.01-2.26-.04-4.44-.12-6.52-.24-6.93-.39-12.81-1.18-17.32-1.94-1.56,1.28-24.7,19.81-47.24,10.97-12.13-4.76-18.42-15.21-22.8-22.49-1.85-3.08-10.82-18.54-10.02-40.09,1.03-27.65,17.42-45.93,22.25-50.96-3.29-4.07-10.94-14.74-10.92-29.42.04-19.03,12.97-37,32.86-45.79,1.49-2.54,3.95-6.31,7.56-10.32,4.22-4.68,10.04-9.7,17.79-13.49,26.93-13.19,53.66-.05,57.01,1.67.99-1.07,2.37-2.53,4.14-4.26,9.69-9.47,30.94-27.06,62.56-33.47,3.3-.67,6.72-1.22,10.25-1.62,34.53-3.95,60.92,8.04,71.07,13.32,2.01-1.48,25-17.89,52.19-8.39,21.71,7.57,30.69,26.27,32.3,29.77,6.06-3.3,12.76-4.79,19.36-4.55,5.73,4.7,8.8,8.56,8.64,11.08-.31,4.89-13.13,10.37-13.54,23.52-.14,4.56,1.19,10.32,6.41,17.11-4.87,5.47-9.16,12.35-7.84,19.25,1.38,7.14,7.79,9.21,9.27,16.39.95,4.6-.18,11.07-7.84,19.97Z"/>
  <path class="cls-6" d="m509.71,935.55c-.12,4.45,2.91,9,8.64,17.58,3.97,5.94,5.98,7.38,5.75,10.45-.39,5.38-6.97,6.54-10.55,12.36-2.48,4.03-3.83,10.8.96,22.81-.23.9-.45,1.79-.68,2.68-12.42,2.56-23.74-.54-31.6-3.74-8.83,4.19-19.68,8.46-32.4,11.69-.3.08-.6.16-.9.23-22.72,5.66-42.63,5.84-56.92,4.76-4.16,3.8-8.28,6.97-12.24,9.62-11.43,7.64-21.6,10.96-27.71,12.53-12.99,3.32-25.01,3.14-33.15,3.01-2.28-.04-4.48-.12-6.58-.24-6.99-.39-12.93-1.18-17.48-1.94-1.57,1.28-24.93,19.81-47.67,10.97-12.24-4.76-18.59-15.21-23.01-22.49-1.87-3.08-10.92-18.54-10.11-40.09,1.04-27.65,17.58-45.93,22.45-50.96-3.32-4.07-11.04-14.74-11.02-29.42.04-19.03,13.09-37,33.16-45.79,1.5-2.54,3.99-6.31,7.63-10.32,4.26-4.68,10.13-9.7,17.95-13.49,27.18-13.19,54.15-.05,57.53,1.67,1-1.07,2.39-2.53,4.18-4.26,9.78-9.47,31.22-27.06,63.13-33.47,3.33-.67,6.78-1.22,10.34-1.62,34.85-3.95,61.48,8.04,71.72,13.32,15.98,8.29,24.63,24.01,21.92,38.13-1.98,10.3-9.44,16.69-12.47,19.01,8.85.39,15.74,7.51,15.83,15.68.08,7.3-5.29,13.99-12.95,15.68,19.41,5.57,23.86,10.57,23.98,14.26.25,7.53-17.45,10.86-17.75,21.39Z"/>
  <path class="cls-5" d="m441.43,996.38c-.74,3.59,7.72,5.93,8.61,9.5.24.98-.06,2.16-.89,3.5-.3.08-.59.16-.9.23-22.65,5.66-42.51,5.84-56.75,4.76-4.15,3.8-8.25,6.97-12.21,9.62-11.4,7.64-21.53,10.96-27.63,12.53-12.95,3.32-24.94,3.14-33.06,3.01-2.27-.04-4.47-.12-6.56-.24-6.97-.39-12.89-1.18-17.43-1.94-1.57,1.28-24.86,19.81-47.54,10.97-12.21-4.76-18.54-15.21-22.94-22.49-1.86-3.08-10.89-18.54-10.08-40.09,1.04-27.65,17.53-45.93,22.39-50.96-3.31-4.07-11.01-14.74-10.99-29.42.04-19.03,13.05-37,33.07-45.79,1.5-2.54,3.97-6.31,7.61-10.32,4.25-4.68,10.1-9.7,17.9-13.49,27.1-13.19,54-.05,57.37,1.67,1-1.07,2.38-2.53,4.17-4.26,9.75-9.47,31.13-27.06,62.95-33.47,1.19.89,2.27,1.82,3.26,2.78,4.09,3.99,18.45,18.01,14.35,28.04-1.41,3.43-4.61,5.46-7.17,6.65,1.19.82,8.15,5.79,9.56,15.21,1.55,10.34-4.86,17.58-5.74,18.53,8.64,2.45,14.47,10.01,14.35,18.06-.15,9.5-8.48,14.83-9.09,15.21,12.71,2.99,22.26,13.45,23.91,26.14,1.57,12.04-4.26,24-14.82,30.41,9.96-.81,18.5,4.41,20.56,11.41,2.16,7.33-3.03,15.77-8.6,19.48-3.76,2.51-7.18,2.54-7.66,4.76Z"/>
  <path class="cls-2" d="m392.26,1013.96c-2.19.39-7.17,1.6-11.12,5.89-1.31,1.43-2.23,2.88-2.86,4.14-11.33,7.64-21.4,10.96-27.46,12.53-12.87,3.32-24.78,3.14-32.85,3.01-2.26-.04-4.44-.12-6.52-.24-6.93-.39-12.81-1.18-17.32-1.94-1.56,1.28-24.7,19.81-47.24,10.97-12.13-4.76-18.42-15.21-22.8-22.49-1.85-3.08-10.82-18.54-10.02-40.09,1.03-27.65,17.42-45.93,22.25-50.96-3.29-4.07-10.94-14.74-10.92-29.42.04-19.03,12.97-37,32.86-45.79,1.49-2.54,3.95-6.31,7.56-10.32,4.22-4.68,10.04-9.7,17.79-13.49,26.93-13.19,53.66-.05,57.01,1.67.99-1.07,2.37-2.53,4.14-4.26,2.51,2.15,4.33,4.71,4.97,7.8,2.2,10.65-10.87,21.44-13.78,23.76,1.15.57,11.93,6.09,14.25,18.78,2.23,12.18-5.19,20.91-6.12,21.97,9.67,1.21,17.14,8.48,18.24,17.23,1.33,10.59-7.38,17.69-7.84,18.06,9.7-1.26,19.06,2.91,23.52,10.46,5.85,9.88,2.57,24.29-8.79,31.84,11.27-4.51,23.33.43,27.33,9.5,2.97,6.74,1.26,15.21-4.28,21.39Z"/>
  <path class="cls-11" d="m311.45,1039.29c-6.93-.39-12.81-1.18-17.32-1.94-1.56,1.28-24.7,19.81-47.24,10.97-12.13-4.76-18.42-15.21-22.8-22.49-1.85-3.08-10.82-18.54-10.02-40.09,1.03-27.65,17.42-45.93,22.25-50.96-3.29-4.07-10.94-14.74-10.92-29.42.04-19.03,12.97-37,32.86-45.79,1.49-2.54,3.95-6.31,7.56-10.32,2.42,1.57,13.7,9.24,17.37,24.51,3.79,15.77-3.32,28.06-4.75,30.42,2.06,1.17,8.22,5.04,11.17,12.83,4.67,12.31-2.89,23.28-3.57,24.24,12.39.39,21.36,11.31,19.96,22.1-1.22,9.45-10.18,17.19-20.91,16.87,9.65-2.65,19.47,2.35,22.69,10.57,3.71,9.46-1.97,21.44-13.19,24.59,2.83,1.53,8.68,5.2,12.83,12.36,2.61,4.49,3.6,8.73,4.02,11.55Z"/>
  <path class="cls-1" d="m685.26,948.74c-1.83,5.25-4.34,9.74-7.1,13.53-6.52,9.01-14.4,14.08-17.64,16-2.99-1.34-5.84-2.54-8.52-3.59-3.89-1.84-7.73-3.83-11.42-5.87.83-1.97,2.97-7.74,1.19-14.73-2.51-9.84-10.77-14.27-12.12-14.97,6-14.98,1.13-30.93-9.98-37.78-10.82-6.67-23.27-2.08-24.95-1.43,3.96-18.95-5.02-37.56-20.68-44.91-18.5-8.68-36.73,2.88-37.78,3.57-.38-2.08-2.94-14.66-14.97-22.1-14.14-8.75-28.99-2.75-30.41-2.14-2.95-3.05-10.41-9.93-22.34-12.83-13.64-3.33-24.7.58-28.52,2.13-2.36-1.54-18.19-11.48-37.07-5.7-11.86,3.64-18.78,11.6-21.38,14.97-3.71-1.28-12.28-3.68-22.81-1.42-8.78,1.88-14.82,6.11-17.83,8.55.18-1.18.36-2.35.55-3.51.88-.94,1.98-2.06,3.28-3.34,9.69-9.47,30.94-27.06,62.56-33.47,3.3-.67,6.72-1.22,10.25-1.62,34.53-3.95,60.92,8.04,71.07,13.32,2.01-1.48,25-17.89,52.19-8.39,21.71,7.57,30.69,26.27,32.3,29.77,6.06-3.3,12.76-4.79,19.36-4.55,7.85.28,15.58,3.02,21.93,8.1,11.26,9.01,16.31,23.86,12.91,38,4.92-.23,25.19-.62,41.83,14.25,16.31,14.59,23.52,38.83,16.1,60.16Z"/>
  <path class="cls-3" d="m575.26,977.25c-11.32.85-21.99,2.52-32.48,6.88-17.45,7.26-17.33,14.31-31.66,17.3-12.31,2.56-23.52-.54-31.31-3.74-8.75,4.19-19.5,8.46-32.11,11.69-.3.08-.59.16-.89.23-22.51,5.66-42.24,5.84-56.4,4.76-4.12,3.8-8.2,6.97-12.13,9.62-11.33,7.64-21.4,10.96-27.46,12.53-12.87,3.32-24.78,3.14-32.85,3.01-2.26-.04-4.44-.12-6.52-.24-6.93-.39-12.81-1.18-17.32-1.94-1.56,1.28-24.7,19.81-47.24,10.97-12.13-4.76-18.42-15.21-22.8-22.49-.77-1.28-2.77-4.71-4.79-9.83-2.83-7.17-5.7-17.68-5.23-30.26,1.03-27.65,17.42-45.93,22.25-50.96-3.29-4.07-10.94-14.74-10.92-29.42.02-10.14,3.7-19.98,10.15-28.28,4.71-4.75,9.43-9.5,14.14-14.25,3.3,2.4,11.08,8.76,14.97,19.96,6.04,17.4-2.18,32.49-3.56,34.93,2.21,1.28,7.8,4.9,11.41,12.12,3.61,7.22,3.16,13.86,2.85,16.4,10.62-7.52,23.95-8.32,33.51-2.14,8.11,5.25,10.7,13.72,11.4,16.4,1.66-1.3,15.45-11.63,33.51-7.13,18.79,4.68,26,21.4,26.73,23.17,2.24-12.39,12.75-21.71,25.31-22.46,12.55-.75,24.08,7.23,27.8,19.25.98-1.42,11.52-16.14,30.65-16.4,18.69-.25,29.53,13.5,30.66,14.97.8-1.02,18.08-22.15,44.91-18.53,22.13,2.99,33.41,20.48,35.43,23.88Z"/>
  <path class="cls-12" d="m685.26,948.74c-6.18,17.73-20.14,26.8-24.74,29.53-13.62-6.1-24.39-9.24-28.37-9.03-1.77.09-3.27.37-3.27.37-3.38.73-5.44,2.4-13.92,4.33-9.89,2.25-16.76,2.18-23.57,2.46-17.57.72-33.28,1.36-48.61,7.73-17.45,7.26-17.33,14.31-31.66,17.3-12.31,2.56-23.52-.54-31.31-3.74-8.96,4.29-20.01,8.66-33,11.92-22.51,5.66-42.24,5.84-56.4,4.76-15.98,14.74-31.43,20.04-39.59,22.15-12.87,3.32-24.78,3.14-32.85,3.01-2.26-.04-4.44-.12-6.52-.24-6.93-.39-12.81-1.18-17.32-1.94-1.56,1.28-24.7,19.81-47.24,10.97-12.13-4.76-18.42-15.21-22.8-22.49-1.85-3.08-10.82-18.54-10.02-40.09,1.03-27.65,17.42-45.93,22.25-50.96-3.29-4.07-10.94-14.74-10.92-29.42.04-19.03,12.97-37,32.86-45.79,1.49-2.54,3.95-6.31,7.56-10.32,4.22-4.68,10.04-9.7,17.79-13.49,26.93-13.19,53.66-.05,57.01,1.67,6.97-7.54,33.48-34.37,76.95-39.35,34.53-3.95,60.92,8.04,71.07,13.32,2.01-1.48,25-17.89,52.19-8.39,21.71,7.57,30.69,26.27,32.3,29.77,13.27-7.22,29.6-5.8,41.29,3.55,11.26,9.01,16.31,23.86,12.91,38,4.92-.23,25.19-.62,41.83,14.25,16.31,14.59,23.52,38.83,16.1,60.16Z"/>
  <g id="_Слой_204" data-name="Слой 204">
    <path class="cls-7" d="m571.91,1091.66c0,1-.04,2-.13,2.98-1.51,18.69-17.15,33.38-36.23,33.38-20.08,0-36.36-16.28-36.36-36.36,0-17.23,11.99-31.66,28.08-35.4,2.66-.62,5.43-.95,8.28-.95,20.08,0,36.36,16.27,36.36,36.35Z"/>
    <path class="cls-4" d="m571.78,1094.64c-1.51,18.69-17.15,33.38-36.23,33.38-20.08,0-36.36-16.28-36.36-36.36,0-17.23,11.99-31.66,28.08-35.4-11.61,10.45-17.21,22.93-15.01,33.27,1.21,5.65,5.88,15.98,16.16,20.43,7.46,3.23,14.33,1.83,16.16,1.43,17.07-3.73,23.39-23.04,23.76-24.24,1.17,2.45,2.33,4.95,3.44,7.49Z"/>
    <circle class="cls-13" cx="535.54" cy="1091.66" r="36.36"/>
    <ellipse class="cls-8" cx="541.43" cy="1069.39" rx="4.81" ry="6.77" transform="translate(-618.92 1369.93) rotate(-77.67)"/>
    <ellipse class="cls-8" cx="533.6" cy="1082.26" rx="2.14" ry="2.78" transform="translate(-637.64 1372.41) rotate(-77.67)"/>
  </g>
</svg>