<?xml version="1.0" encoding="UTF-8"?>
<svg id="_наушники_2" data-name="наушники 2" xmlns="http://www.w3.org/2000/svg" xmlns:xlink="http://www.w3.org/1999/xlink" viewBox="0 0 1170 2532">
  <defs>
    <style>
      .cls-1 {
        fill: #ff82a2;
      }

      .cls-1, .cls-2, .cls-3, .cls-4, .cls-5, .cls-6, .cls-7, .cls-8, .cls-9, .cls-10, .cls-11 {
        stroke-width: 0px;
      }

      .cls-12, .cls-13 {
        stroke: #ababab;
      }

      .cls-12, .cls-13, .cls-14, .cls-15, .cls-16, .cls-17 {
        stroke-width: 10px;
      }

      .cls-12, .cls-13, .cls-14, .cls-15, .cls-16, .cls-17, .cls-18 {
        stroke-linejoin: round;
      }

      .cls-12, .cls-13, .cls-14, .cls-16, .cls-17, .cls-18 {
        stroke-linecap: round;
      }

      .cls-12, .cls-14, .cls-15, .cls-16, .cls-17 {
        fill: none;
      }

      .cls-2 {
        fill: url(#_Безымянный_градиент_203);
        opacity: .33;
      }

      .cls-3 {
        opacity: .4;
      }

      .cls-3, .cls-9 {
        fill: #ff1564;
      }

      .cls-4 {
        fill: #00753c;
      }

      .cls-5 {
        opacity: .22;
      }

      .cls-6 {
        fill: #b8b8b8;
      }

      .cls-7 {
        fill: #ff87ad;
      }

      .cls-8 {
        fill: #ff9fbf;
      }

      .cls-19 {
        stroke: #a6a6a6;
        stroke-width: .75px;
      }

      .cls-19, .cls-13 {
        fill: #c9c9c9;
      }

      .cls-19, .cls-20 {
        stroke-miterlimit: 10;
      }

      .cls-14 {
        stroke: #b8b8b8;
      }

      .cls-9 {
        opacity: .38;
      }

      .cls-15 {
        stroke: #00753c;
      }

      .cls-16, .cls-20, .cls-18 {
        stroke: #ff6a9c;
      }

      .cls-17 {
        stroke: #919191;
      }

      .cls-10 {
        fill: url(#_Безымянный_градиент_204);
        opacity: .82;
      }

      .cls-11 {
        fill: #d6d6d6;
      }

      .cls-20 {
        fill: #ffb4c7;
        stroke-width: 3px;
      }

      .cls-18 {
        fill: #e6e6e6;
        stroke-width: 6px;
      }
    </style>
    <radialGradient id="_Безымянный_градиент_204" data-name="Безымянный градиент 204" cx="276.1" cy="1061.99" fx="315.72" fy="1061.99" r="75.85" gradientTransform="translate(18.48 -8.11) rotate(1.04)" gradientUnits="userSpaceOnUse">
      <stop offset="0" stop-color="#fff"/>
      <stop offset=".15" stop-color="#fff" stop-opacity=".99"/>
      <stop offset=".28" stop-color="#fff" stop-opacity=".95"/>
      <stop offset=".4" stop-color="#fff" stop-opacity=".88"/>
      <stop offset=".52" stop-color="#fff" stop-opacity=".78"/>
      <stop offset=".63" stop-color="#fff" stop-opacity=".66"/>
      <stop offset=".74" stop-color="#fff" stop-opacity=".5"/>
      <stop offset=".85" stop-color="#fff" stop-opacity=".32"/>
      <stop offset=".95" stop-color="#fff" stop-opacity=".11"/>
      <stop offset="1" stop-color="#fff" stop-opacity="0"/>
    </radialGradient>
    <radialGradient id="_Безымянный_градиент_203" data-name="Безымянный градиент 203" cx="266.88" cy="1075.82" fx="287.14" fy="1075.82" r="74.44" gradientTransform="translate(64.56 -989.38) rotate(.17) scale(1 1.9) skewX(-3.1)" gradientUnits="userSpaceOnUse">
      <stop offset="0" stop-color="#fff"/>
      <stop offset=".1" stop-color="#fff" stop-opacity=".82"/>
      <stop offset=".24" stop-color="#fff" stop-opacity=".57"/>
      <stop offset=".38" stop-color="#fff" stop-opacity=".37"/>
      <stop offset=".51" stop-color="#fff" stop-opacity=".21"/>
      <stop offset=".63" stop-color="#fff" stop-opacity=".09"/>
      <stop offset=".73" stop-color="#fff" stop-opacity=".02"/>
      <stop offset=".8" stop-color="#fff" stop-opacity="0"/>
    </radialGradient>
  </defs>
  <path class="cls-16" d="m448.57,877.01c14.25-.65,31.56-.27,51.07,2.69,30.38,4.61,55.24,13.81,73.08,22.04"/>
  <path class="cls-11" d="m355.44,1067.03c-2.19,27.45-22.04,56.14-49.89,59.56-19.48,2.39-34.43-8.64-36.56-10.26-27.39-20.84-21.72-60.49-21.39-62.54,4.76-29.96,31.45-63.9,62.54-58.9,29.45,4.74,47.72,41.93,45.31,72.14Z"/>
  <path class="cls-14" d="m286.77,997.17c4.03-1.83,14.43-5.88,27.37-3.17,11.74,2.46,19.21,9.14,22.51,12.17,23.25,21.33,20.36,57.13,20,60.88-2.45,25.47-17.56,53.22-38.18,59.13-8.48,2.43-18.08,1.89-18.08,1.89-10.44-.59-18.51-3.91-23.12-6.22"/>
  <path class="cls-14" d="m341.91,1066.34c-3.52,35.87-27.79,62.22-54.08,58.59s-44.15-35.59-40.24-71.14c3.88-35.25,27.84-60.93,53.64-57.62,25.91,3.32,44.17,34.62,40.68,70.18Z"/>
  <path class="cls-7" d="m544.94,893.23c-6.34-1.49-11.63-2.1-22.19-3.3-17.72-2.02-33.64-3.84-52.71-2.18-19.94,1.73-34.46,6.5-44.71,9.93-10.49,3.52-28.58,9.72-48.79,23.54-10.89,7.45-24.91,17.03-37.4,34.83-12.47,17.77-17.49,35.26-19.71,46.13-12.57-2.67-25.11-5.33-37.63-7.99,4.71-21.82,13.23-36.48,19.23-45.01,2.34-3.33,13.2-19.47,33.22-34.45,1.92-1.43,7.48-5.52,15.14-9.95,42.65-24.65,92.27-26.19,116.39-26.94,4.94-.15,8.17-.25,11.63-.22,0,0,2.11.02,4.17.08,74.04,2.24,113.09,44,113.09,44,17.54,18.76,22.45,37.6,23.38,37.18,1.07-.48-5.03-25.31-25.79-43.66-16.73-14.78-36.2-19.37-47.33-21.99Z"/>
  <path class="cls-8" d="m583.94,907.77c1.64-6.19,4.36-19.8.37-36.84-3.47-14.82-10.4-25.26-14.34-30.45-3.86-.03-21.8.23-36.23,13.86-13.59,12.83-14.97,28.9-15.2,32.92,6.19.07,13.33.63,21.15,2.17,19.59,3.84,34.65,12,44.24,18.35Z"/>
  <path class="cls-9" d="m526.77,885.53c3.11-8.05,8.41-18.7,17.62-29.2,4.58-5.22,9.24-9.39,13.5-12.7-4.36.46-12.26,1.92-19.75,7.28-5.03,3.59-7.91,7.54-8.83,8.86-2.66,3.82-3.88,7.2-4.74,9.63-1.12,3.16-2.4,7.85-2.72,13.82"/>
  <path class="cls-6" d="m563.12,914.08c2.83,6.57,7.18,14.9,13.89,23.65,9.23,12.05,19.27,20.11,26.56,25.11-.82-5.34-3.73-19.54-15.81-32.49-9.21-9.87-19.41-14.36-24.64-16.27Z"/>
  <path class="cls-17" d="m554.44,907.96c1.63,1.49,3.26,3.11,4.88,4.85,9.41,10.12,14.96,20.93,18.34,29.95"/>
  <path class="cls-19" d="m319.43,1002.19c2.86,2.64,5.73,5.28,8.6,7.92,4.02-10.06,10.31-23.55,20.07-38.15,0,0,10.26-15.35,21.76-27.19,22.38-23.05,66.14-46.05,119.09-47.1,26.37-.52,72.58-1.44,100.08,30.33,10.47,12.1,15.12,25.32,17.37,34.92,4.03-.86,8.06-1.72,12.08-2.58-1.8-7.53-6.48-22.48-19.34-36.75-18.24-20.24-40.81-25.62-47.94-27.04-13.78-4.33-34.48-9.28-59.58-9.39-52.27-.23-89.14,20.77-102.26,29.08-11.46,7.26-40.07,25.86-59.52,62.01-5.09,9.46-8.36,17.89-10.42,23.94Z"/>
  <path class="cls-16" d="m316.55,1007.61c4.09-16.08,12.19-38.56,29.61-59.54,60.68-73.07,199.9-84.28,252.04-27.37,10.94,11.95,16.71,25.41,19.95,36.97"/>
  <path class="cls-12" d="m316.54,1011.93c1.34.47,3.15,1.27,5.02,2.67,2.93,2.19,4.56,4.75,5.38,6.29,4.07-17.68,12.42-41.71,31.03-63.51,58.2-68.14,186.69-77.71,230.76-27.24,8.76,10.03,13.07,21.13,15.36,30.2"/>
  <path class="cls-16" d="m316.19,1008.68c-5.15-1.14-11.93-3.18-19.31-7.02-6.33-3.29-11.29-6.96-14.94-10.09,4-13.73,11.51-32.98,26.59-51.4,44.88-54.83,134.59-74.61,198.6-56.87"/>
  <path class="cls-1" d="m341.76,1065.14c-3.48,35.36-27.7,61.29-53.98,57.67-26.18-3.61-44.18-35.16-40.32-70.21s27.74-60.04,53.54-56.73c25.9,3.32,44.21,34.22,40.76,69.27Z"/>
  <path class="cls-5" d="m314.38,1063.6c-3.05,29.96-23.25,51.98-45.05,48.99-21.73-2.98-36.59-29.67-33.27-59.42,3.29-29.53,23.28-51.08,44.75-48.31,21.53,2.78,36.6,28.99,33.58,58.74Z"/>
  <path class="cls-16" d="m337.41,1065c-3.49,35.35-27.72,61.28-53.98,57.65-26.16-3.61-44.14-35.15-40.26-70.19,3.84-34.74,27.76-60.02,53.55-56.72,25.89,3.32,44.16,34.21,40.7,69.25Z"/>
  <path class="cls-10" d="m314.38,1063.6c-3.05,29.96-23.25,51.98-45.05,48.99-21.73-2.98-36.59-29.67-33.27-59.42,3.29-29.53,23.28-51.08,44.75-48.31,21.53,2.78,36.6,28.99,33.58,58.74Z"/>
  <path class="cls-20" d="m281.46,1007.12c-21.2-2.74-40.89,18.07-44.07,46.66-3.2,28.79,11.53,54.65,32.98,57.59,21.52,2.95,41.42-18.3,44.36-47.29,2.93-28.79-12.01-54.21-33.27-56.96Zm20.92,39.75c-.24,1.68-1.47,2.9-2.74,2.73-1.27-.17-2.1-1.67-1.86-3.35.24-1.68,1.47-2.9,2.74-2.73,1.27.17,2.1,1.67,1.86,3.35Zm-7.32-11.37c.24-1.67,1.46-2.89,2.73-2.73,1.26.16,2.09,1.65,1.85,3.32-.24,1.67-1.47,2.9-2.73,2.73-1.26-.17-2.09-1.66-1.85-3.33Zm-5.67-9.19c.24-1.66,1.46-2.88,2.71-2.72,1.26.16,2.08,1.63,1.84,3.3s-1.46,2.88-2.72,2.72c-1.26-.16-2.07-1.64-1.83-3.3Zm-1.13,14.83c-.24,1.67-1.46,2.88-2.71,2.71-1.25-.17-2.07-1.65-1.82-3.32.24-1.66,1.46-2.88,2.71-2.71,1.25.17,2.07,1.65,1.83,3.32Zm-6.48-20.3c.24-1.65,1.45-2.87,2.69-2.71,1.25.15,2.06,1.62,1.82,3.28-.24,1.66-1.45,2.87-2.7,2.72-1.25-.16-2.06-1.62-1.81-3.28Zm-2.42,13.95c-.24,1.66-1.45,2.87-2.69,2.7-1.24-.16-2.05-1.64-1.8-3.29s1.45-2.86,2.69-2.7c1.24.16,2.05,1.63,1.81,3.29Zm-7.09-14.53c.24-1.65,1.44-2.86,2.68-2.7,1.24.15,2.04,1.61,1.8,3.26-.24,1.65-1.44,2.86-2.68,2.7-1.23-.16-2.04-1.62-1.79-3.26Zm-2.73,21.86c-.25,1.65-1.44,2.86-2.68,2.69-1.23-.17-2.03-1.64-1.78-3.29.25-1.65,1.44-2.85,2.67-2.69,1.23.16,2.03,1.64,1.79,3.29Zm-7.3-16.75c.25-1.64,1.43-2.84,2.66-2.69,1.23.15,2.02,1.61,1.78,3.26-.24,1.64-1.44,2.85-2.66,2.69-1.22-.16-2.02-1.62-1.77-3.26Zm-1.67,28.41c.25-1.65,1.44-2.85,2.67-2.68,1.23.17,2.03,1.65,1.78,3.31-.25,1.66-1.44,2.86-2.67,2.68-1.23-.18-2.02-1.66-1.78-3.31Zm-10.73-9.88c.25-1.64,1.43-2.84,2.64-2.67,1.22.16,2,1.63,1.76,3.27-.25,1.64-1.43,2.84-2.65,2.67-1.21-.17-2-1.63-1.75-3.28Zm-2.29,13.22c.25-1.64,1.43-2.84,2.65-2.67,1.22.17,2,1.65,1.75,3.3-.25,1.65-1.44,2.84-2.65,2.67-1.21-.18-2-1.65-1.75-3.3Zm2.64,16.45c-1.22-.18-2-1.67-1.76-3.33.25-1.65,1.44-2.84,2.65-2.66,1.22.18,2.01,1.67,1.76,3.32-.25,1.66-1.44,2.85-2.66,2.67Zm5.71,7.09c-.25,1.66-1.44,2.86-2.67,2.67-1.22-.19-2.01-1.69-1.77-3.35.25-1.66,1.44-2.85,2.66-2.67,1.23.19,2.02,1.69,1.77,3.35Zm-1.1-47.24c.25-1.64,1.43-2.84,2.65-2.68,1.22.16,2.01,1.62,1.76,3.26-.25,1.64-1.43,2.84-2.65,2.68-1.22-.16-2-1.62-1.76-3.26Zm6.36,56.36c-.25,1.67-1.45,2.87-2.68,2.67-1.23-.2-2.03-1.71-1.78-3.38.25-1.67,1.45-2.86,2.68-2.67,1.23.19,2.03,1.7,1.78,3.37Zm.32-20.19c.25-1.66,1.45-2.86,2.68-2.68,1.23.18,2.04,1.68,1.79,3.34-.25,1.67-1.45,2.87-2.68,2.68-1.23-.18-2.03-1.68-1.78-3.34Zm7.47,26.23c-.25,1.68-1.46,2.88-2.7,2.68-1.24-.2-2.05-1.72-1.8-3.4.25-1.68,1.45-2.87,2.7-2.68,1.24.2,2.05,1.72,1.8,3.4Zm4.76-14.69c-.25,1.68-1.46,2.88-2.7,2.69-1.24-.19-2.05-1.7-1.8-3.38.25-1.67,1.45-2.87,2.7-2.69,1.25.19,2.06,1.7,1.81,3.38Zm-.92-25.57c.25-1.66,1.45-2.87,2.69-2.7,1.24.17,2.05,1.66,1.81,3.33-.25,1.67-1.45,2.87-2.7,2.7-1.24-.18-2.05-1.67-1.8-3.33Zm6.51,41.45c-.25,1.69-1.47,2.89-2.72,2.69-1.25-.2-2.07-1.73-1.82-3.42.25-1.68,1.46-2.89,2.72-2.69,1.26.2,2.07,1.73,1.83,3.42Zm3.33-18.45c-1.26-.19-2.07-1.7-1.83-3.38.25-1.68,1.46-2.89,2.72-2.7,1.26.19,2.08,1.7,1.83,3.38-.25,1.68-1.47,2.89-2.72,2.7Zm6.4,14.42c-.25,1.69-1.47,2.9-2.74,2.7-1.26-.2-2.09-1.73-1.84-3.42.25-1.69,1.47-2.9,2.73-2.7,1.27.2,2.09,1.73,1.85,3.42Zm.72-28.9c-.24,1.68-1.47,2.89-2.73,2.71-1.26-.18-2.08-1.69-1.83-3.37.24-1.68,1.46-2.89,2.72-2.71,1.26.18,2.08,1.69,1.84,3.37Zm1.4-11.78c-.24,1.68-1.46,2.89-2.72,2.71-1.26-.18-2.08-1.67-1.83-3.35.24-1.67,1.46-2.89,2.72-2.71,1.26.17,2.08,1.67,1.84,3.34Zm5.67,31.36c-.24,1.69-1.48,2.91-2.75,2.71-1.27-.2-2.1-1.73-1.86-3.42.25-1.69,1.47-2.9,2.74-2.71,1.27.19,2.11,1.72,1.86,3.41Zm4.04-12.11c-.24,1.69-1.48,2.91-2.75,2.72-1.27-.19-2.11-1.71-1.86-3.4.24-1.69,1.47-2.91,2.75-2.72,1.27.18,2.11,1.71,1.87,3.4Zm2.03-13.09c-.24,1.69-1.47,2.91-2.75,2.73-1.27-.18-2.11-1.69-1.86-3.37.24-1.68,1.47-2.9,2.74-2.73,1.27.18,2.11,1.69,1.87,3.37Z"/>
  <path class="cls-16" d="m314.73,1064.08c-2.95,28.99-22.85,50.25-44.36,47.29s-36.18-28.81-32.98-57.59c3.18-28.59,22.87-49.4,44.07-46.66,21.26,2.75,36.2,28.17,33.27,56.96Z"/>
  <path class="cls-2" d="m342.79,1065.88c-6.57,66.93-46.39,117.09-88.6,111.08-41.95-5.97-69.41-65.08-61.71-131.08,7.59-64.96,46.56-112.78,87.38-107.72,41.08,5.1,69.4,61.86,62.93,127.72Z"/>
  <path class="cls-15" d="m590.22,962.2c5.1-.93,11.54-1.61,19.01-1.23,12.91.66,23.37,4.19,30.18,7.11"/>
  <path class="cls-15" d="m553.32,933.58c7.33,1.84,19.07,5.79,30.97,14.82,6.71,5.09,11.68,10.44,15.21,14.88"/>
  <path class="cls-8" d="m350.03,926.34c-2.63-1.25-19.68-9.71-24.98-28.64-4.69-16.74,1.7-35,16.21-46.34,7.2.74,20.49,3.05,34.66,11.57,15.89,9.55,24.62,21.94,28.51,28.29-3.01,1.23-6.06,2.58-9.15,4.06-18.65,8.91-33.54,20.09-45.25,31.07Z"/>
  <path class="cls-18" d="m361.76,912.89c-2.13-3.7-5.33-10.36-6.29-19.2-.88-8.14.51-14.69,1.66-18.56,3.92.52,11.47,2.06,19.19,7.37,5.97,4.11,9.66,8.83,11.7,11.91"/>
  <path class="cls-18" d="m545.02,889.94c.95-3.39,3.04-9.13,7.89-14.75,4.47-5.19,9.39-8.1,12.5-9.63,2.14,2.67,5.92,8.12,7.48,15.83,1.2,5.96.59,10.9-.03,13.9"/>
  <path class="cls-3" d="m341.13,920.05c-3.53-8.07-7.41-19.56-8.52-33.59-.56-6.96-.33-13.21.24-18.55-2.62,3.32-6.93,9.78-8.25,18.84-.89,6.09-.08,10.97.22,12.57.83,4.43,2.31,7.95,3.53,10.35"/>
  <path class="cls-16" d="m350.03,926.34c-4.24-6.14-12.52-19.86-14.21-38.95-1.46-16.61,2.75-29.48,5.43-36.03,7.2.74,20.49,3.05,34.66,11.57,15.89,9.55,24.62,21.94,28.51,28.29-3.01,1.23-6.06,2.58-9.15,4.06-18.65,8.91-33.54,20.09-45.25,31.07Z"/>
  <path class="cls-16" d="m341.26,851.36c-2.34,1.95-18.91,16.3-18.09,39.55.58,16.28,9.34,27.53,12.39,31.12,4.82,1.44,9.64,2.88,14.47,4.32"/>
  <path class="cls-16" d="m567.74,840.41c-4.72.35-26.03,2.45-39.67,19.72-5.95,7.53-8.38,15.33-9.47,20.56"/>
  <path class="cls-16" d="m583.94,907.77c1.64-6.19,4.36-19.8.37-36.84-3.47-14.82-10.4-25.26-14.34-30.45-5.47,2.08-15.3,6.74-24.07,16.96-9.81,11.45-13.21,23.95-14.49,30.23,2.7.49,5.46,1.07,8.29,1.76,17.12,4.15,31.95,11.01,44.24,18.35Z"/>
  <path class="cls-8" d="m649.59,1046.13c2.9,1.44,27.7,14.25,32.89,39.79,2.09,10.29.24,18.86-1.43,24-.07,1.55.06,4.33,1.83,6.85,3.14,4.47,9.79,5.82,12.9,4.74,9.42-3.26,4.1-34.78,2.49-43.56-1.57-4.9-6.54-18.21-19.95-28.22-7.01-5.23-13.86-7.72-18.44-8.97-3.43,1.79-6.86,3.57-10.28,5.36Z"/>
  <path class="cls-16" d="m651.74,1047.47c2,.81,28.25,12,32.62,38.15,2.02,12.08-1.52,22.05-3.7,26.94.03.99.24,3.58,2.16,5.74,2.46,2.77,6.71,3.67,10.75,2.27"/>
  <path class="cls-16" d="m661.39,1035.39c23.18,10.16,39.52,30.46,41.64,52.34,1.66,17.19-5.98,29.83-9.37,34.72"/>
  <path class="cls-4" d="m671.71,1024.14c-1.95,13.77-12.29,26.08-25.33,30.73,0,0-4.13-8-4.13-8,6.7-4.92,12.92-10.36,17.1-17.58,1.41-2.32,2.56-4.8,3.65-7.39l8.72,2.24h0Z"/>
  <path class="cls-13" d="m681.16,1149.38c-4.37,4.5-11.37,4.91-16.21,1.38-3.76-2.74-5.76-7.53-5.2-12.25,5.51-7.17,11.01-14.33,16.5-21.48.73-.28,6.54-2.42,12.44,1.04,3.98,2.34,5.72,5.89,6.25,7.09-4.58,8.06-9.17,16.14-13.77,24.23Z"/>
</svg>