<?xml version="1.0" encoding="UTF-8"?>
<svg id="_кепка_син." data-name="кепка син." xmlns="http://www.w3.org/2000/svg" viewBox="0 0 1170 2532">
  <defs>
    <style>
      .cls-1 {
        fill: #112fb0;
      }

      .cls-1, .cls-2, .cls-3, .cls-4, .cls-5, .cls-6, .cls-7, .cls-8 {
        stroke-linecap: round;
        stroke-linejoin: round;
      }

      .cls-1, .cls-3, .cls-4 {
        stroke: #0842ba;
      }

      .cls-1, .cls-4 {
        stroke-width: 5px;
      }

      .cls-2 {
        fill: #f0f0f0;
        stroke: #141414;
        stroke-width: 6px;
      }

      .cls-3 {
        stroke-width: 4px;
      }

      .cls-3, .cls-4 {
        fill: #0842ba;
      }

      .cls-9 {
        fill: #1161f4;
      }

      .cls-9, .cls-10, .cls-11, .cls-12 {
        stroke-width: 0px;
      }

      .cls-10 {
        opacity: .2;
      }

      .cls-11 {
        fill: #1f84f4;
      }

      .cls-5 {
        stroke-width: 10px;
      }

      .cls-5, .cls-6, .cls-7, .cls-8 {
        fill: none;
      }

      .cls-5, .cls-7 {
        stroke: #0830a6;
      }

      .cls-6 {
        stroke: #0d30ae;
      }

      .cls-6, .cls-7, .cls-8 {
        stroke-width: 8px;
      }

      .cls-8 {
        opacity: .15;
        stroke: #000;
      }

      .cls-12 {
        opacity: .13;
      }
    </style>
  </defs>
  <path class="cls-12" d="m411.5,1030.36c22.99,3.69,41.12-3.21,54.18-7.84,28.32-10.04,58.44-20.72,91.72-24.71,13.57-1.63,11.25-.18,46.1-2.38,26.15-1.65,47.41-3.73,61.31-5.23-21.96-11.57-53.98-25.46-94.34-32.91-127.84-23.6-245.52,34.77-243.09,49.54.82,4.97,14.77,3.15,69.86,19.96,4.62,1.41,8.52,2.64,14.26,3.56Z"/>
  <path class="cls-9" d="m592.37,945.88c-27.12-7.99-93.71-23.67-172.12-1.07-51.72,14.92-88.02,40.55-108.75,57.94-.79.66-1.55,1.31-2.29,1.94-19.5,8.8-38.99,17.59-58.48,26.38-.2-20.32,1.99-55.47,18.39-91.96,12.89-28.68,29.21-46.3,32.61-49.9,9.57-10.14,17.38-15.79,19.24-17.11,8.79-6.26,20.26-12.58,42.78-19.25,2.16-.64,4.51-1.33,7.06-2.05,11.9-3.37,27.99-7.34,47.61-9.27,14.05-1.39,29.92-1.74,47.36-.08,13.2,1.25,23.95,3.36,31.09,4.99,6.54,2.48,13.25,5.53,19.99,9.26,42.81,23.72,64.03,62.48,74.12,86.76.49,1.17.95,2.32,1.39,3.42Z"/>
  <path class="cls-2" d="m421.99,895.06c1.95,5.6,3.91,11.2,5.86,16.8,10.41,1.42,20.82,2.84,31.23,4.26,4.6-1.14,9.21-2.27,13.81-3.41,5.61-.65,11.23-1.29,16.84-1.94,3.38-4.53,6.76-9.05,10.14-13.58-2.09-5.31-4.18-10.63-6.27-15.94-8.3-1.98-16.6-3.96-24.9-5.94-5.17.12-10.34.24-15.51.36l-11.06,3.91c-6.72,5.16-13.43,10.32-20.15,15.48Z"/>
  <g>
    <path class="cls-2" d="m435.46,901.54c2.64-1.25,3.34-3.85,2.53-5.01-.77-1.1-3.29-1.52-5.51-.11,1.18,3.13,2.37,6.26,3.55,9.39"/>
    <path class="cls-2" d="m457.12,905.95l-6.9-.29c-2.03-4.8-4.06-9.6-6.09-14.39"/>
    <path class="cls-2" d="m448.28,897.67c2.39-.33,4.78-.67,7.17-1"/>
    <path class="cls-2" d="m444.25,890.7c1.94-1.55,3.88-3.09,5.82-4.64"/>
    <path class="cls-2" d="m464.84,895.62c4.55-.86,7.28-4.38,6.94-6.92-.39-2.83-4.81-5.86-10.11-4.37,1.75,7.01,3.5,14.03,5.25,21.04"/>
    <path class="cls-2" d="m486.72,888.59c-2.05-1.6-4.81-1.33-6.2.27-1.36,1.58-1.21,4.26-.03,5.22,1.12.91,2.47-.28,4.24.61,1.46.73,2.59,2.57,2.34,3.76-.62,2.92-9.89,3.19-12.48,3.23"/>
  </g>
  <path class="cls-11" d="m590.98,942.46c-1.66-.68-3.36-1.36-5.08-2.03-3.18-1.23-6.3-2.39-9.36-3.46-4.38-9.57-11.39-22.52-22.46-36-7.7-9.38-26.35-31.57-58.93-45.27-36.66-15.41-69.91-11.22-84.12-8.55,1.78-1.45,4.27-3.41,7.39-5.62,14.05-1.39,29.92-1.74,47.36-.08,13.2,1.25,23.95,3.36,31.09,4.99,6.54,2.48,13.25,5.53,19.99,9.26,42.81,23.72,64.03,62.48,74.12,86.76Z"/>
  <ellipse class="cls-1" cx="320.03" cy="892.42" rx="4.96" ry="2.63" transform="translate(-601.57 669.99) rotate(-56.7)"/>
  <path class="cls-10" d="m329.77,909.41c-4.8,10.77-20.74,46.52-9.51,56.08,6.99,5.95,20.36-1.78,45.62-10.93,29.49-10.68,54.61-15.84,71.29-18.53-40.02,12.86-68.54,28.36-87.45,40.4-16.11,10.25-36.24,24.99-69.76,41.47-12.17,5.98-22.42,10.38-29.24,13.19-.2-20.32,1.99-55.47,18.39-91.96,12.89-28.68,29.21-46.3,32.61-49.9,9.57-10.14,17.38-15.79,19.24-17.11,8.79-6.26,20.26-12.58,42.78-19.25,2.16-.64,4.51-1.33,7.06-2.05-12.23,11.98-28.82,31.2-41.04,58.61Z"/>
  <path class="cls-9" d="m673.06,986.16c-1.02,2.84-12.07-.4-30.65-3.8-13.75-2.53-31.63-5.15-52.63-5.47-39.2-.59-69.48,7.15-83.77,11.41-27.77,8.28-49.31,19.57-63.92,28.51-4.38,2.84-11.43,6.68-20.73,8.56-10.53,2.12-19.23.84-26.65-.72-30.72-6.44-71.43-18.07-80.56-20.71-.67-.19-1.18-.34-1.49-.43,15.59-14.04,44.02-36.63,84.45-52.87,13.6-5.46,28.55-10.21,44.82-13.67,0,0,66.39-14.13,150.44,8.91,4.17,1.14,20.07,5.61,39.65,14.62,10.18,4.67,32.33,15.62,39.1,22.11,1.51,1.44,2.26,2.67,1.94,3.55Z"/>
  <path class="cls-11" d="m671.12,982.61c-3.16.2-6.75.32-10.82.34-8.86-4.82-18.68-9.68-29.45-14.3-14.24-6.11-27.69-10.76-39.93-14.34-16.75-7.21-40.32-15.04-69.27-17.71-52.86-4.87-94.64,10.15-115.84,19.61-2.95-1.68-5.96-3.56-8.7-5.58,13.6-5.46,28.55-10.21,44.82-13.67,0,0,66.39-14.13,150.44,8.91,4.17,1.14,20.07,5.61,39.65,14.62,10.18,4.67,32.33,15.62,39.1,22.11Z"/>
  <path class="cls-10" d="m589.78,976.89c-30.25.02-50.51,3.63-60.62,5.63-7.54,1.49-15.12,3.38-23.15,5.78-27.77,8.28-49.31,19.57-63.92,28.51-4.38,2.84-11.43,6.68-20.73,8.56-10.53,2.12-19.23.84-26.65-.72-30.72-6.44-71.43-18.07-80.56-20.71,2.68-2.12,5.47-4.26,8.39-6.4,0,0,4.42-3.23,9.13-6.39,11.68-7.83,28.24-16.68,29.94-17.58,20.99,9.13,38.66,13.2,50.85,15.21,10.58,1.74,16.77,1.88,18.53,1.9,20.8.31,36.29-5.76,42.18-7.9,23.48-8.56,46.31-10.28,76.16-12.53,51.49-3.89,92.32,9.09,92.2,9.98-.08.61-19.69-3.35-51.75-3.33Z"/>
  <path class="cls-8" d="m398.67,846.2c8.32,1.69,21.06,5.39,34.22,14.14,11.55,7.68,18.76,16.15,21.86,20.08,2.96,3.75,4.94,6.85,7.01,10.22,5.15,8.35,12.45,20.85,21.03,37.78"/>
  <path class="cls-6" d="m381.56,848.1c-6.26,3.4-15.17,8.96-24.24,17.58-25.27,24.04-32.82,53.86-39.21,79.13-3.37,13.32-7.02,32.18-7.84,55.37"/>
  <path class="cls-5" d="m250.72,1031.07c19.49-8.79,38.99-17.58,58.48-26.38,47.9-34.03,154.17-98.55,260.56-67.01,7.44,2.21,14.99,4.91,22.6,8.2-9.47-23.91-30.62-65.31-75.51-90.18-6.74-3.73-13.45-6.78-19.99-9.27-7.14-1.62-17.89-3.73-31.09-4.99-47.01-4.48-82.59,5.65-102.03,11.41-22.52,6.67-33.98,12.99-42.77,19.25-1.86,1.32-9.68,6.97-19.25,17.11-3.4,3.6-19.72,21.23-32.61,49.9-16.4,36.49-18.59,71.64-18.39,91.96Z"/>
  <path class="cls-5" d="m312.65,1003.5c4.56,1.33,49.06,14.23,82.05,21.15,7.42,1.56,16.12,2.84,26.65.71,9.3-1.88,16.35-5.71,20.73-8.55,14.61-8.94,36.15-20.24,63.92-28.51,14.29-4.26,44.57-12,83.77-11.41,49.37.74,81.52,14.22,83.28,9.27,1.74-4.86-28.6-19.95-41.04-25.66-15.89-7.3-29.77-11.82-39.65-14.61"/>
  <ellipse class="cls-7" cx="380.97" cy="840.2" rx="11.64" ry="3.09" transform="translate(-166.31 97.53) rotate(-12)"/>
  <ellipse class="cls-4" cx="392.52" cy="873.73" rx="5.94" ry="3.38" transform="translate(-169.43 98.04) rotate(-11.73)"/>
  <ellipse class="cls-3" cx="479.39" cy="860.16" rx="2.79" ry="5.52" transform="translate(-473.26 1109.46) rotate(-75.53)"/>
</svg>