<?xml version="1.0" encoding="UTF-8"?>
<svg id="_наушники" data-name="наушники" xmlns="http://www.w3.org/2000/svg" viewBox="0 0 1170 2532">
  <defs>
    <style>
      .cls-1 {
        stroke-width: 8px;
      }

      .cls-1, .cls-2 {
        stroke: #969696;
        stroke-linecap: round;
      }

      .cls-1, .cls-2, .cls-3 {
        fill: none;
        stroke-linejoin: round;
      }

      .cls-4 {
        fill: #c8c8c8;
      }

      .cls-4, .cls-5, .cls-6, .cls-7, .cls-8, .cls-9, .cls-10 {
        stroke-width: 0px;
      }

      .cls-5 {
        fill: #8c8c8c;
      }

      .cls-6 {
        fill: #141414;
      }

      .cls-7 {
        opacity: .19;
      }

      .cls-8 {
        opacity: .11;
      }

      .cls-2, .cls-3 {
        stroke-width: 10px;
      }

      .cls-3 {
        stroke: #00753c;
      }

      .cls-9 {
        fill: #282828;
      }

      .cls-10 {
        opacity: .15;
      }
    </style>
  </defs>
  <path class="cls-9" d="m277.29,1052.45c-3.3,20.41,9.79,45.59,27.01,46.94,16.37,1.29,32.17-19.31,34.12-38.04,1.92-18.52-9-42.23-25.97-44.09-16.46-1.8-32.31,17.63-35.15,35.19Z"/>
  <path class="cls-6" d="m282.23,1053.25c-1.59,12,3.15,25.37,11.75,33.72,4.06,3.69,8.2,5.77,13.16,4.91,8.76-1.95,15.12-10.41,18.95-18.34,5.27-10.64,5.11-22.54.53-33.72-3.81-9.42-12.04-18.93-22.92-14.41-10.93,4.51-18.97,16.37-21.47,27.83h0Zm-9.89-1.6c2.9-23.64,27.47-52.2,52.76-37.84,14.65,8.81,21.77,26.69,22.04,43.12-.08,19.24-11.37,39.32-29.17,47.48-30.71,12.62-50.73-26.88-45.64-52.76h0Z"/>
  <path class="cls-4" d="m323.29,1043.01c1.19,2.62,8.07,18.61-.71,33.15-.91,1.51-9.31,15.03-19.96,13.9-11.33-1.2-18.62-18.29-18-31.54.73-15.72,12.88-32.5,23.7-31.37,8.17.86,13.07,11.66,14.97,15.86Z"/>
  <path class="cls-8" d="m304.81,1029.41c-3.48,4.12-10.06,13.27-10.34,25.78-.22,9.99,3.52,25.38,11.7,26.67,4.46.71,8.76-3.01,11.23-5.64.54.79,6.46,9.69,3.03,15.8-3.83,6.83-16.79,5.72-24.59,1.96-8.26-3.98-11.98-11.52-13.37-14.44-9.76-20.52-1.63-50.61,11.05-53.47,2.36-.53,6.03-.38,11.29,3.33Z"/>
  <path class="cls-2" d="m284.62,1060.61c.49,12.9,8.52,29.35,19.71,30,11.55.68,21.72-15.74,23.24-29.41,1.81-16.29-7.88-35.72-19.31-36.43-11.8-.73-24.3,18.58-23.64,35.84Z"/>
  <path class="cls-4" d="m613.96,960.97c-5.94-.47-11.88-.95-17.82-1.42-.25-8.36-1.83-22.44-9.98-36.84-18.5-32.7-56.07-40.82-63.44-42.41-12.35-2.67-30.69-3.91-47.07-3.46,0,0-3.21.1-6.16.25-3.51.18-27.51,1.72-55.44,11.49-23.7,8.29-50.25,22.5-69.51,46.85-2.52,3.19-4.92,6.55-7.17,10.1-4.7,7.41-24.44,50.14-21.54,78.13.28,2.73,1.72,14.32-2.22,15.96-2.93,1.23-7.71-3.52-9.51-5.7-13.39-16.23,3.71-53.14,9.03-64.63,4.39-9.47,11.41-24.89,25.11-40.69,3.77-4.35,8.05-8.73,12.91-13.02,18.58-16.39,39.22-26.13,60.21-32.03,28.02-7.89,56.67-8.93,81.89-9.79,11.07-.37,19.62-.04,29.29,1.73,10.33,1.88,43.78,8.51,68.61,38.19,14.47,17.3,20.29,35.59,22.81,47.29Z"/>
  <path class="cls-10" d="m414.05,888.58c-23.7,8.29-50.25,22.5-69.51,46.85-2.4-2.06-4.49-4.39-6.3-6.83,3.77-4.35,8.05-8.73,12.91-13.02,18.58-16.39,39.22-26.13,60.21-32.03,1.07,1.62,1.97,3.31,2.69,5.03Z"/>
  <path class="cls-7" d="m561.56,891.7c6,3.99,17.47,12.79,25.84,28.27,9.52,17.6,9.77,34.07,9.44,41.32,2.4-.14,5.12-.15,8.11.09,2.41.19,4.62.51,6.59.89-1.36-6.31-3.37-13.22-6.36-20.46-10.72-25.94-28.37-42.49-40.07-51.54-1.19.48-2.38.95-3.56,1.43Z"/>
  <path class="cls-1" d="m338.61,930.02c3.09.83,6.18,1.66,9.27,2.5"/>
  <path class="cls-5" d="m310.5,1045.05l-2.72,28.02c-.26,2.42-3.83,2.33-3.96-.1,0,0-1.31-28.12-1.31-28.12-.1-2.21,1.61-4.09,3.82-4.19,2.42-.13,4.43,1.99,4.18,4.39h0Z"/>
  <path class="cls-2" d="m318.12,1031.07c-.11-45.3,15.47-73.35,24.95-86.97,55.13-79.26,197.65-91.88,248.79-33.5,13.09,14.94,18.67,32.78,21.03,48.3"/>
  <path class="cls-2" d="m300.3,1027.27c.18-24.57,5-57.4,25.66-86.73,55.51-78.79,196.89-91.92,248.79-33.5,13.51,15.21,19.4,33.51,21.92,49.72"/>
  <path class="cls-3" d="m590.26,962.72c4.8-1.02,11.07-1.88,18.42-1.69,6.79.17,12.59,1.19,17.11,2.32"/>
</svg>