<?xml version="1.0" encoding="UTF-8"?>
<svg id="_Слой_131_копия_2" data-name="Слой 131 копия 2" xmlns="http://www.w3.org/2000/svg" viewBox="0 0 1170 2532">
  <defs>
    <style>
      .cls-1 {
        stroke: #c7c7c7;
      }

      .cls-1, .cls-2, .cls-3, .cls-4, .cls-5, .cls-6, .cls-7 {
        stroke-linecap: round;
        stroke-linejoin: round;
      }

      .cls-1, .cls-6, .cls-7 {
        stroke-width: 8px;
      }

      .cls-1, .cls-8 {
        fill: #fff;
      }

      .cls-2 {
        stroke-width: 9px;
      }

      .cls-2, .cls-3 {
        stroke: #7c3e00;
      }

      .cls-2, .cls-3, .cls-4, .cls-5, .cls-6, .cls-7 {
        fill: none;
      }

      .cls-3, .cls-4 {
        stroke-width: 10px;
      }

      .cls-4 {
        stroke: #5c360f;
      }

      .cls-9 {
        fill: #ff9535;
      }

      .cls-9, .cls-10, .cls-11, .cls-12, .cls-8, .cls-13, .cls-14, .cls-15 {
        stroke-width: 0px;
      }

      .cls-11 {
        opacity: .22;
      }

      .cls-5 {
        opacity: .7;
        stroke: #61340f;
        stroke-width: 6px;
      }

      .cls-6 {
        stroke: #df7d00;
      }

      .cls-12 {
        fill: #ff8abb;
      }

      .cls-7 {
        stroke: #bababa;
      }

      .cls-13 {
        fill: #ebebeb;
      }

      .cls-14 {
        fill: #a96200;
      }

      .cls-15 {
        opacity: .13;
      }
    </style>
  </defs>
  <path class="cls-14" d="m620.88,916.68c-1.02,4.31-2.89,8.26-5.44,11.69-6.05,8.2-15.86,13.42-26.66,13.29-3.08-3.45-7.9-8.03-14.71-11.93-5.26-3.01-10.15-4.71-13.96-5.72-2.68-5.38-3.9-11.2-3.72-16.88.24-8.46,3.53-16.62,9.5-22.58,10-9.96,24.57-10.87,35.44-6.01,13.31,5.94,23.48,21.63,19.56,38.15Z"/>
  <path class="cls-15" d="m613.71,929.58c-1.63,2.2-4.77,5.82-9.82,8.56-6.38,3.46-12.32,3.62-15.12,3.51-3.08-3.45-7.9-8.03-14.71-11.93-5.26-3.01-10.15-4.71-13.96-5.72-2.68-5.38-3.9-11.2-3.72-16.88.67.17,1.33.37,1.97.57,4.65-1.08,18.51-3.66,33.73,3.4,11.98,5.56,18.76,14.29,21.63,18.49Z"/>
  <path class="cls-3" d="m588.77,941.65c15.32.19,28.65-10.37,32.11-24.97,3.91-16.53-6.26-32.21-19.56-38.16-10.87-4.86-25.45-3.94-35.44,6.02-10,9.97-12.47,26.07-5.78,39.46,3.81,1,8.71,2.71,13.96,5.72,6.81,3.89,11.62,8.48,14.71,11.93Z"/>
  <path class="cls-14" d="m628.37,1166.23c1.42,9.89,3.37,18.83,5.49,26.73-44.55,17.59-107.31,36.55-184,42.13-72.62,5.28-136.01-3.02-186.1-14.65-25.19-5.85-47.04-12.56-64.98-18.8,2.84-6.92,6.13-14.22,9.97-21.77,2.31-4.54,4.66-8.86,7.01-12.95,4.13-126.76,68.58-221.67,145.48-235.75,3.18-.58,7.12-1.16,11.76-1.5,17.44-1.29,44.77.79,78.59,18.79.24.12.47.24.71.37.15.08.32.17.47.25,3.87-3.91,40.3-39.45,90.06-30.35,17.93,3.28,31.91,11.33,41.75,18.95,4.83,3.75,8.68,7.39,11.5,10.32,1.34,1.38,2.44,2.59,3.31,3.59,5.68-1.27,22.81-4.28,40.56,5.03,28.55,14.97,32.79,48.18,33.11,51.07-54.54-18.95-101.08-21.69-130.85-21.13-15.87.3-74.58,2.45-137.82,32.45-24.7,11.73-38.14,22.04-47.89,37.23-11.31,17.63-22.39,49.28-9.78,73.46,13.78,26.4,48.76,30.35,87.48,34.71,43.14,4.86,77.07-.72,100.19-5.03,24.54-4.57,56.2-12.76,91.63-28.18-.1,10.19.45,22.02,2.32,35.03Z"/>
  <path class="cls-15" d="m472.22,972.4c-11.25-5.08-49.94-20.85-95.29-6.6-41.13,12.93-62.66,42.64-75.51,60.37-40.28,55.6-38.12,116.04-32.25,135.83,4.34,14.61,12.58,25.03,12.58,25.03,6.91,8.72,14.23,13.46,17.59,15.6,38.32,24.32,122.18,26.66,122.18,26.66,36.5,1.02,55.22-1.13,55.22-1.01.01.31-116.31,21.04-248.18-17.11-12.44-3.6-22.67-7.04-29.77-9.55,2.84-6.92,6.13-14.22,9.97-21.77,2.31-4.54,4.66-8.86,7.01-12.95,4.13-126.76,68.58-221.67,145.48-235.75,3.18-.58,7.12-1.16,11.76-1.5,18.92.94,47.47,6.2,75.38,20.57,5.53,3.85,10.24,7.87,14.19,11.68,3.95,3.82,7.14,7.44,9.64,10.49Z"/>
  <path class="cls-15" d="m341.86,1111.08c-.54-6.63-.62-16.54,2.44-27.67,18.41-66.91,124.97-86.37,153.45-91.57,72.95-13.32,135.95,2.9,176.42,18.49-.81-6.5-1.63-13-2.44-19.5-16.23-5.28-38.71-11.58-65.98-16.1-2.38-.39-37.55-6.12-68.42-6.04-101.02.26-194.03,62.72-208.19,103.14-4.38,12.5-4.89,25.16-4.89,25.16s-.94,23.47,10.75,45.78c21.61,41.24,115.28,47.53,181.8,38.24,25.45-3.56,63.97-11.78,108.62-33.33-.53-4.99-1.06-9.98-1.59-14.97-35.52,15.4-66.34,23.57-88.46,28.17-22.89,4.77-81.38,15.08-138.3-.5-22.1-6.05-39.9-14.89-49.36-32.2-3.6-6.59-5.14-12.83-5.86-17.11Z"/>
  <path class="cls-3" d="m625.43,1147.68c-38.47,18.8-72.84,27.28-98.96,31.32-67.52,10.43-170.29,5.08-194.26-43.77-8.83-17.99-7.94-38.24-7.94-38.24.98-22.14,11.41-37.9,17.1-46.29,16.2-23.84,38.59-38.26,65.49-50.31,108.01-48.39,211.52-23.95,226.76-20.12,16.49,4.14,29.79,8.75,38.61,12.07"/>
  <path class="cls-3" d="m498.25,1165.91c-24.7,1.76-131.12,9.25-153.45-41.25-7.24-16.38-2.92-33.16-1.47-38.74,18.36-70.67,145.51-108.3,245.82-97.48,37.01,3.99,66.41,14.16,85.03,21.89.8-3.52,1.54-8.69.73-14.72-3.31-24.6-28.93-37.29-33.6-39.6-17.43-8.63-34.03-7.21-41.91-5.94-.87-1-1.97-2.21-3.31-3.59-2.82-2.93-6.66-6.57-11.5-10.32-9.84-7.62-23.82-15.67-41.75-18.95-49.76-9.1-86.19,26.44-90.06,30.35-.15-.08-.32-.17-.47-.25-.24-.13-.47-.25-.71-.37-42.82-22.78-75.24-20.06-90.36-17.29-76.9,14.08-141.34,109-145.48,235.75-2.72,2.77-5.81,6.5-8.56,11.32-6.19,10.86-7.29,21.42-7.44,27.34,54.43,17.98,142.16,39.1,250.08,31.02,77.24-5.79,140.58-24.71,185.83-42.39-3-8.45-6.02-19.11-7.88-31.63-1.75-11.76-2.04-22.24-1.74-30.85-52.86,26.34-98.56,33.61-127.83,35.69Z"/>
  <g id="_Слой_8_копия3_" data-name="Слой 8 (копия3)">
    <path class="cls-2" d="m560.99,945.23c-10.01-1.24-28.33-2.15-49.58,5.06-19.52,6.63-32.94,17.2-40.29,23.94-9.34-4.98-56.21-28.73-106.78-8.8-19.47,7.67-33.29,19.37-42.03,28.43"/>
  </g>
  <path class="cls-1" d="m306.23,900.14c2.35-.57,4.31-.62,5.64-.56,2.39.1,3.58.15,4.76.94,2.09,1.4,2.22,3.71,3.67,3.77,1.06.04,1.49-1.17,2.38-.94.84.22,1.01,1.45,1.65,2.83,1.08,2.32,2.56,3.03,3.48,4.15,1.22,1.47,2.12,4.41.22,10.94-14.45,4.59-26.03-.58-27.83-7.18-1.66-6.08,5.1-13.02,6.03-13.96Z"/>
  <path class="cls-14" d="m336.42,952.97c-1.86.62-3.93,1.4-6.15,2.38-3.29,1.45-6.91,3.33-10.64,5.81-8.1,5.36-13.69,11.4-17.23,15.92-18.89,1.48-36.16-10.47-41.53-28.21-3.87-12.71-.73-25.47,6.14-35.25,3.98-5.66,9.21-10.33,15.06-13.42,10.31-5.43,22.81-7.6,24.56-4.35,1.35,2.52-4.14,7.6-2.26,10.34,1.1,1.61,3.33.3,6.59,1.5,6.04,2.25,5.68,9.46,10.26,10.95,4.95,1.6,8.89-5.66,12.31-4.66,3.08.91,5.66,8.55,2.9,38.99Z"/>
  <path class="cls-15" d="m336.42,952.97c-1.86.62-3.93,1.4-6.15,2.38-1.02-.22-2.08-.51-3.2-.87,3.32-19.46-6.26-37.85-21.63-44.14-16.83-6.91-32.72,3.94-34.08,4.9-1.47-.51-2.94-1.05-4.37-1.62,3.98-5.66,9.21-10.33,15.06-13.42,10.31-5.43,22.81-7.6,24.56-4.35,1.35,2.52-4.14,7.6-2.26,10.34,1.1,1.61,3.33.3,6.59,1.5,6.04,2.25,5.68,9.46,10.26,10.95,4.95,1.6,8.89-5.66,12.31-4.66,3.08.91,5.66,8.55,2.9,38.99Z"/>
  <path class="cls-3" d="m302.39,977.08c-18.89,1.48-36.15-10.46-41.54-28.2-6.3-20.74,6.5-40.63,21.21-48.68,9.65-5.28,19.19-4.95,23.87-4.44-.31,2.56-.26,5.9,1.71,8.29,2.1,2.55,4.41,1.6,8.06,4.28,4.42,3.23,3.59,6.48,6.84,7.8,4.37,1.78,7.43-3.46,11.04-2.04,5.25,2.07,4.97,15.55,4.84,22.16-.14,6.97-1.12,12.72-2.02,16.72-4.63,1.55-10.54,4.05-16.79,8.19-8.1,5.36-13.69,11.41-17.23,15.92Z"/>
  <path class="cls-12" d="m310.17,968.57c-17.93-7.67-28.4-21.64-26.58-33.15.09-.58,1.87-10.86,10.28-14.78,6.51-3.03,13-.41,14,0,10.24,4.14,16.46,18.86,15.54,36.73-2.06,1.33-4.3,2.93-6.62,4.87-2.6,2.17-4.79,4.33-6.62,6.32Z"/>
  <path class="cls-11" d="m290.79,929.96c3.19.01,5.69.71,7.57,1.51,14.24,6.07,15.58,28.04,15.64,29.18,5.36-2.86,7.3-6.4,8.06-8.3,4.71-11.66-6.84-30.31-18.82-29.93-5.83.18-10.28,4.8-12.46,7.55Z"/>
  <path class="cls-3" d="m309.99,968.57c-17.45-7.47-27.64-21.06-25.87-32.26.09-.56,1.82-10.57,10-14.38,6.33-2.95,12.65-.4,13.63,0,9.96,4.03,16.02,18.36,15.12,35.75-2,1.29-4.18,2.85-6.44,4.74-2.53,2.11-4.66,4.21-6.44,6.16Z"/>
  <path class="cls-8" d="m380.59,1007.71c-5.76,4.24-16.16,7.94-24.89,2.52-.69-.43-7.91-5.07-8.98-13.44-1.51-11.84,10.28-23.19,22.03-25.2,6.44-1.1,17.17-.13,21.63,7.56,5.32,9.18-1.49,22.45-9.79,28.56Z"/>
  <path class="cls-8" d="m626.98,975.9c6.27,1.6,16.33,1.14,22-6.46.45-.6,5.09-7.02,3.28-14.49-2.56-10.55-16.27-16.1-26.93-13.74-5.84,1.29-14.66,5.82-15.95,13.88-1.55,9.61,8.55,18.5,17.6,20.81Z"/>
  <path class="cls-4" d="m380.59,1007.71c-5.76,4.24-16.16,7.94-24.89,2.52-.69-.43-7.91-5.07-8.98-13.44-1.51-11.84,10.28-23.19,22.03-25.2,6.44-1.1,17.17-.13,21.63,7.56,5.32,9.18-1.49,22.45-9.79,28.56Z"/>
  <path class="cls-4" d="m626.98,975.9c6.27,1.6,16.33,1.14,22-6.46.45-.6,5.09-7.02,3.28-14.49-2.56-10.55-16.27-16.1-26.93-13.74-5.84,1.29-14.66,5.82-15.95,13.88-1.55,9.61,8.55,18.5,17.6,20.81Z"/>
  <ellipse class="cls-10" cx="362.63" cy="994.86" rx="8.76" ry="8.19" transform="translate(-192.91 93.4) rotate(-11.62)"/>
  <ellipse class="cls-10" cx="633.32" cy="962.38" rx="7.34" ry="7.86" transform="translate(-443.11 1372.95) rotate(-77.53)"/>
  <g id="_глаз1_обыч._белок_копия_3" data-name="глаз1 обыч. белок копия 3">
    <path class="cls-5" d="m305.53,1044.05c-2.54,1.38-5.08,2.75-7.61,4.13"/>
    <path class="cls-5" d="m293.64,1027.09c-2.55,1.36-5.09,2.72-7.64,4.08"/>
    <path class="cls-5" d="m295.8,1000.92c-2.69,1.03-5.37,2.07-8.06,3.1"/>
    <path class="cls-5" d="m317.95,982.45c-2.59-.02-5.18-.05-7.76-.07"/>
    <path class="cls-5" d="m355.57,953.52c-1.4-2.24-2.8-4.48-4.2-6.72"/>
    <path class="cls-5" d="m384.02,948.03c-.94-2.48-1.88-4.96-2.83-7.44"/>
    <path class="cls-5" d="m476.3,951.2c-.64-2.58-1.28-5.16-1.92-7.74"/>
    <path class="cls-5" d="m502.82,934.49c-.28-2.29-.56-4.59-.84-6.88"/>
    <path class="cls-5" d="m522.78,934.52c.09-2.31.19-4.62.28-6.93"/>
    <path class="cls-5" d="m538.18,932.52c.58-2.23,1.15-4.47,1.73-6.7"/>
    <path class="cls-5" d="m578.66,954.83c.84-2.15,1.67-4.29,2.51-6.44"/>
    <path class="cls-5" d="m591.57,962.17c.75-1.52,1.49-3.04,2.24-4.56"/>
    <path class="cls-5" d="m562.35,958.98c.69-1.81,1.37-3.63,2.06-5.44"/>
    <path class="cls-5" d="m556.53,935.81c.67-1.38,1.34-2.77,2.02-4.15"/>
    <path class="cls-5" d="m529.06,961.07c.17-1.54.34-3.07.5-4.61"/>
    <path class="cls-5" d="m541.16,957.29c.17-1.54.34-3.07.5-4.61"/>
    <path class="cls-5" d="m492.37,948.26c-.28-2.29-.56-4.59-.84-6.88"/>
    <path class="cls-5" d="m409.04,987.01c-2.11-1.55-4.21-3.1-6.32-4.65"/>
    <path class="cls-5" d="m420.15,977.55c-1.32-2.29-2.65-4.58-3.97-6.87"/>
    <path class="cls-5" d="m437.92,976.8c-1.09-1.71-2.18-3.43-3.27-5.14"/>
    <path class="cls-5" d="m423.95,948.76c-1.09-1.71-2.18-3.43-3.27-5.14"/>
    <path class="cls-5" d="m267.73,1057.76c-2.22,1.88-4.43,3.75-6.65,5.63"/>
    <path class="cls-5" d="m308.47,1080.89c-2.33,1.72-4.67,3.44-7,5.15"/>
    <path class="cls-5" d="m300.99,1111.32c-2.19,1.03-4.38,2.07-6.58,3.1"/>
    <path class="cls-5" d="m317.64,1139.81c-2.19,1.03-4.38,2.07-6.58,3.1"/>
    <path class="cls-5" d="m340,1171.13c-2.19,1.03-4.38,2.07-6.58,3.1"/>
    <path class="cls-5" d="m315.42,1172.53c-1.93,1.49-3.86,2.97-5.8,4.46"/>
    <path class="cls-5" d="m338.31,1191.64c-2.07,2.28-4.14,4.56-6.21,6.84"/>
    <path class="cls-5" d="m300.63,1204.28c-1.71,2.58-3.42,5.15-5.13,7.73"/>
    <path class="cls-5" d="m257.1,1198.6c-2.01,2.34-4.02,4.67-6.03,7.01"/>
    <path class="cls-5" d="m390.49,1202.64c-.95,2.24-1.89,4.48-2.84,6.73"/>
    <path class="cls-5" d="m410.65,1194.34c-.63,2.77-1.26,5.54-1.89,8.31"/>
    <path class="cls-5" d="m424.09,1215.72c-.63,2.77-1.26,5.54-1.89,8.31"/>
    <path class="cls-5" d="m394.4,1219.5c-.63,2.77-1.26,5.54-1.89,8.31"/>
    <path class="cls-5" d="m443.6,1194.78c-.28,2.68-.56,5.36-.85,8.04"/>
    <path class="cls-5" d="m458.38,1207.4c-.12,2.69-.24,5.39-.36,8.08"/>
    <path class="cls-5" d="m481.35,1196.33c-.11,2.33-.22,4.67-.33,7"/>
    <path class="cls-5" d="m490.15,1211.99c-.11,2.33-.22,4.67-.33,7"/>
    <path class="cls-5" d="m512.32,1193.33c.26,2.32.52,4.64.78,6.97"/>
    <path class="cls-5" d="m528.44,1190.69c.26,2.32.52,4.64.78,6.97"/>
    <path class="cls-5" d="m613.17,1163.32c1.12,2.04,2.23,4.07,3.35,6.11"/>
    <path class="cls-5" d="m615.04,1179.3c.96,1.4,1.91,2.8,2.87,4.2"/>
    <path class="cls-5" d="m597.19,1175.18c.97,2.1,1.94,4.2,2.91,6.3"/>
    <path class="cls-5" d="m565.63,1188.43c.83,2.16,1.67,4.32,2.5,6.48"/>
    <path class="cls-5" d="m547.12,1199.56c.83,2.16,1.67,4.32,2.5,6.48"/>
    <path class="cls-5" d="m587.07,1191.82c.83,2.16,1.67,4.32,2.5,6.48"/>
    <path class="cls-5" d="m582.48,1177.26c.78,1.37,1.56,2.75,2.34,4.12"/>
    <path class="cls-5" d="m525.1,1208.08c.41,2.3.83,4.6,1.24,6.9"/>
    <path class="cls-5" d="m383.16,1183.77c-.95,2.24-1.89,4.48-2.84,6.73"/>
    <path class="cls-5" d="m351.39,1206.16c-1.87,3.44-3.75,6.88-5.62,10.31"/>
    <path class="cls-5" d="m368.11,1203.62c-.73,1.39-1.46,2.79-2.18,4.18"/>
    <path class="cls-5" d="m320.83,1215.69c-.73,1.39-1.46,2.79-2.18,4.18"/>
    <path class="cls-5" d="m257.69,1110.66c-1.39.67-2.79,1.33-4.18,2"/>
    <path class="cls-5" d="m360.31,1178.59c-1,1.58-1.99,3.16-2.99,4.75"/>
    <path class="cls-5" d="m285.02,1187.36c-2.19,1.03-4.38,2.07-6.58,3.1"/>
    <path class="cls-5" d="m269.26,1166.98c-2.19,1.03-4.38,2.07-6.58,3.1"/>
    <path class="cls-5" d="m231.08,1185.59c-2.4.29-4.79.57-7.19.86"/>
    <path class="cls-5" d="m250.56,1153.77c-2.19,1.03-4.38,2.07-6.58,3.1"/>
    <path class="cls-5" d="m234.68,1142.2c-2.19,1.03-4.38,2.07-6.58,3.1"/>
    <path class="cls-5" d="m265.06,1126.61c-2.33.66-4.65,1.31-6.98,1.97"/>
    <path class="cls-5" d="m295.58,1160.59c-1.64,1.31-3.27,2.62-4.91,3.93"/>
    <path class="cls-5" d="m296.78,1136.86c-2.2,1.93-4.39,3.85-6.59,5.78"/>
    <path class="cls-5" d="m295.27,1067.68c-2.33,1.72-4.67,3.44-7,5.15"/>
    <path class="cls-5" d="m242.09,1100.69c-1.97,1.01-3.94,2.02-5.91,3.03"/>
    <path class="cls-5" d="m255.37,1082.77c-2.03.88-4.05,1.76-6.08,2.65"/>
    <path class="cls-5" d="m246.2,1065.6c-2.03.88-4.05,1.76-6.08,2.65"/>
    <path class="cls-5" d="m269.53,1026.25c-2.03.88-4.05,1.76-6.08,2.65"/>
    <path class="cls-5" d="m333.92,1002.49c-2.18.28-4.37.56-6.55.83"/>
    <path class="cls-5" d="m344.67,1032.67c-2.18.28-4.37.56-6.55.83"/>
    <path class="cls-5" d="m277.82,1092.68c-1.77,1.37-3.55,2.74-5.32,4.1"/>
    <path class="cls-5" d="m324.76,1053.65c-2.28.61-4.56,1.22-6.85,1.83"/>
    <path class="cls-5" d="m329.13,1021.58c-2.39,1.64-4.78,3.27-7.16,4.91"/>
  </g>
  <path class="cls-13" d="m257.76,1139.19c4.94-6.39,8.31-12.68,18.87-22.32,3.84-3.5,8.89-7.98,14.99-13.02,7.46-7.14,17.29-6.05,20.7-1.18,2.35,3.36,1.87,8.83-.78,13.57-7.14,5.57-14.99,12.45-22.94,20.85-5.76,6.09-10.7,12.07-14.94,17.68-7.83,4.36-16.17,1.35-18.4-3.91-1.48-3.49-.3-8.06,2.49-11.67Z"/>
  <path class="cls-9" d="m270.35,1125.92c.66-9.03,6.66-15.7,13.28-16.29,5.56-.49,9.77,3.47,10.69,4.38,2.09,3.99,4.19,7.98,6.28,11.97-5.21,4.35-10.42,8.69-15.63,13.04-4.87-4.37-9.75-8.73-14.62-13.1Z"/>
  <path class="cls-6" d="m285.69,1108.54c2.58,1.86,5.94,4.75,8.99,9.05,1.68,2.37,2.9,4.65,3.8,6.64"/>
  <path class="cls-6" d="m268.53,1125.42c2.92,1.21,6.83,3.26,10.73,6.74,2.15,1.92,3.84,3.86,5.15,5.59"/>
  <path class="cls-7" d="m257.76,1139.19c3.69-4.78,5.13-6.31,9.97-13.19,3.46-4.92,3.32-6.02,5.5-9.14,2.92-4.18,8.18-9.35,18.39-13.02,7.46-7.14,17.29-6.05,20.7-1.18,2.35,3.36,1.87,8.83-.78,13.57-7.14,5.57-14.99,12.45-22.94,20.85-5.76,6.09-10.7,12.07-14.94,17.68-7.83,4.36-16.17,1.35-18.4-3.91-1.48-3.49-.3-8.06,2.49-11.67Z"/>
</svg>