<?xml version="1.0" encoding="UTF-8"?>
<svg id="_панама" data-name="панама" xmlns="http://www.w3.org/2000/svg" xmlns:xlink="http://www.w3.org/1999/xlink" viewBox="0 0 1170 2532">
  <defs>
    <style>
      .cls-1 {
        stroke-width: 10.05px;
      }

      .cls-1, .cls-2, .cls-3 {
        stroke: #8389ac;
      }

      .cls-1, .cls-2, .cls-3, .cls-4 {
        fill: none;
        stroke-linecap: round;
        stroke-linejoin: round;
      }

      .cls-5 {
        fill: #8d93b1;
        opacity: .24;
      }

      .cls-5, .cls-6, .cls-7, .cls-8, .cls-9, .cls-10 {
        stroke-width: 0px;
      }

      .cls-2 {
        stroke-width: 8.3px;
      }

      .cls-11 {
        opacity: .5;
      }

      .cls-6 {
        fill: url(#_Безымянный_градиент_83);
        opacity: .86;
      }

      .cls-7 {
        fill: #6e7c9e;
        opacity: .69;
      }

      .cls-3 {
        stroke-width: 8px;
      }

      .cls-4 {
        stroke: #5a6487;
        stroke-width: 4.2px;
      }

      .cls-8 {
        fill: url(#_Безымянный_градиент_74);
      }

      .cls-9 {
        fill: url(#_Безымянный_градиент_85);
      }

      .cls-10 {
        opacity: .13;
      }
    </style>
    <linearGradient id="_Безымянный_градиент_74" data-name="Безымянный градиент 74" x1="464.65" y1="899.48" x2="299.54" y2="837" gradientTransform="translate(-3.72 2.81) rotate(-.28)" gradientUnits="userSpaceOnUse">
      <stop offset=".24" stop-color="#c5d1e9"/>
      <stop offset=".4" stop-color="#bfcae3"/>
      <stop offset=".63" stop-color="#aeb8d2"/>
      <stop offset=".9" stop-color="#939ab7"/>
      <stop offset=".95" stop-color="#8d93b1"/>
    </linearGradient>
    <radialGradient id="_Безымянный_градиент_85" data-name="Безымянный градиент 85" cx="367.91" cy="902.02" fx="367.91" fy="902.02" r="144.37" gradientTransform="translate(2968.62 -210.07) rotate(74.22) scale(1 3.11)" gradientUnits="userSpaceOnUse">
      <stop offset=".15" stop-color="#8d93b1"/>
      <stop offset=".57" stop-color="#b9c0df"/>
    </radialGradient>
    <linearGradient id="_Безымянный_градиент_83" data-name="Безымянный градиент 83" x1="622.06" y1="974.56" x2="126.93" y2="1033.5" gradientTransform="translate(-3.72 2.81) rotate(-.28)" gradientUnits="userSpaceOnUse">
      <stop offset=".13" stop-color="#d4def6"/>
      <stop offset=".31" stop-color="#ced8f0"/>
      <stop offset=".54" stop-color="#c0c8e2"/>
      <stop offset=".78" stop-color="#a7afcb"/>
      <stop offset="1" stop-color="#8d93b1"/>
    </linearGradient>
  </defs>
  <path class="cls-10" d="m649.43,973.83c-55.86,24.93-133.54,52.29-229.08,64.9-62.13,8.2-117.59,8.28-163.53,5.17,1.99-4.26,4.99-10.31,9.09-17.29,14.28-24.32,43.81-74.62,95.59-84.22,0,0,40.02-6.79,89.03,16.33.23.11.47.23.7.35.15.08.31.16.47.24,3.81-3.69,39.71-37.27,88.74-28.67,17.67,3.1,31.44,10.7,41.14,17.9,4.76,3.54,8.55,6.98,11.33,9.75,1.32,1.3,2.4,2.45,3.26,3.39,21.2-2.39,39.87,2.94,53.27,12.15Z"/>
  <path class="cls-8" d="m564.65,915.75c-43.05,17.93-111.26,39.62-195.16,38.58-27.73-.34-52.8-3.11-74.75-6.96.96-15.12,1.92-30.23,2.88-45.35.36-5.74,1.44-12.6,4.9-20.75,2.67-6.28,6.22-11.73,7.88-14.17,2.21-3.23,4.05-5.47,6.22-8.1,2.99-3.63,7.15-8.66,13.13-14.19,0,0,6.86-6.35,14.55-11.51,9.54-6.39,20.75-9.18,60.39-15.75,34.31-5.69,45.89-6.92,54.17-7.65,12.33-1.09,19-1.23,31.52-1.49,25.06-.52,30,.96,33.66,2.54,4.75,2.05,5.69,3.55,19.19,10.68,7.33,3.87,9.59,4.77,11.83,6,12.02,6.63,13.94,17.68,22.35,35.52,12.89,27.34,22.49,31.42,18.73,39.58-2.56,5.57-10.56,10.91-31.49,13.03Z"/>
  <path class="cls-5" d="m301.1,887.53c31.81,2.75,58.99,2.34,79.83,1.1,16.55-.98,65.2-4.64,126.32-22.44,24.81-7.22,45.3-14.92,60.39-21.12,3.52,9.73,7.04,19.47,10.56,29.2-20.27,9.74-50.18,22.2-88.1,31.17-7.73,1.83-25.13,4.62-59.94,10.21-54.95,8.82-74.55,10.69-98.63,8.42-13.66-1.29-24.8-3.54-32.25-5.3.61-10.42,1.22-20.83,1.83-31.25Z"/>
  <path class="cls-1" d="m565.96,926.7c-42.86,19.16-110.89,42.08-195,39.65-27.79-.8-52.96-4.25-75.02-8.83.73-16.69,1.45-33.39,2.18-50.08.28-6.34,1.25-13.9,4.59-22.86,2.57-6.9,6.05-12.87,7.68-15.54,2.16-3.54,3.97-5.98,6.1-8.86,2.94-3.97,7.03-9.46,12.94-15.49,0,0,6.77-6.91,14.41-12.5,9.46-6.92,20.65-9.83,60.28-16.49,34.3-5.76,45.89-6.94,54.17-7.62,12.34-1.01,19.03-1.07,31.57-1.16,25.11-.19,30.09,1.52,33.77,3.32,4.79,2.34,5.76,4.01,19.41,12.1,7.41,4.39,9.68,5.42,11.95,6.82,10.46,6.46,14.84,22.52,22.95,39.6,12.97,27.28,24.23,31.02,21.36,40.58-1.29,4.3-6.4,13.03-33.33,17.37Z"/>
  <path class="cls-9" d="m295.58,950.72c36.73,5.2,67.99,5.59,91.34,4.67,17.28-.68,75.47-3.87,147.46-27.78,27.65-9.19,50.14-19.04,66.32-26.81,15.26,12.93,30.53,25.86,45.79,38.79,7.26,4.41,14.52,8.82,21.78,13.22-7.46,5.3-18.89,12.67-33.8,19.38-23.06,10.38-42.14,13.68-52.14,15.47-59.96,10.74-40.27,11.71-123.48,25.57-127.36,21.21-160.76,16.82-182,12.46-16.01-3.28-28.9-7.33-37.4-10.28,14.86-16.49,29.72-32.98,44.57-49.47,3.85-5.08,7.7-10.15,11.56-15.23Z"/>
  <path class="cls-6" d="m294.25,1007.06c23.22.72,54.81.97,92.22-.95,42.51-2.18,90.58-4.65,149.74-18.57,31.27-7.36,73.09-19.67,120.68-41.26.94.18,8.4,1.72,9.45,5.9,1.07,4.25-4.51,11.06-15.3,13.96-15.89,9.01-29.56,14.34-39.08,17.55-9.9,3.33-19.48,5.59-38.62,10.11-14.23,3.36-18.18,3.94-33.18,7.6-13.54,3.31-21.21,5.49-27.24,7.08-6.18,1.62-22.01,5.59-59.45,10.7,0,0-70.36,9.61-166.81,10.09-1.81,0-5.19.02-9.71-.46-17.38-1.82-30.81-8.55-39.51-14.03,4.22-5.31,8.43-10.62,12.65-15.93,14.72,2.74,29.45,5.47,44.17,8.21Z"/>
  <path class="cls-1" d="m254.42,997.11c-14.79,8.62-17.66,14.11-16.99,17.67,3.91,20.84,136.96,18,250.83-2.43,79.43-14.25,182.11-42.91,180-59.53-.37-2.9-3.85-4.92-7.03-6.23"/>
  <path class="cls-3" d="m252.2,1001.32c8.91,1.99,22.29,4.63,38.71,6.5,18.6,2.12,46.08,3.82,111.17-3.15,23.35-2.5,55.34-6,97.86-13.99,42.8-8.05,81.23-15.49,128.74-34.84,11.13-4.53,20.16-8.67,26.22-11.53"/>
  <g>
    <path class="cls-2" d="m297.29,917.8c8.15,1.7,19.73,3.72,33.74,4.79,5.1.39,26.27,1.84,54.53-1.26.82-.09.5-.05,44.6-5.67,15.1-1.93,17.57-2.24,22.26-2.93,11.23-1.64,25.33-3.7,40.48-7.15,14.84-3.38,24.81-6.75,44.74-13.51,11.25-3.81,26.09-9.09,43.42-16.01"/>
    <path class="cls-2" d="m301.59,886.04c2.86.75,7.14,1.69,12.39,2.07,6.4.47,11.21-.11,12.82-.28,16.5-1.8,29.96,1.72,58.58-.21,4.93-.33,14.32-1.44,33.08-3.64,16.04-1.88,19.9-2.51,22.08-2.88,14.13-2.43,22.18-5.32,34.01-8.79,34.07-10.01,39.81-7.27,66.85-16.69,11.48-4,20.56-7.95,26.23-10.54"/>
  </g>
  <path class="cls-1" d="m296.86,938.89c-.7,1.48-1.45,3.74-.83,6.08,5.34,20.04,102.58,14.04,175.67-.08,55.36-10.7,127.42-31.97,125.77-44.3-.14-1.07-.82-1.88-1.37-2.4"/>
  <path class="cls-1" d="m296.04,944.98c-9.9,10.4-16.22,19.55-20.24,26.2-2.45,4.05-4.16,7.37-8.02,12.03-5.18,6.26-8.99,8.61-16.07,14.97-3.6,3.22-8.64,8.02-14.32,14.44"/>
  <path class="cls-1" d="m596.01,897.17c4.77,3.8,12.16,9.81,21,17.62,8.99,7.95,9.46,8.89,14.79,13.03,7.61,5.9,14.62,10.14,24.49,16.12,4.84,2.93,8.88,5.26,11.61,6.81"/>
  <ellipse class="cls-7" cx="299.02" cy="967.37" rx="3.97" ry="4.34" transform="translate(-4.75 1.48) rotate(-.28)"/>
  <ellipse class="cls-7" cx="314.53" cy="970.52" rx="3.97" ry="4.34" transform="translate(-4.76 1.56) rotate(-.28)"/>
  <ellipse class="cls-7" cx="329.78" cy="972.49" rx="3.97" ry="4.34" transform="translate(-4.77 1.63) rotate(-.28)"/>
  <ellipse class="cls-7" cx="346.15" cy="973.15" rx="3.97" ry="4.34" transform="translate(-4.77 1.71) rotate(-.28)"/>
  <ellipse class="cls-7" cx="360.84" cy="973.08" rx="3.97" ry="4.34" transform="translate(-47.86 19.11) rotate(-2.85)"/>
  <ellipse class="cls-7" cx="374.96" cy="972.08" rx="3.97" ry="4.34" transform="translate(-47.79 19.81) rotate(-2.85)"/>
  <ellipse class="cls-7" cx="388.53" cy="971.08" rx="3.97" ry="4.34" transform="translate(-134.55 65.35) rotate(-8.2)"/>
  <ellipse class="cls-7" cx="402.84" cy="969.9" rx="3.97" ry="4.34" transform="translate(-134.23 67.38) rotate(-8.2)"/>
  <ellipse class="cls-7" cx="416.22" cy="967.97" rx="3.97" ry="4.34" transform="translate(-133.82 69.27) rotate(-8.2)"/>
  <ellipse class="cls-7" cx="431.64" cy="965.11" rx="3.97" ry="4.34" transform="translate(-133.25 71.44) rotate(-8.2)"/>
  <ellipse class="cls-7" cx="447.24" cy="962.43" rx="3.97" ry="4.34" transform="translate(-132.71 73.64) rotate(-8.2)"/>
  <ellipse class="cls-7" cx="463.22" cy="960.49" rx="3.97" ry="4.34" transform="translate(-132.27 75.9) rotate(-8.2)"/>
  <ellipse class="cls-7" cx="478.83" cy="957.81" rx="3.97" ry="4.34" transform="translate(-131.73 78.1) rotate(-8.2)"/>
  <ellipse class="cls-7" cx="494.8" cy="954.01" rx="3.97" ry="4.34" transform="translate(-228.33 159) rotate(-14.88)"/>
  <ellipse class="cls-7" cx="509.29" cy="950.6" rx="3.97" ry="4.34" transform="translate(-226.97 162.61) rotate(-14.88)"/>
  <ellipse class="cls-7" cx="525.26" cy="946.43" rx="3.97" ry="4.34" transform="translate(-225.37 166.57) rotate(-14.88)"/>
  <ellipse class="cls-7" cx="541.6" cy="941.88" rx="3.97" ry="4.34" transform="translate(-223.65 170.61) rotate(-14.88)"/>
  <ellipse class="cls-7" cx="556.08" cy="937.35" rx="3.97" ry="4.34" transform="translate(-222 174.17) rotate(-14.88)"/>
  <ellipse class="cls-7" cx="570.56" cy="932.82" rx="3.97" ry="4.34" transform="translate(-220.35 177.74) rotate(-14.88)"/>
  <ellipse class="cls-7" cx="586.51" cy="926.05" rx="3.97" ry="4.34" transform="translate(-218.08 181.61) rotate(-14.88)"/>
  <ellipse class="cls-7" cx="599.87" cy="920.03" rx="3.97" ry="4.34" transform="translate(-339.06 350.2) rotate(-25.64)"/>
  <g class="cls-11">
    <g>
      <path class="cls-4" d="m358.25,909.64c2.73-1.41,3.73-4.65,3.08-6.17-.61-1.44-3.02-2.16-5.38-.52.78,4.06,1.55,8.11,2.32,12.13"/>
      <path class="cls-4" d="m372.84,913.38l-4.62-.41c-.96-3.5-1.93-7.03-2.9-10.58"/>
      <path class="cls-4" d="m367.61,907.17c1.66-.15,3.3-.29,4.93-.44"/>
      <path class="cls-4" d="m365.46,901.99c1.47-1.02,2.94-2.04,4.39-3.05"/>
      <path class="cls-4" d="m378.83,906.36c3.01-.42,5.07-2.76,5.06-4.53,0-1.99-2.58-4.32-6.15-3.54.54,5.02,1.07,10,1.6,14.96"/>
      <path class="cls-4" d="m393.23,902.41c-1.12-1.18-2.85-1.12-3.84-.08-.98,1.03-1.12,2.87-.46,3.58.62.67,1.56-.09,2.57.58.84.55,1.37,1.84,1.12,2.64-.63,1.96-6.4,1.86-8.04,1.8"/>
    </g>
  </g>
</svg>