<?xml version="1.0" encoding="UTF-8"?>
<svg id="_Слой_222" data-name="Слой 222" xmlns="http://www.w3.org/2000/svg" viewBox="0 0 1170 2532">
  <defs>
    <style>
      .cls-1 {
        fill: #5e5e5e;
      }

      .cls-1, .cls-2, .cls-3 {
        stroke-width: 0px;
      }

      .cls-2 {
        fill: #333;
      }

      .cls-3 {
        fill: #575757;
      }

      .cls-4 {
        fill: none;
        stroke: #404040;
        stroke-linecap: round;
        stroke-linejoin: round;
        stroke-width: 10px;
      }
    </style>
  </defs>
  <g>
    <path class="cls-3" d="m149.7,1270.24c-5.58.25-10.84.71-15.74,1.31,6.76-.76,16.09-1.52,27.21-1.51-3.66-.03-7.48.02-11.47.2Z"/>
    <path class="cls-1" d="m339.86,1373.6c-14.69-40.54-46.39-60.32-66.3-72.71-40.8-25.4-82.93-30.84-112.39-30.86.69,0,1.39.01,2.07.02-.17.77-.34,1.57-.5,2.4,5.4.11,11.75.27,19.22.51-.41,1.62-.83,3.36-1.24,5.2,22.08,3.73,49.27,11.38,75.02,27.71,20.71,13.13,52.36,32.91,66.3,72.71,9.5,27.13,6.67,51.76,3.92,65.47-19.23-3.44-40.7-8.54-63.68-16.16-37.15-12.32-55.99-18.83-68.91-36.12-12.21-16.33-14.02-34.15-16.16-55.13-2.45-24.08.37-44.38,3.52-58.48-6.74-1.14-13.01-1.91-18.62-2.45-2.27,12.12-4.21,28.76-2.96,48.34,1.52,23.81,4.44,61.78,30.3,89.47,15.01,16.07,37.33,22.47,81.98,35.29,27.61,7.92,50.96,12.39,67.01,14.98,4.65-12.74,16.15-49.55,1.43-90.19Z"/>
  </g>
  <path class="cls-4" d="m133.96,1271.54c-.09,1.36,79.78-10.06,144.24,28.28,14.94,8.89,49.3,30.02,63.92,72.95,14.27,41.9,1.09,79.14-3.68,91.02-16.05-2.59-39.4-7.06-67.01-14.98-44.65-12.81-66.97-19.22-81.98-35.29-25.84-27.66-28.76-65.73-30.3-89.47-1.41-21.86,1.14-40.16,3.8-52.87-3.95-.1-8.55-.16-13.66-.12-10.17.09-15.3.13-15.33.48Z"/>
  <path class="cls-4" d="m134.55,1273.45c-.2,2.67,64.02-3.81,121.19,32.44,20.71,13.13,52.36,32.91,66.3,72.71,9.5,27.13,6.67,51.76,3.92,65.47-19.23-3.44-40.7-8.54-63.68-16.16-37.15-12.32-55.99-18.83-68.91-36.12-12.21-16.33-14.02-34.15-16.16-55.13-2.77-27.21,1.19-49.61,4.75-63.68-37.91-1.23-47.33-.56-47.41.48Z"/>
  <ellipse class="cls-2" cx="303.27" cy="1447.87" rx="3.74" ry="4.28"/>
  <ellipse class="cls-2" cx="231.92" cy="1426.98" rx="3.74" ry="4.28"/>
</svg>