<?xml version="1.0" encoding="UTF-8"?>
<svg id="_Унитаз" data-name="Унитаз" xmlns="http://www.w3.org/2000/svg" xmlns:xlink="http://www.w3.org/1999/xlink" viewBox="0 0 1170 2532">
  <defs>
    <style>
      .cls-1 {
        fill: #ffb015;
        opacity: .35;
      }

      .cls-1, .cls-2, .cls-3, .cls-4, .cls-5, .cls-6, .cls-7, .cls-8, .cls-9, .cls-10, .cls-11, .cls-12, .cls-13, .cls-14, .cls-15 {
        stroke-width: 0px;
      }

      .cls-2 {
        fill: #f5f5f1;
      }

      .cls-16 {
        stroke-width: 11px;
      }

      .cls-16, .cls-17, .cls-18, .cls-19, .cls-20, .cls-21, .cls-22, .cls-23, .cls-24, .cls-25, .cls-26 {
        fill: none;
      }

      .cls-16, .cls-17, .cls-19, .cls-20, .cls-21, .cls-22, .cls-23, .cls-24, .cls-25, .cls-26 {
        stroke-linecap: round;
        stroke-linejoin: round;
      }

      .cls-16, .cls-21, .cls-23, .cls-25, .cls-26 {
        stroke: #a6a6a2;
      }

      .cls-17 {
        stroke-width: 5.29px;
      }

      .cls-17, .cls-19 {
        stroke: #915a00;
      }

      .cls-18 {
        stroke: #ffb015;
        stroke-miterlimit: 10;
        stroke-width: 4.63px;
      }

      .cls-3 {
        fill: #432700;
        opacity: .24;
      }

      .cls-19 {
        stroke-width: 7px;
      }

      .cls-20 {
        opacity: .5;
      }

      .cls-20, .cls-24 {
        stroke: #c8a542;
      }

      .cls-20, .cls-24, .cls-26 {
        stroke-width: 10px;
      }

      .cls-4 {
        opacity: .18;
      }

      .cls-5 {
        opacity: .14;
      }

      .cls-6 {
        fill: url(#_Безымянный_градиент_68);
        opacity: .34;
      }

      .cls-7 {
        fill: #c8a542;
      }

      .cls-7, .cls-11 {
        opacity: .28;
      }

      .cls-21 {
        stroke-width: 10.12px;
      }

      .cls-22 {
        stroke: #1fb7ff;
      }

      .cls-22, .cls-25 {
        stroke-width: 10.28px;
      }

      .cls-8 {
        fill: #ffeb13;
      }

      .cls-23 {
        stroke-width: 9px;
      }

      .cls-24 {
        opacity: .49;
      }

      .cls-9 {
        fill: #b4780f;
      }

      .cls-10 {
        fill: url(#_Безымянный_градиент_60);
      }

      .cls-10, .cls-13 {
        opacity: .35;
      }

      .cls-11 {
        fill: url(#_Безымянный_градиент_60-3);
      }

      .cls-12 {
        opacity: .12;
      }

      .cls-13 {
        fill: url(#_Безымянный_градиент_60-2);
      }

      .cls-14 {
        opacity: .07;
      }

      .cls-15 {
        opacity: .13;
      }
    </style>
    <radialGradient id="_Безымянный_градиент_60" data-name="Безымянный градиент 60" cx="248.97" cy="1705.09" fx="248.97" fy="1705.09" r="199.67" gradientTransform="translate(-2440 -469.88) rotate(-45.37) scale(.98 2.01) skewX(3.82)" gradientUnits="userSpaceOnUse">
      <stop offset="0" stop-color="#625623"/>
      <stop offset="1" stop-color="#fff" stop-opacity="0"/>
    </radialGradient>
    <radialGradient id="_Безымянный_градиент_68" data-name="Безымянный градиент 68" cx="527.7" cy="1532.93" fx="473.51" fy="1552.05" r="284.76" gradientTransform="translate(890.89 2400.44) rotate(-169.54) scale(1 .52) skewX(-.36)" gradientUnits="userSpaceOnUse">
      <stop offset="0" stop-color="#6c5623"/>
      <stop offset="1" stop-color="#fff" stop-opacity="0"/>
    </radialGradient>
    <radialGradient id="_Безымянный_градиент_60-2" data-name="Безымянный градиент 60" cx="288.18" cy="1349.72" fx="269.5" fy="1382.75" r="108.63" gradientTransform="translate(-2397.32 2440.48) rotate(-107.82) scale(.97 2.14) skewX(-2.34)" xlink:href="#_Безымянный_градиент_60"/>
    <radialGradient id="_Безымянный_градиент_60-3" data-name="Безымянный градиент 60" cx="-16.22" cy="1035.7" fx="-16.22" fy="1035.7" r="360" gradientTransform="translate(1375.83 228.02) rotate(57.64) scale(.98 1.55) skewX(-2.65)" xlink:href="#_Безымянный_градиент_60"/>
  </defs>
  <path class="cls-2" d="m493.25,1528.57c.43,19.86,1.84,41.59,4.75,64.86,3.51,27.98,8.59,53.39,14.26,75.89-.48,2.5-1.48,6.21-3.8,10.12-25.65,43.11-154.17,11.22-162.06,9.2-29.77-7.62-78.17-24.29-130.22-64.4-1.8-3.85-3.94-9.32-5.23-16.1-1.88-9.92-1.1-18.32-.12-24.49,2.46-15.41,14.86-70.99,33.86-146.27-6.05-.05-18.83-1.02-31.01-9.31-19.15-13.03-21.88-33.98-21.74-36.57.2-3.65,1.07-7.24,1.07-7.24,0,0,0,0,0,0,2.08-4.36,5.96-5.47,11.52-9.54,5.2-3.81,7.66-7.13,9.27-8.74,17.5-17.49,67.01-19.55,67.01-19.55,23.98-1-49.17.81,104.08-11.04,73.46-5.68,82.99-5.53,97.9-2.3,32.97,7.15,56,21.53,69.86,30.36,30.79,19.61,48.47,31.01,53.23,51.06,9.82,41.38-44.58,81.91-51.33,86.93-23.3,17.36-47.04,24.18-61.31,27.14Z"/>
  <path class="cls-10" d="m493.25,1528.57c.43,19.86,1.84,41.59,4.75,64.86,3.51,27.98,8.59,53.39,14.26,75.89-.48,2.5-1.48,6.21-3.8,10.12-25.65,43.11-154.17,11.22-162.06,9.2-29.77-7.62-78.17-24.29-130.22-64.4-1.8-3.85-3.94-9.32-5.23-16.1-1.88-9.92-1.1-18.32-.12-24.49,2.46-15.41,14.86-70.99,33.86-146.27-6.05-.05-18.83-1.02-31.01-9.31-19.15-13.03-21.88-33.98-21.74-36.57.2-3.65,1.07-7.24,1.07-7.24,0,0,0,0,0,0,2.08-4.36,5.96-5.47,11.52-9.54,5.2-3.81,7.66-7.13,9.27-8.74,17.5-17.49,67.01-19.55,67.01-19.55,23.98-1-49.17.81,104.08-11.04,73.46-5.68,82.99-5.53,97.9-2.3,32.97,7.15,56,21.53,69.86,30.36,30.79,19.61,48.47,31.01,53.23,51.06,9.82,41.38-44.58,81.91-51.33,86.93-23.3,17.36-47.04,24.18-61.31,27.14Z"/>
  <path class="cls-6" d="m493.25,1528.57c.43,19.86,1.84,41.59,4.75,64.86,3.51,27.98,8.59,53.39,14.26,75.89-.48,2.5-1.48,6.21-3.8,10.12-25.65,43.11-154.17,11.22-162.06,9.2-29.77-7.62-78.17-24.29-130.22-64.4-1.8-3.85-3.94-9.32-5.23-16.1-1.88-9.92-1.1-18.32-.12-24.49,2.46-15.41,14.86-70.99,33.86-146.27-6.05-.05-18.83-1.02-31.01-9.31-19.15-13.03-21.88-33.98-21.74-36.57.2-3.65,1.07-7.24,1.07-7.24,0,0,0,0,0,0,2.08-4.36,5.96-5.47,11.52-9.54,5.2-3.81,7.66-7.13,9.27-8.74,17.5-17.49,67.01-19.55,67.01-19.55,23.98-1-49.17.81,104.08-11.04,73.46-5.68,82.99-5.53,97.9-2.3,32.97,7.15,56,21.53,69.86,30.36,30.79,19.61,48.47,31.01,53.23,51.06,9.82,41.38-44.58,81.91-51.33,86.93-23.3,17.36-47.04,24.18-61.31,27.14Z"/>
  <path class="cls-2" d="m414,1275.24c-.38,11.92-1.03,32.39-1.78,58.3-27.76,1.44-57.05,3.76-87.68,7.24-36.75,4.17-71.27,9.51-103.37,15.52-2.95,3.25-7.48,7.96-13.54,13.11-8.82,7.49-13.34,11.25-18.89,11.38-9.87.24-16.71-8.96-17.47-10.01-.1-.15-.21-.29-.29-.44-6.99-10.13-3.05-21.66-2.56-23.02-10.42-2.9-34.48-10.6-52.75-26.92-3.42-3.05-8.85-7.97-13.9-15.86-1.65-2.58-5.59-9.12-9.98-24.15-4.07-13.92-5.52-24.83-5.71-26.22-6.72-50.44-8.62-101.44-16.04-151.79-1.13-7.68-2.27-14.64,1.19-22.31.77-1.69,1.7-3.24,2.8-4.66,9.88-12.72,33.18-15.11,68.96-23.87,30.11-7.38,31.45-3.41,139.25-9.66,28.05-1.63,48.15-3.07,76.04,2.3,20.58,3.96,36.99,10.01,48,14.71,1.19,5.68,3.05,15.01,4.87,26.57,8.18,51.86,6.12,88.39,2.85,189.74Z"/>
  <path class="cls-13" d="m414,1275.24c-.38,11.92-1.03,32.39-1.78,58.3-27.76,1.44-57.05,3.76-87.68,7.24-36.75,4.17-71.27,9.51-103.37,15.52-2.95,3.25-7.48,7.96-13.54,13.11-8.82,7.49-13.34,11.25-18.89,11.38-9.87.24-16.71-8.96-17.47-10.01-.1-.15-.21-.29-.29-.44-6.99-10.13-3.05-21.66-2.56-23.02-10.42-2.9-34.48-10.6-52.75-26.92-3.42-3.05-8.85-7.97-13.9-15.86-1.65-2.58-5.59-9.12-9.98-24.15-4.07-13.92-5.52-24.83-5.71-26.22-6.72-50.44-8.62-101.44-16.04-151.79-1.13-7.68-2.27-14.64,1.19-22.31.77-1.69,1.7-3.24,2.8-4.66,9.88-12.72,33.18-15.11,68.96-23.87,30.11-7.38,31.45-3.41,139.25-9.66,28.05-1.63,48.15-3.07,76.04,2.3,20.58,3.96,36.99,10.01,48,14.71,1.19,5.68,3.05,15.01,4.87,26.57,8.18,51.86,6.12,88.39,2.85,189.74Z"/>
  <path class="cls-11" d="m414,1275.24c-.38,11.92-1.03,32.39-1.78,58.3-27.76,1.44-57.05,3.76-87.68,7.24-36.75,4.17-71.27,9.51-103.37,15.52-2.95,3.25-7.48,7.96-13.54,13.11-8.82,7.49-13.34,11.25-18.89,11.38-9.87.24-16.71-8.96-17.47-10.01-.1-.15-.21-.29-.29-.44-6.99-10.13-3.05-21.66-2.56-23.02-10.42-2.9-34.48-10.6-52.75-26.92-3.42-3.05-8.85-7.97-13.9-15.86-1.65-2.58-5.59-9.12-9.98-24.15-4.07-13.92-5.52-24.83-5.71-26.22-6.72-50.44-8.62-101.44-16.04-151.79-1.13-7.68-2.27-14.64,1.19-22.31.77-1.69,1.7-3.24,2.8-4.66,9.88-12.72,33.18-15.11,68.96-23.87,30.11-7.38,31.45-3.41,139.25-9.66,28.05-1.63,48.15-3.07,76.04,2.3,20.58,3.96,36.99,10.01,48,14.71,1.19,5.68,3.05,15.01,4.87,26.57,8.18,51.86,6.12,88.39,2.85,189.74Z"/>
  <path class="cls-15" d="m196.69,1391.03c9.35,7.62,23.44,18.26,41.82,28.98,65.88,38.42,128.89,44.17,163.01,46.92,29.38,2.37,79.68,5.95,140.67-11.96,26.09-7.66,46.97-17.15,61.78-24.84.12-5.06.24-10.12.36-15.18-16.71,8.8-42.86,20.85-76.63,29.32-95.27,23.89-175.47.28-208.87-10-28.53-8.79-71.16-25.19-117.27-56.92-1.62,4.56-3.25,9.12-4.87,13.68Z"/>
  <path class="cls-4" d="m166.99,1350.1c15.6,1.92,31.21,3.83,46.81,5.75.83,14.3-10.68,25.88-23.52,25.99-10.75.09-20.95-7.86-23.52-19.32.08-4.14.16-8.28.24-12.42Z"/>
  <path class="cls-5" d="m494.2,1531.32c-.32,6.59-.63,13.19-.95,19.78-31.38,9.13-78.64,18.43-135.21,12.88-24.42-2.4-45.97-7.1-64.16-12.42-7.21,35.55-11.55,60.76-13.07,77.27-.21,2.29-.62,7.11-4.28,10.58-9.93,9.4-34.16-.35-43.72-4.6-3.09-.88-10.59-3.47-16.63-10.58-4.19-4.93-5.9-9.95-6.65-12.88,2.44-21.92,5.83-45.14,10.46-69.46,7.24-38.04,16.35-72.75,26.14-103.84,6.55,14.06,19.55,36.7,44.2,55.54,6.89,5.27,26.85,19.53,74.14,30.36,28.26,6.47,72.96,13.24,129.74,7.36Z"/>
  <path class="cls-14" d="m212.61,1370.11c13.59,9.7,32.79,21.96,57.27,33.35,10.61,4.93,53.96,24.46,115.96,32.2,24.93,3.11,77.66,9.19,142.57-6.9,30.58-7.58,54.98-17.88,72-26.22,2.18,1.66,7.76,6.27,6.89,11.04-.81,4.45-6.81,6.8-9.51,7.82-64.1,24.24-92.2,27.14-92.2,27.14-34.18,3.52-57.51,5.92-91.25,4.14-16.6-.88-55.56-2.79-99.8-16.1-24.83-7.47-63.36-22.12-105.03-51.98-2.76-3.84-3.12-8.42-.95-11.5,1.21-1.71,2.92-2.57,4.04-2.99Z"/>
  <path class="cls-26" d="m465.21,1531.78c17.18-.37,49.32-3.59,81.27-23.46,33.07-20.57,52.8-50.81,58.57-74.06,2.85-11.48,1.77-19.12.36-24.15-2.76-9.81-9.18-18.08-20.67-26.91-32.11-24.65-94.02-46.03-103.37-49.22-2.53-.46-5.07-.92-7.6-1.38-1.51-.17-3.73-.42-6.42-.69-33.03-3.27-115.01,5.75-115.01,5.75s-91.78,9.21-132.59,22.08c-3.41,1.07-6.18,2.99-6.18,2.99-2.87,1.99-4.68,4.27-5.7,5.75-.8,1.83-1.98,5.24-1.31,9.2,1.23,7.17,7.83,11.72,11.76,14.14,59.75,36.85,106.22,47.26,106.22,47.26,31.59,7.08,61.71,13.82,104.08,14.49,29.19.46,83.73.79,145.43-24.15,13.6-5.5,24.47-10.98,31.84-14.95"/>
  <path class="cls-12" d="m205.49,1352.17c-12.36-1.61-24.71-3.22-37.07-4.83-10.42-2.9-34.48-10.6-52.75-26.92-3.42-3.05-8.85-7.97-13.9-15.86-1.65-2.58-5.59-9.12-9.98-24.15-4.07-13.92-5.52-24.83-5.71-26.22-6.72-50.44-8.62-101.44-16.04-151.79-.65-4.39,2.67-22.05,1.19-22.31-.42-.07-1.03,1.31-1.42,2.3,6.05,1.81,12.23,3.57,18.53,5.29,15.02,4.09,29.61,7.59,43.72,10.58,2.33,50.5,5.94,96.26,9.98,136.61,5.33,53.08,10.46,87.26,37.79,106.25,9.51,6.61,19.11,9.57,25.66,11.04Z"/>
  <path class="cls-26" d="m206.55,1369.07c-2.49,2.47-11.28,11.79-11.76,25.87-.6,17.8,12.56,29.06,15.68,31.74,14.53,12.44,32.03,11.63,35.64,11.38,6.05,11.49,16.07,26.99,32.32,41.74,29.82,27.07,63.05,35.64,78.89,38.64"/>
  <path class="cls-26" d="m494.67,1529.49c-.17,19.25.7,40.71,3.33,63.94,3.22,28.47,8.45,53.93,14.26,75.89-.48,2.5-1.48,6.21-3.8,10.12-25.65,43.11-154.17,11.22-162.06,9.2-29.77-7.62-78.17-24.29-130.22-64.4-1.8-3.85-3.94-9.32-5.23-16.1-1.35-7.11-1.63-15.01-.12-24.49,2.46-15.43,15.37-70.75,35.29-145.58"/>
  <path class="cls-23" d="m302.2,1498.21c-10.44,66.94-18.64,116.1-21.39,130.63-.26,1.36-.86,4.32-3.33,5.98-8.58,5.77-30.36-10.52-45.15-23"/>
  <path class="cls-23" d="m412.57,1330.78c.25-4.36.49-8.73.71-13.11,4.46-86.7,3.88-171.46-1.01-254.09"/>
  <path class="cls-15" d="m382.04,1078.26c.42,2.78-43.26,12.29-79.6,17.48-30.38,4.34-78.7,8.94-138.06,4.6-24.94-1.82-57.1-5.61-94.1-13.8.11-1.21.69-5.87,4.75-9.66,3.56-3.32,7.67-3.98,9.03-4.14,18.34,4.73,44.7,10.35,76.87,13.11,25.16,2.16,44.57,1.77,63.33,1.15,34.12-1.13,84.1-3.62,148.22-9.64,4.41-.1,9.42-.02,9.56.91Z"/>
  <path class="cls-15" d="m297.92,1386.43c-.21-2.11-.21-5.09.95-8.28,4.68-12.84,24.62-19.3,79.49-22.88,0,0,92.47-6.04,144.83,18.28,8.95,4.16,14.63,8.9,15.92,15.18,1.54,7.52-3.79,14.48-6.42,17.48-.2-5.73-1.51-14.47-8.08-19.78-4.36-3.53-9.03-3.91-16.16-5.06-16.4-2.64-16.08-4.51-31.37-7.36-98.39-18.33-158.73,3.68-158.73,3.68-9.18,3.35-16.33,6.71-20.44,8.74Z"/>
  <path class="cls-7" d="m530.32,1396.55c.08-4.08-5.54-7.57-12.36-10.58-39.06-17.21-82.69-15.64-82.69-15.64-100.53,3.63-128.35,4.2-129.98,13.57-.54,3.09,1.78,7.05,4.28,9.2,5.92,5.09,16.16,2.85,24.48.92,15.63-3.62,18.33-8.88,24.71-6.9,9.3,2.88,11.96,16.66,14.73,15.87,2.58-.73-1.14-12.23,3.56-15.41,4.5-3.04,11.11,5.29,22.57,7.82,20.04,4.42,29.56-14.48,47.76-10.12,12.84,3.08,10.65,13.09,24.48,17.02,19.51,5.54,38.18-10.34,43.25-4.37,1.04,1.23,1.82,3.76-.71,9.66,1.25-.35,15.79-4.53,15.92-11.04Z"/>
  <path class="cls-21" d="m412.28,1063.57c.19,15.93-93.81,31.6-169.38,35.4-77.17,3.88-171.04-2.82-172.31-17.72-.36-4.19,6.7-7.98,12.52-10.82,50.77-24.8,102.17-24.01,158.73-27.14,60.69-3.36,103.4-9.91,154.46,9.2,8.3,3.11,15.93,6.56,15.98,11.08Z"/>
  <path class="cls-21" d="m70.59,1081.26c2.76,49,6.61,90.77,10.14,123.26,8.28,76.22,14.58,99.67,34.22,117.98,17.22,16.06,44.5,21.49,63.45,26.22,21.48,5.36,40.11,6.9,53.47,7.24"/>
  <path class="cls-21" d="m169.84,1348.03c-.66,1.74-4.08,11.34,1.07,21.39,6.53,12.74,20.96,14.7,22.1,14.83"/>
  <path class="cls-3" d="m531.89,1398.91c-2.73,19.95-89.76,24.8-157.9,15.62-46.14-6.21-72.54-17.78-70.9-27.41,1.63-9.61,31.3-18.2,78.37-19.56,69.34-2.01,153.14,11.5,150.43,31.35Z"/>
  <path class="cls-22" d="m343.78,1408.74c20.45-2.89,45.64-4.88,74.38-3.68,35.4,1.48,74.12,7.7,73.9,9.89-.18,1.83-27.45,1.86-148.28-6.21Z"/>
  <g id="_Слой_226" data-name="Слой 226">
    <path class="cls-9" d="m445.91,1419.29c-1.7-1.45-3.55-2.21-4.78-2.6.46-4.91-1.32-9.15-4.39-11.01,1.82,1.29,2.9,3.5,3.04,3.8.93,1.98.85,3.85.8,4.57,0,0-.08,1.43-.59,2.85-.31.86-.75,1.69-1.3,2.47-.02.04-.06.08-.08.13,2.43-.06,4.86-.12,7.29-.2Z"/>
    <path class="cls-9" d="m438.6,1419.49s.06-.08.09-.13c.58-1.01.97-2.08,1.13-3.2.66-4.5-2.22-10.51-6.02-11.42-1.71.09-2.94,1.2-3.48,1.76-1.87,1.92-5.44,5.1-10.93,7.31-1.96,1.04-4.19,1.8-6.79,1.98-.18.01-.36.02-.52.02-4.55.71-8.28.33-10.31.03-1.4.55-2.85,1.44-4.12,2.62,13.59,1.3,27.26,1.34,40.94,1.02Z"/>
    <path class="cls-9" d="m401.78,1415.85c-.28-.41-3.34-4.94-1.14-9.98,1.65-3.79,5.64-6.36,10.18-6.6-.32-.02-.59-.05-.83-.09-.8-2.62-.59-4.57-.22-5.88.73-2.63,2.31-3.6,2.51-5.98.17-1.95-.69-3.62-1.46-4.74,1.58.9,3.98,2.26,6.94,3.89,7.33,4.06,8.53,4.57,9.92,5.96,1.73,1.74,4.12,5.24,3.86,12.3,1.09-.15,2-.1,2.73.02-.15,0-.3-.01-.46,0-4.3-1.04-7.87,5.6-14.41,9.07-.21.09-.43.17-.65.26-2.33.88-4.58,1.43-6.66,1.75-4.4.17-6.32-1.55-10.31.03Z"/>
    <path class="cls-9" d="m435.65,1405.13c-.35-.14-.81-.28-1.39-.39.93.05,1.75.42,2.47.93-.34-.21-.71-.39-1.08-.54Z"/>
    <path class="cls-12" d="m432.58,1419.6c2.07-.03,4.13-.07,6.2-.12.81-.71,1.5-1.53,2.13-2.43.23-.33.51-.56.81-.71-.07-.16-.14-.32-.19-.48-.34-1.03-.45-2.12-.32-3.15-3.02,2.9-5.99,5.15-8.64,6.89Z"/>
    <path class="cls-12" d="m400.92,1413.94c.57,1.29,2.22,1.26,3.62,1.3,3.39.1,6.89.48,10.12-.6,1.06-.36,2.17-.62,3.29-.85,1.59-.58,2.91-1.24,3.94-1.83.27-.08,3.27-.98,6.88-2.51,1.34-1.1,2.51-2.37,3.34-3.71.34-.55.63-1.14.9-1.72-2.08-1.26-2.44-4.6-2.15-7.01-.21,0-.38,0-.51,0-.28,1.32-.87,3.36-2.26,5.51-5.05,7.76-15.54,9.06-18.44,9.42-2.14.26-5.44.46-9.49-.19.36.69.44,1.47.76,2.21Z"/>
    <path class="cls-17" d="m398.91,1417.51c.89-.65,1.85-1.22,2.87-1.66"/>
    <path class="cls-19" d="m444.46,1418.22c-1.42-.46-3.45-1.36-3.48-2.33-.21-5.8-3.41-11.51-9.44-11.16.19-4.81,3.76-.56,0,0,1.62-11.82-10.62-18.19-20.71-22.15,2.97,4.28,5.12,2.91,0,0,3.17,6.13-2.66,11.17-1.49,15.97,1.03.93,4.03.83,5.99-.22-4.57,1.03-1.57.81,0,0-4.57,1.03-9.59,1.12-12.9,4.79-2.79,3.1-4.5,12.45,1.35,12.97,7.09.63,14.33-.97,20.36-4.65,3.94-2.41,8.57-9.51,13.41-5.08,3.38,3.1,3.88,8.27,1.72,12.16"/>
    <path class="cls-8" d="m433.29,1419.59c-2.71-3.39-6.93-5.58-11.69-5.62-1.78-.01-3.5.27-5.09.82-2.63.89-4.91,2.48-6.64,4.54,7.79.36,15.61.39,23.43.27Z"/>
    <path class="cls-1" d="m412.99,1419.45c1.44-2.07,3.03-3.4,3.69-3.92-.05-.26-.11-.51-.17-.75-2.63.89-4.91,2.48-6.64,4.54,1.04.05,2.08.09,3.12.13Z"/>
    <path class="cls-18" d="m433.44,1419.59c-2.72-3.67-7.08-6.08-12.03-6.12-4.91-.04-9.28,2.26-12.06,5.83,8.01.38,16.05.42,24.09.29Z"/>
  </g>
  <path class="cls-25" d="m531.92,1398.33c-2.62,19.97-89.62,25.25-157.81,16.42-46.17-5.98-72.63-17.41-71.05-27.05,1.58-9.61,31.2-18.35,78.27-19.95,69.33-2.36,153.2,10.73,150.59,30.59Z"/>
  <ellipse class="cls-16" cx="249.68" cy="1058.44" rx="8.79" ry="5.03"/>
  <path class="cls-20" d="m177.44,1171.63c.25,4.76.52,9.52.79,14.26"/>
  <path class="cls-20" d="m260.38,1097.57c-16.05,2.52-33.7,4.51-52.75,5.52-11.71.62-22.9.81-33.5.69.23,5.74.46,11.49.71,17.25.48,11.08.99,22.13,1.54,33.13"/>
  <path class="cls-24" d="m475.66,1453.59c8.06-.66,16.51-1.56,25.31-2.76,8.21-1.12,16.06-2.4,23.52-3.79.53,2.4.98,5.58.83,9.31-.12,3.13-.63,5.81-1.19,7.93"/>
</svg>