<svg xmlns="http://www.w3.org/2000/svg" id="_стул_v1" data-name="стул v1" viewBox="0 0 1170 2532"><defs><style>.cls-1{fill:#323232}.cls-1,.cls-2,.cls-3,.cls-4{stroke-width:0}.cls-2{opacity:.21}.cls-5,.cls-6{stroke:#1e1e1e;fill:none;stroke-linecap:round;stroke-linejoin:round;stroke-width:10px}.cls-6{stroke:#141414}.cls-3{fill:#3c3c3c}.cls-4{fill:#282828}</style></defs><path d="m565.25 1518.67 13.07 108c3.88-.2 7.76-.4 11.64-.59l-30.42-233.82a195.743 195.743 0 0 0-25.19-22.34 195.641 195.641 0 0 0-36.95-21.62c-1.79-.53-6.93-1.81-12.95.24-5.61 1.91-8.81 5.62-9.98 7.13-9.82 60.4-19.64 120.79-29.47 181.19l9.98.36c10.77-60.99 21.54-121.98 32.32-182.97 8.29 1.88 21.39 5.92 35.17 15.21a104.212 104.212 0 0 1 27.09 26.61c5.23 40.87 10.46 81.74 15.68 122.61Z" class="cls-3"/><path d="m482.32 1370.4-27.09 165.39-9.98-.36c9.64-59.27 19.29-118.55 28.92-177.83 3.65-5.99 6.25-8.73 7.79-8.23 2.16.7 2.28 7.71.36 21.03Z" class="cls-4"/><path d="M457.49 1536.85c3.52-23.68 26-174.75 28.87-182.85 1.23-3.46 3.56-4.63 3.56-4.63 2.65-1.33 5.73-.19 7.13.36 31.57 12.24 51.45 28.87 51.45 28.87 3.07 2.57 7.9 6.76 11.41 13.78 1.37 2.74 2.26 5.34 2.85 7.6 9.35 75.56 18.69 151.13 28.04 226.69" class="cls-6"/><path d="M444.65 1538.28c3.52-23.68 26-174.75 28.87-182.85 1.23-3.46 3.56-4.63 3.56-4.63 2.65-1.33 5.73-.19 7.13.36 31.57 12.24 51.45 28.87 51.45 28.87 3.07 2.57 7.9 6.76 11.41 13.78 1.37 2.74 2.26 5.34 2.85 7.6 9.35 75.56 18.69 151.13 28.04 226.69M577.96 1628.1c4.28-.48 8.55-.95 12.83-1.43" class="cls-6"/><path d="M445.37 1538.75c3.96-.32 7.92-.63 11.88-.95M479.35 1350.32c4.44-.55 8.87-1.11 13.31-1.66" class="cls-6"/><path d="M199.07 1387.5c5.88 3.47 12.19 3.27 15.68 2.85a94.682 94.682 0 0 1-13.9-28.87 94.229 94.229 0 0 1-3.56-29.58c-3.16-.69-7.8-1.13-11.05 1.43-6.35 4.98-3.09 17.96-.36 28.87 3.02 12.02 5.16 20.57 13.19 25.31ZM438.12 1367.54c5.88 3.47 12.19 3.27 15.68 2.85a94.682 94.682 0 0 1-13.9-28.87 94.229 94.229 0 0 1-3.56-29.58c-3.16-.69-7.8-1.13-11.05 1.43-6.35 4.98-3.09 17.96-.36 28.87 3.02 12.02 5.16 20.57 13.19 25.31Z" class="cls-1"/><path d="M202.4 1392.73c-4.28-4.65-9.13-11.2-12.59-19.84-1.98-4.94-2.89-9-3.56-12.12-1.28-5.9-2.43-13.88-2.14-23.52M216.89 1392.85c-9.59-11.26-13.96-21.38-16.04-27.45a84.18 84.18 0 0 1-2.26-7.84 84.511 84.511 0 0 1-2.14-23.52M458.08 1368.97c-11.51-6.76-16.18-14.92-18.06-19.01-1.85-4.02-2.62-7.58-3.56-12.12a102.59 102.59 0 0 1-2.14-23.52M442.4 1373.49c-4.78-4.32-10.07-10.45-13.78-18.77-2.48-5.55-3.41-10.21-4.51-15.68-1.2-5.95-2.32-13.84-2.38-23.29" class="cls-6"/><path d="M557.83 1440.53c0 1.8-.08 3.37-.18 4.65-1.47 10.23-9.67 16.88-13.36 19.5-92.11 13.66-160.75 21.38-185.41 23.25-9.08.69-25.58 1.61-43.21-6a75.963 75.963 0 0 1-16.5-9.75l-95.07-54c-2.31-1.15-8.59-4.62-12.57-12a27.035 27.035 0 0 1-3.14-15c35.74 4.94 69.37 6.98 100.96 6.67 37.85-.34 72.77-4.03 104.89-10.06a557.777 557.777 0 0 0 84.28-22.74c21.39 12.59 42.77 25.19 64.16 37.78 2.76 2.8 5.87 6.56 8.55 11.41 3.02 5.45 4.71 10.86 5.63 15.73.54 2.87.8 5.55.91 7.94.04.92.06 1.79.06 2.62Z" class="cls-1"/><path d="M557.83 1440.53c0 1.8-.08 3.37-.18 4.65-1.47 10.23-9.67 16.88-13.36 19.5-92.11 13.66-160.75 21.38-185.41 23.25-9.08.69-25.58 1.61-43.21-6a75.963 75.963 0 0 1-16.5-9.75l-95.07-54c-2.31-1.15-8.59-4.62-12.57-12a27.035 27.035 0 0 1-3.14-15c16.96 1.43 34.31 3.19 52.04 5.3 8.3.99 16.49 2.04 24.59 3.14 19.94 2.65 34.85 8.81 44.2 13.54 18.28 9.25 30.96 15.68 38.85 28.51 2.44 3.97 7.79 14.03 19.25 19.96.08.04.31.17.66.35 0 0 2.3 1.18 4.82 1.97 18.3 5.72 72.7.06 72.7.06 17.89-1.86 47.73-4.01 73.43-8.79 3.01-.56 9.04-1.73 15.92-5.47 10.88-5.9 17.29-14.62 20.67-20.19.45.13.9.26 1.35.4.74 3.97.97 7.58.97 10.56Z" class="cls-2"/><path d="M204.1 1418.18c31.69 18 63.38 36 95.06 54 3.33 2.58 8.9 6.47 16.5 9.75 17.64 7.6 34.13 6.69 43.21 6 24.66-1.87 93.3-9.59 185.42-23.25 3.68-2.62 11.89-9.27 13.36-19.5 0 0 0 0 0 0 .48-6.01.56-18.35-6.42-30.94a52.592 52.592 0 0 0-8.55-11.41c-21.39-12.59-42.77-25.19-64.16-37.78-2.83 1.01-5.69 2-8.55 2.97-73.63 24.89-166.7 39.05-281.58 23.16-.21 2.55-.34 8.54 3.14 15 3.98 7.38 10.25 10.85 12.57 12Z" class="cls-5"/><path d="M301.25 1673.13c-3.88.2-7.76.4-11.64.59-4.36-36-8.71-72-13.07-108-5.23-40.87-10.46-81.74-15.68-122.61a104.38 104.38 0 0 0-27.09-26.61 104.298 104.298 0 0 0-35.17-15.21c-1.1 6.25-2.21 12.5-3.31 18.75l-29.01 164.22-9.98-.36c9.64-59.27 19.29-118.55 28.92-177.83.19-1.12.37-2.24.55-3.36 1.16-1.5 4.36-5.22 9.98-7.13 6.02-2.04 11.15-.77 12.95-.23a195.641 195.641 0 0 1 36.95 21.62c10.23 7.6 18.55 15.35 25.19 22.34 10.13 77.94 20.27 155.88 30.41 233.82Z" class="cls-3"/><path d="m193.37 1418.87-27.09 165.39-9.98-.36c9.64-59.27 19.29-118.55 28.92-177.83 3.65-5.99 6.25-8.73 7.79-8.23 2.16.7 2.28 7.71.36 21.03Z" class="cls-4"/><path d="M169.13 1582.48c3.52-23.68 26-174.75 28.87-182.85 1.23-3.46 3.56-4.63 3.56-4.63 2.65-1.33 5.73-.19 7.13.36 31.57 12.24 51.45 28.87 51.45 28.87 3.07 2.57 7.9 6.76 11.41 13.78 1.37 2.74 2.26 5.34 2.85 7.6 9.35 75.56 18.69 151.13 28.04 226.69" class="cls-6"/><path d="M156.3 1583.9c3.52-23.68 26-174.75 28.87-182.85 1.23-3.46 3.56-4.63 3.56-4.63 2.65-1.33 5.73-.19 7.13.36 31.57 12.24 51.45 28.87 51.45 28.87 3.07 2.57 7.9 6.76 11.41 13.78 1.37 2.74 2.26 5.34 2.85 7.6 9.35 75.56 18.69 151.13 28.04 226.69" class="cls-6"/><path d="M289.6 1673.72c4.28-.48 8.55-.95 12.83-1.43M157.01 1584.38c3.96-.32 7.92-.63 11.88-.95M190.99 1395.94c4.44-.55 8.87-1.11 13.31-1.66" class="cls-6"/><path d="M439.76 1308.55c-3.88.63-9.69 1.63-16.68 3.11a308.19 308.19 0 0 0-13.54 3.16c-6.13 1.57-11.49 3.16-16.33 4.75-16.77 5.51-27.43 10.98-43.04 15.47-36.87 10.61-75.79 8.36-94.16 3.74-3.71-.93-20.85-5.55-44.45-8.43-2.58-.32-4.67-.54-5.93-.68-9.35.36-18.7.71-28.05 1.06-4.23-39.82-8.45-79.65-12.67-119.47-.25-2.33-1.99-9.35 1.17-16.62 2.91-6.7 8.58-10.76 13.01-13.13 1.87-.52 5.48-1.52 10.01-2.72 0 0 16.8-4.46 46.85-8.85 27.94-4.06 67.31-8.06 115.27-8.35 15.51-.1 31.92.19 49.13 1 4.9.23 15.39.87 22.23 8.37 5.78 6.36 6.47 14.91 6.38 20.05l10.8 117.54Z" class="cls-3"/><path d="M393.21 1319.57c-16.77 5.51-27.43 10.98-43.04 15.47-36.87 10.61-75.79 8.36-94.16 3.74-3.71-.93-20.85-5.55-44.45-8.43-2.58-.32-4.67-.54-5.93-.68-9.35.36-18.7.71-28.05 1.06-4.23-39.82-8.45-79.65-12.67-119.47-.25-2.33-1.99-9.35 1.17-16.62 2.91-6.7 8.58-10.76 13.01-13.13 1.87-.52 5.48-1.52 10.01-2.72 0 0 16.8-4.46 46.85-8.85l.1.07c3.73 2.61 10.09 4.09 21.48.07.04-.02.07-.02.07-.02l-.2.08c-.39.15-25.86 7.62-33.13 12.54-4.94 3.34-8.57 10.3-8.44 36.95.22 43.68.33 65.52 15.83 83.46 14.27 16.52 33.48 20.71 51.07 24.54 58.6 12.79 112.84-8.83 110.49-8.05Z" class="cls-2"/><path d="m177.57 1330.73 28.06-1.05c1.26.13 3.35.36 5.93.67 23.6 2.89 40.74 7.5 44.45 8.43 18.37 4.62 57.29 6.87 94.16-3.74 23.16-6.66 35.44-15.5 72.91-23.39 6.99-1.47 12.8-2.48 16.68-3.11-3.6-39.18-7.2-78.36-10.79-117.54.09-5.14-.6-13.69-6.39-20.05-6.84-7.51-17.32-8.15-22.23-8.38-127.68-5.98-211.24 16.2-211.24 16.2-4.53 1.2-8.15 2.2-10.02 2.72-4.42 2.38-10.09 6.43-13.01 13.13-3.16 7.27-1.42 14.29-1.17 16.62 4.22 39.82 8.45 79.64 12.67 119.47Z" class="cls-5"/></svg>