<?xml version="1.0" encoding="UTF-8"?>
<svg id="_золотой_унитаз" data-name="золотой унитаз" xmlns="http://www.w3.org/2000/svg" xmlns:xlink="http://www.w3.org/1999/xlink" viewBox="0 0 1170 2532">
  <defs>
    <style>
      .cls-1 {
        stroke: url(#_Безымянный_градиент_265-2);
      }

      .cls-1, .cls-2, .cls-3, .cls-4, .cls-5, .cls-6, .cls-7, .cls-8, .cls-9, .cls-10, .cls-11 {
        fill: none;
        stroke-linecap: round;
        stroke-linejoin: round;
      }

      .cls-1, .cls-9 {
        stroke-width: 9px;
      }

      .cls-2 {
        stroke: url(#_Безымянный_градиент_265-8);
      }

      .cls-2, .cls-4, .cls-8 {
        stroke-width: 10px;
      }

      .cls-12 {
        opacity: .11;
      }

      .cls-12, .cls-13, .cls-14, .cls-15, .cls-16, .cls-17, .cls-18, .cls-19, .cls-20, .cls-21, .cls-22, .cls-23, .cls-24, .cls-25, .cls-26 {
        stroke-width: 0px;
      }

      .cls-12, .cls-13, .cls-15, .cls-25, .cls-26 {
        fill: #7f4400;
      }

      .cls-3 {
        stroke: url(#_Безымянный_градиент_265-7);
      }

      .cls-3, .cls-10, .cls-11 {
        stroke-width: 10.12px;
      }

      .cls-13 {
        opacity: .18;
      }

      .cls-14 {
        fill: #ffda32;
      }

      .cls-15 {
        opacity: .15;
      }

      .cls-16 {
        fill: #ac3300;
        opacity: .25;
      }

      .cls-17 {
        opacity: .5;
      }

      .cls-17, .cls-20, .cls-22, .cls-24 {
        fill: #fff;
      }

      .cls-4 {
        stroke: url(#_Безымянный_градиент_265-4);
      }

      .cls-18 {
        fill: url(#_Безымянный_градиент_173);
        opacity: .84;
      }

      .cls-19 {
        fill: url(#_Безымянный_градиент_171);
      }

      .cls-20 {
        opacity: .47;
      }

      .cls-5 {
        stroke: url(#_Безымянный_градиент_265-10);
        stroke-width: 11px;
      }

      .cls-21 {
        fill: url(#_Безымянный_градиент_166);
      }

      .cls-22 {
        opacity: .43;
      }

      .cls-6 {
        opacity: .42;
        stroke: #c89000;
      }

      .cls-6, .cls-7 {
        stroke-width: 10.28px;
      }

      .cls-7 {
        stroke: url(#_Безымянный_градиент_265-9);
      }

      .cls-23 {
        fill: url(#_Безымянный_градиент_170);
      }

      .cls-8 {
        stroke: url(#_Безымянный_градиент_265);
      }

      .cls-9 {
        stroke: url(#_Безымянный_градиент_265-5);
      }

      .cls-24 {
        opacity: .51;
      }

      .cls-25 {
        opacity: .17;
      }

      .cls-10 {
        stroke: url(#_Безымянный_градиент_265-6);
      }

      .cls-26 {
        opacity: .13;
      }

      .cls-11 {
        stroke: url(#_Безымянный_градиент_265-3);
      }
    </style>
    <linearGradient id="_Безымянный_градиент_173" data-name="Безымянный градиент 173" x1="519.75" y1="1198.29" x2="86.68" y2="1222.88" gradientUnits="userSpaceOnUse">
      <stop offset="0" stop-color="#ffff7a" stop-opacity=".99"/>
      <stop offset=".42" stop-color="#ffef65" stop-opacity=".75"/>
      <stop offset=".81" stop-color="#ffe254" stop-opacity=".55"/>
      <stop offset="1" stop-color="#ffde4e" stop-opacity=".47"/>
    </linearGradient>
    <linearGradient id="_Безымянный_градиент_171" data-name="Безымянный градиент 171" x1="411.33" y1="1747.98" x2="394.7" y2="1623.98" gradientUnits="userSpaceOnUse">
      <stop offset="0" stop-color="#ffff7a" stop-opacity=".99"/>
      <stop offset=".14" stop-color="#fff973" stop-opacity=".91"/>
      <stop offset=".73" stop-color="#ffe558" stop-opacity=".6"/>
      <stop offset="1" stop-color="#ffde4e" stop-opacity=".47"/>
    </linearGradient>
    <linearGradient id="_Безымянный_градиент_170" data-name="Безымянный градиент 170" x1="444.29" y1="1565.96" x2="428.6" y2="1449.04" gradientUnits="userSpaceOnUse">
      <stop offset="0" stop-color="#ffff7a" stop-opacity=".99"/>
      <stop offset="0" stop-color="#fffe79" stop-opacity=".98"/>
      <stop offset=".25" stop-color="#fff269" stop-opacity=".8"/>
      <stop offset=".48" stop-color="#ffe95d" stop-opacity=".66"/>
      <stop offset=".69" stop-color="#ffe355" stop-opacity=".56"/>
      <stop offset=".87" stop-color="#ffdf4f" stop-opacity=".49"/>
      <stop offset="1" stop-color="#ffde4e" stop-opacity=".47"/>
    </linearGradient>
    <linearGradient id="_Безымянный_градиент_265" data-name="Безымянный градиент 265" x1="361.04" y1="1706.88" x2="361.04" y2="1433.07" gradientUnits="userSpaceOnUse">
      <stop offset="0" stop-color="#cc9b00"/>
      <stop offset="1" stop-color="#dfaf2a"/>
    </linearGradient>
    <linearGradient id="_Безымянный_градиент_166" data-name="Безымянный градиент 166" x1="419.8" y1="1278.82" x2="392.71" y2="1428.52" gradientUnits="userSpaceOnUse">
      <stop offset="0" stop-color="#ffff7a" stop-opacity=".99"/>
      <stop offset=".14" stop-color="#fffc76" stop-opacity=".95"/>
      <stop offset=".38" stop-color="#fff56c" stop-opacity=".83"/>
      <stop offset=".71" stop-color="#ffe95d" stop-opacity=".65"/>
      <stop offset="1" stop-color="#ffde4e" stop-opacity=".47"/>
    </linearGradient>
    <linearGradient id="_Безымянный_градиент_265-2" data-name="Безымянный градиент 265" x1="267.27" y1="1640.52" x2="267.27" y2="1493.71" xlink:href="#_Безымянный_градиент_265"/>
    <linearGradient id="_Безымянный_градиент_265-3" data-name="Безымянный градиент 265" x1="180.57" y1="1389.31" x2="180.57" y2="1342.97" xlink:href="#_Безымянный_градиент_265"/>
    <linearGradient id="_Безымянный_градиент_265-4" data-name="Безымянный градиент 265" x1="276.05" y1="1523.45" x2="276.05" y2="1364.07" xlink:href="#_Безымянный_градиент_265"/>
    <linearGradient id="_Безымянный_градиент_265-5" data-name="Безымянный градиент 265" x1="414.3" y1="1335.28" x2="414.3" y2="1059.07" xlink:href="#_Безымянный_градиент_265"/>
    <linearGradient id="_Безымянный_градиент_265-6" data-name="Безымянный градиент 265" x1="241.43" y1="1105.11" x2="241.43" y2="1034.38" xlink:href="#_Безымянный_градиент_265"/>
    <linearGradient id="_Безымянный_градиент_265-7" data-name="Безымянный градиент 265" x1="151.23" y1="1361.02" x2="151.23" y2="1076.2" xlink:href="#_Безымянный_градиент_265"/>
    <linearGradient id="_Безымянный_градиент_265-8" data-name="Безымянный градиент 265" x1="406.6" y1="1536.78" x2="406.6" y2="1326.21" xlink:href="#_Безымянный_градиент_265"/>
    <linearGradient id="_Безымянный_градиент_265-9" data-name="Безымянный градиент 265" x1="417.49" y1="1424.01" x2="417.49" y2="1362.33" xlink:href="#_Безымянный_градиент_265"/>
    <linearGradient id="_Безымянный_градиент_265-10" data-name="Безымянный градиент 265" x1="249.68" y1="1068.97" x2="249.68" y2="1047.92" xlink:href="#_Безымянный_градиент_265"/>
  </defs>
  <path class="cls-14" d="m493.25,1528.57c.43,19.86,1.84,41.59,4.75,64.86,3.51,27.98,8.59,53.39,14.26,75.89-.48,2.5-1.48,6.21-3.8,10.12-25.65,43.11-154.17,11.22-162.06,9.2-29.77-7.62-78.17-24.29-130.22-64.4-1.8-3.85-3.94-9.32-5.23-16.1-1.88-9.92-1.1-18.32-.12-24.49,2.46-15.41,14.86-70.99,33.86-146.27-6.05-.05-18.83-1.02-31.01-9.31-19.15-13.03-21.88-33.98-21.74-36.57.2-3.65,1.07-7.24,1.07-7.24,0,0,0,0,0,0,2.08-4.36,5.96-5.47,11.52-9.54,5.2-3.81,7.66-7.13,9.27-8.74,17.5-17.49,67.01-19.55,67.01-19.55,23.98-1-49.17.81,104.08-11.04,73.46-5.68,82.99-5.53,97.9-2.3,32.97,7.15,56,21.53,69.86,30.36,30.79,19.61,48.47,31.01,53.23,51.06,9.82,41.38-44.58,81.91-51.33,86.93-23.3,17.36-47.04,24.18-61.31,27.14Z"/>
  <path class="cls-14" d="m414,1275.24c-.38,11.92-1.03,32.39-1.78,58.3-27.76,1.44-57.05,3.76-87.68,7.24-36.75,4.17-71.27,9.51-103.37,15.52-2.95,3.25-7.48,7.96-13.54,13.11-8.82,7.49-13.34,11.25-18.89,11.38-9.87.24-16.71-8.96-17.47-10.01-.1-.15-.21-.29-.29-.44-6.99-10.13-3.05-21.66-2.56-23.02-10.42-2.9-34.48-10.6-52.75-26.92-3.42-3.05-8.85-7.97-13.9-15.86-1.65-2.58-5.59-9.12-9.98-24.15-4.07-13.92-5.52-24.83-5.71-26.22-6.72-50.44-8.62-101.44-16.04-151.79-1.13-7.68-2.27-14.64,1.19-22.31.77-1.69,1.7-3.24,2.8-4.66,9.88-12.72,33.18-15.11,68.96-23.87,30.11-7.38,31.45-3.41,139.25-9.66,28.05-1.63,48.15-3.07,76.04,2.3,20.58,3.96,36.99,10.01,48,14.71,1.19,5.68,3.05,15.01,4.87,26.57,8.18,51.86,6.12,88.39,2.85,189.74Z"/>
  <path class="cls-18" d="m171.03,1104.26c20.64,2.2,37.99,5.05,51.33,7.6,18.18,3.48,28.39,6.29,33.03,14.73,2.82,5.14,3.81,12.77,4.28,16.4,1.09,8.42.44,14.87.3,16.36-1.52,16.26,1.29,48.78,2.55,93.42.63,22.35,1.08,54.65,0,95.52,50.02-5.84,100.04-11.68,150.06-17.52,3.16-40.14,4.98-83.79,4.63-130.52-.35-47.01-2.86-90.88-6.65-131.17-20.95,7.43-44.28,14.36-69.86,19.96-62.3,13.65-117.97,15.07-162.06,12.36-2.53.95-5.07,1.9-7.6,2.85Z"/>
  <path class="cls-13" d="m196.69,1391.03c9.35,7.62,23.44,18.26,41.82,28.98,65.88,38.42,128.89,44.17,163.01,46.92,29.38,2.37,79.68,5.95,140.67-11.96,26.09-7.66,46.97-17.15,61.78-24.84.12-5.06.24-10.12.36-15.18-16.71,8.8-42.86,20.85-76.63,29.32-95.27,23.89-175.47.28-208.87-10-28.53-8.79-71.16-25.19-117.27-56.92-1.62,4.56-3.25,9.12-4.87,13.68Z"/>
  <path class="cls-19" d="m424.69,1701.52c5.69,1.06,59.79,10.46,81.27-19.25,2.18-3.01,4.18-6.65,5.7-11.05-6.18-29.35-12.36-58.69-18.53-88.04.51,10.98-.69,27.06-11.05,39.56-3.67,4.43-18.92,21.02-84.12,16.4-27.54-1.95-68.05-7.97-115.49-27.09,7.38,9.95,16.38,20.41,27.33,30.65,40.71,38.06,86.66,52.68,114.89,58.81Z"/>
  <path class="cls-13" d="m166.99,1350.1c15.6,1.92,31.21,3.83,46.81,5.75.83,14.3-10.68,25.88-23.52,25.99-10.75.09-20.95-7.86-23.52-19.32.08-4.14.16-8.28.24-12.42Z"/>
  <path class="cls-23" d="m600.65,1434.08c-1.97,2.34-5.98,6.96-11.41,12.36-86.01,85.43-224.93,60.29-234.3,58.46-27.22-5.33-44.27-13.56-54.65-19.49-22.36-12.76-37.29-28.28-46.1-38.97,6.6,12.69,19.37,32.84,42.3,48.95,18.68,13.12,35.17,17.29,58.93,23.29,16.91,4.27,54.08,12.15,103.13,8.55,22.44-1.64,42.45-3.11,67.49-12.83,19.55-7.59,46.97-18.68,63.21-46.57,7.62-13.09,10.32-25.65,11.41-33.74Z"/>
  <path class="cls-15" d="m494.2,1531.32c-.32,6.59-.63,13.19-.95,19.78-31.38,9.13-78.64,18.43-135.21,12.88-24.42-2.4-45.97-7.1-64.16-12.42-7.21,35.55-11.55,60.76-13.07,77.27-.21,2.29-.62,7.11-4.28,10.58-9.93,9.4-34.16-.35-43.72-4.6-3.09-.88-10.59-3.47-16.63-10.58-4.19-4.93-5.9-9.95-6.65-12.88,2.44-21.92,5.83-45.14,10.46-69.46,7.24-38.04,16.35-72.75,26.14-103.84,6.55,14.06,19.55,36.7,44.2,55.54,6.89,5.27,26.85,19.53,74.14,30.36,28.26,6.47,72.96,13.24,129.74,7.36Z"/>
  <path class="cls-8" d="m494.67,1529.49c-.17,19.25.7,40.71,3.33,63.94,3.22,28.47,8.45,53.93,14.26,75.89-.48,2.5-1.48,6.21-3.8,10.12-25.65,43.11-154.17,11.22-162.06,9.2-29.77-7.62-78.17-24.29-130.22-64.4-1.8-3.85-3.94-9.32-5.23-16.1-1.35-7.11-1.63-15.01-.12-24.49,2.46-15.43,15.37-70.75,35.29-145.58"/>
  <path class="cls-12" d="m212.61,1370.11c13.59,9.7,32.79,21.96,57.27,33.35,10.61,4.93,53.96,24.46,115.96,32.2,24.93,3.11,77.66,9.19,142.57-6.9,30.58-7.58,54.98-17.88,72-26.22,2.18,1.66,7.76,6.27,6.89,11.04-.81,4.45-6.81,6.8-9.51,7.82-64.1,24.24-92.2,27.14-92.2,27.14-34.18,3.52-57.51,5.92-91.25,4.14-16.6-.88-55.56-2.79-99.8-16.1-24.83-7.47-63.36-22.12-105.03-51.98-2.76-3.84-3.12-8.42-.95-11.5,1.21-1.71,2.92-2.57,4.04-2.99Z"/>
  <path class="cls-21" d="m207.63,1369.42c-.41-1.23,16.51-8.63,34.22-14.71,34.96-12,71.23-18.25,133.66-21.03,52.32-2.33,78.47-3.49,95.52-.36,25.94,4.77,72.9,18.36,122.97,64.87-55.55-36.72-103.07-47.78-134.73-51.33-34.61-3.88-85.81,1.46-188.2,12.12-7.62.79-14.2,1.52-22.81,2.85-25.3,3.91-40.26,8.71-40.63,7.58Z"/>
  <path class="cls-20" d="m398.67,1331.43c.34-6.48.65-12.97.95-19.49,3.55-78.16,3.83-154.51,1.31-228.95-12.12,2.26-24.24,4.51-36.36,6.77,10.1-4.04,20.2-8.08,30.3-12.12,4.87-1.31,9.74-2.61,14.61-3.92,4.91,69.37,6.88,142.06,4.99,217.78-.33,13.1-.76,26.09-1.31,38.97l-14.49.95Z"/>
  <path class="cls-22" d="m245.64,1047.7s.48.02,1.43,0c13.98-.3,45.12.46,69.39.95,0,0,47.9.96,70.34,11.88,4.39,2.14,5.09,4.11,5.23,5.23.37,2.92-3.18,6.3-8.55,8.55,2.67.23,7.66.29,13.31-1.9,2.24-.87,12.3-4.54,12.36-9.03.08-6.6-21.46-11.93-29.94-14.02-21.44-5.3-38.74-5.8-45.15-5.94-47.13-1.06-88.42,3.93-88.4,4.28Z"/>
  <path class="cls-15" d="m205.49,1352.17c-12.36-1.61-24.71-3.22-37.07-4.83-10.42-2.9-34.48-10.6-52.75-26.92-3.42-3.05-8.85-7.97-13.9-15.86-1.65-2.58-5.59-9.12-9.98-24.15-4.07-13.92-5.52-24.83-5.71-26.22-6.72-50.44-8.62-101.44-16.04-151.79-.65-4.39,2.67-22.05,1.19-22.31-.42-.07-1.03,1.31-1.42,2.3,6.05,1.81,12.23,3.57,18.53,5.29,15.02,4.09,29.61,7.59,43.72,10.58,2.33,50.5,5.94,96.26,9.98,136.61,5.33,53.08,10.46,87.26,37.79,106.25,9.51,6.61,19.11,9.57,25.66,11.04Z"/>
  <path class="cls-1" d="m302.2,1498.21c-10.44,66.94-18.64,116.1-21.39,130.63-.26,1.36-.86,4.32-3.33,5.98-8.58,5.77-30.36-10.52-45.15-23"/>
  <path class="cls-11" d="m169.84,1348.03c-.66,1.74-4.08,11.34,1.07,21.39,6.53,12.74,20.96,14.7,22.1,14.83"/>
  <path class="cls-17" d="m287.47,1349.72c56.87-4.68,100.47-7.7,122.61-9.27,8.99-.63,25.14-1.78,47.05-.18,1.05.08,4.52.33,7.6.65,21.48,2.25,40.63,9.55,66.53,21.39,14.66,6.7,32.2,15.18,51.8,25.66-9.09-9.19-22.64-21.1-41.11-31.84-7.77-4.52-31.55-17.64-66.06-24-16.56-3.05-34.19-4.29-85.78.71-26.49,2.57-61.82,6.78-103.6,14.02.32.95.63,1.9.95,2.85Z"/>
  <path class="cls-4" d="m206.55,1369.07c-2.49,2.47-11.28,11.79-11.76,25.87-.6,17.8,12.56,29.06,15.68,31.74,14.53,12.44,32.03,11.63,35.64,11.38,6.05,11.49,16.07,26.99,32.32,41.74,29.82,27.07,63.05,35.64,78.89,38.64"/>
  <path class="cls-9" d="m412.57,1330.78c.25-4.36.49-8.73.71-13.11,4.46-86.7,3.88-171.46-1.01-254.09"/>
  <path class="cls-25" d="m382.04,1078.26c.42,2.78-43.26,12.29-79.6,17.48-30.38,4.34-78.7,8.94-138.06,4.6-24.94-1.82-57.1-5.61-94.1-13.8.11-1.21.69-5.87,4.75-9.66,3.56-3.32,7.67-3.98,9.03-4.14,18.34,4.73,44.7,10.35,76.87,13.11,25.16,2.16,44.57,1.77,63.33,1.15,34.12-1.13,84.1-3.62,148.22-9.64,4.41-.1,9.42-.02,9.56.91Z"/>
  <path class="cls-26" d="m297.92,1386.43c-.21-2.11-.21-5.09.95-8.28,4.68-12.84,24.62-19.3,79.49-22.88,0,0,92.47-6.04,144.83,18.28,8.95,4.16,14.63,8.9,15.92,15.18,1.54,7.52-3.79,14.48-6.42,17.48-.2-5.73-1.51-14.47-8.08-19.78-4.36-3.53-9.03-3.91-16.16-5.06-16.4-2.64-16.08-4.51-31.37-7.36-98.39-18.33-158.73,3.68-158.73,3.68-9.18,3.35-16.33,6.71-20.44,8.74Z"/>
  <path class="cls-10" d="m412.28,1063.57c.19,15.93-93.81,31.6-169.38,35.4-77.17,3.88-171.04-2.82-172.31-17.72-.36-4.19,6.7-7.98,12.52-10.82,50.77-24.8,102.17-24.01,158.73-27.14,60.69-3.36,103.4-9.91,154.46,9.2,8.3,3.11,15.93,6.56,15.98,11.08Z"/>
  <path class="cls-3" d="m70.59,1081.26c2.76,49,6.61,90.77,10.14,123.26,8.28,76.22,14.58,99.67,34.22,117.98,17.22,16.06,44.5,21.49,63.45,26.22,21.48,5.36,40.11,6.9,53.47,7.24"/>
  <path class="cls-24" d="m600.65,1434.08c-7,13.94-20.6,36.32-45.15,56.08-36.62,29.47-75.57,35.33-91.96,36.83,3.98,1.35,9.77,2.98,16.87,3.8,46.08,5.35,82.52-30.8,93.39-41.58,17.76-17.62,37.53-45.4,31.43-53.05-1.16-1.46-3.06-1.92-4.57-2.08Z"/>
  <path class="cls-2" d="m465.21,1531.78c17.18-.37,49.32-3.59,81.27-23.46,33.07-20.57,52.8-50.81,58.57-74.06,2.85-11.48,1.77-19.12.36-24.15-2.76-9.81-9.18-18.08-20.67-26.91-32.11-24.65-94.02-46.03-103.37-49.22-2.53-.46-5.07-.92-7.6-1.38-1.51-.17-3.73-.42-6.42-.69-33.03-3.27-115.01,5.75-115.01,5.75s-91.78,9.21-132.59,22.08c-3.41,1.07-6.18,2.99-6.18,2.99-2.87,1.99-4.68,4.27-5.7,5.75-.8,1.83-1.98,5.24-1.31,9.2,1.23,7.17,7.83,11.72,11.76,14.14,59.75,36.85,106.22,47.26,106.22,47.26,31.59,7.08,61.71,13.82,104.08,14.49,29.19.46,83.73.79,145.43-24.15,13.6-5.5,24.47-10.98,31.84-14.95"/>
  <path class="cls-16" d="m531.89,1398.91c-2.73,19.95-89.76,24.8-157.9,15.62-46.14-6.21-72.54-17.78-70.9-27.41,1.63-9.61,31.3-18.2,78.37-19.56,69.34-2.01,153.14,11.5,150.43,31.35Z"/>
  <path class="cls-6" d="m343.78,1408.74c20.45-2.89,45.64-4.88,74.38-3.68,35.4,1.48,74.12,7.7,73.9,9.89-.18,1.83-27.45,1.86-148.28-6.21Z"/>
  <path class="cls-7" d="m531.92,1398.33c-2.62,19.97-89.62,25.25-157.81,16.42-46.17-5.98-72.63-17.41-71.05-27.05,1.58-9.61,31.2-18.35,78.27-19.95,69.33-2.36,153.2,10.73,150.59,30.59Z"/>
  <ellipse class="cls-5" cx="249.68" cy="1058.44" rx="8.79" ry="5.03"/>
</svg>