<?xml version="1.0" encoding="UTF-8"?>
<svg id="_стул_v3" data-name="стул v3" xmlns="http://www.w3.org/2000/svg" xmlns:xlink="http://www.w3.org/1999/xlink" viewBox="0 0 1170 2532">
  <defs>
    <style>
      .cls-1 {
        opacity: .24;
      }

      .cls-1, .cls-2, .cls-3, .cls-4, .cls-5, .cls-6, .cls-7, .cls-8, .cls-9, .cls-10, .cls-11, .cls-12, .cls-13, .cls-14 {
        stroke-width: 0px;
      }

      .cls-2 {
        fill: #2e2e2e;
      }

      .cls-3 {
        fill: url(#_Безымянный_градиент_134);
      }

      .cls-15 {
        stroke: #292929;
      }

      .cls-15, .cls-16, .cls-17, .cls-18, .cls-19, .cls-20, .cls-21, .cls-22, .cls-23, .cls-24, .cls-25, .cls-26, .cls-27, .cls-28 {
        stroke-linecap: round;
        stroke-linejoin: round;
      }

      .cls-15, .cls-19, .cls-20, .cls-21, .cls-25 {
        fill: none;
      }

      .cls-15, .cls-19, .cls-21, .cls-24, .cls-25, .cls-28 {
        stroke-width: 10px;
      }

      .cls-4 {
        fill: #363636;
      }

      .cls-5 {
        fill: url(#_Безымянный_градиент_142);
      }

      .cls-16, .cls-17, .cls-18, .cls-22, .cls-23, .cls-26, .cls-27 {
        stroke-width: 8px;
      }

      .cls-16, .cls-17, .cls-26, .cls-27 {
        opacity: .9;
      }

      .cls-16, .cls-22 {
        fill: #6a0aff;
        stroke: #4f0ae4;
      }

      .cls-6 {
        fill: #323232;
      }

      .cls-7 {
        opacity: .21;
      }

      .cls-17 {
        fill: #bd35ff;
        stroke: #8b1bd1;
      }

      .cls-18, .cls-26 {
        fill: #00dc7a;
        stroke: #00b27a;
      }

      .cls-8 {
        fill: url(#_Безымянный_градиент_61);
        opacity: .13;
      }

      .cls-19 {
        stroke: #00195b;
      }

      .cls-9 {
        opacity: .19;
      }

      .cls-20 {
        stroke-width: 6px;
      }

      .cls-20, .cls-21, .cls-24, .cls-28 {
        stroke: #1e1e1e;
      }

      .cls-10 {
        opacity: .08;
      }

      .cls-10, .cls-13 {
        fill: #fff;
      }

      .cls-11 {
        fill: url(#_Безымянный_градиент_138);
        opacity: .6;
      }

      .cls-12, .cls-13 {
        opacity: .11;
      }

      .cls-23, .cls-27 {
        fill: #00acdf;
        stroke: #0077d3;
      }

      .cls-24 {
        fill: #1e1e1e;
      }

      .cls-25 {
        stroke: #000f4e;
      }

      .cls-14 {
        fill: #242424;
      }

      .cls-28 {
        fill: #282828;
      }
    </style>
    <radialGradient id="_Безымянный_градиент_134" data-name="Безымянный градиент 134" cx="217.33" cy="1193.28" fx="117.66" fy="1276.34" r="292.09" gradientTransform="translate(-262.97 1387.62) rotate(-87.23) scale(1 .39)" gradientUnits="userSpaceOnUse">
      <stop offset="0" stop-color="#001e7c"/>
      <stop offset=".33" stop-color="#001e81"/>
      <stop offset=".72" stop-color="#00218f"/>
      <stop offset="1" stop-color="#00249f"/>
    </radialGradient>
    <radialGradient id="_Безымянный_градиент_61" data-name="Безымянный градиент 61" cx="217.33" cy="1193.28" fx="127.83" fy="1267.87" r="262.29" gradientTransform="translate(-1.88 723.81) rotate(-.23) scale(1 .39)" gradientUnits="userSpaceOnUse">
      <stop offset="0" stop-color="#000"/>
      <stop offset="1" stop-color="#00207f" stop-opacity="0"/>
    </radialGradient>
    <radialGradient id="_Безымянный_градиент_142" data-name="Безымянный градиент 142" cx="360.89" cy="1390.36" fx="423.35" fy="1378.78" r="192.63" gradientTransform="translate(15.59 855.38) rotate(1.69) scale(1 .38)" gradientUnits="userSpaceOnUse">
      <stop offset=".3" stop-color="#00207f"/>
      <stop offset=".67" stop-color="#001a64"/>
      <stop offset=".85" stop-color="#001855"/>
    </radialGradient>
    <radialGradient id="_Безымянный_градиент_138" data-name="Безымянный градиент 138" cx="360.89" cy="1390.36" fx="423.35" fy="1378.78" r="192.63" gradientTransform="translate(15.59 855.38) rotate(1.69) scale(1 .38)" gradientUnits="userSpaceOnUse">
      <stop offset=".3" stop-color="#00207f" stop-opacity="0"/>
      <stop offset=".5" stop-color="#001d71" stop-opacity=".32"/>
      <stop offset=".85" stop-color="#001855"/>
    </radialGradient>
  </defs>
  <ellipse class="cls-24" cx="291.42" cy="1542.66" rx="8.38" ry="10.93" transform="translate(-84 18.26) rotate(-3.14)"/>
  <ellipse class="cls-24" cx="485.37" cy="1543.48" rx="8.38" ry="10.93" transform="translate(-83.76 28.88) rotate(-3.14)"/>
  <ellipse class="cls-24" cx="533.16" cy="1627.63" rx="10.93" ry="9.5" transform="translate(-1099.41 2145.48) rotate(-89.46)"/>
  <path class="cls-21" d="m537.54,1616.27c5.12,1.31,8.68,5.83,8.69,10.78,0,5.64-4.6,10.65-10.68,11.13"/>
  <ellipse class="cls-24" cx="252.16" cy="1639.73" rx="10.93" ry="9.5" transform="translate(-1389.86 1876.48) rotate(-89.46)"/>
  <path class="cls-21" d="m256.31,1628.7c5.15,1.21,8.79,5.67,8.89,10.61.12,5.63-4.4,10.74-10.47,11.33"/>
  <rect class="cls-24" x="390.92" y="1657.03" width="17.11" height="20.91" rx="3.75" ry="3.75" transform="translate(-52.35 13.42) rotate(-1.81)"/>
  <path class="cls-2" d="m429.7,1561.43c8.85,2.24,24.27,6.17,44.19,11.42,24.29,6.4,40.16,10.77,56.96,23.39,1.17.88,2.11,1.63,2.75,2.14,0,0,0,0,0,0,1.95,1.88,3.09,3.92,3.77,5.45,1.42,3.9.6,7.8-.37,10.52-40.67-10.62-81.34-21.25-122.01-31.87-2.09-.83-4.43-.48-6.11.91-2.15,1.79-2.13,4.44-2.12,4.78.82,19.31,1.65,38.61,2.47,57.92-.55.69-4.06,4.9-10.11,5.25-5.38.31-9.05-2.64-9.84-3.3-3.03-20-6.06-40-9.09-60-.24-.68-.94-2.37-2.69-3.51-3.3-2.14-7.12-.25-7.31-.16-38.72,14.86-77.43,29.72-116.15,44.58-.22-.59-.53-1.44-.89-2.47-.14-.42-1.04-3.05-1.31-4.21h0s0-3.45,1.25-7c.93-2.63,39.15-23.53,93.29-49.3-23.97-12.83-52.37-29.48-49.9-36.12.78-2.1,4.4-2.5,8.08-2.85,19.29-1.87,32.2,10.47,64.63,23.29,5.48,2.16,9.01,3.36,13.74,3.71,12.67.94,21.18-6.74,30.69-10,40.5-13.9,57.57-25.96,67.11-18.43,1,.79,2.08,1.64,2.39,3.1,1.85,8.62-26.74,22.05-53.45,32.78Z"/>
  <path class="cls-9" d="m287.11,1599.23c15.02-6.42,26.02-9.98,26.02-9.98,14.53-4.7,34.82-10.75,60.24-16.75,1.59.1,4.11.43,6.95,1.6.47.2,1.14.49,1.95.85,2.25,1.02,4.59,2.08,5.83,3.01,2.39,1.77,3.08,4.7,3.56,6.89,1.3,5.9,4.1,30.2,7.01,63.33-2.69-.16-5.39-.32-8.08-.48l-13.1-63.19c-39.28,14.17-78.56,28.35-117.83,42.52-5.44-2.31-6.6-4.56-6.77-6.06-.76-6.65,16.01-13.96,34.22-21.74Z"/>
  <path class="cls-9" d="m402,1587.29c-.51-4.65-.67-12.1,3.56-14.91,2.1-1.4,4.62-1.2,6.18-.95,12.88,2.05,115.12,32.3,122.38,34.46-.4,2.14-.79,4.28-1.19,6.42-42.53-9.5-85.07-19.01-127.6-28.51-1.11,1.17-2.22,2.34-3.33,3.5Z"/>
  <path class="cls-7" d="m302.67,1528.89c7.09,4.14,14.61,8.28,22.57,12.36,12.22,6.25,24.01,11.59,35.17,16.16-4.91,2.61-9.82,5.23-14.73,7.84-33.17-17.74-48.85-29.07-47.05-33.98.42-1.13,1.76-1.93,4.04-2.38Z"/>
  <path class="cls-9" d="m410.79,1552.18c7.55-1.97,15.23-4.11,23.05-6.42,15.94-4.71,31.08-9.75,45.39-14.97-6.66,7.98-13.31,13.18-18.06,16.4-8.65,5.85-19.48,13.05-33.18,11.58-7.83-.84-13.76-4.22-17.2-6.59Z"/>
  <path class="cls-13" d="m387.98,1568.4c-6.66-.25-7.81.02-7.84.27-.1.86,12.91,5.46,23.52.45,3.41-1.61,5.7-3.8,6.88-5.06,18.16,4.75,36.97,10.11,56.33,16.17,23.34,7.3,45.45,14.97,66.3,22.81-.8-1.63-2.12-3.75-4.28-5.7-5.51-4.98-12.31-5.04-14.26-4.99-35.49-11.17-70.97-22.34-106.46-33.5-6.73,3.19-13.47,6.38-20.2,9.56Z"/>
  <path class="cls-13" d="m405.8,1645.92c-1.08.53-2.46.67-4.28.18.18-18.95.36-37.9.53-56.85,4.99,18.69,12.74,52.28,3.74,56.67Z"/>
  <path class="cls-21" d="m344.31,1563.84c-16.84-9.9-33.68-19.8-50.52-29.7.3-1.84,1.18-5.34,4.24-7.45,0,0,2.73-1.88,7.22-1.71,7.12.26,34.88,11.52,71.38,28.83"/>
  <path class="cls-21" d="m433.79,1561.83c17.02-9.58,34.04-19.17,51.07-28.75-.27-1.85-1.08-5.36-4.1-7.52,0,0-2.69-1.93-7.19-1.85-7.13.13-35.09,10.87-71.9,27.48"/>
  <path class="cls-21" d="m429.7,1561.43s83.6,24.09,101.14,34.81c1.52.93,2.75,2.14,2.75,2.14,0,0,0,0,0,0,1.95,1.88,3.09,3.92,3.77,5.45,1.42,3.9.6,7.8-.37,10.52-40.67-10.62-81.34-21.25-122.01-31.87-2.09-.83-4.43-.48-6.11.91-2.15,1.79-2.13,4.44-2.12,4.78.82,19.31,1.65,38.61,2.47,57.92-.55.69-4.06,4.9-10.11,5.25-5.38.31-9.05-2.64-9.84-3.3-3.03-20-6.06-40-9.09-60-.24-.68-.94-2.37-2.69-3.51-3.3-2.14-7.12-.25-7.31-.16-38.72,14.86-77.43,29.72-116.15,44.58-.22-.59-.53-1.44-.89-2.47-.14-.42-1.04-3.05-1.31-4.21,0,0-.63-2.79,1.25-7,4.44-9.88,85.78-43.37,106.37-53.78,5.32-2.69,13.35-6.03,23.48-7.5,16.33-2.37,26.94,1.74,46.74,7.45Z"/>
  <path class="cls-14" d="m351.03,1371.7c-9.56-5.81-13.31-12.02-14.97-16.63-2.45-6.82-.93-11.79-.95-26.14-.01-8.21-.52-14.9-.95-19.25-15.02,2.61-23.14,1.67-27.8.24-.88-.27-2.77-.91-4.28,0-3.2,1.93-1.53,8.95-.48,18.06,2.34,20.26-1.53,23.87,3.09,34.46,2.44,5.59,5.7,9.6,8.08,12.12,12.75-.95,25.51-1.9,38.26-2.85Z"/>
  <g>
    <path class="cls-20" d="m300.89,1323.53c11.5-1.28,22.97-2.56,34.41-3.83"/>
    <path class="cls-20" d="m300.5,1333.82c11.45-1.29,22.87-2.57,34.27-3.86"/>
    <path class="cls-20" d="m300.41,1344.2c11.4-1.3,22.78-2.59,34.12-3.88"/>
    <path class="cls-20" d="m300.92,1354.89c11.35-1.3,22.67-2.61,33.96-3.9"/>
    <path class="cls-20" d="m304.47,1364.73c11.29-1.31,22.55-2.62,33.79-3.92"/>
  </g>
  <path class="cls-21" d="m346.99,1369.33c-8.73-7.99-11.72-15.39-12.83-20.67-1.41-6.71-.01-11.05.71-22.81.6-9.72.32-17.66,0-22.81-1.39-.76-5.74-2.89-10.87-1.6-1.7.43-3.07,1.12-4.1,1.78"/>
  <path class="cls-21" d="m321.51,1464.08c-7.58,8.27-15.16,16.54-22.74,24.81"/>
  <path class="cls-28" d="m287.38,1487.06c7.28-1.84,16.33,4.22,17.39,10.69,1.53,9.32-13.48,20.03-23.28,17.69-.84-.2-3.84-.96-5.68-3.55-4.42-6.21,2.42-16.6,2.97-17.41,1.85-2.74,4.26-6.32,8.6-7.41Z"/>
  <path class="cls-21" d="m313.01,1373.84c-8.73-7.99-11.72-15.39-12.83-20.67-1.41-6.71-.01-11.05.71-22.81.6-9.72.32-17.66,0-22.81"/>
  <path class="cls-3" d="m236.85,1075.27c-12.99,12.33-19.53,32.39-32.08,72-11.71,36.97-17.57,55.45-18.78,75.25-1.08,17.53-.34,45.36,11.47,78.89,1.12,1.46,2.3,2.69,3.49,3.75,12.05,10.7,30.25,7.5,35.75,6.33,27.53-.21,53.6-.9,78.09-1.92,0,0,30.17-1.26,108.12-16.81.78-.15,2.67-.56,4.73-1.81,5.45-3.32,7.58-9.94,8.61-16.75,3.36-22.45-3-56.11-3-56.11-2.97-15.68-5.93-27-9.18-35.91-4.03-11.05-9.04-18.39-10.93-21.47-29.92-49.03-27.56-78.09-55.81-97.55-24.49-16.87-53.52-13.8-62.73-12.83-8.49.9-35.85,4.16-57.74,24.95Z"/>
  <path class="cls-27" d="m325.3,1264.54l-10.08-39.31-25.06,31.91-40.5-2.56,22.6,33.7-10.29,25.97c.15,0,.29,0,.44,0,.8-.97,2.03-1.62,3.67-1.61,10.21.05,20.42.73,30.61.55.67-.33,1.4-.54,2.18-.55,2.82-.03,5.63-.32,8.45-.35,2.34-.37,4.69-.67,7.06-.85,1.02-.08,2.03-.12,3.05-.15,2.41-.5,4.81-1.06,7.2-1.67,1.08-.28,2.05-.21,2.89.09.42-.06.84-.13,1.26-.17l.35-9.28,34.27-21.74-38.1-13.98Z"/>
  <path class="cls-26" d="m265.86,1183.19l10.09-42.38-38.29,18.6-34.16-20.82,2.69,42.01-12.12,10.85c-.05.12-.1.23-.15.35.74.99,1.13,2.33.83,3.96-1,5.53-4.51,11.97-3.39,17.61l22.61,4.83,15.14,42.18,22.32-40.13,43.28-4.25-28.85-32.81Z"/>
  <path class="cls-27" d="m374.2,1092.02c-2.23-2.92-3.86-6.3-5.26-9.88-2-5.11-3.4-10.61-6.75-14.91-3.47-2.01-6.8-4.13-9.27-6.96l-13.06,14.65-36.12-4.55,18.36,31.43-15.49,32.94,35.57-7.75,26.55,24.91,3.62-36.22,10.02-5.52c-1.48-2.34-2.86-5.13-3.86-7.99-2.79-2.61-3.96-6.4-4.32-10.16Z"/>
  <polygon class="cls-16" points="292.26 1115.18 270.26 1113.62 256.49 1130.86 251.18 1109.45 230.53 1101.69 249.25 1090.02 250.25 1067.98 267.13 1082.18 288.4 1076.32 280.12 1096.76 292.26 1115.18"/>
  <path class="cls-16" d="m234.2,1296.8l7.56-21.24-19.9,6.86-15.51-13.64,1.05,21.43-12,9.36c.88.77,1.73,1.58,2.57,2.39l12.44,5.63.55,1.79c4.94,1.25,9.85,2.57,14.9,3.06l.25-.33,3.46.47c4.93.08,9.86-.08,14.84.01l-10.21-15.8Z"/>
  <polygon class="cls-17" points="319.31 1195.27 308.5 1182.65 291.99 1184.4 300.65 1170.22 293.88 1155.05 310.04 1158.91 322.38 1147.79 323.7 1164.35 338.09 1172.64 322.75 1179.02 319.31 1195.27"/>
  <path class="cls-17" d="m414.36,1281.52l4.69-15.93-15.5,5.97-13.7-9.39.89,16.59-13.16,10.13,16.05,4.28,2.3,6.46c3.42-.95,6.87-1.74,10.4-2.2.1-.03.21-.06.31-.09.8-.4,1.59-.8,2.39-1.21,2.03-.48,4.06-.96,6.09-1.45,2.66-.83,5.32-1.64,8.01-2.37l-8.76-10.8Z"/>
  <polygon class="cls-16" points="404.03 1250.81 377.49 1233.47 350.73 1245.63 356.57 1215.24 336.21 1191.87 365.36 1189.68 379.2 1162.8 391.82 1191.72 421.9 1198.61 399.52 1218.95 404.03 1250.81"/>
  <path class="cls-8" d="m236.85,1075.27c-12.99,12.33-19.53,32.39-32.08,72-11.71,36.97-17.57,55.45-18.78,75.25-1.08,17.53-.34,45.36,11.47,78.89,1.12,1.46,2.3,2.69,3.49,3.75,12.05,10.7,30.25,7.5,35.75,6.33,27.53-.21,53.6-.9,78.09-1.92,0,0,30.17-1.26,108.12-16.81.78-.15,2.67-.56,4.73-1.81,5.45-3.32,7.58-9.94,8.61-16.75,3.36-22.45-3-56.11-3-56.11-2.97-15.68-5.93-27-9.18-35.91-4.03-11.05-9.04-18.39-10.93-21.47-29.92-49.03-27.56-78.09-55.81-97.55-24.49-16.87-53.52-13.8-62.73-12.83-8.49.9-35.85,4.16-57.74,24.95Z"/>
  <path class="cls-9" d="m275.58,1056.73c-3.12.96-5.3,2.17-6.42,2.85-21.49,13.02-21.15,42.29-32.32,111.21-4.72,29.12-6.58,34.47-6.06,48.83.63,17.38,1.81,42.03,19.25,59.88,12.25,12.54,27.23,16.25,43.66,20.32,28.17,6.98,50.27,3.85,50.32,4.51.04.66-21.73,2.97-112.16,9.98-10.22-1.9-20.44-3.8-30.65-5.7-2.93-4.94-6.73-12.13-9.98-21.27-7.69-21.62-7.16-39.71-6.42-58.57.53-13.41,2.85-25.57,8.2-46.93,16.02-64.02,24.54-96.36,49.54-112.99,6.17-4.1,16.78-9.78,33.03-12.12Z"/>
  <path class="cls-19" d="m196.34,1176.48c-3.34,14.29-4.8,28.7-7.73,57.52-3.33,32.73-3.52,52.5,8.84,67.41,1.38,1.67,2.64,2.94,3.49,3.75h0s0,0,0,0,2.49,2.35,6.43,3.21c81.61,17.85,215.52-15.62,215.52-15.62h0s0,0,0,0c1.3-.24,5.33-.94,8.55-4.1,2.45-2.4,3.17-6.54,4.78-14.46.43-2.12.73-3.87.92-5.02.08-28.77-5.04-64.65-25.19-102.18-.66-1.23-.55-.99-2.61-4.75-42.76-77.81-39.77-90.17-54.18-99.8-31.52-21.05-82.57-17.41-112.63,6.42-25.55,20.25-32.57,49.21-46.21,107.63Z"/>
  <path class="cls-21" d="m390.71,1498.36c.77-.08,7.17-.69,10.69,3.68.85,1.05,1.36,2.18,1.66,3.21"/>
  <path class="cls-21" d="m388.57,1498.36c-.77-.08-7.17-.69-10.69,3.68-.85,1.05-1.36,2.18-1.66,3.21"/>
  <path class="cls-4" d="m397.25,1472.53v34.93c-.41.43-3.16,3.19-7.25,2.89-.4-.03-3.31-.28-5.35-2.38-3.11-3.19-2.17-8.57-1.66-12.59.69-5.5,1.19-13.4.24-23.76.76-.51,3.89-2.51,8.08-1.9,3.1.45,5.14,2.09,5.94,2.81Z"/>
  <path class="cls-15" d="m382.28,1473.05v34.93"/>
  <path class="cls-15" d="m397.25,1472.53v34.93c-.76.65-3.33,2.71-7.25,2.89-4.1.19-6.95-1.79-7.72-2.38"/>
  <path class="cls-5" d="m218.32,1408.89c2.64-30.07,131.98-39.34,178.22-40.63,19.58-.55,45.13-.24,75.56,8.55,29.71,8.59,82.13,30.5,80.08,49.66-2.39,22.28-78.6,31.41-122.61,36.59-40.9,4.81-68.02,7.78-103.6.95-44.55-8.55-109.55-33.4-107.64-55.13Z"/>
  <polygon class="cls-18" points="499.59 1424.58 452.55 1422.8 418.43 1448.92 417.38 1418.06 386.71 1410.33 421.18 1398.68 428.59 1382.31 450.49 1391.18 483.86 1385.25 471.78 1403.26 499.59 1424.58"/>
  <polygon class="cls-17" points="365.57 1419.03 348.21 1407.94 324.97 1413.64 337.78 1398.75 330.78 1389.67 347.21 1390.4 356.62 1384.13 360.96 1392.21 376.46 1395.69 363.92 1402.21 365.57 1419.03"/>
  <path class="cls-23" d="m397.82,1467.51c.07-.01.14-.02.21-.03.63-.31,1.38-.5,2.24-.5.27,0,.52.02.77.06.92-.11,1.84-.18,2.77-.21l-13.96-8.27-2.26-27.42-31.49,11.58-38.28-13.71,12.18,27.87-8.84,6.79c.66-.08,1.4,0,2.19.28,3.91,1.39,7.7,2,11.8,2.38,3.17.3,6.26,1.1,9.4,1.56.15-.02.31-.03.46-.03h6.06c.71,0,1.37.15,1.96.41,3.78.07,7.57.11,11.35.12,6.79.01,13.58.16,20.37.11.61-.29,1.32-.46,2.13-.47,3.64-.05,7.26-.65,10.91-.54Z"/>
  <path class="cls-22" d="m310.86,1401.08l-26.1-4.27-8.3-15.87c-2.78.57-5.52,1.3-8.22,2.2l-9.24,12.77-33.1,2.8,21.19,20.43-5.32,15.69c4.41,2.61,8.95,4.98,13.53,7.29l14.21-7.49,27.79,13.37-5.16-29.3,18.72-17.62Z"/>
  <path class="cls-16" d="m422.21,1368.39c-6.58-.93-13.35-.91-19.98-.72-12.1.34-24.14,1.64-36.24,1.95l-4.28,3.19,25.69,1.69,9.72,19.19,12.8-20.43,18.83-3.32c-2.14-.63-4.29-1.23-6.54-1.55Z"/>
  <path class="cls-17" d="m525.47,1399.33c-3.85-2.21-7.61-4.95-11.58-7.16l.41,4.16-15.63,7.08,19.26,7.24,6.13,14.84,7.85-11.41,12.96,1.34-5.39-7.66c-4.52-3.05-9.3-5.71-14.02-8.42Z"/>
  <path class="cls-16" d="m456.32,1459.56c3.9-.47,7.75-1.19,11.66-1.58,6.16-.62,12.24-1.26,18.26-2.45l3.86-6.38-17.28,1.1-11.41-13.54-3.15,16.67-15.32,5.84,3.2,2.03c3.38-.4,6.8-1.28,10.18-1.68Z"/>
  <path class="cls-11" d="m218.32,1408.89c2.64-30.07,131.98-39.34,178.22-40.63,19.58-.55,45.13-.24,75.56,8.55,29.71,8.59,82.13,30.5,80.08,49.66-2.39,22.28-78.6,31.41-122.61,36.59-40.9,4.81-68.02,7.78-103.6.95-44.55-8.55-109.55-33.4-107.64-55.13Z"/>
  <path class="cls-12" d="m221.17,1420.3c-3.24-8.92-.85-18.54,5.7-23.88,6.73-5.49,15.03-4.16,16.4-3.92-1.26,1.94-2.99,5.25-2.85,9.27.4,11.23,15.09,19.09,24.71,24.24,7.11,3.81,13.05,5.95,19.84,8.2,8.53,2.83,25.56,8.47,41.7,11.76,0,0,72.63,14.8,201.39-17.47,2.77-.69,8.45-2.27,11.41-7.13,2.15-3.53,2.03-7.42,1.78-9.62,1.72-.23,4.2-.26,6.42,1.07,5.45,3.28,5.34,12.45,4.63,16.04-2.06,10.47-16.24,17.11-40.28,23.52-28.42,7.58-50.31,9.42-80.91,11.76-63.09,4.83-70.55,4.7-80.2,3.92-25.55-2.07-43.8-6.88-60.95-11.41-29.26-7.72-41.15-14.23-49.54-19.96-8.74-5.97-15.13-12.06-19.25-16.4Z"/>
  <path class="cls-25" d="m218.32,1408.89c2.64-30.07,131.98-39.34,178.22-40.63,19.58-.55,45.13-.24,75.56,8.55,29.71,8.59,82.13,30.5,80.08,49.66-2.39,22.28-78.6,31.41-122.61,36.59-40.9,4.81-68.02,7.78-103.6.95-44.55-8.55-109.55-33.4-107.64-55.13Z"/>
  <path class="cls-6" d="m376.22,1561.66c1.77,1.39,6.82,4.95,13.9,4.76,6.7-.17,11.41-3.6,13.19-5.04v-.14c-.04-18.21-.08-36.43-.12-54.64v-.52c-1.77,1.22-6.49,4.13-13.19,4.28-7.08.16-12.13-2.86-13.9-4.04.04,18.21.08,36.43.12,54.64"/>
  <path class="cls-1" d="m376.22,1561.66c3.92.88,7.84,1.75,11.76,2.63-.06-17.35-.12-34.69-.18-52.04-1.34-.54-2.71-1.07-4.1-1.6-1.81-.69-3.59-1.34-5.35-1.96l-2.14,52.97Z"/>
  <path class="cls-10" d="m403.66,1561.13c-2.67.88-5.35,1.75-8.02,2.63.04-17.35.08-34.69.12-52.04.91-.54,1.85-1.07,2.79-1.6,1.23-.69,2.45-1.34,3.65-1.96.49,17.66.97,35.31,1.46,52.97Z"/>
  <path class="cls-21" d="m376.22,1561.66c1.77,1.39,6.82,4.95,13.9,4.76,6.7-.17,11.41-3.6,13.19-5.04v-.14c-.04-18.21-.08-36.43-.12-54.64v-.52c-1.77,1.22-6.49,4.13-13.19,4.28-7.08.16-12.13-2.86-13.9-4.04.04,18.21.08,36.43.12,54.64"/>
</svg>