<?xml version="1.0" encoding="UTF-8"?>
<svg id="_стул_v2" data-name="стул v2" xmlns="http://www.w3.org/2000/svg" xmlns:xlink="http://www.w3.org/1999/xlink" viewBox="0 0 1170 2532">
  <defs>
    <style>
      .cls-1 {
        opacity: .24;
      }

      .cls-1, .cls-2, .cls-3, .cls-4, .cls-5, .cls-6, .cls-7, .cls-8, .cls-9, .cls-10, .cls-11, .cls-12, .cls-13 {
        stroke-width: 0px;
      }

      .cls-2 {
        fill: #2e2e2e;
      }

      .cls-3 {
        fill: #323232;
      }

      .cls-4 {
        opacity: .21;
      }

      .cls-5 {
        fill: url(#_Безымянный_градиент_104);
      }

      .cls-6 {
        fill: url(#_Безымянный_градиент_117);
      }

      .cls-7 {
        fill: #b3b3b3;
      }

      .cls-8 {
        opacity: .19;
      }

      .cls-9 {
        opacity: .08;
      }

      .cls-9, .cls-11, .cls-13 {
        fill: #fff;
      }

      .cls-14, .cls-15 {
        fill: none;
      }

      .cls-14, .cls-15, .cls-16, .cls-17 {
        stroke-linecap: round;
        stroke-linejoin: round;
        stroke-width: 10px;
      }

      .cls-14, .cls-16, .cls-17 {
        stroke: #1e1e1e;
      }

      .cls-15 {
        stroke: #737373;
      }

      .cls-10, .cls-11 {
        opacity: .11;
      }

      .cls-16 {
        fill: #1e1e1e;
      }

      .cls-12 {
        fill: #242424;
      }

      .cls-13 {
        opacity: .12;
      }

      .cls-17 {
        fill: #282828;
      }
    </style>
    <linearGradient id="_Безымянный_градиент_117" data-name="Безымянный градиент 117" x1="195.42" y1="1242.59" x2="436.01" y2="1204.09" gradientUnits="userSpaceOnUse">
      <stop offset="0" stop-color="#282828"/>
      <stop offset="1" stop-color="#323232"/>
    </linearGradient>
    <radialGradient id="_Безымянный_градиент_104" data-name="Безымянный градиент 104" cx="360.89" cy="1390.36" fx="423.35" fy="1378.78" r="192.63" gradientTransform="translate(15.59 855.38) rotate(1.69) scale(1 .38)" gradientUnits="userSpaceOnUse">
      <stop offset=".38" stop-color="#323232"/>
      <stop offset=".83" stop-color="#282828"/>
    </radialGradient>
  </defs>
  <ellipse class="cls-16" cx="291.42" cy="1542.66" rx="8.38" ry="10.93" transform="translate(-84 18.26) rotate(-3.14)"/>
  <ellipse class="cls-16" cx="485.37" cy="1543.48" rx="8.38" ry="10.93" transform="translate(-83.76 28.88) rotate(-3.14)"/>
  <ellipse class="cls-16" cx="533.16" cy="1627.63" rx="10.93" ry="9.5" transform="translate(-1099.41 2145.48) rotate(-89.46)"/>
  <path class="cls-14" d="m537.54,1616.27c5.12,1.31,8.68,5.83,8.69,10.78,0,5.64-4.6,10.65-10.68,11.13"/>
  <ellipse class="cls-16" cx="252.16" cy="1639.73" rx="10.93" ry="9.5" transform="translate(-1389.86 1876.48) rotate(-89.46)"/>
  <path class="cls-14" d="m256.31,1628.7c5.15,1.21,8.79,5.67,8.89,10.61.12,5.63-4.4,10.74-10.47,11.33"/>
  <rect class="cls-16" x="390.92" y="1657.03" width="17.11" height="20.91" rx="3.75" ry="3.75" transform="translate(-52.35 13.42) rotate(-1.81)"/>
  <path class="cls-2" d="m429.7,1561.43c8.85,2.24,24.27,6.17,44.19,11.42,24.29,6.4,40.16,10.77,56.96,23.39,1.17.88,2.11,1.63,2.75,2.14,0,0,0,0,0,0,1.95,1.88,3.09,3.92,3.77,5.45,1.42,3.9.6,7.8-.37,10.52-40.67-10.62-81.34-21.25-122.01-31.87-2.09-.83-4.43-.48-6.11.91-2.15,1.79-2.13,4.44-2.12,4.78.82,19.31,1.65,38.61,2.47,57.92-.55.69-4.06,4.9-10.11,5.25-5.38.31-9.05-2.64-9.84-3.3-3.03-20-6.06-40-9.09-60-.24-.68-.94-2.37-2.69-3.51-3.3-2.14-7.12-.25-7.31-.16-38.72,14.86-77.43,29.72-116.15,44.58-.22-.59-.53-1.44-.89-2.47-.14-.42-1.04-3.05-1.31-4.21h0s0-3.45,1.25-7c.93-2.63,39.15-23.53,93.29-49.3-23.97-12.83-52.37-29.48-49.9-36.12.78-2.1,4.4-2.5,8.08-2.85,19.29-1.87,32.2,10.47,64.63,23.29,5.48,2.16,9.01,3.36,13.74,3.71,12.67.94,21.18-6.74,30.69-10,40.5-13.9,57.57-25.96,67.11-18.43,1,.79,2.08,1.64,2.39,3.1,1.85,8.62-26.74,22.05-53.45,32.78Z"/>
  <path class="cls-8" d="m287.11,1599.23c15.02-6.42,26.02-9.98,26.02-9.98,14.53-4.7,34.82-10.75,60.24-16.75,1.59.1,4.11.43,6.95,1.6.47.2,1.14.49,1.95.85,2.25,1.02,4.59,2.08,5.83,3.01,2.39,1.77,3.08,4.7,3.56,6.89,1.3,5.9,4.1,30.2,7.01,63.33-2.69-.16-5.39-.32-8.08-.48l-13.1-63.19c-39.28,14.17-78.56,28.35-117.83,42.52-5.44-2.31-6.6-4.56-6.77-6.06-.76-6.65,16.01-13.96,34.22-21.74Z"/>
  <path class="cls-8" d="m402,1587.29c-.51-4.65-.67-12.1,3.56-14.91,2.1-1.4,4.62-1.2,6.18-.95,12.88,2.05,115.12,32.3,122.38,34.46-.4,2.14-.79,4.28-1.19,6.42-42.53-9.5-85.07-19.01-127.6-28.51-1.11,1.17-2.22,2.34-3.33,3.5Z"/>
  <path class="cls-4" d="m302.67,1528.89c7.09,4.14,14.61,8.28,22.57,12.36,12.22,6.25,24.01,11.59,35.17,16.16-4.91,2.61-9.82,5.23-14.73,7.84-33.17-17.74-48.85-29.07-47.05-33.98.42-1.13,1.76-1.93,4.04-2.38Z"/>
  <path class="cls-8" d="m410.79,1552.18c7.55-1.97,15.23-4.11,23.05-6.42,15.94-4.71,31.08-9.75,45.39-14.97-6.66,7.98-13.31,13.18-18.06,16.4-8.65,5.85-19.48,13.05-33.18,11.58-7.83-.84-13.76-4.22-17.2-6.59Z"/>
  <path class="cls-11" d="m387.98,1568.4c-6.66-.25-7.81.02-7.84.27-.1.86,12.91,5.46,23.52.45,3.41-1.61,5.7-3.8,6.88-5.06,18.16,4.75,36.97,10.11,56.33,16.17,23.34,7.3,45.45,14.97,66.3,22.81-.8-1.63-2.12-3.75-4.28-5.7-5.51-4.98-12.31-5.04-14.26-4.99-35.49-11.17-70.97-22.34-106.46-33.5-6.73,3.19-13.47,6.38-20.2,9.56Z"/>
  <path class="cls-11" d="m405.8,1645.92c-1.08.53-2.46.67-4.28.18.18-18.95.36-37.9.53-56.85,4.99,18.69,12.74,52.28,3.74,56.67Z"/>
  <path class="cls-14" d="m344.31,1563.84c-16.84-9.9-33.68-19.8-50.52-29.7.3-1.84,1.18-5.34,4.24-7.45,0,0,2.73-1.88,7.22-1.71,7.12.26,34.88,11.52,71.38,28.83"/>
  <path class="cls-14" d="m433.79,1561.83c17.02-9.58,34.04-19.17,51.07-28.75-.27-1.85-1.08-5.36-4.1-7.52,0,0-2.69-1.93-7.19-1.85-7.13.13-35.09,10.87-71.9,27.48"/>
  <path class="cls-14" d="m429.7,1561.43s83.6,24.09,101.14,34.81c1.52.93,2.75,2.14,2.75,2.14,0,0,0,0,0,0,1.95,1.88,3.09,3.92,3.77,5.45,1.42,3.9.6,7.8-.37,10.52-40.67-10.62-81.34-21.25-122.01-31.87-2.09-.83-4.43-.48-6.11.91-2.15,1.79-2.13,4.44-2.12,4.78.82,19.31,1.65,38.61,2.47,57.92-.55.69-4.06,4.9-10.11,5.25-5.38.31-9.05-2.64-9.84-3.3-3.03-20-6.06-40-9.09-60-.24-.68-.94-2.37-2.69-3.51-3.3-2.14-7.12-.25-7.31-.16-38.72,14.86-77.43,29.72-116.15,44.58-.22-.59-.53-1.44-.89-2.47-.14-.42-1.04-3.05-1.31-4.21,0,0-.63-2.79,1.25-7,4.44-9.88,85.78-43.37,106.37-53.78,5.32-2.69,13.35-6.03,23.48-7.5,16.33-2.37,26.94,1.74,46.74,7.45Z"/>
  <path class="cls-12" d="m339.5,1370.4c-8.73-7.99-11.72-15.39-12.83-20.67-1.41-6.71-.01-11.05.71-22.81.6-9.72.32-17.66,0-22.81-1.39-.76-5.74-2.89-10.87-1.6-.86.22-2.77.68-4.1,1.78-4.09,3.39-1.28,11.55.24,21.92,2.76,18.85-1.97,22.88,3.09,34.46,2.44,5.59,5.7,9.6,8.08,12.12,5.23-.79,10.46-1.58,15.68-2.38Z"/>
  <path class="cls-13" d="m339.5,1370.4c-8.73-7.99-11.72-15.39-12.83-20.67-1.41-6.71-.01-11.05.71-22.81.6-9.72.32-17.66,0-22.81-1.41,0-3.46.23-4.99,1.6-2.08,1.87-1.97,4.78-1.96,10.51.01,7.13.02,10.7-.18,13.72-.4,6.21-1.18,7.76-1.07,13.54.02.79.08,4.16.53,6.95.52,3.21,2.32,10.39,10.34,18.36,3.15.53,6.3,1.07,9.45,1.6Z"/>
  <path class="cls-14" d="m339.5,1370.4c-8.73-7.99-11.72-15.39-12.83-20.67-1.41-6.71-.01-11.05.71-22.81.6-9.72.32-17.66,0-22.81-1.39-.76-5.74-2.89-10.87-1.6-1.7.43-3.07,1.12-4.1,1.78"/>
  <path class="cls-14" d="m323.7,1371.58c-8.73-7.99-11.72-15.39-12.83-20.67-1.41-6.71-.01-11.05.71-22.81.6-9.72.32-17.66,0-22.81"/>
  <path class="cls-6" d="m196.34,1176.48c-4.39,11.8-8.77,27.4-10.36,46.04-2.97,34.8,5.27,62.82,11.47,78.89.58.8,1.72,2.25,3.49,3.75,10.65,9.05,28.72,7.07,35.75,6.33,21.5-2.27,91.02-8.73,186.21-18.74,1.18-.23,2.92-.71,4.73-1.81,5.45-3.32,7.58-9.94,8.61-16.75,3.36-22.45-3-56.11-3-56.11-5.93-31.36-11.85-45.27-20.11-57.38-.79-1.16-1.21-1.77-1.76-2.5-11.23-14.91-34.37-21.31-106.12-16.85-57.1,3.55-95.19,11.15-106.57,30.53-1.12,1.9-1.88,3.55-2.34,4.61Z"/>
  <path class="cls-10" d="m254.67,1151.54c-7.05,5.05-20.85,16.42-29.58,36-1.48,3.31-6.57,15.3-7.49,32.08-.58,10.62-2.38,43.81,18.53,62.02,10.67,9.29,25.41,10.71,54.89,13.54,21.01,2.02,38.37,1.79,49.9,1.25-36.36,5.96-72.71,11.92-109.07,17.88-10.22-1.9-20.44-3.8-30.65-5.7-2.93-4.94-6.73-12.13-9.98-21.27-7.69-21.62-7.16-39.71-6.42-58.57.83-21.28,1.29-32.83,8.2-46.93,3.22-6.56,9.22-18.44,22.46-26.73,3.27-2.05,1.65-.54,26.02-8.73,2.06-.69,5.83-1.97,9.09-.18,2.4,1.32,3.55,3.76,4.1,5.35Z"/>
  <path class="cls-14" d="m196.34,1176.48c-4.39,11.8-8.77,27.4-10.36,46.04-2.97,34.8,5.27,62.82,11.47,78.89.58.8,1.72,2.25,3.49,3.75,10.65,9.05,28.72,7.07,35.75,6.33,21.5-2.27,91.02-8.73,186.21-18.74,1.18-.23,2.92-.71,4.73-1.81,5.45-3.32,7.58-9.94,8.61-16.75,3.36-22.45-3-56.11-3-56.11-5.93-31.36-11.85-45.27-20.11-57.38-.79-1.16-1.21-1.77-1.76-2.5-11.23-14.91-34.37-21.31-106.12-16.85-57.1,3.55-95.19,11.15-106.57,30.53-1.12,1.9-1.88,3.55-2.34,4.61Z"/>
  <path class="cls-14" d="m390.71,1498.36c.77-.08,7.17-.69,10.69,3.68.85,1.05,1.36,2.18,1.66,3.21"/>
  <path class="cls-14" d="m388.57,1498.36c-.77-.08-7.17-.69-10.69,3.68-.85,1.05-1.36,2.18-1.66,3.21"/>
  <path class="cls-7" d="m397.25,1472.53v34.93c-.41.43-3.16,3.19-7.25,2.89-.4-.03-3.31-.28-5.35-2.38-3.11-3.19-2.17-8.57-1.66-12.59.69-5.5,1.19-13.4.24-23.76.76-.51,3.89-2.51,8.08-1.9,3.1.45,5.14,2.09,5.94,2.81Z"/>
  <path class="cls-15" d="m382.28,1473.05v34.93"/>
  <path class="cls-15" d="m397.25,1472.53v34.93c-.76.65-3.33,2.71-7.25,2.89-4.1.19-6.95-1.79-7.72-2.38"/>
  <path class="cls-5" d="m218.32,1408.89c2.64-30.07,131.98-39.34,178.22-40.63,19.58-.55,45.13-.24,75.56,8.55,29.71,8.59,82.13,30.5,80.08,49.66-2.39,22.28-78.6,31.41-122.61,36.59-40.9,4.81-68.02,7.78-103.6.95-44.55-8.55-109.55-33.4-107.64-55.13Z"/>
  <path class="cls-10" d="m221.17,1420.3c-3.24-8.92-.85-18.54,5.7-23.88,6.73-5.49,15.03-4.16,16.4-3.92-1.26,1.94-2.99,5.25-2.85,9.27.4,11.23,15.09,19.09,24.71,24.24,7.11,3.81,13.05,5.95,19.84,8.2,8.53,2.83,25.56,8.47,41.7,11.76,0,0,72.63,14.8,201.39-17.47,2.77-.69,8.45-2.27,11.41-7.13,2.15-3.53,2.03-7.42,1.78-9.62,1.72-.23,4.2-.26,6.42,1.07,5.45,3.28,5.34,12.45,4.63,16.04-2.06,10.47-16.24,17.11-40.28,23.52-28.42,7.58-50.31,9.42-80.91,11.76-63.09,4.83-70.55,4.7-80.2,3.92-25.55-2.07-43.8-6.88-60.95-11.41-29.26-7.72-41.15-14.23-49.54-19.96-8.74-5.97-15.13-12.06-19.25-16.4Z"/>
  <path class="cls-14" d="m218.32,1408.89c2.64-30.07,131.98-39.34,178.22-40.63,19.58-.55,45.13-.24,75.56,8.55,29.71,8.59,82.13,30.5,80.08,49.66-2.39,22.28-78.6,31.41-122.61,36.59-40.9,4.81-68.02,7.78-103.6.95-44.55-8.55-109.55-33.4-107.64-55.13Z"/>
  <path class="cls-3" d="m376.22,1561.66c1.77,1.39,6.82,4.95,13.9,4.76,6.7-.17,11.41-3.6,13.19-5.04v-.14c-.04-18.21-.08-36.43-.12-54.64v-.52c-1.77,1.22-6.49,4.13-13.19,4.28-7.08.16-12.13-2.86-13.9-4.04.04,18.21.08,36.43.12,54.64"/>
  <path class="cls-1" d="m376.22,1561.66c3.92.88,7.84,1.75,11.76,2.63-.06-17.35-.12-34.69-.18-52.04-1.34-.54-2.71-1.07-4.1-1.6-1.81-.69-3.59-1.34-5.35-1.96l-2.14,52.97Z"/>
  <path class="cls-9" d="m403.66,1561.13c-2.67.88-5.35,1.75-8.02,2.63.04-17.35.08-34.69.12-52.04.91-.54,1.85-1.07,2.79-1.6,1.23-.69,2.45-1.34,3.65-1.96.49,17.66.97,35.31,1.46,52.97Z"/>
  <path class="cls-14" d="m376.22,1561.66c1.77,1.39,6.82,4.95,13.9,4.76,6.7-.17,11.41-3.6,13.19-5.04v-.14c-.04-18.21-.08-36.43-.12-54.64v-.52c-1.77,1.22-6.49,4.13-13.19,4.28-7.08.16-12.13-2.86-13.9-4.04.04,18.21.08,36.43.12,54.64"/>
  <path class="cls-14" d="m321.51,1464.08c-7.58,8.27-15.16,16.54-22.74,24.81"/>
  <path class="cls-17" d="m287.38,1487.06c7.28-1.84,16.33,4.22,17.39,10.69,1.53,9.32-13.48,20.03-23.28,17.69-.84-.2-3.84-.96-5.68-3.55-4.42-6.21,2.42-16.6,2.97-17.41,1.85-2.74,4.26-6.32,8.6-7.41Z"/>
</svg>