<svg xmlns="http://www.w3.org/2000/svg" id="_стул_v0" data-name="стул v0" viewBox="0 0 1170 2532"><defs><style>.cls-1{fill:#6b441d}.cls-1,.cls-2,.cls-3{stroke-width:0}.cls-2{fill:#613a13}.cls-3{opacity:.14}.cls-6{stroke:#51351d;fill:none;stroke-linecap:round;stroke-linejoin:round;stroke-width:10px}</style></defs><path d="m274.63 1337.6-11.88-164.44-18.06-.95c4.44 56.4 8.87 112.79 13.31 169.19 5.54-1.27 11.09-2.53 16.63-3.8Z" class="cls-2"/><path d="m274.63 1337.6-11.88-164.44-18.06-.95c4.44 56.4 8.87 112.79 13.31 169.19 5.54-1.27 11.09-2.53 16.63-3.8Z" class="cls-6"/><path d="m324.53 1330.48-11.88-164.44c-6.02-.32-12.04-.63-18.06-.95 4.44 56.4 8.87 112.79 13.31 169.19 5.54-1.27 11.09-2.53 16.63-3.8Z" class="cls-2"/><path d="M323.35 1335.12c-2.51-54.9-5.03-109.79-7.54-164.69l-18.03-1.43c2.95 56.49 5.9 112.99 8.84 169.48l16.73-3.36Z" class="cls-6"/><path d="M372.42 1327.3c-1.31-54.94-2.63-109.88-3.94-164.82l-17.99-1.82 5.13 169.63 16.8-3Z" class="cls-2"/><path d="m372.78 1329.22-3.69-164.82-17.99-1.85c1.63 56.55 3.25 113.09 4.88 169.64l16.8-2.97Z" class="cls-6"/><path d="M425.21 1320.93c.26-54.95.52-109.91.79-164.86l-17.93-2.34.27 169.71c5.63-.84 11.25-1.68 16.88-2.51Z" class="cls-2"/><path d="M425.14 1321.89c.31-54.95.63-109.91.94-164.86-5.98-.78-11.95-1.57-17.93-2.35.04 56.57.07 113.14.11 169.71 5.63-.83 11.25-1.66 16.88-2.5Z" class="cls-6"/><path d="M538.4 1644.85c11.86 2.62 21.09-2.5 23.17-3.72l6.06-208.95-44.91-10.11c-.76 39.45-1.35 78.9-1.78 118.34-.34 31.01-.58 62.01-.71 93.03 1.66 2.09 7.62 9.08 18.18 11.41ZM322.4 1472.11l-6.06 208.95c-1.93 1.14-10.08 5.65-20.79 4.14-.78-.11-1.57-.25-2.38-.43-10.55-2.33-16.51-9.31-18.18-11.4.14-31.02.38-62.03.72-93.03.43-39.44 1.02-78.89 1.78-118.34 7.08 1.59 14.16 3.19 21.24 4.78 7.89 1.78 15.78 3.55 23.67 5.33Z" class="cls-1"/><path d="m298.73 1466.78-3.18 218.42c-.78-.11-1.57-.25-2.38-.43-10.55-2.33-16.51-9.31-18.18-11.4.14-31.02.38-62.03.72-93.03.43-39.44 1.02-78.89 1.78-118.34 7.08 1.59 14.16 3.19 21.24 4.78ZM541.96 1449.2l-3.06 197.07c-.75-.1-1.51-.23-2.29-.39-10.14-2.1-15.86-8.4-17.47-10.29.13-27.99.37-55.97.69-83.94.41-35.59.98-71.18 1.71-106.77 6.8 1.43 13.61 2.88 20.41 4.31Z" class="cls-3"/><path d="m293.17 1684.77 23.17-3.72 6.06-208.95-26.02-4.41-3.21 217.07ZM292.46 1684.77l-15.45-11.64c.32-71.13.63-142.26.95-213.39M536.61 1645.56l-15.45-11.64c.32-71.13.63-142.26.95-213.39M537.33 1646.28c7.72-1.19 15.45-2.38 23.17-3.56l6.06-202.81c-8.67-1.43-17.35-2.85-26.02-4.28l-3.21 210.65Z" class="cls-6"/><path d="M209.29 1594.48c12.69-89.64 19.6-193.16 13.31-307.49-2.11-38.4-5.56-75.15-9.98-110.14 21.26-1 43.01-2.41 65.23-4.28a1791.27 1791.27 0 0 0 168.36-22.22l5.7 389.7c1.2 1.7 6.63 8.96 16.87 11.17 10.93 2.36 19.3-2.77 20.91-3.8 4.28-163.33 8.55-326.65 12.83-489.98a1736.543 1736.543 0 0 1-197.23 28.51c-49.34 4.26-96.05 6.17-139.72 6.42a1865.958 1865.958 0 0 1 27.8 268.75c2.68 87.4-1.03 167.09-7.84 237.39l-2.14-.24c-4.75-3.25-9.51-6.5-14.26-9.74 4.23-68.55 5.58-144.34 1.9-226.22a2126.09 2126.09 0 0 0-28.51-264.24l23.05-5.7a1865.958 1865.958 0 0 1 27.8 268.75c2.68 87.4-1.03 167.09-7.84 237.39" class="cls-1"/><path d="m472.1 1155.85-3.06 392.29c-.75-.2-1.51-.45-2.29-.77-10.14-4.18-15.86-16.72-17.47-20.47.13-55.71.37-111.41.69-167.08.41-70.83.98-141.69 1.71-212.54 6.8 2.86 13.61 5.73 20.41 8.59Z" class="cls-3"/><path d="M182.91 1203.58c6.17 61.29 10.31 128.39 10.93 200.55.61 70.36-2.22 135.95-7.1 196.04-.25-.06-.66-.18-1.15-.35 0 0-1.83-.63-3.63-1.79-1.65-1.07-7.85-8.25-14.97-19.11 1.49-23.32 2.88-51.5 3.56-83.55 0 0 .89-41.28 0-85.07-1.19-58.72-8.8-168.66-26.61-309.86 2.4-.46 6.16-1.38 10.46-3.33 4.82-2.18 6.09-3.75 7.13-3.8 4.04-.2 10.52 22.24 21.39 110.26Z" style="opacity:.15;stroke-width:0"/><path d="m185.52 1598.51 23.29-3.33M468.77 1551.23l-15.39-9.39-5.88-389.94" class="cls-6"/><path d="M209.29 1594.48c12.69-89.64 19.6-193.16 13.31-307.49-2.11-38.4-5.56-75.15-9.98-110.14 21.35-1.06 43.09-2.47 65.23-4.28 67.66-5.51 131.57-14.06 191.41-24.59l-.48 403.25c6.97-1.27 13.94-2.53 20.91-3.8 4.28-163.33 8.55-326.65 12.83-489.98a1736.543 1736.543 0 0 1-197.23 28.51c-49.34 4.26-96.05 6.17-139.72 6.42a1865.958 1865.958 0 0 1 27.8 268.75c2.68 87.4-1.03 167.09-7.84 237.39l-2.14-.24c-4.75-3.25-9.51-6.5-14.26-9.74 4.23-68.55 5.58-144.34 1.9-226.22a2126.09 2126.09 0 0 0-28.51-264.24l23.05-5.7" class="cls-6"/><path d="M429.76 1341.88c-107.29-1.88-211.86-3.71-224.55 36.59-2.63 8.35-.96 17.39-.54 19.49 1.1 5.42 5.48 21.47 41.84 44.2 14.33 8.96 36.46 20.72 66.37 29.11 83.25-10.22 166.5-20.44 249.75-30.65 3.48-6.2 7.61-15.72 3.92-23.17-6.45-13.02-28.83-3.75-51.55-17.47-22.22-13.41-16.7-33.78-40.52-47.41-17.52-10.02-34.82-10.52-44.73-10.69Z" class="cls-2"/><path d="M429.76 1341.88c-107.29-1.88-211.86-3.71-224.55 36.59-2.63 8.35-.96 17.39-.54 19.49 1.1 5.42 5.48 21.47 41.84 44.2 14.33 8.96 36.46 20.72 66.37 29.11 83.25-10.22 166.5-20.44 249.75-30.65 3.48-6.2 7.61-15.72 3.92-23.17-6.45-13.02-28.83-3.75-51.55-17.47-22.22-13.41-16.7-33.78-40.52-47.41-17.52-10.02-34.82-10.52-44.73-10.69Z" class="cls-6"/><path d="M465.92 1328.34c-44.96-13.44-257.09-2.32-259.7 46.34-.54 10 9.35 18.97 29.58 36.36 29.71 25.54 61.02 35.43 78.64 39.56l253.9-30.3c-7.69-14.91-19.21-32.76-36.36-49.9-9.96-9.96-27.71-27.36-55.94-38.5 0 0-4.91-2-10.12-3.56Z" style="fill:#921e00;stroke-width:0"/><path d="M465.92 1328.34c-44.96-13.44-257.09-2.32-259.7 46.34-.54 10 9.35 18.97 29.58 36.36 29.71 25.54 61.02 35.43 78.64 39.56l253.9-30.3c-7.69-14.91-19.21-32.76-36.36-49.9-9.96-9.96-27.71-27.36-55.94-38.5 0 0-4.91-2-10.12-3.56Z" style="stroke:#751203;fill:none;stroke-linecap:round;stroke-linejoin:round;stroke-width:10px"/></svg>