<?xml version="1.0" encoding="UTF-8"?>
<svg xmlns="http://www.w3.org/2000/svg" viewBox="0 0 1170 2532">
  <defs>
    <style>
      .cls-1 {
        stroke: #000;
        stroke-width: 8px;
      }

      .cls-1, .cls-2 {
        stroke-linecap: round;
        stroke-linejoin: round;
      }

      .cls-2 {
        fill: none;
        stroke: #007537;
        stroke-width: 9px;
      }

      .cls-3 {
        fill: #fff;
        stroke-width: 0px;
      }
    </style>
  </defs>
  <g id="_Слой_134" data-name="Слой 134">
    <path class="cls-3" d="m511.31,1031.07c25.34-25.31,50.68-34.69,64.16-38.5,24.51-6.92,73.36-13.32,86.5,9.03,6.66,11.33,1.47,25.62.83,27.33-18.58,49.2-151.51,40.8-166.13,39.76-.13-4.57.24-12.59,4.02-21.58,3.21-7.65,7.61-12.94,10.62-16.04Z"/>
  </g>
  <g id="_глаз1_обыч._зрачок" data-name="глаз1 обыч. зрачок">
    <path class="cls-1" d="m571.54,1058.04c-12.59-11.43-7.84-30.75-7.48-32.12,3.51-13.38,15.8-27.2,32.91-27.53,12.92-.25,25.52,7.4,31.13,19.49.47,1.02,7.32,16.47-1.49,30.83-7.94,12.95-22.36,14.83-27.5,15.5-5.42.71-18.15,2.37-27.56-6.18Z"/>
    <g id="_Слой_15_копия_" data-name="Слой 15 (копия)">
      <circle class="cls-3" cx="586.07" cy="1013.43" r="5.36"/>
      <circle class="cls-3" cx="614.17" cy="1022.55" r="6.55"/>
      <circle class="cls-3" cx="588.88" cy="1042.12" r="2.81"/>
    </g>
  </g>
  <g id="_глаз1_обыч._обводка" data-name="глаз1 обыч. обводка">
    <path class="cls-2" d="m511.31,1031.07c25.34-25.31,50.68-34.69,64.16-38.5,24.51-6.92,73.36-13.32,86.5,9.03,6.66,11.33,1.47,25.62.83,27.33-18.58,49.2-151.51,40.8-166.13,39.76-.13-4.57.24-12.59,4.02-21.58,3.21-7.65,7.61-12.94,10.62-16.04Z"/>
  </g>
  <g id="_глаз2_обыч._белок" data-name="глаз2 обыч. белок">
    <path class="cls-3" d="m364.46,1063.86c6.97-1.38,17.42-4.22,28.51-10.69,14.07-8.22,16.29-14.77,30.65-24.59,5.9-4.04,19.11-12.96,37.07-16.04,2.81-.48,41.72-6.69,54.65,14.02,6.24,9.99,3.6,21.71,3.45,22.34-8.23,34.15-83.29,61.03-130.81,34.93-11.57-6.35-19.2-14.58-23.52-19.96Z"/>
  </g>
  <g id="_глаз2_обыч._зрачок" data-name="глаз2 обыч. зрачок">
    <path class="cls-1" d="m432.89,1085.25c-2.61-2.29-11.5-10.62-12.36-23.29-1.18-17.58,13.76-34.04,31.13-36.83,12.68-2.04,30.43,2.59,36.48,17.11,5.37,12.9-1.82,25.66-2.89,27.48-1.89,3.1-8.07,12.32-20.28,16.95-15.74,5.97-29.53-.22-32.08-1.43Z"/>
    <g id="_Слой_15" data-name="Слой 15">
      <circle class="cls-3" cx="445.72" cy="1038.72" r="5.36"/>
      <circle class="cls-3" cx="475.91" cy="1045.27" r="6.55"/>
      <circle class="cls-3" cx="448.04" cy="1067.98" r="2.81"/>
    </g>
  </g>
  <g id="_глаз2_обыч._обводка" data-name="глаз2 обыч. обводка">
    <g id="_Слой_21" data-name="Слой 21">
      <path class="cls-2" d="m510.36,1065.52c-.33,3.73-1.76,14.03-9.98,22.81-4.3,4.59-8.94,7.15-12.12,8.55"/>
    </g>
    <path class="cls-2" d="m364.46,1063.86c6.41-2.26,16.42-6.32,27.56-13.31,14.82-9.3,17.47-14.91,30.89-23.29,4.84-3.02,18.72-11.53,37.78-14.73,10.18-1.71,39.39-6.61,52.4,9.62,5.57,6.95,7.94,17.48,5.7,26.73-8.36,34.64-83.46,60.95-130.81,34.93-11.61-6.38-19.25-14.64-23.52-19.96Z"/>
  </g>
</svg>