<?xml version="1.0" encoding="UTF-8"?>
<svg xmlns="http://www.w3.org/2000/svg" viewBox="0 0 1170 2532">
  <defs>
    <style>
      .cls-1 {
        stroke: #000;
        stroke-width: 8px;
      }

      .cls-1, .cls-2 {
        stroke-linecap: round;
        stroke-linejoin: round;
      }

      .cls-2 {
        fill: none;
        stroke: #007537;
        stroke-width: 9px;
      }

      .cls-3 {
        fill: #fff;
        stroke-width: 0px;
      }
    </style>
  </defs>
  <g id="_глаз1_глуп._белок" data-name="глаз1 глуп. белок">
    <path class="cls-3" d="m511.31,1031.07c32.28-35.15,71.29-43.25,71.29-43.25,5.51-1.14,64.64-12.81,79.37,13.78,6.11,11.02,2.02,23.99.83,27.33-12.8,36.02-75.62,42.42-95.41,44.44-16.17,1.65-40.75,2.24-70.72-4.68-.1-4.72.31-12.75,4.02-21.58.84-2.01,3.74-8.54,10.62-16.04Z"/>
  </g>
  <g id="_глаз1_глуп._зрачок" data-name="глаз1 глуп. зрачок">
    <path class="cls-1" d="m583.66,1042.48c-12.59-11.43-7.84-30.75-7.48-32.12,3.51-13.38,15.8-27.2,32.91-27.53,12.92-.25,25.52,7.4,31.13,19.49.47,1.02,7.32,16.47-1.49,30.83-7.94,12.95-22.36,14.83-27.5,15.5-5.42.71-18.15,2.37-27.56-6.18Z"/>
    <g id="_Слой_15_копия3_" data-name="Слой 15 (копия3)">
      <circle class="cls-3" cx="598.19" cy="997.87" r="5.36"/>
      <circle class="cls-3" cx="626.29" cy="1006.98" r="6.55"/>
      <circle class="cls-3" cx="601" cy="1026.56" r="2.81"/>
    </g>
  </g>
  <g id="_глаз1_глуп._обводка" data-name="глаз1 глуп. обводка">
    <path class="cls-2" d="m511.31,1031.07c36.21-39.33,76.04-46.1,76.04-46.1,5.75-.98,60.58-9.71,74.61,16.63,6.16,11.57,1.7,24.75.83,27.33-8.94,26.41-42.91,35.63-63.09,41.11-18.35,4.98-54.91,11.74-103.04-1.35-.1-4.87.35-12.84,4.02-21.58,1.07-2.55,3.92-8.76,10.62-16.04Z"/>
  </g>
  <g id="_глаз2_глуп._белок" data-name="глаз2 глуп. белок">
    <path class="cls-3" d="m364.46,1063.86c5.71-6.04,14-14.29,24.71-23.29,15.74-13.22,24.26-20.38,37.07-26.14,8.78-3.95,35.41-14.35,63.68-5.23,7.72,2.49,19.28,6.4,25.43,17.35,4.44,7.91,4.75,16.92,3.45,22.34-8.23,34.15-83.29,61.03-130.81,34.93-11.57-6.35-19.2-14.58-23.52-19.96Z"/>
  </g>
  <g id="_глаз2_глуп._зрачок" data-name="глаз2 глуп. зрачок">
    <path class="cls-1" d="m404.02,1088.46c-2.61-2.29-11.5-10.62-12.36-23.29-1.18-17.58,13.76-34.04,31.13-36.83,12.68-2.04,30.43,2.59,36.48,17.11,5.37,12.9-1.82,25.66-2.89,27.48-1.89,3.1-8.07,12.32-20.28,16.95-15.74,5.97-29.53-.22-32.08-1.43Z"/>
    <g id="_Слой_15_копия_3" data-name="Слой 15 копия 3">
      <circle class="cls-3" cx="416.85" cy="1041.93" r="5.36"/>
      <circle class="cls-3" cx="447.04" cy="1048.48" r="6.55"/>
      <circle class="cls-3" cx="419.17" cy="1071.19" r="2.81"/>
    </g>
  </g>
  <g id="_глаз2_глуп._обводка" data-name="глаз2 глуп. обводка">
    <g id="_Слой_21_копия_2" data-name="Слой 21 копия 2">
      <path class="cls-2" d="m510.36,1065.52c-.33,3.73-1.76,14.03-9.98,22.81-4.3,4.59-8.94,7.15-12.12,8.55"/>
    </g>
    <path class="cls-2" d="m364.46,1063.86c4.01-4.9,9.88-11.63,17.58-19.01,9.96-9.54,20.86-19.99,37.07-28.04,7.12-3.54,22.22-10.84,42.77-11.41,11.53-.32,38.79-1.06,51.21,16.75.67.96,9,13.09,5.7,26.73-8.36,34.64-83.46,60.95-130.81,34.93-11.61-6.38-19.25-14.64-23.52-19.96Z"/>
  </g>
</svg>