<?xml version="1.0" encoding="UTF-8"?>
<svg xmlns="http://www.w3.org/2000/svg" xmlns:xlink="http://www.w3.org/1999/xlink" viewBox="0 0 1170 2532">
  <defs>
    <style>
      .cls-1 {
        stroke: #000;
        stroke-width: 8px;
      }

      .cls-1, .cls-2, .cls-3 {
        stroke-linecap: round;
        stroke-linejoin: round;
      }

      .cls-2 {
        stroke: #007537;
        stroke-width: 9px;
      }

      .cls-2, .cls-3 {
        fill: none;
      }

      .cls-4 {
        fill: url(#_Безымянный_градиент_79);
      }

      .cls-4, .cls-5, .cls-6 {
        stroke-width: 0px;
      }

      .cls-5 {
        fill: #fff;
      }

      .cls-6 {
        fill: url(#_Безымянный_градиент_77);
      }

      .cls-3 {
        opacity: .68;
        stroke: #ff0a0a;
        stroke-width: 4px;
      }
    </style>
    <radialGradient id="_Безымянный_градиент_79" data-name="Безымянный градиент 79" cx="581.2" cy="1034.92" fx="581.2" fy="1005.07" r="64.7" gradientTransform="translate(1705.64 315.24) rotate(83.19) scale(1 1.16)" gradientUnits="userSpaceOnUse">
      <stop offset="0" stop-color="#fff"/>
      <stop offset=".11" stop-color="#fff7f7"/>
      <stop offset=".28" stop-color="#ffe2e2"/>
      <stop offset=".49" stop-color="#ffbfbf"/>
      <stop offset=".73" stop-color="#ff9090"/>
      <stop offset=".82" stop-color="#ff7d7d"/>
    </radialGradient>
    <radialGradient id="_Безымянный_градиент_77" data-name="Безымянный градиент 77" cx="441.93" cy="1056.97" fx="464.08" fy="1056.97" r="75.46" gradientUnits="userSpaceOnUse">
      <stop offset="0" stop-color="#fff"/>
      <stop offset=".12" stop-color="#fff7f7"/>
      <stop offset=".29" stop-color="#ffe2e3"/>
      <stop offset=".51" stop-color="#ffbfc2"/>
      <stop offset=".75" stop-color="#ff9094"/>
      <stop offset=".81" stop-color="#ff8489"/>
    </radialGradient>
  </defs>
  <g id="_глаз1_красн._белок" data-name="глаз1 красн. белок">
    <path class="cls-4" d="m511.31,1031.07c5.1-5.76,17.3-19.54,35.64-25.31,7.85-2.47,7.42-.51,38.49-.36,30.05.15,45.08.23,54.18-1.78,11.5-2.54,17.84-5.61,22.34-2.02,7.69,6.15,1.4,25.81.83,27.33-18.58,49.2-151.51,40.8-166.13,39.76-.13-4.57.24-12.59,4.02-21.58,1.03-2.45,3.66-8.19,10.62-16.04Z"/>
    <g>
      <path class="cls-3" d="m521.11,1051.03c.84-1.4,2.39-3.58,4.99-5.47,3.6-2.61,7.23-3.23,8.98-3.41.19.3,2.26,3.4,6.1,3.56,3.15.13,5.22-1.81,5.59-2.17"/>
      <path class="cls-3" d="m650.34,1000.81c-.31,3.55-.63,7.1-.94,10.65-1.01-.02-3.84.03-5.45,2.01-1.27,1.56-1.15,3.53-1.01,4.48"/>
      <path class="cls-3" d="m665.32,1027.64c-.56.31-2.89,1.49-5.85.81-2.79-.64-4.34-2.53-4.75-3.06-.35,1.82-1.81,3.18-3.55,3.36-1.46.15-2.9-.56-3.75-1.82"/>
      <path class="cls-3" d="m650.88,1047.79c-.48-.12-1-.35-1.45-.77-1.69-1.6-1-4.75-.8-5.58-1.84,1.91-4.1,2.82-5.52,2.25-1.19-.48-1.64-1.92-1.16-3.73"/>
      <path class="cls-3" d="m538.51,1071.31c.94-1.72,1.88-3.44,2.82-5.16.42-.1,1.63-.46,2.76-1.58.59-.59,1.26-1.22,1.45-2.24.42-2.25-1.8-4.29-1.26-4.93.73-.85,4.61,2.76,7.76,2.26,1.92-.3,2.92-2.04,3.46-3.49"/>
      <path class="cls-3" d="m526.99,1014.67c2.46,2.09,4.92,4.18,7.38,6.27,2.53.48,5.06.96,7.6,1.44,1.19,1.37,2.38,2.75,3.57,4.12,1.01-.26,2.02-.52,3.03-.78"/>
    </g>
  </g>
  <g id="_глаз1_красн._зрачок" data-name="глаз1 красн. зрачок">
    <path class="cls-1" d="m571.54,1058.04c-12.09-10.98-8.1-29.45-7.48-32.12,2.37-10.21,8.46-16.77,11.4-19.57,6.12-.41,12.89-.55,20.2-.24,9.93.43,18.85,1.63,26.58,3.11,1.68,1.78,4.02,4.65,5.85,8.65.48,1.05,7.27,16.55-1.49,30.83-7.94,12.95-22.36,14.83-27.5,15.5-5.42.71-18.15,2.37-27.56-6.18Z"/>
    <g id="_Слой_15_копия2_" data-name="Слой 15 (копия2)">
      <circle class="cls-5" cx="586.07" cy="1013.43" r="5.36"/>
      <circle class="cls-5" cx="614.17" cy="1022.55" r="6.55"/>
      <circle class="cls-5" cx="588.88" cy="1042.12" r="2.81"/>
    </g>
  </g>
  <g id="_глаз1_красн._обводка" data-name="глаз1 красн. обводка">
    <path class="cls-2" d="m511.31,1031.07s1.64-1.89,3.54-3.79c8.79-8.8,22.31-16.66,27.82-19.74,6.2-.18,15.76-.51,27.45-1.07,20.65-.99,30.97-1.49,41.47-2.5,34.7-3.33,44.25-8.63,50.38-2.38,7.87,8.03,1.29,26.12.83,27.33-18.58,49.2-151.51,40.8-166.13,39.76-.13-4.57.24-12.59,4.02-21.58,1.3-3.09,3.97-8.59,10.62-16.04Z"/>
  </g>
  <g id="_глаз2_красн._белок" data-name="глаз2 красн. белок">
    <path class="cls-6" d="m364.46,1063.86c7.63-1.41,17.94-3.62,29.94-7.13,3.7-1.08,14.84-4.42,31.37-11.05,26.87-10.78,27.29-13.94,44.2-19.37,16.94-5.44,31.95-10.19,41.35-2.85,6.9,5.39,9.35,16.66,7.49,25.43-7.09,33.23-82.91,61.24-130.81,34.93-11.57-6.35-19.2-14.58-23.52-19.96Z"/>
    <g>
      <path class="cls-3" d="m385.37,1079.07c4.12-1.43,8.24-2.85,12.36-4.28.8.62,3.19,2.3,6.65,2.38,2.74.06,4.78-.91,5.7-1.43"/>
      <path class="cls-3" d="m502.72,1017.94c.34,3.55.69,7.1,1.03,10.64-1,.16-3.77.74-4.99,2.97-.97,1.77-.48,3.68-.17,4.59"/>
      <path class="cls-3" d="m520.47,1042.03c-.5.41-2.56,1.99-5.6,1.87-2.86-.12-4.73-1.69-5.23-2.14,0,1.85-1.2,3.46-2.87,3.95-1.4.41-2.96-.02-4.02-1.1"/>
      <path class="cls-3" d="m513.21,1065.52c-.53-.13-1.14-.35-1.76-.74-2.33-1.45-2.91-4.06-3.04-4.76-1.07,1.51-2.97,2.14-4.62,1.58-1.39-.47-2.41-1.72-2.66-3.22"/>
      <path class="cls-3" d="m411.81,1093.4c.89-1.91,1.79-3.82,2.68-5.73.49-.06,1.89-.29,3.09-1.45.95-.92,1.3-1.96,1.43-2.45"/>
      <path class="cls-3" d="m383.11,1062.44c2.77.95,5.54,1.9,8.32,2.85,2.46-.55,4.91-1.11,7.37-1.66,1.43.79,2.85,1.58,4.28,2.38.87-.63,1.74-1.27,2.61-1.9"/>
    </g>
  </g>
  <g id="_глаз2_красн._зрачок" data-name="глаз2 красн. зрачок">
    <g id="_Слой_11_копия_" data-name="Слой 11 (копия)">
      <path class="cls-1" d="m432.89,1085.25c-2.79-2.44-11.78-10.9-12.36-23.29-.13-2.81-.44-9.39,3.8-14.14,2.86-3.2,6.53-4.17,8.2-4.63,22.61-6.33,29.64-18.92,41.97-14.79,8.94,3,12.92,12.18,13.63,13.83,5.41,12.48-1.24,24.78-2.89,27.48-1.89,3.1-8.07,12.32-20.28,16.95-15.74,5.97-29.53-.22-32.08-1.43Z"/>
      <g id="_Слой_15_копия_2" data-name="Слой 15 копия 2">
        <circle class="cls-5" cx="448.81" cy="1042.05" r="5.36"/>
        <circle class="cls-5" cx="475.91" cy="1045.27" r="6.55"/>
        <circle class="cls-5" cx="448.04" cy="1067.98" r="2.81"/>
      </g>
    </g>
  </g>
  <g id="_глаз2_красн._обводка" data-name="глаз2 красн. обводка">
    <g id="_Слой_21_копия_" data-name="Слой 21 (копия)">
      <path class="cls-2" d="m510.36,1065.52c-.33,3.73-1.76,14.03-9.98,22.81-4.3,4.59-8.94,7.15-12.12,8.55"/>
    </g>
    <path class="cls-2" d="m364.46,1063.86c9.26-1.32,23.39-3.91,39.92-9.5,24.98-8.45,34.88-16.38,59.41-25.19,10.42-3.74,26.01-8.53,46.1-11.64,10.11,14.89,10.14,25.26,8.91,31.37-7.12,35.34-83.47,60.95-130.81,34.93-11.61-6.38-19.25-14.64-23.52-19.96Z"/>
  </g>
</svg>