<?xml version="1.0" encoding="UTF-8"?>
<svg id="_пол_беж._копия_2" data-name="пол беж. копия 2" xmlns="http://www.w3.org/2000/svg" viewBox="0 0 1170 2532">
  <defs>
    <style>
      .cls-1 {
        fill: #55596b;
        opacity: .11;
      }

      .cls-1, .cls-2, .cls-3, .cls-4, .cls-5 {
        stroke-width: 0px;
      }

      .cls-2 {
        fill: #b6bbd7;
      }

      .cls-3 {
        fill: #000034;
        opacity: .15;
      }

      .cls-4 {
        fill: #000016;
        opacity: .16;
      }

      .cls-5 {
        fill: #9d9fac;
      }

      .cls-6 {
        stroke: #8e91a2;
      }

      .cls-6, .cls-7 {
        fill: none;
        stroke-linecap: round;
        stroke-linejoin: round;
        stroke-width: 10px;
      }

      .cls-7 {
        stroke: #818190;
      }
    </style>
  </defs>
  <path class="cls-2" d="m606.59,1343.65c192.36,120.12,384.71,240.24,577.07,360.36-5.74,4.99-11.49,9.99-17.23,14.98-187.01-117.62-374.02-235.25-561.03-352.87-205.07,25.07-410.14,50.14-615.21,75.21.4-7.49.79-14.98,1.19-22.47,205.07-25.07,410.14-50.14,615.21-75.21Z"/>
  <path class="cls-1" d="m606.59,1343.65c-.4,7.49-.79,14.98-1.19,22.47-205.07,25.07-410.14,50.14-615.21,75.21.4-7.49.79-14.98,1.19-22.47,205.07-25.07,410.14-50.14,615.21-75.21Z"/>
  <path class="cls-6" d="m605.41,1348.3v16.4"/>
  <path class="cls-5" d="m607.9,1362.91c192.36,119.88,384.71,239.76,577.07,359.64v815.88H-7.34c.01-367.01.02-734.02.03-1101.03,205.07-24.83,410.14-49.66,615.21-74.5Z"/>
  <g id="_Слой_19_копия_2" data-name="Слой 19 копия 2">
    <path class="cls-7" d="m-27.77,1519.59c239.46-33.22,478.93-66.43,718.39-99.65"/>
    <path class="cls-7" d="m-24.13,1589.69c262.15-40.51,524.29-81.03,786.44-121.54"/>
    <path class="cls-7" d="m-23.64,1671.2c295.93-47.64,591.85-95.27,887.78-142.91"/>
    <path class="cls-7" d="m-19.88,1746.72c326.65-52.58,653.3-105.16,979.95-157.74"/>
    <path class="cls-7" d="m-15,1827.17c358.88-57.77,717.76-115.54,1076.64-173.31L-15,1827.17Z"/>
    <path class="cls-7" d="m-12.65,1914.59c399.02-64.23,798.04-128.46,1197.06-192.69L-12.65,1914.59Z"/>
    <path class="cls-7" d="m-9.24,2006.38c399.14-64.25,798.27-128.5,1197.41-192.75L-9.24,2006.38Z"/>
    <path class="cls-7" d="m-6.21,2100.38c399.41-64.29,798.82-128.59,1198.23-192.88L-6.21,2100.38Z"/>
    <path class="cls-7" d="m-2.56,2198.33c398.83-64.2,797.66-128.4,1196.48-192.6L-2.56,2198.33Z"/>
    <path class="cls-7" d="m2.89,2306.73c397.8-64.03,795.59-128.07,1193.39-192.1L2.89,2306.73Z"/>
    <path class="cls-7" d="m6.15,2420.02c398.25-64.11,796.5-128.21,1194.75-192.32L6.15,2420.02Z"/>
    <path class="cls-7" d="m10.43,2535.05c397.69-64.02,795.39-128.03,1193.08-192.05L10.43,2535.05Z"/>
    <path class="cls-7" d="m593.42,2548.83c205.52-33.08,411.05-66.17,616.57-99.25l-616.57,99.25Z"/>
    <path class="cls-7" d="m300.28,1404.07c31.55,18.13,63.1,36.26,94.65,54.39"/>
    <path class="cls-7" d="m150.57,1498.43c24.37,17.61,48.73,35.22,73.1,52.83"/>
    <path class="cls-7" d="m449.16,1516.2c31.48,19.7,62.97,39.41,94.45,59.11"/>
    <path class="cls-7" d="m192.76,1636.6c28.56,20.43,57.13,40.86,85.69,61.29"/>
    <path class="cls-7" d="m481.4,1666.78c31.56,20.91,63.13,41.82,94.69,62.73"/>
    <line class="cls-7" x1="326.24" y1="1860.16" x2="224.21" y2="1789.3"/>
    <line class="cls-7" x1="959.07" y1="1756.33" x2="854.48" y2="1687.03"/>
    <line class="cls-7" x1="829.82" y1="1872.02" x2="719.61" y2="1799"/>
    <line class="cls-7" x1="113.57" y1="1984.45" x2="12.14" y2="1910.99"/>
    <line class="cls-7" x1="476.38" y1="2020.81" x2="374.53" y2="1944.81"/>
    <line class="cls-7" x1="1168.29" y1="1909.7" x2="1058.08" y2="1836.69"/>
    <line class="cls-7" x1="83.66" y1="2181.82" x2="-16.87" y2="2107.18"/>
    <line class="cls-7" x1="907.99" y1="2050.43" x2="794.01" y2="1972.29"/>
    <line class="cls-7" x1="449.34" y1="2231.74" x2="338.25" y2="2144.25"/>
    <line class="cls-7" x1="1248.77" y1="2102.97" x2="1118.18" y2="2016.46"/>
    <line class="cls-7" x1="885.47" y1="2277.66" x2="767.82" y2="2185.26"/>
    <line class="cls-7" x1="267.99" y1="2490.62" x2="157.04" y2="2395.66"/>
    <line class="cls-7" x1="819.89" y1="2512.38" x2="712.06" y2="2422.13"/>
    <line class="cls-7" x1="1264.58" y1="2330.02" x2="1128.47" y2="2239.85"/>
  </g>
  <path class="cls-3" d="m462.83,1383.94c-54.65,7.05-109.31,14.1-163.96,21.15-63.25,5.31-117.47,11.51-160.43,17.04-66.09,8.51-91.88,13.69-103.34,34.29-16.4,29.49,7.2,71.5,16.45,86.49,0,0,14.01,33.92,24.89,86.98,16.45,80.21,9.14,114.45,39.92,161.82,0,0,28.2,43.4,85.54,74.85,212.51,116.56,893.21-79.89,888.24-151.13-.21-3.03-3.91-18.8-14.26-35.64-13.33-21.69-30.88-33.49-38.49-38.5-87.32-57.38-130.98-86.07-195.33-124.04-25.85-15.25-63.16-38.4-106.93-69.86-43.25-26.97-86.49-53.94-129.74-80.91-47.52,5.82-95.05,11.64-142.57,17.47Z"/>
  <path class="cls-4" d="m502.75,1492.7c-110.15,16.34-232.29,90.63-225.27,149.3,8.34,69.75,199.15,117.19,354.3,91.96,62.83-10.22,201.13-45.57,204.59-103.37,4-66.72-171.78-161.91-333.62-137.9Z"/>
  <path class="cls-7" d="m605.41,1366.12c192.36,120.12,384.71,240.24,577.07,360.36v815.88H-9.83c.01-367.01.02-734.02.03-1101.03,205.07-25.07,410.14-50.14,615.21-75.21Z"/>
  <path class="cls-6" d="m607.78,1342.58c192.36,120.12,384.71,240.24,577.07,360.36v815.88H-7.46c.01-367.01.02-734.02.03-1101.03,205.07-25.07,410.14-50.14,615.21-75.21Z"/>
</svg>