<svg xmlns="http://www.w3.org/2000/svg" id="_цветок" data-name="цветок" viewBox="0 0 1170 2532"><defs><style>.cls-1,.cls-2{fill:#3a8918;stroke-width:0}.cls-2{fill:#1e6518}.cls-9{fill:none;stroke:#553a23;stroke-width:10px;stroke-linecap:round;stroke-linejoin:round}</style></defs><path d="M1072.57 1265.13c14.82 3.17 36.96 7.91 41.47 24 3.83 13.67-6.19 31.59-24.83 42.53-30.43-15.63-60.85-31.27-91.28-46.9 5.53-4.97 15.84-12.95 30.92-17.73 5.09-1.61 22.2-6.51 43.72-1.9Z" style="opacity:.16;stroke-width:0"/><path d="M1130.05 1224.43c-7.28 19.59-14.55 39.17-21.83 58.76-4.06 2.31-14.28 7.46-28.19 7.51-1.34 0-2.71-.04-4.12-.14-14.92-1.05-25.3-7.66-29.5-10.68-7.04-19.6-14.08-39.2-21.12-58.79 4.59 1.63 10.05 3.35 16.27 4.9 10.83 2.69 23.99 4.84 38.98 5.04 20.54.28 37.55-3.18 49.51-6.6Z" style="stroke-width:0;fill:#684b2e"/><path d="M1018.63 1197.88c.4 6.81.79 13.62 1.19 20.44 11.78 4.99 31.14 11.51 55.84 12.36 25.87.89 46.45-4.84 58.69-9.27.79-6.5 1.58-12.99 2.38-19.49-12.18 4.42-31.7 9.82-56.08 9.51-27.88-.36-49.55-8.03-62.02-13.54Z" style="fill:#866434;stroke-width:0"/><path d="M1130.05 1224.43c-7.28 19.59-14.55 39.17-21.83 58.76-4.06 2.31-14.28 7.46-28.19 7.51-.51-.06-.92-.19-1.26-.34-2.42-1.07-3.01-4.06-3.11-4.56 3.96-.25 9.67-1.28 14.49-5.23 3.53-2.89 5.63-6.49 9.51-17.82 2.11-6.16 4.68-14.42 7.07-24.42-8.6 1.24-19.42 1.98-31.79.89-19.35-1.7-34.79-7.19-45.14-11.88 1.59-.45 3.36-1.06 5.23-1.9 1.03-.46 1.98-.94 2.85-1.43 10.54 3.25 25.11 6.56 42.65 7.01 20.81.54 37.91-3.13 49.51-6.6Z" style="opacity:.14;stroke-width:0"/><path d="M1025.29 1221.09c7.04 19.6 14.08 39.19 21.11 58.79 4.2 3.02 14.58 9.64 29.5 10.68 16 1.12 27.86-4.84 32.32-7.37 7.28-19.59 14.55-39.17 21.83-58.76" class="cls-9"/><path d="M1036.69 1202.51c29 14.84 56.92 8.77 75.92 4.63 9.03-1.96 23.65-5.15 23.88-10.34.22-4.9-12.46-9.17-18.18-11.05-42.25-13.9-96.68-7-97.66 4.28-.35 4.08 6.4 7.54 16.04 12.48Z" style="fill:#634323;stroke-width:0"/><path d="M1027.43 1194.32c.91-2.05 3.02-2.81 3.8-3.09 1.9-.68 3.7-.5 5.94-.24 2.86.34 3.56.8 4.51.24 1.45-.85.96-2.56 2.14-3.09 1.56-.71 3.01 2 6.18 2.61 1.99.38 2.05-.56 7.13-1.66 6.28-1.36 8.48-.41 9.27 0 1.35.7 1.1 1.09 2.14 1.43 3.63 1.15 7.44-3.46 8.79-2.38.63.5-.2 1.51.48 2.61 1.17 1.91 5.6 2.05 8.79.48 1.82-.9 1.64-1.56 3.33-2.14 2.82-.96 5.59.12 6.42.48 2.76 1.2 2.45 2.58 4.28 2.85 2.85.42 4.51-2.81 6.89-1.9.88.34 2.41 1.45 2.38 1.43 10-.09 11.41 1.66 11.41 1.66.21 1.4.69 2.97 1.9 3.56 1.93.95 4.1-1.36 5.94-.48 1.59.77 2.06 3.51 1.9 4.75-1.21 9.43-48.19 10.57-53.47 10.69 0 0-16.52.4-32.79-4.04-1.77-.48-4.43-1.59-9.74-3.8-4.09-1.7-6-2.64-7.13-4.75-.22-.42-1.52-2.86-.48-5.23Z" style="fill:#1e1e1e;opacity:.55;stroke:#000;stroke-width:6px;stroke-linecap:round;stroke-linejoin:round"/><path d="M1064.26 1214.04c8.79 1.93 15.96 2.11 20.91 1.9 8.95-.37 13.57-1.14 16.16-1.9 3.12-.92 5.63-2.01 7.37-2.85a33.53 33.53 0 0 1-5.23 7.6 33.93 33.93 0 0 1-9.74 7.37c15.76 2.81 28.88 1.01 34.93-3.8 4.84-3.85 6.18-8.32 6.18-8.32.95-3.16.65-6.3.24-7.37-1.62-4.15-16.24-5.16-70.81 7.37Z" style="opacity:.64;fill:#684b2e;stroke-width:0"/><path d="M1138.61 1196c-.22 8.75-33.26 16.95-61.85 15.7-27.38-1.2-58.85-11.42-58.44-20.04.41-8.73 33.49-15.66 60.75-14.67 27.18.99 59.75 10.27 59.54 19.01Z" class="cls-9"/><path d="m1138.61 1196-3.3 25.17a149.993 149.993 0 0 1-57.32 9.52c-25.96-.8-46-8.18-57.47-13.4-.7-8.07-1.4-16.14-2.09-24.21" class="cls-9"/><path d="M1074.16 1196.09c-5.63-41.17 2.48-82.39 13.26-121.95 1.74-6.66 4.9-16.57 5.6-23.3.82-7.79.37-15.87-.86-23.65-1.26-7.86-3.48-15.58-6.46-23.01-.36-.9.07-1.92.97-2.28.88-.35 1.88.06 2.26.92 8.16 18.68 12.26 40.65 7.08 60.9-2.8 11.47-5.65 24.08-7.94 35.6-6.53 31.42-9.25 63.68-4 95.37.84 6.61-8.8 8.11-9.9 1.4Z" class="cls-2"/><path d="M1093.74 1033.72c3.14-6.63 6.63-13.09 10.74-19.15l4.11-6.04c1.07-1.52 3.36.03 2.34 1.59-4.95 8.01-9.58 16.66-12.95 25.43-1.23 2.88-5.49 1.06-4.24-1.83ZM1089.6 1066.18c-3-11.46-9.87-21.88-19.28-29.21-1.39-1.11.13-3.27 1.65-2.31 10.73 6.97 19.04 17.6 23.36 29.73 1.27 3.94-4.52 5.76-5.73 1.79ZM1076.27 1120.46c-2.01-13.4-8.83-26.18-19.25-34.92-6.32-5.32-13.83-9.14-21.84-11.27-.76-.2-1.21-.97-1.01-1.73.19-.73.94-1.18 1.67-1.03 5.68 1.23 11.2 3.27 16.33 6.08 10.35 5.66 18.84 14.57 24.17 25.08a63.94 63.94 0 0 1 5.84 16.75c.33 1.62-.73 3.21-2.35 3.53-1.68.34-3.31-.81-3.56-2.5ZM1076.29 1156.4c8.48-22.32 29.06-39.09 52.9-41.8.78-.1 1.49.45 1.58 1.23.09.75-.43 1.44-1.17 1.57-5.5.95-10.86 2.62-15.87 4.97-9.98 4.68-18.58 12.18-24.61 21.39a63.27 63.27 0 0 0-7.19 14.68c-1.41 3.78-6.99 1.79-5.64-2.05Z" class="cls-2"/><path d="M1118.14 989.21c1.85.16 1.85-10.78 8.42-19.26 5.47-7.07 13.75-10.19 20.99-11.68.49 2.43 2.5 13.64-4.43 24.48-5.33 8.33-12.93 11.74-15.73 12.84 5.04-.95 13.23-1.78 22.76.57 4.87 1.2 8.91 2.94 12.03 4.59-2.86 2.26-8.94 6.45-17.78 8a39.68 39.68 0 0 1-16.85-.71c1.87.51 4.6 1.51 7.4 3.55 4.23 3.08 6.34 6.88 7.27 8.88-2.66-.26-6.43-.95-10.39-2.96-7.25-3.67-11.57-9.91-12.19-9.41-.49.4 2.91 3.72 2.91 8.41 0 2.91-1.31 5.37-2.66 7.18a39.021 39.021 0 0 1-4.97-8.01 38.566 38.566 0 0 1-2.84-8.73c-1.63.49-5.11 1.3-9.35.38-4.72-1.02-7.76-3.6-8.99-4.78 1.08-.91 3.75-2.93 7.74-3.44 2.83-.36 5.12.19 6.41.61a56.465 56.465 0 0 1-9.28-8.63c-2.89-3.37-5-6.64-6.51-9.39 2.67.6 6.7 1.86 10.83 4.75a29.97 29.97 0 0 1 5.55 5.01c-1.98-2.84-5.61-8.87-6.51-17.36-.7-6.63.55-12 1.54-15.12 2.93 2.48 6.76 6.39 9.51 12.07 4.53 9.34 3.48 18.01 5.13 18.15Z" class="cls-1"/><path d="M1118.41 986.1c-.97-.11-1.89.43-2.26.95-.1.14-.05.07-.01-.04.22-.65.82-3.03.99-3.76 1.51-5.95 3.91-11.83 8.25-16.49 2.92-3.1 6.44-5.53 10.2-7.17 3.75-1.67 7.67-2.67 11.59-3.21 1.04-.17 2.02.5 2.27 1.5 3.04 12.15-.68 25.76-9.96 34.36a37.405 37.405 0 0 1-10.63 7.08l-2.2-7.65c12.5-1.73 25.71.85 36.43 7.4 1.16.65 1.31 2.35.29 3.19-2.44 2.09-5.16 3.84-8.04 5.3-8.72 4.34-18.98 5.31-28.4 2.83l1.25-4.68c3.52.98 6.83 2.75 9.54 5.2 2.69 2.41 4.8 5.47 6.09 8.83.38.94-.08 2.01-1.03 2.38-4.01.33-8.16-.97-11.88-2.63-4.76-2.22-8.49-5.83-12.12-9.38 0 0-.03-.03.01 0l.05.03s.12.06.18.08c1.21.48 2.78-.51 2.81-1.87.01-.26 0-.43-.07-.65-.04-.12-.04-.09-.01-.04 3.62 5.53 3.99 11.87-.71 16.88-.58.69-1.66.71-2.27.05-4.37-4.76-7.63-10.67-9.33-17.11l3.41 2.05c-7.19 1.78-15.14-.59-20.05-5.99a1.41 1.41 0 0 1 .02-1.97c3.96-4.16 10.25-5.97 15.94-4.57.02 0-2.58 5.03-2.58 5.04-6.6-5.29-11.99-11.98-15.7-19.42-.73-1.33.54-3.02 2.01-2.7 6.84 1.16 13.32 4.6 18.12 9.69.03 0-4.49 3.5-4.49 3.5-1.66-2.56-3.04-5.3-4.07-8.14-3.14-8.44-3.17-18.05-.16-26.46.3-.89 1.28-1.37 2.17-1.06 5.21 3.45 9.34 8.61 12.05 14.28 1.98 4.14 2.99 8.67 3.74 13.11.17.89.29 1.88.55 2.61-.18-.58-1.16-1.3-2.01-1.33Zm-.53 6.22c-2.32-.15-3.46-2.53-3.65-4.37-.33-2.21-.47-4.31-.83-6.43-.86-5.37-2.61-10.47-5.71-14.96-1.5-2.27-3.31-4.34-5.28-6.29l2.68-.77c-2.95 10.36-.79 21.81 5.71 30.34 2.23 3.03-2.13 6.39-4.5 3.5-3.56-4.67-8.74-8.18-14.61-9.83 0 0 2.02-2.72 2.02-2.69a53.78 53.78 0 0 0 15.88 16.59c1.41.83 1.85 2.68.93 4.04a2.83 2.83 0 0 1-3.53 1c-3.91-1.87-8.73-1.38-12.38 1.14 0 0 .05-2.02.06-2.01 4.59 3.84 11.16 4.98 16.63 2.8 1.5-.61 3.24.45 3.41 2.05.71 5.76 2.86 11.43 6.29 16.36l-2.26.04c1.62-2.74 2.38-5.72 1.31-8.7-.54-1.63-1.42-2.87-2.31-4.42-.22-.4-.47-1.09-.41-1.64.05-1.63 1.9-2.7 3.32-2.07.87.34 1.6 1.14 2.19 1.69 3 2.99 6.34 6 10.02 7.92 2.93 1.57 6.16 2.59 9.53 3.12l-1.77 2.5c-2.23-3.92-5.53-7.24-9.57-9.26-1.32-.67-2.71-1.21-4.14-1.58a2.426 2.426 0 0 1-1.73-2.96c.34-1.3 1.68-2.08 2.98-1.72 2.78.74 5.64 1.15 8.51 1.23 8.69.25 17.28-2.52 24.32-7.68 0 0 .3 3.19.29 3.19-10.39-4.76-22.17-5.74-33.16-2.92-4.94 1.11-7-5.84-2.3-7.62 6.53-2.17 12.33-6.69 15.91-12.64 3.67-6.06 4.98-13.57 3.93-20.61l2.27 1.5c-13.9 3.82-21.26 10.63-24.59 24.76-.89 2.8-1.46 7.64-5.47 7.41Z" class="cls-2"/><path d="M1073.29 980.38c1.56-1.7-9.19-10.04-12.52-22.98-2.78-10.77.46-21.3 4.53-29.56 2.77 1.37 15.32 7.94 20.7 23.03 4.13 11.59 1.69 21.67.63 25.27 2.91-5.68 8.34-14.37 17.92-21.96 4.9-3.88 9.69-6.52 13.7-8.33.05 4.54-.48 13.71-5.7 23.59-4.36 8.24-10.08 13.37-13.55 16.04a28.31 28.31 0 0 1 9.14-4.57c6.26-1.81 11.6-.98 14.28-.37-2.29 2.42-5.84 5.59-10.84 7.96-9.14 4.33-18.57 3.82-18.55 4.82.02.78 5.88-.03 10.49 3.55 2.86 2.22 4.28 5.38 5.04 8.09-3.06.05-7.09-.17-11.67-1.22a48.395 48.395 0 0 1-10.75-3.86 23.41 23.41 0 0 1-6.76 9.49c-4.61 3.87-9.46 4.89-11.56 5.2-.08-1.76-.02-5.93 2.52-10.23 1.8-3.06 4.1-4.89 5.49-5.84a70.129 70.129 0 0 1-15.56 2.55 70.15 70.15 0 0 1-14.2-.75c2.62-2.17 6.94-5.17 12.93-7.03 3.49-1.08 6.65-1.5 9.16-1.63-4.31-.22-13.01-1.25-22.04-6.84a46.074 46.074 0 0 1-13.69-13.05c4.67-.99 11.45-1.78 19.13-.15 12.65 2.67 20.36 10.31 21.76 8.8Z" class="cls-1"/><path d="M1070.42 977.74c-.73.66-1.07 2.2-.79 2.97.07.21.03.1-.05-.02-.16-.26-.47-.69-.79-1.11-5.58-6.84-10.65-14.4-12.08-23.44-1.71-10.4 1.41-20.85 6.58-29.64a2.238 2.238 0 0 1 3.06-.81c4.66 2.08 8.9 4.95 12.65 8.46 11.72 10.73 16.39 28.03 12.42 43.41l-9.25-3.69c4-6.86 9.11-13.08 15.11-18.24 5.97-5.13 12.77-9.19 19.97-11.95 1.22-.6 2.74-.09 3.23 1.21 1.46 16.39-6.61 33.11-19.64 43l-3.67-4.82c7.23-5.47 17.06-7.36 25.73-4.67 1.72.31 2.45 2.46 1.11 3.66-6 7.39-15.54 11.76-24.82 12.94-.99.16-3.91.5-4.78.68 1.88-.91 1.99-3.94-.21-4.79 2.26.32 4.82.7 7.01 1.68 2.43 1.01 4.72 2.76 6.23 4.93 1.55 2.16 2.42 4.6 2.83 6.98.24 1.1-.57 2.18-1.69 2.27-8.01.67-16.32-.62-23.95-3.86l4.63-1.8c-3.74 8.43-12.14 14.45-21.2 15.16-.98.09-1.84-.63-1.94-1.6-.46-3.39-.09-6.98 1.23-10.34 1.3-3.36 3.55-6.43 6.45-8.78l2.99 6.41c-10.25 2.46-20.94 2.65-31.09.62-1.85-.3-2.55-2.82-1.14-4.03 3.15-2.89 6.79-5.31 10.76-7.09 3.96-1.79 8.25-2.93 12.63-3.37v7.12c-11.26-.91-22.18-5.76-30.25-13.66a48.906 48.906 0 0 1-7.02-8.59c-.81-1.2-.12-2.93 1.29-3.24 3.59-1.03 7.35-1.59 11.15-1.76 7.61-.29 15.4 1.58 22.23 4.86 2.7 1.19 5.31 2.9 7.93 3.98-.71-.27-2.18.15-2.85.97Zm5.74 5.28c-1.95 2.18-5.12 1.49-7.11.26-2.43-1.36-4.6-2.8-6.96-4.07-5.91-3.28-12.27-5.44-19.04-5.82-3.37-.26-6.79-.06-10.21.4l1.29-3.24c7.95 10.8 20.86 17.4 34.19 17.51 4.72.14 4.71 6.98 0 7.12-7.31-.07-14.71 2.35-20.81 6.87 0 0-1.12-4.06-1.11-4.05 9.64 1.08 19.4.03 28.43-2.97 1.89-.76 4.06.22 4.7 2.17.55 1.67-.21 3.46-1.71 4.25-4.82 2.41-8.02 7.53-8.33 13.04 0 0-1.95-1.6-1.94-1.6 7.28-1.58 13.41-7.18 15.44-14.22.55-1.95 2.92-2.86 4.63-1.8 6.2 3.69 13.43 5.91 20.89 6.29l-1.69 2.27c-1.48-3.67-3.8-6.7-7.55-7.92-1.34-.47-2.82-.71-4.28-.88-1.09-.14-2.74-.15-3.75-1.06-1.61-1.33-1.24-3.97.52-4.91 1.06-.6 2.28-.68 3.29-.84 9.72-1.06 18.65-3.86 25.77-10.8l1.11 3.66c-5.56-.8-11.34-.09-16.4 2.35-1.66.79-3.25 1.74-4.71 2.87a3.029 3.029 0 0 1-4.25-.56c-1.03-1.33-.76-3.26.58-4.27 2.83-2.18 5.41-4.69 7.68-7.45 4.56-5.53 7.86-12.07 9.55-19.04.89-3.49 1.34-7.09 1.47-10.71l3.38 2.15c-12.83 6.66-22.68 17.76-28.42 30.85-3.15 5.11-10.83 1.48-8.97-4.15 2.81-8.04 2.77-17.14-.34-25.16-3.16-8.23-9.55-15.25-17.26-19.58l3.22-1.09c-5.37 12.73-6.44 25.79 1.69 37.53 1.84 2.9 4 5.58 6.07 8.47 1.66 2.15 3.34 5.57.96 8.11Z" class="cls-2"/><path d="M1142.04 1093.82c2.21.65 4.93-12.68 15.05-21.41 8.42-7.26 19.3-9.03 28.5-9.04 0 3.09-.33 17.26-11.48 28.76-8.56 8.84-18.68 11.12-22.37 11.77 6.38.09 16.58 1.1 27.62 6.33a64.943 64.943 0 0 1 13.54 8.59c-4.05 2.05-12.51 5.65-23.67 5.35-9.32-.25-16.45-3.11-20.38-5.04 2.15 1.08 5.24 2.98 8.15 6.17 4.4 4.81 6.02 9.97 6.66 12.64-3.18-.98-7.6-2.76-11.94-6.19-7.94-6.28-11.66-14.95-12.54-14.5-.7.36 2.63 5.26 1.47 10.97-.72 3.55-2.93 6.22-5.02 8.1a48.293 48.293 0 0 1-4.08-11 47.943 47.943 0 0 1-1.3-11.35c-2.11.19-6.55.31-11.5-1.86a23.414 23.414 0 0 1-9.78-8.06c1.54-.85 5.3-2.65 10.29-2.28 3.54.26 6.2 1.5 7.67 2.34a70.392 70.392 0 0 1-9.18-12.82 69.822 69.822 0 0 1-5.62-13.07c3.11 1.39 7.71 3.93 12.03 8.48 2.52 2.65 4.29 5.3 5.52 7.49-1.72-3.96-4.65-12.22-3.64-22.79.79-8.26 3.65-14.5 5.63-18.06 2.96 3.75 6.66 9.48 8.61 17.08 3.21 12.52-.22 22.83 1.76 23.41Z" class="cls-1"/><path d="M1143.14 1090.07c-.92-.36-2.45.02-3.01.61-.16.15-.08.08 0-.05.46-.72 1.73-3.5 2.14-4.34 3.32-6.89 7.7-13.47 14.16-18.07 8.52-6.11 19.21-7.96 29.33-7.25 1.27.08 2.24 1.14 2.24 2.39.2 5.1-.49 10.17-1.98 15.09a43.783 43.783 0 0 1-7.04 13.8c-6.43 8.43-15.97 14.31-26.37 16.57l-.79-9.92c3.98.28 7.93.86 11.79 1.78 11.53 2.68 22.46 8.48 31.03 16.48 1.22 1.07.85 3.18-.65 3.79-7.02 3.89-15.02 5.97-23.05 6.14-8.08.19-16.17-1.68-23.42-5.24l2.7-5.42c8.11 4.06 14.16 12.03 15.59 20.99.49 1.68-1.12 3.29-2.79 2.62-4.59-1.14-9.05-3.2-12.91-6.12-4.82-3.62-8.4-8.34-11.59-13.22-.3-.45-.7-1.01-.87-1.22 1.01.92 2.96.7 3.77-.53.38-.41.57-1.46.47-1.72 1.73 4.63 2.54 10.27-.05 14.8-1.25 2.34-3.05 4.2-5.01 5.63-.83.65-2.04.5-2.68-.35-4.24-6.91-6.77-15-7.26-23.34 0 0 3.67 3.36 3.66 3.36-9.22.38-18.33-4.48-22.98-12.29-.52-.83-.25-1.93.57-2.45 5.86-4.06 13.96-4.7 20.54-1.59l-4.42 5.52c-6.74-8.1-11.65-17.6-14.34-27.6-.55-1.8 1.4-3.54 3.11-2.81 3.99 1.55 7.77 3.73 11.13 6.51 3.36 2.76 6.29 6.1 8.62 9.83l-6.38 3.16c-5.62-13.96-4.41-30.43 3.43-43.28.71-1.26 2.57-1.41 3.48-.28 2.51 2.76 4.68 5.88 6.52 9.21 3.63 6.69 5.41 14.5 5.49 22.08.13 2.95-.25 6.05-.06 8.87-.08-.76-1.1-1.89-2.13-2.13Zm-2.19 7.49c-4.04-1.25-3.5-5.98-3.19-9.12.49-5.11.67-10.19-.12-15.21-1.02-6.68-3.8-12.98-7.62-18.61l3.48-.28c-6.16 11.91-6.36 26.41-.55 38.41 1.96 4.29-4.17 7.3-6.38 3.16-3.18-6.58-8.63-12.15-15.38-15.61 0 0 3.14-2.81 3.14-2.79 3.3 9.12 8.57 17.41 15.26 24.17 3.28 3.06-.79 8.06-4.43 5.52-4.3-3.25-10.3-3.85-15.38-1.69 0 0 .57-2.45.57-2.44 4.65 5.82 12.38 8.83 19.59 7.54 1.97-.37 3.82 1.31 3.67 3.3-.57 7.22.64 14.69 3.61 21.57l-2.78-.51c3.42-3.63 4.83-8.36 3.13-13.06-.44-1.84-1.99-3.96-.92-5.97 1.26-2.23 4.11-1.87 5.43 0 .88 1.16 2.21 3.14 3.01 4.31 4.82 7.12 11.1 12.66 19.23 15.57l-2.79 2.62c-1.18-3.58-2.99-6.94-5.4-9.81-2.39-2.82-5.32-5.16-8.63-6.8-3.55-1.86-.95-7.11 2.67-5.44 12.93 6.43 28.61 6.39 41.66.3 0 0-.44 3.98-.43 3.98-11.65-8.55-25.97-12.46-40.26-11.81-5.98-.56-6.13-9.05-.25-9.89 8.45-1.04 16.59-5.11 22.41-11.45 5.97-6.48 9.44-15.31 9.91-24.15l2.4 2.4c-13.83.85-25.94 5.63-32.9 18.15-1.78 2.94-3.23 6.06-4.9 9.19-1.19 2.44-3.51 5.46-6.85 4.45Z" class="cls-2"/><path d="M1011.06 1066.93c-.11-2.3-13.6-.52-25.15-7.24-9.62-5.59-14.83-15.29-17.85-23.99 2.92-1.01 16.42-5.32 30.93 1.46 11.15 5.21 16.61 14.02 18.43 17.31-2-6.06-4.37-16.03-3.03-28.18.68-6.21 2.17-11.47 3.7-15.6 3.26 3.16 9.42 9.98 12.78 20.63 2.8 8.89 2.43 16.57 1.89 20.91a28.32 28.32 0 0 1 3.17-9.72c3.11-5.73 7.45-8.95 9.77-10.42.11 3.33-.12 8.08-1.95 13.31-3.34 9.55-10.33 15.9-9.61 16.58.57.54 4.11-4.2 9.89-4.97 3.59-.48 6.83.73 9.29 2.1-2.11 2.22-5.1 4.93-9.06 7.44a48.613 48.613 0 0 1-10.3 4.94c.87 1.93 2.44 6.09 2 11.48-.48 6-3.17 10.16-4.42 11.88-1.3-1.18-4.24-4.15-5.52-8.98-.91-3.43-.6-6.35-.3-8.02-2.04 3.7-4.97 8.23-9.12 12.86a69.982 69.982 0 0 1-10.52 9.58c.3-3.39 1.2-8.57 4.08-14.14 1.68-3.25 3.6-5.78 5.28-7.67-3.18 2.91-10.03 8.38-20.35 10.88a46.312 46.312 0 0 1-18.91.58c2.58-4.02 6.78-9.39 13.33-13.72 10.79-7.12 21.65-7.24 21.55-9.3Z" class="cls-1"/><path d="M1007.17 1067.11c-.04.98.81 2.31 1.56 2.64.19.1.1.05-.04.02-.3-.07-.82-.15-1.34-.22-8.79-.83-17.73-2.54-25.17-7.87-8.75-6.2-14.01-15.97-16.6-26.01-.32-1.1.56-2.26 1.71-2.24 4.75-1.85 9.77-2.85 14.91-3.06 15.87-.8 31.46 8.04 39.61 21.67l-9.12 3.99c-2.08-7.67-2.9-15.67-2.36-23.57.54-7.86 2.43-15.54 5.53-22.61.43-1.29 1.86-2.01 3.13-1.45 12.69 10.48 18.91 27.96 16.79 44.19l-6.01-.78c1.19-8.99 6.75-17.31 14.75-21.59 1.43-1.01 3.47-.01 3.38 1.78 1.04 9.46-2.55 19.32-8.23 26.75-.6.83-2.47 3.24-2.91 3.94.85-2.19-1.67-4.23-3.52-3.27 1.82-1.38 3.89-2.94 6.12-3.81 2.42-1.02 5.28-1.42 7.89-.97 2.62.41 4.97 1.51 6.95 2.9.95.6 1.15 1.94.43 2.8-5.15 6.17-11.91 11.17-19.58 14.33l1.98-4.56c3.37 8.58 1.75 18.79-4.11 25.73-.62.76-1.74.87-2.5.26-5.75-4.22-8.99-11.66-8.21-18.9l6.67 2.38c-5.45 9.02-12.83 16.76-21.41 22.56-1.52 1.11-3.8-.17-3.67-2.02.16-4.27.99-8.56 2.52-12.64 1.51-4.08 3.71-7.93 6.48-11.36l5.07 5c-5.75 4.93-12.59 8.53-19.9 10.41a48.534 48.534 0 0 1-22.13.48c-1.42-.26-2.17-1.97-1.4-3.2 1.79-3.28 4.03-6.35 6.58-9.17 2.59-2.79 5.56-5.27 8.79-7.37 5.66-3.85 12.4-5.66 18.69-7.88-.69.32-1.43 1.66-1.31 2.71Zm7.79-.37c.19 2.92-2.54 4.69-4.81 5.24-2.68.78-5.23 1.31-7.79 2.09-6.49 1.9-12.49 4.91-17.52 9.46-2.55 2.22-4.81 4.79-6.89 7.54l-1.4-3.2c13.27 1.93 27.04-2.61 36.49-12.02 3.39-3.26 8.27 1.58 5.07 5-5.18 5.15-8.66 12.12-9.73 19.63 0 0-3.68-2.05-3.66-2.06a66.975 66.975 0 0 0 17.86-22.31c.79-1.88 3.01-2.74 4.85-1.82 1.58.78 2.32 2.58 1.82 4.2-1.67 5.12-.27 10.99 3.42 15.09l-2.5.26c3.99-6.29 4.31-14.58.73-20.98-1-1.76.02-4.09 1.98-4.56 6.99-1.82 13.64-5.4 19.15-10.44l.43 2.8c-3.65-1.53-7.44-2-10.94-.19-1.28.62-2.49 1.51-3.64 2.43-.87.68-2.03 1.84-3.39 1.92-2.45.21-3.95-2.45-2.89-4.49.84-1.62 2.44-3.49 3.46-4.93 5.15-6.88 8.34-14.62 8.44-23.26l3.38 1.78c-3 2.29-5.59 5.09-7.51 8.31-1.89 3.18-3.14 6.71-3.61 10.38-.6 3.96-6.4 3.22-6.01-.75 1.86-14.32-3.3-29.13-13.32-39.48l3.91-.89c-4.28 13.81-3.3 28.61 1.98 41.9 1.42 5.83-6.55 8.75-9.26 3.47-3.75-7.65-10.25-14.01-18.14-17.44-8.07-3.53-17.56-3.92-26.06-1.48l1.48-3.06c5.31 12.79 13.79 22.68 27.89 25.17 3.36.72 6.78 1.08 10.29 1.63 2.7.33 6.31 1.54 6.45 5.02Z" class="cls-2"/><path d="M1052.77 1027.64c.2-1.83-10.63-2.1-18.88-8.82-6.87-5.59-9.77-13.87-11.06-21.08 2.42-.43 13.58-2.15 24.15 4.99 8.12 5.48 11.32 13.09 12.35 15.9-.82-5.01-1.45-13.15 1.11-22.54 1.31-4.8 3.13-8.76 4.84-11.81 2.17 2.89 6.17 9.02 7.49 17.82 1.1 7.34-.15 13.33-1.11 16.68.55-1.84 1.61-4.52 3.7-7.25 3.16-4.12 6.97-6.11 8.98-6.99-.32 2.63-1.1 6.34-3.19 10.23-3.82 7.1-10.1 11.22-9.62 11.85.38.49 3.76-2.79 8.4-2.68 2.88.07 5.28 1.43 7.05 2.81a38.666 38.666 0 0 1-8.05 4.73c-3.33 1.44-6.36 2.2-8.72 2.6.45 1.63 1.16 5.09.15 9.28-1.13 4.66-3.76 7.6-4.95 8.79-.88-1.09-2.82-3.79-3.22-7.75-.29-2.81.31-5.07.76-6.34a55.679 55.679 0 0 1-18.23 15.21c.65-2.63 2.01-6.59 4.97-10.61a29.68 29.68 0 0 1 5.1-5.37c-2.87 1.9-8.93 5.35-17.36 6.03-6.58.54-11.87-.84-14.94-1.9 2.53-2.84 6.5-6.55 12.19-9.13 9.37-4.26 17.93-3.01 18.11-4.64Z" class="cls-1"/><path d="M1049.67 1027.3c-.13.97.38 1.9.9 2.29.14.1.07.05-.03.01-.63-.23-2.98-.89-3.7-1.07-5.87-1.64-11.64-4.16-16.14-8.59-3-2.97-5.33-6.52-6.86-10.29-1.57-3.76-2.46-7.68-2.89-11.57-.14-1.04.55-2.01 1.55-2.23 12.12-2.72 25.53 1.29 33.83 10.7 2.83 3.14 5.12 6.75 6.76 10.71l-7.71 2.02c-1.4-12.43 1.48-25.46 8.24-35.93.67-1.14 2.38-1.26 3.2-.22 2.02 2.46 3.68 5.21 5.06 8.09 4.09 8.75 4.8 18.95 2.12 28.22l-4.65-1.37c1.06-3.47 2.9-6.71 5.39-9.33 2.46-2.61 5.54-4.63 8.9-5.82.95-.35 2.01.13 2.35 1.09.24 3.98-1.15 8.07-2.89 11.72-2.28 4.63-6.09 8.4-9.58 11.77.13-.24.13-.21.22-.62.3-1.54-1.35-2.84-2.61-2.39 5.58-3.45 11.87-3.67 16.73 1.12.68.6.67 1.68 0 2.27-4.82 4.22-10.75 7.31-17.18 8.84l2.13-3.36c1.59 7.17-.96 15-6.44 19.74-.57.51-1.44.48-1.97-.06-4.03-4.03-5.68-10.31-4.15-15.93l4.97 2.71c-5.41 6.42-12.17 11.59-19.64 15.08-1.35.7-3.01-.62-2.65-2.08 1.31-6.76 4.88-13.1 10.04-17.74 0-.03 3.39 4.58 3.39 4.58a39.62 39.62 0 0 1-8.18 3.84c-8.45 2.9-17.98 2.7-26.24-.49a1.703 1.703 0 0 1-1.01-2.2c3.54-5.09 8.76-9.06 14.44-11.61 4.15-1.87 8.66-2.76 13.09-3.39.88-.14 1.87-.25 2.59-.48-.59.16-1.34 1.13-1.38 1.98Zm6.2.68c-.2 2.31-2.6 3.4-4.45 3.53-2.2.27-4.28.36-6.39.66-5.34.72-10.43 2.33-14.95 5.28-2.28 1.43-4.38 3.17-6.36 5.07 0 0-.73-2.72-.7-2.7 10.19 3.16 21.58 1.3 30.17-4.93 3.09-2.16 6.34 2.28 3.38 4.58-4.72 3.41-8.32 8.45-10.09 14.23 0 0-2.67-2.08-2.64-2.09a53.36 53.36 0 0 0 16.81-15.33c.86-1.39 2.72-1.79 4.06-.84 1.15.81 1.51 2.33.91 3.55-1.95 3.82-1.58 8.6.81 12.28 0 0-2.02-.1-2-.11 3.91-4.45 5.19-10.93 3.17-16.4-.57-1.52.52-3.23 2.13-3.36 5.72-.56 11.4-2.55 16.36-5.83v2.26c-2.68-1.66-5.61-2.49-8.59-1.51-1.63.49-2.88 1.34-4.44 2.18-.4.21-1.1.44-1.65.37-1.63-.09-2.65-1.96-1.99-3.37.35-.85 1.17-1.57 1.73-2.13 5.66-5.16 10.19-11.4 11.41-19.09l2.45 1.83c-3.94 2.12-7.3 5.3-9.39 9.25-.69 1.29-1.26 2.65-1.67 4.06a2.42 2.42 0 0 1-3 1.66 2.412 2.412 0 0 1-1.65-3.02c.8-2.73 1.27-5.56 1.43-8.4.46-8.6-2.07-17.18-7.01-24.28 0 0 3.2-.22 3.2-.21-4.96 10.18-6.21 21.82-3.68 32.77 1 4.97-6.01 6.86-7.68 2.11-1.98-6.52-6.31-12.37-12.12-16.06-5.91-3.78-13.32-5.27-20.31-4.4l1.55-2.23c3.43 13.83 10.05 21.33 23.92 24.95 2.76.95 7.55 1.64 7.23 5.63Z" class="cls-2"/></svg>