<?xml version="1.0" encoding="UTF-8"?>
<svg id="_очки_1" data-name="очки 1" xmlns="http://www.w3.org/2000/svg" viewBox="0 0 1170 2532">
  <defs>
    <style>
      .cls-1 {
        stroke-width: 6px;
      }

      .cls-1, .cls-2 {
        fill: none;
        stroke: #a0a0a0;
        stroke-linecap: round;
        stroke-linejoin: round;
      }

      .cls-3 {
        opacity: .9;
      }

      .cls-3, .cls-4, .cls-5, .cls-6 {
        stroke-width: 0px;
      }

      .cls-4 {
        fill: #c8c8c8;
      }

      .cls-5 {
        fill: #fff;
        opacity: .21;
      }

      .cls-6 {
        opacity: .1;
      }

      .cls-2 {
        stroke-width: 8px;
      }
    </style>
  </defs>
  <path class="cls-4" d="m371.57,1077.75c-1.38,3.57-50.83-4.32-92.01-40.99-1.8-1.6-3.59-3.26-5.35-4.97-6.15-5.98-10.87-11.49-14.16-15.6-.61-1.12-4.19-7.83-1.58-11.76,2.02-3.05,6.79-2.94,10-2.67,18.46,1.5,38.38,12.24,54.43,16.65,8.55,2.35,16.77,3.11,23.76,3.28,12.22.31,20.74-1.14,21,1.05.35,2.96-15.24,5.4-17.82,16.11-.56,2.35-.34,4.41-.15,5.5,1.2,5.86,3.48,12.72,7.94,19.31,6.99,10.28,14.49,12.68,13.93,14.09Z"/>
  <path class="cls-6" d="m360.26,1028.05c-2.5,7.8-12.6,9.77-13.97,10.02-6.65-5.69-12.43-7.38-16.46-7.87-11.68-1.43-17.95,6.69-33.56,7.5-7.15.37-13.02-.33-16.71-.94-1.8-1.6-3.59-3.26-5.35-4.97-6.15-5.98-10.87-11.49-14.16-15.6-.61-1.12-4.19-7.83-1.58-11.76,2.02-3.05,6.79-2.94,10-2.67,20.05,1.66,33.95,13.01,54.43,16.65,19,3.38,35.64-1.34,37.74,5.15.53,1.64-.05,3.43-.39,4.5Z"/>
  <path class="cls-4" d="m509.33,1016.02c3.6,2.54,9.32,5.67,15.42,4.36,8.51-1.82,12.18-11.1,13.85-10.15,2.25,1.29.32,20.98-10.14,23.42-7.29,1.71-17.31-5.29-19.13-17.64Z"/>
  <path class="cls-3" d="m513.92,1022.43c-3.7-3.8-9.08-7.21-28.44-9.96-26.51-3.76-49.84-2.11-73.44,1.71-31.03,5.03-58.59,9.8-62.19,24.66-1.23,5.14.38,11.44.64,12.39.99,3.71,2.63,6.89,4.61,9.63,3.2,4.44,7.3,7.74,10.94,10.36,25.41,18.19,60.41,26.69,60.41,26.69,0,0,27.62,6.7,68.06,3.5,2.69-.21,8.04-.74,13.22-4.41,3.8-2.69,7.68-7.17,10.81-16.42.33-.95,1.18-3.58,2.11-7.26,3.09-12.41,6.89-36.93-6.72-50.89Z"/>
  <path class="cls-5" d="m406.93,1031.39c-10.76,4.41-12.99,8.67-13.26,11.53-1.26,12.89,33.8,29.28,63.22,34.21,19.62,3.29,35.95,1.36,45.63-.42-.59,1.99-1.79,4.96-4.33,7.47-4.24,4.19-9.73,4.58-13.22,4.78-21.99,1.21-29.23-.21-29.23-.21-36.42-7.18-54.98-11.02-72.21-23.03-7.06-4.92-19.62-13.84-18.39-21.13,2-11.85,39.41-13.13,41.79-13.19Z"/>
  <path class="cls-3" d="m543.97,1069.22c3.74,8.48,7.41,12.14,10.77,14.04,4.59,2.6,8.87,2.07,11.01,1.76,32.28-4.71,53.09-16.66,53.09-16.66,0,0,26.38-15.15,43.88-37.97,4.06-5.29,8.79-12.58,9.48-22.66.07-.98.47-7.48-1.21-12.29-4.89-13.92-27.23-13.25-52.36-12.16-19.11.82-37.71,3.74-58.05,12.58-14.86,6.46-18.63,10.85-21.02,15.31-11.4,21.23,2.72,54.22,4.41,58.05Z"/>
  <path class="cls-5" d="m620.48,1056.8c-6.31,4.55-12.2,7.83-17.58,10.28-9.56,4.35-17.26,6.18-19.6,6.69-11.56,2.54-19.89,4.36-26.78-.17-3.93-2.59-5.87-6.26-7.84-9.98-3.48-6.57-4.05-12.49-4.51-17.82-.75-8.59-1.2-13.91.95-19.17,6.32-15.47,30.34-18.69,30.71-17.84.23.54-9.13,2.5-14.27,11.21-3.34,5.65-3.36,11.5-3.3,14.6.17,9.3,4.07,16.79,5.93,19.17,8.42,10.76,41.95,2.71,81.05-21.15-8.98,11.72-18.16,19.42-24.76,24.19Z"/>
  <path class="cls-4" d="m513.92,1022.43c-3.71-3.8-9.09-7.21-28.45-9.96-26.5-3.76-49.83-2.12-73.44,1.71-31.04,5.03-58.59,9.79-62.18,24.67-1.24,5.14.38,11.43.63,12.38,2.59,9.75,9.66,15.77,15.55,19.99,25.41,18.19,60.42,26.69,60.42,26.69s27.61,6.71,68.06,3.5c2.69-.21,8.03-.73,13.22-4.4,3.8-2.69,7.68-7.18,10.8-16.42,1.41-4.18,13.06-40.04-4.6-58.15Zm-6.77,35.57c-.09,8.26-.14,12.39-1.77,15.99-6.08,13.39-28.34,14.47-38.6,14.97-10.83.52-23.57-.61-42.49-6.81-4.6-1.51-60.9-20.28-58.93-35.68.54-4.2,5.59-9.64,27.3-14.05,21.4-4.14,39.4-5.85,52.44-6.61,51.83-3.05,58.13,6.84,59.58,9.69,2.65,5.2,2.57,13.26,2.46,22.52Z"/>
  <path class="cls-4" d="m542.44,1071.94c2.24,4.53,4.44,8.97,9.03,12.12,7.05,4.83,15.12,3.43,29.47.71,5.74-1.09,20.87-4.71,39.21-14.97,7.11-3.98,12.35-6.91,18.59-12.36,7.4-6.46,13.74-14.3,21.89-24.38,1.05-1.3,1.58-1.98,2.11-2.67,4.06-5.29,8.79-12.58,9.48-22.66.07-.98.47-7.48-1.21-12.29-4.89-13.92-27.23-13.25-52.36-12.16-19.11.82-37.71,3.74-58.05,12.58-11.64,5.06-16.47,8.85-19.17,12.4-.96,1.26-1.52,2.32-1.85,2.91-3.12,5.58-5.04,13.32-2.59,35.58,1.92,17.48,4.21,22.65,5.47,25.19Zm6.2-49.73c.1-.35.18-.66.29-.98,3.33-10.42,25.78-15.75,45.28-20.11,25.59-5.72,36.88-7.72,52.14-5.47,12.16,1.79,14.15,4.31,14.93,5.73,6.07,11.1-15.36,37.38-34.56,51.49-5.69,4.18-10.83,6.81-13.57,8.26-5.65,2.99-15.8,7.85-29.6,11.16-11.91,2.86-20.88,4.88-26.14,0-1.48-1.38-2.18-2.94-3.56-6.06-2.49-5.59-2.5-8.76-4.04-19.01-1.86-12.39-3.28-17.33-1.16-25.02Z"/>
  <path class="cls-2" d="m355.75,1032.22c-6.32,5.01-7.66,9.35-7.96,12.02-.74,6.7,3.97,13.01,9.9,18.63,25.61,24.26,72.54,35.27,72.54,35.27s41.61,9.77,73.69-.42c4.45-1.41,7.4-3.49,9.52-5.83,3.09-3.42,4.42-7.4,5.97-16.78,2.48-15.04,3.72-22.57,2.1-31.63-1.03-5.77-2.19-12.33-6.4-18.06-8.29-11.28-23.37-12.52-32.44-13.12-69.69-4.61-110.95,7.25-126.91,19.91Z"/>
  <path class="cls-1" d="m372.86,1038.34c-2.6,1.08-7.51,3.26-8.2,7.24-.83,4.78,4.82,9.82,9.84,13.59,22.87,17.17,54.9,24.49,69.37,27.43,0,0,24.64,5.01,44.72.59,5.03-1.11,10.67-3.03,14.75-8.13,1.01-1.26,1.79-2.6,1.79-2.6,1.6-2.85,2.07-5.54,2.3-7.42,2-16.48,3.37-27.73-2.77-35.14-4.27-5.15-10.39-6.38-14.2-6.96-35.77-5.48-89.92-.03-117.58,11.41Z"/>
  <path class="cls-2" d="m658.87,983.02c2.97,1.1,9.67,3.57,13.12,10.12,5.08,9.63.16,21.48-3.03,28.69-11.41,25.81-34.8,42.28-48.94,50.58-4.75,2.77-8.84,4.75-11.76,6.06-3.02,1.36-21.64,9.5-45.62,9.62-4.37.02-7.34-.23-10.51-1.78-7.05-3.45-9.93-10.76-12.01-16.28-.95-2.53-3.03-8.56-3.74-32.28-.31-10.35-.28-15.53.67-18.83,3.6-12.56,14.13-17.54,21.79-20.76,8.95-3.09,73.41-24.99,100.05-15.14Z"/>
  <path class="cls-1" d="m652.53,994.97c2.42.39,6.49,1.47,8.47,4.91.59,1.02,2.99,5.74-3.64,18.97-5.52,11-12.51,18.37-16.02,21.74-.17.16-.67.64-1.48,1.38-4.56,4.18-14.58,13.35-28.51,20.94-15.28,8.32-27.72,10.6-37.07,12.24-7.16,1.25-12.38,1.53-16.87-1.54-5.35-3.66-6.8-10.11-7.25-12.95-2.42-17.75-2.72-31.33-1.17-36.28.74-2.38,1.95-4.24,1.95-4.24,2.12-3.24,5.01-5.01,7.04-6.13,26.16-14.44,69.76-23.02,94.55-19.03Z"/>
  <path class="cls-1" d="m327.28,1020.18c-6.58,7.17-7.03,10.36-6.26,11.95,1.39,2.84,7.82,2.84,11.6,6.83.91.96,1.48,1.95,1.41,3.01-.09,1.29-1.1,2.18-1.44,2.49-3.74,3.3-11.58-.75-14.03,1.9-1.18,1.28-1.36,4.37,2.3,12.02"/>
  <path class="cls-2" d="m384.2,1018.85c-17.15,1.82-40.62,2.32-67.7-3.12-19.48-3.92-35.88-9.91-48.73-15.73-3.8-.62-7.52,1.18-9.3,4.43-2.15,3.95-1.08,9.37,2.77,12.39,22.33,25.2,43.67,38.07,58.51,45.05,9.98,4.7,20.55,8.27,41.7,15.37,20.86,7,38.29,12.21,50.41,15.68"/>
  <path class="cls-2" d="m501.38,1015.59c3.08,1.4,13.62,5.7,26.25,1.82,9.33-2.87,15.13-8.77,17.6-11.62"/>
  <path class="cls-2" d="m521.63,1042.73c.2-3.83,2.84-6.99,6.29-7.64,3.13-.59,6.34,1.01,7.99,4"/>
</svg>