<?xml version="1.0" encoding="UTF-8"?>
<svg id="_очки_2" data-name="очки 2" xmlns="http://www.w3.org/2000/svg" xmlns:xlink="http://www.w3.org/1999/xlink" viewBox="0 0 1170 2532">
  <defs>
    <style>
      .cls-1 {
        opacity: .4;
      }

      .cls-1, .cls-2 {
        fill: #fff;
      }

      .cls-1, .cls-2, .cls-3, .cls-4, .cls-5 {
        stroke-width: 0px;
      }

      .cls-6 {
        stroke: #282828;
      }

      .cls-6, .cls-7 {
        fill: none;
        stroke-linecap: round;
        stroke-linejoin: round;
        stroke-width: 8px;
      }

      .cls-2 {
        opacity: .6;
      }

      .cls-3 {
        fill: url(#_Безымянный_градиент_18);
        opacity: .94;
      }

      .cls-4 {
        fill: url(#_Безымянный_градиент_17);
        opacity: .83;
      }

      .cls-5 {
        fill: #1e1e1e;
      }

      .cls-7 {
        stroke: #1e1e1e;
      }
    </style>
    <linearGradient id="_Безымянный_градиент_17" data-name="Безымянный градиент 17" x1="457.22" y1="1028.11" x2="458.65" y2="1097.25" gradientUnits="userSpaceOnUse">
      <stop offset=".05" stop-color="#fff" stop-opacity="0"/>
      <stop offset=".15" stop-color="#fff" stop-opacity=".02"/>
      <stop offset=".27" stop-color="#fff" stop-opacity=".07"/>
      <stop offset=".4" stop-color="#fff" stop-opacity=".17"/>
      <stop offset=".53" stop-color="#fff" stop-opacity=".29"/>
      <stop offset=".66" stop-color="#fff" stop-opacity=".46"/>
      <stop offset=".8" stop-color="#fff" stop-opacity=".66"/>
      <stop offset=".94" stop-color="#fff" stop-opacity=".89"/>
      <stop offset="1" stop-color="#fff"/>
    </linearGradient>
    <linearGradient id="_Безымянный_градиент_18" data-name="Безымянный градиент 18" x1="599.15" y1="1012.09" x2="600.22" y2="1071.26" gradientUnits="userSpaceOnUse">
      <stop offset=".06" stop-color="#fff" stop-opacity="0"/>
      <stop offset=".15" stop-color="#fff" stop-opacity=".02"/>
      <stop offset=".26" stop-color="#fff" stop-opacity=".09"/>
      <stop offset=".4" stop-color="#fff" stop-opacity=".19"/>
      <stop offset=".54" stop-color="#fff" stop-opacity=".34"/>
      <stop offset=".69" stop-color="#fff" stop-opacity=".53"/>
      <stop offset=".85" stop-color="#fff" stop-opacity=".76"/>
      <stop offset="1" stop-color="#fff"/>
    </linearGradient>
  </defs>
  <path class="cls-7" d="m514.51,1042.48c4.18-1.27,9.21-2.47,14.97-3.21,5.18-.66,9.87-.81,13.9-.71"/>
  <path class="cls-5" d="m255.84,1025.73c42.75,3.83,96.96,16.19,130.87,30.57,0,0,14.26-.71,14.26-.71,2.21-.11,4.08,1.59,4.19,3.8.11,2.21-1.59,4.08-3.8,4.19l-14.26.71c-42.75-14.48-87.11-24.83-132.18-27.88-7.06-.75-6.31-11.09.9-10.68h0Z"/>
  <path class="cls-7" d="m652.81,1021.8c7.72-1.9,15.45-3.8,23.17-5.7"/>
  <path class="cls-1" d="m511.12,1075.05c0,.07-.03.15-.05.22-.22.92-.46,1.83-.71,2.73-.43.4-.87.79-1.31,1.19-.25.14-1.5.84-3.09,1.66-5.64,2.92-26.26,12.86-84.56,13.93-3.56.07-6.5.09-8.46.09h-.01c-.79-.45-2.01-1.27-3.15-2.6-1.03-1.21-1.59-2.37-1.95-3.22-3.22-7.57-5.56-26.21-6.33-31.91-.23-1.7-.72-5.19,1.28-7.89.91-1.24,2.06-1.92,2.85-2.32,3.77-1.89,13.86-4.51,26.42-7.06,1.73,1.07,3.07,2,3.93,2.61-2.75.34-6.9,1.09-11.64,2.97-5.97,2.36-10.23,4.05-12.24,8.08-1.04,2.09-.25,6.65,1.37,15.68,1.57,8.76,2.51,11.32,4.81,13.19,2.33,1.89,5.03,2.19,6.59,2.32,29.21,2.42,62.55-6.42,62.55-6.42,5.55-1.47,13.27-3.6,22.46-6.42.1.42.23.87.4,1.35.26.71.55,1.31.83,1.82Z"/>
  <path class="cls-2" d="m513.17,1064.17c-.23-.5-.79-1.57-1.47-1.57-.82,0-1.69,1.54-1.99,3.93.2-1.63.41-3.96.36-6.77-.09-4.64-.25-13.29-4.45-18-3.08-3.45-7.69-4.09-18.77-4.04-8.56.04-20.26.49-34.34,2.26.67-.82,1.49-1.72,2.51-2.63.9-.81,1.78-1.48,2.58-2.02,18.4-2.82,36.88-4.7,46.95-3.9,1.55.12,4.55.43,6.76,2.63,1.3,1.29,1.93,2.84,2.27,4.14.81,8.26.82,16.97-.4,25.97Z"/>
  <path class="cls-1" d="m650.36,1054c0,.07-.03.15-.05.22-.2.92-.43,1.83-.66,2.73-.4.4-.81.79-1.22,1.19-.23.14-1.4.84-2.88,1.66-5.25,2.92-24.44,12.87-78.69,13.94-3.31.07-6.05.09-7.87.09h0c-.74-.45-1.87-1.27-2.93-2.6-.96-1.21-1.48-2.37-1.81-3.22-3-7.58-5.17-26.23-5.89-31.94-.21-1.7-.67-5.19,1.19-7.9.85-1.24,1.92-1.92,2.65-2.32,3.51-1.89,12.9-4.51,24.59-7.07,1.61,1.07,2.86,2,3.66,2.61-2.65.37-6.5,1.16-10.83,2.97-5.58,2.33-9.62,4.03-11.6,7.94-1.84,3.63-.63,7.89,1.78,16.4,2.45,8.64,4.86,10.72,6.06,11.58,2.65,1.9,5.48,2.18,7.13,2.32,25.51,2.1,55.34-5.36,55.34-5.36h0c5.17-1.47,12.35-3.6,20.9-6.42.09.42.21.87.37,1.35.24.71.51,1.31.77,1.82Z"/>
  <path class="cls-2" d="m652.27,1043.11c-.39-.79-.91-1.64-1.37-1.57-1.04.16-1.02,4.86-1.3,4.85-.27,0-.38-4.73-.48-6.89-.3-6.61-.66-14.28-4.16-18.42-2.49-2.94-6.33-3.8-17.7-3.92-7.98-.09-18.69.21-31.46,1.73.62-.82,1.39-1.72,2.33-2.63.84-.81,1.66-1.48,2.4-2.02,17.12-2.82,34.32-4.7,43.69-3.9,1.44.12,4.23.43,6.29,2.63,1.21,1.29,1.8,2.84,2.11,4.14.75,8.27.76,16.98-.37,25.99Z"/>
  <path class="cls-4" d="m513.17,1064.17c-.48,3.59-1.15,7.22-2.05,10.88,0,.07-.03.15-.05.22-.22.92-.46,1.83-.71,2.73-.43.4-.87.79-1.31,1.19-.25.14-1.5.84-3.09,1.66-5.64,2.92-26.26,12.86-84.56,13.93-3.56.07-6.5.09-8.46.09h-.01c-.79-.45-2.01-1.27-3.15-2.6-1.03-1.21-1.59-2.37-1.95-3.22-3.22-7.57-5.56-26.21-6.33-31.91-.23-1.7-.72-5.19,1.28-7.89.91-1.24,2.06-1.92,2.85-2.32,3.77-1.89,13.86-4.51,26.42-7.06,7.86-1.6,16.69-3.18,25.54-4.54,18.4-2.82,36.88-4.7,46.95-3.9,1.55.12,4.55.43,6.76,2.63,1.3,1.29,1.93,2.84,2.27,4.14.81,8.26.82,16.97-.4,25.97Z"/>
  <path class="cls-3" d="m643.1,1012.53c1.53.13,4.57.45,6.75,2.68,1.2,1.23,1.69,2.57,1.96,3.39,3.88,11.68,1.01,31.85.42,34.93-.06.31-.14,1.21-.71,2.14-.53.86-1.27,1.42-1.9,1.78-29.97,9.89-58.39,14.51-84.95,15.45-.61.02-1.23.04-1.84.06-1.22,0-2.75-.23-3.98-1.25-.77-.64-1.15-1.36-1.31-1.66-4.04-7.86-10.87-21.21-12.18-35.73-.1-1.15-.25-3.23.83-5.33,1.67-3.25,5.24-4.51,6.86-5.05,25.57-8.48,74.13-12.72,90.06-11.41Z"/>
  <path class="cls-6" d="m405.62,1046.93c-.79.39-1.94,1.08-2.85,2.32-2,2.7-1.51,6.19-1.27,7.89.77,5.7,3.11,24.34,6.32,31.91.36.85.93,2.01,1.95,3.22,1.14,1.33,2.36,2.15,3.16,2.61,1.96,0,4.9-.02,8.47-.09,58.3-1.07,78.93-11.02,84.56-13.93,1.59-.82,2.84-1.52,3.09-1.66.44-.4.87-.79,1.31-1.19.25-.9.49-1.81.71-2.73,3.19-12.93,3.64-25.45,2.49-37.07-.33-1.3-.97-2.85-2.26-4.14-2.21-2.2-5.21-2.51-6.76-2.63-22.64-1.8-87.88,9.97-98.91,15.5Z"/>
  <path class="cls-6" d="m643.1,1012.53c1.53.13,4.57.45,6.75,2.68,1.2,1.23,1.69,2.57,1.96,3.39,3.88,11.68,1.01,31.85.42,34.93-.06.31-.14,1.21-.71,2.14-.53.86-1.27,1.42-1.9,1.78-29.97,9.89-58.39,14.51-84.95,15.45-.61.02-1.23.04-1.84.06-1.22,0-2.75-.23-3.98-1.25-.77-.64-1.15-1.36-1.31-1.66-4.04-7.86-10.87-21.21-12.18-35.73-.1-1.15-.25-3.23.83-5.33,1.67-3.25,5.24-4.51,6.86-5.05,25.57-8.48,74.13-12.72,90.06-11.41Z"/>
</svg>