<?xml version="1.0" encoding="UTF-8"?>
<svg id="_очски_3" data-name="очски 3" xmlns="http://www.w3.org/2000/svg" viewBox="0 0 1170 2532">
  <defs>
    <style>
      .cls-1 {
        fill: #ff7f2c;
      }

      .cls-1, .cls-2 {
        stroke-width: 0px;
      }

      .cls-3 {
        opacity: .64;
      }

      .cls-4 {
        stroke-width: 7px;
      }

      .cls-4, .cls-5 {
        fill: none;
        stroke: #ffd243;
        stroke-linecap: round;
        stroke-linejoin: round;
      }

      .cls-2 {
        fill: #ffe88d;
        opacity: .3;
      }

      .cls-5 {
        stroke-width: 8px;
      }
    </style>
  </defs>
  <g class="cls-3">
    <path class="cls-1" d="m519.52,1037.66c-1.21,13.83-8.12,29.15-19.14,42.1-13.72,16.11-33.81,28.55-57.2,29.9-31.06,1.79-64.08-16.2-71.24-38.78-1.05-3.33-6.04-19.08,2.05-30.96.47-.7,2.86-4.13,7.37-7.13,6.31-4.2,19.38-9.28,35.08-13.58,38.12-10.45,91.74-16.34,101.89,5.99,1.88,4.14,1.6,7.77,1.19,12.46Z"/>
    <path class="cls-1" d="m648.12,983.73c5.07,1.13,8.5,3.42,9.18,3.89,11.68,7.98,13.63,24.17,14.04,27.59,2.8,23.23-18.5,51.61-46.04,61.21-37.51,13.08-80.22-10.89-95-38.46-2.24-4.17-3.93-7.41-3.94-11.89-.13-34.2,97.39-47.76,121.76-42.33Z"/>
  </g>
  <path class="cls-2" d="m500.38,1079.76c-13.72,16.11-33.81,28.55-57.2,29.9-31.06,1.79-64.08-16.2-71.24-38.78-1.05-3.33-6.04-19.08,2.05-30.96.47-.7,2.86-4.13,7.37-7.13,6.31-4.2,19.38-9.28,35.08-13.58.83.83,1.69,1.69,2.55,2.59-15.88,2.91-28.07,12.79-31.01,25.31-3.35,14.33,6.76,26.49,9.63,29.94,17.7,21.28,53.1,23.33,78.06,13.54,9.83-3.85,17.06-9.15,21.74-13.18.97.74,1.97,1.53,2.97,2.35Z"/>
  <path class="cls-2" d="m662.2,1048.99c-6.1,6.97-26.65,28.63-57.2,29.9-45.03,1.88-82.09-41.78-77.53-55.9.52-1.61,3.15-7.69,8.34-13.84,0,0,2.93-4.17,7.37-7.13,6.31-4.2,19.38-9.28,35.08-13.58.83.83,1.69,1.69,2.55,2.59-4.58.9-12.52,3.09-20.36,9.05-4.35,3.31-14.6,11.1-15.64,22.44-1.11,12.16,9.01,21.68,14.26,26.61,18.43,17.34,49.83,25.25,76.63,14.02,11.11-4.65,18.82-11.5,23.52-16.51l2.97,2.35Z"/>
  <g>
    <path class="cls-5" d="m381.35,1032.79c-1.87,1.25-4.85,3.42-7.37,7.13-8.08,11.88-3.1,27.63-2.05,30.96,7.15,22.59,40.18,40.58,71.24,38.78,42.19-2.44,73.63-40.96,76.34-72,.19-2.15,1.23-7.24-1.2-12.45-3.24-6.95-10.43-9.95-14.86-11.72-10.02-4.01-19.04-3.51-21.86-3.33-45.44,3-80.05,9.09-100.25,22.63Z"/>
    <path class="cls-5" d="m648.12,983.73c5.07,1.13,8.5,3.42,9.18,3.89,11.68,7.98,13.63,24.17,14.04,27.59,2.8,23.23-18.5,51.61-46.04,61.21-37.51,13.08-80.22-10.89-95-38.46-2.24-4.17-3.93-7.41-3.94-11.89-.13-34.2,97.39-47.76,121.76-42.33Z"/>
  </g>
  <path class="cls-5" d="m367.93,1057.48c-4.28.45-8.56.89-12.84,1.34-32.5-8.31-64.99-16.62-97.49-24.92"/>
  <circle class="cls-4" cx="527.05" cy="1050.67" r="6.42"/>
  <path class="cls-5" d="m486.59,1009.68c10.27-2.2,20.96-4.28,32.08-6.18,11.54-1.97,22.72-3.62,33.5-4.99"/>
</svg>