<?xml version="1.0" encoding="UTF-8"?>
<svg xmlns="http://www.w3.org/2000/svg" viewBox="0 0 1170 2532">
  <defs>
    <style>
      .cls-1 {
        fill: #b520ff;
      }

      .cls-1, .cls-2, .cls-3, .cls-4, .cls-5, .cls-6 {
        stroke-width: 0px;
      }

      .cls-2 {
        fill: #e36aff;
      }

      .cls-3 {
        fill: #21b83a;
      }

      .cls-4 {
        fill: #3bce51;
      }

      .cls-7 {
        stroke: #7d00aa;
        stroke-miterlimit: 10;
      }

      .cls-7, .cls-8 {
        fill: none;
        stroke-width: 10px;
      }

      .cls-5 {
        opacity: .15;
      }

      .cls-8 {
        stroke: #007537;
        stroke-linecap: round;
        stroke-linejoin: round;
      }

      .cls-6 {
        opacity: .13;
      }
    </style>
  </defs>
  <g id="_рука_фил." data-name="рука фил.">
    <path class="cls-3" d="m410.15,1386.7c-.01.12-.03.23-.07.33-1.25,3.92-15.19.93-18.53,7.6-3.71,7.42,9.19,19.74,6.65,22.34-2.72,2.78-17.13-11.76-26.51-7.21-5.94,2.88-5.52,11.01-9.37,11.25-5.24.33-6.63-14.8-15.18-21.02-1.01-.73-2.12-1.34-3.35-1.79-8.17-2.96-13.84,4.15-19.25,1.42-4.6-2.31-8.41-11.45-2.38-43.96-12.6-21.04-25.23-36.26-34.63-46.4-.51-.55-1-1.08-1.49-1.6-23.49-24.95-42.02-35.05-46.8-50.85-.72-2.38-1.13-4.89-1.2-7.6-.23-9.86,4.08-21.28,12.84-27.57,7.83-5.62,17.18-5.68,23.77-4.78,3.18.43,5.72,1.09,7.12,1.46,12.25,3.19,28.1,12.37,55.6,63.21.05.1.11.2.16.3,10.31,19.08,23.31,45.99,35.01,80.01,29.81,14.56,38.04,21.52,37.61,24.86Z"/>
    <path class="cls-6" d="m351.15,1397.96c-1.34.68-2.67,1.35-4.01,2.03-.6-.42-1.76-1.18-3.35-1.79-8.45-3.27-15.51,3.3-19.25,1.42-4.6-2.31-8.41-11.45-2.38-43.96-12.6-21.04-25.23-36.26-34.63-46.4-.45-.48-.81-.88-1.49-1.6-33.72-36.13-41.37-39.87-44.91-52.75-1.21-4.41-4.24-15.35,1.78-24.24,7.39-10.92,22.99-10.75,25.07-10.69-8.96,5.22-11.82,10.65-12.83,14.5-4.85,18.39,23.13,35.77,52.28,72.71,14.75,18.69,24.39,35.53,29.94,46.1-1.13,2.08-6.21,11.97-2.85,24.24,3.7,13.52,14.8,19.48,16.63,20.43Z"/>
    <path class="cls-4" d="m410.15,1386.7c-15.23-6.38-30.46-12.77-45.69-19.15-11.09-24.4-22.18-48.8-33.27-73.19,0,0-7.43-15.99-23.28-40.4-7.19-11.05-12.71-17.41-20.68-23.29-6.45-4.75-12.56-7.59-16.87-9.26,1.45-1.67,2.88-3.18,4.29-4.55,3.18.43,5.72,1.09,7.12,1.46,12.25,3.19,28.1,12.37,55.6,63.21.05.1.11.2.16.3,10.31,19.08,23.31,45.99,35.01,80.01,29.81,14.56,38.04,21.52,37.61,24.86Z"/>
    <path class="cls-1" d="m337.53,1281.83c-3.55-.32-7.88-.37-12.66.35-5.14.76-10.78,2.41-16.49,5.52-4.21,2.31-7.72,5.01-10.63,7.81-5,4.79-8.23,9.88-10.22,13.75-.45-.48-.81-.88-1.49-1.6-27.03-28.71-47.49-37.75-48-58.45-.11-4.62.78-9.58,2.66-14.2.4-.99.84-1.96,1.34-2.91,2.11-4.08,5.06-7.75,8.84-10.46,7.83-5.62,17.18-5.68,23.77-4.78.04.01.09.01.13.02.28.03.56.08.84.12.07.01.13.02.19.03.26.04.51.08.76.13.28.05.56.1.83.15.52.1,1.01.2,1.47.3.3.07.59.13.87.2.17.04.34.08.5.12.2.05.39.1.57.14.36.09.68.18.96.25,12.25,3.19,28.1,12.37,55.6,63.21.05.1.11.2.16.3Z"/>
    <path class="cls-5" d="m297.75,1295.51c-5,4.79-8.23,9.88-10.22,13.75-.45-.48-.81-.88-1.49-1.6-33.72-36.13-41.37-39.87-44.91-52.75-1.02-3.71-3.32-12.05-.43-19.9.36-.98.8-1.95,1.34-2.91.27-.48.56-.96.88-1.43,7.39-10.92,22.99-10.74,25.06-10.69-8.96,5.22-11.81,10.65-12.83,14.5-4.31,16.33,17.29,31.87,42.6,61.03Z"/>
    <path class="cls-2" d="m337.53,1281.83c-3.55-.32-7.88-.37-12.66.35-3.82-6.97-9.44-16.65-16.96-28.22-7.19-11.05-12.71-17.41-20.68-23.29-6.45-4.75-12.56-7.59-16.87-9.26,1.45-1.67,2.88-3.18,4.29-4.55.04.01.09.01.13.02.28.03.56.08.84.12.07.01.13.02.19.03.26.04.51.08.76.13.28.05.56.1.83.15.52.1,1.01.2,1.47.3.3.07.59.13.87.2.17.04.34.08.5.12.2.05.39.1.57.14.36.09.68.18.96.25,12.25,3.19,28.1,12.37,55.6,63.21.05.1.11.2.16.3Z"/>
    <path class="cls-8" d="m238.04,1249.21c-.24-9.86,4.07-21.28,12.83-27.56,11.62-8.35,26.61-4.44,30.89-3.33,12.26,3.19,28.11,12.37,55.6,63.21,10.33,19.1,23.4,46.11,35.17,80.32,30.82,15.05,38.57,21.98,37.54,25.19-1.26,3.92-15.2.93-18.53,7.6-3.71,7.41,9.19,19.74,6.65,22.34-2.72,2.78-17.13-11.76-26.52-7.21-5.94,2.88-5.52,11.01-9.36,11.25-5.86.37-6.91-18.6-18.53-22.81-8.16-2.96-13.84,4.15-19.25,1.43-4.6-2.32-8.4-11.45-2.38-43.96-13.28-22.18-26.6-37.89-36.12-48-27.04-28.71-47.5-37.75-48-58.46Z"/>
    <path class="cls-7" d="m337.53,1281.83c-7.36-.67-18.14-.14-29.15,5.87-11.44,6.25-17.7,15.44-20.85,21.56-.51-.55-1-1.08-1.49-1.6-27.03-28.71-47.49-37.75-48-58.45-.23-9.86,4.08-21.28,12.84-27.57,11.62-8.34,26.6-4.44,30.89-3.32,12.25,3.19,28.1,12.37,55.6,63.21.05.1.11.2.16.3Z"/>
  </g>
  <g id="_рука_фил.2" data-name="рука фил.2">
    <path class="cls-3" d="m761.07,1304.88c-1.02,3.76-11.45,2.56-13.8,8.49-2.73,6.9,8.34,16.44,6.42,18.53-1.88,2.04-11.36-8.26-19.96-5.7-8.46,2.52-9.32,15.43-13.78,15.21-5.25-.27-4.8-18.74-13.61-25.01-.7-.49-1.45-.91-2.27-1.24-6.71-2.69-11.74,3.16-16.57.55-4.38-2.36-7.35-11.01-2.04-37.8-9.5-18.75-18.29-33.1-24.45-42.6-8.9-13.75-18.11-26.29-23.52-46.34-4-14.82-2.46-20.89.71-24.24.07-.08.15-.16.23-.23,5.36-5.33,15.21-3.63,16.88-3.33,5.36.93,10.18,3.41,15.03,8.01,8.33,7.86,16.75,21.93,28.2,44.97,8.52,17.15,19.3,40.45,30.24,69.07,14.13,6.54,22.49,11.29,27.16,14.77,4.4,3.27,5.53,5.42,5.13,6.89Z"/>
    <path class="cls-6" d="m707.35,1311.7c.12.15.88,1.12.65,2.47-.26,1.49-1.52,2.16-1.66,2.23-.39-.27-1.19-.78-2.27-1.24-7.16-3.07-13.45,2.23-16.57.55-4.38-2.36-7.35-11.01-2.04-37.8-6.31-10.06-15.02-24.57-24.45-42.6-16.48-31.51-32.49-62.11-23.88-70.4,2.44-2.35,7.76-3.77,20.67,1.25-6.8.45-9.67,2.77-11.05,4.63-8.24,11.15,15.23,36.64,43.01,92.2,3.8,7.6,6.74,13.87,8.55,17.82-.63,1-5.59,9.19-2.14,18.77,2.92,8.11,9.81,11.49,11.17,12.12Z"/>
    <path class="cls-4" d="m756.54,1304.34c-5.13-2.58-10.96-5.19-17.47-7.6-6.77-2.52-13.13-4.4-18.89-5.82-2.41-7.48-5.47-16.4-9.27-26.38,0,0-5.16-13.55-10.69-26.02-12.94-29.16-31.22-58.63-36.71-67.37,2.38-.85,4.66-1.5,6.83-1.97,8.33,7.86,16.75,21.93,28.2,44.97,8.52,17.15,19.3,40.45,30.24,69.07,14.13,6.54,22.49,11.29,27.16,14.77.2,2.12.4,4.23.6,6.35Z"/>
    <path class="cls-8" d="m761.07,1304.88c-1.02,3.76-11.45,2.56-13.8,8.49-2.73,6.9,8.34,16.44,6.42,18.53-1.88,2.04-11.36-8.26-19.96-5.7-8.46,2.52-9.32,15.43-13.78,15.21-5.66-.29-4.69-21.77-15.88-26.25-6.71-2.69-11.74,3.16-16.57.55-4.38-2.36-7.35-11.01-2.04-37.8-14.89-29.84-26.51-48.73-35.5-61.49-.13-.18-8.46-12.01-13.19-29.58-4.14-15.39-1.51-20.27.36-22.46,4.23-4.93,11.96-4.65,13.59-4.59,8.49.32,21.77,6.2,47.82,54.36,8.89,16.43,20.13,39.65,30.24,69.07,27.42,12.69,33.11,18.63,32.29,21.66Z"/>
    <path class="cls-1" d="m697.13,1211.57c-3.92-2.07-8.06-3.33-12.16-3.76-7.14-.78-14.17.91-19.68,5.04-.77.58-1.49,1.19-2.15,1.81-3.97,3.76-6.02,8.16-7.06,11.22-.36,1.08-.61,2-.77,2.66-14.42-18.02-17.89-34.1-18.89-42.78-.18-1.55-.41-3.57-.56-5.8-.34-5.15-.21-11.44,2.11-15.73.8-1.48,1.86-2.72,3.26-3.6,3.48-2.17,7.69-1.24,9.49-.84,5.38,1.2,10.98,5.06,16.37,10.2,14.42,13.75,27.29,36.61,30.04,41.58Z"/>
    <path class="cls-2" d="m697.13,1211.57c-3.92-2.07-8.06-3.33-12.16-3.76-9.22-17.03-17.95-31.08-21.46-36.66,1.22-.44,2.42-.82,3.58-1.16,14.42,13.75,27.29,36.61,30.04,41.58Z"/>
    <path class="cls-5" d="m663.14,1214.66c-3.97,3.76-6.02,8.16-7.06,11.22-9.11-17.57-17.3-34.15-20.22-45.92-1.74-6.99-1.62-12.27,1.27-15.05.25-.24.53-.47.84-.68,2.76-1.89,8.24-2.58,19.84,1.93-6.8.45-9.67,2.76-11.05,4.63-5.33,7.22,2.6,20.42,16.38,43.87Z"/>
    <path class="cls-7" d="m697.01,1210.18c-1.01-.43-18.26-7.43-31.72,2.67-5.97,4.48-8.62,10.39-9.74,13.55-8.64-12.72-13.55-24.11-16.4-32.08-4.52-12.64-8.12-23.15-2.85-29.7,3.99-4.96,11.08-5.19,12.36-5.23,3.96-.13,11.28.88,24.71,15.21,6.62,7.06,15.89,18.6,23.64,35.58Z"/>
  </g>
</svg>