<svg xmlns="http://www.w3.org/2000/svg" id="_пепси" data-name="пепси" viewBox="0 0 1170 2532"><defs><style>.cls-2{stroke-width:10px;stroke-miterlimit:10;stroke:#080f99;fill:#072fbe}</style></defs><path d="M395.41 1799.88c-1.18 5.16-2.54 10.57-4.08 16.25a50.832 50.832 0 0 1-10.76 7.91c-10.68 5.83-20.45 5.98-23.94 5.99-17.62.06-30.25-9.36-34.48-12.83-2.09-5.62-4-11.68-5.6-18.18-8.44-34.24-4.5-65.04.58-86.15v-.03c.3-1.52.72-2.9 1.28-2.93.63-.03.88 1.69 2.03 3.39 1.31 1.93 3.05 2.73 5.26 3.74 3.06 1.4 5.96 1.76 8.14 1.78 6.18 1.28 13.42 2.33 21.53 2.67 10 .43 18.83-.31 26.11-1.43 5.29-.09 7.48-1.68 8.48-3.21 2.44-3.73 4.07-6.59 4.07-6.59.17-.3.55-.98 1.02-.95.81.05 1.34 2.24 1.64 3.84 6.1 15.69 9.06 41.57-1.28 86.72Z" style="fill:#171817;stroke-width:0"/><path d="M322.15 1817.21c6.32 3.45 29.54 15.12 54.42 6.58 5.87-2.02 10.77-4.79 14.76-7.65.78-3.05 1.95-7.76 3.22-13.54 0 0 7.58-34.5 4.47-74.87-.11-1.39-.98-11.85-4.42-12.46-1.02-.18-1.78.45-5.15 2.3-1.38.76-3.25 1.62-5.93 2.45-3.68 1.14-7.1 1.57-13.79 2.38-6.11.74-9.16 1.11-12.21 1.19-7.01.19-7.98-.76-25.1-3.33-3.07-.46-6.68-.98-10.4-3.56-1.56-1.09-1.59-1.46-2.03-1.43-4.82.35-10.52 44.17-1.07 88.4a300.33 300.33 0 0 0 3.22 13.54Z" style="stroke-width:10px;fill:none;stroke-linejoin:round;stroke:#000"/><path d="M395.41 1797.33c-9.37 4.61-23.16 9.34-40.14 8.97-15.58-.34-28.32-4.85-37.48-9.51-10-44.04-6.86-68.96-.65-83.94 7.16 3.59 21.09 9.38 39.48 9.5 18.67.13 32.86-5.65 40.07-9.19 3.16 7.88 6.43 18.62 7.5 31.6 1.94 23.56-4.38 42.32-8.78 52.57Z" style="stroke:#072fbe;fill:#072fbe;stroke-miterlimit:10"/><ellipse cx="368.78" cy="1764.51" rx="27.87" ry="25.48" style="fill:#001374;stroke:#fff;stroke-width:5px;stroke-miterlimit:10" transform="rotate(-4.76 369.107 1765.959)"/><path d="M341.42 1763.99c3.77 2.49 9.47 5.34 16.15 4.76 7.76-.67 10.86-5.46 18.89-6.99 4.29-.82 10.67-.83 19.14 3.34.2-2.12.28-5.89-1.23-10.08-2.14-5.93-6.15-9.08-8.21-10.66-7.74-5.91-16.26-5.46-18.67-5.3-3.24.22-16.21 1.66-22.7 13.13-2.55 4.51-3.2 8.98-3.37 11.79Z" style="stroke-width:5px;stroke-miterlimit:10;fill:#d40b00;stroke:#fff"/><path d="M314.02 1709.54c-.32-6.54 22.8-15.2 44.38-15.33 18.24-.11 40.56 5.85 40.63 12.3.08 7.22-27.72 15.28-52.75 13.51-11.7-.83-31.96-4.45-32.26-10.49Z" style="stroke-width:0;fill:#00255f"/><path d="M390.92 1711.95a35.395 35.395 0 0 1-6.86 6.24c-24.13 16.7-65.86-.39-65.32-5.7.08-.76 1.07-1.73 5.11-2.58 6.18-12.94 12.3-28.5 16.96-46.51 2.1-8.12 3.68-15.87 4.87-23.17-.32-.83-1.3-3.66.05-6.05 1.99-3.5 7.43-3.24 9.99-2.67 6.62 1.49 9.3 8.51 9.58 9.29 2.13 9.31 4.88 19.34 8.42 29.9a315.62 315.62 0 0 0 17.2 41.26Z" style="fill:#fff;opacity:.42;stroke-width:0"/><path d="M396.7 1713.16a99.818 99.818 0 0 1-12.64 5.02c-38.16 12.22-64.51-4.69-65.32-5.7-.44-.55-.53-1.16-.53-1.16-.1-.66.13-1.21.22-1.41 2.91-6.7 4.58-9.92 5.02-10.92 2.38-5.51 5.27-12.74 8.1-21.39a252.19 252.19 0 0 0 9.5-39.92c.33-1.21 1-2.95 2.51-4.36 1.51-1.41 3.18-1.67 12.18-1.82 6.72-.11 8.25 0 10.04 1.11 1.96 1.21 3.11 2.91 3.75 4.12 1.07 4.83 2.48 10.67 4.32 17.25 1.9 6.77 4.3 14.47 7.32 22.79 6.26 17.25 12.16 28.83 13.9 32.55.56 1.21 1.11 2.48 1.64 3.84Z" style="opacity:.6;stroke:#fff;fill:none;stroke-linejoin:round;stroke-width:10px"/><path d="M396.18 1795.45c-7.29 3.4-22.51 9.29-42.36 8.14-17.33-1.01-30.31-6.93-37.19-10.69a230.574 230.574 0 0 1 1.04-79.69c6.93 3.51 20.31 9.14 38.02 9.44 19.36.32 33.97-5.89 41-9.46.52 2.08 1 4.2 1.44 6.35 5.62 27.35 3.49 53.25-1.96 75.92Z" style="stroke:#080f99;fill:none;stroke-linejoin:round;stroke-width:10px"/><ellipse cx="355.04" cy="1629.5" class="cls-2" rx="14.13" ry="7.45"/><path d="M368.85 1624.53c.42.76.84 1.53.71 2.5-.49 3.74-8.55 5.84-14.29 6-5.28.14-13.64-1.23-14.59-5.29-.29-1.24.21-2.32.53-3.03 2.73-5.93 12.87-6.06 13.9-6.06 1.06 0 10.5.11 13.72 5.88Z" class="cls-2"/></svg>