<?xml version="1.0" encoding="UTF-8"?>
<svg id="_цветок_2" data-name="цветок 2" xmlns="http://www.w3.org/2000/svg" viewBox="0 0 1170 2532">
  <defs>
    <style>
      .cls-1 {
        fill: #658b18;
      }

      .cls-1, .cls-2, .cls-3, .cls-4, .cls-5, .cls-6, .cls-7, .cls-8, .cls-9, .cls-10, .cls-11 {
        stroke-width: 0px;
      }

      .cls-2 {
        fill: #578b18;
      }

      .cls-3 {
        fill: #302827;
      }

      .cls-4 {
        fill: #478218;
      }

      .cls-5 {
        fill: #648518;
      }

      .cls-6 {
        opacity: .16;
      }

      .cls-7 {
        fill: #628118;
      }

      .cls-8 {
        fill: #479218;
      }

      .cls-9 {
        fill: #547718;
      }

      .cls-10 {
        opacity: .15;
      }

      .cls-12 {
        fill: none;
        stroke: #42424d;
        stroke-width: 10px;
      }

      .cls-12, .cls-13 {
        stroke-linecap: round;
        stroke-linejoin: round;
      }

      .cls-11 {
        fill: #5d5c68;
      }

      .cls-13 {
        fill: #1e1e1e;
        opacity: .55;
        stroke: #000;
        stroke-width: 6px;
      }
    </style>
  </defs>
  <path class="cls-6" d="m585.15,1365.48c13.14.97,39.12,6.24,40.15,16.73.99,10.07-21.25,22.67-41.58,22.85-14.93.13-35.1-6.37-37.01-17.79-1.16-6.94,4.87-13.06,6.06-14.26,9.12-9.25,23.78-8.16,32.37-7.53Z"/>
  <path class="cls-11" d="m633,1321.45c-4.74,20.95-9.48,41.9-14.23,62.84-10.85,4.92-20.26,6.19-27.33,6.25-1.38.01-2.5-.03-3.21-.06-10.32-.46-19.41-3.52-27.03-7.44,0-4.03-.39-9.95-2.36-16.78-.96-3.33-2-5.66-2.28-6.48-4.7-13.77-8.3-26.86-11.06-38.99,3.04,1.49,6.85,3.14,11.35,4.63.71.24,5.23,1.71,10.58,2.79,2.66.54,12.58,2.39,26.47,1.62,15.82-.89,29.39-4.77,39.07-8.38Z"/>
  <path class="cls-10" d="m631.56,1323.88c-4.92,20.26-9.83,40.52-14.75,60.77-3.47,1.22-7.34,2.39-11.57,3.41-4.98,1.2-9.62,1.98-13.8,2.48-.39-.04-.72-.14-.98-.25-1.9-.8-2.4-3.12-2.47-3.51,1.54-.12,3.42-.4,5.37-1.04,2.72-.89,4.77-2.31,5.84-3.21,4.13-3.48,4.72-9.4,4.99-11.81.94-8.5,3.42-22.75,6.74-41.53l20.63-5.32Z"/>
  <path class="cls-12" d="m542.21,1314.24c5.62,23,11.24,45.99,16.86,68.99,5.32,2.7,15.59,7.02,29.16,7.25,15.13.26,26.51-4.7,31.91-7.49,5.24-22.28,10.48-44.57,15.72-66.85"/>
  <path class="cls-3" d="m556.64,1322.46c22.74,11.19,44.4,6.12,59.13,2.67,7-1.64,18.34-4.29,18.45-8.34.11-3.81-9.81-6.98-14.28-8.37-33.05-10.3-75.31-4.26-75.93,4.53-.23,3.18,5.07,5.79,12.63,9.51Z"/>
  <path class="cls-13" d="m549.33,1316.2c.68-1.61,2.31-2.22,2.92-2.45,1.47-.55,2.87-.44,4.62-.26,2.23.23,2.78.58,3.52.13,1.11-.68.71-2,1.63-2.43,1.21-.57,2.36,1.52,4.84,1.96,1.55.27,1.59-.46,5.53-1.38,4.87-1.14,6.59-.42,7.21-.11,1.06.53.87.84,1.68,1.08,2.84.85,5.75-2.78,6.81-1.96.5.38-.14,1.18.4,2.03.93,1.48,4.39,1.53,6.85.26,1.4-.72,1.25-1.24,2.56-1.7,2.18-.78,4.35.02,5,.29,2.16.9,1.94,1.98,3.36,2.17,2.22.29,3.48-2.24,5.34-1.56.69.25,1.89,1.1,1.87,1.08,7.78-.19,8.89,1.15,8.89,1.15.18,1.09.58,2.3,1.52,2.75,1.51.72,3.17-1.11,4.62-.44,1.25.58,1.65,2.7,1.54,3.67-.82,7.35-37.36,8.81-41.47,8.98,0,0-12.85.51-25.56-2.74-1.39-.35-3.47-1.18-7.63-2.84-3.2-1.27-4.7-1.98-5.6-3.61-.18-.32-1.22-2.2-.43-4.06Z"/>
  <path class="cls-12" d="m635.86,1316.14c-.06,6.81-25.67,13.6-47.93,12.97-21.32-.6-45.93-8.16-45.71-14.88.22-6.79,25.86-12.6,47.09-12.16,21.16.44,46.62,7.26,46.55,14.06Z"/>
  <g>
    <g>
      <path class="cls-5" d="m600.75,1010.97c12.3-26.17,30.95-50.86,56.87-64.69,8.72-4.59,18.32-7.73,28.14-8.71,3.3-.24,4.02,4.5.77,5.23-27.49,5.51-49.53,25.08-65.92,47.03-5.63,7.48-10.71,15.36-15.48,23.44-1.6,2.65-5.65.59-4.38-2.29h0Z"/>
      <path class="cls-5" d="m602.22,997.22c11.54-35.57,37.44-69.05,73.93-80.99,3.15-.95,4.9,3.51,1.9,4.93-4.11,1.84-8.16,3.81-12.02,6.14-19.48,11.32-35.06,28.33-46.71,47.5-4.69,7.73-8.82,15.83-12.48,24.18-1.27,2.8-5.52,1.24-4.62-1.76h0Z"/>
      <path class="cls-5" d="m604.33,979.33c5.73-19,14.25-37.35,25.36-53.83,5.52-8.19,10.95-16.2,16.25-24.42,5.29-8.21,10.55-16.44,15.78-24.72.78-1.24,2.41-1.6,3.65-.83,1.16.73,1.55,2.24.94,3.44-8.9,17.56-19.32,34.42-30.44,50.65-10.96,16.03-19.55,33.36-26.89,51.34-1.21,2.84-5.5,1.38-4.66-1.65h0Z"/>
      <path class="cls-5" d="m606.39,964.32c5.71-26.34,13.93-57.4,17.77-83.8,2.13-16.91,2.55-33.94,2.12-51.02-.04-3.32,4.84-3.71,5.27-.35,1.85,17.31,1.9,34.9-.06,52.24-2.15,17.26-6.62,34.18-10.83,50.98-2.88,11.16-6.05,22.24-9.51,33.24-.98,2.93-5.4,1.82-4.77-1.3h0Z"/>
      <path class="cls-5" d="m600.41,1027.21c13.34-31.32,38.3-63.59,74.07-68.75,5.08-.63,10.23-.7,15.27-.03,1.45.19,2.47,1.52,2.28,2.97-.18,1.36-1.37,2.34-2.71,2.29-11.65-.39-23.15,2.58-33.3,8.13-10.29,5.54-19.34,13.33-27.05,22.08-9.51,10.71-17.25,22.79-24.09,35.43-1.49,2.69-5.62.8-4.46-2.13h0Z"/>
      <path class="cls-5" d="m597.62,1046.71c11.17-31.58,37.62-65.03,74.21-63.72,5.04.27,10.07,1.12,14.83,2.78,1.38.48,2.11,1.99,1.62,3.37-.45,1.29-1.81,2-3.1,1.7-28.43-6.92-53.52,10.86-69.01,33.44-5.34,7.61-9.96,15.81-13.99,24.33-1.36,2.76-5.57,1.07-4.56-1.9h0Z"/>
      <path class="cls-5" d="m595.03,1065.02c9.78-29.22,35.17-64.94,70.35-56.81,4.68,1.22,9.13,3.11,13.12,5.63,1.24.78,1.62,2.42.84,3.66-.73,1.15-2.21,1.55-3.41.96-26.3-13.11-49.01,3.64-63.47,25.41-4.88,7.22-9.16,14.96-12.83,22.97-1.32,2.78-5.54,1.15-4.59-1.83h0Z"/>
      <path class="cls-5" d="m594.47,1079.22c9.12-24.14,31.62-57.17,61.59-46.72,3.95,1.51,7.52,3.7,10.62,6.31,1.12.94,1.26,2.61.32,3.73-.87,1.03-2.36,1.23-3.47.52-6.06-3.93-12.86-6.2-19.59-5.51-17.97,1.95-30.42,19.43-39.44,33.84-1.98,3.2-3.78,6.52-5.52,9.84-1.45,2.68-5.54.89-4.51-2.02h0Z"/>
      <path class="cls-5" d="m592.72,1096.16c7.38-28.09,33.08-49.77,61.73-33.91,1.27.73,1.71,2.34.99,3.61-.66,1.16-2.06,1.63-3.27,1.15-5.64-2.16-11.51-3.38-17.23-3.03-18.56,1.01-30.67,17.94-37.52,33.73-1.19,2.82-5.42,1.43-4.69-1.55h0Z"/>
      <path class="cls-5" d="m590.99,1110.83c6.52-25.37,31.25-41.08,56.02-28.93,2.84,1.5,1.11,5.79-1.97,4.9-10.46-3.35-21.97-2.82-31.26,3.13-3.81,2.35-7.08,5.46-9.93,8.93-3.29,4.05-6,8.71-8.19,13.59-1.26,2.72-5.37,1.29-4.66-1.63h0Z"/>
    </g>
    <g>
      <path class="cls-5" d="m607.84,1015.71c-8.32-45.86-23.57-90.93-48.66-130.41-3.53-5.65-7.33-11.13-11.23-16.54-.86-1.18-.59-2.84.59-3.69,1.12-.81,2.68-.61,3.57.43,4.41,5.2,8.48,10.68,12.42,16.26,19.34,28.11,32.8,60.06,40.97,93.12,3.24,13.21,5.75,26.6,7.24,40.11.28,3.08-4.24,3.83-4.89.72h0Z"/>
      <path class="cls-5" d="m610.14,1001.89c-3.38-37.69-13.75-74.54-29.15-109.05-5.11-11.55-10.89-22.79-16.99-33.85-1.54-2.91,2.6-5.51,4.53-2.73,24.51,37.77,40.56,81.26,45.38,126.09.63,6.41,1.08,12.84,1.17,19.28.02,1.37-1.07,2.49-2.44,2.51-1.3.02-2.38-.97-2.5-2.24h0Z"/>
      <path class="cls-5" d="m613.03,984.38c-1.36-18.67-3.66-37.26-7.2-55.64-3.6-18.46-8.12-36.83-11.17-55.43-1.78-10.9-4.36-26.54-5.84-37.35-.39-3.32,4.48-4.21,5.21-.87,3.93,17.66,7.5,37.64,11.32,55.32,2.29,10.95,5.73,26.13,7.6,37.03,3.23,18.74,5.02,37.75,5.01,56.76-.07,3.08-4.61,3.33-4.94.17h0Z"/>
      <path class="cls-5" d="m603.81,1030.12c-6.29-39.93-18.87-79.37-40.87-113.5-7.27-11.32-15.68-21.88-25.07-31.52-1.02-1.05-.99-2.72.05-3.74,1-.97,2.57-.99,3.59-.09,5.22,4.6,10.02,9.66,14.61,14.88,20.38,23.78,34.32,52.55,43.05,82.5,4.72,16.61,8.04,33.68,9.54,50.87.2,3.09-4.34,3.73-4.91.6h0Z"/>
      <path class="cls-5" d="m601.04,1049.34c-5.33-44.17-21.3-88.88-53.11-120.89-4.47-4.53-9.31-8.69-14.41-12.49-1.18-.87-1.42-2.53-.55-3.7.83-1.11,2.37-1.38,3.52-.66,5.67,3.55,10.91,7.75,15.86,12.22,24.5,22.68,40.1,53.78,47.92,85.94,3.1,12.85,5.08,25.98,5.69,39.18.07,3.09-4.45,3.55-4.92.41h0Z"/>
      <path class="cls-5" d="m598.43,1067.51c-2.7-22.76-8.15-45.66-18.04-66.36-9.75-20.25-24.49-39.2-45.47-48.34-1.34-.58-1.95-2.14-1.37-3.48.55-1.27,1.99-1.88,3.28-1.45,5.78,1.96,11.24,4.84,16.31,8.22,13.88,9.37,24.29,23.1,31.99,37.8,11.46,22.72,17.23,47.97,18.23,73.28.04,3.12-4.52,3.5-4.93.35h0Z"/>
      <path class="cls-5" d="m595.14,1080.78c-5.34-32.25-18.21-82.3-54.2-91.57-1.42-.34-2.3-1.76-1.97-3.18.32-1.34,1.6-2.2,2.94-2.01,5.13.68,10.1,2.45,14.69,4.85,22.47,12.55,33.26,38.38,39.11,62.21,2.28,9.61,3.77,19.36,4.35,29.22.08,1.36-.96,2.53-2.32,2.61-1.3.08-2.42-.86-2.59-2.12h0Z"/>
      <path class="cls-5" d="m592.12,1096.82c-2.33-22.61-10.45-45.73-27.29-61.53-5.54-5.1-11.9-9.32-18.91-12.3-3-1.32-1.41-5.85,1.77-4.98,24.5,7.11,40.88,30.38,46.56,54.33,1.92,7.99,2.97,16.11,2.8,24.35-.13,3.1-4.65,3.24-4.94.12h0Z"/>
      <path class="cls-5" d="m589.72,1111.29c-1.49-13.17-5.7-26.12-12.96-37.22-7.12-11.07-17.22-20.17-29.18-25.75-1.32-.62-1.89-2.2-1.27-3.52.57-1.21,1.93-1.79,3.18-1.4,6.96,2.15,13.42,5.79,19.08,10.38,8.5,6.86,15.14,15.92,19.63,25.84,4.34,9.91,6.77,20.7,6.46,31.53-.15,3.06-4.6,3.21-4.94.15h0Z"/>
    </g>
  </g>
  <path class="cls-4" d="m576.3,1316.36c-3.24-16.75-4.72-33.77-4.45-50.8.17-4.84.16-11.73.17-16.61-.42-21.89.16-44.15-6-65.31-12.51-42.13-42.28-78.6-81.18-99.21-.85-.46-1.18-1.52-.72-2.37.45-.84,1.49-1.16,2.33-.74,20.08,10.14,38.25,24.23,52.93,41.45,18.21,21.63,32.07,47.59,37.18,75.56,2.8,16.75,3.18,33.62,3.83,50.48.35,10.93.01,22.31.94,33.17.84,10.89,2.42,21.72,4.76,32.36,1.22,6.51-8.25,8.61-9.79,2.02h0Z"/>
  <path class="cls-4" d="m584.91,1311.61c4.23-22.37,6.28-45.14,6.2-67.93.47-23.42,3.11-46.44,6.93-69.49,5.61-30.78,15.11-75.13,39.38-96.49,24.7-21.22,55.06-1.43,74.46,17.21,11.26,10.75,21.23,22.66,30.22,35.27,1.26,1.89-1.41,3.87-2.83,2.06-9.07-12.27-19.15-23.87-30.33-34.17-34.68-31.45-65.28-36.83-86.15,11.44-14.64,35.12-19.35,73.67-22.14,111.39-1.24,15.47-.3,30.61-1,46.03-.65,15.55-2.27,31.08-4.9,46.46-1.27,6.4-10.82,4.98-9.84-1.78h0Z"/>
  <path class="cls-4" d="m583.63,1315.17c-6.16-57.36-5.78-115.15-3.05-172.69.47-16.6.03-33.12-2.39-49.53-1.76-11.67-4.46-23.4-7.19-34.85-7.26-29.92-17.69-68.57-52.11-75.84-23.28-4.76-46.57,5.51-66,17.69-7.96,5.09-15.64,10.79-22.65,17.07-1.63,1.55-4.11-.9-2.39-2.56,21.07-18.82,48.27-36.38,77.17-38.09,47.59-1.67,62.46,41.81,72.14,80.21,3.54,13.99,7.04,28.2,8.83,42.55,4.4,33.49.83,67.29,1.09,100.88-.08,38.11,2.18,76.24,6.5,114.09.59,6.37-8.92,7.92-9.94,1.07h0Z"/>
  <path class="cls-4" d="m594.44,1315.45c3.96-23.59,7.97-47.8,13.07-71.09,2.51-11.8,5.3-23.5,7.76-35.16,4.98-23.3,7.73-46.97,8.88-70.75,1.18-23.81.62-47.62-2.25-71.31-2.31-17.77-4.18-36.4-2.53-54.51,1.49-18.19,4.01-36.3,9.5-53.79,3.66-11.55,8.31-22.78,13.08-33.9,10.74-24.55,26.94-52.04,55.19-58.24,15.25-3.41,31.29-.06,45.14,6.69,10.93,5.43,20.94,12.8,29.56,21.41,4.4,4.22,8.3,8.91,12.1,13.65,1.38,1.86-1.22,3.93-2.72,2.21-3.78-4.6-7.63-9.14-11.97-13.21-12.58-12.23-28.07-22.12-45.28-26.12-53.62-11.49-73.63,44.4-88.1,85-7.6,23.88-10.56,49.51-10.35,74.46.78,23.76,6.15,47.71,6.59,71.68.92,24.21-.01,48.45-2.65,72.53-2.44,24.01-8.14,47.71-12.96,71.23-4.8,23.16-8.53,47.35-12.18,70.77-.4,2.75-2.98,4.66-5.73,4.22-2.75-.43-4.62-3.03-4.15-5.77h0Z"/>
  <g>
    <g>
      <path class="cls-1" d="m479.43,1074.27c-33.55-35.07-65.45-62.09-67.84-101.92-.09-1.56,1.41-3.34,3.37-3.91,1.84-.54,3.42.19,3.67,1.59,2.51,13.65,7.77,26.21,15.31,38.35,7.4,12.22,17.05,23.98,27.43,36.4,7.01,8.29,14.33,16.95,21.73,26.16,2.51,3.25-.77,6.23-3.67,3.32h0Z"/>
      <path class="cls-1" d="m467.02,1068.79c-36.67-25.28-67.36-45.73-77.36-77.82-.42-1.35.68-3.4,2.49-4.52,1.68-1.04,3.37-.89,3.92.26,8.62,17.85,21.97,33.25,39.55,48.73,10.48,9.36,22.24,18.72,34.42,29.09,2.97,2.62.26,6.45-3.02,4.26h0Z"/>
      <path class="cls-1" d="m450.32,1063.4c-18.78-9.18-36.79-16.74-52.07-23.73-15.04-6.95-30.13-9.92-44.21-8.78-2.7.18-.07-6.59,3.04-7.32,15.61-3.16,31.86.38,47.11,8.15,14.97,7.7,31.73,16.01,48.98,26.99,3.14,2.1.58,6.31-2.84,4.69t0,0Z"/>
      <path class="cls-1" d="m436.17,1060.39c-24.68-6.76-54.35-5.96-75.2,7.61-13.42,8.77-25.02,23.01-33.2,41.63-1.94,4.5-2.89.71-.99-4.32,9.52-24.12,24.98-41.81,42.23-49.88,21.79-9.72,46.31-8.99,69.41-.2,3.38,1.41,1.34,6.08-2.26,5.15h0Z"/>
      <path class="cls-1" d="m493.83,1081.02c-29.54-35.03-59.16-64.1-60.85-101.19-.15-5.28.06-10.61,1.07-15.96.3-1.64,2.15-2.98,4.14-2.93,1.84.04,3.13,1.28,3.04,2.76-.66,10.01.48,19.8,3.2,29.28,2.38,8.26,6,16.45,10.43,24.4,10.87,19.63,26.87,38.7,42.4,60.52,2.46,3.54-.59,6.38-3.41,3.13t0,0Z"/>
      <path class="cls-1" d="m509.71,1094.44c-32.54-43.97-63.9-83.68-46.53-126.66,1.52-3.46,7.73-1.44,6.8,2.18-1.32,4.73-2.27,9.56-2.58,14.5-1.21,14.69,2.18,29.79,8.8,44.7,8.79,20.19,22.98,40.19,36.53,62.25,2.32,3.88-.37,6.61-3.02,3.02h0Z"/>
      <path class="cls-1" d="m523.17,1109.46c-27.64-46.68-58.31-90.15-31.92-125.32.96-1.2,3.03-1.09,4.58.27,1.45,1.27,1.95,3.14,1.24,4.32-4.38,7.28-6.82,15.89-7.06,25.08-.73,23.76,13.65,49.35,27.41,76.08,2.82,5.54,5.73,11.15,8.55,16.89,2.01,4.26-.45,6.65-2.79,2.68t0,0Z"/>
      <path class="cls-1" d="m532.71,1120.98c-19.78-43.45-45.92-89.11-19.41-111.66,1.08-.82,2.99-.05,4.23,1.75,1.14,1.65,1.34,3.55.55,4.45-4.19,4.78-6.96,11.17-7.64,18.78-1.97,24.14,14.21,54.02,25,84.59,1.7,4.64-.7,6.49-2.72,2.1t0,0Z"/>
      <path class="cls-1" d="m542.49,1138.01c-16.95-41.14-28.03-80.05-11.44-99.45.81-.93,2.44-.13,3.62,1.82,1.06,1.77,1.4,3.85.86,4.88-3,5.96-4.99,13.05-5.46,21.69-1.12,19.48,6.74,43.22,14.59,68.54,1.48,4.84-.39,7.02-2.17,2.53t0,0Z"/>
      <path class="cls-1" d="m549.4,1154.51c-12.22-38.68-17.76-76.43-5.5-91.56.7-.89,2.1.12,3.09,2.28.89,1.94,1.16,4.13.72,5.16-1.75,4.31-3.1,9.3-3.88,15-2.67,17.01,1.59,41.14,7.53,66.97,1.11,5.16-.55,6.99-1.96,2.15h0Z"/>
    </g>
    <g>
      <path class="cls-1" d="m485.32,1068.02c-35.01-6.2-72.28,10.49-97.58,40.7-11.6,13.67-20.96,29.78-27.97,47.21-.74,1.82-2.03,3.12-2.91,2.92-.83-.19-1-1.72-.42-3.47,17.88-59.76,73.83-107,128.34-93.24,3.58.97,4.11,6.46.53,5.87h0Z"/>
      <path class="cls-1" d="m472.72,1060.87c-37.05-6.53-75.17,13.98-99.66,47.58-8.3,11.2-15.35,23.81-21.01,37.4-.8,1.91-2.04,3.19-2.79,2.86-.71-.31-.75-1.99-.11-3.82,18.76-57.84,71.23-102.87,123.64-89.64,3.68,1.04,3.66,6.23-.06,5.63t0,0Z"/>
      <path class="cls-1" d="m456.33,1053.94c-24.31-1.38-48.64,6.63-69.36,22.49-20.93,15.93-39.15,36.84-50.77,63.7-1.91,4.44-3.21,1.36-1.37-3.5,8.2-21.38,20.33-38.83,34.63-53.33,14.41-14.53,31.24-26.28,49.53-31.71,12.23-3.75,24.97-4.86,37.42-3.19,1.67.22,2.94,1.68,2.83,3.2-.1,1.44-1.38,2.43-2.92,2.34h0Z"/>
      <path class="cls-1" d="m497.47,1078.85c-27.99-9.44-59.36-1.64-83.42,18.13-18.91,15.2-33.29,37.01-42.63,60.56-1.6,3.87-5.17,3.73-3.9-.36,9.13-28.61,26.63-56.1,50.46-72.63,23.49-16.71,53.31-22.44,79.26-11.63,3.42,1.5,3.66,7.05.23,5.93t0,0Z"/>
      <path class="cls-1" d="m512.85,1092.54c-22.09-13.21-48.22-11.92-69.9.2-21.83,11.93-38.71,33.94-48.58,57.73-1.55,3.57-5.86,3.02-4.68-.76,8.33-25.7,25.56-50.66,48.71-63.97,22.79-13.49,51.49-15.33,74.64.9,3.12,2.25,2.97,7.75-.19,5.89h0Z"/>
      <path class="cls-1" d="m525.96,1107.9c-21.97-18.94-51.27-19.24-72.87-4.08-13.26,9.3-23.26,23.57-28.65,39.41-1.24,3.41-6.17,2.36-5.38-1.24,7.24-34.76,41.42-63.98,75.84-56.7,11.17,2.17,22.01,7.54,31.45,16.74,2.76,2.85,2.4,8.23-.4,5.87h0Z"/>
      <path class="cls-1" d="m534.27,1122.24c-16.48-16.72-39.38-21.49-57.05-11.72-10.41,5.64-18.08,16.18-21.4,28.86-.41,1.52-1.96,2.21-3.49,1.58-1.43-.59-2.33-2.13-2.13-3.58.66-4.85,2.04-9.54,3.92-13.96,5.71-13.21,17.17-22.92,30.17-25.98,17.13-4.08,35.97,2.08,50.3,18.73,2.51,3.07,2.2,8.68-.32,6.07h0Z"/>
      <path class="cls-1" d="m542.99,1139.91c-8.58-13.11-20.02-19.48-30.46-18.75-12.02.76-21.8,10.26-27.96,22.82-1.44,2.81-6.05-.83-5.11-4.13,4.9-16.54,17.28-28.91,32.02-28.84,11.39.07,23.55,7.61,32.29,23.34,2.03,3.87,1.31,8.88-.78,5.57h0Z"/>
      <path class="cls-1" d="m549.58,1157.07c-6.59-13.51-15.84-19.39-24.08-18.6-8.49.63-15.73,7.31-21.1,16.43-1.5,2.43-5.57-2.21-4.57-5.31,6.13-18.27,22.27-28.75,37.34-17.14,4.97,3.91,9.59,10.14,13.22,19.05,1.64,4.24.9,9.2-.81,5.57t0,0Z"/>
    </g>
  </g>
  <path class="cls-4" d="m575.92,1314.78c-5.99-43.51-12.97-89.77-21.15-132.77-2.8-14.61-5.82-29.37-8.99-43.88-5.06-23.48-11.11-46.91-13.46-70.96-1.49-14.97-1.85-30.25-1.64-45.27.27-9.03.76-18.16,1.79-27.15,2.35-26.84,11.49-52.78,12.57-79.57.06-8.74,1.2-17.97-.02-26.46-.77-5.63-2.52-11.18-5.25-16.11-5.87-9.94-14.66-18.62-22.2-27.5-7.88-8.89-15.84-17.78-24.82-25.54-13.43-11.61-29.2-20.28-45.85-26.38-.91-.33-1.38-1.34-1.05-2.24.33-.9,1.32-1.37,2.23-1.05,22.92,7.91,43.96,21.28,60.56,39,8.38,8.67,16.28,17.61,24.29,26.62,3.94,4.56,7.94,9.17,11.13,14.67,6.36,10.84,7.33,24.07,6.57,36.19-.1,2.45-.12,6.44-.17,8.94-.22,15.16-3.53,30.25-6.35,44.86-4.11,20.44-6.59,41.02-6.79,61.83-.04,14.73.5,29.81,2.11,44.4,2.58,23.66,8.84,46.72,14.11,69.96,9.41,40.65,17.24,82.49,23.95,123.68,2.05,12.04,6.46,41.08,8.32,53.32.84,6.29-8.6,8.31-9.9,1.4h0Z"/>
  <g>
    <g>
      <path class="cls-8" d="m496.33,969.65c-27.49-28.8-46.43-62.18-40.52-98.36.6-3.3,5.91-2.64,5.84.71-.57,12.5,1.14,25.02,5.1,37.14,3.83,12.17,9.89,23.82,17.2,35.23,4.94,7.63,10.4,15.24,16.28,22.94,2.1,2.82-1.4,4.91-3.89,2.34h0Z"/>
      <path class="cls-8" d="m485.66,964.32c-30.05-22.62-49.03-50.98-49.38-85.76-.02-1.5,1.27-2.92,2.87-3.11,1.48-.18,2.72.75,2.9,2.08,1.09,7.94,2.88,15.66,5.35,23.12,4.95,14.94,13.06,28.64,23.81,41.47,5.38,6.43,11.4,12.69,17.85,18.97,2.46,2.46-.59,5.34-3.4,3.23t0,0Z"/>
      <path class="cls-8" d="m471.57,958.26c-15.13-9.67-28.5-19.8-38.95-31.25-8.93-9.97-21.77-22.44-30.48-30.41-.9-.83-.69-2.71.48-4.18,1.09-1.36,2.63-1.86,3.57-1.22,11.58,7.69,22.62,18.23,32.95,30.06,10.12,11.67,22.3,22.16,35.73,33.29,2.56,2.19-.41,5.51-3.3,3.72t0,0Z"/>
      <path class="cls-8" d="m459.81,953.95c-20.08-8.99-43.26-16.35-61.69-14.89-11.94,1.26-23.57,6.34-33.94,14.74-2.61,2.12-2.19-3.72.51-6.38,12.7-11.93,27.81-17.86,42.48-17.22,18.4,1.33,37.31,8.47,55.52,19.45,2.78,1.78.19,5.61-2.89,4.29t0,0Z"/>
      <path class="cls-8" d="m509.14,975.9c-25.35-27.65-43.84-58.86-38.8-90.86.76-4.42,1.81-8.76,3.45-12.8.52-1.3,2.19-1.78,3.72-1.04,1.43.69,2.23,2.16,1.92,3.38-2.02,7.84-2.7,16.19-2.01,24.6,1.4,17.03,8.34,33.82,18.4,50.01,5.04,8.18,10.81,16.32,16.98,24.61,2.14,2.95-1.13,4.83-3.65,2.1h0Z"/>
      <path class="cls-8" d="m523.56,986.96c-30.14-32.82-47.63-73.6-28.32-102.65,1.7-2.32,6.43,1.17,5.23,3.76-1.59,3.22-2.94,6.67-3.79,10.38-2.77,10.96-2.04,23.58,1.93,36.09,5.21,16.99,16.01,33.59,28.22,50.46,2.21,3.11-.72,4.85-3.27,1.96h0Z"/>
      <path class="cls-8" d="m536.51,998.69c-23.43-29.21-42.16-63.79-27.96-87.21,1.9-3,4.21-5.58,6.95-7.47.94-.66,2.67,0,3.86,1.45,1.1,1.35,1.36,2.88.65,3.59-4.18,4.14-7.02,9.92-8.09,16.63-2.93,17.48,7.09,38.72,19.61,58.76,2.54,4.2,5.28,8.4,8.04,12.65,2.09,3.29-.63,4.7-3.07,1.61h0Z"/>
      <path class="cls-8" d="m546.32,1007.58c-21.69-30.72-38.77-70.07-14.55-80.25,1.03-.33,2.67.73,3.68,2.36.92,1.49,1,2.91.23,3.36-3.85,2.31-6.65,6.21-7.72,11.43-3.41,16.84,9.61,40.26,21.39,62.01,1.92,3.49-.77,4.41-3.03,1.09h0Z"/>
      <path class="cls-8" d="m557.25,1020.29c-20.23-29.26-26.79-59.26-11.28-68.68.8-.45,2.33.56,3.4,2.24.97,1.52,1.25,3.06.72,3.64-2.84,3.24-4.88,7.6-5.53,13.33-1.54,13,5.51,30.24,15.15,48.14,1.93,3.61-.21,4.72-2.46,1.34h0Z"/>
      <path class="cls-8" d="m565.97,1032.34c-16.69-27.26-19.97-54.38-8.39-61.24.71-.41,2.12.71,3.13,2.5.91,1.6,1.21,3.17.78,3.74-1.63,2.32-2.92,5.25-3.64,8.8-2.47,10.53,1.79,27.29,10.42,45.22,1.76,3.78-.23,4.57-2.31.99t0,0Z"/>
    </g>
    <g>
      <path class="cls-8" d="m502.45,965.46c-34.23-8.79-71.09,2.74-100.21,33.12-9.72,10.05-18.66,22.01-26.68,35.65-1.1,1.87-2.53,2.85-3.2,2.14-.63-.67-.36-2.63.58-4.45,29.9-59.48,82.31-87.62,129.59-71.19,3.32,1.19,3.31,5.55-.08,4.72h0Z"/>
      <path class="cls-8" d="m491.77,958.67c-43.28-12.28-88.97,11.49-119.67,59.87-2.63,4.04-4.5,1.25-2.05-3.17,29.62-52.86,78.26-78,122.46-61.31,3.3,1.32,2.69,5.5-.73,4.61t0,0Z"/>
      <path class="cls-8" d="m478.19,951.24c-10.43-2.07-20.98-2.51-31.4-1.28-21,2.37-41.5,12.92-59.61,25.74-9.13,6.51-17.64,14.1-25.28,22.76-1.16,1.31-2.06,1.06-2.04-.6.02-1.6.9-3.93,2-5.26,11.37-14.4,24.64-25.1,39.01-33.7,8.55-5.21,20.97-10.93,30.19-13.21,15.78-4.2,32.25-3.88,48,.83,3.33,1.07,2.58,5.37-.88,4.71t0,0Z"/>
      <path class="cls-8" d="m512.84,974.67c-25.66-9.38-53.74-6.34-78.39,9.43-19.24,12.09-36.16,31.58-49.75,55.8-2.41,4.2-5.46,2.98-3.3-1.53,28.55-61.24,84.07-90.76,131.7-68.3,3.23,1.54,3.07,5.77-.25,4.59t0,0Z"/>
      <path class="cls-8" d="m526.81,985.95c-21.04-11.41-44.55-12.68-66.03-3.43-21.49,9.02-40.51,28.36-54.6,52.72-2.29,3.86-6.15,2.97-4.17-1.16,25.62-55.26,81.11-82.12,125.29-52.48,3.08,2.04,2.69,6.04-.49,4.35h0Z"/>
      <path class="cls-8" d="m539.47,997.98c-21.84-15.14-48.04-18.04-70.12-6.16-14.03,7.4-25.9,20.41-34.07,35.84-1.9,3.44-6.55,2.69-5.06-.97,13.74-34.22,47.89-56.18,79.68-47.75,10.49,2.45,20.7,7.38,30.11,14.88,2.88,2.42,2.44,6.18-.54,4.16h0Z"/>
      <path class="cls-8" d="m548.06,1008.7c-17.66-13.28-39.21-18.46-57.36-10.88-10.66,4.36-19.38,13.22-24.41,24.18-.64,1.38-2.37,2.13-3.86,1.69-1.39-.4-2.08-1.72-1.66-3.04,1.34-4.23,3.33-8.33,5.75-12.14,7.36-11.45,19.35-19.17,32.13-21.02,16.89-2.5,34.58,3.74,49.75,16.99,2.79,2.55,2.51,6.39-.34,4.22t0,0Z"/>
      <path class="cls-8" d="m557.92,1021.68c-10.09-9.97-21.8-15.51-32.59-15.42-12.38,0-22.84,7.12-30.39,17.22-1.85,2.38-6.49-.2-5.14-3,6.66-13.45,19.85-22.84,34.74-21.84,11.58.71,23.84,7.39,34.11,19.35,2.51,3.06,1.88,6.32-.73,3.69t0,0Z"/>
      <path class="cls-8" d="m566.38,1034.1c-13.23-15.53-28.93-18.3-40.42-12.07-3.92,2.01-7.48,4.9-10.68,8.37-1.85,1.92-6.21-1.35-4.89-3.82,5.19-9.3,14.17-15.49,24.53-15.64,10.43-.28,22.44,6.25,32.12,19.56,2.32,3.29,1.76,6.44-.65,3.59h0Z"/>
    </g>
  </g>
  <path class="cls-4" d="m580.88,1316.75c-.17-17.23.8-34.51,2.8-51.62.35-2.57.61-5.69.84-8.26.74-10.1.06-20.21-.94-30.35-5.38-44.16-15.82-93.03-22.25-137.09-.37-1.82-.77-6.69-.97-8.62-12.44-124.74,1.67-252.3,42.7-370.8,12.44-35.85,27.39-70.85,44.7-104.61.44-.86,1.5-1.2,2.36-.76.86.44,1.2,1.49.77,2.34-20.25,40.54-37.35,82.68-50.41,126.07-35.01,113.57-45.13,234.47-31.71,352.42,4.39,28.14,11.64,66.37,16.81,94.88,3.94,22.5,8.34,45.25,8.67,68.32,0,0-.13,5.88-.13,5.88l-.04,1.47-.12,1.48c-.31,4.66-.92,9.68-1.37,14.28-1.41,14.9-1.99,29.87-1.72,44.82,0,6.34-9.57,7.08-10,.14h0Z"/>
  <path class="cls-4" d="m588.78,1315.61c7.34-41.51,10.05-83.74,7.63-125.83-4.47-70.68-15.54-141.22-11.12-212.26,3.46-44.31,10.19-88.67,24.23-130.96,13.16-38.78,33.65-75.33,60.47-106.28,18.68-21.54,40.25-40.53,63.87-56.4.8-.54,1.89-.33,2.43.47.54.8.33,1.88-.46,2.42-23.23,15.93-44.35,34.9-62.57,56.31-74.3,87.07-87.7,208.83-79.59,319.25,2.62,42.46,8.59,84.47,11.49,126.94,2.86,42.72.52,85.81-6.54,128.02-1.07,6.09-10.62,5.41-9.86-1.69h0Z"/>
  <g>
    <g>
      <path class="cls-7" d="m469.4,806.41c-13.34-29.79-15.68-67.79,4.72-95,2-2.6,6-.02,4.43,2.87-5.81,10.05-9.68,21.18-11.17,32.69-1.62,11.55-.98,23.24,1.02,34.77,1.33,7.77,3.33,15.42,5.64,22.98.84,2.93-3.36,4.52-4.64,1.7h0Z"/>
      <path class="cls-7" d="m461.07,798.58c-16.3-25.77-19.85-60.31-5.49-87.73.67-1.3,2.27-1.8,3.57-1.13,1.2.62,1.72,2.03,1.27,3.26-2.46,6.77-4.29,13.7-5.37,20.73-2.15,14.11-1.03,28.53,2.84,42.27,1.94,6.9,4.5,13.66,7.54,20.26,1.24,2.79-2.69,4.94-4.35,2.34h0Z"/>
      <path class="cls-7" d="m450.75,788.56c-7.87-11.97-13.72-25.42-16.84-39.45-2.79-13.89-5.64-27.21-8.93-40.9-.33-1.42.55-2.85,1.97-3.18,1.3-.31,2.61.41,3.08,1.63,2.54,6.62,4.65,13.4,6.47,20.24,3.55,13.19,5.36,27.46,10.41,40.24,2.36,6.43,5.16,12.73,8.14,18.99,1.27,2.76-2.58,4.96-4.3,2.43h0Z"/>
      <path class="cls-7" d="m442.67,780.34c-8.11-10.3-19.37-24.86-27.51-34.85-4.58-5.75-9.27-10.83-14.91-15.5-5.5-4.64-11.46-8.79-17.66-12.64-2.74-1.76-.52-5.97,2.49-4.66,13.89,6.26,26.57,16,35.86,28.12,9.37,11.73,18.01,23.92,25.8,36.72,1.55,2.64-2.11,5.21-4.06,2.81h0Z"/>
      <path class="cls-7" d="m480.63,815.02c-16.18-31.63-18.44-73.04,9.16-99.11,2.41-2.24,5.95,1.08,3.84,3.63-10.74,12.53-16.9,28.38-17.51,44.78-.33,6.11.09,12.43.98,18.47,1.5,10.35,4.38,20.37,8.05,30.26,1.04,2.89-3.09,4.74-4.53,1.97h0Z"/>
      <path class="cls-7" d="m493.13,827.86c-19.72-32.88-20.42-75.58,13.23-99.52,2.76-1.85,5.73,1.95,3.25,4.17-3.17,2.8-6.18,5.82-8.79,9.15-20.27,24.74-15.97,56.61-3.3,83.92,1.24,2.81-2.75,4.95-4.38,2.28h0Z"/>
      <path class="cls-7" d="m505.51,840.51c-20.14-32.11-23.68-76.2,15.88-94.6,1.33-.6,2.9-.01,3.5,1.32.56,1.24.09,2.68-1.05,3.36-3.57,2.18-7,4.54-10.01,7.33-23.9,20.82-16.34,54.94-4,80.19,1.32,2.78-2.62,5.02-4.32,2.4h0Z"/>
      <path class="cls-7" d="m516.58,849.47c-13.71-23.17-21.81-60.8,5.06-77.92,3.51-2.25,7.28-3.97,11.15-5.19,1.39-.44,2.88.34,3.32,1.73.41,1.29-.23,2.66-1.42,3.2-32.74,14.27-25.06,49.2-13.71,75.92,1.22,2.83-2.79,4.93-4.39,2.26h0Z"/>
      <path class="cls-7" d="m529.6,861.65c-18.86-25.66-16.52-59.02,14.08-73.84,1.32-.63,2.9-.08,3.54,1.24.58,1.21.17,2.64-.92,3.36-5.41,3.63-10.28,7.89-13.98,12.91-12.16,15.94-7.58,37.27,1.42,53.62,1.49,2.68-2.25,5.16-4.13,2.71h0Z"/>
      <path class="cls-7" d="m541.24,872.9c-17.65-23.43-12.23-54.25,14.05-68.34,1.29-.69,2.9-.2,3.58,1.1.63,1.18.27,2.61-.77,3.38-4.74,3.56-8.99,7.67-12.32,12.33-10.84,14.83-8.96,33.32-.41,48.83,1.45,2.67-2.25,5.11-4.13,2.71h0Z"/>
    </g>
    <g>
      <path class="cls-7" d="m477.74,803.43c-23.87-9.99-48.82-17.53-74.58-20.32-15.38-1.76-30.88-1.76-46.3-.15-1.45.16-2.76-.89-2.91-2.35-.15-1.37.8-2.62,2.13-2.88,31.5-6.14,64.47-1.99,94.59,8.52,10.04,3.52,19.81,7.76,29.19,12.7,2.71,1.49.83,5.62-2.11,4.47h0Z"/>
      <path class="cls-7" d="m469.66,794.85c-32.99-18.12-70.51-26.35-108-26.59-3.3-.09-3.52-4.94-.19-5.28,28.96-2.37,58.53,2.39,85.25,13.8,8.92,3.81,17.48,8.45,25.51,13.84,1.13.76,1.44,2.3.67,3.43-.72,1.07-2.13,1.4-3.24.79h0Z"/>
      <path class="cls-7" d="m459.88,784.47c-15-8.37-30.47-15.64-46.69-21.29-7.26-2.58-17.46-6.19-24.48-9.09-8.05-3.37-16.02-6.93-23.93-10.6-1.32-.61-1.9-2.19-1.28-3.51.59-1.28,2.07-1.85,3.35-1.35,8.19,2.8,16.29,5.82,24.37,8.88,16.32,6,33.23,11,48.72,19.16,7.85,4.01,15.39,8.58,22.57,13.63,2.48,1.82.13,5.64-2.63,4.18h0Z"/>
      <path class="cls-7" d="m485.3,814.02c-29.54-13.78-61.79-22.8-94.55-21.69-10.82.38-21.6,1.81-32.18,4.35-1.42.34-2.85-.53-3.19-1.95-.32-1.35.45-2.7,1.74-3.13,43.35-14.25,91.57-4.08,130.46,18.03,2.66,1.58.63,5.67-2.27,4.39h0Z"/>
      <path class="cls-7" d="m497.65,826.59c-33.6-18.08-73.36-27.3-110.98-18.05-5.33,1.23-10.55,2.89-15.67,4.84-3.11,1.13-5.09-3.32-2.09-4.85,31.31-15.06,68.7-13.71,100.72-1.52,10.71,4,20.94,9.2,30.51,15.32,1.15.74,1.49,2.26.75,3.41-.7,1.1-2.12,1.45-3.25.85h0Z"/>
      <path class="cls-7" d="m509.98,839.1c-27.19-14.75-58.79-25.39-89.91-20.08-10.11,1.85-19.89,5.48-28.73,10.91-1.24.76-2.87.38-3.64-.87-.72-1.18-.41-2.7.68-3.51,4.45-3.32,9.33-6.05,14.41-8.35,12.73-5.61,26.96-7.7,40.81-6.81,24.71,1.54,48.46,10.99,68.96,24.49,2.55,1.78.21,5.7-2.58,4.21h0Z"/>
      <path class="cls-7" d="m518.41,849.91c-30.44-14.84-72.61-29.81-102.13-5.84-1.13.93-2.79.77-3.72-.36-.87-1.06-.78-2.6.17-3.55,3.46-3.5,7.49-6.46,11.82-8.88,13.03-7.21,28.62-8.34,43.1-6.18,19.06,2.94,37.02,10.36,53.25,20.54,2.58,1.72.36,5.68-2.47,4.28h0Z"/>
      <path class="cls-7" d="m529.74,862.65c-19.93-11.88-44.21-18.52-67.14-12.92-7.48,1.87-14.7,4.91-21.39,9-1.25.76-2.88.37-3.64-.88-.71-1.16-.42-2.65.63-3.46,4.99-3.9,10.62-7.06,16.52-9.41,9.91-3.88,20.82-5.36,31.41-4.48,12.71,1.05,24.9,5.06,35.95,11.2,3.63,2.1,7.18,4.27,10.5,6.9,1.07.85,1.25,2.41.4,3.48-.79.99-2.19,1.22-3.24.57h0Z"/>
      <path class="cls-7" d="m540.69,874.39c-18.19-10.92-40.51-15.23-61.19-9.88-6.82,1.74-13.43,4.42-19.63,7.93-1.27.74-2.9.29-3.63-.99-.66-1.17-.34-2.63.71-3.42,6.17-4.65,13.23-8.08,20.66-10.32,9.77-2.96,20.19-3.6,30.29-2.28,12.88,1.84,25.36,6.89,35.62,14.9,2.39,1.95-.16,5.64-2.83,4.05h0Z"/>
    </g>
  </g>
  <g>
    <g>
      <path class="cls-2" d="m665,758.44c30.31-22.66,70.26-37.86,108.16-28.24,1.41.37,2.26,1.81,1.9,3.22-.34,1.33-1.65,2.17-2.98,1.95-9.04-1.43-18.2-1.69-27.28-.97-6.76.55-13.63,1.75-20.24,3.29-11.14,2.76-21.92,6.68-32.35,11.61-8.39,3.92-16.5,8.42-24.43,13.22-2.65,1.57-5.25-2.15-2.78-4.09h0Z"/>
      <path class="cls-2" d="m671.58,748c25.71-24.81,62.19-39.55,98.08-35.95,3.27.39,3.08,5.18-.23,5.28-4.3.05-8.58.18-12.85.61-21.28,1.83-41.95,8.66-60.42,19.35-7.41,4.28-14.53,9.13-21.34,14.45-2.45,1.85-5.44-1.52-3.24-3.73h0Z"/>
      <path class="cls-2" d="m680.13,734.86c12.1-12.22,26.17-22.66,41.45-30.61,7.62-3.93,15.09-7.63,22.54-11.59,6.5-3.56,15.75-8.66,22.3-11.95,1.31-.74,3-.25,3.68,1.11.61,1.21.2,2.67-.91,3.39-13.95,9.33-29.07,18.2-44.17,25.63-14.89,7.6-28.57,17.14-41.57,27.68-2.41,1.9-5.47-1.4-3.32-3.66h0Z"/>
      <path class="cls-2" d="m687.35,724.28c9.86-11.69,23.79-27.94,33.3-39.58,5.49-6.58,10.32-13.19,14.48-20.67,4.13-7.35,7.68-15.04,10.71-23,1.22-3.06,5.81-1.62,5.03,1.62-3.38,12.85-8.92,25.2-16.36,36.27-13.01,17.61-27.93,33.49-43.55,48.75-2.26,2.09-5.57-.94-3.6-3.38h0Z"/>
      <path class="cls-2" d="m658.48,771.58c30.56-25.08,74.72-41.92,112.93-24.83,2.97,1.42,1.27,5.9-1.92,4.92-16.9-5.9-35.35-5.96-52.66-1.86-8.04,1.9-16.21,4.71-23.76,8.06-11.08,4.85-21.54,10.89-31.64,17.67-2.58,1.69-5.35-1.93-2.95-3.96h0Z"/>
      <path class="cls-2" d="m647.81,787.07c29.18-27.5,76.74-44.23,113.01-20.44,2.73,1.88.31,6.05-2.68,4.55-8.45-4.5-17.75-7.24-27.2-8.22-14.29-1.52-28.74,1.09-42.11,6.22-13.64,5.22-26.16,12.83-37.85,21.69-2.48,1.83-5.44-1.62-3.17-3.79h0Z"/>
      <path class="cls-2" d="m637.46,802.14c24.13-23,62.43-42.22,94.79-24.8,4.42,2.49,8.52,5.52,12.05,9.07,1.04,1.04,1.03,2.72,0,3.75-.97.96-2.51,1.01-3.55.16-22.82-19.1-52.51-13.53-76.64-.02-8.18,4.48-16.01,9.73-23.4,15.56-2.44,1.88-5.46-1.51-3.24-3.73h0Z"/>
      <path class="cls-2" d="m630.81,814.7c23.81-21.94,68.73-43.07,93.28-11.28.88,1.17.65,2.83-.52,3.71-1.09.82-2.6.67-3.51-.3-21.06-22.84-53.75-9.25-75.89,4.8-3.52,2.15-6.91,4.52-10.26,6.91-2.51,1.75-5.37-1.72-3.1-3.84h0Z"/>
      <path class="cls-2" d="m621.42,829.73c21.03-23.3,56.7-33.24,81.58-9.91,1.06,1,1.11,2.68.11,3.74-.92.98-2.42,1.1-3.48.33-5.61-4.03-11.78-7.07-18.3-8.66-16.82-4.29-34.19,2.05-48.1,11.65-2.93,1.95-5.72,4.14-8.38,6.4-2.35,1.94-5.46-1.25-3.43-3.55h0Z"/>
      <path class="cls-2" d="m612.77,843.1c18.99-21.5,52.27-27.28,74.88-7.95,2.44,2.15-.42,5.98-3.17,4.23-10.73-6.89-23.56-9.93-36.14-8.08-5.66.88-11.24,2.64-16.42,5.11-5.59,2.69-10.89,6.17-15.71,10.23-2.34,1.92-5.43-1.23-3.45-3.54h0Z"/>
    </g>
    <g>
      <path class="cls-2" d="m670.55,764.96c4.15-20.66,6.39-41.69,5.27-62.74-1.05-20.92-5.53-41.61-13.54-61-1.22-3.08,3.19-5.19,4.79-2.22,15.07,29.13,18.92,63.13,14.87,95.4-1.35,10.76-3.56,21.39-6.6,31.75-.93,2.95-5.35,1.93-4.8-1.19h0Z"/>
      <path class="cls-2" d="m678,754.58c12.06-36.97,12.34-76.82,2.53-114.4-.76-3.21,3.87-4.67,5.06-1.54,13.34,37.77,12.65,80.68-2.95,117.66-1.26,2.83-5.53,1.3-4.63-1.72h0Z"/>
      <path class="cls-2" d="m687.11,741.89c5.89-17.46,10.37-35.22,12.79-53.48,1.15-8.16,2.78-19.68,4.35-27.66,1.86-9.17,3.89-18.3,6.06-27.38.85-3.25,5.7-2.29,5.17,1.08-1.28,9.2-2.7,18.36-4.29,27.48-2.94,18.41-4.44,37.24-9.8,55.24-2.58,9.09-5.84,17.96-9.7,26.54-1.32,2.79-5.55,1.18-4.6-1.81h0Z"/>
      <path class="cls-2" d="m660.88,775.39c6.11-25.3,8.72-51.73,4.45-77.48-2.81-17.49-8.95-34.36-18.23-49.52-1.69-2.85,2.35-5.63,4.39-2.94,20.53,27.93,26.4,64.35,21.77,98.18-1.45,11.29-4.08,22.39-7.63,33.13-1.03,2.93-5.44,1.73-4.75-1.37h0Z"/>
      <path class="cls-2" d="m650.41,790.64c9.42-31.05,11.36-65.65-1.73-95.89-4.28-9.93-9.97-19.29-17-27.51-2.13-2.55,1.41-5.93,3.86-3.6,16.4,16.25,26.16,38.62,28.86,61.42,2.75,22.76-1.05,46-9.32,67.2-1.19,2.87-5.52,1.44-4.67-1.61h0Z"/>
      <path class="cls-2" d="m640.16,805.61c12.17-38.07,13.71-85.95-21.28-112.38-1.16-.89-1.37-2.55-.48-3.71.84-1.09,2.38-1.35,3.52-.61,4.62,2.93,8.86,6.49,12.7,10.45,19.48,20.1,23.67,50.39,19.02,76.99-1.76,10.65-4.73,21.05-8.84,30.97-1.25,2.85-5.54,1.32-4.64-1.71h0Z"/>
      <path class="cls-2" d="m630.86,816.42c6.21-24.38,10.61-54.13-2.41-76.87-4.3-7.27-10.63-13.28-18.21-17.49-1.28-.71-1.74-2.32-1.03-3.6.67-1.2,2.13-1.68,3.36-1.14,4.4,1.87,8.52,4.46,12.27,7.55,11.28,9.36,17.19,23.82,18.7,38.11,1.95,18.77-1.46,37.5-8,54.99-1.17,2.88-5.49,1.48-4.69-1.56h0Z"/>
      <path class="cls-2" d="m620.43,830.16c4.83-13.87,7.05-29.35,4.12-43.79-2.83-14.53-11.55-27.08-23.29-36.05-2.55-2.04.12-6,2.97-4.37,14.09,8.2,24.59,22.83,27.61,38.96,3.08,16.05.2,32.7-6.88,47.25-1.44,2.76-5.59.95-4.52-1.99h0Z"/>
      <path class="cls-2" d="m611.09,843.08c4.05-11.74,5.32-24.42,2.72-36.55-3.05-13.72-11.12-25.76-21.99-34.65-2.5-2.09.24-5.99,3.06-4.31,13.31,8.15,22.99,22.09,26.17,37.41,2.73,13.45.77,27.86-5.42,40.07-1.45,2.7-5.53.94-4.53-1.97h0Z"/>
    </g>
  </g>
  <g>
    <g>
      <path class="cls-9" d="m581.13,834.66c20.36-37.43,56.35-82.01,101.44-87.22,1.45-.13,2.74.94,2.88,2.39.13,1.38-.83,2.61-2.17,2.85-5.34,1-10.58,2.51-15.61,4.61-8.81,3.55-17.19,8.66-24.81,14.35-23.46,17.54-41.51,41.15-57.48,65.54-1.71,2.57-5.7.32-4.25-2.51h0Z"/>
      <path class="cls-9" d="m584.69,818.18c15.5-37.01,40.82-71.83,76.5-91.47,5.17-2.7,10.49-5.13,16.03-6.97,1.39-.46,2.89.29,3.35,1.68.43,1.31-.22,2.72-1.47,3.26-25.58,11.12-46.56,30.76-63.35,52.73-10.22,13.38-18.89,27.81-26.57,42.83-1.44,2.74-5.64.9-4.49-2.06h0Z"/>
      <path class="cls-9" d="m589.59,796.37c9.51-24.21,21.99-47.37,37.23-68.45,15.05-20.44,29.55-42.59,44.08-63.39.82-1.24,2.52-1.57,3.74-.7,1.13.8,1.43,2.33.74,3.5-3.3,5.56-6.74,11.04-10.11,16.56-5.97,9.6-14.7,23.47-21.16,32.56-7.35,10.57-15.14,20.8-22.12,31.56-6.96,10.71-13.4,21.76-19.27,33.12-3.01,5.65-5.81,11.42-8.6,17.19-1.38,2.75-5.61,1.03-4.53-1.97h0Z"/>
      <path class="cls-9" d="m594.14,777.61c10.54-34.28,23.25-69.49,32.62-104.08,4.9-19.47,8.57-39.3,11.3-59.2,1.18-7.98,2.09-15.99,3.03-24.01.17-1.45,1.48-2.49,2.94-2.32,1.39.16,2.4,1.39,2.33,2.76-1.63,28.5-5.47,56.92-12.41,84.64-4.08,15.54-9.35,31.39-14.42,46.66-2.62,7.41-9.57,26.78-12.3,34.39-2.81,7.61-5.56,15.25-8.44,22.83-1.16,2.91-5.62,1.45-4.65-1.67h0Z"/>
      <path class="cls-9" d="m578.56,853.56c16.69-33.22,47.28-73.12,85.93-80.2,5.86-.95,11.91-1.12,17.78-.1,1.44.25,2.4,1.62,2.16,3.06-.23,1.37-1.48,2.3-2.83,2.19-5.32-.41-10.68-.05-15.89,1.16-26.86,6.5-47.43,27.44-64.01,48.66-6.8,8.83-13,18.12-18.81,27.64-1.63,2.62-5.69.48-4.32-2.39h0Z"/>
      <path class="cls-9" d="m573.06,875.76c12.47-27.32,31.3-53.93,58.88-67.61,12.86-6.09,28.37-8.14,41.76-2.44,1.34.57,1.97,2.13,1.4,3.47-.54,1.27-1.97,1.9-3.25,1.48-4.82-1.51-9.87-2.21-14.91-1.91-15.55.68-29.49,9.09-41.04,19.05-15.89,13.94-28.13,31.7-38.42,50.17-1.53,2.68-5.65.7-4.42-2.21h0Z"/>
      <path class="cls-9" d="m568.04,896.11c11.51-26.04,32.19-57.7,61.62-64.81,10.51-2.5,22.26-.12,30.67,6.62,1.15.9,1.36,2.56.46,3.71-.84,1.08-2.37,1.33-3.5.61-3.88-2.41-8.14-4.19-12.64-4.83-23.8-3.08-43.65,18.45-56.6,36.04-5.71,7.9-10.89,16.23-15.56,24.81-1.5,2.7-5.63.78-4.45-2.15h0Z"/>
      <path class="cls-9" d="m565.7,911.54c9.84-20.84,28.78-49.48,53.05-54.03,9.22-1.81,19.17,1.49,25.51,8.33,1.01,1.05.98,2.73-.08,3.74-.98.94-2.49.98-3.51.14-3-2.42-6.29-4.31-9.82-5.17-19.16-4.45-36.31,15.2-47,28.9-4.93,6.51-9.56,13.35-13.78,20.4-1.61,2.61-5.61.55-4.37-2.31h0Z"/>
      <path class="cls-9" d="m561.9,929.53c6.22-16.54,17.26-32.6,33.91-40.04,10.26-4.53,22.81-4.2,32.36,1.86,1.25.77,1.63,2.4.86,3.64-.7,1.14-2.13,1.56-3.32,1.03-5.84-2.53-12.1-3.45-18.13-2.45-19.52,3.54-32.16,21.47-41.14,37.89-1.41,2.72-5.54.98-4.54-1.94h0Z"/>
      <path class="cls-9" d="m558.43,944.87c8.01-23.71,34.03-44.78,59.31-32.56,2.85,1.52,1.07,5.81-2.01,4.89-8.47-2.72-17.58-2.04-25.54,1.72-6.91,3.13-12.73,8.02-17.69,13.88-3.65,4.27-6.8,9.06-9.55,14.07-1.47,2.61-5.45.86-4.52-1.99h0Z"/>
    </g>
    <g>
      <path class="cls-9" d="m588.15,839.7c-2.23-60.6-14.49-121.1-38.62-176.85-3.37-7.99-7.11-15.82-10.94-23.6-.65-1.31-.11-2.9,1.2-3.55,1.26-.62,2.78-.14,3.46,1.06,4.36,7.64,8.35,15.5,12.13,23.46,22.37,47.91,34.51,100.34,37.26,153.07.4,8.79.62,17.58.46,26.36-.11,3.09-4.73,3.28-4.94.05h0Z"/>
      <path class="cls-9" d="m592.61,823.42c3.24-67.09-10.42-133.94-32.43-197.08-.47-1.38.26-2.89,1.65-3.36,1.33-.45,2.77.22,3.3,1.49,3.23,7.83,6.16,15.79,8.99,23.79,16.55,48.16,26.05,99.06,25.01,150.08-.23,8.5-.68,16.99-1.58,25.45-.38,3.06-4.98,2.86-4.93-.37h0Z"/>
      <path class="cls-9" d="m598.34,802.34c2.47-34.51,1.77-69.05-.68-103.56-2.19-34.12-2.73-70-2.92-104.21,0-1.46,1.18-2.64,2.64-2.64,1.43,0,2.59,1.13,2.64,2.54.53,8.66.9,17.32,1.35,25.98,1.2,34.18,3.38,69.9,5.01,103.97.89,26.15.02,52.41-3.13,78.39-.43,3.05-5.05,2.77-4.92-.47h0Z"/>
      <path class="cls-9" d="m581.87,856.46c-1.28-59.64-14.21-120.1-44.25-172.07-4.21-7.42-8.91-14.56-13.82-21.55-.85-1.19-.56-2.85.63-3.69,1.15-.81,2.72-.57,3.58.51,2.73,3.41,5.34,6.92,7.85,10.5,37.49,53.97,52.72,121.25,50.95,186.34-.17,3.08-4.79,3.2-4.94-.04h0Z"/>
      <path class="cls-9" d="m576.37,878.3c.31-31.09-3.81-62.41-13.72-91.93-9.71-29.33-25.25-57.12-47.63-78.61-1.06-1.01-1.1-2.68-.09-3.74.97-1.01,2.56-1.08,3.62-.2,6.16,5.17,11.75,10.99,16.94,17.12,25.71,30.9,39.78,70.24,44.58,109.84,1.86,15.84,2.37,31.82,1.25,47.72-.28,3.09-4.89,3.01-4.94-.2h0Z"/>
      <path class="cls-9" d="m571.32,898.46c.18-26.52-2.89-53.42-11.53-78.58-8.48-24.57-23.18-48.33-46.69-60.71-2.89-1.6-.85-6.03,2.3-4.75,9.63,4.24,18.24,10.66,25.46,18.29,4.77,5.08,9.14,10.6,12.74,16.57.93,1.55,3.11,5.25,3.99,6.74,5.17,9.91,9.41,20.54,12.26,31.35,4.59,16.49,6.62,33.77,7.03,50.85.1,6.84-.04,13.68-.63,20.5-.12,1.36-1.31,2.37-2.68,2.25-1.3-.11-2.28-1.21-2.26-2.5h0Z"/>
      <path class="cls-9" d="m566.26,912.95c-1.35-29.82-5.89-65.28-24.84-89.27-6.36-7.9-14.77-14.04-24.58-16.6-1.41-.37-2.26-1.81-1.89-3.23.35-1.34,1.67-2.17,3.01-1.94,5.62.95,11.06,3.12,15.96,6.09,14.51,8.99,23.55,24.59,29.01,40.32,7.04,20.85,9.32,42.86,8.27,64.72-.23,3.1-4.81,3.09-4.94-.09h0Z"/>
      <path class="cls-9" d="m561.24,930.13c.75-31.64-10.64-67.81-41.78-81.27-1.34-.59-1.94-2.16-1.34-3.49.55-1.24,1.95-1.85,3.21-1.45,6.32,2,12.31,5.22,17.59,9.26,3.48,2.76,6.81,5.79,9.58,9.27.72.89,2.45,3.05,3.13,3.91,1.39,2.15,3.26,4.77,4.42,7.05,7.5,13.46,10.73,28.91,10.89,44.16-.03,4.34-.16,8.65-.79,12.99-.2,1.35-1.45,2.29-2.8,2.09-1.26-.18-2.16-1.28-2.12-2.53h0Z"/>
      <path class="cls-9" d="m557.12,945.32c.02-13.6-2.79-27.35-9.33-39.31-6.38-11.88-16.48-21.57-28.76-27.27-2.95-1.39-1.27-5.87,1.88-4.94,18.12,5.6,31.96,21.26,37.91,38.97,3.52,10.57,4.73,21.92,3.22,32.95-.48,3.04-4.94,2.7-4.93-.39h0Z"/>
    </g>
  </g>
  <g>
    <g>
      <path class="cls-8" d="m547.66,896.74c18.3-29.57,49.65-53.34,85.19-55.48,3.29-.14,3.87,4.62.61,5.25-12.32,2.08-24.16,6.15-35.1,12.09-11.01,5.85-20.97,13.52-29.91,22.19-5.96,5.85-11.55,12.12-16.73,18.78-1.92,2.39-5.64-.14-4.06-2.82h0Z"/>
      <path class="cls-8" d="m549.07,886.46c13.28-30.53,41.77-54.04,74.26-61.32,1.43-.32,2.85.59,3.16,2.02.29,1.32-.47,2.63-1.72,3.07-7.48,2.6-14.7,5.78-21.6,9.52-13.78,7.5-26.09,17.56-36.17,29.57-5.04,6.02-9.55,12.52-13.53,19.38-1.57,2.63-5.61.63-4.41-2.23h0Z"/>
      <path class="cls-8" d="m551.18,872.98c6.1-15.21,15.11-29.4,26.09-41.57,9.46-10.37,22.39-25.47,31.58-36.29.95-1.12,2.62-1.25,3.74-.3,1.03.88,1.22,2.39.48,3.49-9.01,13.46-19.35,26.09-30.24,38.04-10.75,11.72-19.59,24.75-27.17,38.73-1.5,2.68-5.59.8-4.47-2.1h0Z"/>
      <path class="cls-8" d="m553.21,861.73c5.66-19.66,13.77-42.87,17.72-62.7,2.17-12.73,2.62-25.6,2.18-38.56-.07-3.3,4.73-3.76,5.26-.47,2.14,15.48,1.98,31.59-1.46,46.92-4.84,19.34-11.44,38.11-19.05,56.49-1.25,2.82-5.48,1.33-4.65-1.68h0Z"/>
      <path class="cls-8" d="m547.29,909.01c15.47-27.54,43.38-50.01,75.7-52.3,4.58-.26,9.17-.26,13.71.28,1.46.17,2.5,1.49,2.32,2.95-.16,1.35-1.32,2.34-2.65,2.33-8.55-.07-17.01,1.1-25.14,3.44-16.38,4.75-31.01,14.21-43.09,26.22-6.11,6.03-11.64,12.68-16.69,19.74-1.82,2.47-5.65.08-4.16-2.66h0Z"/>
      <path class="cls-8" d="m544.48,923.77c15.63-33.06,52.19-56.18,89.01-46.16,3.16.93,2.18,5.61-1.1,5.17-4.14-.64-8.32-1.02-12.5-.95-12.44.01-24.79,3.3-35.64,9.34-14.76,8.05-26.53,20.74-35.45,34.98-1.66,2.6-5.64.45-4.33-2.39h0Z"/>
      <path class="cls-8" d="m541.87,937.59c14.37-31.73,48.9-55.32,83.34-38.84,1.32.64,1.86,2.23,1.21,3.55-.6,1.22-2.01,1.77-3.26,1.33-7.35-2.59-15.06-3.72-22.63-3.16-19.59,1.34-36.18,14.33-47.61,29.61-2.43,3.13-4.62,6.46-6.7,9.84-1.63,2.58-5.61.5-4.35-2.33h0Z"/>
      <path class="cls-8" d="m541.32,948.28c13.07-26.26,43.41-48.82,72.01-30.69,1.22.8,1.57,2.44.77,3.67-.73,1.12-2.17,1.51-3.34.95-5.96-2.78-12.28-4.29-18.6-4.05-20.13.83-35.56,17.01-46.56,32.6-1.73,2.53-5.61.3-4.28-2.48h0Z"/>
      <path class="cls-8" d="m539.53,961.14c9.5-25.24,36.92-37.07,61.58-25.86,1.33.6,1.93,2.17,1.32,3.51-.54,1.2-1.88,1.8-3.11,1.46-8.02-2.15-16.2-2.85-24.25-1.22-13.41,2.57-24.37,12.38-31.01,24.1-1.46,2.65-5.49.88-4.52-1.99h0Z"/>
      <path class="cls-8" d="m537.79,972.2c8.03-22.23,34.91-30.82,55.87-22.09,2.94,1.25,1.6,5.65-1.53,5.06-9.48-1.95-19.39-2.01-28.5,1.21-8.99,3.16-16.54,9.59-21.34,17.85-1.49,2.63-5.48.84-4.51-2.02h0Z"/>
    </g>
    <g>
      <path class="cls-8" d="m554.62,901.06c-7.38-30.93-20.5-60.47-39.39-86.08-6.28-8.51-13.11-16.63-20.46-24.31-1.01-1.05-.98-2.73.08-3.74,1-.96,2.56-.97,3.58-.07,32.75,29,54.35,70.14,61.04,113.26.41,3.07-4.05,4.01-4.85.94h0Z"/>
      <path class="cls-8" d="m556.92,890.5c-4.6-39.36-22.83-75.64-46.08-107.26-1.92-2.7,1.84-5.79,4.12-3.31,26.54,30.47,45.48,69.38,46.89,110.22.02,3.09-4.48,3.47-4.93.35h0Z"/>
      <path class="cls-8" d="m559.82,877.27c-.91-9.45-2.27-18.81-4.1-28.08-3.6-18.7-10.21-36.78-14.29-55.43-2.11-9.39-4.06-18.82-5.86-28.27-.27-1.43.67-2.82,2.1-3.09,1.38-.27,2.72.61,3.06,1.95,4.08,13.77,7.38,27.69,11.3,41.48,2.29,8.25,5.71,19.57,7.61,27.84,3.3,14.2,5.13,28.8,5.12,43.37-.05,3.09-4.58,3.35-4.94.23h0Z"/>
      <path class="cls-8" d="m550.58,911.9c-4.96-23.9-13.99-47-27.49-67.34-10.42-15.84-23.45-29.82-38.39-41.54-2.58-2.08.22-6.09,3.09-4.29,37.8,24.87,62.21,67.8,67.68,112.38.31,3.09-4.18,3.88-4.88.79h0Z"/>
      <path class="cls-8" d="m547.79,926.34c-3.21-20.64-10.65-40.54-22.28-57.88-11.53-17.29-27.14-31.83-45.18-42.17-2.87-1.67-.68-6.06,2.41-4.7,39.97,18.53,67.07,60.54,69.96,104.2.15,3.1-4.37,3.65-4.91.54h0Z"/>
      <path class="cls-8" d="m545.17,940.03c-3.45-22.59-12.1-44.94-27.48-62.03-9.77-10.84-22.14-19.18-36.02-23.93-3.11-1.12-1.8-5.79,1.47-5.07,29.92,6.97,52.42,32.73,61.42,61.31,3.05,9.49,5.04,19.3,5.52,29.26.06,3.09-4.39,3.54-4.92.46h0Z"/>
      <path class="cls-8" d="m541.87,950.09c-4-18.91-11.21-38.1-24.74-52.2-7.95-8.28-18.17-14.12-29.53-16.36-1.43-.29-2.36-1.68-2.08-3.11.27-1.33,1.49-2.23,2.81-2.12,4.24.33,8.45,1.29,12.51,2.65,12.2,4.21,22.46,13.03,29.68,23.58,9.46,13.95,14.7,30.25,16.23,46.91.2,3.1-4.28,3.72-4.9.65h0Z"/>
      <path class="cls-8" d="m538.83,962.08c-1.53-11.71-6.05-23.21-13.34-32.53-8.32-10.71-20-18.11-32.8-22.53-3.06-1.1-1.85-5.68,1.37-5.1,15.5,2.97,29.85,12.22,38.87,25.27,6.97,10.15,11.01,22.37,10.84,34.73-.15,3.06-4.59,3.22-4.94.17h0Z"/>
      <path class="cls-8" d="m536.43,973.01c-2.21-16.5-13.07-30.78-27.03-39.44-4.7-2.97-9.76-5.42-15.03-7.44-2.99-1.19-1.69-5.67,1.48-5.07,12.05,2.49,23.31,8.83,31.74,17.88,8.48,9.07,14.07,21.3,13.78,33.87-.15,3.05-4.55,3.23-4.94.2h0Z"/>
    </g>
  </g>
  <g>
    <g>
      <path class="cls-8" d="m687.37,1050.69c38.79.81,70.29,43.83,73.95,89.56.37,4.17-4.12,3.59-5.02-.57-3.08-15.8-8.46-31.07-16.39-44.05-7.81-13.07-18.12-23.56-29.75-30.46-7.82-4.58-16.2-7.68-24.86-9-3.13-.49-1.34-5.54,2.07-5.49h0Z"/>
      <path class="cls-8" d="m699.34,1047.05c39.09-.51,69.56,41.1,76.8,86.43.36,1.98-.44,3.45-1.77,3.31-1.23-.13-2.51-1.58-2.99-3.34-2.87-10.51-6.53-20.6-11.04-29.92-9-18.65-21.89-34.02-37.52-42.79-7.81-4.4-16.25-7.19-24.96-8.21-3.34-.4-2.09-5.41,1.48-5.47t0,0Z"/>
      <path class="cls-8" d="m715.39,1044.31c19.07,2.02,37.2,12.41,51.32,28.66,12.3,13.57,27.71,36.94,36.35,56.67.92,2,.97,4.38.14,5.27-.77.83-2.03.12-2.96-1.56-11.27-20.49-24.34-38.88-38.33-54.43-13.7-15.34-30.26-25.22-48.02-29.18-3.41-.77-2.14-5.76,1.49-5.44h0Z"/>
      <path class="cls-8" d="m728.95,1043.89c24.23,2.42,51.83,16.59,70.92,32.5,12.39,9.44,23.42,19.32,32.46,30.63,2.27,2.97,2.02,10.23-.22,7.86-10.64-11.5-24.53-23-39.89-34.38-19.38-15.03-41.62-25.77-64.36-31.09-3.5-.87-2.6-5.89,1.09-5.52h0Z"/>
      <path class="cls-8" d="m673.87,1057.77c34.49-5.03,65.91,27.66,71.25,67.33.82,5.54,1.33,11.12,1.3,16.54,0,1.75-1.17,2.8-2.6,2.39-1.33-.38-2.43-1.88-2.59-3.47-.98-10.23-3.25-20.43-6.91-29.88-7.34-19.09-20.5-34.49-36.56-41.85-8.03-3.76-16.73-5.62-25.54-5.48-3.09.04-1.69-5.09,1.66-5.58h0Z"/>
      <path class="cls-8" d="m657.83,1066.25c39.25-15.22,73.47,27.78,67.89,70.34-.41,3.62-5.13,2.71-5.27-.97-.09-4.7-.43-9.43-1.26-14.09-2.23-13.86-8.03-27.1-16.92-36.38-11.84-12.77-28.93-17.66-45.51-13.31-3.01.79-2.15-4.33,1.07-5.59h0Z"/>
      <path class="cls-8" d="m643.86,1076.49c34.94-21.13,70.18,13.47,59.57,53.77-.35,1.54-1.77,2.48-3.17,2.15-1.3-.31-2.14-1.6-1.99-3.02.88-8.32.33-16.72-1.97-24.26-5.67-19.76-24.05-30.34-42.09-26.62-3.7.62-7.44,1.87-11.1,3.55-2.79,1.29-2.21-3.77.75-5.58h0Z"/>
      <path class="cls-8" d="m634.38,1086.95c26.97-20.46,59.66,1.96,48.32,37.67-.44,1.53-1.87,2.58-3.2,2.4-1.21-.17-1.94-1.32-1.73-2.7,1.02-6.94.86-13.72-1.04-19.5-5.96-18.8-26.95-21.75-43.02-12.21-2.57,1.53-2.05-3.6.68-5.66h0Z"/>
      <path class="cls-8" d="m623.8,1100.31c22.38-24.58,43.55-5.65,39.64,22.71-.15,1.54-1.34,3.05-2.64,3.43-1.17.34-2.06-.36-2.13-1.63-.48-8.2-2.2-15.67-6.02-20.88-6.17-8.92-18.43-8.33-28.83,1.61-2.31,2.27-2.4-2.36-.02-5.23t0,0Z"/>
      <path class="cls-8" d="m615.79,1113.14c17.25-24.87,34.65-8.75,33.17,14.49-.14,3.27-3.88,5.83-4.36,3.02-1.36-8.75-4.34-16.42-9.65-19.54-5.19-3.1-12.46-.9-18.97,7.21-2.03,2.62-2.27-1.94-.19-5.18t0,0Z"/>
    </g>
    <g>
      <path class="cls-8" d="m684.42,1059.82c31.84-24.35,66.42-42.41,95.06-61.18,9.56-6.26,18.61-12.52,27.04-19.02,1.16-.9,3.07-.14,4.24,1.72,1.1,1.76,1.16,3.84.2,4.76-30.5,29.61-78.77,48.51-124.26,77.9-3.21,2.01-5.39-1.69-2.28-4.19h0Z"/>
      <path class="cls-8" d="m696.65,1056.81c43.08-21.79,85.76-38.02,118.5-52.38,2.84-1.14,5.97,5.79,3.44,7.4-30.6,17.97-75.08,31.43-120.37,49.84-3.41,1.33-4.94-2.99-1.57-4.86t0,0Z"/>
      <path class="cls-8" d="m712.28,1054.88c10.59-3.84,21.26-6.96,31.76-9.49,21.13-4.88,41.53-9.34,60.67-5.6,9.6,1.86,18.65,5.25,26.73,10.29,1.23.76,2.3,3.22,2.42,5.45.12,2.16-.68,3.28-1.79,2.65-11.53-5.63-25.18-9.51-39.62-9.82-8.61-.38-20.89,1.02-30.05,2.39-15.7,2.23-32.32,5.25-48.82,9.35-3.5.83-4.8-3.87-1.31-5.23h0Z"/>
      <path class="cls-8" d="m671.73,1062.71c23.72-20.74,49.73-37.87,72.59-55.71,17.88-13.81,33.71-28.1,46.81-44.34,2.36-2.83,7.46,1.9,5.49,5.06-26.53,40.93-77.08,64.69-122.71,98.93-3.13,2.29-5.21-1.18-2.18-3.94t0,0Z"/>
      <path class="cls-8" d="m656.28,1071.15c19.2-19.79,40.31-37.34,58.96-55.89,18.66-18.42,34.69-37.94,45.49-59.99,1.78-3.55,7.88-1,6.53,2.77-18.23,48.29-67.08,79.46-109.01,116.8-2.96,2.61-4.84-.62-1.98-3.68t0,0Z"/>
      <path class="cls-8" d="m642.69,1081.37c19.01-24.67,41.92-46.36,59.05-70.29,10.85-15.22,18.95-31.41,22.2-48.27.8-3.84,7.37-4.01,7.09-.13-3.17,35.63-31.54,65.66-59.3,93.48-9.24,9.33-18.39,18.8-27.11,28.53-2.7,2.95-4.48.1-1.93-3.32t0,0Z"/>
      <path class="cls-8" d="m633.07,1089.28c14.09-23.41,32.19-44.69,44.8-66.98,7.37-13.13,11.95-26.63,11.71-39.18-.03-1.58,1.49-3.41,3.4-4.04,1.78-.58,3.26.09,3.46,1.48.68,4.42.56,9.18-.1,14.02-2.13,14.62-10.25,29.53-20.03,43.37-12.99,18.24-28,35.5-41.16,54.09-2.45,3.39-4.36,1.02-2.08-2.76t0,0Z"/>
      <path class="cls-8" d="m622.89,1101.01c7.87-15.14,16.6-30.24,23.46-45.03,7.89-16.89,12.68-33.16,13.81-48.18.3-3.65,6.05-6.69,6.33-3.3,1.15,16.34-5.42,36.13-15.52,55.18-7.89,14.9-17.48,29.78-26.38,44.26-2.22,3.53-3.74,1.03-1.69-2.92h0Z"/>
      <path class="cls-8" d="m614.86,1113.44c9.41-22.94,18.69-45.56,22.51-65.56,1.34-6.74,2.18-13.23,2.54-19.46.23-3.62,5.37-7.48,5.75-4.31,1.21,12.14-1.94,27.28-7.5,42.98-5.59,15.87-13.8,32.81-21.61,48.86-1.9,3.87-3.39,1.74-1.69-2.52h0Z"/>
    </g>
  </g>
  <g>
    <g>
      <path class="cls-8" d="m716.74,869.07c36.32,1.85,70.63,34.87,80.99,70.47.94,3.26-3.89,3.57-5.35.36-5.18-12.25-12.43-23.98-21.61-34.01-9.08-10.1-20.01-18.28-31.69-23.85-7.85-3.7-16.03-6.33-24.35-7.69-3-.51-1.24-5.42,2-5.29h0Z"/>
      <path class="cls-8" d="m728.1,865.67c36.61-.23,69.43,32.11,83.88,66.53.65,1.51.07,2.75-1.29,2.8-1.27.04-2.77-.94-3.51-2.27-4.4-7.95-9.41-15.59-15.03-22.67-11.23-14.16-25.24-25.95-40.91-32.79-7.84-3.42-16.07-5.63-24.45-6.46-3.22-.34-2.07-5.09,1.31-5.14t0,0Z"/>
      <path class="cls-8" d="m743.24,862.92c18.12,1.42,35.97,9.47,51.36,21.82,13.26,10.34,31.33,27.74,42.85,42.52,1.2,1.5,1.67,3.32,1.05,4.03-.58.66-1.89.17-3.05-1.07-14.17-15.18-29.43-28.63-44.69-40.32-14.98-11.54-31.54-19.01-48.67-22.02-3.29-.59-2.28-5.17,1.17-4.95t0,0Z"/>
      <path class="cls-8" d="m756.02,862.18c22.93,1.46,49.99,11.9,69.67,24,12.63,7.17,24,14.85,33.78,23.86,2.48,2.37,3.63,7.91,1.27,6.01-11.23-9.22-25.54-18.04-41.35-26.47-20.02-11.21-42.07-18.78-64.04-22.52-3.39-.62-2.83-5.09.66-4.87t0,0Z"/>
      <path class="cls-8" d="m703.76,875.64c32.51-2.98,65,22.61,75.18,54.23,1.42,4.47,2.55,8.98,3.09,13.46.18,1.44-.98,2.54-2.58,2.51-1.49-.04-2.84-1.05-3.16-2.35-2.05-8.34-5.42-16.49-10.01-23.99-9.25-15.13-23.38-27.24-39.34-33.33-8.01-3.11-16.45-4.8-24.94-4.98-2.98-.09-1.44-5.23,1.76-5.55t0,0Z"/>
      <path class="cls-8" d="m688.13,883.14c36.85-10.62,72.89,23.21,70.8,60.39-.21,3.24-5.57,3.62-5.91.39-.35-4.15-.98-8.26-2.12-12.24-3.14-11.87-9.87-22.8-19.12-30.56-12.39-10.65-28.93-15.05-45.02-12.19-2.93.51-1.73-4.84,1.37-5.78h0Z"/>
      <path class="cls-8" d="m674.19,892.04c33.24-14.98,69.31,12.41,59.61,51.07-.37,1.53-1.95,2.76-3.53,2.79-1.46.03-2.41-1.01-2.24-2.4.97-8.15.25-15.93-2.23-22.77-6.27-17.79-24.46-26.91-41.97-24.96-3.61.29-7.27,1.11-10.88,2.27-2.75.87-1.68-4.64,1.24-6h0Z"/>
      <path class="cls-8" d="m664.3,901.45c26.14-14.17,58.92,4.04,46.43,40.78-.54,1.63-2.18,3-3.65,3.08-1.34.07-2.09-.98-1.79-2.43,1.46-7.33,1.51-14.13-.26-19.81-5.72-18.2-26.14-21.38-42.05-15.37-2.57.99-1.42-4.73,1.32-6.25h0Z"/>
      <path class="cls-8" d="m652.91,913.13c22.92-18.65,42.65.13,36.77,30.58-.3,1.69-1.72,3.49-3.17,4.05-1.31.51-2.2-.18-2.14-1.58.29-9.03-.88-17.03-4.26-22.9-5.47-9.93-17.16-11.15-27.98-3.99-2.43,1.67-1.76-3.87.78-6.17h0Z"/>
      <path class="cls-8" d="m643.84,924.23c18.54-19.01,33.79-.55,29.83,25.7-.55,3.77-4.89,6.84-5,3.51-.2-10.31-2.29-19.25-6.97-24.04-4.59-4.72-11.56-4.62-18.6,1.18-2.21,1.9-1.58-3.78.74-6.35h0Z"/>
    </g>
    <g>
      <path class="cls-8" d="m713.86,877.9c31.05-23.76,60.93-39.38,82.94-53.77,7.37-4.82,14.02-9.46,19.93-14.2.81-.66,2.47.05,3.69,1.59,1.16,1.46,1.51,3.11.87,3.8-20.2,21.74-60.49,37.07-105.25,66.64-3.16,2.02-5.22-1.62-2.19-4.06t0,0Z"/>
      <path class="cls-8" d="m725.69,874.88c41.53-21.81,77.26-35.11,101.83-44.87,2.15-.77,5.81,4.81,4,5.96-22.13,12.57-60.05,24.02-104.22,43.44-3.32,1.39-4.84-2.69-1.6-4.53h0Z"/>
      <path class="cls-8" d="m740.74,872.58c10.05-3.92,19.97-7.09,29.55-9.61,19.34-4.92,36.89-8.66,53.93-5.44,8.55,1.59,16.72,4.49,24.3,8.72,1.15.64,2.47,2.59,2.96,4.31.48,1.67.02,2.5-1.02,1.97-10.58-4.8-22.83-8.12-35.65-8.29-7.65-.28-18.55,1.09-26.89,2.56-14.25,2.37-29.82,5.85-45.69,10.46-3.38.95-4.8-3.3-1.49-4.68h0Z"/>
      <path class="cls-8" d="m701.56,880.51c23.5-20,46.95-35.55,65.58-50.28,14.61-11.42,26.24-22.48,34.75-34.86,1.54-2.15,6.29,2.01,5.13,4.44-15.68,31.12-57.82,50.75-103.49,84.74-3.12,2.25-4.99-1.38-1.98-4.04t0,0Z"/>
      <path class="cls-8" d="m686.34,888.14c19.64-18.93,39.46-35.35,55.37-51.41,15.96-16,27.9-31.82,34.52-49.58,1.1-2.85,6.34-.22,5.65,2.81-9.25,38.44-50.46,65.37-93.88,102.26-3.04,2.53-4.59-1.15-1.65-4.08t0,0Z"/>
      <path class="cls-8" d="m672.63,897.19c20.32-23.56,42.2-43.95,56.78-64.93,9.27-13.41,15.28-27.21,16.95-41.86.43-3.33,5.86-2.77,5.91.61.09,30.72-22.97,56.17-50.49,82.91-9.06,8.84-18.41,18.02-27.66,27.31-2.87,2.82-4.23-.76-1.49-4.03t0,0Z"/>
      <path class="cls-8" d="m662.81,903.72c15.85-22.46,33.81-42.52,45.29-62.86,6.75-12.02,10.49-24.22,10.07-36.13-.05-1.5,1.21-3,2.81-3.3,1.49-.28,2.76.56,2.97,1.88.69,4.22.71,8.64.25,13.1-1.48,13.41-8.45,26.81-17.72,39.68-12.26,16.88-27.56,33.62-42.09,51.36-2.71,3.23-4.14-.11-1.58-3.73h0Z"/>
      <path class="cls-8" d="m652,913.56c9.28-14.26,18.92-28.94,26.22-43.24,8.42-16.36,13.24-32.05,14.69-46.95.38-3.61,5.32-5.34,5.5-1.93.66,16.45-5.57,35.2-16.25,53.76-8.29,14.41-18.86,29.11-29.08,42.52-2.54,3.24-3.48-.47-1.07-4.17t0,0Z"/>
      <path class="cls-8" d="m642.99,924.01c12.07-21.74,23-44.68,27.96-64.95,1.74-6.87,2.95-13.54,3.7-20.04.45-3.75,5.01-6.11,5.15-2.69.3,13.07-3.38,28.23-9.92,43.99-6.53,15.83-16.28,32.96-25.87,47.75-2.33,3.53-3.2-.06-1.01-4.06h0Z"/>
    </g>
  </g>
</svg>