<?xml version="1.0" encoding="UTF-8"?>
<svg id="_жалюзи" data-name="жалюзи" xmlns="http://www.w3.org/2000/svg" viewBox="0 0 1170 2532">
  <defs>
    <style>
      .cls-1 {
        fill: #5e6064;
        stroke-width: 0px;
      }

      .cls-2 {
        fill: #4a4c59;
        stroke: #42424d;
      }

      .cls-2, .cls-3, .cls-4 {
        stroke-linecap: round;
        stroke-linejoin: round;
        stroke-width: 10px;
      }

      .cls-3 {
        stroke: #4c4c55;
      }

      .cls-3, .cls-4 {
        fill: none;
      }

      .cls-4 {
        stroke: #3d424d;
      }
    </style>
  </defs>
  <g>
    <g>
      <path class="cls-1" d="m1174.8,656.9c2.17-4.99,4.34-9.98,6.51-14.99.8-1.83-.23-3.95-2.15-4.43-162.67-40.71-308.8-77.27-440.77-110.3-1.82-.46-3.65.72-4,2.57l-2.35,12.3c-.32,1.69.71,3.33,2.37,3.76,130.85,33.84,275.61,71.28,436.65,112.93,1.52.39,3.11-.39,3.75-1.85Z"/>
      <path class="cls-1" d="m1174,695.06c2.16-4.94,4.32-9.89,6.49-14.85.8-1.82-.21-3.92-2.11-4.42-162.49-42.72-308.46-81.1-440.31-115.77-1.83-.48-3.69.7-4.04,2.56l-2.34,12.22c-.32,1.67.69,3.31,2.33,3.75,130.72,35.47,275.34,74.7,436.2,118.34,1.53.41,3.14-.36,3.78-1.83Z"/>
      <path class="cls-1" d="m1172.37,732.8c2.15-4.9,4.3-9.8,6.46-14.71.79-1.81-.19-3.9-2.07-4.42-162.22-44.7-307.96-84.86-439.63-121.14-1.84-.51-3.72.67-4.08,2.55l-2.33,12.14c-.32,1.66.67,3.28,2.29,3.74,130.54,37.06,274.94,78.06,435.53,123.66,1.54.44,3.17-.34,3.82-1.82Z"/>
      <path class="cls-1" d="m1172.39,771.18c2.14-4.85,4.29-9.71,6.45-14.58.79-1.79-.16-3.88-2.02-4.41-162.12-46.73-307.79-88.72-439.39-126.66-1.85-.53-3.76.65-4.12,2.54l-2.33,12.06c-.32,1.65.65,3.26,2.26,3.73,130.48,38.7,274.81,81.51,435.31,129.12,1.54.46,3.19-.31,3.85-1.8Z"/>
      <path class="cls-1" d="m1173.08,809.53c2.14-4.81,4.28-9.63,6.43-14.45.79-1.78-.14-3.85-1.98-4.41-162.1-48.77-307.75-92.6-439.34-132.19-1.86-.56-3.79.62-4.16,2.53l-2.32,11.99c-.32,1.63.63,3.23,2.22,3.72,130.47,40.34,274.79,84.97,435.27,134.59,1.55.48,3.22-.29,3.89-1.79Z"/>
      <path class="cls-1" d="m1173.93,848.53c2.14-4.77,4.28-9.54,6.42-14.32.79-1.77-.12-3.83-1.94-4.4-162.09-50.85-307.74-96.53-439.33-137.81-1.86-.58-3.82.59-4.2,2.52l-2.31,11.92c-.31,1.62.62,3.2,2.18,3.71,130.48,42.02,274.79,88.49,435.27,140.17,1.55.5,3.24-.26,3.92-1.77Z"/>
      <path class="cls-1" d="m1173.13,886.38c2.13-4.72,4.26-9.45,6.39-14.19.79-1.76-.1-3.81-1.9-4.4-161.91-52.83-307.41-100.3-438.88-143.2-1.87-.61-3.86.57-4.23,2.51l-2.31,11.83c-.31,1.6.6,3.18,2.14,3.7,130.35,43.62,274.52,91.86,434.83,145.5,1.56.52,3.27-.24,3.95-1.75Z"/>
      <path class="cls-1" d="m1171.51,923.75c2.12-4.67,4.24-9.35,6.37-14.04.79-1.74-.08-3.78-1.86-4.39-161.64-54.77-306.91-104-438.19-148.48-1.88-.64-3.89.54-4.27,2.5l-2.29,11.75c-.31,1.59.58,3.15,2.1,3.68,130.17,45.19,274.12,95.16,434.16,150.72,1.56.54,3.29-.21,3.99-1.74Z"/>
      <path class="cls-1" d="m1171.54,961.87c2.11-4.63,4.23-9.27,6.35-13.91.79-1.73-.06-3.76-1.82-4.38-161.54-56.77-306.74-107.81-437.96-153.92-1.88-.66-3.92.52-4.31,2.49l-2.29,11.67c-.31,1.58.56,3.13,2.07,3.67,130.11,46.81,273.99,98.57,433.94,156.11,1.57.56,3.32-.18,4.02-1.72Z"/>
      <path class="cls-1" d="m1172.23,1000c2.11-4.59,4.22-9.18,6.33-13.78.79-1.72-.04-3.74-1.78-4.38-161.52-58.79-306.7-111.64-437.91-159.4-1.89-.69-3.95.49-4.34,2.47l-2.28,11.59c-.31,1.56.55,3.11,2.03,3.66,130.11,48.44,273.97,101.99,433.9,161.53,1.57.58,3.34-.16,4.05-1.7Z"/>
    </g>
    <g>
      <path class="cls-3" d="m1173.7,659.43c3.04-6.99,6.08-14,9.13-21.03-165.53-41.42-313.95-78.56-447.8-112.06-1.19,6.24-2.39,12.48-3.58,18.71,132.33,34.22,278.94,72.14,442.24,114.37Z"/>
      <path class="cls-3" d="m1172.88,697.61c3.03-6.94,6.07-13.9,9.12-20.88-165.34-43.47-313.6-82.45-447.32-117.61-1.19,6.22-2.38,12.43-3.57,18.64,132.21,35.87,278.65,75.6,441.77,119.85Z"/>
      <path class="cls-3" d="m1171.23,735.38c3.03-6.89,6.06-13.8,9.1-20.72-165.06-45.48-313.09-86.28-446.61-123.07-1.19,6.19-2.38,12.38-3.57,18.56,132.01,37.48,278.23,79,441.08,125.23Z"/>
      <path class="cls-3" d="m1171.24,773.78c3.03-6.84,6.06-13.7,9.1-20.58-164.95-47.55-312.91-90.2-446.36-128.67-1.19,6.17-2.38,12.33-3.57,18.49,131.95,39.14,278.09,82.48,440.83,130.75Z"/>
      <path class="cls-3" d="m1171.91,812.16c3.03-6.8,6.06-13.61,9.1-20.44-164.92-49.62-312.85-94.13-446.29-134.28-1.19,6.15-2.38,12.29-3.57,18.43,131.93,40.8,278.05,85.98,440.76,136.29Z"/>
      <path class="cls-3" d="m1172.75,851.18c3.02-6.75,6.06-13.52,9.1-20.3-164.9-51.73-312.83-98.13-446.26-139.99-1.19,6.13-2.38,12.25-3.57,18.36,131.93,42.48,278.04,89.53,440.73,141.92Z"/>
      <path class="cls-3" d="m1171.93,889.05c3.02-6.7,6.05-13.42,9.08-20.15-164.71-53.74-312.48-101.96-445.78-145.45-1.19,6.1-2.38,12.2-3.56,18.29,131.8,44.1,277.75,92.94,440.26,147.32Z"/>
      <path class="cls-3" d="m1170.29,926.45c3.02-6.65,6.04-13.32,9.07-20-164.44-55.72-311.97-105.71-445.08-150.81-1.19,6.08-2.37,12.15-3.56,18.21,131.61,45.69,277.34,96.28,439.57,152.6Z"/>
      <path class="cls-3" d="m1170.3,964.59c3.01-6.6,6.03-13.22,9.06-19.86-164.33-57.76-311.79-109.58-444.83-156.34-1.19,6.05-2.37,12.1-3.56,18.14,131.55,47.33,277.19,99.72,439.33,158.05Z"/>
      <path class="cls-3" d="m1170.97,1002.74c3.01-6.56,6.03-13.13,9.06-19.72-164.3-59.8-311.73-113.47-444.76-161.89-1.19,6.03-2.37,12.06-3.56,18.08,131.53,48.97,277.16,103.18,439.26,163.53Z"/>
    </g>
  </g>
  <path class="cls-2" d="m1183.54,599.07c-157.54-38.18-315.09-76.36-472.63-114.53v34.69c155.41,39.21,310.81,78.42,466.22,117.62,2.14-12.59,4.28-25.19,6.42-37.78Z"/>
  <path class="cls-4" d="m1183.54,599.07c-157.54-38.18-315.09-76.36-472.63-114.53v34.69c155.41,39.21,310.81,78.42,466.22,117.62,2.14-12.59,4.28-25.19,6.42-37.78Z"/>
</svg>