<svg xmlns="http://www.w3.org/2000/svg" id="_пица" data-name="пица" viewBox="0 0 1170 2532"><defs><style>.cls-10,.cls-2,.cls-3,.cls-7,.cls-9{stroke-width:0}.cls-12,.cls-2{fill:#ffa000}.cls-12,.cls-14,.cls-15,.cls-16,.cls-19{stroke-linecap:round;stroke-linejoin:round}.cls-12{stroke:#e07900}.cls-12,.cls-19{stroke-width:6px}.cls-3{fill:#bf5400}.cls-14{stroke:#a67f57}.cls-14,.cls-15,.cls-16{fill:none;stroke-width:10px}.cls-15{stroke:#a67c55}.cls-16{stroke:#826239}.cls-7{opacity:.11}.cls-9{fill:#826239;opacity:.69}.cls-10{fill:#c69f6f}.cls-19{fill:#cb3302;stroke:#9f0e00}</style></defs><path d="M208.69 1870.12c3.36 10.86 10.04 26.94 24.24 40.63 29.42 28.37 73.34 27.25 106.22 29.94 61.1 5 72.44-3.16 110.49 7.13 37.23 10.07 58.39 25.43 71.29 32.08 41.72 21.51 130.03-13.41 186.18-66.77 21.38-20.32 35.91-41.08 45.56-57.45a1980.96 1980.96 0 0 1-82.75 17.64c-104.62 19.98-177.67 25.18-203.17 26.73-.56.03-1.16.07-1.3.08-28.43 1.7-61.25 3.58-100.99 1.93-15.28-.64-26.51-1.59-29.96-1.89-11.27-.98-25.25-2.23-42.89-5.24-16.4-2.8-36.89-6.41-61.86-15.85-8.96-3.39-16.18-6.65-21.06-8.97Z" style="fill:#000001;opacity:.08;stroke-width:0"/><path d="M544.18 1719.42c-54.38 34.79-108.77 69.58-163.15 104.37-22.9-39-45.8-77.99-68.7-116.99-13.89-23.65-27.78-47.31-41.67-70.96 55.45-31.15 110.9-62.29 166.35-93.44l86.16 142.32c7.01 11.57 14.01 23.13 21.01 34.7Z" class="cls-10"/><path d="M428.97 1557.17c-46.69 22.69-93.39 45.39-140.08 68.08 19.6 34.1 39.21 68.2 58.81 102.3 60.6-28.83 109.23-40.84 124.04-38.5 8.41 1.33 17.11 3.56 17.11 3.56 8.97 2.3 16.45 4.92 22.1 7.13-27.33-47.52-54.65-95.05-81.98-142.57Z" style="opacity:.12;stroke-width:0"/><path d="M424.62 1555.19c4.84-4.8 9.69-9.6 14.53-14.4" class="cls-15"/><path d="m424.62 1555.19 102.24 175.68c5.78-3.2 11.55-6.4 17.33-9.6l-103.44-182.61c-5.38 5.51-10.75 11.02-16.13 16.53Z" style="fill:#9d7850;opacity:.67;stroke-width:0"/><path d="M528.97 1732.77c-49.31 30.34-98.62 60.67-147.94 91.01l-110.37-187.95 154.53-82.8 103.77 179.74Z" class="cls-15"/><path d="M272.13 1638.9c36.49 61.55 72.99 123.09 109.48 184.64 4.61-3.61 9.21-7.22 13.82-10.82-35.72-63.45-71.45-126.9-107.17-190.35-5.38 5.51-10.75 11.02-16.13 16.53Z" style="fill:#a98862;stroke-width:0"/><path d="m395.56 1809.39-110.37-187.95 154.53-82.8c34.82 60.26 69.64 120.51 104.46 180.77-5.66 5-11.33 10-17 15M270.66 1635.84c36.97 62.92 73.93 125.83 110.9 188.75M270.66 1635.84c4.84-4.8 9.69-9.6 14.53-14.4" class="cls-14"/><path d="M528.72 1737.01c-48.52 29.5-97.04 59.01-145.56 88.51l1.11 21.49c68.59 31.4 137.18 62.81 205.77 94.21l133.5-123.03c-.64-7.45-1.29-14.91-1.93-22.36-64.29-19.61-128.59-39.21-192.88-58.82Z" style="stroke-width:0;fill:#a17549"/><path d="M529.16 1765.48c9.89 2.61 15.04 10.99 25.27 27.65 8.27 13.47 23.08 37.57 13.19 55.25-3.98 7.11-10.45 10.49-14.26 12.48-3.78 1.97-14.24 7.08-45.98 1.07-15.07-2.85-10.42-2.97-38.5-9.98 0 0-18.05-4.5-41.11-17.94-1.29-.75-3.11-1.85-3.56-3.8-1.73-7.46 19.15-16 44.32-31.01 39.89-23.79 46.25-37.5 60.63-33.71ZM616.46 1766.99c10.35-5.86 19.91 3.2 60.83 16.16 26.48 8.38 31.61 7.48 34.22 13.31 8.91 19.9-37.96 59.46-55.49 68.2-1.01.5-1.99.96-1.99.96-14.8 5.55-27.22 7.51-34.25 7.83-45.52 2.06-51.17.92-54.3-3.68 0 0-1.88-2.61-2.26-6.3-.66-6.46 5.29-13.84 5.29-13.84 2.48-3.08 24.84-30.87 33.68-46.51 12.12-21.45 4.57-30.63 14.26-36.12Z" class="cls-7"/><path d="M529.39 1734.87c.93 7.33 1.86 14.66 2.8 22" class="cls-16"/><path d="M700.14 1812.98c-55.97-18.98-111.93-37.96-167.9-56.94l-124.02 78.93" class="cls-16"/><path d="M529.39 1734.87c.93 7.91 1.86 15.82 2.8 23.73 55.58 18.13 111.17 36.26 166.75 54.38 5.6-6.26 11.2-12.53 16.8-18.79-62.11-19.77-124.23-39.55-186.34-59.32Z" class="cls-9"/><path d="m386.45 1822.74 20.08 12.94c41.88-26.27 83.77-52.54 125.65-78.81l-1.2-21.46c-48.18 29.11-96.36 58.22-144.53 87.33Z" class="cls-9"/><path d="M565.08 1833.44c-38.96-1.29-77.91-2.58-116.87-3.86 3.59-8.85 12.88-28.28 33.75-44.05 18.36-13.87 36.75-18.17 46.1-19.7 12.34 22.54 24.68 45.08 37.01 67.61ZM575.93 1847.84c12.39-7.52 35.43-24.09 49.25-53.82 4.42-9.51 7.05-18.54 8.63-26.4 2.41 1 29.48 12.79 35.54 42.14 4.66 22.56-6.27 40.07-8.63 43.66-28.26-1.86-56.53-3.72-84.79-5.59Z" class="cls-2"/><ellipse cx="489.34" cy="1812.38" class="cls-19" rx="9.84" ry="8.03"/><ellipse cx="631.91" cy="1834.66" class="cls-19" rx="9.84" ry="8.03" transform="rotate(-18.84 631.784 1834.406)"/><ellipse cx="634.8" cy="1805.15" class="cls-19" rx="7.85" ry="5.32" transform="rotate(-63.41 634.759 1805.111)"/><ellipse cx="653.34" cy="1819.98" class="cls-19" rx="8.15" ry="6" transform="rotate(-36.18 653.179 1819.772)"/><ellipse cx="509.1" cy="1790.63" class="cls-19" rx="5.9" ry="7.22" transform="rotate(-84.64 509.063 1790.61)"/><ellipse cx="524.39" cy="1812.25" class="cls-19" rx="7.21" ry="8.82" transform="rotate(-84.64 524.348 1812.22)"/><path d="M565.08 1833.44c-38.96-1.29-77.91-2.58-116.87-3.86 3.59-8.85 12.88-28.28 33.75-44.05 18.36-13.87 36.75-18.17 46.1-19.7 12.34 22.54 24.68 45.08 37.01 67.61Z" style="stroke-width:10px;fill:none;stroke:#e07900;stroke-linecap:round;stroke-linejoin:round"/><ellipse cx="532.32" cy="1790.45" class="cls-19" rx="4.64" ry="5.68" transform="rotate(-68.56 532.283 1790.415)"/><path d="M555.95 1838.64c-2.48 2.09-6.72 3.43-9 1.76-2.14-1.57-.57-4.34-3.07-9-1.9-3.53-3.79-3.84-3.61-5.47.31-2.82 7.02-5.84 12.48-3.98.85.29 4.49 1.67 6.05 5.5 1.6 3.94.25 8.58-2.85 11.19Z" class="cls-19"/><path d="M441.14 1827.46c13.36-25.43 32.87-52.06 61.13-61.47 9.43-3.02 18.89-5.38 28.59-7.31 8.48-1.45 11.03 10.72 2.62 12.76-9.01.59-17.97 2.92-25.92 7.25-3.83 2.06-7.56 4.18-11.31 6.28-5.53 3.2-11.05 6.84-16.06 10.84-8.51 6.75-15.66 15.3-20.53 25.03-1.96 3.89-3.59 7.93-4.73 12.09a7.458 7.458 0 0 1-9.18 5.21c-4.56-1.2-6.86-6.57-4.61-10.7Z" class="cls-3"/><path d="M575.93 1847.84c12.39-7.52 35.43-24.09 49.25-53.82 4.42-9.51 7.05-18.54 8.63-26.4 2.41 1 29.48 12.79 35.54 42.14 4.66 22.56-6.27 40.07-8.63 43.66-28.26-1.86-56.53-3.72-84.79-5.59Z" style="stroke-width:9px;fill:none;stroke:#e07900;stroke-linecap:round;stroke-linejoin:round"/><path d="M635.78 1763.02c5.37 2.25 10.74 4.42 15.59 7.62 8.54 6.18 14.34 15.35 19.24 24.52 8.73 16.67 6.33 37.01-1.17 53.67-.93 2.08-1.93 4.15-2.99 6.2-3.21 5.77-11.76 1.39-8.9-4.6 8.79-13.06 9.55-30.32 4.24-44.85-4.25-13.58-10.75-17.49-20.65-26.51-2.74-2.63-6.05-5.29-9.43-6.92-5.62-2.96-1.91-11.32 4.07-9.13Z" class="cls-3"/><ellipse cx="600.78" cy="1835.97" class="cls-19" rx="6.42" ry="5.22" transform="rotate(-37.83 600.643 1835.801)"/><path d="m586.97 1916.69 3.06 24.53c44.03-40.08 88.06-80.15 132.1-120.23-.53-8-1.07-16-1.6-23.99l-133.56 119.7Z" class="cls-10"/><path d="M386.23 1846.18c67.18 30.92 134.36 61.85 201.54 92.77-1.12-6.67-2.24-13.34-3.37-20.01l-201.24-93.42c1.02 6.89 2.04 13.77 3.07 20.66Z" style="fill:#aa8760;stroke-width:0"/><path d="m381.03 1823.78 3.24 23.22M586.97 1916.69l2.04 23.36M721.6 1795.83c.63 7.18 1.25 14.36 1.88 21.53M384.27 1847c68.59 31.4 137.18 62.81 205.77 94.21l133.5-123.03" class="cls-14"/><path d="M529.57 1732.59c-49.32 30.32-98.65 60.64-147.97 90.96 68.59 31.4 137.18 62.81 205.77 94.21l133.56-122.37c-63.79-20.93-127.57-41.87-191.36-62.8Z" class="cls-14"/><path d="M632.17 1761.01c16.11 5.76 24.96 11.09 34.11 26.1 7.94 12.51 12.19 28.27 8.08 42.82a5.035 5.035 0 0 1-6.18 3.51 5.015 5.015 0 0 1-3.67-5.23c.77-10.62-.56-21.19-5.96-30.37-3.82-6.63-9.92-11.25-15.69-16.17-1.97-1.85-4.93-4.36-7.05-6.11-2.43-2.05-5-4-7.82-5.46-5.51-3.05-1.74-11.25 4.17-9.09Z" class="cls-3"/><path d="M615.74 1838.04c-.72 1.59-1.76 3.83-3.07 6.5-3.5 7.16-5.22 10.88-7.52 12.68-4.02 3.14-8.34 3.5-8.21 4.91.13 1.36 4.26 1.97 6.18 2.25 3.01.44 6.82 1 8.88-1.1 1.27-1.29 1.07-2.81 1.43-4.45.61-2.81 2.95-6.52 10.87-10.1M520.45 1851.7c-1.12-.47-2.04.8-6.07 3.08-5.3 3-7.53 2.97-7.54 3.97-.03 2.14 10.08 6.58 13.93 2.48 2.57-2.74 1.75-8.67-.32-9.53ZM576.77 1873.45c-8.61-1.54-12.73-5.98-22.1-5.23-2.41.19-4.3.34-4.51 1.19-.71 2.75 16.19 13.16 31.91 9.64 6.29-1.4 11.91-4.93 11.57-6.08-.37-1.25-7.19 2.21-16.87.48ZM574.43 1802.27c-4.1-2.48-4.07-3.15-7.09-4.62-5.06-2.45-10.43-3.13-10.71-2.38-.11.3.7.63 2.08 1.96 2.11 2.02 2.47 3.42 3.99 5.41 0 0 1.78 2.33 4.75 4.31 6.35 4.23 16.3 2.14 16.5.43.11-.98-3.07-1.21-9.52-5.11Z" class="cls-12"/><path d="M458.64 1902.51c-5.75-8.08-14.83-18.89-27.91-28.05-14.65-10.26-28.41-14.32-37.6-16.07-4.7 9.78-10.5 20.52-17.63 31.61-11.6 18.04-23.45 31.93-33.66 42.34 18.53-4.22 33.53-6.08 43.59-7 21.53-1.97 33.99-.95 51.36-8.86 9.65-4.39 17.08-9.94 21.87-13.97Z" style="stroke-width:10px;stroke-linecap:round;stroke-linejoin:round;fill:#ffa000;stroke:#e07900"/><path d="M389.98 1849.98c7.73.53 15.31 2.74 22.08 6.5 6.74 3.73 14.76 4.71 21.24 8.99 12.56 8.76 21.12 21.75 30.72 33.39 5.34 6.81-4.24 14.85-10.02 8.37-2.03-3.24-3.96-6.54-6.51-9.39-4.3-5.17-9.68-9.36-15.08-13.27-2.72-1.91-5.65-3.45-8.29-5.36-2.77-1.84-5.18-4.11-7.78-6.2-2.63-2.09-5.64-3.64-8.87-4.45-6.6-1.26-12.89-2.67-19.33-3.85-9.12-1.97-7.45-15.08 1.85-14.72Z" class="cls-3"/><ellipse cx="400.61" cy="1885.04" class="cls-19" rx="8.03" ry="7.41" transform="rotate(-27.81 400.576 1884.972)"/><ellipse cx="426.63" cy="1899.56" class="cls-19" rx="9.55" ry="8.04" transform="rotate(-19.02 426.686 1899.688)"/><ellipse cx="400.13" cy="1908.77" class="cls-19" rx="8.18" ry="6.88" transform="rotate(-9.31 400.251 1909.197)"/><ellipse cx="375.16" cy="1911.87" class="cls-19" rx="7.29" ry="6.13" transform="rotate(-32.25 375.06 1911.701)"/><path d="M357.84 1923.1c2.12.95 3.14 2.16 3.68 3.1 2.13 3.69-.8 7.27 1.56 11.12.2.32 1.64 2.61 3.37 2.49.52-.04 1.6-.33 3.59-4.22 2.04-3.99 1.96-5.79 3.46-8.9.67-1.4 1.85-3.46 3.95-5.7M497.72 1917.4c.33-2.36-9.76-5.47-12.15-6.2-2.68-.83-12.04-3.71-13.08-1.65-.88 1.74 4.16 7.1 10.33 9.21 6.73 2.3 14.62.65 14.9-1.35ZM528.69 1959.78c3.58-2.22 4.79-2.1 4.99-3.1.42-2.03-3.82-5.95-7.05-4.84-2.05.7-2.81 3.13-3.05 3.91-.77 2.48-.38 5.78 1.02 6.28.8.28 1.34-.55 4.08-2.25Z" class="cls-12"/></svg>