<?xml version="1.0" encoding="UTF-8"?>
<svg xmlns="http://www.w3.org/2000/svg" xmlns:xlink="http://www.w3.org/1999/xlink" viewBox="0 0 1170 2532">
  <defs>
    <style>
      .cls-1 {
        fill: #d40005;
      }

      .cls-1, .cls-2, .cls-3, .cls-4, .cls-5 {
        stroke-width: 0px;
      }

      .cls-2 {
        fill: #ff6811;
      }

      .cls-3 {
        fill: #fff;
      }

      .cls-4 {
        fill: #c98200;
      }

      .cls-6 {
        stroke: #c8c8c8;
        stroke-linecap: round;
      }

      .cls-6, .cls-7 {
        fill: none;
        stroke-linejoin: round;
        stroke-width: 7px;
      }

      .cls-7 {
        stroke: #8a5100;
      }

      .cls-5 {
        fill: url(#_Безымянный_градиент_19);
      }
    </style>
    <radialGradient id="_Безымянный_градиент_19" data-name="Безымянный градиент 19" cx="399.32" cy="1253.44" fx="399.32" fy="1253.44" r="67.41" gradientUnits="userSpaceOnUse">
      <stop offset="0" stop-color="#c50b00" stop-opacity=".7"/>
      <stop offset=".05" stop-color="#cc291f" stop-opacity=".61"/>
      <stop offset=".16" stop-color="#db6a63" stop-opacity=".43"/>
      <stop offset=".28" stop-color="#e8a09c" stop-opacity=".27"/>
      <stop offset=".4" stop-color="#f2cac7" stop-opacity=".15"/>
      <stop offset=".53" stop-color="#f9e7e6" stop-opacity=".07"/>
      <stop offset=".68" stop-color="#fdf9f9" stop-opacity=".02"/>
      <stop offset=".86" stop-color="#fff" stop-opacity="0"/>
    </radialGradient>
  </defs>
  <g id="_сига" data-name="сига">
    <path class="cls-3" d="m429.5,1145.08c-1.36,3.49-33.68,86.22-37.6,102.7-1.65,6.96-.11,9.93,1.12,11.33,1.89,2.16,5.23,3.07,8.02,2.45,3.98-.89,6.26-5.33,7.6-8.55,4.7-11.26,17.74-52.54,34.22-108.36l-13.37.43Z"/>
    <path class="cls-6" d="m442.88,1144.65c-.62,2.28-3,10.93-6.27,22.52-8.99,31.84-24.77,85.89-29.73,91.07-2.7,2.81-5.83,3.33-5.83,3.33-2.86.47-6.12-.49-8.02-2.45-.77-.8-3.46-3.98-1.36-13.12,3.05-13.32,20.52-57.81,30.66-83.13,3.83-9.58,6.61-16.41,7.17-17.79,4.46-.14,8.92-.28,13.38-.43Z"/>
    <path class="cls-1" d="m393.92,1250.04c1.54-2.7,5.04-3.9,7.9-2.73,3.57,1.46,5.04,6.15,3.03,9.39-1.56,2.51-4.89,3.63-7.66,2.55-3.51-1.37-5.16-5.9-3.27-9.21Z"/>
    <path class="cls-2" d="m399.52,1246.86c.78,0,1.56.14,2.3.44,3.57,1.46,5.04,6.15,3.03,9.39-1.16,1.86-3.3,2.96-5.46,2.96-.75,0-1.5-.13-2.21-.41-3.51-1.37-5.16-5.9-3.27-9.21,1.14-2,3.36-3.18,5.6-3.18m0-6h0c-4.48,0-8.62,2.38-10.81,6.2-1.76,3.08-2.07,6.83-.85,10.29,1.23,3.47,3.83,6.2,7.15,7.49,1.39.54,2.87.82,4.38.82,4.29,0,8.33-2.22,10.55-5.8,1.9-3.06,2.33-6.86,1.18-10.41-1.15-3.54-3.71-6.34-7.04-7.7-1.45-.59-2.98-.89-4.57-.89h0Z"/>
    <path class="cls-4" d="m442.88,1144.65c-.71,2.58-1.42,5.17-2.14,7.77-1.96,7.07-3.96,14.07-5.97,21.02-.04-3.43-2.16-6.5-5.35-7.72-3.13-1.2-6.7-.41-9.03,2.02,2.68-6.74,5.4-13.5,8.14-20.26.28-.7.69-1.7.97-2.4,4.46-.14,8.92-.28,13.38-.43Z"/>
    <path class="cls-7" d="m442.88,1144.65c-.71,2.59-1.42,5.18-2.14,7.77-1.94,7-3.9,13.97-5.87,20.89-.12-3.4-2.28-6.4-5.45-7.6-3.13-1.18-6.69-.39-9.03,2.02,2.68-6.74,5.4-13.5,8.14-20.26.28-.7.69-1.7.97-2.4,4.46-.14,8.92-.28,13.38-.43Z"/>
  </g>
  <g id="_свет_сиги" data-name="свет сиги">
    <circle class="cls-5" cx="399.32" cy="1253.44" r="67.41"/>
  </g>
</svg>