<?xml version="1.0" encoding="UTF-8"?>
<svg xmlns="http://www.w3.org/2000/svg" xmlns:xlink="http://www.w3.org/1999/xlink" viewBox="0 0 1170 2532">
  <defs>
    <style>
      .cls-1 {
        fill: #c6a98f;
        opacity: .81;
      }

      .cls-1, .cls-2, .cls-3, .cls-4, .cls-5 {
        stroke-width: 0px;
      }

      .cls-2 {
        fill: #d40005;
      }

      .cls-6 {
        stroke: #c3a68c;
        stroke-width: 7px;
      }

      .cls-6, .cls-7 {
        fill: none;
        stroke-linecap: round;
        stroke-linejoin: round;
      }

      .cls-3 {
        fill: #ff6811;
      }

      .cls-4 {
        fill: #ffdacc;
      }

      .cls-7 {
        opacity: .44;
        stroke: #c6a98f;
        stroke-width: 4px;
      }

      .cls-5 {
        fill: url(#_Безымянный_градиент_19);
      }
    </style>
    <radialGradient id="_Безымянный_градиент_19" data-name="Безымянный градиент 19" cx="401.01" cy="1249.15" fx="401.01" fy="1249.15" r="80.26" gradientTransform="translate(1000.73 82.31) rotate(45)" gradientUnits="userSpaceOnUse">
      <stop offset="0" stop-color="#c50b00" stop-opacity=".7"/>
      <stop offset=".05" stop-color="#cc291f" stop-opacity=".61"/>
      <stop offset=".16" stop-color="#db6a63" stop-opacity=".43"/>
      <stop offset=".28" stop-color="#e8a09c" stop-opacity=".27"/>
      <stop offset=".4" stop-color="#f2cac7" stop-opacity=".15"/>
      <stop offset=".53" stop-color="#f9e7e6" stop-opacity=".07"/>
      <stop offset=".68" stop-color="#fdf9f9" stop-opacity=".02"/>
      <stop offset=".86" stop-color="#fff" stop-opacity="0"/>
    </radialGradient>
  </defs>
  <g id="_косяк" data-name="косяк">
    <path class="cls-4" d="m429.5,1145.08c-28.91,51.85-46.25,92.47-43.66,102.46,2.17,8.38,7.18,11.57,7.18,11.57,3.07,1.96,6.49,2.31,8.02,2.45,0,0,5.03.47,10.22-1.43,7.2-2.63,20.14-49.93,31.6-115.49l-13.37.43Z"/>
    <path class="cls-7" d="m415.78,1169.37c3.01,4.37,6.34,10.23,8.79,17.58,5.47,16.36,3.5,30.8,1.9,38.26"/>
    <path class="cls-7" d="m406.04,1192.65c6.66,9.11,17.74,27.46,14.55,48.89-.34,2.29-.83,4.49-1.43,6.59"/>
    <path class="cls-6" d="m442.88,1144.65c-.37,1.38-.96,3.64-1.67,6.42-17.35,68.14-15.65,105.05-32.79,110.26-1.44.44-3.9.92-7.37.24-1.8-.17-4.83-.67-8.02-2.45,0,0-3.46-1.93-6-5.16-11.5-14.65,39.45-101.23,39.45-101.23,1.91-3.24,3.49-5.89,4.51-7.6,1.71-.1,3.44-.19,5.2-.26,2.26-.1,4.49-.17,6.69-.22Z"/>
    <path class="cls-2" d="m392.08,1242.9c2.81-5.23,9.19-7.57,14.39-5.3,6.5,2.83,9.18,11.94,5.52,18.22-2.84,4.87-8.92,7.05-13.96,4.96-6.39-2.65-9.4-11.44-5.95-17.87Z"/>
    <path class="cls-3" d="m403.98,1238.92c.87,0,1.76.13,2.72.49.55.21,3.11,1.18,4.1,3.56.48,1.16.22,1.76.18,4.63-.06,4.14.46,4.31.18,5.52-.8,3.48-6.08,6.67-10.46,6.67-1.23,0-2.38-.25-3.35-.81-1.9-1.11-3.21-3.53-4.37-5.67-.52-.97-.94-1.74-1.25-2.85-.25-.88-1.13-4.03.22-6.69,1.65-3.25,5.72-3.94,9.22-4.54.95-.16,1.87-.31,2.81-.31m0-6h0c-1.49,0-2.83.23-3.81.4-4.2.71-10.55,1.79-13.57,7.73-1.6,3.15-1.82,6.86-.65,11.03.5,1.79,1.16,3.01,1.75,4.1,1.46,2.69,3.27,6.04,6.62,7.99,1.86,1.09,4,1.64,6.38,1.64,6.62,0,14.75-4.55,16.31-11.33.37-1.6.22-2.75.12-3.6-.07-.58-.17-1.37-.14-3.18.01-.76.04-1.34.06-1.84.07-1.53.15-3.12-.7-5.17-1.28-3.08-3.95-5.53-7.52-6.88-1.56-.59-3.14-.88-4.84-.88h0Z"/>
    <path class="cls-1" d="m417.56,1170.61c2.52-3.33,6.81-4.75,10.69-3.56,3.52,1.07,6.16,4.13,6.77,7.84,2.26-9.74,4.51-19.49,6.77-29.23-4.1-.19-8.2-.39-12.3-.58-1.59,3.45-3.19,6.91-4.81,10.38-2.37,5.09-4.75,10.14-7.13,15.15Z"/>
    <path class="cls-6" d="m418.4,1168.42c.53-.38,5.3-3.73,10.93-1.9,3.61,1.17,5.55,3.81,6.18,4.75"/>
  </g>
  <g id="_свет_косяка" data-name="свет косяка">
    <circle class="cls-5" cx="401.01" cy="1249.15" r="80.26" transform="translate(-765.83 649.42) rotate(-45)"/>
  </g>
</svg>