<?xml version="1.0" encoding="UTF-8"?>
<svg id="_клава_v0" data-name="клава v0" xmlns="http://www.w3.org/2000/svg" viewBox="0 0 1170 2532">
  <defs>
    <style>
      .cls-1 {
        fill: #babab4;
      }

      .cls-1, .cls-2 {
        stroke-width: 0px;
      }

      .cls-2 {
        fill: #dcdcd6;
      }

      .cls-3 {
        stroke-width: 6px;
      }

      .cls-3, .cls-4 {
        fill: none;
        stroke: #a0a099;
        stroke-linecap: round;
        stroke-linejoin: round;
      }

      .cls-4 {
        stroke-width: 10px;
      }
    </style>
  </defs>
  <path class="cls-1" d="m500.44,1345.09c.18,6.06.36,12.12.53,18.18,21.74,23.52,43.49,47.05,65.23,70.57l.95-.24c.1-6.01.2-12.02.3-18.03l.89,17.73c93.25-27.77,186.49-55.54,279.74-83.31.24-5.94.48-11.88.71-17.82"/>
  <path class="cls-2" d="m504.48,1343.25c22.1,23.84,44.2,47.68,66.3,71.52,93.96-27.95,187.92-55.9,281.88-83.85-24.1-19.58-48.2-39.15-72.29-58.73-91.96,23.68-183.92,47.37-275.88,71.05Z"/>
  <path class="cls-4" d="m500.44,1345.09c.18,6.06.36,12.12.53,18.18,21.74,23.52,43.49,47.05,65.23,70.57l.95-.24c.1-6.01.2-12.02.3-18.03l.89,17.73c93.25-27.77,186.49-55.54,279.74-83.31.24-5.94.48-11.88.71-17.82"/>
  <path class="cls-4" d="m500.61,1344.5c22.1,23.84,44.2,47.68,66.3,71.52,93.96-27.95,187.92-55.9,281.88-83.85-24.1-19.58-48.2-39.15-72.29-58.73-91.96,23.68-183.92,47.37-275.88,71.05Z"/>
  <g>
    <path class="cls-3" d="m528.1,1341.05c20.35,21.7,40.7,43.4,61.05,65.1"/>
    <path class="cls-3" d="m549.84,1334.63c20.35,21.7,40.7,43.4,61.05,65.1"/>
    <path class="cls-3" d="m572.3,1328.22c20.35,21.7,40.7,43.4,61.05,65.1"/>
    <path class="cls-3" d="m593.68,1321.45c20.35,21.7,40.7,43.4,61.05,65.1"/>
    <path class="cls-3" d="m630.41,1331.9c15.79,16.6,31.58,33.2,47.36,49.8"/>
    <path class="cls-3" d="m652.46,1326.97c15.09,15.87,30.18,31.74,45.28,47.6"/>
    <path class="cls-3" d="m674.2,1321.78c14.73,15.38,29.47,30.77,44.2,46.15"/>
    <path class="cls-3" d="m695.97,1316.74c15.08,15.41,30.16,30.82,45.23,46.22"/>
    <path class="cls-3" d="m717.13,1311.88c14.55,14.77,29.11,29.55,43.66,44.32"/>
    <path class="cls-3" d="m720.39,1288.93c20.95,21.12,41.9,42.24,62.85,63.37"/>
    <path class="cls-3" d="m738.55,1283.29c21.79,20.25,43.59,40.5,65.38,60.75"/>
    <path class="cls-3" d="m759.13,1280.05c22.93,18.96,45.85,37.92,68.78,56.88"/>
    <path class="cls-3" d="m610.13,1336.72c40.96-10.71,81.92-21.41,122.88-32.12"/>
    <path class="cls-3" d="m535.61,1375.88c92.43-24.73,184.85-49.47,277.28-74.2"/>
    <path class="cls-3" d="m519.48,1360.39c30.39-7.88,60.78-15.77,91.17-23.65"/>
    <path class="cls-3" d="m730.84,1304.78c21.71-5.63,43.42-11.26,65.12-16.9"/>
    <path class="cls-3" d="m546.49,1394.92c95.03-26.54,190.07-53.08,285.1-79.61"/>
  </g>
</svg>