<?xml version="1.0" encoding="UTF-8"?>
<svg id="_клава_v2" data-name="клава v2" xmlns="http://www.w3.org/2000/svg" viewBox="0 0 1170 2532">
  <defs>
    <style>
      .cls-1, .cls-2 {
        fill: none;
      }

      .cls-1, .cls-2, .cls-3 {
        stroke-linecap: round;
        stroke-linejoin: round;
      }

      .cls-1, .cls-3 {
        stroke: #0f0f0f;
        stroke-width: 4px;
      }

      .cls-4 {
        opacity: .25;
      }

      .cls-4, .cls-5, .cls-6, .cls-7 {
        stroke-width: 0px;
      }

      .cls-5 {
        opacity: .2;
      }

      .cls-6 {
        fill: #333;
      }

      .cls-2 {
        stroke: #141414;
        stroke-width: 10px;
      }

      .cls-3 {
        fill: #454545;
      }

      .cls-7 {
        fill: #282828;
      }
    </style>
  </defs>
  <path class="cls-7" d="m500.44,1345.09c.18,6.06.36,12.12.53,18.18,21.74,23.52,43.49,47.05,65.23,70.57l.95-.24c.1-6.01.2-12.02.3-18.03l.89,17.73c93.25-27.77,186.49-55.54,279.74-83.31.24-5.94.48-11.88.71-17.82"/>
  <path class="cls-5" d="m571.19,1432.06c-.12-4.4-.24-8.79-.36-13.19,91.84-26.85,183.68-53.7,275.52-80.55v11.41c-91.72,27.45-183.45,54.89-275.17,82.34Z"/>
  <path class="cls-6" d="m501.92,1350.44c22.26,22.97,44.51,45.94,66.77,68.91,92.59-27.41,185.19-54.81,277.78-82.22-23.21-19.64-46.42-39.29-69.62-58.93-91.64,24.08-183.29,48.16-274.93,72.24Z"/>
  <path class="cls-2" d="m500.85,1349.49c.04,4.59.08,9.19.12,13.78,21.74,23.52,43.49,47.05,65.23,70.57l.95-.24c.28-4.38.55-8.75.83-13.13.12,4.28.24,8.55.36,12.83,93.25-27.77,186.49-55.54,279.74-83.31.34-4.17.68-8.34,1.01-12.51"/>
  <g id="_Слой_157" data-name="Слой 157">
    <g>
      <path class="cls-1" d="m728,1313.36c.15.2.47.69.42,1.28-.08.87-.93,1.62-2.13,1.76-30.04,8.04-61.09,16.36-93.21,24.96-2.32.62-5.73-.37-7.61-2.23-1.99-2.45-3.97-4.89-5.96-7.34-.15-.17-.4-.49-.47-.95-.11-.72.24-1.46.89-1.96"/>
      <path class="cls-3" d="m726.15,1314.41l-93.75,25c-2.34.62-5.76-.38-7.65-2.24l-4.27-4.22c-1.91-1.88-1.53-3.91.84-4.53l94.97-24.74c2.17-.57,5.29.47,6.97,2.3l3.76,4.11c1.66,1.82,1.27,3.75-.87,4.32Z"/>
      <path class="cls-1" d="m554.08,1358.56c.7,1.12.7,2.44-.01,3.43-.53.72-1.28,1.04-1.64,1.17l-13.72,3.95c-2.3.66-5.74-.26-7.66-2.06l-5.7-5.37c-.44-.48-1.29-1.56-1.46-3.13-.08-.76.02-1.41.14-1.88"/>
      <path class="cls-3" d="m552.19,1361.08l-13.71,3.93c-2.3.66-5.74-.26-7.65-2.07l-5.7-5.37c-1.93-1.82-1.57-3.8.8-4.42l14.09-3.69c2.24-.59,5.55.37,7.39,2.13l5.43,5.19c1.83,1.75,1.55,3.66-.64,4.29Z"/>
      <path class="cls-1" d="m577.46,1352.24c.69,1.11.71,2.41.01,3.38-.51.71-1.25,1.02-1.6,1.15l-13.39,3.86c-2.25.65-5.62-.27-7.51-2.05l-5.62-5.31c-.44-.48-1.28-1.54-1.46-3.09-.09-.75,0-1.39.12-1.86"/>
      <path class="cls-3" d="m575.64,1354.72l-13.39,3.84c-2.25.65-5.61-.27-7.5-2.06l-5.62-5.31c-1.91-1.8-1.57-3.76.75-4.36l13.76-3.6c2.19-.57,5.43.38,7.24,2.12l5.35,5.13c1.8,1.73,1.54,3.62-.59,4.23Z"/>
      <path class="cls-1" d="m600.56,1346.07c.68,1.09.71,2.38.04,3.33-.49.7-1.21,1.01-1.55,1.13l-13.08,3.77c-2.2.63-5.5-.28-7.36-2.04l-5.54-5.25c-.43-.47-1.26-1.53-1.45-3.05-.09-.74,0-1.37.1-1.83"/>
      <path class="cls-3" d="m598.79,1348.51l-13.07,3.76c-2.2.63-5.5-.28-7.36-2.05l-5.54-5.25c-1.88-1.78-1.56-3.71.7-4.3l13.43-3.52c2.14-.56,5.32.39,7.11,2.11l5.28,5.07c1.78,1.71,1.54,3.57-.55,4.17Z"/>
      <path class="cls-1" d="m622.74,1340.11c.68,1.08.71,2.35.06,3.29-.48.69-1.18.99-1.51,1.11l-12.78,3.69c-2.15.62-5.38-.29-7.22-2.03l-5.46-5.19c-.42-.47-1.25-1.51-1.44-3.01-.09-.73-.02-1.35.09-1.81"/>
      <path class="cls-3" d="m621.02,1342.51l-12.77,3.67c-2.14.62-5.38-.29-7.22-2.04l-5.46-5.19c-1.85-1.76-1.56-3.66.65-4.24l13.13-3.44c2.09-.55,5.21.39,6.97,2.1l5.21,5.02c1.75,1.69,1.53,3.53-.5,4.11Z"/>
      <path class="cls-1" d="m569.22,1371.45c.7,1.12.71,2.45,0,3.43-.52.72-1.27,1.05-1.62,1.18l-13.59,4.03c-2.28.68-5.69-.23-7.6-2.03l-5.68-5.35c-.44-.48-1.29-1.56-1.47-3.13-.09-.76,0-1.41.13-1.89"/>
      <path class="cls-3" d="m567.36,1373.98l-13.58,4.02c-2.28.67-5.69-.23-7.6-2.03l-5.68-5.35c-1.93-1.81-1.58-3.8.77-4.44l13.96-3.77c2.22-.6,5.5.34,7.34,2.09l5.41,5.17c1.82,1.74,1.55,3.66-.61,4.3Z"/>
      <path class="cls-1" d="m592.38,1364.99c.69,1.11.71,2.41.03,3.39-.5.71-1.23,1.03-1.58,1.16l-13.26,3.94c-2.23.66-5.57-.24-7.46-2.02l-5.6-5.29c-.43-.48-1.27-1.54-1.46-3.09-.09-.75,0-1.39.11-1.86"/>
      <path class="cls-3" d="m590.58,1367.48l-13.26,3.92c-2.23.66-5.57-.24-7.45-2.02l-5.6-5.29c-1.9-1.79-1.57-3.76.72-4.37l13.63-3.68c2.17-.59,5.39.35,7.2,2.08l5.33,5.12c1.79,1.72,1.55,3.62-.56,4.24Z"/>
      <path class="cls-1" d="m615.26,1358.68c.68,1.09.72,2.38.05,3.34-.48.7-1.2,1.01-1.53,1.14l-12.95,3.85c-2.18.65-5.45-.25-7.31-2.01l-5.52-5.23c-.43-.47-1.26-1.52-1.45-3.05-.09-.74-.01-1.37.09-1.84"/>
      <path class="cls-3" d="m613.52,1361.13l-12.94,3.83c-2.17.64-5.45-.25-7.31-2.01l-5.52-5.23c-1.87-1.77-1.57-3.71.67-4.31l13.31-3.6c2.12-.57,5.27.36,7.06,2.07l5.26,5.06c1.77,1.7,1.54,3.57-.52,4.18Z"/>
      <path class="cls-1" d="m637.22,1352.59c.68,1.08.72,2.35.08,3.29-.47.69-1.16,1-1.49,1.12l-12.65,3.76c-2.13.63-5.34-.26-7.17-2l-5.45-5.17c-.42-.47-1.24-1.51-1.44-3.01-.1-.73-.02-1.35.08-1.81"/>
      <path class="cls-3" d="m635.53,1355l-12.65,3.75c-2.12.63-5.34-.26-7.17-2l-5.44-5.17c-1.85-1.75-1.56-3.66.62-4.25l13-3.51c2.07-.56,5.17.37,6.93,2.06l5.19,5c1.75,1.68,1.54,3.53-.48,4.12Z"/>
      <path class="cls-1" d="m659.74,1346.04c.68,1.06.72,2.32.08,3.25-.47.68-1.17.99-1.5,1.11l-12.72,3.78c-2.14.63-5.37-.23-7.21-1.94l-5.47-5.09c-.42-.46-1.25-1.48-1.45-2.97-.1-.72-.02-1.34.08-1.79"/>
      <path class="cls-3" d="m658.04,1348.43l-12.72,3.76c-2.14.63-5.37-.24-7.21-1.95l-5.47-5.09c-1.85-1.73-1.57-3.61.63-4.2l13.08-3.53c2.08-.56,5.19.34,6.96,2.01l5.21,4.92c1.75,1.66,1.54,3.48-.48,4.08Z"/>
      <path class="cls-1" d="m681.45,1339.99c.67,1.05.72,2.29.1,3.21-.46.67-1.14.97-1.46,1.09l-12.43,3.69c-2.09.62-5.26-.24-7.07-1.94l-5.39-5.03c-.42-.45-1.23-1.47-1.44-2.94-.1-.71-.03-1.32.06-1.76"/>
      <path class="cls-3" d="m679.8,1342.35l-12.42,3.68c-2.09.62-5.26-.25-7.07-1.94l-5.39-5.03c-1.83-1.71-1.56-3.57.58-4.14l12.77-3.45c2.03-.55,5.09.35,6.83,2l5.14,4.87c1.73,1.64,1.53,3.43-.44,4.02Z"/>
      <path class="cls-1" d="m702.9,1334.07c.67,1.04.72,2.26.12,3.17-.44.66-1.11.96-1.42,1.07l-12.14,3.61c-2.04.61-5.15-.25-6.94-1.93l-5.32-4.98c-.41-.45-1.22-1.45-1.43-2.9-.1-.7-.04-1.3.05-1.74"/>
      <path class="cls-3" d="m701.31,1336.39l-12.13,3.6c-2.04.6-5.15-.26-6.94-1.93l-5.31-4.98c-1.8-1.69-1.56-3.52.54-4.09l12.48-3.37c1.99-.54,4.98.36,6.7,1.99l5.07,4.81c1.7,1.62,1.53,3.39-.4,3.96Z"/>
      <path class="cls-1" d="m723.5,1328.37c.66,1.03.73,2.23.14,3.13-.43.65-1.08.94-1.39,1.06l-11.86,3.53c-1.99.59-5.05-.26-6.81-1.92l-5.24-4.92c-.41-.44-1.2-1.43-1.43-2.86-.11-.69-.05-1.28.04-1.72"/>
      <path class="cls-3" d="m721.96,1330.65l-11.86,3.52c-1.99.59-5.04-.27-6.81-1.92l-5.24-4.92c-1.78-1.67-1.55-3.48.5-4.03l12.2-3.29c1.94-.52,4.88.36,6.58,1.98l5,4.76c1.68,1.6,1.52,3.35-.37,3.91Z"/>
      <path class="cls-1" d="m743.85,1323.1c.63,1,.71,2.16.18,3.01-.39.63-.99.9-1.28,1.01l-11.02,3.29c-1.85.55-4.71-.3-6.39-1.91l-4.97-4.79c-.39-.43-1.15-1.39-1.38-2.77-.11-.67-.07-1.24,0-1.65"/>
      <path class="cls-3" d="m742.44,1325.29l-11.02,3.28c-1.85.55-4.71-.31-6.39-1.92l-4.97-4.79c-1.69-1.63-1.5-3.37.4-3.88l11.33-3.07c1.81-.49,4.57.4,6.18,1.97l4.75,4.64c1.6,1.56,1.47,3.25-.28,3.77Z"/>
      <path class="cls-1" d="m762.71,1317.84c.63.99.72,2.13.2,2.98-.38.62-.97.89-1.25.99l-10.79,3.22c-1.81.54-4.63-.31-6.28-1.91l-4.91-4.75c-.38-.43-1.13-1.38-1.37-2.74-.11-.66-.07-1.22,0-1.63"/>
      <path class="cls-3" d="m761.35,1320l-10.79,3.21c-1.81.54-4.62-.31-6.28-1.91l-4.91-4.74c-1.66-1.61-1.5-3.33.37-3.83l11.1-3c1.77-.48,4.48.4,6.07,1.96l4.69,4.59c1.58,1.55,1.47,3.21-.25,3.72Z"/>
      <path class="cls-1" d="m781.39,1312.69c.62.98.72,2.11.21,2.94-.37.61-.94.87-1.22.97l-10.56,3.16c-1.77.53-4.54-.32-6.17-1.9l-4.85-4.7c-.38-.42-1.12-1.36-1.36-2.71-.12-.65-.08-1.21-.02-1.61"/>
      <path class="cls-3" d="m780.07,1314.82l-10.56,3.15c-1.77.53-4.54-.32-6.17-1.9l-4.85-4.7c-1.64-1.59-1.49-3.29.33-3.78l10.86-2.94c1.73-.47,4.4.41,5.97,1.95l4.63,4.55c1.56,1.53,1.46,3.17-.22,3.67Z"/>
      <path class="cls-1" d="m799.37,1307.7c.62.96.72,2.09.23,2.91-.36.6-.92.86-1.19.96l-10.35,3.1c-1.74.52-4.46-.32-6.07-1.89l-4.79-4.65c-.38-.42-1.11-1.35-1.35-2.68-.12-.64-.09-1.19-.03-1.59"/>
      <path class="cls-3" d="m798.08,1309.81l-10.34,3.08c-1.74.52-4.46-.33-6.07-1.89l-4.79-4.65c-1.62-1.58-1.48-3.25.3-3.74l10.64-2.88c1.7-.46,4.32.41,5.87,1.94l4.57,4.5c1.54,1.52,1.46,3.14-.19,3.63Z"/>
      <path class="cls-1" d="m584.15,1384.43c.72,1.11.72,2.45-.03,3.45-.55.74-1.33,1.08-1.7,1.22l-14.23,4.32c-2.39.73-5.95-.12-7.93-1.89l-5.89-5.27c-.46-.48-1.33-1.54-1.51-3.12-.08-.76.02-1.42.15-1.9"/>
      <path class="cls-3" d="m582.18,1387.02l-14.23,4.3c-2.39.72-5.94-.12-7.92-1.89l-5.89-5.27c-2-1.79-1.61-3.8.84-4.48l14.62-4.06c2.33-.65,5.75.24,7.65,1.97l5.61,5.1c1.89,1.72,1.59,3.66-.68,4.34Z"/>
      <path class="cls-1" d="m607.1,1377.83c.69,1.11.72,2.42.05,3.39-.49.72-1.22,1.04-1.56,1.17l-13.14,4.02c-2.21.68-5.53-.21-7.41-1.98l-5.58-5.27c-.43-.48-1.27-1.54-1.46-3.09-.09-.75,0-1.39.1-1.87"/>
      <path class="cls-3" d="m605.33,1380.34l-13.13,4c-2.21.67-5.53-.21-7.4-1.99l-5.58-5.27c-1.89-1.79-1.58-3.76.69-4.39l13.5-3.77c2.15-.6,5.34.32,7.15,2.05l5.32,5.1c1.79,1.72,1.55,3.62-.54,4.26Z"/>
      <path class="cls-1" d="m629.76,1371.38c.68,1.09.72,2.38.07,3.35-.48.7-1.18,1.02-1.52,1.15l-12.83,3.93c-2.15.66-5.41-.22-7.26-1.97l-5.5-5.21c-.43-.47-1.26-1.52-1.46-3.05-.1-.74-.02-1.37.08-1.84"/>
      <path class="cls-3" d="m628.05,1373.85l-12.82,3.91c-2.15.66-5.41-.22-7.26-1.98l-5.5-5.21c-1.87-1.77-1.57-3.71.64-4.33l13.18-3.68c2.1-.59,5.23.33,7.01,2.04l5.24,5.04c1.76,1.7,1.55,3.57-.5,4.19Z"/>
      <path class="cls-1" d="m651.52,1365.16c.68,1.08.72,2.35.09,3.3-.46.69-1.15,1.01-1.48,1.13l-12.53,3.84c-2.1.65-5.3-.23-7.13-1.97l-5.43-5.16c-.42-.46-1.24-1.5-1.45-3.01-.1-.73-.03-1.36.07-1.82"/>
      <path class="cls-3" d="m649.86,1367.59l-12.53,3.83c-2.1.64-5.3-.24-7.12-1.97l-5.42-5.15c-1.84-1.75-1.57-3.66.6-4.26l12.88-3.59c2.05-.57,5.13.34,6.88,2.03l5.17,4.99c1.74,1.68,1.54,3.53-.45,4.14Z"/>
      <path class="cls-1" d="m673.83,1358.47c.68,1.06.73,2.32.09,3.26-.47.69-1.16,1-1.49,1.12l-12.6,3.86c-2.12.65-5.33-.2-7.16-1.91l-5.45-5.07c-.42-.46-1.25-1.48-1.45-2.97-.1-.72-.03-1.34.07-1.79"/>
      <path class="cls-3" d="m672.15,1360.88l-12.6,3.84c-2.12.65-5.33-.21-7.16-1.91l-5.45-5.07c-1.85-1.72-1.57-3.61.6-4.22l12.95-3.61c2.06-.58,5.15.31,6.92,1.98l5.19,4.91c1.75,1.65,1.55,3.48-.46,4.09Z"/>
      <path class="cls-1" d="m695.33,1352.29c.67,1.05.73,2.29.11,3.22-.45.68-1.13.98-1.45,1.1l-12.31,3.77c-2.07.63-5.22-.22-7.03-1.9l-5.38-5.02c-.42-.45-1.23-1.46-1.44-2.93-.1-.71-.04-1.32.05-1.77"/>
      <path class="cls-3" d="m693.71,1354.66l-12.3,3.75c-2.07.63-5.22-.22-7.02-1.91l-5.37-5.01c-1.82-1.7-1.57-3.57.56-4.16l12.66-3.53c2.02-.56,5.05.32,6.79,1.97l5.12,4.85c1.72,1.63,1.54,3.44-.42,4.03Z"/>
      <path class="cls-1" d="m716.59,1346.24c.67,1.04.73,2.26.13,3.17-.44.67-1.09.97-1.41,1.08l-12.02,3.68c-2.02.62-5.11-.23-6.89-1.9l-5.3-4.96c-.41-.45-1.22-1.45-1.44-2.9-.11-.7-.05-1.3.04-1.75"/>
      <path class="cls-3" d="m715.02,1348.58l-12.02,3.67c-2.02.62-5.11-.23-6.89-1.9l-5.3-4.96c-1.8-1.68-1.56-3.52.52-4.1l12.36-3.45c1.97-.55,4.95.33,6.66,1.96l5.05,4.8c1.7,1.61,1.53,3.39-.38,3.98Z"/>
      <path class="cls-1" d="m737,1340.41c.66,1.03.73,2.23.15,3.13-.42.66-1.07.95-1.37,1.07l-11.75,3.6c-1.97.61-5.01-.24-6.77-1.89l-5.23-4.91c-.41-.44-1.2-1.43-1.43-2.86-.11-.69-.06-1.29.03-1.72"/>
      <path class="cls-3" d="m735.48,1342.71l-11.75,3.59c-1.97.6-5.01-.24-6.76-1.89l-5.22-4.91c-1.77-1.66-1.55-3.48.48-4.04l12.09-3.37c1.93-.54,4.85.34,6.54,1.95l4.98,4.75c1.68,1.6,1.53,3.35-.35,3.92Z"/>
      <path class="cls-1" d="m757.16,1335.02c.63,1,.72,2.16.19,3.02-.38.63-.98.91-1.27,1.02l-10.92,3.36c-1.83.56-4.68-.28-6.35-1.88l-4.96-4.78c-.39-.43-1.14-1.39-1.38-2.77-.11-.67-.07-1.24,0-1.66"/>
      <path class="cls-3" d="m755.78,1337.23l-10.92,3.35c-1.83.56-4.68-.28-6.34-1.89l-4.96-4.78c-1.68-1.62-1.51-3.37.38-3.89l11.23-3.13c1.79-.5,4.53.37,6.14,1.94l4.73,4.63c1.59,1.56,1.48,3.25-.26,3.78Z"/>
      <path class="cls-1" d="m775.85,1329.65c.63.98.72,2.14.21,2.98-.37.62-.96.89-1.23,1l-10.69,3.29c-1.79.55-4.59-.28-6.24-1.88l-4.9-4.73c-.38-.43-1.13-1.37-1.37-2.74-.12-.66-.08-1.22-.01-1.64"/>
      <path class="cls-3" d="m774.51,1331.82l-10.69,3.28c-1.79.55-4.59-.29-6.24-1.88l-4.89-4.73c-1.66-1.6-1.5-3.33.35-3.84l11-3.07c1.75-.49,4.45.38,6.03,1.93l4.67,4.58c1.57,1.54,1.47,3.21-.23,3.73Z"/>
      <path class="cls-1" d="m794.36,1324.38c.62.97.72,2.11.23,2.95-.36.61-.93.88-1.2.98l-10.47,3.22c-1.76.54-4.51-.29-6.13-1.87l-4.83-4.68c-.38-.42-1.12-1.36-1.36-2.71-.12-.65-.09-1.21-.03-1.62"/>
      <path class="cls-3" d="m793.06,1326.52l-10.46,3.21c-1.76.54-4.5-.3-6.13-1.87l-4.83-4.68c-1.64-1.59-1.49-3.29.31-3.79l10.76-3c1.72-.48,4.37.38,5.93,1.92l4.62,4.53c1.55,1.53,1.47,3.17-.2,3.68Z"/>
      <path class="cls-1" d="m812.18,1319.28c.62.96.72,2.09.24,2.91-.35.6-.91.87-1.18.97l-10.25,3.16c-1.72.53-4.42-.3-6.03-1.86l-4.77-4.64c-.37-.42-1.11-1.35-1.36-2.68-.12-.64-.09-1.19-.04-1.6"/>
      <path class="cls-3" d="m810.91,1321.39l-10.25,3.15c-1.72.53-4.42-.3-6.03-1.86l-4.77-4.64c-1.62-1.57-1.49-3.25.28-3.75l10.54-2.94c1.68-.47,4.29.39,5.84,1.91l4.56,4.49c1.53,1.51,1.46,3.14-.17,3.64Z"/>
      <path class="cls-1" d="m825.16,1330.63c.62.96.72,2.09.24,2.91-.35.6-.91.87-1.18.97-3.93,1.15-7.86,2.3-11.79,3.45-.85,0-1.52-.12-1.96-.24-1.65-.43-3-1.89-5.64-4.81-.33-.36-.89-1-.77-1.72.05-.32.23-.56.36-.71"/>
      <path class="cls-3" d="m823.53,1332.94l-10.87,3.45c-1.77.56-4.04.18-5.07-.84l-3.02-2.99c-1.01-1-.42-2.26,1.31-2.81l10.64-3.41c1.75-.56,4.02-.22,5.09.78l3.18,2.97c1.09,1.01.52,2.3-1.26,2.86Z"/>
      <path class="cls-1" d="m788.37,1341.39c.64,1,.75,2.17.25,3.03-.36.63-.94.9-1.22,1.01-4.08,1.2-8.17,2.39-12.25,3.59-.89,0-1.58-.13-2.04-.25-1.71-.44-3.12-1.97-5.86-5-.34-.38-.93-1.04-.8-1.79.06-.34.23-.59.37-.74"/>
      <path class="cls-3" d="m786.68,1343.8l-11.29,3.58c-1.84.58-4.2.19-5.27-.87l-3.13-3.11c-1.05-1.04-.43-2.34,1.37-2.92l11.06-3.54c1.82-.58,4.18-.22,5.28.81l3.3,3.08c1.13,1.05.54,2.39-1.31,2.98Z"/>
      <path class="cls-1" d="m769.29,1347.14c.65,1.01.76,2.2.25,3.06-.37.63-.96.91-1.24,1.02-4.13,1.21-8.26,2.42-12.4,3.63-.9,0-1.6-.13-2.06-.25-1.73-.45-3.16-1.99-5.93-5.06-.35-.38-.94-1.05-.81-1.81.06-.34.24-.59.37-.75"/>
      <path class="cls-3" d="m767.58,1349.57l-11.43,3.62c-1.86.59-4.25.19-5.33-.88l-3.17-3.15c-1.06-1.05-.44-2.37,1.38-2.96l11.19-3.58c1.84-.59,4.23-.23,5.35.82l3.34,3.12c1.14,1.07.55,2.42-1.33,3.01Z"/>
      <path class="cls-1" d="m749.65,1352.79c.68,1.05.79,2.27.25,3.17-.39.66-1.01.95-1.31,1.06-4.36,1.27-8.72,2.55-13.07,3.82-.94.01-1.68-.13-2.17-.25-1.82-.46-3.32-2.05-6.23-5.22-.36-.4-.98-1.09-.85-1.87.06-.35.25-.62.4-.78"/>
      <path class="cls-3" d="m747.83,1355.32l-12.05,3.81c-1.96.62-4.48.22-5.61-.89l-3.33-3.25c-1.11-1.09-.45-2.46,1.47-3.07l11.8-3.77c1.94-.62,4.46-.25,5.63.82l3.51,3.22c1.2,1.1.57,2.5-1.41,3.13Z"/>
      <path class="cls-1" d="m728.15,1359.11c.69,1.06.8,2.3.26,3.22-.4.67-1.02.96-1.32,1.08-4.42,1.29-8.83,2.58-13.25,3.87-.96.01-1.71-.13-2.2-.25-1.85-.46-3.36-2.08-6.31-5.29-.37-.4-.99-1.1-.86-1.9.06-.36.26-.62.4-.79"/>
      <path class="cls-3" d="m726.31,1361.67l-12.22,3.86c-1.99.63-4.54.22-5.69-.9l-3.37-3.29c-1.13-1.1-.46-2.49,1.49-3.11l11.96-3.82c1.97-.63,4.52-.26,5.7.83l3.55,3.26c1.21,1.11.57,2.54-1.43,3.17Z"/>
      <path class="cls-1" d="m685.52,1371.73c.74,1.11.84,2.41.25,3.37-.44.71-1.12,1.02-1.45,1.14-4.8,1.4-9.61,2.8-14.41,4.2-1.04.02-1.85-.12-2.38-.24-2-.47-3.62-2.14-6.79-5.48-.4-.42-1.07-1.14-.91-1.98.07-.37.28-.66.45-.83"/>
      <path class="cls-3" d="m683.5,1374.44l-13.29,4.17c-2.16.68-4.92.28-6.16-.89l-3.62-3.42c-1.21-1.14-.47-2.61,1.65-3.28l13.01-4.13c2.14-.68,4.9-.32,6.18.81l3.82,3.38c1.3,1.16.6,2.65-1.59,3.34Z"/>
      <path class="cls-1" d="m664.08,1378.09c.74,1.11.84,2.41.25,3.37-.44.71-1.12,1.02-1.45,1.14-4.8,1.4-9.61,2.8-14.41,4.2-1.04.02-1.85-.12-2.38-.24-2-.47-3.62-2.14-6.79-5.48-.4-.42-1.07-1.14-.91-1.98.07-.37.28-.66.45-.83"/>
      <path class="cls-3" d="m662.19,1380.76l-13.25,4.16c-2.23.7-5.03.26-6.23-.96l-3.46-3.53c-1.14-1.16-.28-2.61,1.88-3.25l12.85-3.81c2.05-.61,4.68-.23,5.91.85l3.74,3.28c1.3,1.14.67,2.61-1.44,3.27Z"/>
      <path class="cls-1" d="m642.55,1384.36c.75,1.13.86,2.45.25,3.44-.45.72-1.14,1.04-1.48,1.16-4.9,1.43-9.79,2.85-14.69,4.28-1.06.02-1.89-.12-2.43-.25-2.04-.48-3.69-2.19-6.92-5.59-.4-.43-1.09-1.17-.93-2.02.07-.38.29-.67.45-.85"/>
      <path class="cls-3" d="m640.65,1387.07l-13.51,4.24c-2.28.72-5.2.31-6.49-.9l-3.79-3.56c-1.27-1.19-.42-2.7,1.86-3.37l13.54-3.96c2.14-.63,4.89-.22,6.15.9l3.77,3.36c1.28,1.15.61,2.62-1.53,3.29Z"/>
      <path class="cls-1" d="m748.17,1306.66c.62.97.7,2.11.18,2.94-.38.61-.97.87-1.25.97l-10.76,3.12c-1.81.52-4.61-.33-6.24-1.91l-4.87-4.7c-.38-.42-1.12-1.36-1.35-2.71-.11-.65-.07-1.2,0-1.61"/>
      <path class="cls-3" d="m746.8,1308.78l-10.76,3.11c-1.81.52-4.6-.33-6.24-1.91l-4.86-4.7c-1.65-1.59-1.47-3.29.38-3.77l11.07-2.9c1.76-.46,4.46.42,6.04,1.96l4.64,4.55c1.56,1.53,1.45,3.17-.27,3.66Z"/>
      <path class="cls-1" d="m766.81,1301.68c.62.96.7,2.08.2,2.9-.37.6-.94.85-1.22.95l-10.54,3.06c-1.77.51-4.52-.33-6.14-1.9l-4.8-4.65c-.38-.42-1.11-1.35-1.34-2.68-.11-.64-.07-1.19,0-1.59"/>
      <path class="cls-3" d="m765.48,1303.77l-10.54,3.05c-1.77.51-4.52-.34-6.13-1.9l-4.8-4.65c-1.63-1.58-1.47-3.25.35-3.72l10.84-2.84c1.73-.45,4.38.42,5.94,1.95l4.59,4.5c1.54,1.52,1.44,3.13-.24,3.62Z"/>
      <path class="cls-1" d="m784.75,1296.86c.61.95.7,2.06.21,2.87-.36.59-.92.84-1.19.94l-10.32,3c-1.73.5-4.44-.34-6.04-1.89l-4.75-4.61c-.37-.41-1.1-1.33-1.33-2.65-.11-.63-.08-1.17-.02-1.57"/>
      <path class="cls-3" d="m783.45,1298.92l-10.32,2.99c-1.73.5-4.44-.34-6.03-1.89l-4.74-4.61c-1.61-1.56-1.46-3.21.32-3.68l10.62-2.78c1.69-.44,4.3.43,5.84,1.94l4.53,4.46c1.53,1.5,1.43,3.1-.21,3.58Z"/>
    </g>
  </g>
  <path class="cls-4" d="m501.92,1350.44c22.26,22.97,44.51,45.94,66.77,68.91,69.98-20.36,139.96-40.71,209.94-61.07-33.7,3.94-77.72,5.66-128.32-1.43-35.56-4.98-66.35-13.19-91.6-21.74-18.93,5.11-37.86,10.22-56.79,15.33Z"/>
  <path class="cls-2" d="m500.85,1349.49c22.1,23.84,44.2,47.68,66.3,71.52,93.96-27.95,187.92-55.9,281.88-83.85-24.1-19.58-48.2-39.15-72.29-58.73-91.96,23.68-183.92,47.37-275.88,71.05Z"/>
</svg>