<?xml version="1.0" encoding="UTF-8"?>
<svg id="_клава_v1" data-name="клава v1" xmlns="http://www.w3.org/2000/svg" viewBox="0 0 1170 2532">
  <defs>
    <style>
      .cls-1 {
        stroke: #828282;
        stroke-width: 10px;
      }

      .cls-1, .cls-2 {
        fill: none;
      }

      .cls-1, .cls-2, .cls-3 {
        stroke-linecap: round;
        stroke-linejoin: round;
      }

      .cls-4 {
        fill: #c8c8c8;
      }

      .cls-4, .cls-5, .cls-6, .cls-7 {
        stroke-width: 0px;
      }

      .cls-5 {
        opacity: .25;
      }

      .cls-6 {
        opacity: .08;
      }

      .cls-2 {
        stroke: #1e1e1e;
        stroke-width: 6px;
      }

      .cls-7 {
        opacity: .6;
      }

      .cls-3 {
        fill: #fff;
        stroke: #8c8c8c;
        stroke-width: 5px;
      }
    </style>
  </defs>
  <path class="cls-4" d="m490.59,1325.13c-1.17,6.67-2.34,13.35-3.5,20.02,10.13,12.38,20.27,24.75,30.4,37.13,20.76,16.26,41.51,32.51,62.27,48.77,44.43-18.69,81.52-27.27,106.92-31.66,45.63-7.88,82.24-7.18,125.47-31.84,15.17-8.66,26.39-17.72,33.27-23.76.2-5.49.41-10.97.61-16.46-26.51-24.42-53.03-48.83-79.54-73.25-21.58-.27-55.33,1.38-94.4,13.01-32.54,9.69-46.61,19.7-83.76,33.15-21.77,7.88-54.79,18.14-97.72,24.89Z"/>
  <path class="cls-5" d="m486.55,1326.97c.18,6.06.36,12.12.53,18.18,23.05,23.88,46.1,47.76,69.15,71.64,7.84,4.75,15.68,9.5,23.52,14.26-.24-4.99-.48-9.98-.71-14.97.24,4.99.48,9.98.71,14.97,31.5-12.79,57.93-20.22,75.92-24.59,66.15-16.09,101.32-11.18,150.42-36.36,19.39-9.94,33.7-20.86,42.42-28.16-.36-4.4-.71-8.79-1.07-13.19-17.24,11.29-39.5,23.68-66.67,34.04-38.1,14.53-72.42,19.92-97.9,21.86-31.66,8.07-63.84,17.22-96.48,27.56-4.46,1.41-8.89,2.84-13.31,4.28-28.85-29.84-57.69-59.69-86.54-89.53Z"/>
  <path class="cls-6" d="m490.59,1325.13c1.68,5.74,3.36,11.49,5.04,17.23,22.97,23.13,45.94,46.26,68.91,69.39,4.75,3.17,9.51,6.34,14.26,9.5.08-3.45.17-5.17.25-5.17.07,0,.15,1.25.22,3.75,32.86-14.86,60.35-23,78.42-27.56,60.83-15.39,94.24-10.46,144.48-33.74,20.52-9.51,35.78-19.99,44.67-26.61-.27-1.53-.54-3.05-.82-4.58-50.76,12.34-120.03,23.49-202.11,20.26-60.08-2.36-111.93-11.83-153.31-22.46Z"/>
  <path class="cls-1" d="m486.55,1326.97c.18,6.06.36,12.12.53,18.18,13.59,16.99,30.09,35.43,49.9,54.06,13.97,13.14,27.67,24.56,40.63,34.47,0-.32,0-.64,0-.96-.06-5.22-.12-10.44-.18-15.65.24,5.5.48,10.99.71,16.49,37.64-17.15,69.49-26.05,91.43-31.01,63.45-14.33,111.4-10.82,162.18-47.05,7.01-5,12.38-9.55,15.68-12.48.24-5.11.48-10.22.71-15.33"/>
  <path class="cls-1" d="m486.73,1326.37c8.52,11.51,18.33,23.6,29.58,35.88,20.95,22.85,41.98,41,60.95,55.25,47.42-20.52,87.37-30.41,115.84-35.64,35.19-6.47,65.88-8.22,106.57-26.38,21.37-9.53,37.75-20.13,48.48-27.8-13.09-14.32-29.01-29.84-48.12-45.27-12.95-10.46-25.56-19.42-37.43-27.09-6.57.73-16.32,1.83-28.16,3.21-27.4,3.18-41.1,4.78-46.69,5.7-31.04,5.14-54.09,13.9-61.31,16.75-12.22,4.83-26.74,11.55-42.42,21.03-32.44,8.12-64.87,16.24-97.31,24.36Z"/>
  <path class="cls-7" d="m768.67,1275.28c-23.93-1.81-59.34-1.63-100.16,9.27-31.67,8.45-56.83,20.75-74.85,31.37-24.48,6.65-48.95,13.31-73.43,19.96,14.49,15.68,28.99,31.37,43.49,47.05,12-3.45,24-6.89,36-10.34,71.88-19.13,143.76-38.26,215.64-57.39-15.56-13.31-31.13-26.61-46.69-39.92Zm-179.29,84.59c-3.41-4.2-6.81-8.4-10.22-12.59,18.38-4.67,36.75-9.35,55.13-14.02,3.56,4.04,7.13,8.08,10.69,12.12-18.53,4.83-37.07,9.66-55.6,14.5Z"/>
  <g>
    <path class="cls-2" d="m556.6,1326.04c14.05,14.99,28.11,29.97,42.16,44.96"/>
    <path class="cls-2" d="m538.43,1332.28c14.05,14.99,28.11,29.97,42.16,44.96"/>
    <path class="cls-2" d="m575.83,1321.19c6.54,6.97,13.08,13.95,19.62,20.92"/>
    <path class="cls-2" d="m606.49,1358.79c3.04,3.24,6.07,6.47,9.11,9.71"/>
    <path class="cls-2" d="m626.98,1351.84c3.04,3.24,6.07,6.47,9.11,9.71"/>
    <path class="cls-2" d="m594.78,1315.38c6.22,6.63,12.44,13.27,18.66,19.9"/>
    <path class="cls-2" d="m610.36,1306.65c15.77,16.81,31.53,33.62,47.3,50.43"/>
    <path class="cls-2" d="m640.42,1314.12c12.15,12.78,24.31,25.56,36.46,38.33"/>
    <path class="cls-2" d="m659.31,1309.89c11.62,12.22,23.24,24.43,34.86,36.65"/>
    <path class="cls-2" d="m677.94,1305.45c11.48,11.99,22.96,23.97,34.44,35.96"/>
    <path class="cls-2" d="m696.59,1301.13c11.67,11.92,23.33,23.84,35,35.76"/>
    <path class="cls-2" d="m714.72,1296.97c11.68,11.86,23.37,23.72,35.05,35.58"/>
    <path class="cls-2" d="m717.51,1277.3c16.39,16.53,32.78,33.05,49.18,49.58"/>
    <path class="cls-2" d="m742.68,1274.73c16.6,15.42,33.2,30.85,49.8,46.27"/>
    <path class="cls-2" d="m623.05,1318.25c35.09-9.17,70.18-18.34,105.27-27.52"/>
    <path class="cls-2" d="m539.57,1357.05c81.56-21.82,163.12-43.65,244.67-65.47"/>
    <path class="cls-2" d="m589.73,1389.16c11.3-3.02,22.6-6.05,33.9-9.07"/>
    <path class="cls-2" d="m633.93,1376.85c16.69-4.46,33.37-8.93,50.06-13.39"/>
    <path class="cls-2" d="m694.28,1359.98c16.69-4.46,33.37-8.93,50.06-13.39"/>
    <path class="cls-2" d="m756.54,1343.11c14.07-3.77,28.15-7.53,42.22-11.3"/>
    <path class="cls-2" d="m810.9,1327.8c3.56-.95,7.12-1.9,10.68-2.86"/>
    <path class="cls-2" d="m526.8,1343.35c32.23-8.36,64.46-16.72,96.7-25.09"/>
    <path class="cls-2" d="m726.46,1290.89c14.28-3.7,28.56-7.41,42.84-11.11"/>
    <path class="cls-2" d="m555.23,1370.44c81.54-21.85,163.08-43.7,244.62-65.56"/>
  </g>
  <path class="cls-2" d="m766.41,1274.33c16.32,13.62,32.63,27.25,48.95,40.87-83.88,22.57-167.76,45.15-251.64,67.72-14.81-15.76-29.62-31.52-44.44-47.29,23.25-5.98,46.49-11.96,69.74-17.94,18.82-10.97,44.81-23.57,77.35-32.44,40.32-10.99,75.49-12.1,100.04-10.93Z"/>
  <ellipse class="cls-3" cx="758.96" cy="1354.98" rx="19.88" ry="5.5" transform="translate(-281.02 201.54) rotate(-12.78)"/>
  <ellipse class="cls-3" cx="721.22" cy="1364.3" rx="11.94" ry="4.14" transform="translate(-284.02 193.42) rotate(-12.78)"/>
  <ellipse class="cls-3" cx="790.62" cy="1345.07" rx="5.84" ry="4.14" transform="translate(-295.64 225.1) rotate(-13.68)"/>
</svg>