<?xml version="1.0" encoding="UTF-8"?>
<svg xmlns="http://www.w3.org/2000/svg" viewBox="0 0 1170 2532">
  <defs>
    <style>
      .cls-1, .cls-2, .cls-3, .cls-4, .cls-5, .cls-6, .cls-7 {
        stroke-linecap: round;
      }

      .cls-1, .cls-2, .cls-3, .cls-5, .cls-6, .cls-7 {
        stroke-linejoin: round;
      }

      .cls-1, .cls-2, .cls-7 {
        stroke: #828282;
      }

      .cls-1, .cls-3, .cls-4, .cls-5 {
        fill: none;
      }

      .cls-1, .cls-4 {
        stroke-width: 10px;
      }

      .cls-8 {
        fill: #c8c8c8;
      }

      .cls-8, .cls-9, .cls-10, .cls-11 {
        stroke-width: 0px;
      }

      .cls-2 {
        stroke-width: 3px;
      }

      .cls-2, .cls-7 {
        fill: #0a0a0a;
      }

      .cls-3 {
        stroke: #0f0f0f;
      }

      .cls-3, .cls-5, .cls-6 {
        stroke-width: 6px;
      }

      .cls-9 {
        opacity: .22;
      }

      .cls-4 {
        stroke-linejoin: bevel;
      }

      .cls-4, .cls-5, .cls-6 {
        stroke: #1e1e1e;
      }

      .cls-10 {
        opacity: .6;
      }

      .cls-6, .cls-11 {
        fill: #1e1e1e;
      }

      .cls-7 {
        stroke-width: 4px;
      }
    </style>
  </defs>
  <g id="_мышь_v1" data-name="мышь v1">
    <path class="cls-8" d="m430.76,1428.5c-2.25,4.13-6.28,6.1-10.7,8.19-2.57,1.21-4.99,2.1-7.29,2.77-1.33.4-2.63.72-3.89,1-1.6.35-3.14.62-4.64.86-1.2.19-6.65,1.05-13.17.96-17.61-.24-33.37-7.25-34.81-7.9-19.31-8.78-48.27-30.66-43.72-47.35.2-.75.47-1.46.79-2.13,2.9-6.2,10.33-9.54,17.8-12.9,8.58-3.86,17.21-5.42,25.28-5.61,1.27-.03,2.52-.03,3.76,0,19.22.51,34.54,8.28,37.26,9.71,16.78,8.82,24.6,20.52,26.91,24.24.09.15.18.3.28.46,3.38,5.46,11.1,18.59,6.14,27.7Z"/>
    <path class="cls-9" d="m419.14,1434.9c-9.98,6.11-25.11,6.66-27.72,6.78-42.73,1.96-84.34-37.87-78.89-54.65,1.04-3.21,4.36-7.27,15.03-10.04-.43,2.53-.75,6.22,0,10.51,1.85,10.53,8.88,17.13,13.54,21.39,2.82,2.58,10.49,9.11,28.34,15.5,9.13,3.27,22.68,7.14,39.92,8.55,3.26.65,6.52,1.3,9.78,1.95Z"/>
    <path class="cls-1" d="m312.56,1388.05c-4.9,20.89,41.42,56.07,83.64,54.28,3.75-.16,31.93-1.11,37.79-15.58,4.03-9.96-4.57-21.23-9.7-27.96-1.73-2.26-28.57-36.25-70.41-31.5-3.32.38-37.52,4.56-41.32,20.77Z"/>
    <path class="cls-10" d="m408.88,1440.46c-1.6.35-3.14.62-4.64.86-1.2.19-6.65,1.05-13.17.96-17.61-.24-33.37-7.25-34.81-7.9-19.31-8.78-48.27-30.66-43.72-47.35.2-.75.47-1.46.79-2.13,25.41,2.28,38.48,11.05,45.78,19.36,9.4,10.7,12.97,24.65,28.16,31.72,7.67,3.57,15.16,3.72,19.96,3.39.62.29,1.17.66,1.65,1.09Z"/>
    <path class="cls-10" d="m411.68,1436.51c-7.66-13.37-15.33-26.73-22.99-40.1,2.94,1.2,7.08,3.22,11.41,6.59,4.72,3.67,7.37,7.25,12.48,14.26,6.76,9.28,10.11,13.97,8.55,16.75-.52.92-2.24,2.95-9.45,2.5Z"/>
    <path class="cls-5" d="m386.14,1395.29c5.58,6.23,12.07,14.78,17.64,25.84,3.16,6.26,5.45,12.18,7.13,17.47,3.33-.95,6.65-1.9,9.98-2.85-1.72-5.81-5.74-16.53-15.33-26.55-7.05-7.37-14.45-11.58-19.43-13.9Z"/>
    <path class="cls-11" d="m423.46,1437.53c.37,2.75-1.6,5.75-4.36,6.4-.63.18-2.56.76-3.24.94-10.11,2.74-20.75,3.33-31.13,2.37-22.74-2.49-47.47-12.64-63.66-29.13-7.14-7.86-16.02-18.73-13.97-30.28.46-2.9,2.18-5.54,3.78-7.91,0,0,2.85-.02,2.85-.02,2.59-.02,4.98,2.1,7.43,2.46,17.58,2.97,33.94,10.41,44.51,25.3,7.4,8.9,12.53,20.38,23.12,25.71,5.9,3.02,12.69,3.27,19.19,2.79,0,0-1.08.11-1.08.11,2.77-.66,6.07-1.03,9.02-.57,2.75.39,5.13,1.33,7.56,1.84h0Zm-9.66,2.6c-1.39,1.01-2.69,2.64-3.14,4.16-.35,1.15-.52,1.55-1.67,1.75,0,0-.71.14-.71.14l-.37-.03c-7.84-.54-15.59-3.28-22.18-7.56-6.52-3.95-11.57-9.94-15.85-16.08-5.59-7.53-10.89-15.19-18.2-21.1-3.58-2.75-7.59-5.11-11.64-7.24-6.07-3.17-12.79-5.25-19.66-5.69-2.31-.23-4.7,1.55-6.9,1.4l4.33-2.31c-.83,1.38-1.08,2.84-.82,4.75,1.4,6.88,6.83,13.2,11.65,18.39,11.02,11.26,26.24,18.68,41.44,23.19,10.23,3.14,20.94,4.22,31.56,3.29,4.6-.4,9.13-1.29,13.56-2.56,0,0,.95-.28.95-.28l.12-.04c-2.25.6-3.56,3.77-2.47,5.8h0Z"/>
    <path class="cls-4" d="m312.56,1388.05c-4.9,20.89,41.42,56.07,83.64,54.28,3.46-.15,32.03-.82,37.79-15.58,5.86-15-15.29-35.66-26.28-44-13.57-10.3-27.57-13.89-35.88-15.33"/>
    <ellipse class="cls-6" cx="367.05" cy="1382.19" rx="4.58" ry="6.7" transform="translate(-1061.3 1452.8) rotate(-77.96)"/>
    <ellipse class="cls-7" cx="404.02" cy="1412.53" rx="3.53" ry="6.23" transform="translate(-741.11 492.12) rotate(-35.25)"/>
    <ellipse class="cls-2" cx="351" cy="1408.56" rx="2.6" ry="5.22" transform="translate(-967.45 801.15) rotate(-51.27)"/>
    <ellipse class="cls-2" cx="360.2" cy="1418.8" rx="2.03" ry="4.07" transform="translate(-837.59 577.34) rotate(-40.67)"/>
    <ellipse class="cls-7" cx="394.1" cy="1401.56" rx="1.45" ry="1.93" transform="translate(-875.62 689.18) rotate(-45)"/>
  </g>
  <g id="_мышь_v1_провод" data-name="мышь v1 провод">
    <path class="cls-3" d="m417.74,1439.54c5.09,7.42,13.92,18.24,27.86,26.85,26.34,16.27,54.09,14.1,68.2,13.07,38.6-2.81,43.34-19.58,89.11-22.81,10.76-.76,27.82-1.05,45.15,7.84,6.54,3.36,15.72,8.07,20.51,17.62,7.18,14.32,1.81,34.19-12.19,50.81"/>
  </g>
</svg>