<?xml version="1.0" encoding="UTF-8"?>
<svg xmlns="http://www.w3.org/2000/svg" viewBox="0 0 1170 2532">
  <defs>
    <style>
      .cls-1 {
        fill: #babab4;
      }

      .cls-1, .cls-2 {
        stroke-width: 0px;
      }

      .cls-3 {
        stroke-width: 7px;
      }

      .cls-3, .cls-4 {
        stroke: #a0a099;
      }

      .cls-3, .cls-4, .cls-5 {
        fill: none;
        stroke-linecap: round;
        stroke-linejoin: round;
      }

      .cls-2 {
        fill: #dcdcd6;
      }

      .cls-4 {
        stroke-width: 10px;
      }

      .cls-5 {
        stroke: #96968f;
        stroke-width: 6px;
      }
    </style>
  </defs>
  <g id="_мышь_v0" data-name="мышь v0">
    <path class="cls-2" d="m430.99,1426c-1.45,3.83-4.36,6.72-7.92,8.9-9.98,6.11-25.11,6.66-27.72,6.78-39.82,1.81-83.51-33.61-78.89-54.65.31-1.43.85-2.77,1.57-4.02,7.44-13,34.54-16.54,37.4-16.89,39.47-4.78,64.79,29.44,66.42,31.72,4.84,6.78,12.95,18.13,9.14,28.16Z"/>
    <path class="cls-1" d="m423.07,1434.9c-9.98,6.11-25.11,6.66-27.72,6.78-42.88,1.97-84.42-38.44-78.89-54.65.98-2.86,3.89-6.37,12.71-8.79-.17,2.31-.18,5.64.71,9.45.9,3.86,3.37,10.94,15.15,21.21,4.88,4.26,14.15,12.18,29.23,17.82,17.5,6.55,33.28,6.45,42.95,5.52,1.95.89,3.91,1.77,5.86,2.66Z"/>
    <path class="cls-4" d="m316.46,1387.03c-4.62,21.03,39.07,56.46,78.89,54.65,3.54-.16,30.12-1.12,35.64-15.68,3.8-10.03-4.31-21.38-9.15-28.16-1.63-2.28-26.95-36.5-66.42-31.72-3.13.38-35.39,4.6-38.97,20.91Z"/>
    <path class="cls-3" d="m388.69,1398.2c4.09,2.73,9.8,7.27,14.97,14.26,7,9.46,9.61,18.82,10.69,24.24"/>
    <path class="cls-3" d="m363.03,1432.65c.35-2.46,3.67-23.16,22.81-33.74,14.35-7.94,28.45-5.12,32.08-4.28"/>
  </g>
  <g id="_мышь_v0_провод" data-name="мышь v0 провод">
    <path class="cls-5" d="m416.02,1440.02c6.71,7.58,17.64,18.06,33.51,26.38,29.63,15.52,58.09,13.81,68.2,13.07,38.6-2.81,43.34-19.58,89.11-22.81,10.76-.76,27.82-1.05,45.15,7.84,6.54,3.36,15.72,8.07,20.51,17.62,7.18,14.32,1.81,34.19-12.19,50.81"/>
  </g>
</svg>