<?xml version="1.0" encoding="UTF-8"?>
<svg xmlns="http://www.w3.org/2000/svg" viewBox="0 0 1170 2532">
  <defs>
    <style>
      .cls-1 {
        fill: #292929;
        stroke-width: 5px;
      }

      .cls-1, .cls-2, .cls-3 {
        stroke: #0f0f0f;
      }

      .cls-1, .cls-2, .cls-3, .cls-4, .cls-5 {
        stroke-linecap: round;
        stroke-linejoin: round;
      }

      .cls-2 {
        fill: #0f0f0f;
        stroke-width: 4px;
      }

      .cls-3 {
        stroke-width: 6px;
      }

      .cls-3, .cls-4, .cls-5 {
        fill: none;
      }

      .cls-4 {
        stroke: #383838;
        stroke-width: 10px;
      }

      .cls-5 {
        stroke: #242424;
        stroke-width: 7px;
      }

      .cls-6 {
        opacity: .07;
      }

      .cls-6, .cls-7, .cls-8, .cls-9 {
        stroke-width: 0px;
      }

      .cls-6, .cls-8 {
        fill: #fff;
      }

      .cls-7 {
        opacity: .11;
      }

      .cls-8 {
        opacity: .25;
      }

      .cls-9 {
        fill: #525252;
      }
    </style>
  </defs>
  <g id="_мышь_v2" data-name="мышь v2">
    <path class="cls-9" d="m430.76,1428.5c-.73,1.36-1.67,2.48-2.74,3.45-2.19,1.98-4.99,3.33-7.96,4.74-.16.08-.33.15-.49.22-2.39,1.1-4.65,1.92-6.8,2.55-1.33.4-2.63.72-3.89,1-1.6.35-3.14.62-4.64.86-1.2.19-6.65,1.05-13.17.96-17.61-.24-33.37-7.25-34.81-7.9-19.31-8.78-48.27-30.66-43.72-47.35.11-.4.23-.79.38-1.17.12-.33.26-.65.41-.96,2.9-6.2,10.33-9.54,17.8-12.9,5.43-2.44,10.89-3.97,16.21-4.8,3.08-.49,6.11-.74,9.07-.81,1.27-.03,2.52-.03,3.76,0,19.22.51,34.54,8.28,37.26,9.71,16.78,8.82,24.6,20.52,26.91,24.24.09.15.18.3.28.46,3.38,5.46,11.1,18.59,6.14,27.7Z"/>
    <path class="cls-6" d="m430.76,1428.5c-.73,1.36-1.67,2.48-2.74,3.45-2.19,1.98-4.99,3.33-7.96,4.74-.16.08-.33.15-.49.22-1.1-.8-2.19-1.65-3.25-2.53.68-.53,1.73-1.48,2.62-2.93,0,0,.95-1.55,1.36-3.43.64-2.91-6.01-19.79-31.25-34.81-19.89-11.84-34.69-12.61-43.3-11.76-6.85.68-10.17,2.5-11.94,5.16-4.42,6.65,1.79,16.97,2.31,17.83-2.22-2.47-6.26-7.63-8.02-15.33-1.14-4.98-.92-9.26-.53-12.12.6-1.34,1.67-3.27,3.56-4.99,3.13-2.84,7.5-3.41,16.21-4.8,3.08-.49,6.11-.74,9.07-.81,1.27-.03,2.52-.03,3.76,0,19.22.51,34.54,8.28,37.26,9.71,16.78,8.82,24.6,20.52,26.91,24.24.09.15.18.3.28.46,3.38,5.46,11.1,18.59,6.14,27.7Z"/>
    <path class="cls-8" d="m430.84,1428.14c-.73,1.36-1.67,2.48-2.74,3.45-.46-.85-.92-1.71-1.36-2.56.28-.62.79-1.82,1.07-3.39.97-5.48-1.74-10.18-2.85-12.12-19.8-34.3-57.57-39.56-57.57-39.56-6.48-.91-16.82-1.52-29.58,1.42,3.01-3.19,6.23-6.04,9.61-8.54,3.08-.49,6.11-.74,9.07-.81,1.27-.03,2.52-.03,3.76,0,19.22.51,34.54,8.28,37.26,9.71,16.78,8.82,24.6,20.52,26.91,24.24.09.15.18.3.28.46,3.38,5.46,11.1,18.59,6.14,27.7Z"/>
    <path class="cls-7" d="m419.14,1434.9c-9.98,6.11-25.11,6.66-27.72,6.78-42.73,1.96-84.34-37.87-78.89-54.65,1.04-3.21,4.36-7.27,15.03-10.04-.43,2.53-.75,6.22,0,10.51,1.85,10.53,8.88,17.13,13.54,21.39,2.82,2.58,10.49,9.11,28.34,15.5,9.13,3.27,22.68,7.14,39.92,8.55,3.26.65,6.52,1.3,9.78,1.95Z"/>
    <path class="cls-5" d="m378.36,1389.29c7.36,4.94,17.76,13.29,26.73,26.38,5.05,7.36,8.42,14.42,10.69,20.32"/>
    <path class="cls-4" d="m312.56,1388.05c-4.9,20.89,41.42,56.07,83.64,54.28,3.75-.16,31.93-1.11,37.79-15.58,4.03-9.96-4.57-21.23-9.7-27.96-1.73-2.26-28.57-36.25-70.41-31.5-3.32.38-37.52,4.56-41.32,20.77Z"/>
    <path class="cls-1" d="m402.91,1400.29c4.01,4.37,7.29,12.08,4.29,15.77-1.13,1.39-2.76,1.74-3.26,1.85-5.13,1.11-9.96-4.57-12.04-7.03-1.13-1.33-8-9.42-5.18-14.07.78-1.29,2.02-1.84,2.54-2.06,4.57-1.95,10.58,2.2,13.65,5.54Z"/>
    <ellipse class="cls-2" cx="397.57" cy="1405.64" rx="1.71" ry="4.72" transform="translate(-777.22 537.44) rotate(-37.74)"/>
  </g>
  <g id="_мышь_v2_провод" data-name="мышь v2 провод">
    <path class="cls-3" d="m417.74,1439.54c5.09,7.42,13.92,18.24,27.86,26.85,26.34,16.27,54.09,14.1,68.2,13.07,38.6-2.81,43.34-19.58,89.11-22.81,10.76-.76,27.82-1.05,45.15,7.84,6.54,3.36,15.72,8.07,20.51,17.62,7.18,14.32,1.81,34.19-12.19,50.81"/>
  </g>
</svg>