<?xml version="1.0" encoding="UTF-8"?>
<svg id="_Слой_185" data-name="Слой 185" xmlns="http://www.w3.org/2000/svg" viewBox="0 0 1170 2532">
  <defs>
    <style>
      .cls-1 {
        fill: none;
        stroke: #b75207;
        stroke-width: 10px;
      }

      .cls-1, .cls-2 {
        stroke-linecap: round;
        stroke-linejoin: round;
      }

      .cls-3 {
        fill: #ff9200;
      }

      .cls-3, .cls-4, .cls-5 {
        stroke-width: 0px;
      }

      .cls-4 {
        fill: #ff7fa3;
      }

      .cls-5 {
        fill: #ffb514;
      }

      .cls-2 {
        fill: #c90011;
        stroke: #9f0004;
        stroke-width: 8px;
      }
    </style>
  </defs>
  <path class="cls-3" d="m385.71,1103.05c30.18,6.98,73.24,13.56,124.8,10.44,50.88-3.09,92.35-14.55,121.29-24.95.04-.01,9.52.73,9.52.73,0,0-2.12-3.06-2.16-3.12-3.85-5.52-35.41,8.79-35.41,8.79s-34.09,15.46-76.75,20.15c-13.22,1.45-26.87,1.82-26.87,1.82-4.19.12-8.7.16-13.53.08-35.57-.53-70.34-6.65-70.34-6.65-26.51-4.67-35.76-8.73-40.4-3.33-8.5,9.92,8.08,33.37,9.03,34.69,11.3,15.81,26.74,22.03,43.01,28.33,31.68,12.27,61.93,13.32,88.87,14.26,4.93.17,8.44.21,11.41.24,40.07.39,61.91.36,81.51-11.46,12.33-7.44,16.38-15.09,18.06-19.49,1.15-3.03,4.08-11.28.48-18.53-3.93-7.9-12.96-9.16-12.48-13.73.2-1.94,2.39-3.37,6.77-6.23,7.19-4.69,9.57-3.82,13.78-7.6,2.11-1.89,5.63-5.09,6.53-10.34,1.04-6.02-2.04-10.84-2.97-12.19-35.84,8.46-71.68,16.92-107.52,25.38-29.58.12-59.17.24-88.75.36"/>
  <path class="cls-4" d="m403.43,1132.49c2.73,1.9,6.7,4.53,11.64,7.37,14.1,8.09,40.05,20.08,90.53,22.34,16.38.73,90.45,4.05,97.9-18.06.26-.77,1.95-5.78-.48-9.5-4.89-7.5-22.57-3.76-29.94-2.38-56.46,10.57-141.94,1.3-152.32-1.66-1.25-.36-6.78-2.15-12.83-.24-2.12.67-3.69,1.6-4.51,2.14Z"/>
  <path class="cls-2" d="m477.56,1147.46c-3.38.44-5.95,1.11-5.95,1.11-5.78,1.55-8.11,3.72-16.39,4.12-9.05.43-15.74-1.74-23.52-4.28-9.06-2.95-18.04-6-24-14.49-1.13-1.61-1.9-3.06-2.38-4.04,52.43,5.81,79.28,6.95,94.1,6.65,4.43-.09,8.87.06,13.31,0,24.55-.31,32.38-2.09,43.49,2.26,10.3,4.03,11.81,8.8,12.12,9.98.85,3.2.02,7.02-2.14,9.62-.99,1.2-3.81,3.99-21.39,3.56-10.62-.26-17.68-.49-26.73-3.56-6.48-2.2-4.68-2.7-13.54-6.06-14.89-5.64-23.04-5.38-26.97-4.87Z"/>
  <path class="cls-5" d="m560.02,1111.15c42.07-10.07,65.25-16.32,69.62-18.77.59-.33,3.35-2,5.35-.95,1.79.94,2.08,3.61,2.14,4.16.73,6.67-21.7,16.74-30.06,20.32,12.92,3.93,25.87.22,32.55-8.79,4.51-6.09,7.67-16.6,3.33-21.39-1.54-1.69-6.52-5.43-40.87,7.13-18.01,6.58-32.34,13.35-42.06,18.3Z"/>
  <path class="cls-5" d="m607.78,1125.05c1.55.62,10.91,4.57,14.02,14.38,2.41,7.59-.37,14.14-1.43,16.63-7.42,17.52-31.22,20.67-33.27,20.91,4.38.75,13.2,1.61,22.57-2.5,11.26-4.93,24.57-17.56,22.22-31.25-1.84-10.7-13.09-21.07-21.03-19.49-1.24.25-2.27.76-3.09,1.31Z"/>
  <path class="cls-1" d="m385.71,1103.05c2.89.57,7.06,1.36,12.07,2.23,39.67,6.82,132.77,21.68,225.21-18.18,2.96-1.28,6.41-2.82,10.22-4.63,1.09-.08,3.19-.1,5.52.89.61.26,3.65,1.61,5.52,4.81,2.59,4.43,1.11,9.26.75,10.46-2.22,7.28-9.85,11.17-13.67,12.89-75.85,34.14-177.38,23.48-177.38,23.48-1.94-.2-4.04-.43-6.28-.68-4.33-.49-11.11-1.27-16.15-2.04-2.37-.37-19.15-2.85-30.72-6.49-1.21-.38-4.64-1.49-5.23-.53-.43.7.86,2.21,1.31,2.73,13.39,15.66,42.18,24.24,42.18,24.24,8.76,2.8,20.59,6.1,34.81,8.67,26.01,4.72,45.81,4.45,61.66,4.16,7.77-.14,24.76-.7,44.91-5.94,9.93-2.58,20.45-6.26,24.24-14.97.55-1.27,1.91-4.5.86-7.97-1.68-5.6-8.93-9.49-18.31-9.64"/>
  <path class="cls-1" d="m611.47,1119.89c1.14.29,14.02,3.79,18.53,16.4,3.17,8.86.2,16.63-.63,18.64-.97,1.62-2.52,4.02-4.72,6.67-13.33,16.07-33.62,20.99-57.21,23.7-53.14,6.12-96-2.03-101.05-3.03-52.02-10.3-70.74-26.52-76.99-32.5-14.19-13.57-19.1-26.96-18.05-35.13.28-2.18.87-6.8,4.64-9.64,3.71-2.79,8.3-2.19,9.72-1.95"/>
</svg>