<?xml version="1.0" encoding="UTF-8"?>
<svg id="_рот_роз." data-name="рот роз." xmlns="http://www.w3.org/2000/svg" viewBox="0 0 1170 2532">
  <defs>
    <style>
      .cls-1 {
        fill: #ff8ba4;
      }

      .cls-1, .cls-2 {
        stroke-width: 0px;
      }

      .cls-2 {
        fill: #ffc3e0;
      }

      .cls-3 {
        fill: none;
        stroke: #d63c6c;
        stroke-linecap: round;
        stroke-linejoin: round;
        stroke-width: 10px;
      }
    </style>
  </defs>
  <path class="cls-1" d="m654.36,1089.05c.93-2.64,2.49-7.25.16-11.24-3.36-5.74-11.99-5.42-12.52-5.39-23.18,14.06-44.51,22.85-61.03,28.44-31.38,10.62-58.45,14.12-75.72,15.4-17.13,1.27-36.22,2.69-61.31-.71-16.01-2.17-53.5-8.89-73.43-.36-1.39.59-5.4,2.42-8.91,6.42-6.05,6.88-9.02,18.38-4.64,24.96,0,0,0,0,0,0,1.02,3.01,3.35,7.59,10.7,12.83,10.26,7.31,21.27,9.44,62.02,11.4,15.21.73,22.81,1.1,31.01,1.07,16.43-.05,29.5-1.07,47.41-2.85,0,0,51.06-5.08,104.93-18.36,0,0,9.89-2.14,22.32-10.87,8.98-6.31,11.12-11.8,11.61-14.64.15-.82.16-1.42.15-1.75-.12-5.99-3.53-11.46-8.8-14.38-.64-.36-1.31-.67-2.01-.95,3.31-1.77,14.1-7.79,18.06-19.01Z"/>
  <path class="cls-2" d="m646.96,1125.14c-.49,2.84-2.63,8.33-11.61,14.64-6.15,4.33-13.91,7.91-22.32,10.87-2.84-.68-5.25-1.48-7.14-2.19,3.07-.98,22.93-7.43,29.22-17.59.89-1.43,2.58-4.15,2.14-7.6-.59-4.74-4.78-7.58-5.94-8.32.5-.65,2.94-3.71,7-5.94,5.27,2.92,8.68,8.39,8.8,14.38,0,.33,0,.93-.15,1.75Z"/>
  <path class="cls-2" d="m633.21,1111.8c-8.88,4.14-20.26,8.46-33.86,11.41-9.24,2-17.7,2.97-25.07,3.38,18.78-4.67,33.59-10.69,44.14-15.68,13.49-6.38,27.08-14.42,28.34-23.7.13-.96.52-3.8-1.07-5.17-2.96-2.57-10.63,1.88-13.01,3.21-8.09,4.5-23.4,10.97-54.6,20.43.94-1.65,1.91-3.26,2.89-4.82,18.56-6.07,39.06-15.08,61.03-28.44.53-.03,9.16-.35,12.52,5.39,2.21,3.77.87,8.1-.16,11.24-4.07,12.43-15.44,19.67-21.15,22.75Z"/>
  <path class="cls-3" d="m636.3,1108.06c6.4,2.54,10.67,8.61,10.81,15.33.17,8.06-8.18,13.88-11.76,16.4-31.82,22.38-124.75,29.94-124.75,29.94s-63.41,5.16-122.97-4.28c-4.82-.76-17.03-2.95-25.31-12.48-1.71-1.96-5.51-6.46-6.36-13.07-1.37-10.73,6.07-19.23,7.54-20.91,12.55-14.33,40.8-9.15,59.88-6.65,0,0,0,0,0,0,13.68,1.86,32.02,3.61,53.7,3.56,15.14-.03,41.61-.23,73.43-7.13,21.84-4.74,54.8-14.49,91.49-36.36.53-.03,9.16-.34,12.51,5.4,2.33,3.99.78,8.59-.16,11.24-3.96,11.21-14.75,17.23-18.06,19.01-39.63,21.24-86.49,27.45-86.49,27.45-28.04,4.53-61.75,7.62-99.8,6.3-22.62-.78-43.39-3.01-62.02-5.94"/>
</svg>