<?xml version="1.0" encoding="UTF-8"?>
<svg id="_рот_грустн." data-name="рот грустн." xmlns="http://www.w3.org/2000/svg" viewBox="0 0 1170 2532">
  <defs>
    <style>
      .cls-1 {
        fill: none;
        stroke: #b75207;
        stroke-linecap: round;
        stroke-linejoin: round;
        stroke-width: 10px;
      }

      .cls-2 {
        fill: #ff9200;
      }

      .cls-2, .cls-3 {
        stroke-width: 0px;
      }

      .cls-3 {
        fill: #ffb514;
      }
    </style>
  </defs>
  <path class="cls-2" d="m654.36,1089.05c.93-2.64,2.49-7.25.16-11.24-3.36-5.74-11.99-5.42-12.52-5.39-21.97,13.36-42.47,22.37-61.03,28.44-19.75,6.44-37.29,9.55-52.07,11-59.43,5.82-137.73-8.99-160.85,13.19-2.92,2.79-11.35,10.88-11.08,21.51.23,8.55,5.92,14.7,7.49,16.39,13.67,14.77,42.35,10.5,65.23,7.84,37.36-4.34,75.14-3.8,112.63-6.77,6.23-.49,42.2-3.34,70.71-13.37,8.41-2.96,16.17-6.54,22.32-10.87,8.98-6.31,11.12-11.8,11.61-14.64.15-.82.16-1.42.15-1.75-.12-5.99-3.53-11.46-8.8-14.38-.64-.36-1.31-.67-2.01-.95,3.31-1.77,14.1-7.79,18.06-19.01Zm-259.01,56.08c5.53-1.11,13.46-2.52,23.16-3.56l-23.16,3.56Z"/>
  <path class="cls-3" d="m646.96,1125.14c-.49,2.84-2.63,8.33-11.61,14.64-6.15,4.33-13.91,7.91-22.32,10.87-2.84-.68-5.25-1.48-7.14-2.19,3.07-.98,22.93-7.43,29.22-17.59.89-1.43,2.58-4.15,2.14-7.6-.59-4.74-4.78-7.58-5.94-8.32.5-.65,2.94-3.71,7-5.94,5.27,2.92,8.68,8.39,8.8,14.38,0,.33,0,.93-.15,1.75Z"/>
  <path class="cls-3" d="m633.21,1111.8c-8.88,4.14-20.26,8.46-33.86,11.41-9.24,2-17.7,2.97-25.07,3.38,18.78-4.67,33.59-10.69,44.14-15.68,13.49-6.38,27.08-14.42,28.34-23.7.13-.96.52-3.8-1.07-5.17-2.96-2.57-10.63,1.88-13.01,3.21-8.09,4.5-23.4,10.97-54.6,20.43.94-1.65,1.91-3.26,2.89-4.82,18.56-6.07,39.06-15.08,61.03-28.44.53-.03,9.16-.35,12.52,5.39,2.21,3.77.87,8.1-.16,11.24-4.07,12.43-15.44,19.67-21.15,22.75Z"/>
  <path class="cls-1" d="m636.3,1108.06c6.4,2.54,10.67,8.61,10.81,15.33.03,1.48-.19,8.26-11.76,16.4-27.03,19.01-84.96,23.6-93.03,24.24-37.49,2.97-75.27,2.43-112.63,6.77-22.88,2.66-51.56,6.93-65.23-7.84-1.57-1.69-7.26-7.84-7.49-16.4-.28-10.62,8.16-18.72,11.07-21.51,23.12-22.18,101.43-7.37,160.85-13.18,28.67-2.81,67.76-11.87,113.11-39.45.53-.03,9.16-.34,12.51,5.4,2.33,3.99.78,8.59-.16,11.24-3.96,11.21-14.75,17.23-18.06,19.01-39.63,21.24-86.49,27.45-86.49,27.45-47.57,5.23-74.33,5.64-90.19,4.92-3.99-.18-16.01-.83-32.15.34-13.81,1-24.97,2.93-32.12,4.37"/>
</svg>