<?xml version="1.0" encoding="UTF-8"?>
<svg id="_носки" data-name="носки" xmlns="http://www.w3.org/2000/svg" viewBox="0 0 1170 2532">
  <defs>
    <style>
      .cls-1 {
        fill: #c8c8c8;
      }

      .cls-1, .cls-2, .cls-3 {
        stroke-width: 0px;
      }

      .cls-2 {
        fill: #a0a096;
      }

      .cls-4 {
        fill: none;
        stroke: #8c8c8c;
        stroke-miterlimit: 10;
        stroke-width: 10px;
      }

      .cls-3 {
        fill: #b4b4b4;
      }
    </style>
  </defs>
  <path class="cls-1" d="m733.37,1596.73c0,6.05-2.27,13.02-6.19,19.09-2.16,3.35-4.82,6.42-7.88,8.92-.07.05-.12.1-.19.15-3.25,2.59-7.47,3.68-12.11,3.78h-.06c-5.98.12-12.65-1.38-18.81-3.38-3.44-1.11-6.72-2.38-9.63-3.61-.8-.34-1.56-.67-2.29-.99-.49-.21-.98-.43-1.47-.67-.86-.4-1.67-.78-2.42-1.13-.47-.21-.94-.45-1.41-.68-1.4-.69-2.51-1.26-3.24-1.64-15.38-7.89-27.2-18.58-36.14-29.18-5.21-6.17-9.44-12.31-12.81-17.86.19-.9.41-1.96.64-3.15.09-.51.19-1.04.29-1.6.07-.37.14-.76.2-1.15.08-.41.15-.83.22-1.26.06-.41.12-.82.19-1.25.32-2.03.63-4.29.9-6.75.08-.73.16-1.46.23-2.22.06-.55.11-1.12.16-1.69.05-.57.09-1.15.14-1.74.01-.09.02-.18.02-.27.03-.41.06-.83.09-1.26.05-.56.08-1.14.11-1.72.02-.39.04-.79.06-1.2.04-.77.08-1.56.1-2.35.03-.91.06-1.84.07-2.78.03-.95.03-1.92.03-2.9s-.01-1.87-.03-2.83c-.01-1.13-.04-2.29-.1-3.46-.03-.78-.06-1.56-.1-2.35-.1-1.78-.23-3.6-.4-5.44-.05-.66-.12-1.32-.19-1.98-.05-.61-.12-1.22-.2-1.83-.06-.61-.14-1.22-.22-1.84-.07-.61-.15-1.23-.24-1.85-.09-.62-.18-1.25-.27-1.87-.1-.63-.2-1.26-.3-1.89-.31-1.9-.66-3.82-1.06-5.76,5.47,2.55,13.01,5.2,22,6.08,5.25.52,10.99.44,17.1-.63,12.18-2.11,21.53-7.35,27.95-12.17-.28,6.63-.91,12.83-1.73,18.5-1.81,12.5-4.58,22.5-6.73,29.2,17.61,5.67,29.17,14.41,35.58,20.14,5.37,4.8,10.44,9.33,14.15,14.24,3.66,4.83,5.99,10.04,5.99,16.23Z"/>
  <path class="cls-3" d="m728.74,1599.7c-.52,5.37-1.04,10.75-1.56,16.12-.01.06-.01.11-.02.17-1.48,2.67-3.97,6.23-8.05,8.9-3.71,2.42-7.85,3.54-12.11,3.78h-.06c-8.34-.88-19.69-3.05-32.2-8.65,0,0-1.91-.86-3.83-1.81-18.58-9.24-46.99-42.54-52.19-48.68,2.03-9.61,3.7-21.89,3.42-36.12-.21-10.8-1.49-20.33-3.08-28.27,5.47,2.55,13.01,5.2,22,6.08,1.16,25.51-4.99,46.79-7.61,54.98,14.6,19.46,30.24,29.84,39.92,35.17,11.12,6.12,35.3,19.43,48.34,9.65,4.21-3.16,6.1-7.86,7.03-11.32Z"/>
  <path class="cls-2" d="m634.28,1584.97c-.4.4-1.36,1.34-2.75,2.42-5.21-6.17-9.44-12.31-12.81-17.86.88-4.12,2.25-11.38,2.97-20.81,1.45.34,2.8.85,4.04,1.32,2.89,1.09,12.05,4.55,14.85,13.78,3.36,11.09-5.53,20.38-6.3,21.15Z"/>
  <path class="cls-2" d="m686.11,1498.42c-.13,3.08-.35,6.28-.66,9.61-.45,4.75-1.07,9.22-1.78,13.41-6.02,2.84-15.8,6.54-28.36,7.45-15.02,1.09-26.94-2.32-33.6-4.77-.27-3.57-.69-7.36-1.29-11.33-.4-2.66-.86-5.21-1.36-7.65,8.66,4.04,22.52,8.34,39.1,5.45,12.18-2.11,21.53-7.35,27.95-12.17Z"/>
  <path class="cls-2" d="m733.37,1596.73c.73,15.9-12.7,26.92-14.07,28.01-.08.06-.12.1-.19.15-5.52,4.3-14.78,6.51-30.98.4,1.8-5.19,5.73-14.32,14.23-22.85,10.85-10.9,23.01-14.69,28.51-16.04,1.93,4.37,2.39,8.04,2.49,10.33Z"/>
  <path class="cls-4" d="m733.37,1596.73c0,9.39-5.45,20.97-14.07,28.01-.07.05-.12.1-.19.15-13.81,11.02-45.44-5.23-51.44-8.32-24.33-12.49-39.78-31.97-48.95-47.04,1.54-7.22,4.62-24.11,2.99-45.41-.46-6.01-1.3-12.38-2.65-18.98,8.66,4.04,22.52,8.34,39.1,5.45,12.18-2.11,21.53-7.35,27.95-12.17-.89,21.23-5.34,37.95-8.46,47.7,17.61,5.67,29.17,14.41,35.58,20.14,10.66,9.53,20.15,17.99,20.14,30.47Z"/>
  <path class="cls-1" d="m562.21,1647.02c-6.6,5.18-14.82,6.67-23.23,6.12-17.85-1.13-36.55-11.35-42.37-14.54-3.6-1.96-6.96-4.08-10.1-6.29-.02-.02-.03-.03-.05-.04-17.33-12.23-27.96-27.57-34.08-38.51.04-1.45.07-3.03.07-4.75,0-1.02,0-2.11-.02-3.26-.01-.39-.01-.79-.02-1.2-.22-9.92-1.28-23.09-4.66-38.12-.17-.72-.33-1.44-.5-2.16-.35-1.45-.71-2.91-1.1-4.39-.39-1.48-.8-2.97-1.24-4.48-.21-.74-.44-1.49-.66-2.24-.23-.77-.47-1.54-.72-2.32-.23-.71-.46-1.42-.69-2.14-.02-.06-.04-.11-.06-.17,7.16,3.1,17.38,6.4,29.73,7.1,4.68.28,9.67.17,14.91-.45,14.95-1.78,26.72-7.18,34.8-12.12.9,21.21-2.48,38.28-4.97,48.13,15.55,5.42,26.89,12.66,34.42,18.4,12.11,9.23,20.38,15.54,22.37,26.51,2.02,11.16-3.02,24-11.83,30.92Z"/>
  <path class="cls-3" d="m565.85,1642.48c-8.18,10.44-23.81,9.33-33.87,8.61-21.18-1.51-36.94-11.89-45.47-18.78-.02-.02-.03-.03-.05-.04-3.44-2.38-7.04-5.21-10.64-8.58-12.65-11.86-19.55-25.09-23.37-34.68-1.34-22.61-3.88-39.21-5.2-44.74-.33-1.39-1.37-5.36-2.34-8.87-.57-2.07-1.16-4.12-2.07-6.7-.03-.07-.05-.13-.06-.17,7.16,3.1,17.38,6.4,29.73,7.1.54,21.68-3.11,39.76-6.47,52.01,4.85,7.79,12.86,18.73,25.31,28.88,18.87,15.37,54.46,34.23,71.05,21.2,2.82-2.21,6.34-6.33,8.08-14.61.44,4.39.56,12.74-4.63,19.37Z"/>
  <path class="cls-2" d="m472.93,1608.62c-2.09,2.13-4.25,3.46-5.82,4.27-2.22-2.47-4.56-5.35-6.89-8.67-2.69-3.83-4.83-7.5-6.53-10.81-.59-6.93-1.19-13.86-1.78-20.79,2.6-.4,7.25-.73,12.48,1.08,2.17.75,11.96,4.15,14.85,13.78,3.32,11.06-5.47,20.31-6.3,21.15Z"/>
  <path class="cls-2" d="m522.22,1523.06c.16,3.87.2,8,.06,12.38-.16,5.04-.54,9.75-1.05,14.1-7.43,3.29-19.99,7.75-36.14,8.35-15.68.58-28.21-2.72-35.8-5.36-.66-3.44-1.43-7.01-2.32-10.69-1.01-4.18-2.09-8.16-3.21-11.94,7.43,2.85,22.05,7.34,40.65,5.58,17.9-1.69,31.03-8.36,37.8-12.42Z"/>
  <path class="cls-2" d="m574.4,1620.38c.73,15.9-12.7,26.92-14.07,28.01-.08.06-.12.1-.19.15-5.52,4.3-14.78,6.51-30.98.4,1.8-5.19,5.73-14.32,14.23-22.85,10.85-10.9,23.01-14.69,28.51-16.04,1.93,4.37,2.39,8.04,2.49,10.33Z"/>
  <path class="cls-4" d="m562.21,1647.02c-20.77,16.09-56.5-3.44-65.6-8.42-23.46-12.83-37-31.91-44.23-44.84.35-12.89-.28-37.1-9.6-65.23,9.87,4.27,25.56,8.92,44.64,6.65,14.95-1.78,26.72-7.18,34.8-12.12.9,21.21-2.48,38.28-4.97,48.13,6.78,2.36,17,6.55,28.16,13.9,14.83,9.77,26.98,17.77,29.11,31.37,1.72,10.97-3.38,23.65-12.31,30.56Z"/>
</svg>