<?xml version="1.0" encoding="UTF-8"?>
<svg id="_Пепе" data-name="Пепе" xmlns="http://www.w3.org/2000/svg" viewBox="0 0 1170 2532">
  <defs>
    <style>
      .cls-1 {
        fill: #21b83a;
      }

      .cls-1, .cls-2, .cls-3, .cls-4 {
        stroke-width: 0px;
      }

      .cls-2 {
        fill: #3bce51;
      }

      .cls-5 {
        stroke-linecap: round;
        stroke-width: 9px;
      }

      .cls-5, .cls-6 {
        fill: none;
        stroke: #007537;
        stroke-linejoin: round;
      }

      .cls-3 {
        fill: #2ba53a;
      }

      .cls-6 {
        stroke-width: 10px;
      }

      .cls-4 {
        opacity: .13;
      }
    </style>
  </defs>
  <g id="_Слой_4" data-name="Слой 4">
    <path class="cls-1" d="m733.37,1596.73c-.04,9.39-5.5,20.98-14.03,27.98-.08.06-.15.12-.23.18-13.4,10.71-45.73-3.64-63.45-15.49-9.23-6.16-24.31-18.21-36.94-39.87,2.85-13.4,11.03-60.06-15.45-106.46-14.01-24.55-32.35-39.61-44.2-47.76-9.2,2.39-19.2,4.6-29.94,6.41-15.91,2.69-30.66,4.05-43.91,4.6,3.41,4.17,7.45,9.53,11.6,16.04,7.08,11.14,14.46,25.68,19.48,43.52,3.73,13.27,5.44,25.82,5.92,37.18.9,21.21-2.48,38.28-4.97,48.13,15.55,5.42,26.89,12.66,34.42,18.4,7.33,5.59,13.25,10.1,17.23,15.23,2.59,3.34,4.35,6.95,5.14,11.28,2.02,11.16-3.02,24-11.83,30.92-20.61,16.19-57.03-3.73-65.6-8.42-23.46-12.83-37-31.91-44.23-44.84.35-12.89-.28-37.1-9.6-65.23-3.42-10.33-8.01-21.18-14.16-32.19-18.31-32.82-42.25-52.46-56.24-62.31-12.29.87-83.13,4.74-133.39-46.05-47.41-47.92-59.16-126.94-27.94-198.21,3.64-8.35,7.89-16.6,12.74-24.68,4.02-119.74,66.69-209.4,141.47-222.7,14.7-2.62,46.23-5.19,87.87,16.33.23.11.46.23.69.35.15.08.31.16.46.24,3.76-3.69,39.19-37.27,87.58-28.67,17.44,3.1,31.03,10.7,40.6,17.9,4.7,3.54,8.44,6.98,11.18,9.75,1.3,1.3,2.37,2.45,3.22,3.39,35.11-4.01,63.21,13.72,71.41,35.08,1.16,2.99,1.92,6.04,2.25,9.12,2.2,20.22-14.38,36.82-19.37,41.36-.47.42-.83.73-1.07.94-26.53,45.04-29.24,79.95-26.93,103.35,1.07,10.75,3.22,20.43,6.05,29.41,13.36,42.44,41.84,69.3,42.15,119.95.22,34.89-13.34,62.97-23.17,79.49,9.95,12.76,27.08,38.25,34.52,74.91,8.41,41.46-.04,75.16-5.05,90.83,16.99,5.43,28.28,13.77,34.64,19.31,5.11,4.45,10.02,8.73,13.8,13.32,4.41,5.32,7.31,11.06,7.28,17.98Z"/>
    <path class="cls-4" d="m466.04,1587.64c4.85,7.79,12.85,18.73,25.31,28.87,18.87,15.37,54.46,34.23,71.05,21.21,2.82-2.21,6.34-6.33,8.08-14.61.38,3.63.72,12.19-4.63,19.37-7.01,9.39-19.11,10.18-25.76,10.61-25.74,1.67-45.92-14.6-54.84-21.79-17.26-13.91-27.18-30.26-32.8-42.28.06-17.36-2.18-53.85-23.83-92.67-18.31-32.82-42.25-52.46-56.24-62.31-12.29.87-83.13,4.74-133.39-46.05-52.97-53.54-61.42-145.9-15.2-222.89-.88-27.7,1.45-86.35,38.88-142.71,13.56-20.43,51.12-76.98,102.59-79.99,16.55-.97,51.12,2.63,84.74,19.44h0c10.74,7.27,18.32,15.16,23.17,20.94-10.94-4.8-48.56-19.7-92.67-6.24-41.61,12.7-63.18,42.75-73.43,57.03-37.43,52.16-33.39,110.08-31.36,128.31-15.18,91.55,4.96,139.43,27.88,166.42,34.58,40.72,74.3,32.5,122.18,92,36.43,45.26,43.58,85.2,44.91,94.1,4.67,31.1-.23,57.18-4.63,73.25Z"/>
    <path class="cls-3" d="m727.16,1615.99c-1.48,2.67-3.97,6.23-8.05,8.9-13.28,8.69-32,.54-42.9-4.2-28.53-12.42-46.98-34.94-57.49-51.16,2.85-13.4,11.03-60.06-15.45-106.46-13.18-23.1-30.2-37.8-42.03-46.24.18-.48.6-1.77.21-3.34-.49-1.97-1.91-3.01-2.29-3.26,8.28,1.2,20.68,3.96,34.1,11.04,0,0,.74.39,1.42.76,12.35,6.77,30.07,27.54,39.24,52.68,14.6,40.02,3.34,79.59-.48,91.49,14.6,19.46,30.24,29.84,39.92,35.17,11.12,6.12,35.3,19.43,48.34,9.66,4.21-3.16,6.1-7.86,7.03-11.32-.53,5.43-1.05,10.86-1.58,16.29Z"/>
    <path class="cls-2" d="m569.77,1619.55c-1.4-2.14-3.64-5.35-6.78-8.92-4.47-5.08-10.85-11-29.58-21.74-6.5-3.72-15.28-8.49-26.02-13.54,3.24-16.31,6.14-41.07,1.78-70.58-5.38-36.39-19.34-63.39-28.87-78.77,4.81,4.38,10.45,9.83,16.52,16.36,7.08,11.14,14.46,25.68,19.48,43.52,3.73,13.27,5.44,25.82,5.92,37.18.9,21.21-2.48,38.28-4.97,48.13,15.55,5.42,26.89,12.66,34.42,18.4,7.33,5.59,13.25,10.1,17.23,15.23.46,5.3.72,10.22.87,14.73Z"/>
    <path class="cls-2" d="m728.74,1593.17c-5.7-6.99-13.95-15.68-25.31-23.88-13.7-9.9-26.84-15.4-36.36-18.54,4.74-17.39,14.43-59.62,4.28-99.44-3.71-14.57-10.34-30.3-10.34-30.3-2.24-6.78-5.95-15.58-12.24-24.81-4.33-6.35-8.87-11.4-12.88-15.29,6.1-9.16,13.98-23.13,19.25-41.52,1.51-5.26,4.27-15.11,5.17-28.16,2-29.15-6.87-51.92-11.88-64.4-6.14-15.27-7.44-12.49-17.11-33.74-8.71-19.14-14.97-32.91-18.06-50.5-5.08-28.96,1.21-52.54,4.64-64.87,7.38-26.52,19.96-45.87,29.22-57.74,1.21,2.12,2.56,4.54,4.04,7.26-.47.42-.83.73-1.07.94-26.53,45.04-29.24,79.95-26.93,103.35,6.1,61.54,47.82,87.99,48.2,149.36.22,34.89-13.34,62.97-23.17,79.49,9.95,12.76,27.08,38.25,34.52,74.91,8.41,41.46-.04,75.16-5.05,90.83,16.99,5.43,28.28,13.77,34.64,19.31,5.11,4.45,10.02,8.73,13.8,13.32.86,4.76,1.74,9.57,2.65,14.42Z"/>
    <path class="cls-2" d="m593.64,958.29c-5.64,1.75-11.28,3.49-16.92,5.24-2.9-3.89-7.56-9.26-14.44-14.08-19.07-13.36-40.07-11.91-49.07-11.29-29.17,2.01-49.18,17.93-56.55,24.47-.74-.78-1.81-2-2.84-3.56.15.08.31.16.46.24,3.76-3.69,39.19-37.27,87.58-28.67,26.01,4.62,43.45,19.25,51.78,27.65Z"/>
    <path class="cls-2" d="m668.27,996.76c.67,3.24,1.3,7.83.94,13.28-1.23,18.81-13.46,36.69-18.89,35.29-1.1-.28-2.36-1.46-3.24-5.23,11.34-11.48,17.21-26.24,13.22-38.08-3.1-9.2-12.22-16.8-15.29-19.36,0,0-5.25-4.25-11.08-7.37-31.93-17.04-66.54-2.98-73.07-.18,12-4.48,24-8.95,36-13.43,35.11-4.01,63.21,13.72,71.41,35.08Z"/>
    <path class="cls-6" d="m733.37,1596.73c0,9.39-5.45,20.97-14.07,28.01-.07.05-.12.1-.19.15-13.81,11.02-45.44-5.23-51.44-8.32-24.33-12.49-39.78-31.97-48.95-47.04,1.54-7.22,4.62-24.11,2.99-45.41-.46-6.01-1.3-12.38-2.65-18.98-2.74-13.39-7.61-27.74-15.79-42.07-13.18-23.1-30.2-37.8-42.03-46.24-.75-.53-1.47-1.04-2.17-1.52-9.2,2.39-19.2,4.6-29.94,6.41-15.91,2.69-30.66,4.05-43.91,4.6,9.26,11.32,23.13,31.3,31.08,59.56,10.7,38.04,4.78,70.18.95,85.31,8.02,2.79,19.84,7.79,32.32,16.87,13.17,9.59,22.39,16.29,24.47,28.04,1.97,11.14-2.9,24.04-11.83,30.92-18.34,14.14-48.17.07-59.45-5.26-26.92-12.7-42.42-34.14-50.38-48,.48-17.62-.88-56.4-23.76-97.42-18.31-32.82-42.25-52.47-56.24-62.31-12.29.87-83.13,4.74-133.39-46.05-13.01-13.15-23.33-28.64-30.82-45.68-17.4-39.56-19.49-87.42-4.39-133.53,4.86-14.86,11.51-29.53,20.01-43.68,4.02-119.74,66.69-209.39,141.47-222.7,14.83-2.64,46.81-5.24,89.02,16.92,3.76-3.69,39.19-37.27,87.58-28.67,30.04,5.34,48.64,24.02,55,31.04,40.02-4.57,70.93,19.1,73.66,44.2,2.4,22.1-17.63,39.88-20.44,42.3-26.53,45.04-29.24,79.95-26.93,103.35,1.83,18.5,6.89,33.83,13.08,47.89,14.37,32.71,34.85,58.55,35.12,101.47.04,7.09-.48,13.91-1.44,20.4-3.7,25.43-13.9,45.93-21.73,59.09,9.95,12.76,27.08,38.25,34.52,74.91,3.18,15.67,3.95,30.23,3.41,43.13-.89,21.23-5.34,37.95-8.46,47.7,17.61,5.66,29.17,14.41,35.58,20.14,10.65,9.51,20.15,18.02,20.14,30.47Z"/>
  </g>
  <g id="_Слой_8" data-name="Слой 8">
    <path class="cls-5" d="m559.49,957.1c-9.73-1.17-27.55-2.03-48.21,4.78-18.98,6.26-32.04,16.25-39.18,22.61-9.08-4.7-54.66-27.14-103.84-8.32-18.94,7.25-32.37,18.3-40.87,26.85"/>
  </g>
  <g id="_Слой_22" data-name="Слой 22">
    <path class="cls-5" d="m356.38,1050.55c3.08-4.89,38.87-59.84,99.33-59.88,24.32-.02,43.34,8.86,54.18,15.21,10.45-10.21,27.67-24.36,52.28-34.22,13.03-5.22,25.06-8.01,35.01-9.52"/>
  </g>
</svg>