<svg xmlns="http://www.w3.org/2000/svg" id="_ковер" data-name="ковер" viewBox="0 0 1170 2532"><defs><style>.cls-1{fill:#cf8250}.cls-1,.cls-14,.cls-16,.cls-2,.cls-3,.cls-6,.cls-7,.cls-9{stroke-linejoin:round;stroke-linecap:round}.cls-1,.cls-3,.cls-6,.cls-9{stroke-width:10px}.cls-1,.cls-3{stroke:#ba5d34}.cls-2,.cls-6{fill:none}.cls-16,.cls-2{stroke:#7f513a;stroke-width:7px}.cls-14,.cls-17,.cls-3{fill:#4e1500}.cls-18{fill:#7c300f}.cls-17,.cls-18,.cls-20{stroke-width:0}.cls-6{opacity:.51;stroke:#4e1500}.cls-7,.cls-9{stroke:#a6492a}.cls-20,.cls-7,.cls-9{fill:#f09861}.cls-14,.cls-7{stroke-width:8px}.cls-14{stroke:#884726}.cls-16{fill:#a1764c}</style></defs><path d="M540.3 1273.92c-193.38 21.09-386.76 42.17-580.14 63.26-18.74 2.04-37.48 4.09-56.22 6.13-1.18-318.89-2.37-637.78-3.56-956.68 21.75-.36 43.51-.73 65.26-1.09 191.4-3.2 382.79-6.39 574.19-9.6.15 299.33.31 598.65.47 897.98Z" style="fill:#8e0e00;stroke-width:0"/><path d="M-33.33 653.54c-3-29.64 17.91-53.14 38.5-54.53 22.39-1.52 48.23 22.84 44.91 55.6 20.02-5.64 39.53 3.19 45.98 18.18 6.24 14.49-2.13 29.18-3.21 31.01 19.29-1.67 35.18 12.08 36.36 27.8.9 11.96-6.78 24.13-19.25 29.94 15.41 1.92 39.01 6.77 64.16 20.59 18.18 9.99 50.7 27.86 49.19 48.91-1.11 15.53-20.23 25.77-45.98 39.56a250.777 250.777 0 0 1-63.09 23.52c16.51 2.59 28.42 17.12 27.8 33.15-.65 17.06-15.32 31.17-33.15 31.01 14.11 13.63 17.16 35.19 7.49 51.96-9.37 16.23-28.61 24.44-47.05 19.96 4.71 37.3-23.54 65.23-48.12 63.88-19.93-1.09-40.39-21.6-43.13-49.9-27.76-55.65-84.82-190.92-37.07-332.63 7.12-21.12 15.9-40.43 25.66-58.02Z" style="stroke:#ba7143;fill:#4e1500;stroke-width:10px;stroke-linecap:round;stroke-linejoin:round"/><path d="M3.03 721.98c17.95 3.3 32.56 20.16 35.29 41.98 5.7 7.75 11.41 15.5 17.11 23.25 4.54.32 15.35 1.71 25.66 9.62 10.83 8.31 17.54 21.09 18.18 33.15 1.14 21.33-16.55 43.47-43.84 50.26-1.59 8.54-5.79 24.66-18.18 40.63-9.18 11.84-22.19 30.11-42.77 31.01-12.77.56-22.89-5.73-27.8-9.35l6.42-213.86c3.69-2.38 15.52-9.35 29.94-6.69Z" style="fill:#f09861;stroke:#ba5d34;stroke-width:10px;stroke-linecap:round;stroke-linejoin:round"/><path d="M-26.1 762.15c12.01 2.21 21.79 13.49 23.62 28.1 10.58 12.41 20.25 21.48 27.58 27.77 7.89 6.78 13.5 10.83 13.22 16.42-.28 5.41-6.21 7.4-15.2 16.04-6.81 6.54-11.32 13.01-14.14 17.59-2.94 6.26-7.32 14.5-13.69 23.48-9.8 13.83-16.53 23.32-27.11 24.47-3.15.34-9.92.3-18.61-6.26l4.29-143.13c2.47-1.6 10.39-6.26 20.04-4.48Z" style="stroke:#b66d43;fill:#7c300f;stroke-width:10px;stroke-linecap:round;stroke-linejoin:round"/><path d="M136.34 512.81c-1.01 2.23-10.71 24.5 1.03 44.13 11.29 18.88 37.69 27.46 62.41 17.89-12.61 18.24-11.81 42.13 1.15 57.82 15.3 18.53 44.76 22.25 66.22 6.34-11.16 16.88-9.97 38.86 2.44 53.5 13.96 16.46 39.2 20.22 58.51 7.8-10.13 15.33-6.15 35.71 7.81 45.52 12.5 8.78 30.45 7.29 42.1-4.17M169.36 1187.85c-14.13-19.22-14.2-45.13-.57-63.38 11.89-15.92 32.42-23.61 52.62-19.74-8.96-17.58-7.84-38.44 3.06-53.91 13.06-18.53 38.03-26.3 60.86-18.33-15.14-15.19-17.74-38.91-6.42-56.67 10.86-17.04 32.14-24.87 51.8-18.89-6.19-18.02.23-37.65 15.03-47.62 12.43-8.37 29.04-8.76 42.69-1.07" class="cls-6"/><path d="M-47.58 499.27c19.75 27.09 52.93 25.87 58.46 25.66 33.99-1.29 54.04-26.11 57.03-29.94 9.43 4.94 28.9 13.52 54.89 13.54 27.8.02 48.38-9.76 57.74-14.97 7.62 4.55 25.15 13.62 49.19 13.9 25.75.3 44.47-9.67 52.04-14.26-2.88 11.41 1.71 23.45 11.41 29.94 9.98 6.69 23.3 6.12 32.79-1.43-17.11 20.11-13.93 50.38 5.7 65.94 18.39 14.57 46.27 12.33 62.73-6.06-8.01 12.41-4.18 28.64 7.13 35.64 9.84 6.09 23.6 4.1 32.08-5.35-15.81 10.24-24.93 27.76-23.52 45.62 1.58 20.12 15.82 32.04 18.53 34.22-4.16.61-27.28 4.38-39.92 24.24-13.53 21.24-9.56 52.23 11.41 74.14-35.28 3.83-56.93 23.17-55.6 35.64 1.28 12.04 24.78 25.41 57.03 24.24-15.15 12.05-21.88 31.72-17.11 49.9 5.31 20.24 23.91 34.93 45.62 35.64-15.99 8.82-25.47 26.11-24.24 44.2 1.19 17.53 12.24 33 28.51 39.92-17.92-4.68-35.9 6.28-39.92 22.81-3.59 14.78 4.71 30.96 19.96 37.07-21.95-11.87-48.48-6.95-62.73 9.98-17.02 20.22-13.75 54.23 10.46 72.71-16.15-19.4-41.71-19.77-52.75-8.08-7.61 8.05-8.7 22.22-3.33 35.17-8.17-4.1-29.26-13.33-57.03-10.34-28.64 3.08-47.67 17.36-54.65 23.17-6.47-4.06-30.58-18.1-62.97-13.54-29.02 4.08-47.2 20.63-52.99 26.38-11.18-26.27-36.96-43.12-64.63-42.42-24.63.62-47.21 15.05-58.81 37.43l2.49 79.13 538.22-51.33-2.85-816.24-547.49 14.97c-.88 2.2-13.2 34.84 7.13 62.73Z" class="cls-9"/><path d="M540.3 1273.92c-193.38 21.09-386.76 42.17-580.14 63.26 2.65-19.11 5.3-38.21 7.94-57.32l522.18-50.73-2.85-800.79c-170.97 3.68-341.94 7.37-512.91 11.05.33-9.26-.18-20.94-3.01-34.06-1.61-7.46-3.69-14.08-5.86-19.79 191.4-3.2 382.79-6.39 574.19-9.6.15 299.33.31 598.65.47 897.98Z" class="cls-17"/><path d="m487.43 428.34 2.85 800.79c-237.27 23.33-474.53 46.65-711.8 69.98 23.52-285.27 47.05-570.53 70.57-855.8l638.38-14.97Z" style="fill:none;stroke:#ba5d34;stroke-width:10px;stroke-linecap:round;stroke-linejoin:round"/><path d="M-165.45 469.64c210.62-6.05 421.24-12.09 631.86-18.14.95 253.05 1.89 506.11 2.84 759.16-236.32 22.11-472.63 44.23-708.95 66.34.36 8.08.71 16.16 1.07 24.24 242.69-24.48 485.39-48.95 728.08-73.43l-3.33-799.37-579.33 14.73-72.24 26.45Z" style="fill:#75472b;stroke-width:8px;stroke:#ba5d34;stroke-linecap:round;stroke-linejoin:round"/><path d="M534.12 657.53c-10.8-.33-19.26 7.82-19.72 16.38-.53 9.67 9.16 19.69 21.51 18.3-13.36-.77-22.41 9.75-21.51 17.82.79 7.04 9.36 14.24 20.44 13.61-12.16-.77-20.83 9.28-19.96 17.7.81 7.84 9.98 15.45 21.03 13.73-12.74-.03-20.7 10.03-19.6 17.1.96 6.19 9.2 12.37 19.6 11.44M533.05 857.13c-10.8-.32-19.26 7.71-19.72 16.16-.53 9.55 9.16 19.43 21.51 18.06-13.36-.76-22.41 9.62-21.51 17.58.79 6.94 9.36 14.05 20.44 13.43-12.16-.76-20.83 9.15-19.96 17.47.81 7.73 9.98 15.25 21.03 13.54-12.74-.03-20.7 9.89-19.6 16.87.96 6.11 9.2 12.2 19.6 11.29M533.05 1078.13c-10.8-.39-19.26 9.22-19.72 19.3-.53 11.4 9.16 23.21 21.51 21.57-13.36-.91-22.41 11.5-21.51 21 .79 8.29 9.36 16.78 20.44 16.04-12.16-.91-20.83 10.93-19.96 20.86.81 9.23 9.98 18.21 21.03 16.18-12.74-.03-20.7 11.82-19.6 20.15.96 7.29 9.2 14.58 19.6 13.48M483.7 1272.4c-.65-9.69-10.01-16.37-19.07-15.86-10.24.58-19.91 10.33-17.31 21.21-.42-12.03-12.34-18.97-20.76-17.29-7.34 1.47-14.14 9.92-12.46 19.75-.31-10.96-11.69-17.61-20.49-15.93-8.18 1.57-15.36 10.6-12.53 20.29-1.14-11.39-12.47-17.42-19.82-15.67-6.43 1.53-12.19 9.57-10.25 18.77M261.4 1298.41c-.71-9.68-8.52-16.52-15.94-16.18-8.39.39-16.14 9.94-13.81 20.85-.56-12.01-10.47-19.17-17.35-17.65-6 1.33-11.42 9.64-9.86 19.48-.45-10.94-9.92-17.8-17.1-16.27-6.68 1.42-12.41 10.29-9.91 20.02-1.15-11.39-10.55-17.62-16.55-16.01-5.25 1.41-9.82 9.32-8.06 18.54M80.29 1316.01c-.63-9.69-10.4-16.33-19.9-15.77-10.73.63-20.9 10.43-18.23 21.31-.38-12.03-12.83-18.92-21.66-17.2-7.7 1.5-14.86 9.99-13.14 19.82-.27-10.96-12.16-17.57-21.38-15.83-8.58 1.61-16.14 10.68-13.22 20.36-1.14-11.39-12.98-17.37-20.68-15.58-6.74 1.56-12.81 9.63-10.83 18.83M534.12 431.54c-10.8-.32-19.26 7.71-19.72 16.16-.53 9.55 9.16 19.43 21.51 18.06-13.36-.76-22.41 9.62-21.51 17.58.79 6.94 9.36 14.05 20.44 13.43-12.16-.76-20.83 9.15-19.96 17.47.81 7.73 9.98 15.25 21.03 13.54-12.74-.03-20.7 9.89-19.6 16.87.96 6.11 9.2 12.2 19.6 11.29M106.25 389.94c-.18 10.52 8.58 18.61 17.64 18.92 10.25.35 20.7-9.26 19.04-21.25-.61 13.02 10.67 21.65 19.2 20.64 7.44-.88 14.92-9.36 14.08-20.13-.63 11.85 10.14 20.12 19.05 19.13 8.28-.92 16.2-9.98 14.2-20.71.17 12.4 10.94 19.98 18.4 18.8 6.53-1.04 12.94-9.17 11.8-19.28M-101.56 394.46c-.18 10.52 8.58 18.61 17.64 18.92 10.25.35 20.7-9.26 19.04-21.25-.61 13.02 10.67 21.65 19.2 20.64 7.44-.88 14.92-9.36 14.08-20.13-.63 11.85 10.14 20.12 19.05 19.13 8.28-.92 16.2-9.98 14.2-20.71.17 12.4 10.94 19.98 18.4 18.8 6.53-1.04 12.94-9.17 11.8-19.28M336.98 385.31c-.18 10.52 8.58 18.61 17.64 18.92 10.25.35 20.7-9.26 19.04-21.25-.61 13.02 10.67 21.65 19.2 20.64 7.44-.88 14.92-9.36 14.08-20.13-.63 11.85 10.14 20.12 19.05 19.13 8.28-.92 16.2-9.98 14.2-20.71.17 12.4 10.94 19.98 18.4 18.8 6.53-1.04 12.94-9.17 11.8-19.28" class="cls-2"/><path d="M538.8 790.07c-23.87-2.92-42.95 14.66-43.52 31.82-.6 17.94 18.96 37.47 44.06 34.27M483.47 375.44c-12.63 18.1-8.42 41.22 5.74 51.12 11.66 8.15 28.13 5.98 38.32-.97 1.96-1.34 8.98-6.13 11.78-14.78.94-2.9.97-6.54.99-13.71.03-11.16.05-16.74-1.9-19.01-3.78-4.39-10.67-2.6-24.48-1.9-7.55.38-17.91.48-30.45-.74ZM37.41 387.41c-.61 22.06 15.62 39.06 32.89 39.55 13.44.38 26.49-9.28 31.48-21.88 3.13-7.89 2.38-15.13 1.72-18.82M540.77 1239.7c-4.44-11.7-31.17-22.08-48-9.03-13.33 10.33-16.45 32.23-4.28 48.48 16.63-1.66 33.27-3.33 49.9-4.99.95-5.06 2.08-12.32 2.61-21.15.44-7.28.65-10.97-.24-13.31ZM151.03 1310.56c-1.62-20.31-20.42-34.48-38.85-31.27-17.14 2.99-29.76 20.28-26.8 38.95" class="cls-16"/><path d="M538.53 561.78c-6 .11-16.27 1.1-27.23 6.63-11.26 5.69-29.03 19.1-29.8 35.07-.92 18.95 22.09 41.73 57.74 44.91M241.66 382.71c-.19 36.35 22.86 61.44 43.55 61.52 16.71.07 31.71-16.2 38.38-30.04 6.54-13.59 5.8-26.42 5.05-32.38" class="cls-1"/><path d="M264.51 385.32c1.19 20.76 11.98 34.18 21.02 34.07 8.06-.1 15.07-10.95 17.79-17.06 3.62-8.12 3.17-15.65 2.68-19.37M537.74 584.58c-19.71.59-32.72 10.47-32.84 19.04-.11 7.65 9.99 14.57 15.71 17.31 7.61 3.64 14.75 3.41 18.29 3.04" class="cls-3"/><path d="M539.4 983.43c-6.36.35-17.69 1.82-29.51 8.59-3.96 2.27-26.54 15.76-27.51 33.11-1.02 18.22 21.82 40.31 57.74 44.91" class="cls-1"/><path d="M536.37 1007.42c-18.89.56-31.35 10.03-31.47 18.24-.11 7.33 9.57 13.96 15.06 16.59 7.29 3.49 14.14 3.27 17.53 2.91" class="cls-3"/><path d="M349.25 1291.39c-6.71-35.34-29.33-56.99-47.32-55.19-17.24 1.73-29.23 24.88-31.58 29.4-7.6 14.66-8.01 28.55-7.72 35.64" class="cls-1"/><path d="M325.49 1292.69c-2.77-19.31-12.99-31.25-21.08-30.69-7.12.5-12.84 10.72-14.98 16.66-2.74 7.61-1.82 14.4-1.12 17.74" class="cls-3"/><path d="M-99.62 386.63c213.15-3.56 426.3-7.13 639.45-10.69l.48 897.98-636.36 69.39c-1.19-318.89-2.38-637.78-3.56-956.67Z" style="stroke:#471500;fill:none;stroke-width:10px;stroke-linecap:round;stroke-linejoin:round"/><path d="M388.01 535.71c11.03 21.51 31.51 28.1 40.34 22.6 8.02-5 10.91-22.79 1.94-40.57 13.4-1.4 24.09-10.4 26.58-21.66 3.51-15.9-10.02-33.23-27.28-33.93-15.26-.62-29.31 11.94-30.31 28.65-24.45-5.38-43.38 5.6-45.04 15.65-1.59 9.61 11.51 24.79 33.76 29.26Z" class="cls-3"/><path d="M329.3 650.13c1.08 1.5 3.52 1.68 6.29 1.92 9.3.8 16.03-4.97 17.67-6.46 3.31 1.74 9.98 4.64 18.63 4.15 3.83-.22 5.79-.3 6.58-1.53 2.61-4.03-6.23-15.48-26.51-34.37-8.64 9.15-27.26 29.88-22.66 36.3Z" style="stroke:#884735;stroke-width:8px;fill:#4e1500;stroke-linecap:round;stroke-linejoin:round"/><path d="M276.09 1095.83c-1.73.64-2.56 2.94-3.53 5.55-3.25 8.74.51 16.78 1.51 18.75-2.56 2.72-7.13 8.38-8.98 16.85-.81 3.74-1.25 5.66-.28 6.75 3.18 3.59 16.58-1.86 40.2-16.37-6.51-10.77-21.51-34.26-28.92-31.54ZM382.46 1002.5c-1.27-1.34-3.71-1.2-6.49-1.07-9.32.44-15.23 7.06-16.65 8.75-3.51-1.28-10.5-3.27-19.02-1.64-3.76.72-5.69 1.07-6.32 2.39-2.05 4.34 8.22 14.52 30.84 30.55 7.35-10.22 23.06-33.24 17.64-38.98ZM259.91 529.75c-1.59.94-1.98 3.36-2.45 6.1-1.6 9.19 3.57 16.4 4.91 18.16-2.02 3.14-5.48 9.54-5.74 18.21-.12 3.83-.2 5.79.96 6.69 3.79 2.95 15.96-4.87 36.53-23.45-8.37-9.4-27.42-29.74-34.21-25.71Z" class="cls-14"/><path d="M397.3 1140.24c-20.32 8.35-27.68 26.14-23.25 34.39 4.03 7.49 20.05 11.29 36.84 4.53.4 12.03 7.9 22.19 18 25.18 14.25 4.22 30.94-6.63 32.71-21.96 1.57-13.56-8.95-26.94-24.12-28.98 6.51-21.42-2.25-39.04-11.3-41.22-8.65-2.08-23.35 8.55-28.88 28.07ZM449.43 731.66c-8.43-1.36-23 22.88-24.59 45.98-.81 11.83 1.88 21.84 4.63 28.87-10.91-.53-19.55 8.04-19.6 17.11-.06 9.71 9.74 18.8 21.39 17.11-2.36 7.42-6.37 23.81 0 41.7 3.32 9.3 11.78 25.58 18.18 24.59 19.82-3.05 21.16-171.96 0-175.37Z" class="cls-3"/><path d="M472.81 934.12c.12 1.85-2.28 4.42-5.94 4.43.54 3.53-2.18 6.38-4.8 6.32-2.35-.05-4.73-2.42-4.68-5.56-3.75.19-6.33-2.81-6.07-5.18.24-2.22 3.04-4.47 6.45-3.92-.08-4.09 2.44-6.85 4.3-6.83 1.89.03 4.42 2.98 4.05 7.21 3.73-.64 6.58 1.65 6.7 3.54ZM470.43 709.02c.13 1.89-2.33 4.52-6.07 4.52.55 3.61-2.23 6.52-4.91 6.46-2.4-.05-4.83-2.48-4.78-5.69-3.83.2-6.47-2.87-6.2-5.3.25-2.27 3.11-4.57 6.59-4.01-.09-4.18 2.5-7.01 4.39-6.98 1.93.03 4.51 3.05 4.14 7.37 3.81-.66 6.72 1.68 6.85 3.62ZM468.05 532.71c.12 1.83-2.26 4.37-5.88 4.38.53 3.49-2.16 6.31-4.75 6.25-2.32-.05-4.68-2.4-4.63-5.5-3.71.19-6.26-2.78-6-5.13.24-2.2 3.01-4.42 6.38-3.88-.08-4.04 2.42-6.78 4.25-6.75 1.87.03 4.37 2.95 4 7.13 3.69-.64 6.5 1.63 6.63 3.5ZM389.16 460.59c.12 1.83-2.26 4.37-5.88 4.38.53 3.49-2.16 6.31-4.75 6.25-2.32-.05-4.68-2.4-4.63-5.5-3.71.19-6.26-2.78-6-5.13.24-2.2 3-4.42 6.38-3.88-.08-4.04 2.42-6.78 4.25-6.75 1.87.03 4.37 2.95 4 7.13 3.69-.64 6.5 1.63 6.63 3.5ZM472.34 1131.99c.19 1.85-2.13 4.5-5.79 4.63.66 3.51-1.96 6.45-4.58 6.48-2.35.03-4.81-2.26-4.87-5.4-3.74.32-6.42-2.59-6.24-4.97.17-2.23 2.88-4.57 6.31-4.14-.23-4.08 2.21-6.93 4.06-6.97 1.89-.04 4.52 2.83 4.29 7.06 3.71-.77 6.63 1.42 6.82 3.31ZM393.92 821.9c.12 1.81-2.23 4.32-5.81 4.33.52 3.45-2.13 6.23-4.7 6.18-2.3-.05-4.63-2.37-4.57-5.44-3.66.19-6.19-2.75-5.93-5.07.24-2.17 2.97-4.37 6.31-3.83-.08-4 2.39-6.7 4.2-6.68 1.85.03 4.32 2.92 3.96 7.05 3.65-.63 6.43 1.61 6.55 3.46ZM29.13 1209.23c.3 2.35-2.57 5.81-7.24 6.09.95 4.46-2.29 8.29-5.64 8.42-3 .12-6.21-2.73-6.39-6.73-4.76.53-8.28-3.1-8.13-6.14.14-2.85 3.53-5.93 7.92-5.49-.42-5.2 2.59-8.92 4.96-9.03 2.41-.11 5.86 3.46 5.71 8.88 4.71-1.11 8.51 1.6 8.81 4ZM391.54 1111.38c.15 2.19-2.7 5.23-7.02 5.23.63 4.17-2.58 7.54-5.68 7.47-2.78-.06-5.59-2.86-5.53-6.58-4.43.23-7.48-3.32-7.17-6.13.29-2.63 3.59-5.28 7.62-4.63-.1-4.83 2.89-8.1 5.08-8.07 2.24.03 5.22 3.53 4.78 8.52 4.41-.76 7.77 1.95 7.92 4.19ZM367.78 560.51c.15 2.3-2.84 5.5-7.39 5.5.67 4.39-2.71 7.92-5.97 7.86-2.92-.06-5.88-3.01-5.81-6.91-4.66.24-7.87-3.49-7.54-6.44.3-2.76 3.78-5.56 8.01-4.87-.11-5.08 3.04-8.52 5.34-8.49 2.35.03 5.49 3.71 5.03 8.96 4.64-.8 8.17 2.05 8.33 4.4ZM19.42 491.54c.13 2.11-2.38 5.04-6.21 5.04.56 4.02-2.28 7.26-5.02 7.2-2.45-.06-4.94-2.76-4.89-6.33-3.91.22-6.61-3.2-6.34-5.9.25-2.53 3.17-5.09 6.73-4.46-.09-4.65 2.55-7.81 4.49-7.77 1.98.03 4.61 3.4 4.23 8.21 3.9-.73 6.87 1.88 7 4.03ZM407.19 1204.84c.26 1.84-1.94 4.58-5.59 4.86.8 3.48-1.69 6.52-4.31 6.67-2.34.13-4.9-2.06-5.09-5.19-3.72.48-6.52-2.32-6.45-4.71.07-2.23 2.69-4.69 6.13-4.4-.4-4.07 1.92-7.02 3.77-7.13 1.89-.12 4.63 2.64 4.58 6.88 3.67-.93 6.68 1.14 6.95 3.02Z" class="cls-17"/><circle cx="410.02" cy="601.62" r="5.05" class="cls-17"/><circle cx="303.86" cy="506.63" r="4.99" class="cls-17"/><circle cx="194.32" cy="479.78" r="4.28" class="cls-17"/><circle cx="229.72" cy="487.86" r="4.99" class="cls-17"/><circle cx="266.32" cy="481.21" r="4.28" class="cls-17"/><circle cx="83.11" cy="482.99" r="4.28" class="cls-17"/><circle cx="124.81" cy="489.88" r="5.11" class="cls-17"/><circle cx="164.02" cy="483.35" r="4.28" class="cls-17"/><circle cx="438.59" cy="628.3" r="4.28" class="cls-17"/><circle cx="428.97" cy="654.32" r="5.35" class="cls-17"/><circle cx="438.59" cy="675.35" r="4.28" class="cls-17"/><circle cx="428.61" cy="706.24" r="4.28" class="cls-17"/><circle cx="402.36" cy="733.21" r="5.58" class="cls-17"/><circle cx="408.18" cy="773.25" r="4.28" class="cls-17"/><circle cx="411.5" cy="863.54" r="4.28" class="cls-17"/><circle cx="405.68" cy="896.22" r="6.06" class="cls-17"/><circle cx="426.24" cy="918.2" r="4.28" class="cls-17"/><circle cx="436.93" cy="953.84" r="4.28" class="cls-17"/><circle cx="427.31" cy="978.91" r="6.06" class="cls-17"/><circle cx="439.31" cy="1001.49" r="4.28" class="cls-17"/><circle cx="414.59" cy="1043.66" r="4.99" class="cls-17"/><circle cx="325.84" cy="1167.11" r="4.87" class="cls-17"/><circle cx="219.03" cy="1207.86" r="4.28" class="cls-17"/><circle cx="252.3" cy="1199.54" r="4.99" class="cls-17"/><circle cx="286.75" cy="1203.58" r="4.28" class="cls-17"/><circle cx="99.98" cy="1218.55" r="4.28" class="cls-17"/><circle cx="140.26" cy="1209.29" r="4.99" class="cls-17"/><circle cx="176.26" cy="1214.99" r="4.28" class="cls-17"/><path d="M305.39 591.76c-4.18-3.12-14.13-10.54-20.23-6.95-5.32 3.13-6.72 14.07-1.9 26.55-21.55.29-35.42 14.21-34.77 25.92.5 9.08 9.77 17.36 18.96 18.97 13.48 2.36 29.65-9.1 34.14-29.08 6.7 1.58 18.3 3.42 22.13-1.9 5.19-7.21-6.18-24.44-18.33-33.5ZM264.85 816.39c-10.29-.94-20.1 3.25-22.19 9.21-2.2 6.29 4.86 12.66 15.71 13.7 11.11 1.27 21.79-3.53 23.23-10.02 1.37-6.19-6.06-12.11-16.75-12.89Z" class="cls-9"/><path d="M238.85 787.2c-3.45-.62-6.76 1.6-7.49 4.88-.77 3.45 1.56 7.04 5.19 7.72 3.72.81 7.33-1.74 7.85-5.32.49-3.4-1.96-6.75-5.54-7.28ZM119.09 797.18c-3.45-.62-6.76 1.6-7.49 4.88-.77 3.45 1.56 7.04 5.19 7.72 3.72.81 7.33-1.74 7.85-5.32.49-3.4-1.96-6.75-5.54-7.28ZM69.18 761.54c-3.45-.62-6.76 1.6-7.49 4.88-.77 3.45 1.56 7.04 5.19 7.72 3.72.81 7.33-1.74 7.85-5.32.49-3.4-1.96-6.75-5.54-7.28ZM73.94 888.43c-3.45-.62-6.76 1.6-7.49 4.88-.77 3.45 1.56 7.04 5.19 7.72 3.72.81 7.33-1.74 7.85-5.32.49-3.4-1.96-6.75-5.54-7.28ZM48.63 1001.54c-3.45-.62-6.76 1.6-7.49 4.88-.77 3.45 1.56 7.04 5.19 7.72 3.72.81 7.33-1.74 7.85-5.32.49-3.4-1.96-6.75-5.54-7.28ZM78.57 946.88c-3.45-.62-6.76 1.6-7.49 4.88-.77 3.45 1.56 7.04 5.19 7.72 3.72.81 7.33-1.74 7.85-5.32.49-3.4-1.96-6.75-5.54-7.28ZM57.78 714.49c-3.45-.62-6.76 1.6-7.49 4.88-.77 3.45 1.56 7.04 5.19 7.72 3.72.81 7.33-1.74 7.85-5.32.49-3.4-1.96-6.75-5.54-7.28ZM21.18 676.47c-3.45-.62-6.76 1.6-7.49 4.88-.77 3.45 1.56 7.04 5.19 7.72 3.72.81 7.33-1.74 7.85-5.32.49-3.4-1.96-6.75-5.54-7.28ZM117.66 847.79c-3.45-.62-6.76 1.6-7.49 4.88-.77 3.45 1.56 7.04 5.19 7.72 3.72.81 7.33-1.74 7.85-5.32.49-3.4-1.96-6.75-5.54-7.28ZM391.64 671.24c-3.45-.62-6.76 1.6-7.49 4.88-.77 3.45 1.56 7.04 5.19 7.72 3.72.81 7.33-1.74 7.85-5.32.49-3.4-1.96-6.75-5.54-7.28ZM183.13 518.33c-3.45-.62-6.76 1.6-7.49 4.88-.77 3.45 1.56 7.04 5.19 7.72 3.72.81 7.33-1.74 7.85-5.32.49-3.4-1.96-6.75-5.54-7.28ZM390.69 941.65c-3.45-.62-6.76 1.6-7.49 4.88-.77 3.45 1.56 7.04 5.19 7.72 3.72.81 7.33-1.74 7.85-5.32.49-3.4-1.96-6.75-5.54-7.28ZM192.99 1161.46c-3.45-.62-6.76 1.6-7.49 4.88-.77 3.45 1.56 7.04 5.19 7.72 3.72.81 7.33-1.74 7.85-5.32.49-3.4-1.96-6.75-5.54-7.28ZM38.89 575.48c-3.45-.62-6.76 1.6-7.49 4.88-.77 3.45 1.56 7.04 5.19 7.72 3.72.81 7.33-1.74 7.85-5.32.49-3.4-1.96-6.75-5.54-7.28ZM240.04 852.78c-3.45-.62-6.76 1.6-7.49 4.88-.77 3.45 1.56 7.04 5.19 7.72 3.72.81 7.33-1.74 7.85-5.32.49-3.4-1.96-6.75-5.54-7.28ZM320.59 819.28c-3.45-.62-6.76 1.6-7.49 4.88-.77 3.45 1.56 7.04 5.19 7.72 3.72.81 7.33-1.74 7.85-5.32.49-3.4-1.96-6.75-5.54-7.28ZM41.33 1115.04c-3.45-.62-6.76 1.6-7.49 4.88-.77 3.45 1.56 7.04 5.19 7.72 3.72.81 7.33-1.74 7.85-5.32.49-3.4-1.96-6.75-5.54-7.28Z" class="cls-20"/><path d="M2.86 549.43c-7.99-1.44-15.67 3.71-17.37 11.3-1.8 8.01 3.6 16.32 12.03 17.9 8.62 1.87 16.99-4.04 18.19-12.32 1.15-7.89-4.55-15.65-12.85-16.88ZM2.39 1113.78c-7.99-1.44-15.67 3.71-17.37 11.3-1.8 8.01 3.6 16.32 12.03 17.9 8.62 1.87 16.99-4.04 18.19-12.32 1.15-7.89-4.55-15.65-12.85-16.88ZM337.71 1071.13c2.9-4.33 9.79-14.66 5.89-20.56-3.4-5.15-14.4-5.98-26.61-.51-1.41-21.51-16.03-34.63-27.69-33.37-9.04.97-16.82 10.66-17.95 19.93-1.65 13.58 10.63 29.14 30.81 32.58-1.23 6.77-2.47 18.45 3.04 22 7.47 4.81 24.08-7.44 32.51-20.05Z" class="cls-9"/><circle cx="249.45" cy="1006.36" r="7.49" class="cls-17"/><circle cx="233.76" cy="671.78" r="7.49" class="cls-17"/><circle cx="355.07" cy="664.06" r="7.49" class="cls-17"/><circle cx="355.63" cy="991.79" r="7.49" class="cls-17"/><circle cx="253.33" cy="1116.43" r="7.49" class="cls-17"/><circle cx="241.37" cy="553.45" r="7.49" class="cls-17"/><circle cx="18" cy="900.44" r="5.88" class="cls-18"/><circle cx="-1.01" cy="919.39" r="5.88" class="cls-18"/><circle cx="35.11" cy="869.07" r="5.88" class="cls-18"/><circle cx="34.4" cy="798.26" r="5.88" class="cls-18"/><ellipse cx="66.39" cy="832.24" class="cls-18" rx="11.73" ry="5.88"/><circle cx="15.62" cy="772.12" r="5.88" class="cls-18"/><circle cx="-2.44" cy="750.67" r="5.88" class="cls-18"/><circle cx="23.64" cy="1041.94" r="12.89" class="cls-7"/><circle cx="101.35" cy="925.03" r="12.89" class="cls-7"/><circle cx="88.99" cy="737.78" r="12.89" class="cls-7"/><circle cx="7.31" cy="638.99" r="12.89" class="cls-7"/><circle cx="60.77" cy="686.75" r="12.89" class="cls-7"/><ellipse cx="153.39" cy="829.8" class="cls-7" rx="25.72" ry="12.59"/><circle cx="83.17" cy="990.26" r="12.89" class="cls-7"/><path d="M-16.57 385.56c185.47-3.21 370.93-6.42 556.4-9.62.16 299.33.31 598.65.47 897.98-216.16 23.49-432.32 46.97-648.47 70.46 30.53-319.6 61.07-639.21 91.6-958.81Z" style="opacity:.05;stroke:#000;stroke-width:10px;stroke-linejoin:round"/></svg>