<svg xmlns="http://www.w3.org/2000/svg" id="_постер_ТОН" data-name="постер ТОН" viewBox="0 0 1170 2532"><defs><style>.cls-2{stroke-width:0}.cls-7,.cls-9{fill:none;stroke-linecap:round;stroke-linejoin:round}.cls-9{stroke-width:10px}.cls-7{stroke:#e6e6e6;stroke-width:18px}.cls-2{fill:#fff;opacity:.25}.cls-9{opacity:.42;stroke:#fff}</style></defs><path d="M134.63 578.52c6.91 179.46 8.04 256.32 6.42 279.45-.12 1.7-.83 11.27-1.25 24.23-.73 22.14-.1 37.43.54 55.61 2.48 70.52 1.51 84.63.36 95.52a346.2 346.2 0 0 1-5.35 34.22l287.67-24.36c-2.26-20.45-4.42-48.7-3.94-82.58.17-11.75.59-20.35.71-22.81 1.41-29.58 2.63-109.41 2.93-295.37a292.965 292.965 0 0 0-33.34-31.84c-22.23-18.09-43.93-30.3-61.74-38.56l-192.99 6.48Z" style="fill:#1e91ff;stroke-width:0"/><path d="M319.97 574.96c4.79 12.8 9.89 30.22 12.12 51.33 2.09 19.8 1.04 36.88-.71 49.9 8.13-1.89 34.67-6.99 56.32 8.55 1.2.86 6.82 4.97 12.83 12.83 21.14 27.65 17.85 63.45 18.53 63.45.59 0 .98-26.76.71-114.77-18.53 1.66-37.07 3.33-55.6 4.99a923.403 923.403 0 0 0-15.68-52.04c-2.88-8.62-6.42-18.73-15.68-22.81-4.81-2.12-9.59-1.92-12.83-1.43Z" style="opacity:.12;stroke-width:0"/><path d="M146.39 579.23c16.95 25.96 41.61 67.9 62.02 123.33 23.67 64.3 17.84 82.13 42.77 160.4 39.46 123.84 80.3 161.51 100.51 167.88 12.11 3.82 58.84 9.59 61.79 9.6 2.05 0 2.93-.03 2.37.02-92.32 8.55-184.63 17.11-276.95 25.66.95-8.18 2.08-19.41 2.85-32.79 1.24-21.48.94-37.95.71-48.12-.76-33.63-1.14-50.45-3.21-78.42-2.36-31.99-4.48-113.2-3.56-327.21l10.69-.36Z" style="opacity:.07;stroke-width:0"/><path d="M134.63 578.52c6.91 179.46 8.04 256.32 6.42 279.45-.12 1.7-.83 11.27-1.25 24.23-.73 22.14-.1 37.43.54 55.61 2.48 70.52 1.51 84.63.36 95.52a346.2 346.2 0 0 1-5.35 34.22l287.67-24.36c-2.26-20.45-4.42-48.7-3.94-82.58.17-11.75.59-20.35.71-22.81 1.41-29.58 2.63-109.41 2.93-295.37a825.056 825.056 0 0 0-95.08-70.4c-16.13 2.88-40.48 6.14-70.38 5.77-16.05-.2-24.08-1.33-39.94-2.06-19.61-.91-47.75-1.06-82.67 2.78Z" style="stroke-width:10px;fill:none;stroke-linecap:round;stroke-linejoin:round;stroke:#275cff"/><path d="M336.37 577.81c-2.55 3 10.43 13.91 21.39 38.49 5.62 12.61 8.45 23.76 9.98 31.37 18.32-1.74 36.65-3.49 54.97-5.23a229.2 229.2 0 0 0-35.25-36.12c-21.58-17.7-47.73-32.48-51.09-28.51Z" style="stroke-width:0;fill:#dcdcdc"/><path d="M328.76 572.58c7.5 7.49 18.31 20.16 26.38 38.5 6.48 14.72 8.97 28.05 9.98 37.54 19.09-2.3 38.18-4.59 57.27-6.89a238.269 238.269 0 0 0-34.22-33.98c-21.76-17.61-43.06-28.45-59.41-35.17Z" style="stroke:#aaa;stroke-width:10px;fill:none;stroke-linecap:round;stroke-linejoin:round"/><path d="M288.67 904.03c20.51-38.15 41.01-76.29 61.52-114.43.22-1.52 1.3-10.07-4.64-17.78-6.3-8.18-15.57-9-17.02-9.1-30.07.69-60.13 1.39-90.2 2.08-7.79.08-14.81 4.4-18.03 11.11-3.93 8.19-.33 16.06.17 17.11 22.73 37.01 45.46 74.01 68.19 111.02Z" class="cls-7"/><path d="M284.56 768.5c1.47 40.23 2.95 80.45 4.42 120.68" class="cls-7"/><path d="M113.95 602.99c2.69 6.18 5.39 12.36 8.08 18.53 8.9-2.74 22.2-8.17 34.69-19.49 10.1-9.14 26.03-27.87 20.91-36.12-1.21-1.95-4.81-5.26-18.06-3.8-6.5 7.94-14.79 16.83-25.19 25.66a199.25 199.25 0 0 1-20.44 15.21ZM173.03 1080.22c5.63-3.7 11.27-7.4 16.9-11.09-4.2-8.31-11.8-20.5-25.06-30.9-10.72-8.41-31.87-20.95-39.13-14.51-1.72 1.53-4.37 5.62-.7 18.44 8.93 5.06 19.09 11.74 29.55 20.49 7.15 5.99 13.27 11.97 18.44 17.57ZM439.73 1013.01c-4.16-6.65-8.32-13.31-12.48-19.96a249.916 249.916 0 0 0-26.73 27.8 251.013 251.013 0 0 0-23.88 34.57c7.37 1.19 14.73 2.38 22.1 3.56a388.47 388.47 0 0 1 25.86-30.69 378.75 378.75 0 0 1 15.13-15.29Z" class="cls-2"/><path d="M180.01 564.98c-2.93 8.38-10.38 25.92-28.04 40.4-11.19 9.18-22.41 13.78-29.94 16.16l-9.51-20.91A82.627 82.627 0 0 0 140.08 584a82.736 82.736 0 0 0 18.53-24.71l21.39 5.7ZM125.66 1019.72c8.71 1.74 27.11 6.69 43.9 22.16 10.64 9.81 16.76 20.28 20.16 27.41-6.46 4.1-12.93 8.21-19.39 12.31a82.765 82.765 0 0 0-20.3-24.99 82.981 82.981 0 0 0-27.05-14.93c.89-7.32 1.79-14.65 2.68-21.97ZM376.29 1056.86c6.18-10.91 14.1-23.21 24.24-36a281.164 281.164 0 0 1 26.73-29.23l12.48 21.39c-6.61 6.17-13.6 13.28-20.67 21.39a294.882 294.882 0 0 0-19.25 24.59c-7.84-.71-15.68-1.43-23.52-2.14Z" class="cls-9"/></svg>