<?xml version="1.0" encoding="UTF-8"?>
<svg id="_постер_Старс" data-name="постер Старс" xmlns="http://www.w3.org/2000/svg" xmlns:xlink="http://www.w3.org/1999/xlink" viewBox="0 0 1170 2532">
  <defs>
    <style>
      .cls-1 {
        fill: #ffb015;
        opacity: .35;
      }

      .cls-1, .cls-2, .cls-3, .cls-4, .cls-5, .cls-6, .cls-7, .cls-8, .cls-9 {
        stroke-width: 0px;
      }

      .cls-10 {
        stroke-width: .94px;
      }

      .cls-10, .cls-11, .cls-12, .cls-13, .cls-14, .cls-15, .cls-16 {
        fill: #b0ceff;
        stroke: #49a7cb;
      }

      .cls-10, .cls-11, .cls-12, .cls-13, .cls-14, .cls-15, .cls-16, .cls-17 {
        stroke-miterlimit: 10;
      }

      .cls-2 {
        fill: #dcdcdc;
      }

      .cls-11 {
        stroke-width: .96px;
      }

      .cls-12 {
        stroke-width: 1.3px;
      }

      .cls-4 {
        fill: #ffeb13;
      }

      .cls-5 {
        fill: url(#_Безымянный_градиент_37);
      }

      .cls-18 {
        stroke: #915a00;
        stroke-width: 8px;
      }

      .cls-18, .cls-19, .cls-20, .cls-21, .cls-22, .cls-23 {
        stroke-linecap: round;
        stroke-linejoin: round;
      }

      .cls-18, .cls-19, .cls-20, .cls-21, .cls-17, .cls-23 {
        fill: none;
      }

      .cls-19 {
        stroke: #aaa;
      }

      .cls-19, .cls-21, .cls-23 {
        stroke-width: 10px;
      }

      .cls-13 {
        stroke-width: 1.58px;
      }

      .cls-6 {
        fill: #fff;
        opacity: .25;
      }

      .cls-7 {
        fill: #b4780f;
      }

      .cls-20 {
        opacity: .81;
        stroke-width: 2px;
      }

      .cls-20, .cls-21 {
        stroke: #fff;
      }

      .cls-21 {
        opacity: .42;
      }

      .cls-14 {
        stroke-width: 1.48px;
      }

      .cls-22 {
        fill: #ffb515;
        stroke: #ffb515;
        stroke-width: 4.9px;
      }

      .cls-15 {
        stroke-width: 1.42px;
      }

      .cls-16 {
        stroke-width: 1.3px;
      }

      .cls-8 {
        opacity: .12;
      }

      .cls-9 {
        opacity: .07;
      }

      .cls-17 {
        stroke: #ffb015;
        stroke-width: 7px;
      }

      .cls-23 {
        stroke: #a75e00;
      }
    </style>
    <radialGradient id="_Безымянный_градиент_37" data-name="Безымянный градиент 37" cx="276.68" cy="821.22" fx="276.68" fy="821.22" r="202.7" gradientUnits="userSpaceOnUse">
      <stop offset="0" stop-color="#fbff94"/>
      <stop offset=".46" stop-color="#d1b448"/>
      <stop offset=".82" stop-color="#b58014"/>
      <stop offset="1" stop-color="#aa6d00"/>
    </radialGradient>
  </defs>
  <path class="cls-5" d="m132.49,579.95c6.91,179.46,8.04,256.32,6.42,279.45-.12,1.7-.83,11.27-1.25,24.23-.73,22.14-.1,37.43.54,55.61,2.48,70.52,1.51,84.63.36,95.52-1.56,14.79-3.79,26.73-5.35,34.22,95.89-8.12,191.78-16.24,287.67-24.36-2.26-20.45-4.42-48.7-3.94-82.58.17-11.75.59-20.35.71-22.81,1.41-29.58,2.63-109.41,2.93-295.37-9.02-10.08-20.04-21.01-33.34-31.84-22.23-18.09-43.93-30.3-61.74-38.56-64.33,2.16-128.66,4.32-192.99,6.48Z"/>
  <path class="cls-8" d="m319.97,574.96c4.79,12.8,9.89,30.22,12.12,51.33,2.09,19.8,1.04,36.88-.71,49.9,8.13-1.89,34.67-6.99,56.32,8.55,1.2.86,6.82,4.97,12.83,12.83,21.14,27.65,17.85,63.45,18.53,63.45.59,0,.98-26.76.71-114.77-18.53,1.66-37.07,3.33-55.6,4.99-5.39-19.99-10.8-37.42-15.68-52.04-2.88-8.62-6.42-18.73-15.68-22.81-4.81-2.12-9.59-1.92-12.83-1.43Z"/>
  <path class="cls-7" d="m200.94,884.01s.91,2.86,2.65,5.36c-1.27-1.36-2.23-2.84-2.85-4.44-1.38-3.54-1.43-8.38-.08-13.19.05-.2.1-.4.17-.6-.06.2-.11.4-.15.6-.98,4.07-.98,8.36.26,12.27Z"/>
  <path class="cls-7" d="m205.49,862.12c-2.16,2.73-3.71,5.86-4.66,9.02,1.35-5.12,4.24-9.84,8.11-12.98,2.19-1.77,4.5-2.92,6.62-3.66-3.42,1.46-7.08,3.83-10.07,7.62Z"/>
  <path class="cls-7" d="m271.73,895.91c.05,0,.11,0,.16.02-6,1.51-11.91,2.58-17.59,3.26-15.59,3.28-31.77,4.03-41.36-3.22-4.03-1.6-7.09-3.64-8.92-6.01-.15-.19-.29-.39-.43-.59,1.92,2.09,4.57,3.88,7.85,5.35-.5-.46-.98-.95-1.44-1.47-3.35-3.8-8.33-12.4-6.21-21.66,0-.07.02-.13.04-.2,1.8-7.6,7.57-12.11,9.98-13.79,3.99-.49,25.15-3.25,47.84-9.34-11.1,2.72-24.32,4.74-39.58,4.97-1.29.02-3.68.28-6.42,1.23,5.18-2.22,9.82-2.42,10.94-2.46-1.2-1.5-7.92-10.22-6.16-22.16,1.65-11.21,9.81-18.99,17.34-22.26,4.56.69,12.98,1.51,23.21-.28.38-.01.78-.04,1.18-.07,5.85-.48,10.85-2.35,15.25-4.9,12.32-5.43,20.31-13.16,24.48-17.83,1.2-1.36,3.96-4.06,7.8-4.31,8.58,2.13,15.18,16.53,13.78,27.39-.35,2.7-1.2,5.27-2.49,7.72-9.19,14.51-31.4,23.37-31.4,23.37-2.32,1.05-4.93,2.17-7.83,3.29-6.51,2.39-13.28,4.46-19.92,6.25,7.68-1.87,14.33-4.08,19.92-6.25,17.55-6.43,33.19-15.14,39.23-26.66,1.21-1.89,2.19-3.89,2.87-5.97,1.11-3.42,1.27-6.87,1.27-6.87.09-1.73.25-6.25-1.89-10.99-.33-.72-2.81-6.02-6.93-9.1,6.96,4.44,11.04,14.61,10.11,26.44,3.38,1.11,8.82,3.48,13.24,8.62,5.42,6.33,6.82,13.97,6.88,19.98.06,5.06-.83,8.95-1.04,9.87-.21.91-.45,1.8-.74,2.66-.96.59-1.99,1.45-3.05,2.68-4.87,5.88-13.91,15.78-27.5,24.83-1.13.75-2.26,1.48-3.4,2.18-5.93,2.68-12.11,5.09-18.1,7.44-6.27,2.45-19.25,7.53-33.36,10.98,4-.55,8.14-1.26,12.39-2.14Z"/>
  <path class="cls-7" d="m237.77,807.58c-.64-.97-7.63-11.83-2.77-24.01,3.65-9.16,12.57-15.44,22.79-16.1-.71-.04-1.33-.12-1.86-.21-1.86-6.3-1.41-10.99-.62-14.16,1.6-6.36,5.14-8.71,5.54-14.46.34-4.7-1.63-8.71-3.38-11.39,3.58,2.14,9.02,5.36,15.7,9.23,16.59,9.64,19.31,10.84,22.46,14.16,3.94,4.16,9.38,12.53,8.93,29.55,2.45-.39,4.51-.29,6.16,0-.33-.02-.68-.02-1.03,0-9.7-2.42-17.61,13.65-32.28,22.14-.48.21-.97.42-1.47.63-5.23,2.17-10.28,3.53-14.96,4.34-9.91.49-14.27-3.6-23.21.28Z"/>
  <path class="cls-7" d="m313.85,781.09c-.79-.33-1.84-.67-3.13-.9,2.1.11,3.96.97,5.58,2.18-.78-.5-1.6-.93-2.45-1.28Z"/>
  <path class="cls-7" d="m354.83,892.84c-3.79.83-7.69,1.59-11.7,2.25-11.4,1.9-22.4,2.84-32.92,3.07-13.68.31-26.53-.61-38.32-2.23,12.99-3.25,26.41-8.55,38.91-16.3,15.55-7,29.43-15.78,33.95-29.69,1.25-.77,2.38-1.1,3.31-1.22,3.5-.46,7.32,1.52,10.56,4.84,4.13,4.21,7.31,10.59,7.7,16.91.8,12.92-10.33,21.5-11.49,22.37Z"/>
  <path class="cls-8" d="m346.4,851.43c-7.51,8.95-11.27,13.43-13.54,15.45-12.73,11.26-33.59,19.08-34.69,19.49-3.05,2.06-7.26,4.48-12.59,6.42-5.29,1.92-10.04,2.77-13.68,3.16-6,1.51-11.91,2.58-17.59,3.26-15.59,3.28-31.77,4.03-41.36-3.22-4.03-1.6-7.09-3.64-8.92-6.01-.15-.19-.29-.39-.43-.59-1.27-1.36-2.23-2.84-2.85-4.44-1.38-3.54-1.43-8.38-.08-13.19h.02c1.04-.06,2.08-.11,3.11-.15.21-.01.42-.01.63-.02-.01,1.55.18,3.76,1.25,6.05,5.83,12.52,30.62,11.97,39.92,11.77,8.4-.19,32.19-1.66,58.99-17.05,9.8-5.63,25.36-16.21,39.92-34.7,1-.45,1.65-.36,2.03-.23,2.51.86,3.44,6.87,1.53,11.31-.63,1.46-1.42,2.42-1.66,2.71Z"/>
  <path class="cls-8" d="m316.78,818.83c4-2.09,6.74-5.39,9.14-9.14.51-.8,1.13-1.36,1.81-1.74-.16-.38-.31-.76-.44-1.15-.78-2.48-1.07-5.11-.77-7.57-11.62,12.12-22.98,19.7-30.74,24.15-26.8,15.39-50.59,16.86-58.99,17.05-3.38.07-8.81.19-14.62-.29.3.43.54.89.73,1.39,1.3,3.5,1.34,7.55-.02,11.03,7.11.27,14.93-.72,22.62-2.33,5.68-.68,11.59-1.75,17.59-3.26,3.64-.38,8.39-1.23,13.68-3.16,5.33-1.94,9.54-4.36,12.59-6.42.86-.32,13.72-5.14,25.38-12.58-.93-2.08-.58-4.63,2.04-6Z"/>
  <path class="cls-8" d="m235.78,802.99c1.31,3.09,5.02,2.98,8.17,3.05,7.65.16,15.52,1.03,22.79-1.65,2.38-.88,4.87-1.53,7.38-2.12,3.57-1.44,6.53-3.05,8.85-4.48.61-.2,7.34-2.43,15.45-6.19,2.99-2.67,5.61-5.76,7.45-9,.76-1.34,1.39-2.75,1.99-4.17-4.72-3-5.59-11.03-4.99-16.84-.46,0-.85,0-1.16,0-.6,3.18-1.89,8.11-4.99,13.31-11.21,18.79-34.82,22.13-41.35,23.05-4.81.68-12.23,1.21-21.37-.27.83,1.66,1.02,3.54,1.76,5.3Z"/>
  <path class="cls-18" d="m345.49,847.28c.45-1.66,4.57-17.85-5.85-29.85-4.55-5.25-10.05-7.58-13.23-8.62,1.03-13.16-4.13-24.27-12.56-27.72-1.81-.74-4.91-1.6-9.29-.9.46-17.02-4.98-25.39-8.93-29.55-3.15-3.33-5.87-4.52-22.47-14.16-6.67-3.88-12.11-7.1-15.7-9.23,1.75,2.68,3.72,6.69,3.39,11.39-.41,5.75-3.94,8.1-5.54,14.47-.8,3.17-1.25,7.86.62,14.16,1.39.22,3.43.39,5.85,0,2.75-.44,4.85-1.42,6.16-2.15l-9.23,2.31c-10.6.35-19.94,6.73-23.7,16.16-4.86,12.18,2.13,23.04,2.77,24.01,6.63.99,21.5,2.29,38.16-4.62,13.17-5.46,21.62-13.62,25.96-18.47,1.2-1.36,3.96-4.06,7.8-4.31,8.04-.52,13.06,10.23,13.54,11.29,3.51,7.76,1.34,15.42.62,17.85-1.28,4.3-6.05,16.57-34.27,29.34-13.33,6.03-36.13,14.09-67.51,14.57-2.3.03-8.07.83-13.13,4.92-7.09,5.74-10.87,16.82-8,25.85,0,0,1.05,3.32,3.08,5.95,11.04,14.33,67.01,16.22,110.18-12.52,13.59-9.05,22.63-18.94,27.49-24.83,2.45-2.83,4.71-3.68,6.36-3.9,7.93-1.04,17.56,10.45,18.26,21.75.8,12.92-10.33,21.5-11.49,22.37-3.79.83-7.69,1.59-11.7,2.26-26.31,4.37-50.52,3.7-71.4.82-37.16,7.69-65.74,2.46-70.99-10.98-2.35-6.01-.84-15.74,4.75-22.81,7.55-9.54,19.25-10.06,21.1-10.12-1.2-1.51-7.91-10.22-6.16-22.16,2.26-15.32,16.39-21.84,17.34-22.26"/>
  <path class="cls-4" d="m316.11,837.65c0,8.54-2.95,16.37-7.85,22.45-6.19,7.67-15.49,12.55-25.89,12.55-18.64,0-33.74-15.67-33.74-35,0-15.16,9.29-28.07,22.29-32.93,3.57-1.34,7.43-2.07,11.45-2.07,18.63,0,33.74,15.67,33.74,35Z"/>
  <path class="cls-20" d="m281.02,814.65c.3-.23.85-.58,1.51-.53,1,.07,1.69,1.01,2.14,1.69,2.01,3.07,5.71,11.1,5.97,11.67,4.16.56,8.32,1.13,12.48,1.69.13.03,1.26.34,1.69,1.43.39.96.07,2.12-.8,2.85-2.94,3.09-5.88,6.18-8.82,9.27.8,4.22,1.6,8.44,2.41,12.65"/>
  <path class="cls-22" d="m281.96,817.24l6.11,12.66,13.39,1.91-9.57,9.99,2.43,13.96-12.02-6.49-11.88,6.71c.44-2.81.88-5.63,1.33-8.44,5.48-3.54,10.96-7.08,16.44-10.62-6.43.27-12.86.55-19.29.82-2.04-1.86-4.07-3.72-6.11-5.57,4.45-.72,8.9-1.44,13.34-2.17l5.84-12.78Z"/>
  <path class="cls-1" d="m308.26,860.1c-6.19,7.67-15.49,12.55-25.89,12.55-18.64,0-33.74-15.67-33.74-35,0-15.16,9.29-28.07,22.29-32.93.14.58.27,1.18.39,1.8-2.72,2.32-12.68,11.43-14.02,26.13-.37,4.09-1.32,14.49,5.94,23.05,7.35,8.67,17.91,9.36,20.2,9.51,12.82.84,21.58-6.78,23.29-8.32.65,1.14,1.16,2.21,1.54,3.21Z"/>
  <ellipse class="cls-17" cx="281.95" cy="837.45" rx="33.97" ry="36"/>
  <ellipse class="cls-3" cx="334.52" cy="740.33" rx="4.73" ry="5.8" transform="translate(-476.4 789.38) rotate(-69.15)"/>
  <path class="cls-16" d="m332.05,741.03c2.38,0,4.31,1.37,4.31,3.06s-1.93,3.06-4.31,3.06c-2.38,0-4.31-1.37-4.31-3.06s1.93-3.06,4.31-3.06Z"/>
  <ellipse class="cls-12" cx="337.61" cy="734.89" rx="3.06" ry="4.32" transform="translate(-367.76 339.29) rotate(-36.04)"/>
  <ellipse class="cls-3" cx="279.4" cy="739.63" rx="5.92" ry="4.39" transform="translate(-509.62 790.27) rotate(-72.98)"/>
  <ellipse class="cls-15" cx="275.09" cy="736.09" rx="3.29" ry="4.77" transform="translate(-81.89 36.04) rotate(-6.53)"/>
  <ellipse class="cls-14" cx="285" cy="740.45" rx="5.23" ry="3.24" transform="translate(-308.37 213.75) rotate(-27.35)"/>
  <ellipse class="cls-3" cx="229.35" cy="756.03" rx="2.41" ry="3.93" transform="translate(-534.64 554.76) rotate(-58.37)"/>
  <ellipse class="cls-11" cx="225.97" cy="758" rx="3.41" ry="2.09" transform="translate(-85.22 30.82) rotate(-6.57)"/>
  <ellipse class="cls-10" cx="231.34" cy="751.64" rx="2.09" ry="3.29"/>
  <ellipse class="cls-3" cx="225.08" cy="697.97" rx="7.13" ry="3.27" transform="translate(-501.51 598.48) rotate(-64.33)"/>
  <ellipse class="cls-13" cx="228.16" cy="702.92" rx="6.86" ry="2.84" transform="translate(-491.43 871.27) rotate(-85.18)"/>
  <ellipse class="cls-13" cx="218.89" cy="697.01" rx="6.86" ry="2.84" transform="translate(-329.62 214.44) rotate(-31.23)"/>
  <path class="cls-9" d="m146.39,579.23c16.95,25.96,41.61,67.9,62.02,123.33,23.67,64.3,17.84,82.13,42.77,160.4,39.46,123.84,80.3,161.51,100.51,167.88,12.11,3.82,58.84,9.59,61.79,9.6,2.05,0,2.93-.03,2.37.02-92.32,8.55-184.63,17.11-276.95,25.66.95-8.18,2.08-19.41,2.85-32.79,1.24-21.48.94-37.95.71-48.12-.76-33.63-1.14-50.45-3.21-78.42-2.36-31.99-4.48-113.2-3.56-327.21,3.56-.12,7.13-.24,10.69-.36Z"/>
  <path class="cls-23" d="m134.63,578.52c6.91,179.46,8.04,256.32,6.42,279.45-.12,1.7-.83,11.27-1.25,24.23-.73,22.14-.1,37.43.54,55.61,2.48,70.52,1.51,84.63.36,95.52-1.56,14.79-3.79,26.73-5.35,34.22,95.89-8.12,191.78-16.24,287.67-24.36-2.26-20.45-4.42-48.7-3.94-82.58.17-11.75.59-20.35.71-22.81,1.41-29.58,2.63-109.41,2.93-295.37-11.94-10.25-24.79-20.67-38.57-31.13-19.46-14.76-38.43-27.79-56.51-39.27-16.13,2.88-40.48,6.14-70.38,5.77-16.05-.2-24.08-1.33-39.94-2.06-19.61-.91-47.75-1.06-82.67,2.78Z"/>
  <path class="cls-2" d="m336.37,577.81c-2.55,3,10.43,13.91,21.39,38.49,5.62,12.61,8.45,23.76,9.98,31.37,18.32-1.74,36.65-3.49,54.97-5.23-7.35-9.41-18.9-22.71-35.25-36.12-21.58-17.7-47.73-32.48-51.09-28.51Z"/>
  <path class="cls-19" d="m328.76,572.58c7.5,7.49,18.31,20.16,26.38,38.5,6.48,14.72,8.97,28.05,9.98,37.54,19.09-2.3,38.18-4.59,57.27-6.89-8.57-10.43-19.81-22.32-34.22-33.98-21.76-17.61-43.06-28.45-59.41-35.17Z"/>
  <path class="cls-6" d="m113.95,602.99c2.69,6.18,5.39,12.36,8.08,18.53,8.9-2.74,22.2-8.17,34.69-19.49,10.1-9.14,26.03-27.87,20.91-36.12-1.21-1.95-4.81-5.26-18.06-3.8-6.5,7.94-14.79,16.83-25.19,25.66-7.11,6.04-14.04,11.05-20.44,15.21Z"/>
  <path class="cls-6" d="m173.03,1080.22c5.63-3.7,11.27-7.4,16.9-11.09-4.2-8.31-11.8-20.5-25.06-30.9-10.72-8.41-31.87-20.95-39.13-14.51-1.72,1.53-4.37,5.62-.7,18.44,8.93,5.06,19.09,11.74,29.55,20.49,7.15,5.99,13.27,11.97,18.44,17.57Z"/>
  <path class="cls-6" d="m439.73,1013.01c-4.16-6.65-8.32-13.31-12.48-19.96-8.32,7.41-17.52,16.61-26.73,27.8-10.13,12.32-17.93,24.19-23.88,34.57,7.37,1.19,14.73,2.38,22.1,3.56,7.48-9.87,16.06-20.21,25.86-30.69,5.09-5.44,10.15-10.54,15.13-15.29Z"/>
  <path class="cls-21" d="m180.01,564.98c-2.93,8.38-10.38,25.92-28.04,40.4-11.19,9.18-22.41,13.78-29.94,16.16-3.17-6.97-6.34-13.94-9.51-20.91,6.54-2.36,17.14-7.13,27.56-16.63,9.91-9.04,15.53-18.58,18.53-24.71,7.13,1.9,14.26,3.8,21.39,5.7Z"/>
  <path class="cls-21" d="m125.66,1019.72c8.71,1.74,27.11,6.69,43.9,22.16,10.64,9.81,16.76,20.28,20.16,27.41-6.46,4.1-12.93,8.21-19.39,12.31-3.25-6.15-9.44-15.98-20.3-24.99-10.33-8.56-20.56-12.8-27.05-14.93.89-7.32,1.79-14.65,2.68-21.97Z"/>
  <path class="cls-21" d="m376.29,1056.86c6.18-10.91,14.1-23.21,24.24-36,9.16-11.56,18.32-21.24,26.73-29.23,4.16,7.13,8.32,14.26,12.48,21.39-6.61,6.17-13.6,13.28-20.67,21.39-7.46,8.55-13.83,16.86-19.25,24.59-7.84-.71-15.68-1.43-23.52-2.14Z"/>
</svg>