<svg xmlns="http://www.w3.org/2000/svg" id="_постер_НОТ" data-name="постер НОТ" viewBox="0 0 1170 2532"><defs><style>.cls-4{stroke-width:0}.cls-6,.cls-9{fill:none;stroke-linecap:round;stroke-linejoin:round}.cls-6{stroke:#e6e6e6;stroke-width:18px}.cls-9{stroke-width:10px}.cls-4{fill:#fff;opacity:.25}.cls-9{opacity:.42;stroke:#fff}</style></defs><path d="M133.88 580.78c7.03 182.55 8.18 260.73 6.53 284.25-.12 1.73-.84 11.46-1.28 24.65-.74 22.52-.1 38.07.55 56.57 2.52 71.74 1.53 86.09.36 97.17a352.098 352.098 0 0 1-5.44 34.81c97.54-8.26 195.08-16.52 292.62-24.77-2.3-20.8-4.5-49.54-4.01-84 .17-11.95.61-20.7.73-23.2 1.44-30.09 2.67-111.3 2.98-300.45A296.491 296.491 0 0 0 393 613.42c-22.61-18.4-44.69-30.82-62.8-39.22-65.44 2.2-130.88 4.39-196.31 6.59Z" style="fill:#282828;stroke-width:0"/><path d="M322.42 577.16a212.907 212.907 0 0 1 12.33 52.21c2.13 20.14 1.06 37.52-.73 50.76 8.27-1.93 35.27-7.11 57.29 8.7 1.22.88 6.94 5.06 13.05 13.05 21.51 28.12 18.15 64.55 18.85 64.54.61 0 1-27.22.73-116.75-18.85 1.69-37.71 3.38-56.56 5.08a943.885 943.885 0 0 0-15.95-52.93c-2.93-8.76-6.53-19.05-15.95-23.2-4.89-2.16-9.75-1.95-13.05-1.45Z" style="opacity:.22;stroke-width:0"/><path d="M145.85 581.51c17.25 26.41 42.33 69.07 63.09 125.45 24.08 65.4 18.14 83.54 43.51 163.16 40.14 125.97 81.68 164.29 102.24 170.77 12.32 3.88 59.86 9.76 62.85 9.77 2.09 0 2.98-.03 2.41.02l-281.72 26.1c.97-8.32 2.12-19.74 2.9-33.36 1.26-21.85.96-38.6.73-48.95-.77-34.21-1.16-51.32-3.26-79.77-2.4-32.54-4.56-115.14-3.63-332.84l10.88-.36Z" style="opacity:.14;stroke-width:0"/><path d="M133.88 580.78c7.03 182.55 8.18 260.73 6.53 284.25-.12 1.73-.84 11.46-1.28 24.65-.74 22.52-.1 38.07.55 56.57 2.52 71.74 1.53 86.09.36 97.17a352.098 352.098 0 0 1-5.44 34.81c97.54-8.26 195.08-16.52 292.62-24.77-2.3-20.8-4.5-49.54-4.01-84 .17-11.95.61-20.7.73-23.2 1.44-30.09 2.67-111.3 2.98-300.45a838.051 838.051 0 0 0-39.24-31.66 839.9 839.9 0 0 0-57.49-39.95c-16.41 2.93-41.17 6.25-71.59 5.87-16.32-.2-24.49-1.35-40.63-2.1-19.94-.92-48.57-1.07-84.09 2.82Z" style="stroke:#141414;stroke-width:10px;fill:none;stroke-linecap:round;stroke-linejoin:round"/><path d="M339.1 580.06c-2.59 3.06 10.61 14.15 21.75 39.16 5.72 12.83 8.6 24.17 10.15 31.91 18.64-1.77 37.28-3.55 55.91-5.32-7.48-9.58-19.22-23.1-35.85-36.74-21.95-18-48.55-33.04-51.97-29.01Z" style="stroke-width:0;fill:#dcdcdc"/><path d="M331.36 574.74c7.63 7.62 18.62 20.51 26.83 39.16 6.59 14.97 9.13 28.53 10.15 38.19 19.42-2.34 38.84-4.67 58.25-7.01a241.828 241.828 0 0 0-34.81-34.56c-22.14-17.91-43.8-28.94-60.43-35.77Z" style="stroke-width:10px;stroke:#aaa;fill:none;stroke-linecap:round;stroke-linejoin:round"/><path d="M287.66 750.29 224.9 866.6c-.23 1.55-1.34 10.24 4.69 18.09 6.4 8.33 15.83 9.18 17.29 9.28 30.58-.66 61.17-1.32 91.75-1.97 7.93-.07 15.07-4.45 18.36-11.27 4.01-8.33.37-16.33-.15-17.4-23.06-37.68-46.13-75.35-69.19-113.03Z" class="cls-6"/><path d="M291.63 888.16c-1.44-40.92-2.88-81.84-4.31-122.76" class="cls-6"/><path d="M112.85 605.68c2.74 6.28 5.48 12.57 8.22 18.85 9.05-2.79 22.58-8.31 35.29-19.82 10.28-9.3 26.47-28.35 21.27-36.74-1.23-1.99-4.89-5.35-18.37-3.87a201.839 201.839 0 0 1-46.41 41.57ZM172.95 1091.11c5.73-3.76 11.46-7.52 17.2-11.28-4.28-8.45-12.01-20.85-25.5-31.44-10.9-8.56-32.41-21.31-39.8-14.76-1.75 1.55-4.44 5.72-.71 18.76 9.08 5.15 19.42 11.94 30.06 20.85a201.1 201.1 0 0 1 18.76 17.88ZM444.24 1022.75c-4.23-6.77-8.46-13.54-12.69-20.3a254.232 254.232 0 0 0-27.19 28.28 253.828 253.828 0 0 0-24.29 35.17l22.48 3.63a394.83 394.83 0 0 1 26.31-31.22 392.26 392.26 0 0 1 15.39-15.56Z" class="cls-4"/><path d="M180.05 567c-2.98 8.53-10.56 26.36-28.52 41.09-11.39 9.34-22.79 14.02-30.46 16.44-3.22-7.09-6.45-14.18-9.67-21.27 6.65-2.4 17.43-7.25 28.04-16.92a83.857 83.857 0 0 0 18.85-25.14c7.25 1.93 14.5 3.87 21.75 5.8ZM124.76 1029.58c8.86 1.77 27.57 6.8 44.65 22.54 10.83 9.98 17.05 20.63 20.5 27.88-6.57 4.18-13.15 8.35-19.72 12.53a84.06 84.06 0 0 0-20.65-25.42 84.11 84.11 0 0 0-27.51-15.18l2.73-22.35ZM379.7 1067.35a284.752 284.752 0 0 1 51.84-66.35l12.69 21.75c-6.72 6.28-13.83 13.5-21.03 21.75a298.26 298.26 0 0 0-19.58 25.02c-7.98-.73-15.95-1.45-23.93-2.18Z" class="cls-9"/></svg>