<?xml version="1.0" encoding="UTF-8"?>
<svg id="_Слой_125" data-name="Слой 125" xmlns="http://www.w3.org/2000/svg" viewBox="0 0 1170 2532">
  <defs>
    <style>
      .cls-1 {
        fill: #f09861;
      }

      .cls-1, .cls-2, .cls-3, .cls-4, .cls-5, .cls-6 {
        stroke-linecap: round;
        stroke-linejoin: round;
      }

      .cls-1, .cls-3 {
        stroke: #ba5d34;
      }

      .cls-1, .cls-3, .cls-4, .cls-6 {
        stroke-width: 5px;
      }

      .cls-2 {
        stroke-width: 6px;
      }

      .cls-2, .cls-5, .cls-6 {
        fill: #4e1500;
      }

      .cls-2, .cls-6 {
        stroke: #ba7143;
      }

      .cls-3 {
        fill: #75472b;
      }

      .cls-4 {
        fill: #8e0e00;
        stroke: #a6492a;
      }

      .cls-5 {
        stroke: #391500;
        stroke-width: 10px;
      }
    </style>
  </defs>
  <path class="cls-5" d="m965.32,1383.95l-685.17,101.87c-1.29.19-2.66-.28-3.68-1.26l-120.81-115.68c-2.58-2.47-1.52-6.65,1.78-7.09l637.27-83.27c.96-.13,1.99.1,2.91.63l167.88,96.93c3.74,2.16,3.63,7.31-.18,7.87Z"/>
  <g>
    <polygon class="cls-3" points="931.73 1373.01 286.46 1467.64 183.92 1373.69 795.13 1292.57 931.73 1373.01"/>
    <g>
      <polygon class="cls-1" points="899.72 1366.65 291.58 1455.14 208.26 1381.08 793.44 1303.87 899.72 1366.65"/>
      <path class="cls-4" d="m263.35,1396.57c9.36,2.98,20.49,7.42,27.96,13.63,8,6.65,9.02,13,8.23,17.71,4.57-.64,30.06-4.12,55.21-2.57,25.64,1.58,31.79,7.19,32.77,8.17,21.82-4.62,50.07-10.01,84.1-15.13,37.05-5.57,69.83-9.15,95.16-11.47-4.37-4.05,4.59-8.99,19.3-11.56,17.62-3.08,41.26-2.35,48.54,2.33,20.43-4.51,48.69-10.07,84.13-15.19,35.94-5.19,67.65-8.25,91.17-10.09-1.48-.54-14.29-5.47-3.01-12.21,8.9-5.32,26.78-8.15,30.64-8.74-10.96-2.42-26.83-6.68-37.62-13.27-10.5-6.42-11.82-12.4-11.4-16.2-4.94.84-18.07,2.89-35.01,3.26-22.89.5-35.76-2.41-38.56-3.08-17.72,3.63-42.03,8.08-72.75,12.31-32.15,4.43-61.13,7.23-83.47,9.01,4.21,4.17-5.5,9.23-21.62,11.93-19.75,3.31-46.14,2.61-54.39-2.29-20.44,3.65-45.68,7.75-75.45,11.76-31.89,4.3-61.03,7.42-85.55,9.71.68,1.01,3.48,5.94-12.12,12.05-16.7,6.53-41.75,9.46-46.23,9.96Z"/>
      <path class="cls-6" d="m377.51,1399.18c2.62,2.62,62.96-1.99,103.37-6.3,20.85-2.22,37.97-4.53,50.27-6.32,7.98,3.79,28.6,4.43,45.87,1.77,14.7-2.27,24.48-6.54,23.31-10.39,57.52-9.89,135.79-23.91,131.25-26.61-4.42-2.63-85.66,6.3-146.94,13.45-5.62-4.06-25.8-5.28-44.76-2.8-18.6,2.44-30.42,7.69-26.22,11.86-112.74,17.54-137.96,23.52-136.15,25.33Z"/>
      <path class="cls-6" d="m866.75,1364.72c-4.89,2.09-31.37,3.45-36.54.25-3.59-2.22,4.19-5.97,12.62-6.78,12.89-1.25,29.4,4.18,23.93,6.53Z"/>
      <path class="cls-2" d="m746.24,1317.25c.94,2.08,21.63,3.25,31.28.87,7.94-1.96,6.29-5.81-1.65-6.49-10.11-.86-30.63,3.42-29.63,5.62Z"/>
      <path class="cls-2" d="m262.04,1389.86c15.77-.4,35.22-7.13,30.94-9.65-4.4-2.59-35.25-1.47-44.84,2.08-8.38,3.1-.25,7.92,13.9,7.57Z"/>
      <path class="cls-2" d="m312.36,1434.4c12.6-3.39,42.96-2.51,43.66.88.65,3.14-23.96,9.44-39.16,8.81-13.94-.58-15.25-6.8-4.5-9.69Z"/>
      <path class="cls-2" d="m808,1324.69c-3.53.41-2,5.97,5.43,10.87,9.85,6.49,29.18,11.2,32.82,10.56,3.25-.57-5.39-5.51-14.67-10.82-7.56-4.33-19.38-11.09-23.57-10.61Z"/>
      <path class="cls-2" d="m250.2,1401.21c4.04-.63,17.9,3.81,25.03,9.3,9.47,7.29,6.33,15.86,1.59,16.39-4.24.47-10.55-5.42-17.32-11.75-5.51-5.15-14.11-13.19-9.3-13.94Z"/>
      <path class="cls-2" d="m524.5,1350.78c-6.91.93-22.44-1.45-17.9-4.11,3-1.75,14.2-3.33,20.05-2.91,9.04.65,5.07,6.05-2.16,7.02Z"/>
      <path class="cls-2" d="m595.43,1398.83c7.01-1.07,23.73,1.32,19.62,4.24-2.73,1.94-14.18,3.8-20.46,3.41-9.69-.61-6.53-6.53.84-7.65Z"/>
      <path class="cls-1" d="m715.92,1334.41c8.93-2.14,27.25-1.74,31.09.46,5.01,2.88-14.87,8.75-25.47,8.49-10.16-.25-16.87-6.25-5.62-8.95Z"/>
      <path class="cls-1" d="m783.55,1356.76c5.3,2.12-4.57,6.77-15.85,7.85-14.72,1.41-30.9-3.32-24.99-5.98,5.63-2.54,34.23-4.52,40.85-1.87Z"/>
      <path class="cls-1" d="m394.81,1417.85c-11.93,2.1-29.92.56-30.68-2.34-.99-3.75,26.85-9.56,36.99-8.65,9.72.87,8.57,8.38-6.3,10.99Z"/>
      <path class="cls-1" d="m358.88,1382.76c-13.98.91-29.47,6.06-26.75,8.59,3.55,3.3,37.85,1.92,46.54-1.07,8.28-2.85-2.33-8.65-19.79-7.52Z"/>
      <path class="cls-1" d="m474.14,1386.55c-.66-.64,41.45-4.17,60.27-11.05,2.63-.96,7.62-3.02,16.58-4.18,8.07-1.05,15.14-.82,18.07-.76,27.68.53,68.33-6.85,69.45-6.17,1.09.67-41.34,5.68-61.19,11.97-1.86.59-6.89,2.26-15.25,3.4-9.37,1.28-17.62,1.17-20.93,1.16-28.4-.07-66.34,6.25-67,5.63Z"/>
    </g>
  </g>
</svg>