<svg xmlns="http://www.w3.org/2000/svg" id="_коврик" data-name="коврик" viewBox="0 0 1170 2532"><defs><style>.cls-4{fill:none;stroke-linecap:round;stroke-linejoin:round;stroke:#13ea00;stroke-width:5px}</style></defs><path d="M516.86 1442.5c-.15.81-.4 1.59-.75 2.32-1.29 2.78-3.89 4.85-7.05 5.47-60.91 9.05-121.83 18.09-182.75 27.13-2.61.67-7.7 1.62-13.9.34a30.702 30.702 0 0 1-12.54-5.77c-18.49-22.55-36.97-45.1-55.46-67.66-4.6-5.62-9.21-11.25-13.82-16.87-2.36-4-2.37-8.9 0-12.66 2.4-3.83 6.93-5.01 8.59-5.43 10.11-2.51 79.09-10.9 173.59-21.24 2.41-.51 7.64-1.24 13.56.9 3.53 1.28 6.08 3.13 7.69 4.52 26.37 26.49 52.74 52.97 79.11 79.45 2.93 2.25 4.38 5.93 3.73 9.5Z" style="stroke-width:0;fill:#969696"/><path d="M254.65 1416.81c.21-.24.58-.66 1-1.2 6.89-8.83 3.13-16.64 6.87-22.04 5.05-7.32 17.26-.72 24.83-7.93 3.29-3.13 6.05-9.2 4.04-22.02" style="opacity:.89;stroke:#13ea00;fill:none;stroke-linecap:round;stroke-linejoin:round;stroke-width:8px"/><path d="M244.34 1402.48c-.5-12.22 2.8-18.04 6.42-21.03 8.2-6.77 21.46-1.81 24.95-8.2 1.58-2.9.36-6.68-1.07-9.62" style="stroke-width:6px;fill:none;stroke-linecap:round;stroke-linejoin:round;opacity:.89;stroke:#13ea00"/><path d="M516.11 1444.82c-1.29 2.78-3.89 4.85-7.05 5.47-60.91 9.05-121.83 18.09-182.75 27.13-2.61.67-7.7 1.62-13.9.34a30.702 30.702 0 0 1-12.54-5.77c-18.49-22.55-36.97-45.1-55.46-67.66 13.99 1.02 32.34 2.88 53.52 6.46 59 9.99 82.88 23.69 124.99 31.37 22.28 4.06 53.62 7.16 93.19 2.66Z" style="opacity:.1;stroke-width:0"/><path d="M230.58 1387.46c23.09 28.18 46.19 56.36 69.28 84.54a30.716 30.716 0 0 0 26.44 5.42l182.75-27.12c3.98-.79 7.09-3.9 7.8-7.8.65-3.57-.8-7.24-3.73-9.49-26.37-26.48-52.74-52.97-79.11-79.45a24.407 24.407 0 0 0-7.69-4.52c-5.93-2.14-11.15-1.41-13.56-.9-94.5 10.34-163.48 18.73-173.59 21.25-1.65.41-6.19 1.6-8.59 5.42-2.36 3.76-2.35 8.66 0 12.66Z" style="stroke:#646464;stroke-width:10px;fill:none;stroke-linecap:round;stroke-linejoin:round"/><path d="M460.17 1423.6c1.26 2.08 2.55 2.67 3.53 2.79 1.79.23 2.64-1.05 5.61-1.62 2.47-.47 5.68-.32 6.11.56.67 1.37-5.82 3.72-5.13 5.44.32.81 2.08 1.11 3.35 1.24" class="cls-4"/><path d="M488.82 1429.96c-2.89-.62-4.3-.24-5.07.24-1.39.89-.67 2.22-2.04 4.32-1.13 1.74-3.37 3.52-4.52 3.2-1.79-.5.09-5.81-2.06-6.53-1.01-.34-2.45.49-3.41 1.15" class="cls-4"/><path d="M462.44 1443.06c2.69-1.02 3.41-2.03 3.55-2.78.26-1.38-1.43-1.99-2.25-4.26-.68-1.88-.56-4.35.57-4.7 1.77-.55 5.01 4.36 7.23 3.8 1.04-.27 1.39-1.62 1.53-2.6" class="cls-4"/></svg>