<?xml version="1.0" encoding="UTF-8"?>
<svg id="_коврик_копия_" data-name="коврик (копия)" xmlns="http://www.w3.org/2000/svg" viewBox="0 0 1170 2532">
  <defs>
    <style>
      .cls-1 {
        fill: #e0b4ff;
      }

      .cls-1, .cls-2 {
        stroke-width: 0px;
      }

      .cls-3 {
        stroke: #b771cf;
        stroke-width: 10px;
      }

      .cls-3, .cls-4 {
        fill: none;
        stroke-linecap: round;
        stroke-linejoin: round;
      }

      .cls-4 {
        stroke: #292929;
        stroke-width: 5px;
      }

      .cls-2 {
        opacity: .1;
      }
    </style>
  </defs>
  <path class="cls-1" d="m516.86,1442.5c-.15.81-.4,1.59-.75,2.32-1.29,2.78-3.89,4.85-7.05,5.47-60.91,9.05-121.83,18.09-182.75,27.13-2.61.67-7.7,1.62-13.9.34-6.14-1.27-10.41-4.12-12.54-5.77-18.49-22.55-36.97-45.1-55.46-67.66-4.6-5.62-9.21-11.25-13.82-16.87-2.36-4-2.37-8.9,0-12.66,2.4-3.83,6.93-5.01,8.59-5.43,10.11-2.51,79.09-10.9,173.59-21.24,2.41-.51,7.64-1.24,13.56.9,3.53,1.28,6.08,3.13,7.69,4.52,26.37,26.49,52.74,52.97,79.11,79.45,2.93,2.25,4.38,5.93,3.73,9.5Z"/>
  <path class="cls-2" d="m516.11,1444.82c-1.29,2.78-3.89,4.85-7.05,5.47-60.91,9.05-121.83,18.09-182.75,27.13-2.61.67-7.7,1.62-13.9.34-6.14-1.27-10.41-4.12-12.54-5.77-18.49-22.55-36.97-45.1-55.46-67.66,13.99,1.02,32.34,2.88,53.52,6.46,59,9.99,82.88,23.69,124.99,31.37,22.28,4.06,53.62,7.16,93.19,2.66Z"/>
  <path class="cls-3" d="m230.58,1387.46c23.09,28.18,46.19,56.36,69.28,84.54,2.13,1.65,6.4,4.49,12.54,5.76,6.2,1.28,11.29.34,13.9-.34,60.92-9.04,121.83-18.08,182.75-27.12,3.98-.79,7.09-3.9,7.8-7.8.65-3.57-.8-7.24-3.73-9.49-26.37-26.48-52.74-52.97-79.11-79.45-1.61-1.39-4.16-3.25-7.69-4.52-5.93-2.14-11.15-1.41-13.56-.9-94.5,10.34-163.48,18.73-173.59,21.25-1.65.41-6.19,1.6-8.59,5.42-2.36,3.76-2.35,8.66,0,12.66Z"/>
  <g>
    <path class="cls-4" d="m460.17,1423.6c1.26,2.08,2.55,2.67,3.53,2.79,1.79.23,2.64-1.05,5.61-1.62,2.47-.47,5.68-.32,6.11.56.67,1.37-5.82,3.72-5.13,5.44.32.81,2.08,1.11,3.35,1.24"/>
    <path class="cls-4" d="m488.82,1429.96c-2.89-.62-4.3-.24-5.07.24-1.39.89-.67,2.22-2.04,4.32-1.13,1.74-3.37,3.52-4.52,3.2-1.79-.5.09-5.81-2.06-6.53-1.01-.34-2.45.49-3.41,1.15"/>
    <path class="cls-4" d="m462.44,1443.06c2.69-1.02,3.41-2.03,3.55-2.78.26-1.38-1.43-1.99-2.25-4.26-.68-1.88-.56-4.35.57-4.7,1.77-.55,5.01,4.36,7.23,3.8,1.04-.27,1.39-1.62,1.53-2.6"/>
  </g>
</svg>