<?xml version="1.0" encoding="UTF-8"?>
<svg id="_сопля" data-name="сопля" xmlns="http://www.w3.org/2000/svg" viewBox="0 0 1170 2532">
  <defs>
    <style>
      .cls-1 {
        fill: #3fc1ff;
        stroke-width: 0px;
      }

      .cls-2 {
        fill: none;
        stroke: #0476ff;
        stroke-linecap: round;
        stroke-linejoin: round;
        stroke-width: 8px;
      }
    </style>
  </defs>
  <path class="cls-1" d="m424.3,1144.4c-.53,6.34-.57,14.8,3.23,17.25,4.14,2.67,8.65-4.41,13.14-2.65,10.01,3.93,2.35,50.47,12.26,54.28,1.64.63,3.78.1,5.17-.94,2.7-2.02,2.87-6.33,3.22-13.91.56-12.15.86-18.25,1.39-19.24,3.57-6.66,9.74-2.71,16.78-11.12,3.5-4.19,4.4-8.07,7.47-8.23,3-.15,5.48,3.39,6.58,4.96,5.86,8.39,3.12,18.19,7.78,20.73,1.83.99,3.72.3,3.83.25,4.78-1.85,4.65-12.08,7.15-31.16.91-6.97,1.86-12.69,2.54-16.6-13.69,2.81-29.18,5.13-46.23,6.27-16.12,1.08-30.99.94-44.32.11Z"/>
  <path class="cls-2" d="m425.65,1141.6c-1.12,7.75-1.74,17.32,1.88,20.05,3.83,2.9,8.47-4.48,13.14-2.65,10.01,3.93,2.35,50.47,12.26,54.28,1.64.63,3.78.1,5.17-.94,2.7-2.02,2.87-6.33,3.22-13.91.56-12.15.86-18.25,1.39-19.24,3.57-6.66,9.74-2.71,16.78-11.12,3.5-4.19,4.4-8.07,7.47-8.23,3-.15,5.48,3.39,6.58,4.96,5.86,8.39,3.12,18.19,7.78,20.73,1.83.99,3.72.3,3.83.25,4.58-1.77,4.36-11.91,7.15-31.16.85-5.88,1.68-10.55,2.18-13.23-13.81,1.79-29.17,2.94-45.87,2.91-15.51-.03-29.9-1.08-42.97-2.69Z"/>
</svg>