<?xml version="1.0" encoding="UTF-8"?>
<svg id="_ПК_v0" data-name="ПК v0" xmlns="http://www.w3.org/2000/svg" xmlns:xlink="http://www.w3.org/1999/xlink" viewBox="0 0 1170 2532">
  <defs>
    <style>
      .cls-1, .cls-2 {
        stroke-width: 10px;
      }

      .cls-1, .cls-2, .cls-3, .cls-4, .cls-5 {
        fill: none;
        stroke-linecap: round;
        stroke-linejoin: round;
      }

      .cls-1, .cls-4 {
        stroke: #96968f;
      }

      .cls-2 {
        stroke: #c6b680;
      }

      .cls-6 {
        opacity: .22;
      }

      .cls-6, .cls-7, .cls-8, .cls-9, .cls-10, .cls-11 {
        stroke-width: 0px;
      }

      .cls-7 {
        fill: url(#_Безымянный_градиент_8);
      }

      .cls-8 {
        fill: #b4b4ad;
      }

      .cls-9 {
        opacity: .15;
      }

      .cls-3 {
        stroke: #06c3ff;
      }

      .cls-3, .cls-4, .cls-5 {
        stroke-width: 8px;
      }

      .cls-10 {
        opacity: .07;
      }

      .cls-5 {
        stroke: #aaaaa3;
      }

      .cls-11 {
        fill: #c8c8c2;
      }
    </style>
    <radialGradient id="_Безымянный_градиент_8" data-name="Безымянный градиент 8" cx="1013.44" cy="1573.3" fx="1013.44" fy="1573.3" r="31.16" gradientUnits="userSpaceOnUse">
      <stop offset="0" stop-color="#3cecff" stop-opacity=".5"/>
      <stop offset=".02" stop-color="#43ecff" stop-opacity=".48"/>
      <stop offset=".21" stop-color="#86f3ff" stop-opacity=".31"/>
      <stop offset=".39" stop-color="#baf8ff" stop-opacity=".17"/>
      <stop offset=".57" stop-color="#e0fcff" stop-opacity=".08"/>
      <stop offset=".72" stop-color="#f7feff" stop-opacity=".02"/>
      <stop offset=".85" stop-color="#fff" stop-opacity="0"/>
    </radialGradient>
  </defs>
  <path class="cls-11" d="m807.15,1396.77c-31.72,4.4-63.44,8.8-95.17,13.19.16,16.56.32,33.11.47,49.67.44,46.29.88,92.59,1.32,138.89,29.32,20.12,58.65,40.25,87.97,60.38,41.13,28.22,82.26,56.45,123.39,84.68,34.42-7.01,68.83-14.01,103.25-21.02,1.58-76.04,3.17-152.08,4.75-228.12-75.32-32.56-150.65-65.11-225.98-97.67Zm116.65,115.97c-.47.07-.93.15-1.4.23.46-.08.94-.16,1.4-.24h0Z"/>
  <path class="cls-9" d="m923.23,1741.21c-67.3-46.05-134.61-92.1-201.91-138.15-2.68-1.83-5.35-3.66-8.03-5.49-.36-61.67-.71-123.33-1.07-185,67.18,31.86,134.37,63.72,201.56,95.58,2.72,1.29,5.43,2.58,8.15,3.87.43,76.4.87,152.79,1.3,229.19Z"/>
  <path class="cls-10" d="m712.34,1413.52c7.25,2.85,14.49,5.7,21.74,8.55-.44,17.13-.09,41.11,3.56,69.5,3.13,24.32,5.85,45.47,14.26,65.94,12.58,30.66,32.07,45.58,70.69,78.06,23.4,19.68,58.36,49.61,101.7,88.87-1.43,5.23-2.85,10.46-4.28,15.68-68.75-47.21-137.5-94.41-206.25-141.62-.48-61.66-.95-123.33-1.43-184.99Z"/>
  <path class="cls-6" d="m712.22,1412.57c70.3,33.78,140.59,67.56,210.89,101.35,35.49-6.5,70.97-12.99,106.46-19.49-74.14-32.55-148.28-65.11-222.42-97.66-31.64,5.27-63.29,10.53-94.93,15.8Z"/>
  <path class="cls-1" d="m711.98,1409.96c31.72-4.4,63.45-8.79,95.17-13.19,75.33,32.55,150.65,65.11,225.98,97.66-36.91,6.18-73.82,12.36-110.73,18.53-70.14-34.34-140.28-68.67-210.42-103.01.59,62.85,1.19,125.7,1.78,188.55,70.04,48.44,140.08,96.87,210.12,145.31.12-16.18.26-38.71.31-65.61.19-95.4-.85-163.34-.85-163.34s1.04,67.94.85,163.34c-.05,26.89-.19,49.43-.31,65.61,34.83-7.09,69.66-14.18,104.49-21.27,1.58-76.04,3.17-152.08,4.75-228.12"/>
  <path class="cls-8" d="m943.31,1528.3c.08,13.74.16,27.49.24,41.23,24.24-3.96,48.48-7.92,72.71-11.88.32-13.86.63-27.72.95-41.58-24.63,4.08-49.27,8.16-73.9,12.24Z"/>
  <path class="cls-4" d="m943.31,1528.3v42.65c24.32-4.44,48.63-8.87,72.95-13.31.32-13.86.63-27.72.95-41.58-24.63,4.08-49.27,8.16-73.9,12.24Z"/>
  <ellipse class="cls-3" cx="1013.69" cy="1572.98" rx="1.71" ry="2.72"/>
  <ellipse class="cls-5" cx="999.27" cy="1575.38" rx=".95" ry="1.51"/>
  <path class="cls-4" d="m925.84,1604.22c33.62-5.7,67.25-11.41,100.87-17.11"/>
  <path class="cls-4" d="m927.98,1632.5c33.62-5.7,67.25-11.41,100.87-17.11"/>
  <path class="cls-4" d="m926.91,1678c33.82-5.98,67.64-11.96,101.47-17.94"/>
  <path class="cls-2" d="m840.65,1472.81c7.68,3.78,15.37,7.56,23.05,11.35.08,19.5.16,39.01.24,58.51"/>
  <path class="cls-2" d="m772.93,1506.2v9.98"/>
  <path class="cls-2" d="m863.82,1556.72v5.35"/>
  <path class="cls-2" d="m898.43,1726.15c8.49,5.89,16.97,11.78,25.46,17.67.06-11.52.12-23.05.18-34.57"/>
  <g id="_Слой_57" data-name="Слой 57">
    <circle class="cls-7" cx="1013.44" cy="1573.3" r="31.16"/>
  </g>
</svg>