<?xml version="1.0" encoding="UTF-8"?>
<svg id="_ПК_v2" data-name="ПК v2" xmlns="http://www.w3.org/2000/svg" xmlns:xlink="http://www.w3.org/1999/xlink" viewBox="0 0 1170 2532">
  <defs>
    <style>
      .cls-1, .cls-2, .cls-3, .cls-4, .cls-5, .cls-6, .cls-7, .cls-8, .cls-9, .cls-10 {
        stroke-linecap: round;
      }

      .cls-1, .cls-2, .cls-3, .cls-5, .cls-7, .cls-8, .cls-10 {
        stroke-linejoin: round;
      }

      .cls-1, .cls-2, .cls-3, .cls-6, .cls-7, .cls-8, .cls-9, .cls-10 {
        fill: none;
      }

      .cls-1, .cls-6 {
        stroke: #828282;
      }

      .cls-1, .cls-7, .cls-9 {
        stroke-width: 10px;
      }

      .cls-11 {
        fill: url(#_Безымянный_градиент_46);
        opacity: .68;
      }

      .cls-11, .cls-12, .cls-13, .cls-14, .cls-15, .cls-16, .cls-17, .cls-18, .cls-19, .cls-20 {
        stroke-width: 0px;
      }

      .cls-12 {
        fill: #c8c8c8;
      }

      .cls-13 {
        opacity: .4;
      }

      .cls-2 {
        stroke: #00acff;
      }

      .cls-2, .cls-6, .cls-8, .cls-10 {
        stroke-width: 7px;
      }

      .cls-14 {
        opacity: .3;
      }

      .cls-3, .cls-5 {
        stroke-width: 8px;
      }

      .cls-3, .cls-5, .cls-7, .cls-9, .cls-10 {
        stroke: #141414;
      }

      .cls-4 {
        fill: #828282;
        stroke: #646464;
        stroke-width: 6px;
      }

      .cls-4, .cls-6, .cls-9 {
        stroke-miterlimit: 10;
      }

      .cls-5 {
        opacity: .41;
      }

      .cls-15 {
        opacity: .19;
      }

      .cls-16 {
        opacity: .57;
      }

      .cls-8 {
        stroke: #333;
      }

      .cls-17 {
        opacity: .33;
      }

      .cls-18 {
        fill: #464646;
      }

      .cls-19 {
        opacity: .5;
      }

      .cls-20 {
        fill: #282828;
      }
    </style>
    <radialGradient id="_Безымянный_градиент_46" data-name="Безымянный градиент 46" cx="999.77" cy="1603.9" fx="999.77" fy="1603.9" r="47.95" gradientUnits="userSpaceOnUse">
      <stop offset="0" stop-color="#0090ff" stop-opacity=".5"/>
      <stop offset=".02" stop-color="#0390ff" stop-opacity=".48"/>
      <stop offset=".25" stop-color="#2496ff" stop-opacity=".31"/>
      <stop offset=".46" stop-color="#3d9bff" stop-opacity=".17"/>
      <stop offset=".66" stop-color="#509fff" stop-opacity=".08"/>
      <stop offset=".85" stop-color="#5ba1ff" stop-opacity=".02"/>
      <stop offset="1" stop-color="#5fa2ff" stop-opacity="0"/>
    </radialGradient>
  </defs>
  <path class="cls-18" d="m868.31,1400.34c-38.75,5.8-77.5,11.61-116.25,17.41-.49,8.18-.98,16.35-1.47,24.53.55,12.19,1.04,24.46,1.47,36.79,1.71,48.94,2.41,96.91,2.21,143.84,14.03,11.04,28.37,22.08,43.04,33.11,42.07,31.62,83.63,60.74,124.34,87.55,35.53-7.24,71.04-14.46,106.57-21.7,1.63-78.48,3.27-156.97,4.9-235.45-54.94-28.7-109.87-57.39-164.81-86.09Zm51.97,104.98c-.49.07-.96.15-1.45.24.47-.08.97-.17,1.45-.25h0Z"/>
  <path class="cls-17" d="m868.31,1400.34c-38.75,5.8-77.5,11.61-116.25,17.41-.49,8.18-.98,16.35-1.47,24.53.55,12.19,1.04,24.46,1.47,36.79,1.71,48.94,2.41,96.91,2.21,143.84,14.03,11.04,28.37,22.08,43.04,33.11,42.07,31.62,83.63,60.74,124.34,87.55,35.53-7.24,71.04-14.46,106.57-21.7,1.63-78.48,3.27-156.97,4.9-235.45-54.94-28.7-109.87-57.39-164.81-86.09Zm51.97,104.98c-.49.07-.96.15-1.45.24.47-.08.97-.17,1.45-.25h0Z"/>
  <path class="cls-14" d="m919.69,1741.13c-55.77-39.3-111.55-78.6-167.32-117.9l-1.42-203.76c56.44,28.61,112.88,57.22,169.32,85.84-.2,78.61-.39,157.21-.59,235.82Z"/>
  <path class="cls-15" d="m752.06,1418.73c7.24,3.07,14.47,6.13,21.71,9.2-.59,18.74-.36,45.69,3.75,77.82,4.39,34.28,7.27,51.12,15.27,70.61,3.97,9.68,13.81,27.81,75.7,83.59,21.68,19.54,40.24,35.08,53.3,45.74-.49,11.28-.98,22.56-1.47,33.85-56.12-39.76-112.24-79.51-168.36-119.27.04-67.18.08-134.35.12-201.53Z"/>
  <path class="cls-13" d="m750.96,1419.47l168.62,87.07c36.63-6.7,73.25-13.41,109.88-20.11-54.37-28.12-108.73-56.25-163.1-84.37-38.46,5.8-76.93,11.61-115.39,17.41Z"/>
  <path class="cls-16" d="m923.5,1623.77c6.29,7.68,12.59,15.37,18.88,23.05-.08,14.72-.16,29.43-.25,44.15-6.38,13-12.75,26-19.13,39,.16-35.4.33-70.8.49-106.2Z"/>
  <path class="cls-16" d="m1029.2,1609.54c-4.58,8.18-9.16,16.35-13.73,24.53l.25,47.09c4.25,9.24,8.5,18.48,12.75,27.71.25-33.11.49-66.22.74-99.33Z"/>
  <path class="cls-13" d="m887.63,1503.16c.04,8.75.08,17.5.12,26.24,6.36,3.7,12.71,7.4,19.07,11.1v-27.47c-6.4-3.29-12.79-6.58-19.19-9.87Z"/>
  <path class="cls-13" d="m763.65,1436.63c.04,8.17.08,16.35.11,24.52,5.94,3.46,11.88,6.91,17.82,10.37v-25.66c-5.98-3.07-11.95-6.15-17.93-9.22Z"/>
  <path class="cls-13" d="m764.75,1588.88c.04,8.56.08,17.12.11,25.68,5.91,3.82,11.82,7.65,17.73,11.47.03-8.92.06-17.85.09-26.77-5.98-3.46-11.95-6.93-17.93-10.39Z"/>
  <path class="cls-13" d="m887.26,1674.6v25.75c6.38,4.72,12.75,9.44,19.13,14.16v-27.47c-6.38-4.15-12.75-8.3-19.13-12.45Z"/>
  <path class="cls-7" d="m752.06,1415.3c38.75-4.99,77.5-9.97,116.25-14.96,54.94,28.7,109.88,57.39,164.81,86.09-37.03,6.21-74.07,12.43-111.1,18.64-56.65-29.92-113.31-59.84-169.96-89.76.65,68.84,1.31,137.67,1.96,206.51,55.45,40.67,110.9,81.34,166.35,122.02.07-16.72.17-39.98.32-67.72.56-99.92,1.33-171.04,1.33-171.04s-.77,71.14-1.33,171.04c-.16,27.74-.26,50.99-.32,67.72,35.95-7.32,71.9-14.63,107.85-21.95,1.64-78.48,3.27-156.97,4.91-235.45"/>
  <path class="cls-12" d="m1033.13,1486.42c-37.03,6.21-74.07,12.43-111.1,18.64-.25,36.46-.49,72.92-.74,109.39,7.6,10.55,15.21,21.09,22.81,31.64.08,15.04.16,30.09.25,45.13-7.99,17.54-15.98,35.07-23.97,52.61,35.95-7.32,71.9-14.63,107.85-21.95-4.41-15.37-8.83-30.74-13.24-46.11.16-13.9.33-27.8.49-41.69,5.15-11.77,10.3-23.54,15.45-35.32.74-37.44,1.47-74.89,2.21-112.33Z"/>
  <path class="cls-20" d="m923.25,1610.24c5.48,8.15,10.95,16.3,16.43,24.44,25.63-4.78,51.26-9.57,76.89-14.35,4.33-8.19,8.65-16.37,12.98-24.56.87-34.65,1.73-69.3,2.6-103.95-36.15,5.14-72.31,10.29-108.46,15.43-.14,34.33-.29,68.66-.43,102.99Z"/>
  <path class="cls-20" d="m954.16,1697.1c-4.66,10.3-9.32,20.6-13.98,30.9,24.69-4.99,49.38-9.97,74.07-14.96-2.94-8.09-5.89-16.19-8.83-24.28-17.09,2.78-34.17,5.56-51.26,8.34Z"/>
  <path class="cls-19" d="m952.93,1697.1c-3.35,9.89-6.7,19.78-10.06,29.68,23.18-4.95,46.35-9.89,69.53-14.84-2.53-7.89-5.07-15.78-7.6-23.67-17.29,2.94-34.58,5.89-51.87,8.83Z"/>
  <path class="cls-9" d="m951.46,1695.02c-5.15,12.02-10.3,24.04-15.45,36.05,26.98-5.4,53.96-10.79,80.94-16.19-3.43-10.06-6.87-20.11-10.3-30.17-18.39,3.43-36.79,6.87-55.18,10.3Z"/>
  <path class="cls-6" d="m941.98,1706.34c24.22-4.91,48.44-9.82,72.66-14.73"/>
  <path class="cls-6" d="m943.7,1690.43c22.95-4.65,45.89-9.31,68.84-13.96"/>
  <path class="cls-6" d="m931.13,1724.1c30.48-6.08,60.95-12.17,91.43-18.25"/>
  <path class="cls-5" d="m1018.78,1548.23l-45.62,7.73v15.82c15.66-2.62,31.31-5.23,46.97-7.85"/>
  <path class="cls-3" d="m1018.78,1548.23l-45.62,7.73v15.82c15.66-2.62,31.31-5.23,46.97-7.85"/>
  <path class="cls-7" d="m931.1,1513.4c-.08,32.37-.16,64.75-.25,97.12,4.99,7.11,9.97,14.23,14.96,21.34,21.26-3.72,42.51-7.44,63.77-11.16,4.01-8.13,8.01-16.27,12.02-24.4.57-33.11,1.14-66.22,1.72-99.33-30.74,5.48-61.48,10.95-92.22,16.43Z"/>
  <path class="cls-1" d="m1033.13,1486.42c-37.03,6.21-74.07,12.43-111.1,18.64-.25,36.46-.49,72.92-.74,109.39,7.6,10.55,15.21,21.09,22.81,31.64.08,15.04.16,30.09.25,45.13-7.99,17.54-15.98,35.07-23.97,52.61,35.95-7.32,71.9-14.63,107.85-21.95-4.86-14.47-9.73-28.94-14.59-43.41.12-14.72.25-29.43.37-44.15,5.64-11.85,11.28-23.71,16.92-35.56.74-37.44,1.47-74.89,2.21-112.33Z"/>
  <path class="cls-3" d="m931.59,1531.3c30.04-5.15,60.09-10.3,90.13-15.45"/>
  <path class="cls-3" d="m931.78,1547.49c30.04-5.15,60.09-10.3,90.13-15.45"/>
  <path class="cls-2" d="m998.67,1601.2c.61,2.58,1.23,5.15,1.84,7.73"/>
  <path class="cls-2" d="m985.43,1603.41c.61,2.58,1.23,5.15,1.84,7.73"/>
  <path class="cls-10" d="m967.34,1606.68c.61,2.58,1.23,5.15,1.84,7.73"/>
  <path class="cls-10" d="m953.6,1609.21c.61,2.58,1.23,5.15,1.84,7.73"/>
  <ellipse class="cls-4" cx="980.48" cy="1655.39" rx="11.23" ry="9.04" transform="translate(-718.15 2558.9) rotate(-87.37)"/>
  <g>
    <path class="cls-8" d="m816.41,1559.69c.42-3.31-4.09-8.02-4.4-8.34-2.8-2.88-5.57-3.76-6.47-4.01,5.28,2.5,8.98,1.08,9.02-1.41.04-2.64-4.03-8.14-9.89-10.42.13,8.09.27,16.21.4,24.38,1.17.75,4,2.4,6.94,2.33,1.33-.03,4.08-.11,4.39-2.53Z"/>
    <path class="cls-8" d="m818.17,1547.78c2.21,7.56,4.45,15.21,6.71,22.95"/>
    <path class="cls-8" d="m818.02,1547.67c3.04.22,6.11.44,9.21.66"/>
    <path class="cls-8" d="m821.95,1558.57c3.09.28,6.21.56,9.36.84"/>
    <path class="cls-8" d="m824.98,1570.63c3.13.34,6.29.69,9.49,1.04"/>
    <path class="cls-8" d="m838.8,1551.93c.05,8.76.1,17.56.15,26.4,3.22,1.64,6.47,3.3,9.76,4.97"/>
    <path class="cls-8" d="m852.69,1558.29c.09,8.99.17,18.02.26,27.09,3.38,1.72,6.79,3.46,10.25,5.22"/>
  </g>
  <circle class="cls-11" cx="999.77" cy="1603.9" r="54.89"/>
</svg>