<?xml version="1.0" encoding="UTF-8"?>
<svg id="_ПК_v1" data-name="ПК v1" xmlns="http://www.w3.org/2000/svg" xmlns:xlink="http://www.w3.org/1999/xlink" viewBox="0 0 1170 2532">
  <defs>
    <style>
      .cls-1 {
        opacity: .24;
      }

      .cls-1, .cls-2, .cls-3, .cls-4, .cls-5, .cls-6, .cls-7, .cls-8, .cls-9, .cls-10, .cls-11 {
        stroke-width: 0px;
      }

      .cls-12 {
        fill: #bebea8;
      }

      .cls-12, .cls-13, .cls-14, .cls-15, .cls-16, .cls-17, .cls-18, .cls-19, .cls-20 {
        stroke-linecap: round;
        stroke-linejoin: round;
      }

      .cls-12, .cls-13, .cls-15, .cls-18, .cls-19 {
        stroke: #8c8c79;
      }

      .cls-12, .cls-19 {
        stroke-width: 6px;
      }

      .cls-13 {
        stroke-width: 4px;
      }

      .cls-13, .cls-18, .cls-19 {
        fill: #aaaa94;
      }

      .cls-2 {
        fill: #c8c8b4;
      }

      .cls-3 {
        opacity: .25;
      }

      .cls-14 {
        opacity: .8;
        stroke: #000;
        stroke-width: 5px;
      }

      .cls-4 {
        fill: #00df2b;
        opacity: .78;
      }

      .cls-5 {
        opacity: .22;
      }

      .cls-6 {
        opacity: .08;
      }

      .cls-15 {
        stroke-width: 10px;
      }

      .cls-15, .cls-16, .cls-17 {
        fill: none;
      }

      .cls-7 {
        opacity: .19;
      }

      .cls-8 {
        fill: url(#_Безымянный_градиент_30);
      }

      .cls-16 {
        stroke: #d40000;
      }

      .cls-16, .cls-17, .cls-18, .cls-20 {
        stroke-width: 2px;
      }

      .cls-17 {
        stroke: #00df2b;
      }

      .cls-9 {
        fill: url(#_Безымянный_градиент_31-2);
      }

      .cls-10 {
        opacity: .15;
      }

      .cls-20 {
        fill: #b4b49e;
        stroke: #a0a08a;
      }

      .cls-11 {
        fill: url(#_Безымянный_градиент_31);
      }
    </style>
    <radialGradient id="_Безымянный_градиент_30" data-name="Безымянный градиент 30" cx="955.04" cy="1605.81" fx="943.21" fy="1605.81" r="51.76" gradientTransform="translate(-517.3 451.83) rotate(-3.05) scale(1.5 .78)" gradientUnits="userSpaceOnUse">
      <stop offset="0" stop-color="#00da2a" stop-opacity=".3"/>
      <stop offset=".11" stop-color="#00d829" stop-opacity=".21"/>
      <stop offset=".26" stop-color="#00d629" stop-opacity=".11"/>
      <stop offset=".43" stop-color="#00d529" stop-opacity=".05"/>
      <stop offset=".64" stop-color="#00d529" stop-opacity=".01"/>
      <stop offset="1" stop-color="#00d529" stop-opacity="0"/>
    </radialGradient>
    <radialGradient id="_Безымянный_градиент_31" data-name="Безымянный градиент 31" cx="1014.74" cy="1604.37" fx="1014.74" fy="1604.37" r="23.8" gradientUnits="userSpaceOnUse">
      <stop offset="0" stop-color="#00da2a" stop-opacity=".3"/>
      <stop offset=".11" stop-color="#00d829" stop-opacity=".21"/>
      <stop offset=".26" stop-color="#00d629" stop-opacity=".11"/>
      <stop offset=".43" stop-color="#00d529" stop-opacity=".05"/>
      <stop offset=".64" stop-color="#00d529" stop-opacity=".01"/>
      <stop offset="1" stop-color="#00d529" stop-opacity="0"/>
    </radialGradient>
    <radialGradient id="_Безымянный_градиент_31-2" data-name="Безымянный градиент 31" cx="967.65" cy="1528.77" fx="967.65" fy="1528.77" r="23.8" xlink:href="#_Безымянный_градиент_31"/>
  </defs>
  <path class="cls-2" d="m873.45,1411.03c-37.54,5.62-75.09,11.25-112.63,16.87-.48,7.92-.95,15.84-1.43,23.76.53,11.81,1.01,23.69,1.43,35.64,1.66,47.42,2.33,93.89,2.14,139.37,13.59,10.7,27.49,21.4,41.7,32.08,40.76,30.64,81.03,58.85,120.47,84.83,34.42-7.01,68.83-14.01,103.25-21.02,1.58-76.04,3.17-152.08,4.75-228.12-53.23-27.8-106.45-55.61-159.68-83.41Zm50.35,101.71c-.47.07-.93.15-1.4.23.46-.08.94-.16,1.4-.24h0Z"/>
  <path class="cls-7" d="m923.23,1741.21c-54.02-36.16-108.04-72.32-162.06-108.48-.48-67.72-.95-135.45-1.43-203.17,54.68,27.72,109.37,55.44,164.05,83.16-.19,76.16-.38,152.32-.57,228.48Z"/>
  <path class="cls-6" d="m760.81,1428.85c7.01,2.97,14.02,5.94,21.03,8.91-.57,18.15-.35,44.26,3.63,75.4,4.25,33.21,7.04,49.53,14.79,68.41,3.85,9.38,13.38,26.95,73.34,80.98,21,18.93,38.99,33.99,51.64,44.31-.48,10.93-.95,21.86-1.43,32.79-54.37-38.52-108.75-77.04-163.12-115.56.04-65.08.07-130.17.11-195.25Z"/>
  <path class="cls-5" d="m759.74,1429.56l163.37,84.36c35.49-6.5,70.97-12.99,106.46-19.49-52.67-27.25-105.35-54.5-158.02-81.74-37.27,5.62-74.53,11.25-111.8,16.87Z"/>
  <path class="cls-15" d="m760.81,1425.52c37.54-4.83,75.09-9.66,112.63-14.5,53.23,27.8,106.46,55.6,159.68,83.41-35.88,6.02-71.76,12.04-107.64,18.06-54.89-28.99-109.78-57.98-164.67-86.97.63,66.69,1.27,133.39,1.9,200.08,53.72,39.41,107.45,78.81,161.17,118.22.06-16.2.16-38.73.31-65.61.54-96.81,1.29-165.72,1.29-165.72s-.75,68.92-1.29,165.72c-.15,26.87-.25,49.41-.31,65.61,34.83-7.09,69.66-14.18,104.49-21.27,1.58-76.04,3.17-152.08,4.75-228.12"/>
  <path class="cls-19" d="m939.74,1525.8c-.06,5.52-.12,11.05-.18,16.57,26.48-4.61,52.95-9.23,79.43-13.84v-16.51c-26.42,4.59-52.83,9.19-79.25,13.78Z"/>
  <path class="cls-14" d="m938.32,1615.74c0,8.22,0,16.44,0,24.65,26.61-4.69,53.23-9.39,79.84-14.08.16-8.12.32-16.24.48-24.36-26.77,4.59-53.54,9.19-80.32,13.78Z"/>
  <path class="cls-13" d="m937.78,1589.78v10.16l54-9.89v-9.98c-18,3.24-36,6.48-54,9.71Z"/>
  <path class="cls-12" d="m954.48,1649.6c-.2,28-.4,56-.59,84,17.52-3.5,35.05-7.01,52.57-10.51.34-27.74.67-55.49,1.01-83.23-17.66,3.25-35.33,6.5-52.99,9.74Z"/>
  <ellipse class="cls-3" cx="949.14" cy="1532.32" rx="2.72" ry="3.19"/>
  <ellipse class="cls-3" cx="956.23" cy="1531.17" rx="2.72" ry="3.19"/>
  <ellipse class="cls-3" cx="910.72" cy="1524.23" rx="3.19" ry="4.8"/>
  <ellipse class="cls-3" cx="911.23" cy="1716.67" rx="3.19" ry="4.8"/>
  <ellipse class="cls-3" cx="774.93" cy="1617.26" rx="3.04" ry="4.58"/>
  <ellipse class="cls-3" cx="773.32" cy="1448.49" rx="3.04" ry="4.58"/>
  <ellipse class="cls-3" cx="990.42" cy="1525.27" rx="20.65" ry="2.91" transform="translate(-213.8 162.47) rotate(-8.47)"/>
  <ellipse class="cls-4" cx="963.4" cy="1530.04" rx="2.72" ry="3.19"/>
  <path class="cls-10" d="m935.94,1553.13v34.93c28.44-5.15,56.87-10.3,85.31-15.45.16-11.33.32-22.65.48-33.98-28.59,4.83-57.19,9.66-85.78,14.5Z"/>
  <path class="cls-1" d="m1000.34,1581.19v15.9c5.19-.87,10.38-1.74,15.57-2.61.07-5.37.14-10.74.2-16.1-5.26.94-10.52,1.88-15.78,2.81Z"/>
  <path class="cls-18" d="m939.5,1594.71c16.91-3.09,33.82-6.18,50.73-9.27"/>
  <path class="cls-13" d="m954.68,1666.48c16.91-3.09,33.82-6.18,50.73-9.27"/>
  <path class="cls-13" d="m955.4,1682.16c16.91-3.09,33.82-6.18,50.73-9.27"/>
  <path class="cls-13" d="m955.75,1697.49c16.91-3.09,33.82-6.18,50.73-9.27"/>
  <path class="cls-13" d="m955.22,1714.95c16.91-3.09,33.82-6.18,50.73-9.27"/>
  <path class="cls-17" d="m946.64,1622.32c-.01,1.19-.02,2.38-.03,3.57"/>
  <path class="cls-17" d="m954.03,1621.13c-.01,1.19-.02,2.38-.03,3.57"/>
  <path class="cls-17" d="m953.98,1627c-.01,1.19-.02,2.38-.03,3.57"/>
  <path class="cls-17" d="m967.1,1619.07c-.01,1.19-.02,2.38-.03,3.57"/>
  <path class="cls-17" d="m959.8,1626.07c-.01,1.19-.02,2.38-.03,3.57"/>
  <path class="cls-17" d="m951.89,1626.87c-1.18.19-2.35.38-3.53.57"/>
  <path class="cls-17" d="m973.43,1618.08c-.01,1.19-.02,2.38-.03,3.57"/>
  <path class="cls-17" d="m973.33,1623.89c-.01,1.19-.02,2.38-.03,3.57"/>
  <path class="cls-17" d="m980.82,1616.89c-.01,1.19-.02,2.38-.03,3.57"/>
  <path class="cls-17" d="m980.77,1622.76c-.01,1.19-.02,2.38-.03,3.57"/>
  <path class="cls-17" d="m978.8,1626.58c-1.18.19-2.35.38-3.53.57"/>
  <path class="cls-17" d="m978.8,1617.27c-1.18.19-2.35.38-3.53.57"/>
  <path class="cls-16" d="m1001.79,1606.85c-2.94.48-5.88.96-8.82,1.43"/>
  <path class="cls-17" d="m1014.56,1604.68c-2.94.48-5.88.96-8.82,1.43"/>
  <path class="cls-17" d="m964.78,1619.17c-1.18.19-2.35.38-3.53.57"/>
  <path class="cls-17" d="m965.34,1624.31c-1.18.19-2.35.38-3.53.57"/>
  <path class="cls-17" d="m965.54,1628.79c-1.18.19-2.35.38-3.53.57"/>
  <ellipse class="cls-20" cx="999.45" cy="1622.3" rx="3.39" ry="4.25"/>
  <ellipse class="cls-20" cx="1010.42" cy="1620.54" rx="3.39" ry="4.25"/>
  <g id="_Слой_60" data-name="Слой 60">
    <path class="cls-8" d="m878.07,1591.77c65.79-5.66,131.58-11.33,197.37-16.99,2.6,22.04,5.21,44.08,7.81,66.11-65.39,8.66-130.79,17.32-196.18,25.98-3-25.04-6-50.07-9.01-75.11Z"/>
    <path class="cls-11" d="m983.76,1583.94c20.22-1.27,40.43-2.55,60.65-3.82.44,13.11.87,26.23,1.31,39.34-20.14,3.06-40.29,6.12-60.43,9.18-.51-14.9-1.02-29.8-1.53-44.69Z"/>
    <path class="cls-9" d="m936.67,1508.34c20.22-1.27,40.43-2.55,60.65-3.82.44,13.11.87,26.23,1.31,39.34-20.14,3.06-40.29,6.12-60.43,9.18-.51-14.9-1.02-29.8-1.53-44.69Z"/>
  </g>
</svg>