<?xml version="1.0" encoding="UTF-8"?>
<svg id="_стол_v3" data-name="стол v3" xmlns="http://www.w3.org/2000/svg" viewBox="0 0 1170 2532">
  <defs>
    <style>
      .cls-1 {
        opacity: .29;
      }

      .cls-1, .cls-2, .cls-3, .cls-4, .cls-5, .cls-6, .cls-7 {
        stroke-width: 0px;
      }

      .cls-2 {
        opacity: .18;
      }

      .cls-3 {
        fill: #fff;
        opacity: .05;
      }

      .cls-5 {
        fill: #2b2b2b;
      }

      .cls-6 {
        opacity: .16;
      }

      .cls-8 {
        stroke: #1e1e1e;
      }

      .cls-8, .cls-9 {
        fill: none;
        stroke-linecap: round;
        stroke-linejoin: round;
        stroke-width: 10px;
      }

      .cls-10 {
        opacity: .12;
      }

      .cls-7 {
        fill: #696969;
      }

      .cls-9 {
        stroke: #404040;
      }
    </style>
  </defs>
  <path class="cls-5" d="m92.14,1376.53c3.8,104.57,7.6,209.14,11.41,313.7,62.02,63.52,124.04,127.05,186.06,190.57,7.25-1.28,14.49-2.56,21.74-3.83-1.31-104.33-2.61-208.65-3.92-312.98-6.97-.22-13.94-.44-20.91-.65,1.03,96.32,2.06,192.63,3.09,288.95-54.65-57.35-109.31-114.69-163.96-172.04-3.41-93.94-6.81-187.88-10.22-281.82-7.76-7.3-15.52-14.6-23.29-21.9Z"/>
  <path class="cls-3" d="m286.51,1568.1c1.02,103.41,2.05,206.81,3.07,310.22,6.74-1.19,13.48-2.38,20.21-3.56-.83-103.58-1.65-207.17-2.48-310.75-6.93,1.37-13.87,2.73-20.8,4.1Z"/>
  <path class="cls-8" d="m307.43,1564c1.31,104.33,2.61,208.65,3.92,312.98"/>
  <path class="cls-7" d="m1104.42,1424.57c-.48,6.81-.95,13.63-1.43,20.44-272.16,39.45-544.32,78.89-816.48,118.34-64.79-63.6-129.58-127.21-194.38-190.81l-.35-22.46c234.57-30.46,469.15-60.91,703.72-91.37,102.97,55.29,205.94,110.57,308.91,165.86Z"/>
  <path class="cls-6" d="m289.6,1544.34c-.24,5.7-.48,11.41-.71,17.11,270.89-38.5,541.78-76.99,812.67-115.49v-18.53c-270.65,38.97-541.31,77.94-811.96,116.91Z"/>
  <path class="cls-1" d="m94.99,1355.07c-.24,5.7-.48,11.41-.71,17.11,63.6,64.42,127.21,128.84,190.81,193.27.14-7.69.28-15.38.43-23.07-63.51-62.44-127.02-124.87-190.53-187.31Z"/>
  <path class="cls-8" d="m285.33,1566.79c1.31,105.4,2.61,210.79,3.92,316.19-61.9-64.25-123.8-128.49-185.7-192.74-3.8-104.57-7.6-209.14-11.41-313.7"/>
  <path class="cls-8" d="m288.89,1849.92c-54.42-56.55-108.83-113.11-163.25-169.66-3.41-93.94-6.81-187.88-10.22-281.82"/>
  <path class="cls-2" d="m796.46,1259.19c-.43,11.73-2.35,28.6-9.62,47.05-35.39,89.78-157.47,115.76-229.9,131.17-42.32,9.01-122.09,23.89-211.72-.71-37.55-10.31-30.56-14.71-68.44-24.24-75.48-18.98-127.36-7.08-164.67-45.62-5.69-5.88-9.68-11.35-12.12-14.97,232.16-30.89,464.32-61.78,696.48-92.67Z"/>
  <g class="cls-10">
    <path class="cls-4" d="m124.63,1377.05c54.7,14.86,114.56,16.63,167.52-5.62,33.83-13.83,56.09-28.88,94.73-21.46,11.66,2.17,24.2,6.65,35.8,9.03,28.13,5.82,57.72,1.2,84-9.99-29.93,13.48-64.49,17.7-96.29,8.55-11.46-3.08-24.11-6.5-35.95-7.13-30.7-2.28-53.89,12.81-80.98,24.2-38.06,16.54-80.45,21.37-121.55,17.03-16.47-1.64-32.77-4.68-48.81-8.66-1.64-.41-2.65-2.07-2.24-3.72.41-1.66,2.12-2.67,3.77-2.22h0Z"/>
  </g>
  <g class="cls-10">
    <path class="cls-4" d="m1002,1374.47c-36.34-14.39-82.02-21.16-115.4,3.58-3.88,3.07-7.34,6.79-11.22,10.29-3.86,3.52-8.17,6.61-12.67,9.23-13.45,8.06-29.41,11.93-45.05,10.41-15.4-1.33-30.27-6.11-45.27-9.13-9.96-2.08-20.06-3.46-30.22-3.64-20.24-.24-40.85,3.65-58.99,12.83-9.09,4.57-17.6,10.28-26.42,15.51-35.27,21.18-76.39,30.49-116.94,34.54,40.41-4.45,81.38-14.15,116.3-35.61,8.72-5.3,17.19-11.1,26.35-15.83,18.32-9.5,39.16-13.65,59.72-13.62,20.64-.06,40.69,5.81,60.67,9.9,9.89,1.93,20.03,3.08,30.04,1.75,14.87-1.96,28.99-8.93,40.06-18.98,3.68-3.38,7.17-7.23,11.29-10.56,16.59-12.95,38.22-18.05,58.95-17.94,20.82.13,41.23,5.34,60.59,12.61,2.94,1.21,1.5,5.78-1.79,4.67h0Z"/>
  </g>
  <path class="cls-9" d="m1104.42,1424.57c-272.97,39.27-545.93,78.54-818.9,117.81h-.01.01c-64.58-64.1-129.15-128.2-193.73-192.3,234.57-30.46,469.15-60.91,703.72-91.37,102.97,55.29,205.94,110.57,308.91,165.86Z"/>
  <path class="cls-9" d="m1102.99,1446.08c-272.63,39.79-545.27,79.58-817.9,119.37-64.32-63.95-128.63-127.89-192.95-191.84"/>
  <path class="cls-9" d="m91.79,1350.08l.35,25.31"/>
  <path class="cls-9" d="m285.52,1542.38c0,6.53,0,13.07-.01,19.6"/>
  <path class="cls-9" d="m1104.42,1424.57c-.4,7.01-.79,14.02-1.19,21.03"/>
  <path class="cls-8" d="m289.25,1882.98c7.37-2,14.73-4,22.1-6"/>
  <path class="cls-8" d="m104.61,1687.65c7.37-2,14.73-4,22.1-6"/>
</svg>