<?xml version="1.0" encoding="UTF-8"?>
<svg id="_стол_v3_ножка_копия_" data-name="стол v3 ножка (копия)" xmlns="http://www.w3.org/2000/svg" viewBox="0 0 1170 2532">
  <defs>
    <style>
      .cls-1 {
        opacity: .09;
      }

      .cls-1, .cls-2, .cls-3 {
        stroke-width: 0px;
      }

      .cls-2 {
        fill: #fff;
        opacity: .05;
      }

      .cls-3 {
        fill: #2b2b2b;
      }

      .cls-4 {
        fill: none;
        stroke: #1e1e1e;
        stroke-linecap: round;
        stroke-linejoin: round;
        stroke-width: 10px;
      }
    </style>
  </defs>
  <path class="cls-1" d="m1081.13,1448.81c-2.22,97.19-4.44,194.38-6.65,291.56,6.77-1.19,13.54-2.38,20.32-3.56,2.26-96.95,4.51-193.9,6.77-290.85-6.81.95-13.62,1.9-20.44,2.85Z"/>
  <path class="cls-3" d="m796.46,1491.58l1.07,65.94c92.32,60.95,184.63,121.9,276.95,182.85l19.96-3.59c2.38-95.99,4.75-191.98,7.13-287.97-6.18.95-12.36,1.9-18.53,2.85-2.85,90.14-5.7,180.28-8.55,270.42-85.23-57.03-170.46-114.06-255.68-171.09-.63-19.64-1.27-39.29-1.9-58.93l-20.44-.48Z"/>
  <path class="cls-2" d="m1080.65,1448.34c-1.74,97.9-3.49,195.8-5.23,293.7,6.46-1.39,12.91-2.77,19.37-4.16,2.22-97.88,4.44-195.76,6.67-293.64-6.93,1.37-13.87,2.73-20.8,4.1Z"/>
  <path class="cls-4" d="m1083.03,1449.29c-2.53,97.58-5.07,195.17-7.6,292.75-92.63-61.5-185.27-123.01-277.9-184.51v-197.82"/>
  <path class="cls-4" d="m1075.9,1721.6c-86.49-57.43-172.99-114.85-259.49-172.28v-197.82"/>
  <path class="cls-4" d="m1101.92,1441.09c-2.53,97.58-5.07,195.17-7.6,292.75"/>
  <path class="cls-4" d="m1102.99,1445.01c-2.85,97.26-5.7,194.51-8.56,291.77"/>
  <path class="cls-4" d="m1076.14,1742.51c6.1-1.91,12.2-3.82,18.3-5.73"/>
  <path class="cls-4" d="m799.54,1555.74c6.1-1.91,12.2-3.82,18.3-5.73"/>
</svg>