<?xml version="1.0" encoding="UTF-8"?>
<svg id="_стол_v2_ножка" data-name="стол v2 ножка" xmlns="http://www.w3.org/2000/svg" viewBox="0 0 1170 2532">
  <defs>
    <style>
      .cls-1 {
        opacity: .29;
      }

      .cls-1, .cls-2, .cls-3, .cls-4 {
        stroke-width: 0px;
      }

      .cls-2 {
        opacity: .09;
      }

      .cls-4 {
        fill: #ccc;
      }

      .cls-5 {
        fill: none;
        stroke: gray;
        stroke-linecap: round;
        stroke-linejoin: round;
        stroke-width: 10px;
      }

      .cls-6 {
        opacity: .1;
      }
    </style>
  </defs>
  <path class="cls-4" d="m1069.6,1427.9c10.65-.16,21.31-.32,31.96-.48-2.38,103.12-4.75,206.24-7.13,309.36-7.17,1.28-14.34,2.56-21.5,3.83-91.8-61.03-183.6-122.06-275.41-183.09,1.07-32.79,2.14-65.58,3.21-98.38"/>
  <path class="cls-1" d="m1069.6,1427.9c4.71,3.41,9.43,6.81,14.14,10.22-2.77,101.31-5.54,202.61-8.32,303.92-92.63-61.5-185.27-123.01-277.9-184.51,1.07-32.79,2.14-65.58,3.21-98.38"/>
  <path class="cls-2" d="m1081.13,1448.81c-2.22,97.19-4.44,194.38-6.65,291.56,6.77-1.19,13.54-2.38,20.32-3.56,2.26-96.95,4.51-193.9,6.77-290.85-6.81.95-13.62,1.9-20.44,2.85Z"/>
  <g class="cls-6">
    <path class="cls-3" d="m1076.63,1581.99c-20.14-4.12-43.34-10.54-55.36-28.71-2.33-3.61-3.9-7.75-5.12-11.81-1.24-3.98-2.38-7.88-4.77-10.88-2.37-2.97-5.88-5.14-9.66-5.72-3.96-.64-8.06.3-12.1.7-6.3.86-12.98.01-18.79-2.73-5.91-2.58-10-7.97-14.02-12.61-11.27-12.84-30.23-14.23-46-10.5,15.86-4.19,35.14-3.13,46.91,9.65,2.92,3.04,5.42,6.37,8.64,8.82,6.5,4.94,15,6.47,23,5.19,6.23-.95,13.29-2.46,19.05,1.15,8.19,4.2,9.61,14.01,12.87,21.64,9.62,20.71,35.53,27.17,56.23,30.87,3.23.59,2.51,5.46-.87,4.92h0Z"/>
  </g>
  <path class="cls-5" d="m1083.03,1449.29c-2.53,97.58-5.07,195.17-7.6,292.75-92.63-61.5-185.27-123.01-277.9-184.51v-197.82"/>
  <path class="cls-5" d="m1102.99,1445.01c-2.85,97.26-5.7,194.51-8.56,291.77"/>
  <path class="cls-5" d="m1076.14,1742.51c6.1-1.91,12.2-3.82,18.3-5.73"/>
</svg>