<?xml version="1.0" encoding="UTF-8"?>
<svg id="_стол_v4" data-name="стол v4" xmlns="http://www.w3.org/2000/svg" xmlns:xlink="http://www.w3.org/1999/xlink" viewBox="0 0 1170 2532">
  <defs>
    <style>
      .cls-1 {
        stroke: #a97850;
      }

      .cls-1, .cls-2 {
        fill: none;
        stroke-linecap: round;
        stroke-linejoin: round;
        stroke-width: 10px;
      }

      .cls-3 {
        fill: url(#_Безымянный_градиент_73);
      }

      .cls-3, .cls-4, .cls-5, .cls-6, .cls-7, .cls-8, .cls-9 {
        stroke-width: 0px;
      }

      .cls-4 {
        fill: #fff;
        opacity: .05;
      }

      .cls-5 {
        opacity: .28;
      }

      .cls-5, .cls-8 {
        fill: #895e42;
      }

      .cls-6 {
        fill: url(#_Безымянный_градиент_21);
        opacity: .12;
      }

      .cls-7 {
        fill: #2b2b2b;
      }

      .cls-2 {
        stroke: #1e1e1e;
      }

      .cls-8 {
        opacity: .49;
      }

      .cls-9 {
        opacity: .04;
      }
    </style>
    <linearGradient id="_Безымянный_градиент_73" data-name="Безымянный градиент 73" x1="528.74" y1="1228.85" x2="643.26" y2="1508.54" gradientUnits="userSpaceOnUse">
      <stop offset=".16" stop-color="#d8a26b"/>
      <stop offset="1" stop-color="#eaba8d"/>
    </linearGradient>
    <linearGradient id="_Безымянный_градиент_21" data-name="Безымянный градиент 21" x1="554.37" y1="1590.34" x2="445.02" y2="1321.34" gradientUnits="userSpaceOnUse">
      <stop offset=".28" stop-color="#000" stop-opacity="0"/>
      <stop offset="1" stop-color="#000"/>
    </linearGradient>
  </defs>
  <path class="cls-7" d="m92.14,1376.53c3.8,104.57,7.6,209.14,11.41,313.7,62.02,63.52,124.04,127.05,186.06,190.57,7.25-1.28,14.49-2.56,21.74-3.83-1.31-104.33-2.61-208.65-3.92-312.98-6.97-.22-13.94-.44-20.91-.65,1.03,96.32,2.06,192.63,3.09,288.95-54.65-57.35-109.31-114.69-163.96-172.04-3.41-93.94-6.81-187.88-10.22-281.82-7.76-7.3-15.52-14.6-23.29-21.9Z"/>
  <path class="cls-4" d="m286.51,1568.1c1.02,103.41,2.05,206.81,3.07,310.22,6.74-1.19,13.48-2.38,20.21-3.56-.83-103.58-1.65-207.17-2.48-310.75-6.93,1.37-13.87,2.73-20.8,4.1Z"/>
  <path class="cls-2" d="m307.43,1564c1.31,104.33,2.61,208.65,3.92,312.98"/>
  <path class="cls-3" d="m1122.95,1424.72c-.49,6.81-.99,13.63-1.48,20.44-282.12,39.45-564.24,78.89-846.36,118.34-67.16-63.6-134.33-127.21-201.49-190.81-.12-7.49-.24-14.97-.37-22.46,243.16-30.46,486.32-60.91,729.48-91.37,106.74,55.29,213.48,110.57,320.22,165.86Z"/>
  <path class="cls-5" d="m278.31,1544.49c-.25,5.7-.49,11.41-.74,17.11,280.81-38.5,561.62-76.99,842.42-115.49v-18.53c-280.56,38.97-561.12,77.94-841.68,116.91Z"/>
  <path class="cls-8" d="m76.57,1355.22c-.25,5.7-.49,11.41-.74,17.11,65.93,64.42,131.86,128.84,197.8,193.27.15-7.69.29-15.38.44-23.07-65.83-62.44-131.67-124.87-197.5-187.31Z"/>
  <path class="cls-2" d="m285.33,1566.79c1.31,105.4,2.61,210.79,3.92,316.19-61.9-64.25-123.8-128.49-185.7-192.74-3.64-98.69-7.29-197.39-10.93-296.08"/>
  <path class="cls-2" d="m288.89,1849.92c-54.42-56.55-108.83-113.11-163.25-169.66-3.25-87.92-6.5-175.84-9.74-263.76"/>
  <path class="cls-9" d="m796.46,1259.19c-.44,11.73-2.42,28.6-9.89,47.05-36.37,89.78-161.82,115.76-236.25,131.17-43.49,9.01-125.47,23.89-217.57-.71-38.59-10.31-31.4-14.71-70.33-24.24-77.56-18.98-130.88-7.08-169.22-45.62-5.85-5.88-9.95-11.35-12.45-14.97,238.57-30.89,477.15-61.78,715.72-92.67Z"/>
  <path class="cls-6" d="m796.46,1259.19c-.44,11.73-2.42,28.6-9.89,47.05-36.37,89.78-161.82,115.76-236.25,131.17-43.49,9.01-125.47,23.89-217.57-.71-38.59-10.31-31.4-14.71-70.33-24.24-77.56-18.98-130.88-7.08-169.22-45.62-5.85-5.88-9.95-11.35-12.45-14.97,238.57-30.89,477.15-61.78,715.72-92.67Z"/>
  <path class="cls-1" d="m1122.95,1424.72c-282.96,39.27-565.92,78.54-848.88,117.81h-.01.01c-66.94-64.1-133.88-128.2-200.82-192.3,243.16-30.46,486.32-60.91,729.48-91.37,106.74,55.29,213.48,110.57,320.22,165.86Z"/>
  <path class="cls-1" d="m1121.47,1446.23c-282.61,39.79-565.23,79.58-847.84,119.37-66.67-63.95-133.34-127.89-200.01-191.84"/>
  <path class="cls-1" d="m73.25,1350.23c.12,8.44.24,16.87.37,25.31"/>
  <path class="cls-1" d="m274.07,1542.53c0,6.53,0,13.07-.01,19.6"/>
  <path class="cls-1" d="m1122.95,1424.72c-.41,7.01-.82,14.02-1.23,21.03"/>
  <path class="cls-2" d="m289.25,1882.98c7.37-2,14.73-4,22.1-6"/>
  <path class="cls-2" d="m104.61,1687.65c7.37-2,14.73-4,22.1-6"/>
</svg>