<?xml version="1.0" encoding="UTF-8"?>
<svg id="_стол_v2" data-name="стол v2" xmlns="http://www.w3.org/2000/svg" viewBox="0 0 1170 2532">
  <defs>
    <style>
      .cls-1 {
        opacity: .13;
      }

      .cls-2 {
        fill: #323232;
        stroke: #1e1e1e;
        stroke-width: 5px;
      }

      .cls-2, .cls-3 {
        stroke-linecap: round;
        stroke-linejoin: round;
      }

      .cls-4 {
        fill: #919191;
      }

      .cls-4, .cls-5, .cls-6, .cls-7, .cls-8, .cls-9, .cls-10, .cls-11 {
        stroke-width: 0px;
      }

      .cls-5 {
        opacity: .09;
      }

      .cls-12 {
        opacity: .5;
      }

      .cls-6 {
        opacity: .27;
      }

      .cls-8 {
        opacity: .14;
      }

      .cls-13 {
        opacity: .08;
      }

      .cls-9 {
        fill: #e9a400;
        opacity: .2;
      }

      .cls-14 {
        opacity: .22;
      }

      .cls-10 {
        fill: #ccc;
      }

      .cls-3 {
        fill: none;
        stroke: gray;
        stroke-width: 10px;
      }

      .cls-15 {
        opacity: .36;
      }

      .cls-11 {
        opacity: .12;
      }

      .cls-16 {
        opacity: .56;
      }
    </style>
  </defs>
  <path class="cls-10" d="m1104.42,1424.57c-.48,6.81-.95,13.63-1.43,20.44-272.16,39.45-544.32,78.89-816.48,118.34-64.79-63.6-129.58-127.21-194.38-190.81l-.35-22.46c234.57-30.46,469.15-60.91,703.72-91.37,102.97,55.29,205.94,110.57,308.91,165.86Z"/>
  <path class="cls-10" d="m286.51,1568.1c7.29-.79,14.57-1.58,21.86-2.38.99,103.75,1.98,207.5,2.97,311.26-7.17,1.28-14.34,2.56-21.5,3.83-62.1-63.52-124.2-127.05-186.3-190.57-3.8-104.57-7.6-209.14-11.41-313.7"/>
  <path class="cls-6" d="m285.52,1542.38c1.44,112.81,2.88,225.62,4.33,338.43-62.1-63.52-124.2-127.05-186.3-190.57-3.64-111.29-7.29-222.58-10.93-333.86,64.3,62,128.6,124,192.9,186Z"/>
  <path class="cls-8" d="m289.6,1544.34c-.24,5.7-.48,11.41-.71,17.11,270.89-38.5,541.78-76.99,812.67-115.49v-18.53c-270.65,38.97-541.31,77.94-811.96,116.91Z"/>
  <path class="cls-5" d="m286.51,1568.1c1.03,103.41,2.06,206.81,3.09,310.22,6.77-1.19,13.54-2.38,20.32-3.56-.83-103.58-1.66-207.17-2.49-310.75-6.97,1.37-13.94,2.73-20.91,4.1Z"/>
  <g class="cls-1">
    <path class="cls-7" d="m99.55,1475.5c.93-.65,1.33-.27,1.8-.02l1.4.77c12.25,6.7,24.1,14.6,33.28,25.26,7.34,8.64,11.79,19.02,11.3,30.43-.31,8.22.12,15.81,7.6,20.3,3.44,1.92,7.55,2.41,11.49,3.2,4.23.81,8.57,2.11,12.29,4.39,3.74,2.28,7.17,5.16,9.63,8.85,2.53,3.66,3.83,7.8,5.5,11.54,6.53,15.83,24.2,23.17,40.41,24.55-14.54-.71-30.25-5.74-39.05-18.1-3.76-5-5.37-11.66-8.95-16.51-4.77-6.53-12.52-10.28-20.44-11.35-4.27-.69-8.71-1.1-12.73-3.18-6.3-3.29-9.98-10.31-10.2-17.24-.35-6.14.11-12.4-1.94-18.1-3.83-11.51-13.17-20.17-22.79-27.12-5.88-4.1-12.11-7.78-18.52-11.01,0,0-1.38-.71-1.38-.71-.46-.24-.98-.35-.98-1.49-.03-1.82.88-3.48,2.27-4.46h0Z"/>
  </g>
  <g class="cls-13">
    <path class="cls-7" d="m282.23,1763.96c-6.93-11.78-18.4-24.5-33.37-21.76-7.31.88-14.76,6.93-22.41,3.94-8.18-3.53-4.54-14.42-8.84-20.56-1.52-2.33-3.69-4.35-6.38-5.2-4.07-1.36-9-.57-13.23-2.03-10.85-3.45-14.09-16.03-14.34-26.15.67,8.63,2.87,18.51,10.69,23.36,8.61,5.36,17.88-1.19,24.83,9.01,3.65,4.86,2.62,12.04,5.39,16.89,3.61,4.83,10.07,2.2,14.85.24,5.63-2.4,12.1-4.21,18.37-3.14,6.34.95,12.14,4.3,16.82,8.52,4.71,4.16,8.52,9.11,11.86,14.26.75,1.16.42,2.71-.74,3.46-1.18.77-2.79.4-3.51-.82h0Z"/>
  </g>
  <path class="cls-3" d="m285.33,1566.79c1.31,105.4,2.61,210.79,3.92,316.19-61.9-64.25-123.8-128.49-185.7-192.74-3.8-104.57-7.6-209.14-11.41-313.7"/>
  <path class="cls-11" d="m796.46,1259.19c-.43,11.73-2.35,28.6-9.62,47.05-35.39,89.78-157.47,115.76-229.9,131.17-42.32,9.01-122.09,23.89-211.72-.71-37.55-10.31-30.56-14.71-68.44-24.24-75.48-18.98-127.36-7.08-164.67-45.62-5.69-5.88-9.68-11.35-12.12-14.97,232.16-30.89,464.32-61.78,696.48-92.67Z"/>
  <g class="cls-12">
    <path class="cls-4" d="m124.63,1377.05c54.7,14.86,114.56,16.63,167.52-5.62,33.83-13.83,56.09-28.88,94.73-21.46,11.66,2.17,24.2,6.65,35.8,9.03,28.13,5.82,57.72,1.2,84-9.99-29.93,13.48-64.49,17.7-96.29,8.55-11.46-3.08-24.11-6.5-35.95-7.13-30.7-2.28-53.89,12.81-80.98,24.2-38.06,16.54-80.45,21.37-121.55,17.03-16.47-1.64-32.77-4.68-48.81-8.66-1.64-.41-2.65-2.07-2.24-3.72.41-1.66,2.12-2.67,3.77-2.22h0Z"/>
  </g>
  <g class="cls-16">
    <path class="cls-4" d="m1002,1374.47c-36.34-14.39-82.02-21.16-115.4,3.58-3.88,3.07-7.34,6.79-11.22,10.29-3.86,3.52-8.17,6.61-12.67,9.23-13.45,8.06-29.41,11.93-45.05,10.41-15.4-1.33-30.27-6.11-45.27-9.13-9.96-2.08-20.06-3.46-30.22-3.64-20.24-.24-40.85,3.65-58.99,12.83-9.09,4.57-17.6,10.28-26.42,15.51-35.27,21.18-76.39,30.49-116.94,34.54,40.41-4.45,81.38-14.15,116.3-35.61,8.72-5.3,17.19-11.1,26.35-15.83,18.32-9.5,39.16-13.65,59.72-13.62,20.64-.06,40.69,5.81,60.67,9.9,9.89,1.93,20.03,3.08,30.04,1.75,14.87-1.96,28.99-8.93,40.06-18.98,3.68-3.38,7.17-7.23,11.29-10.56,16.59-12.95,38.22-18.05,58.95-17.94,20.82.13,41.23,5.34,60.59,12.61,2.94,1.21,1.5,5.78-1.79,4.67h0Z"/>
  </g>
  <path class="cls-3" d="m1104.42,1424.57c-272.97,39.27-545.93,78.54-818.9,117.81h-.01.01c-64.58-64.1-129.15-128.2-193.73-192.3,234.57-30.46,469.15-60.91,703.72-91.37,102.97,55.29,205.94,110.57,308.91,165.86Z"/>
  <path class="cls-3" d="m1102.99,1446.08c-272.63,39.79-545.27,79.58-817.9,119.37-64.32-63.95-128.63-127.89-192.95-191.84"/>
  <path class="cls-3" d="m91.79,1350.08l.35,25.31"/>
  <path class="cls-3" d="m285.52,1542.38c0,6.53,0,13.07-.01,19.6"/>
  <path class="cls-3" d="m1104.42,1424.57c-.4,7.01-.79,14.02-1.19,21.03"/>
  <path class="cls-3" d="m307.43,1564c1.31,104.33,2.61,208.65,3.92,312.98"/>
  <path class="cls-3" d="m289.25,1882.98c7.37-2,14.73-4,22.1-6"/>
  <g class="cls-15">
    <path class="cls-4" d="m702.3,1343.6c12.26-13.67,30.02-24.36,48.98-22.45,12.42,1.15,23.16,7.84,35.52,8.75,19.06,1.88,35.58-5.86,51.04-15.41-20.2,16.62-44.37,23.74-69.44,13.93-8.47-3.09-17.21-5.76-26.3-4.78-9.03.7-17.6,4.09-25.28,8.88-5.15,3.2-9.91,7.05-14.41,11.2-.07.07-.2-.05-.12-.12h0Z"/>
  </g>
  <g class="cls-12">
    <path class="cls-4" d="m557.18,1327.65c11.4-7.83,25.85-13.91,40.02-11.03,4.65.86,9.05,2.97,13.36,4.63,6.36,2.49,13.13,2.42,19.6.23,11.04-3.19,22.56-7.55,33.43-10.06-8.56,3.72-17.23,7.13-25.99,10.35-4.54,1.53-8.8,3.36-13.66,4.03-4.83.57-9.87-.09-14.36-1.9-4.48-1.74-8.5-3.8-12.91-4.74-13.66-3.05-27.33,2.17-39.39,8.63-.09.05-.18-.09-.09-.15h0Z"/>
  </g>
  <g class="cls-14">
    <path class="cls-4" d="m287.79,1456.96c22.42,2.45,45.49,0,66.24-8.97,13.95-6.14,20.49-14.86,37.23-14.99,2.86,0,5.96.15,8.77.7,13.82,2.51,22.01,10.94,36.89,6.72,6.3-1.49,10.93-5.59,15.51-10.06,2.42-2.22,5-4.39,7.78-6.35,8.42-5.74,19.21-7.39,29.16-6.03,6.63.88,12.84,2.65,19.14,3.58,12.55,2,25.56.78,37.71-3.35,6.08-2.03,11.99-4.64,17.67-7.68,5.68-3.05,11.13-6.55,16.42-10.28.07-.05.16.06.08.11-10.17,8.08-21.3,15.12-33.54,19.66-12.21,4.63-25.69,6.53-38.79,4.72-9.69-1.17-18.8-4.17-28.43-3.14-3.06.35-6.08,1.04-9.03,2.01-5.94,1.96-11.72,4.29-16.21,8.87-4.6,4.58-10.16,9.16-16.71,10.72-16.19,4.56-24.07-3.54-38.22-6.32-6.09-1.11-12.58-.86-18.56.65-9.31,2.52-16.87,9.28-25.9,12.7-20.98,8.48-45.48,10.73-67.21,6.72h0Z"/>
  </g>
  <path class="cls-9" d="m631.78,1385.05c-11.18,8.26-11.92,13.36-18.18,21.07-4.08,5.04-5.06,4.63-8.2,8.38-1.51,1.81-10.48,12.89-8.55,20.05,2.89,10.75,30.83,14.55,52.75,12.12,24.68-2.73,28.78-11.92,46.34-9.27,3.15.48,13.55,2.36,31.37,5.02,4.01.6,6.03.91,6.41.91,19.83.07,42.38-20.37,38.5-35.1-3.24-12.27-24.19-18.11-35.64-21.31-13.6-3.79-17.07-1.58-32.79-6.27-17.78-5.3-17.4-9.34-27.8-10.65-20.37-2.57-38.48,10.82-44.2,15.04Z"/>
  <path class="cls-2" d="m242.32,1838.51c-.04-4.38-.08-8.75-.12-13.13,6.24,6.77,12.48,13.54,18.71,20.32-.02,4.57-.04,9.15-.06,13.72-6.18-6.97-12.36-13.94-18.53-20.91Z"/>
  <path class="cls-2" d="m124.96,1716.44c-.04-4.38-.08-8.75-.12-13.13,6.09,6.56,12.18,13.13,18.27,19.69-.06,4.16-.12,8.32-.18,12.48-5.99-6.35-11.98-12.69-17.97-19.04Z"/>
</svg>