<svg xmlns="http://www.w3.org/2000/svg" id="_стол_v0" data-name="стол v0" viewBox="0 0 1170 2532"><defs><style>.cls-3{stroke-width:0}.cls-7{fill:none;stroke:#51351d;stroke-linecap:round;stroke-linejoin:round;stroke-width:10px}.cls-3{opacity:.22}</style></defs><path d="M1104.42 1424.57c-.68 11-1.37 21.99-2.05 32.98-.05.01-.1.02-.15.02-2.59 93.17-5.19 186.32-7.78 279.48-8.32 1.7-16.63 3.41-24.95 5.11-6.42-4.63-12.83-9.27-19.25-13.9l6.42-263.34-747.57 113.16c1.47 99.72 2.93 199.45 4.4 299.17l-25.66 6.06-21.39-15.69c-2.49-103.72-4.99-207.44-7.49-311.16l-31.62-32.64-94.55-97.58.21 5.7c3.33 89.43 6.67 178.85 10 268.28-5.36 1.24-10.72 2.47-16.08 3.71-2.87.66-5.75 1.33-8.63 1.99-4.91-5.23-9.82-10.45-14.73-15.68-.03-.89-.07-1.79-.1-2.68l-.26-.29c-1.09-32.38-2.19-64.75-3.28-97.13-2.34-65.65-4.59-131.31-6.73-196.97-.01-.45-.03-.89-.04-1.34-.09-2.87-.19-5.73-.28-8.6-.22-6.69-.77-23.66-1.02-31.65v-.03l-.03-.77c0-.23-.01-.47-.02-.7 3.07-.4 6.14-.79 9.21-1.19 6.22-.8 12.44-1.6 18.66-2.41l548.23-70.71c42.86-5.52 85.71-11.05 128.57-16.58 102.65 55.13 205.31 110.26 307.96 165.38Z" style="fill:#754e27;stroke-width:0"/><path d="m289.25 1882.98-1.42.33-21.39-15.69c-1.54-63.4-5.17-213.91-6.68-277.31-.03-1.12-.78-32.73-.81-33.85 4.75 4.18 9.5 8.38 14.26 12.59 3.58 3.17 7.14 6.34 10.69 9.5l5.34 304.42Z" class="cls-3"/><path d="M1077.15 1461.82c-.04 1.64-.09 3.29-.13 4.93-.04 1.19-.07 2.38-.1 3.57l-.06 2.04c-.02.67-.03 1.35-.05 2.02l-.06 1.98c-.01.65-.03 1.31-.05 1.96-.02.64-.03 1.29-.05 1.93l-.3 11.03c-.04 1.17-.07 2.34-.1 3.49l-.09 3.41c-.02.56-.03 1.11-.05 1.67-.01.55-.03 1.11-.04 1.66l-.09 3.26-.09 3.2c-.01.53-.03 1.06-.04 1.58-.05 1.55-.09 3.11-.13 4.66-.03 1.02-.06 2.04-.08 3.05l-.69 24.95v.1c-.03.98-.05 1.97-.08 2.95v.18c-.02.44-.03.87-.04 1.31-.05 1.98-.11 3.98-.16 6.01-.03.94-.06 1.88-.08 2.82 0 .08 0 .16-.01.25-.01.51-.03 1.03-.04 1.54-.01.52-.03 1.04-.04 1.56l-.09 3.17-.09 3.22c-.01.54-.03 1.09-.04 1.63-.01.55-.03 1.1-.05 1.65-.01.56-.03 1.11-.04 1.67-.02.56-.03 1.12-.05 1.69v.14l-.09 3.29c-.03 1.16-.06 2.34-.1 3.52-.08 3.07-.17 6.14-.25 9.21-.03 1.27-.07 2.56-.11 3.87-.01.66-.03 1.31-.05 1.97-.04 1.35-.07 2.69-.11 4.04l-.06 2.07c-.02.7-.04 1.39-.05 2.09-.1 3.53-.2 7.18-.31 10.99l-.12 4.64c-.02.79-.04 1.58-.07 2.38l-.06 2.41c-.02.76-.05 1.53-.07 2.3v.16c-.12 4.3-.24 8.6-.35 12.9-.03.9-.05 1.8-.08 2.71-.02.92-.05 1.84-.07 2.76-.03.92-.05 1.86-.08 2.8-.13 4.91-.27 9.81-.4 14.72l-.09 3.1c-.02 1.05-.05 2.09-.08 3.14l-.09 3.2-.36 13.33c-.03 1.15-.06 2.31-.1 3.47-.06 2.08-.11 4.15-.17 6.23-.01.3-.01.59-.02.89-.1 3.62-.2 7.33-.31 11.12-.03 1.28-.07 2.55-.1 3.83-.04 1.29-.07 2.58-.11 3.89l-.33 12.05c-.07 2.78-.15 5.57-.22 8.35-.08 2.84-.16 5.71-.24 8.63-6.42-4.63-12.83-9.27-19.25-13.9l6.42-263.34c6.83-1.03 13.66-2.07 20.49-3.1Z" style="opacity:.23;stroke-width:0"/><path d="m118.28 1705.92-14.83-18.36c-1.2-32.46-2.38-64.94-3.54-97.42-2.35-66.11-4.61-132.21-6.77-198.31.01.02.02.03.04.04.15.03.52-.95 1.1-2.93l16.04 16.4c2.65 100.2 5.31 200.4 7.96 300.59Z" class="cls-3"/><path d="M283.19 1578.08 92.62 1387.03c-.28-12.32-.55-24.63-.83-36.95l191.4 190.46v37.54Z" style="opacity:.21;stroke-width:0"/><path d="m1104.42 1424.57-818.91 117.27c.18 13.51.36 27.01.53 40.52l816.24-126.78c.71-10.34 1.43-20.67 2.14-31.01Z" style="opacity:.08;stroke-width:0"/><path d="M796.46 1259.19c-.43 11.73-2.35 28.6-9.62 47.05-35.39 89.78-157.47 115.76-229.9 131.17-42.32 9.01-122.09 23.89-211.72-.71-37.55-10.31-30.56-14.71-68.44-24.24-75.48-18.98-127.36-7.08-164.67-45.62-5.69-5.88-9.68-11.35-12.12-14.97l696.48-92.67Z" style="stroke-width:0;opacity:.14"/><path d="M92.91 1383.29h0s0 0 0 0l18.24 20.85c2.78 100.43 5.55 200.87 8.32 301.31l-16.02-17.89-.26-.29c-1.09-32.38-2.19-64.75-3.28-97.13-2.33-68.95-4.67-137.9-7-206.85M1069.73 1733.53c.07-2.78.15-5.57.22-8.35l.33-12.05c.04-1.31.07-2.6.11-3.89.03-1.28.07-2.55.1-3.83.11-3.79.21-7.5.31-11.12.01-.3.01-.59.02-.89.06-2.08.11-4.15.17-6.23.04-1.16.07-2.32.1-3.47l.36-13.33.09-3.2c.03-1.05.06-2.09.08-3.14l.09-3.1c.13-4.91.27-9.81.4-14.72.03-.94.05-1.88.08-2.8.02-.92.05-1.84.07-2.76.03-.91.05-1.81.08-2.71.11-4.3.23-8.6.35-12.9v-.16c.02-.77.05-1.54.07-2.3l.06-2.41c.03-.8.05-1.59.07-2.38l.12-4.64c.11-3.81.21-7.46.31-10.99.01-.7.03-1.39.05-2.09l.06-2.07c.04-1.35.07-2.69.11-4.04.02-.66.04-1.31.05-1.97.04-1.31.08-2.6.11-3.87.08-3.07.17-6.14.25-9.21.04-1.18.07-2.36.1-3.52l.09-3.29v-.14c.02-.57.03-1.13.05-1.69.01-.56.03-1.11.04-1.67.02-.55.04-1.1.05-1.65.01-.54.03-1.09.04-1.63l.09-3.22.09-3.17c0-.52.03-1.04.04-1.56.01-.51.03-1.03.04-1.54.01-.09.01-.17.01-.25.02-.94.05-1.88.08-2.82.05-2.03.11-4.03.16-6.01.01-.44.02-.87.04-1.31v-.18c.03-.98.05-1.97.08-2.95v-.1l.69-24.95c.02-1.01.05-2.03.08-3.05.04-1.55.08-3.11.13-4.66.01-.52.03-1.05.04-1.58l.09-3.2.09-3.26c.01-.55.03-1.11.04-1.66.02-.56.03-1.11.05-1.67l.09-3.41c.03-1.15.06-2.32.1-3.49l.3-11.03c.02-.64.03-1.29.05-1.93.02-.65.04-1.31.05-1.96l.06-1.98c.02-.67.03-1.35.05-2.02l.06-2.04c.03-1.19.06-2.38.1-3.57.04-1.64.09-3.29.13-4.93-6.83 1.03-13.66 2.07-20.49 3.1l-6.42 263.34c6.42 4.63 12.83 9.27 19.25 13.9.08-2.92.16-5.79.24-8.63Z" class="cls-7"/><path d="m309.09 1578.08 747.57-113.16c6.83-1.03 13.66-2.07 20.49-3.1-.04 1.64-.09 3.29-.13 4.93-.04 1.19-.07 2.38-.1 3.57l-.06 2.04c-.02.67-.03 1.35-.05 2.02l-.06 1.98c-.01.65-.03 1.31-.05 1.96-.02.64-.03 1.29-.05 1.93l-.3 11.03c-.04 1.17-.07 2.34-.1 3.49l-.09 3.41c-.02.56-.03 1.11-.05 1.67-.01.55-.03 1.11-.04 1.66l-.09 3.26-.09 3.2c-.01.53-.03 1.06-.04 1.58-.05 1.55-.09 3.11-.13 4.66-.03 1.02-.06 2.04-.08 3.05l-.69 24.95v.1c-.03.98-.05 1.97-.08 2.95v.18c-.02.44-.03.87-.04 1.31-.05 1.98-.11 3.98-.16 6.01-.03.94-.06 1.88-.08 2.82 0 .08 0 .16-.01.25-.01.51-.03 1.03-.04 1.54-.01.52-.03 1.04-.04 1.56l-.09 3.17-.09 3.22c-.01.54-.03 1.09-.04 1.63-.01.55-.03 1.1-.05 1.65-.01.56-.03 1.11-.04 1.67-.02.56-.03 1.12-.05 1.69v.14l-.09 3.29c-.03 1.16-.06 2.34-.1 3.52-.08 3.07-.17 6.14-.25 9.21-.03 1.27-.07 2.56-.11 3.87-.01.66-.03 1.31-.05 1.97-.04 1.35-.07 2.69-.11 4.04l-.06 2.07c-.02.7-.04 1.39-.05 2.09-.1 3.53-.2 7.18-.31 10.99l-.12 4.64c-.02.79-.04 1.58-.07 2.38l-.06 2.41c-.02.76-.05 1.53-.07 2.3v.16c-.12 4.3-.24 8.6-.35 12.9-.03.9-.05 1.8-.08 2.71-.02.92-.05 1.84-.07 2.76-.03.92-.05 1.86-.08 2.8-.13 4.91-.27 9.81-.4 14.72l-.09 3.1c-.02 1.05-.05 2.09-.08 3.14l-.09 3.2-.36 13.33c-.03 1.15-.06 2.31-.1 3.47-.06 2.08-.11 4.15-.17 6.23-.01.3-.01.59-.02.89-.1 3.62-.2 7.33-.31 11.12-.03 1.28-.07 2.55-.1 3.83-.04 1.29-.07 2.58-.11 3.89l-.33 12.05c-.07 2.78-.15 5.57-.22 8.35-.08 2.84-.16 5.71-.24 8.63 8.32-1.7 16.63-3.41 24.95-5.11 2.59-93.16 5.19-186.31 7.78-279.48l.06-1.99 2.14-31.01-818.9 117.81c.11 12.42.23 24.83.35 37.24l-.36-37.24h.01c-.01-.18-.01-.36-.01-.54-64.57-63.92-129.15-127.84-193.72-191.76.01.23.02.47.02.7l.03.77v.03c.36 10.57.72 21.13 1.07 31.7" class="cls-7"/><path d="M289.25 1882.24c-1.5-97.55-3.01-195.1-4.5-292.64-.05-2.73-.09-5.46-.13-8.19l24.47-3.33c.07 4.91.14 9.83.22 14.74 1.39 94.81 2.78 189.62 4.18 284.43l-24.24 5.73-1.42.33-21.39-15.69c-2.22-92.44-4.45-184.87-6.68-277.31-.16-6.77-.32-13.55-.49-20.33-.1-4.51-.21-9.01-.32-13.52l-126.17-130.22c3.4 91.33 6.81 182.65 10.21 273.98-8.23 1.9-16.47 3.8-24.71 5.7-4.91-5.23-9.82-10.45-14.73-15.68-.03-.89-.07-1.79-.1-2.68a62939 62939 0 0 1-3.54-97.42c-2.46-68.96-4.81-137.93-7.05-206.91l.05.05h0l191.71 198.13 817.6-123.84c.05 0 .1-.01.15-.02.68-10.99 1.37-21.98 2.05-32.98-102.65-55.12-205.31-110.25-307.96-165.38-234.89 30.3-469.78 60.59-704.67 90.89.01.23.02.47.02.7l.03.77v.03c.25 7.99.8 24.96 1.02 31.65" class="cls-7"/></svg>