<svg xmlns="http://www.w3.org/2000/svg" id="_стол_v1" data-name="стол v1" viewBox="0 0 1170 2532"><defs><style>.cls-2{opacity:.3}.cls-2,.cls-6{stroke-width:0}.cls-7,.cls-8{stroke-width:8px}.cls-7,.cls-8,.cls-9{fill:none;stroke:#6a380e;stroke-linecap:round;stroke-linejoin:round}.cls-6,.cls-7{opacity:.71}.cls-9{stroke-width:10px}.cls-6{fill:#6a380e}</style></defs><path d="M1104.42 1424.57c-.68 11-1.37 21.99-2.05 32.98-.05.01-.1.02-.15.02-2.59 93.17-5.19 186.32-7.78 279.48-8.32 1.7-16.63 3.41-24.95 5.11-6.42-4.63-12.83-9.27-19.25-13.9l6.42-263.34-741.63 113.64c.79 99.49 1.58 198.97 2.38 298.46l-29.58 6.3-21.39-15.69c-2.49-103.72-4.99-207.44-7.49-311.16l-31.62-32.64-94.55-97.58.21 5.7c3.33 89.43 6.67 178.85 10 268.28-5.36 1.24-10.72 2.47-16.08 3.71-2.87.66-5.75 1.33-8.63 1.99-4.91-5.23-9.82-10.45-14.73-15.68-.03-.89-.07-1.79-.1-2.68l-.26-.29c-1.09-32.38-2.19-64.75-3.28-97.13-2.34-65.65-4.59-131.31-6.73-196.97-.01-.45-.03-.89-.04-1.34-.09-2.87-.19-5.73-.28-8.6-.22-6.69-.77-23.66-1.02-31.65v-.03l-.03-.77c0-.23-.01-.47-.02-.7 3.07-.4 6.14-.79 9.21-1.19 6.22-.8 12.44-1.6 18.66-2.41l548.23-70.71c42.86-5.52 85.71-11.05 128.57-16.58 102.65 55.13 205.31 110.26 307.96 165.38Z" style="fill:#a25f21;stroke-width:0"/><path d="M270.36 1523.66c32.35-20.75 81.07-44.69 141.15-45.27 35.98-.35 43.21 7.82 81.27 10.69 75.82 5.72 103.47-23.95 189.27-41.7 72.94-15.09 77.49 1.28 178.57-7.49 48.97-4.25 116.49-14.04 196.75-38.5" class="cls-7"/><path d="M251.82 1505.84c46.23-18 194.3-74.25 268.75-76.63 2.02-.06 20.72-.62 45.57-.88 51.21-.53 87 .66 97.71.88 81.28 1.65 121.77-24.09 242.73-38.5 25.92-3.09 66.75-6.99 118.03-7.5" class="cls-7"/><path d="M197.64 1452.73c26.68 4.52 65.9 8.56 112.28 3.21 92.13-10.64 99.81-43.84 178.57-63.09 123.61-30.21 221.28 31.68 301.54-3.21 27.05-11.76 39.05-17.55 64.16-26.73 28.81-10.54 44.81-14.44 62.02-16.04 18.29-1.7 33.56-.38 43.84 1.07" class="cls-7"/><path d="M176.26 1430.99c96.73-28.78 182.24-45.49 250.93-55.6 97.57-14.37 146.35-21.56 197.47-17.82 69.8 5.1 96.59 19.86 142.57 2.14 24.99-9.63 51.15-27.12 99.09-34.93 18.68-3.04 34.38-3.59 44.91-3.56" class="cls-7"/><path d="M157.01 1411.74c36.17-22.36 90.68-49.36 160.4-58.46 42.24-5.51 42.51 1.75 94.1-1.43 128.74-7.94 151.27-54.68 237.39-41.35 43.91 6.8 53.13 21.29 94.1 18.53 45.65-3.07 81.79-24.25 105.51-42.06" class="cls-7"/><path d="M657.68 1280.1c32.39 20.5 60.92 26.33 77.47 28.28 27.23 3.2 39.18-2.11 43.49-4.28 19.77-9.96 27.99-29.15 30.65-36.36M166.28 1343.31c6.81 6.93 7.2 12.49 7.13 14.73-.37 12.35-17.54 25.36-43.72 27.56M361.6 1316.22c13.76 5.49 48.21 17.02 89.82 7.13 23.26-5.53 40.56-15.8 51.33-23.52" class="cls-7"/><ellipse cx="947.65" cy="1405.52" class="cls-6" rx="60.85" ry="8.19" transform="rotate(-7.36 948.031 1405.983)"/><ellipse cx="524.91" cy="1458.02" class="cls-6" rx="84.12" ry="13.81" transform="rotate(-4.63 525.485 1459.41)"/><ellipse cx="397.63" cy="1550.62" class="cls-6" rx="48.47" ry="11.04" transform="rotate(-7.1 397.652 1550.541)"/><ellipse cx="339.41" cy="1417.41" class="cls-6" rx="69.11" ry="12.59" transform="rotate(-10.45 339.358 1417.314)"/><ellipse cx="119.73" cy="1355.42" class="cls-6" rx="20.53" ry="11.98" transform="rotate(-10.07 119.664 1355.172)"/><path d="M783.27 1271.22c.68 6.01-14.31 12.63-33.47 14.79-19.16 2.15-35.24-.97-35.92-6.99-.68-6.01 14.31-12.63 33.47-14.79 19.16-2.15 35.24.97 35.92 6.99Z" class="cls-6"/><path d="M323.82 1533.64c6-6.17 29.46-28.83 67.25-32.08 32.07-2.75 55.79 10.08 63.92 14.97" class="cls-7"/><path d="m289.25 1882.98-1.42.33-21.39-15.69c-1.54-63.4-5.17-213.91-6.68-277.31-.03-1.12-.78-32.73-.81-33.85 4.75 4.18 9.5 8.38 14.26 12.59 3.58 3.17 7.14 6.34 10.69 9.5l5.34 304.42ZM1077.15 1461.82c-.04 1.64-.09 3.29-.13 4.93-.04 1.19-.07 2.38-.1 3.57l-.06 2.04c-.02.67-.03 1.35-.05 2.02l-.06 1.98c-.01.65-.03 1.31-.05 1.96-.02.64-.03 1.29-.05 1.93l-.3 11.03c-.04 1.17-.07 2.34-.1 3.49l-.09 3.41c-.02.56-.03 1.11-.05 1.67-.01.55-.03 1.11-.04 1.66l-.09 3.26-.09 3.2c-.01.53-.03 1.06-.04 1.58-.05 1.55-.09 3.11-.13 4.66-.03 1.02-.06 2.04-.08 3.05l-.69 24.95v.1c-.03.98-.05 1.97-.08 2.95v.18c-.02.44-.03.87-.04 1.31-.05 1.98-.11 3.98-.16 6.01-.03.94-.06 1.88-.08 2.82 0 .08 0 .16-.01.25-.01.51-.03 1.03-.04 1.54-.01.52-.03 1.04-.04 1.56l-.09 3.17-.09 3.22c-.01.54-.03 1.09-.04 1.63-.01.55-.03 1.1-.05 1.65-.01.56-.03 1.11-.04 1.67-.02.56-.03 1.12-.05 1.69v.14l-.09 3.29c-.03 1.16-.06 2.34-.1 3.52-.08 3.07-.17 6.14-.25 9.21-.03 1.27-.07 2.56-.11 3.87-.01.66-.03 1.31-.05 1.97-.04 1.35-.07 2.69-.11 4.04l-.06 2.07c-.02.7-.04 1.39-.05 2.09-.1 3.53-.2 7.18-.31 10.99l-.12 4.64c-.02.79-.04 1.58-.07 2.38l-.06 2.41c-.02.76-.05 1.53-.07 2.3v.16c-.12 4.3-.24 8.6-.35 12.9-.03.9-.05 1.8-.08 2.71-.02.92-.05 1.84-.07 2.76-.03.92-.05 1.86-.08 2.8-.13 4.91-.27 9.81-.4 14.72l-.09 3.1c-.02 1.05-.05 2.09-.08 3.14l-.09 3.2-.36 13.33c-.03 1.15-.06 2.31-.1 3.47-.06 2.08-.11 4.15-.17 6.23-.01.3-.01.59-.02.89-.1 3.62-.2 7.33-.31 11.12-.03 1.28-.07 2.55-.1 3.83-.04 1.29-.07 2.58-.11 3.89l-.33 12.05c-.07 2.78-.15 5.57-.22 8.35-.08 2.84-.16 5.71-.24 8.63-6.42-4.63-12.83-9.27-19.25-13.9l6.42-263.34c6.83-1.03 13.66-2.07 20.49-3.1ZM118.28 1705.92l-14.83-18.36c-1.2-32.46-2.38-64.94-3.54-97.42-2.35-66.11-4.61-132.21-6.77-198.31.01.02.02.03.04.04.15.03.52-.95 1.1-2.93l16.04 16.4c2.65 100.2 5.31 200.4 7.96 300.59Z" class="cls-2"/><path d="M283.19 1578.08 92.62 1387.03c-.28-12.32-.55-24.63-.83-36.95l191.4 190.46v37.54Z" class="cls-2"/><g style="opacity:.7"><path d="M323.58 1539.11c-1.16 4.4-2.37 11.24-1.43 19.49.62 5.43 2 9.93 3.33 13.31M455.7 1519.62c1.95 7.74 5.45 12.72 8.08 15.68 11.55 12.99 32.67 16.49 53.94 9.74M477.8 1515.82c35.2 1.54 64.66.96 86.26 0 40.86-1.81 69.82-3.24 106.22-12.12a386.376 386.376 0 0 0 72.71-25.66M729.45 1511.54c22.3-14.91 57.9-34.17 104.08-39.21 35.36-3.86 52.39 3.3 87.68 1.43 28.6-1.52 70.48-9.05 121.19-38.5M1034.55 1465.56c6.41-5.17 16.02-11.73 28.87-16.75 15.92-6.22 30.09-7.43 39.21-7.49M124.93 1387.5c-.26 4.22-.12 9.23.95 14.73 3.48 17.82 14.56 29.32 19.96 34.22M155.82 1414.59c.9 15.21 4.15 22.4 7.13 26.14.63.79 2.4 2.87 3.8 6.18 1.95 4.59 2.08 8.94 1.9 11.88M176.26 1430.99c-.08 3.68.14 9.53 2.05 16.27 1.93 6.82 6.47 17.59 37.4 46.7 11.7 11.01 14.94 13.13 19.96 20.44 6.79 9.89 10.12 19.51 11.88 26.14M267.98 1526.75a73.3 73.3 0 0 0-1.43 21.86c.36 4.26 1.07 8.08 1.9 11.41M259.66 1584.26c8.23 22.27 18.25 59.03 14.26 104.08-1.8 20.29-6.05 37.82-10.69 52.04M286.04 1725.41a244.232 244.232 0 0 0-8.55 69.15c.56 27.63 5.72 50.45 10.69 66.65M96.42 1431.7c4.74 20.57 8.97 43.21 12.12 67.72a698.88 698.88 0 0 1 5.7 89.82M317.41 1736.81c-5.64 9.58-18.2 33.85-17.11 67.01 1.04 31.55 13.88 54.08 19.96 63.45M1091.11 1462.12c-3.94 10.08-12.53 36.4-1.43 63.21 2.18 5.26 4.82 9.84 7.6 13.78M1077.33 1533.88c1.25 1.64 16.69 22.6 8.08 44.2-3.08 7.72-8.17 12.86-11.87 15.88M1096.81 1593.76c-6.2 12.93-16.68 39.48-14.26 73.66 1.49 21.04 7.36 37.82 12.36 48.95M287.47 1584.97c14.18 10.54 21.64 27.52 19.25 44.2-2.76 19.22-17.39 29.6-19.96 31.37M315.27 1651.27c-3.57 1.71-9.09 5.14-12.12 11.41-5.36 11.1-.83 26.8 12.12 37.78M284.61 1667.66c4.55 6.37 16.55 24.94 16.4 51.33-.13 21.98-8.62 38.02-12.83 44.91M1073.52 1523.9c-11.32-8.14-17.28-21.22-15.21-33.74 1.84-11.14 9.38-17.9 11.88-19.96M1074.48 1534.36c-19.81 47.78-19.29 79.4-14.73 99.8 1.36 6.1 4.16 15.97 4.75 30.42 1.02 24.65-5.08 45.01-10.46 58.46M112.1 1430.28c4.36 15.26 9.51 35.85 13.54 60.59 3.34 20.51 5.42 33.61 4.99 50.61-.37 14.61-2.69 36.87-12.83 63.45M143.47 1583.54c-18.99 22.81-20.21 37.68-17.82 47.05 2.62 10.27 9.5 13.57 12.12 24.24 3.91 15.95-5.73 31.94-14.26 42.77" class="cls-8"/></g><path d="m1104.42 1424.57-818.91 117.27c.18 13.51.36 27.01.53 40.52l816.24-126.78c.71-10.34 1.43-20.67 2.14-31.01Z" style="opacity:.08;stroke-width:0"/><path d="M796.46 1259.19c-.43 11.73-2.35 28.6-9.62 47.05-35.39 89.78-157.47 115.76-229.9 131.17-42.32 9.01-122.09 23.89-211.72-.71-37.55-10.31-30.56-14.71-68.44-24.24-75.48-18.98-127.36-7.08-164.67-45.62-5.69-5.88-9.68-11.35-12.12-14.97l696.48-92.67Z" style="opacity:.2;stroke-width:0"/><path d="M92.91 1383.29h0s0 0 0 0l18.24 20.85c2.78 100.43 5.55 200.87 8.32 301.31l-16.02-17.89-.26-.29c-1.09-32.38-2.19-64.75-3.28-97.13-2.33-68.95-4.67-137.9-7-206.85M1069.73 1733.53c.07-2.78.15-5.57.22-8.35l.33-12.05c.04-1.31.07-2.6.11-3.89.03-1.28.07-2.55.1-3.83.11-3.79.21-7.5.31-11.12.01-.3.01-.59.02-.89.06-2.08.11-4.15.17-6.23.04-1.16.07-2.32.1-3.47l.36-13.33.09-3.2c.03-1.05.06-2.09.08-3.14l.09-3.1c.13-4.91.27-9.81.4-14.72.03-.94.05-1.88.08-2.8.02-.92.05-1.84.07-2.76.03-.91.05-1.81.08-2.71.11-4.3.23-8.6.35-12.9v-.16c.02-.77.05-1.54.07-2.3l.06-2.41c.03-.8.05-1.59.07-2.38l.12-4.64c.11-3.81.21-7.46.31-10.99.01-.7.03-1.39.05-2.09l.06-2.07c.04-1.35.07-2.69.11-4.04.02-.66.04-1.31.05-1.97.04-1.31.08-2.6.11-3.87.08-3.07.17-6.14.25-9.21.04-1.18.07-2.36.1-3.52l.09-3.29v-.14c.02-.57.03-1.13.05-1.69.01-.56.03-1.11.04-1.67.02-.55.04-1.1.05-1.65.01-.54.03-1.09.04-1.63l.09-3.22.09-3.17c0-.52.03-1.04.04-1.56.01-.51.03-1.03.04-1.54.01-.09.01-.17.01-.25.02-.94.05-1.88.08-2.82.05-2.03.11-4.03.16-6.01.01-.44.02-.87.04-1.31v-.18c.03-.98.05-1.97.08-2.95v-.1l.69-24.95c.02-1.01.05-2.03.08-3.05.04-1.55.08-3.11.13-4.66.01-.52.03-1.05.04-1.58l.09-3.2.09-3.26c.01-.55.03-1.11.04-1.66.02-.56.03-1.11.05-1.67l.09-3.41c.03-1.15.06-2.32.1-3.49l.3-11.03c.02-.64.03-1.29.05-1.93.02-.65.04-1.31.05-1.96l.06-1.98c.02-.67.03-1.35.05-2.02l.06-2.04c.03-1.19.06-2.38.1-3.57.04-1.64.09-3.29.13-4.93-6.83 1.03-13.66 2.07-20.49 3.1l-6.42 263.34c6.42 4.63 12.83 9.27 19.25 13.9.08-2.92.16-5.79.24-8.63Z" class="cls-9"/><path d="m309.09 1578.08 747.57-113.16c6.83-1.03 13.66-2.07 20.49-3.1-.04 1.64-.09 3.29-.13 4.93-.04 1.19-.07 2.38-.1 3.57l-.06 2.04c-.02.67-.03 1.35-.05 2.02l-.06 1.98c-.01.65-.03 1.31-.05 1.96-.02.64-.03 1.29-.05 1.93l-.3 11.03c-.04 1.17-.07 2.34-.1 3.49l-.09 3.41c-.02.56-.03 1.11-.05 1.67-.01.55-.03 1.11-.04 1.66l-.09 3.26-.09 3.2c-.01.53-.03 1.06-.04 1.58-.05 1.55-.09 3.11-.13 4.66-.03 1.02-.06 2.04-.08 3.05l-.69 24.95v.1c-.03.98-.05 1.97-.08 2.95v.18c-.02.44-.03.87-.04 1.31-.05 1.98-.11 3.98-.16 6.01-.03.94-.06 1.88-.08 2.82 0 .08 0 .16-.01.25-.01.51-.03 1.03-.04 1.54-.01.52-.03 1.04-.04 1.56l-.09 3.17-.09 3.22c-.01.54-.03 1.09-.04 1.63-.01.55-.03 1.1-.05 1.65-.01.56-.03 1.11-.04 1.67-.02.56-.03 1.12-.05 1.69v.14l-.09 3.29c-.03 1.16-.06 2.34-.1 3.52-.08 3.07-.17 6.14-.25 9.21-.03 1.27-.07 2.56-.11 3.87-.01.66-.03 1.31-.05 1.97-.04 1.35-.07 2.69-.11 4.04l-.06 2.07c-.02.7-.04 1.39-.05 2.09-.1 3.53-.2 7.18-.31 10.99l-.12 4.64c-.02.79-.04 1.58-.07 2.38l-.06 2.41c-.02.76-.05 1.53-.07 2.3v.16c-.12 4.3-.24 8.6-.35 12.9-.03.9-.05 1.8-.08 2.71-.02.92-.05 1.84-.07 2.76-.03.92-.05 1.86-.08 2.8-.13 4.91-.27 9.81-.4 14.72l-.09 3.1c-.02 1.05-.05 2.09-.08 3.14l-.09 3.2-.36 13.33c-.03 1.15-.06 2.31-.1 3.47-.06 2.08-.11 4.15-.17 6.23-.01.3-.01.59-.02.89-.1 3.62-.2 7.33-.31 11.12-.03 1.28-.07 2.55-.1 3.83-.04 1.29-.07 2.58-.11 3.89l-.33 12.05c-.07 2.78-.15 5.57-.22 8.35-.08 2.84-.16 5.71-.24 8.63 8.32-1.7 16.63-3.41 24.95-5.11 2.59-93.16 5.19-186.31 7.78-279.48l.06-1.99 2.14-31.01-818.9 117.81c.11 12.42.23 24.83.35 37.24l-.36-37.24h.01c-.01-.18-.01-.36-.01-.54-64.57-63.92-129.15-127.84-193.72-191.76.01.23.02.47.02.7l.03.77v.03c.36 10.57.72 21.13 1.07 31.7" class="cls-9"/><path d="M289.25 1882.24c-1.5-97.55-3.01-195.1-4.5-292.64-.05-2.73-.09-5.46-.13-8.19 10.69-1.55 21.38-3.09 32.08-4.64l3.33 299.05c-5 1.16-25.77 6-30.77 7.16-.01 0-1.41.33-1.42.33l-21.39-15.69c-2.22-92.44-4.45-184.87-6.68-277.31-.16-6.77-.32-13.55-.49-20.33-.1-4.51-.21-9.01-.32-13.52-40.24-42.22-80.47-84.44-120.71-126.66l8.55 270.42-28.52 5.7c-4.91-5.23-9.82-10.45-14.73-15.68-.03-.89-.07-1.79-.1-2.68a62939 62939 0 0 1-3.54-97.42c-2.46-68.96-4.81-137.93-7.05-206.91l.05.05h0l191.71 198.13 817.6-123.84c.05 0 .1-.01.15-.02.68-10.99 1.37-21.98 2.05-32.98-102.65-55.12-205.31-110.25-307.96-165.38-234.89 30.3-469.78 60.59-704.67 90.89.01.23.02.47.02.7l.03.77v.03c.25 7.99.8 24.96 1.02 31.65" class="cls-9"/></svg>