<?xml version="1.0" encoding="UTF-8"?>
<svg id="_футб._син." data-name="футб. син." xmlns="http://www.w3.org/2000/svg" viewBox="0 0 1170 2532">
  <defs>
    <style>
      .cls-1 {
        fill: #0630ff;
      }

      .cls-1, .cls-2, .cls-3 {
        stroke-width: 0px;
      }

      .cls-2 {
        fill: #064aff;
      }

      .cls-3 {
        fill: #072bce;
      }

      .cls-4 {
        fill: none;
        stroke: #0000c1;
        stroke-miterlimit: 10;
        stroke-width: 10px;
      }
    </style>
  </defs>
  <path class="cls-1" d="m669.11,1325.53c-3.7,1.26-7.5,2.52-11.4,3.78-70.99,23-174.31,45.95-298.09,37.91-57.64-3.74-108.56-13.48-151.45-24.92-.03-.05-.05-.1-.06-.16-7.86-18.67-13.39-40.02-14.32-64.15,0-.08-.01-.28-.02-.54-1.24-30.02,5-54.07,10.01-68.68,51.52,17.31,135.49,38.3,239.57,32.36,76.04-4.34,138.6-21.66,183.4-38.14,3.25-1.2,6.41-2.39,9.48-3.57,10.97,14.22,30.05,43.32,34.22,83.99.45,4.39.7,8.63.78,12.72.23,11.09-.73,21-2.12,29.4Z"/>
  <path class="cls-3" d="m359.62,1367.22c-60.6-4.03-112.05-14.48-151.45-24.92-.03-.05-.05-.1-.06-.16-8.66-19.74-13.51-41.54-14.32-64.15-.01-.18-.01-.36-.02-.54-.74-22.51,2.52-45.81,10.01-68.68,18.32,6.16,40.75,12.78,66.73,18.48,1.16,50.64,16.38,81.39,33.08,101.05,17.27,20.34,35.83,28.47,56.03,38.92Z"/>
  <path class="cls-2" d="m669.11,1325.53c-3.7,1.26-7.5,2.52-11.4,3.78,1.08-4.95,2.11-11.05,2.59-18.08,2-29.15-6.87-51.92-11.88-64.4-6.14-15.27-7.44-12.48-17.11-33.74-1.6-3.53-3.13-6.88-4.56-10.1,3.25-1.2,6.41-2.39,9.48-3.57,13.83,31.48,33.33,56.6,35,96.71.23,11.09-.73,21-2.12,29.4Z"/>
  <path class="cls-4" d="m669.16,1325.51c-48.02,16.65-109.81,32.92-182.81,39.9-116.58,11.15-213.59-5.99-278.19-23.11-.03-.05-.05-.1-.06-.16-7.86-18.67-13.39-40.02-14.32-64.15,0-.08,0-.28-.02-.54-1.24-30.02,5-54.07,10.01-68.68,51.58,17.3,135.53,38.23,239.57,32.36,82.04-4.63,148.46-24.33,193.9-41.85,5.33,7.41,12.3,18.23,18.64,32.22,4.75,10.47,12.87,28.81,15.1,54.07.84,9.53,1.14,23.37-1.83,39.95Z"/>
</svg>