<?xml version="1.0" encoding="UTF-8"?>
<svg id="_футб._фил." data-name="футб. фил." xmlns="http://www.w3.org/2000/svg" viewBox="0 0 1170 2532">
  <defs>
    <style>
      .cls-1 {
        fill: #b520ff;
      }

      .cls-1, .cls-2, .cls-3, .cls-4, .cls-5 {
        stroke-width: 0px;
      }

      .cls-6 {
        fill: #0aa90a;
        stroke: #0a710a;
      }

      .cls-6, .cls-7, .cls-8 {
        stroke-linecap: round;
        stroke-linejoin: round;
        stroke-width: 6px;
      }

      .cls-7 {
        stroke: #0a0a0a;
      }

      .cls-7, .cls-9, .cls-8 {
        fill: none;
      }

      .cls-2 {
        opacity: .25;
      }

      .cls-3 {
        fill: #d53c6d;
      }

      .cls-4 {
        fill: #b90036;
      }

      .cls-9 {
        stroke: #7d00aa;
        stroke-miterlimit: 10;
        stroke-width: 10px;
      }

      .cls-5 {
        fill: #c165ff;
      }

      .cls-8 {
        stroke: #6d0000;
      }
    </style>
  </defs>
  <path class="cls-1" d="m669.11,1325.53c-3.7,1.26-7.5,2.52-11.4,3.78-70.99,23-174.31,45.95-298.09,37.91-57.64-3.74-108.56-13.48-151.45-24.92-.03-.05-.05-.1-.06-.16-7.86-18.67-13.39-40.02-14.32-64.15,0-.08-.01-.28-.02-.54-1.24-30.02,5-54.07,10.01-68.68,51.52,17.31,135.49,38.3,239.57,32.36,76.04-4.34,138.6-21.66,183.4-38.14,3.25-1.2,6.41-2.39,9.48-3.57,10.97,14.22,30.05,43.32,34.22,83.99.45,4.39.7,8.63.78,12.72.23,11.09-.73,21-2.12,29.4Z"/>
  <path class="cls-2" d="m359.62,1367.22c-60.6-4.03-112.05-14.48-151.45-24.92-.03-.05-.05-.1-.06-.16-8.66-19.74-13.51-41.54-14.32-64.15-.01-.18-.01-.36-.02-.54-.74-22.51,2.52-45.81,10.01-68.68,18.32,6.16,40.75,12.78,66.73,18.48,1.16,50.64,16.38,81.39,33.08,101.05,17.27,20.34,35.83,28.47,56.03,38.92Z"/>
  <path class="cls-5" d="m669.11,1325.53c-3.7,1.26-7.5,2.52-11.4,3.78,1.08-4.95,2.11-11.05,2.59-18.08,2-29.15-6.87-51.92-11.88-64.4-6.14-15.27-7.44-12.48-17.11-33.74-1.6-3.53-3.13-6.88-4.56-10.1,3.25-1.2,6.41-2.39,9.48-3.57,13.83,31.48,33.33,56.6,35,96.71.23,11.09-.73,21-2.12,29.4Z"/>
  <path class="cls-9" d="m669.16,1325.51c-48.02,16.65-109.81,32.92-182.81,39.9-116.58,11.15-213.59-5.99-278.19-23.11-.03-.05-.05-.1-.06-.16-7.86-18.67-13.39-40.02-14.32-64.15,0-.08,0-.28-.02-.54-1.24-30.02,5-54.07,10.01-68.68,51.58,17.3,135.53,38.23,239.57,32.36,82.04-4.63,148.46-24.33,193.9-41.85,5.33,7.41,12.3,18.23,18.64,32.22,4.75,10.47,12.87,28.81,15.1,54.07.84,9.53,1.14,23.37-1.83,39.95Z"/>
  <g>
    <path class="cls-7" d="m545.05,1253.49c-4.21,2.52-14.01,9.19-19.37,21.86-2.39,5.65-3.2,10.85-3.44,14.73"/>
    <path class="cls-7" d="m545.05,1253.49c-1.64,3.8-4.83,12.75-2.26,23.29.88,3.6,2.24,6.59,3.56,8.91"/>
    <path class="cls-4" d="m522.44,1291.39c-8.6.65-15.3,9.5-13.3,17.6,1.66,6.71,8.82,11.05,15.71,10.32,6.99-.74,13.31-6.63,13.3-13.96-.01-8.13-7.82-14.56-15.71-13.96Z"/>
    <path class="cls-3" d="m536.85,1305.47c.01,5.74-3.87,10.6-8.92,12.79-.88-.55-1.68-1.09-2.37-1.57.35-.29,6.91-5.98,5.71-12.59-1.05-5.78-7.8-10.87-16.31-10.59,1.85-1.11,3.95-1.83,6.18-2,7.89-.6,15.7,5.83,15.71,13.96Z"/>
    <path class="cls-8" d="m522.54,1291.07c-8.6.65-15.3,9.5-13.3,17.6,1.66,6.71,8.82,11.05,15.71,10.32,6.99-.74,13.31-6.63,13.3-13.96-.01-8.13-7.82-14.56-15.71-13.96Z"/>
    <path class="cls-4" d="m567.27,1300.48c.01,5.74-3.87,10.6-8.92,12.79-1.39.61-2.87,1.01-4.38,1.17-6.89.73-14.05-3.61-15.71-10.32-1.48-6,1.81-12.42,7.12-15.6,1.85-1.11,3.95-1.83,6.18-2,7.89-.6,15.7,5.83,15.71,13.96Z"/>
    <path class="cls-3" d="m567.27,1300.48c.01,5.74-3.87,10.6-8.92,12.79-.88-.55-1.68-1.09-2.37-1.57.35-.29,6.91-5.98,5.71-12.59-1.05-5.78-7.8-10.87-16.31-10.59,1.85-1.11,3.95-1.83,6.18-2,7.89-.6,15.7,5.83,15.71,13.96Z"/>
    <path class="cls-8" d="m551.55,1286.52c-8.6.65-15.3,9.5-13.3,17.6,1.66,6.71,8.82,11.05,15.71,10.32,6.99-.74,13.31-6.63,13.3-13.96-.01-8.13-7.82-14.56-15.71-13.96Z"/>
    <path class="cls-6" d="m547.9,1251.35c.8,1.41,2.95,4.73,7.13,6.65,7.29,3.35,14.31-.51,15.09-.95-1.43-4.9-5.44-8.6-10.34-9.51-6.71-1.25-11.48,3.4-11.88,3.8Z"/>
  </g>
</svg>