<?xml version="1.0" encoding="UTF-8"?>
<svg id="_футб._жел." data-name="футб. жел." xmlns="http://www.w3.org/2000/svg" viewBox="0 0 1170 2532">
  <defs>
    <style>
      .cls-1 {
        opacity: .85;
      }

      .cls-2, .cls-3, .cls-4, .cls-5, .cls-6, .cls-7, .cls-8, .cls-9, .cls-10, .cls-11 {
        stroke-width: 0px;
      }

      .cls-2, .cls-3, .cls-4, .cls-5, .cls-8, .cls-9 {
        fill: #9f7000;
      }

      .cls-12, .cls-13, .cls-14, .cls-15, .cls-16, .cls-17 {
        stroke: #141414;
      }

      .cls-12, .cls-14, .cls-15, .cls-18 {
        stroke-miterlimit: 10;
      }

      .cls-12, .cls-14, .cls-16 {
        stroke-width: 6px;
      }

      .cls-12, .cls-17 {
        fill: #f0f0f0;
      }

      .cls-13, .cls-14, .cls-19, .cls-20, .cls-18 {
        fill: none;
      }

      .cls-13, .cls-19, .cls-15, .cls-17 {
        stroke-width: 5px;
      }

      .cls-13, .cls-19, .cls-20, .cls-16, .cls-17 {
        stroke-linecap: round;
        stroke-linejoin: round;
      }

      .cls-3 {
        opacity: .74;
      }

      .cls-4 {
        opacity: .61;
      }

      .cls-5 {
        opacity: .75;
      }

      .cls-6 {
        opacity: .25;
      }

      .cls-19 {
        stroke: #bf2b00;
      }

      .cls-7 {
        fill: #e9b800;
      }

      .cls-8 {
        opacity: .89;
      }

      .cls-15 {
        fill: #00a4e9;
      }

      .cls-20 {
        opacity: .79;
      }

      .cls-20, .cls-18 {
        stroke: #9f7000;
        stroke-width: 10px;
      }

      .cls-9 {
        opacity: .82;
      }

      .cls-16 {
        fill: #c93e00;
      }

      .cls-10 {
        opacity: .11;
      }

      .cls-11 {
        fill: #e9cc00;
      }
    </style>
  </defs>
  <path class="cls-7" d="m669.11,1325.53c-3.7,1.26-7.5,2.52-11.4,3.78-70.99,23-174.31,45.95-298.09,37.91-57.64-3.74-108.56-13.48-151.45-24.92-.03-.05-.05-.1-.06-.16-7.86-18.67-13.39-40.02-14.32-64.15,0-.08-.01-.28-.02-.54-1.24-30.02,5-54.07,10.01-68.68,51.52,17.31,135.49,38.3,239.57,32.36,76.04-4.34,138.6-21.66,183.4-38.14,3.25-1.2,6.41-2.39,9.48-3.57,10.97,14.22,30.05,43.32,34.22,83.99.45,4.39.7,8.63.78,12.72.23,11.09-.73,21-2.12,29.4Z"/>
  <ellipse class="cls-4" cx="607.19" cy="1319.78" rx="9.98" ry="8.2" transform="translate(-792.88 1707.49) rotate(-80.77)"/>
  <ellipse class="cls-8" cx="629.83" cy="1253.89" rx="6.2" ry="7.55" transform="translate(-235.91 149.62) rotate(-11.43)"/>
  <ellipse class="cls-2" cx="391.52" cy="1341.07" rx="7.73" ry="9.41" transform="translate(-57.11 18.01) rotate(-2.46)"/>
  <ellipse class="cls-5" cx="434.97" cy="1311.76" rx="14.44" ry="15.86" transform="translate(-99.64 37.35) rotate(-4.41)"/>
  <path class="cls-6" d="m359.62,1367.22c-60.6-4.03-112.05-14.48-151.45-24.92-.03-.05-.05-.1-.06-.16-8.66-19.74-13.51-41.54-14.32-64.15-.01-.18-.01-.36-.02-.54-.74-22.51,2.52-45.81,10.01-68.68,18.32,6.16,40.75,12.78,66.73,18.48,1.16,50.64,16.38,81.39,33.08,101.05,17.27,20.34,35.83,28.47,56.03,38.92Z"/>
  <path class="cls-11" d="m669.11,1325.53c-3.7,1.26-7.5,2.52-11.4,3.78,1.08-4.95,2.11-11.05,2.59-18.08,2-29.15-6.87-51.92-11.88-64.4-6.14-15.27-7.44-12.48-17.11-33.74-1.6-3.53-3.13-6.88-4.56-10.1,3.25-1.2,6.41-2.39,9.48-3.57,13.83,31.48,33.33,56.6,35,96.71.23,11.09-.73,21-2.12,29.4Z"/>
  <ellipse class="cls-9" cx="656.39" cy="1266.9" rx="12.56" ry="15.29" transform="translate(-237.96 155.14) rotate(-11.43)"/>
  <ellipse class="cls-3" cx="360.14" cy="1269.53" rx="17.63" ry="21.47"/>
  <path class="cls-10" d="m200.97,1224.97c63.97,19.68,119.85,26.89,161.11,29.47,59.66,3.72,106.15-1.17,126.89-3.8,62.69-7.95,114.28-23.63,152.08-38.02-2.22-3.17-4.44-6.34-6.65-9.5-44.91,16.83-108.33,34.97-185.82,39.92-105.63,6.75-191.24-13.93-244.28-31.37"/>
  <path class="cls-20" d="m199.07,1229.25c78.14,23.33,202.8,47.31,346.46,16.4,37.51-8.07,71.43-18.83,101.58-30.65"/>
  <path class="cls-18" d="m669.16,1325.51c-48.02,16.65-109.81,32.92-182.81,39.9-116.58,11.15-213.59-5.99-278.19-23.11-.03-.05-.05-.1-.06-.16-7.86-18.67-13.39-40.02-14.32-64.15,0-.08,0-.28-.02-.54-1.24-30.02,5-54.07,10.01-68.68,51.58,17.3,135.53,38.23,239.57,32.36,82.04-4.63,148.46-24.33,193.9-41.85,5.33,7.41,12.3,18.23,18.64,32.22,4.75,10.47,12.87,28.81,15.1,54.07.84,9.53,1.14,23.37-1.83,39.95Z"/>
  <g class="cls-1">
    <path class="cls-12" d="m509.67,1263.74c-11.51.82-20.37,12.49-18.56,24.16,1.86,11.97,14.41,20.57,25.9,17.24,10.66-3.08,16.39-15.26,13.62-25.69-2.42-9.09-11.2-16.41-20.96-15.72Z"/>
    <path class="cls-12" d="m552.18,1257.35c-11.43,1.57-19.51,13.79-16.94,25.33,2.64,11.83,15.73,19.58,26.98,15.51,10.43-3.77,15.36-16.3,11.91-26.52-3.01-8.91-12.25-15.65-21.94-14.31Z"/>
    <path class="cls-14" d="m488.97,1262.51c2.53,2.22,5.07,4.44,7.6,6.65"/>
    <path class="cls-14" d="m533.52,1256.46c2.53,2.22,5.07,4.44,7.6,6.65"/>
    <path class="cls-14" d="m508.81,1254.55c.24,2.61.48,5.23.71,7.84"/>
    <path class="cls-14" d="m550.82,1248.2c.51,2.57,1.02,5.15,1.53,7.72"/>
    <path class="cls-14" d="m527.35,1257.76l-4.63,7.49"/>
    <path class="cls-14" d="m568.87,1250.28c-1.54,2.5-3.09,4.99-4.63,7.49"/>
    <ellipse class="cls-15" cx="514.81" cy="1284.44" rx="6.36" ry="6.83" transform="translate(-54.46 23.19) rotate(-2.45)"/>
    <ellipse class="cls-15" cx="551.41" cy="1278.5" rx="6.36" ry="6.83" transform="translate(-54.17 24.75) rotate(-2.45)"/>
    <path class="cls-13" d="m533.11,1307.66c-2.93-2.23-3.61-6.34-1.66-9.27,2.08-3.12,6.46-3.85,8.91-2.14,2.78,1.94,3.48,7.29-.12,11.17"/>
    <path class="cls-16" d="m491.35,1309.09c3.16,2.4,22.59,16.63,48.95,11.88,23.5-4.23,36.32-20.62,39.09-24.36-.56,21.4-15.46,39.53-35.29,43.84-22.05,4.8-45.36-8.54-52.75-31.37Z"/>
    <path class="cls-17" d="m524.85,1323.52c-.12,2.91-.24,5.82-.36,8.73,3.84.36,7.68.71,11.52,1.07.12-3.33.24-6.65.36-9.98"/>
    <path class="cls-17" d="m541.01,1322.28c.95,3.21,1.9,6.42,2.85,9.62,3.76-1.27,7.52-2.53,11.29-3.8-1.23-3.17-2.46-6.34-3.68-9.5"/>
    <path class="cls-19" d="m575.47,1289.84c1.84-3.73,5.91-5.36,8.91-4.28,3.6,1.3,5.77,6.56,3.21,11.05"/>
    <path class="cls-19" d="m482.41,1309.13c-2.66-3.19-2.5-7.58-.29-9.88,2.65-2.76,8.33-2.61,11.4,1.55"/>
  </g>
</svg>