<?xml version="1.0" encoding="UTF-8"?>
<svg id="_футб._бант." data-name="футб. бант." xmlns="http://www.w3.org/2000/svg" viewBox="0 0 1170 2532">
  <defs>
    <style>
      .cls-1 {
        fill: #0630ff;
      }

      .cls-1, .cls-2, .cls-3, .cls-4 {
        stroke-width: 0px;
      }

      .cls-2 {
        fill: #fff;
        opacity: .5;
      }

      .cls-5 {
        stroke-linecap: round;
        stroke-width: 5px;
      }

      .cls-5, .cls-6 {
        fill: none;
      }

      .cls-5, .cls-7 {
        stroke: #659bc0;
        stroke-linejoin: round;
      }

      .cls-3 {
        fill: #064aff;
      }

      .cls-4 {
        fill: #072bce;
      }

      .cls-6 {
        stroke: #0000c1;
        stroke-miterlimit: 10;
        stroke-width: 10px;
      }

      .cls-7 {
        fill: #a8e0ff;
        stroke-width: 8px;
      }
    </style>
  </defs>
  <g>
    <path class="cls-1" d="m669.11,1325.53c-3.7,1.26-7.5,2.52-11.4,3.78-70.99,23-174.31,45.95-298.09,37.91-57.64-3.74-108.56-13.48-151.45-24.92-.03-.05-.05-.1-.06-.16-7.86-18.67-13.39-40.02-14.32-64.15,0-.08-.01-.28-.02-.54-1.24-30.02,5-54.07,10.01-68.68,51.52,17.31,135.49,38.3,239.57,32.36,76.04-4.34,138.6-21.66,183.4-38.14,3.25-1.2,6.41-2.39,9.48-3.57,10.97,14.22,30.05,43.32,34.22,83.99.45,4.39.7,8.63.78,12.72.23,11.09-.73,21-2.12,29.4Z"/>
    <path class="cls-4" d="m359.62,1367.22c-60.6-4.03-112.05-14.48-151.45-24.92-.03-.05-.05-.1-.06-.16-8.66-19.74-13.51-41.54-14.32-64.15-.01-.18-.01-.36-.02-.54-.74-22.51,2.52-45.81,10.01-68.68,18.32,6.16,40.75,12.78,66.73,18.48,1.16,50.64,16.38,81.39,33.08,101.05,17.27,20.34,35.83,28.47,56.03,38.92Z"/>
    <path class="cls-3" d="m669.11,1325.53c-3.7,1.26-7.5,2.52-11.4,3.78,1.08-4.95,2.11-11.05,2.59-18.08,2-29.15-6.87-51.92-11.88-64.4-6.14-15.27-7.44-12.48-17.11-33.74-1.6-3.53-3.13-6.88-4.56-10.1,3.25-1.2,6.41-2.39,9.48-3.57,13.83,31.48,33.33,56.6,35,96.71.23,11.09-.73,21-2.12,29.4Z"/>
    <path class="cls-6" d="m669.16,1325.51c-48.02,16.65-109.81,32.92-182.81,39.9-116.58,11.15-213.59-5.99-278.19-23.11-.03-.05-.05-.1-.06-.16-7.86-18.67-13.39-40.02-14.32-64.15,0-.08,0-.28-.02-.54-1.24-30.02,5-54.07,10.01-68.68,51.58,17.3,135.53,38.23,239.57,32.36,82.04-4.63,148.46-24.33,193.9-41.85,5.33,7.41,12.3,18.23,18.64,32.22,4.75,10.47,12.87,28.81,15.1,54.07.84,9.53,1.14,23.37-1.83,39.95Z"/>
  </g>
  <path class="cls-7" d="m468.49,1215.03c2.04-2.05,4.96-2.03,6.33-2,9.6.2,39.64,10.48,41.17,11.01.71.17,2.71.75,4.34,2.73,1.19,1.46,1.62,2.98,1.78,3.76.98,5.07,1.96,10.14,2.95,15.2.11.52.48,2.62-.68,4.65-.67,1.17-1.56,1.81-2.07,2.12-1.43.71-27.31,13.59-38.07,15.93-2.56.56-5.24.73-7.74-.7-2.91-1.67-4.24-4.75-4.79-6.32-2.34-7.26-3.75-13.51-4.63-18.18,0,0-1.76-9.32-.87-21.87.11-1.63.37-4.42,2.28-6.34Z"/>
  <path class="cls-7" d="m592.24,1199.19c-2.39-1.51-5.08-.8-6.35-.45-8.82,2.46-34.04,19.5-35.32,20.37-.61.33-2.32,1.36-3.34,3.66-.74,1.69-.76,3.27-.72,4.07.34,5.14.68,10.28,1.03,15.42.03.53.2,2.65,1.77,4.34.91.98,1.89,1.39,2.43,1.56,1.5.35,28.58,6.72,39.1,6.45,2.5-.06,5.02-.53,6.98-2.5,2.27-2.3,2.75-5.6,2.87-7.24.75-7.17.64-13.21.34-17.64-.53-7.9-2.06-12.74-5.13-22.43-.49-1.56-1.39-4.17-3.67-5.6Z"/>
  <ellipse class="cls-7" cx="536.4" cy="1235.75" rx="14.03" ry="15.51" transform="translate(-90.67 43.45) rotate(-4.28)"/>
  <path class="cls-5" d="m550.95,1229.12c2.17-.72,4.52-1.62,7-2.77,2.11-.97,4.03-1.99,5.76-3"/>
  <path class="cls-5" d="m552.43,1237.41c1.87-.09,4.18-.04,6.78.41,1.89.33,3.56.79,4.98,1.29"/>
  <path class="cls-5" d="m520.07,1234.81c-2.48-.43-4.96-.86-7.44-1.29-2.3-.4-4.6-.8-6.89-1.2"/>
  <path class="cls-5" d="m520.23,1241.79c-2.15.59-4.36,1.27-6.64,2.03-1.16.39-2.3.79-3.41,1.2"/>
  <path class="cls-5" d="m523.12,1236.01c1.79.91,7.53,3.54,14.73,1.98,6.21-1.35,10.08-5.07,11.53-6.62"/>
  <ellipse class="cls-2" cx="479.67" cy="1229.09" rx="4.04" ry="4.25" transform="translate(-177.44 84.99) rotate(-8.55)"/>
  <ellipse class="cls-2" cx="492.6" cy="1239.51" rx="4.04" ry="4.25" transform="translate(-178.84 87.03) rotate(-8.55)"/>
  <ellipse class="cls-2" cx="481.23" cy="1251.38" rx="4.04" ry="4.25" transform="translate(-180.73 85.47) rotate(-8.55)"/>
  <ellipse class="cls-2" cx="501.7" cy="1251.05" rx="4.04" ry="4.25" transform="translate(-180.46 88.51) rotate(-8.55)"/>
  <ellipse class="cls-2" cx="497.3" cy="1227.67" rx="4.04" ry="4.25" transform="translate(-177.03 87.6) rotate(-8.55)"/>
  <ellipse class="cls-2" cx="572.4" cy="1219.39" rx="4.04" ry="4.25" transform="translate(-174.96 98.67) rotate(-8.55)"/>
  <ellipse class="cls-2" cx="585.12" cy="1212.56" rx="4.04" ry="4.25" transform="translate(-173.8 100.49) rotate(-8.55)"/>
  <ellipse class="cls-2" cx="586.08" cy="1227.58" rx="4.04" ry="4.25" transform="translate(-176.03 100.8) rotate(-8.55)"/>
  <ellipse class="cls-2" cx="587.53" cy="1241.13" rx="4.04" ry="4.25" transform="translate(-178.03 101.17) rotate(-8.55)"/>
  <ellipse class="cls-2" cx="574.53" cy="1235.45" rx="4.04" ry="4.25" transform="translate(-177.33 99.17) rotate(-8.55)"/>
</svg>