<?xml version="1.0" encoding="UTF-8"?>
<svg id="_стена_сер" data-name="стена сер" xmlns="http://www.w3.org/2000/svg" xmlns:xlink="http://www.w3.org/1999/xlink" viewBox="0 0 1170 2532">
  <defs>
    <style>
      .cls-1 {
        fill: none;
        stroke: #3d404d;
        stroke-linecap: round;
        stroke-linejoin: round;
        stroke-width: 10px;
      }

      .cls-2 {
        fill: url(#_Безымянный_градиент_33);
      }

      .cls-2, .cls-3, .cls-4, .cls-5 {
        stroke-width: 0px;
      }

      .cls-3 {
        opacity: .16;
      }

      .cls-4 {
        fill: url(#_Безымянный_градиент_34);
      }

      .cls-5 {
        opacity: .15;
      }
    </style>
    <linearGradient id="_Безымянный_градиент_33" data-name="Безымянный градиент 33" x1="1175.41" y1="854.06" x2="231.57" y2="671.57" gradientUnits="userSpaceOnUse">
      <stop offset="0" stop-color="#717985"/>
      <stop offset="0" stop-color="#707884"/>
      <stop offset=".63" stop-color="#585e6d"/>
      <stop offset="1" stop-color="#4f5465"/>
    </linearGradient>
    <linearGradient id="_Безымянный_градиент_34" data-name="Безымянный градиент 34" x1="828.48" y1="-135.7" x2="1005.44" y2="2057.96" gradientUnits="userSpaceOnUse">
      <stop offset="0" stop-color="#717985"/>
      <stop offset=".96" stop-color="#505566"/>
      <stop offset="1" stop-color="#4f5465"/>
    </linearGradient>
  </defs>
  <path class="cls-2" d="m1183.55-15.42c-.24,384.28-.47,768.57-.71,1152.86-.05,84.27-.1,168.55-.15,252.83-.07,112.07-.14,224.14-.21,336.21-188.55-118.2-377.11-236.4-565.66-354.59-2.5-1.57-4.99-3.13-7.49-4.7-206.38,24.71-412.75,49.42-619.13,74.14.72-489.15,1.43-978.3,2.14-1467.45,208.19.91,416.34,2.32,624.48,4.24,1.42.01,2.85.03,4.27.04,187.47,1.73,374.96,3.87,562.46,6.42Z"/>
  <path class="cls-4" d="m1183.55-15.42c-.24,384.28-.47,768.57-.71,1152.86-.05,84.27-.1,168.55-.15,252.83-.07,112.07-.14,224.14-.21,336.21-188.55-118.2-377.11-236.4-565.66-354.59-2.5-1.57-4.99-3.13-7.49-4.7-1.25,5.07-2.49,10.14-3.74,15.21.18-462.02.35-924.04.53-1386.06,2.03-9.6,5.33-16.8,10.7-18.22,2.15-.56,3.96.04,4.27.04,187.47,1.73,374.96,3.87,562.46,6.42Z"/>
  <path class="cls-5" d="m686.67,1156.53c9.5,94.57,19.01,189.15,28.51,283.72,166.46,102.53,332.91,205.07,499.37,307.6-3.92-111.56-7.84-223.13-11.76-334.69-172.04-85.54-344.08-171.09-516.12-256.63Z"/>
  <path class="cls-3" d="m606.12-21.84c-.24,462.77-.48,925.54-.71,1388.32-205.07,24.95-410.14,49.9-615.21,74.85.72-489.15,1.43-978.3,2.14-1467.45,104.07.43,208.16,1.01,312.26,1.74,100.52.71,201.03,1.55,301.52,2.54Z"/>
  <path class="cls-1" d="m605.41,1366.12c191.05,120.05,382.1,240.11,573.15,360.16.36-582.05.71-1164.1,1.07-1746.15-187.5-2.55-374.99-4.7-562.46-6.43-209.56-1.94-419.15-3.37-628.75-4.29-.83,491.35-1.66,982.7-2.49,1474.05,206.5-25.78,412.99-51.56,619.49-77.35.24-462.65.48-925.31.71-1387.96"/>
</svg>