<svg xmlns="http://www.w3.org/2000/svg" xmlns:xlink="http://www.w3.org/1999/xlink" viewBox="0 0 1170 2532"><defs><radialGradient id="_Безымянный_градиент_41" cx="1159.19" cy="933.04" r="53.77" data-name="Безымянный градиент 41" fx="1159.19" fy="933.04" gradientUnits="userSpaceOnUse"><stop offset="0" stop-color="#fd15ff"/><stop offset=".08" stop-color="#f121ff" stop-opacity=".86"/><stop offset=".22" stop-color="#de34ff" stop-opacity=".63"/><stop offset=".36" stop-color="#cf44ff" stop-opacity=".44"/><stop offset=".5" stop-color="#c252ff" stop-opacity=".28"/><stop offset=".63" stop-color="#b85cff" stop-opacity=".16"/><stop offset=".77" stop-color="#b063ff" stop-opacity=".07"/><stop offset=".89" stop-color="#ac68ff" stop-opacity=".02"/><stop offset="1" stop-color="#ab6aff" stop-opacity="0"/></radialGradient><radialGradient xlink:href="#_Безымянный_градиент_41" id="_Безымянный_градиент_41-2" cx="975.43" cy="1059.15" r="53.77" data-name="Безымянный градиент 41" fx="975.43" fy="1059.15"/><radialGradient xlink:href="#_Безымянный_градиент_41" id="_Безымянный_градиент_41-3" cx="961.89" cy="1059.86" data-name="Безымянный градиент 41" fx="961.89" fy="1059.86"/><linearGradient id="_Безымянный_градиент_16" x1="945.45" x2="945.45" y1="1381.8" y2="530.63" data-name="Безымянный градиент 16" gradientUnits="userSpaceOnUse"><stop offset=".48" stop-color="#d89b38"/><stop offset=".53" stop-color="#d4993d"/><stop offset=".6" stop-color="#c9954d"/><stop offset=".67" stop-color="#b88e67"/><stop offset=".75" stop-color="#9f858b"/><stop offset=".83" stop-color="#8078ba"/><stop offset=".91" stop-color="#5a6af2"/><stop offset=".93" stop-color="#5267ff"/></linearGradient><linearGradient id="_Безымянный_градиент_13" x1="945.45" x2="945.45" y1="530.63" y2="1319.78" data-name="Безымянный градиент 13" gradientUnits="userSpaceOnUse"><stop offset=".12" stop-color="#fff" stop-opacity="0"/><stop offset=".2" stop-color="#fff" stop-opacity=".02"/><stop offset=".3" stop-color="#fff" stop-opacity=".08"/><stop offset=".4" stop-color="#fff" stop-opacity=".19"/><stop offset=".52" stop-color="#fff" stop-opacity=".33"/><stop offset=".64" stop-color="#fff" stop-opacity=".51"/><stop offset=".77" stop-color="#fff" stop-opacity=".74"/><stop offset=".9" stop-color="#fff"/><stop offset=".9" stop-color="#fff"/></linearGradient><style>.cls-2{opacity:.6;stroke:#fff}.cls-2,.cls-3{stroke-width:10px}.cls-10,.cls-11,.cls-12,.cls-13,.cls-14,.cls-15,.cls-16,.cls-2,.cls-3,.cls-4,.cls-5,.cls-6,.cls-8,.cls-9{stroke-linecap:round}.cls-11,.cls-12,.cls-13,.cls-14,.cls-15,.cls-16,.cls-2,.cls-3,.cls-4,.cls-5,.cls-6,.cls-8,.cls-9{stroke-linejoin:round}.cls-10,.cls-11,.cls-2,.cls-3,.cls-4{fill:none}.cls-3{stroke:#adadad}.cls-11,.cls-13,.cls-14,.cls-15,.cls-16,.cls-4,.cls-5,.cls-6,.cls-8,.cls-9{stroke:#8c8c8c}.cls-13,.cls-4{stroke-width:6px}.cls-20,.cls-22,.cls-26,.cls-28{stroke-width:0}.cls-20{fill:#e6e6e6}.cls-5{fill:#d4bf08}.cls-11,.cls-14,.cls-15,.cls-16,.cls-5,.cls-6,.cls-8,.cls-9{stroke-width:4px}.cls-6{fill:#678494}.cls-22{opacity:.08}.cls-8{fill:#736a6b}.cls-9{fill:#957567}.cls-10{stroke:#5f422b}.cls-10,.cls-12,.cls-29{stroke-width:8px}.cls-10,.cls-29{stroke-miterlimit:10}.cls-12{fill:#61ac45}.cls-12,.cls-29{stroke:#4e9542}.cls-13{fill:#b4b4b4}.cls-14{fill:#9648ea}.cls-29{fill:#55a746}.cls-15{fill:#2f8846}.cls-26{opacity:.12}.cls-16{fill:#6f9d78}.cls-28{fill:#fff;opacity:.35}</style></defs><path id="_вечер" d="M1175.7 1381.8V647.54c-153.51-38.97-307.01-77.94-460.51-116.91v614.5c153.51 78.89 307.01 157.78 460.51 236.67Z" data-name="вечер" style="fill:url(#_Безымянный_градиент_16);stroke-width:0"/><g id="_двор" data-name="двор"><path d="m1182.84 1137.44-.15 252.83c-155.52-81.24-311.03-162.48-466.55-243.71.79-57.82 1.58-115.64 2.38-173.47 2.22-1.82 4.43-3.65 6.65-5.47 43.01 61.55 86.02 123.09 129.03 184.64l328.64-14.82Z" style="fill:#3d7c46;stroke-width:0"/><path d="M812.85 1154.75c127.84 33.74 255.68 67.49 383.52 101.23-10.34-44.55-20.67-89.11-31.01-133.66l-358.57 15.33c2.02 5.7 4.04 11.41 6.06 17.11Z" class="cls-22"/><path d="m1180.34 869.96-363.68 8.79c-.02 1.52-.03 3.03-.05 4.55-1.01 89.65-2.03 179.31-3.04 268.96-28.99-26.46-57.98-52.91-86.97-79.37 1.57-84.48 3.16-168.96 4.73-253.45.01-.27.01-.54.02-.81l326.47-4.68 122.52 56.01Z" style="fill:#a0a0a0;stroke-width:6px;stroke:#8c8c8c;stroke-linejoin:round;stroke-linecap:round"/><path d="M816.61 883.3c-1.01 89.65-2.03 179.31-3.04 268.96l-84-80.79c1.62-83.25 3.25-166.5 4.87-249.74a67571.425 67571.425 0 0 0 82.17 61.58Z" style="fill:#aaa;stroke-width:0"/><path d="M815.7 878.51c-.71 91.25-1.43 182.5-2.14 273.74 119.52-3.56 239.05-7.13 358.57-10.69 1.66-89.82 3.33-179.64 4.99-269.47l-361.43 6.42-82.46-57.98" class="cls-13"/><path d="m881.05 876.85-.48 270.89M940.22 877.56l-.48 270.89M1000.25 877.56c-.16 89.78-.32 179.56-.47 269.35M1059.26 877.56c-.16 89.13-.31 178.26-.47 267.39M1122 872.57l-.48 270.89" class="cls-11"/><path d="M814.04 965.43c120.71-2.6 241.43-5.19 362.14-7.79M816.42 905.08c120.71-2.6 241.43-5.19 362.14-7.79M814.04 1030.78c120.71-2.6 241.43-5.19 362.14-7.79M811.93 1091.74c120.69-3.47 241.38-6.94 362.07-10.42M731.23 847.15c28.04 19.25 56.08 38.5 84.12 57.74M730.87 907.03c28.04 19.25 56.08 38.5 84.12 57.74M728.73 972.61c28.04 19.25 56.08 38.5 84.12 57.74" class="cls-11"/><path d="M728.73 1034.28c28.04 19.25 56.08 38.5 84.12 57.74" class="cls-11"/><path d="M755.58 836.22c-.63 86.81-1.27 173.62-1.9 260.44M787.9 861.41c-.63 86.81-1.27 173.62-1.9 260.44" class="cls-11"/><path d="m848.97 919.92-16.16.3v28.87c11.05-.24 22.1-.48 33.15-.71l.27-28.78c-5.75.11-11.51.21-17.26.32v28.76M910.51 981.93l-16.16.3v28.87c11.05-.24 22.1-.48 33.15-.71l.27-28.78c-5.75.11-11.51.21-17.26.32v28.76M1029.8 1099.79l-16.16.3v28.87c11.05-.24 22.1-.48 33.15-.71l.27-28.78c-5.75.11-11.51.21-17.26.32v28.76" class="cls-6"/><path d="m970.39 981.03-16.16.3v28.87c11.05-.24 22.1-.48 33.15-.71l.27-28.78c-5.75.11-11.51.21-17.26.32v28.76M1152.41 1096.99l-16.16.3v28.87c11.05-.24 22.1-.48 33.15-.71l.27-28.78c-5.75.11-11.51.21-17.26.32v28.76M910.51 1102.93l-16.16.3v28.87c11.05-.24 22.1-.48 33.15-.71l.27-28.78c-5.75.11-11.51.21-17.26.32v28.76M848.78 1046.18l-16.16.3v28.87c11.05-.24 22.1-.48 33.15-.71l.27-28.78c-5.75.11-11.51.21-17.26.32v28.76M1090.8 1039.77l-16.16.3v28.87c11.05-.24 22.1-.48 33.15-.71l.27-28.78c-5.75.11-11.51.21-17.26.32v28.76" class="cls-9"/><path d="m909.75 919.44-16.16.3v28.87c11.05-.24 22.1-.48 33.15-.71l.27-28.78c-5.75.11-11.51.21-17.26.32v28.76M1090.34 1098.13l-16.16.3v28.87c11.05-.24 22.1-.48 33.15-.71l.27-28.78c-5.75.11-11.51.21-17.26.32v28.76M1090.77 977.9l-16.16.3v28.87c11.05-.24 22.1-.48 33.15-.71l.27-28.78c-5.75.11-11.51.21-17.26.32v28.76" class="cls-16"/><path d="m969.66 917.94-16.16.3v28.87c11.05-.24 22.1-.48 33.15-.71l.27-28.78c-5.75.11-11.51.21-17.26.32v28.76M1030.07 1042.03l-16.16.3v28.87c11.05-.24 22.1-.48 33.15-.71l.27-28.78c-5.75.11-11.51.21-17.26.32v28.76" class="cls-15"/><path d="m1029.8 916.82-16.16.3v28.87c11.05-.24 22.1-.48 33.15-.71l.27-28.78c-5.75.11-11.51.21-17.26.32v28.76M970.39 1101.69l-16.16.3v28.87c11.05-.24 22.1-.48 33.15-.71l.27-28.78c-5.75.11-11.51.21-17.26.32v28.76M1152.41 977.22l-16.16.3v28.87c11.05-.24 22.1-.48 33.15-.71l.27-28.78c-5.75.11-11.51.21-17.26.32v28.76" class="cls-5"/><path d="m1090.51 915.63-16.16.3v28.87c11.05-.24 22.1-.48 33.15-.71l.27-28.78c-5.75.11-11.51.21-17.26.32v28.76M849.14 982.69l-16.16.3v28.87c11.05-.24 22.1-.48 33.15-.71l.27-28.78c-5.75.11-11.51.21-17.26.32v28.76M1029.78 979.89l-16.16.3v28.87c11.05-.24 22.1-.48 33.15-.71l.27-28.78c-5.75.11-11.51.21-17.26.32v28.76M848 1105.35l-16.16.3v28.87c11.05-.24 22.1-.48 33.15-.71l.27-28.78c-5.75.11-11.51.21-17.26.32v28.76M1151.92 1038.82l-16.16.3v28.87c11.05-.24 22.1-.48 33.15-.71l.27-28.78c-5.75.11-11.51.21-17.26.32v28.76M910.02 1045.05l-16.16.3v28.87c11.05-.24 22.1-.48 33.15-.71l.27-28.78c-5.75.11-11.51.21-17.26.32v28.76" class="cls-8"/><path d="m1152.11 914.2-16.16.3v28.87c11.05-.24 22.1-.48 33.15-.71l.27-28.78c-5.75.11-11.51.21-17.26.32v28.76M970.56 1043.95l-16.16.3v28.87c11.05-.24 22.1-.48 33.15-.71l.27-28.78c-5.75.11-11.51.21-17.26.32v28.76" class="cls-14"/><path d="m998.73 811.5 55.43.24c6.89 1.82 13.78 3.64 20.67 5.47-25.81-.27-51.62-.53-77.44-.8.45-1.63.89-3.27 1.34-4.9Z" class="cls-13"/><path d="M1015.19 819.23c-5.6-2.43-11.21-4.85-16.81-7.28" class="cls-13"/><path d="M1014.48 818.87v30.42l62.26-.48c-.32-10.14-.63-20.28-.95-30.42l-61.31.48Z" class="cls-13"/><path d="M997.13 842.16c5.78 2.38 11.56 4.75 17.35 7.13.2-10.18.4-20.36.59-30.53-5.9-.51-11.8-1.03-17.7-1.54l-.24 24.95ZM859.01 814.36l55.43.24c6.89 1.82 13.78 3.64 20.67 5.47-25.81-.27-51.62-.53-77.44-.8.45-1.63.89-3.27 1.34-4.9Z" class="cls-13"/><path d="M875.47 822.08c-5.6-2.43-11.21-4.85-16.81-7.28" class="cls-13"/><path d="M874.75 821.72v30.42l62.26-.48c-.32-10.14-.63-20.28-.95-30.42l-61.31.48Z" class="cls-13"/><path d="M857.41 845.01c5.78 2.38 11.56 4.75 17.35 7.13.2-10.18.4-20.36.59-30.53-5.9-.51-11.8-1.03-17.7-1.54l-.24 24.95Z" class="cls-13"/><path d="M966.83 846.79c3.56-13.54 7.13-27.09 10.69-40.63-6.42-14.26-12.83-28.51-19.25-42.77M824.26 850.36c4.51-7.96 9.03-15.92 13.54-23.88-4.99-7.37-9.98-14.73-14.97-22.1 4.75-6.89 9.51-13.78 14.26-20.67" class="cls-4"/><g id="_Слой_68" data-name="Слой 68"><path d="M1135.54 980.93c-25.87-13.48-38.09-48.29-24.24-74.14 16.09-30.02 61.51-37.08 86.02-13.78 23.79 22.61 19.04 65.42-6.18 84.12-15.89 11.78-38.31 12.81-55.6 3.8Z" style="fill:url(#_Безымянный_градиент_41);opacity:.51;stroke-width:0"/><path d="M951.79 1107.04c-25.87-13.48-38.09-48.29-24.24-74.14 16.09-30.02 61.51-37.08 86.02-13.78 23.79 22.61 19.04 65.42-6.18 84.12-15.89 11.78-38.31 12.81-55.6 3.8Z" style="fill:url(#_Безымянный_градиент_41-2);opacity:.4;stroke-width:0"/><path d="M938.25 1107.75c-25.87-13.48-38.09-48.29-24.24-74.14 16.09-30.02 61.51-37.08 86.02-13.78 23.79 22.61 19.04 65.42-6.18 84.12-15.89 11.78-38.31 12.81-55.6 3.8Z" style="stroke-width:0;fill:url(#_Безымянный_градиент_41-3);opacity:.17"/></g></g><g id="_деревья" data-name="деревья"><path d="M1141.92 1294.25c13.66-.07 27.56-9.48 27.18-15.25-.4-5.95-16.17-10.35-39.47-9.85 3.76-1.51 18.95-7.96 24.94-20.48 8.08-16.91-3.9-38.06-27.56-40.79-20.32-2.35-45.51 9.31-49.46 24.65-3.01 11.71 8.09 20.64 10.28 22.33-6.88-7.58-18.42-8.58-24.16-5.03-4.78 2.96-5.64 9.15-3.67 13.36 2.9 6.19 11.51 7.64 12.69 7.82-1.68 3.92-3.83 10.58-2.64 18.36.54 3.53 2.8 18.09 14.87 21.28 11.51 3.04 30.52-4.64 42.46-20.32 2.5 1.49 7.51 3.95 14.54 3.92Z" class="cls-29"/><path d="M1079.22 1120.14c2.26 13.86 4.07 34.22.28 58.05-3.39 21.32-9.41 33.81-12.4 43.51-6.81 22.1-6.21 56.76 27.91 111.29l-.04.88c-1.6.61-6.15 2.09-11.58.53a18.31 18.31 0 0 1-7.49-4.28l-1.07-2.14c-23.84-52.61-21-86.04-13.19-107.29 3.74-10.16 10.26-22 14.73-42.77 6.73-31.25 2.57-57.97 2.85-57.98.14 0 .62 6.59 2.2 37.13-1.74 7.57-4.51 19.33-8.14 33.68-5.69 22.5-9.74 36.45-10.69 40.16-4.54 17.61-2.25 47.91 30.65 103.13" class="cls-10"/><path d="M1167.51 1112.34c4.56 8.79 11.01 24.1 11.76 43.84.34 8.95 1.68 45.93-19.25 59.88-2.77 1.85-5.87 3.26-9.25 4.23-13.47 3.89-31.22.85-48.55-9.25-8.69-5.07-17.27-11.92-25.14-20.56-.88-.95-1.75-1.93-2.6-2.93-.17.21-.36.43-.55.66-.05.07-.11.13-.17.2a55.495 55.495 0 0 1-3.89 4.17c-4.63 4.48-11.44 9.5-20.58 11.96-25.09 6.74-54.13-9.39-55.6-23.77-1.52-14.84 25.75-33.63 68.67-44.2-7.46-1.8-37.76-10-53.46-37.78-21.21-37.52-7.21-95.6 35.16-114.29 10.76-4.75 22.77-6.7 34.68-6.16 28.36 1.26 56.16 16.61 65.34 41.78 7.2 19.74.3 39.63-5.36 51.12 10.72-15.28 27.26-20.54 37.34-15.58 9.9 4.88 13.79 19.66 11.77 31.01-2.98 16.69-18.23 24.62-20.32 25.67Z" class="cls-12"/><path d="M1080.55 1138.51s-.07.04-.1.04l-.21.06c-1.97.56-16.96 4.95-29.52 12.7-8.81 5.43-26.2 16.17-24.24 26.14 1.59 8.06 14.99 11.36 17.11 11.88 14.27 3.52 26.19-3.87 28.99-5.71a39.44 39.44 0 0 1-4.16 4.99 41.053 41.053 0 0 1-3.56 3.21 40.176 40.176 0 0 1-6.42 4.63c-11.44 6.66-27.06 8.11-40.63 2.14-4.16-1.83-20.72-9.11-20.67-19.25.08-17.61 50.25-36.74 59.17-37.43.8-.06 4.29-.2 6.75-2.65 1.62-1.61 2.24-3.66 2.51-5.19-8.65-1.87-37.37-9.23-52.75-34.93-23.11-38.6-2.68-96.05 33.15-112.63 11.79-5.46 23.31-5.59 30.65-4.99-32.39 19.06-50.21 49.78-44.91 76.63 1.16 5.9 4.26 15.72 13.78 26.14 8.02 6.65 16.98 8.14 21.39 8.55-12.01 12.79-12.75 20.55-11.41 25.19 3.46 11.93 25.51 19.72 25.08 20.47Z" class="cls-22"/><path d="M1093.01 1024.77c9.26-6.1 20.64-3.68 25.19 3.33 3.17 4.89 2.87 11.78-.48 17.58M1135.72 1140.2c10.83 2.39 17.03 12.23 15.18 20.37-1.29 5.68-6.45 10.28-12.94 11.92M1085.44 1126.07c-1.02-11.04 6.47-19.94 14.8-20.65 5.81-.5 11.75 3.02 15.29 8.7M1039.69 1085.53c-3.56-10.5 1.65-20.9 9.58-23.53 5.53-1.84 12.13.2 16.89 4.9M1048.06 1049.11c-.63-6.74 3.94-12.19 9.02-12.63 3.55-.31 7.18 1.83 9.35 5.3" class="cls-12"/><path d="M1001 1239.46c8.91-3.79 15.81-12.78 14.23-15.83-1.63-3.15-12.94-1.22-28.04 5.46 2.11-1.86 10.54-9.57 11.55-18.08 1.37-11.49-11.33-19.77-27.4-14.76-13.81 4.3-27.56 17.62-26.6 27.1.73 7.25 10.04 9.08 11.86 9.4-6.24-2.26-14.01.37-16.93 3.89-2.44 2.94-1.57 6.56.69 8.33 3.32 2.59 9.28 1.02 10.09.8-.19 2.61-.06 6.85 2.52 10.78 1.17 1.78 6.01 9.14 14.62 7.57 8.21-1.5 18.86-10.93 23.03-22.81 1.97.13 5.82.1 10.39-1.85Z" class="cls-29"/><path d="M919.89 1161.34c4.67 6.97 10.55 17.63 13.58 31.72 2.71 12.61 1.66 21.11 1.94 27.24.65 13.98 9.04 32.8 43.9 53.29l.18.49c-.9.77-3.54 2.83-7.44 3.48-2.68.44-4.78.02-5.87-.28l-1.19-.88c-27.71-22.26-33.57-41.36-33.37-55.14.1-6.59 1.62-14.87-.25-27.48-2.81-18.97-11.7-32.46-11.52-32.54.09-.04 1.93 3.44 10 19.73.61 4.62 1.52 11.83 2.46 20.69 1.48 13.89 2.05 22.65 2.29 24.94 1.1 10.89 9.58 26.86 43.81 48.06" class="cls-10"/><path d="M975.73 1132.78c5.01 3.56 12.75 10.17 17.79 20.78 2.29 4.81 11.7 24.7 1.25 38.09-1.38 1.78-3.08 3.4-5.06 4.86-7.9 5.84-20.19 9.05-33.83 8.28-6.84-.39-14.03-1.78-21.16-4.35-.79-.28-1.59-.58-2.37-.89-.06.16-.14.33-.21.51-.02.05-.04.1-.06.16-.4.97-.92 2.11-1.58 3.35-1.99 3.73-5.28 8.35-10.68 12.21-14.82 10.59-37.51 9.74-41.78 2.27-4.42-7.71 9.05-25.5 34.63-43.1-5.29 1.07-26.96 4.91-43.62-5.99-22.5-14.72-26.77-50.38-3.42-72.27 5.93-5.56 13.32-9.93 21.22-12.91 18.81-7.11 40.5-6.35 52.3 4.92 9.26 8.83 9.34 21.63 8.3 29.48 3.47-11.32 13.06-18.75 20.78-18.8 7.59-.05 13.54 6.98 14.84 13.75 1.91 9.96-6.22 18.5-7.34 19.65Z" class="cls-12"/><path d="M925 1171.03s-.04.04-.06.05l-.12.09c-1.15.85-9.93 7.37-16.34 15.08-4.49 5.4-13.38 16.06-9.79 20.98 2.9 3.98 12.41 2.1 13.91 1.8 10.13-2 16.21-9.32 17.61-11.1a25.72 25.72 0 0 1-3.15 6.62c-.64 1.08-1.64 2.61-3.12 4.3-5.93 6.8-15.79 11.88-26.03 12.35-3.14.14-15.63.7-17.94-4.86-4.01-9.67 24.32-33.95 29.99-36.77.51-.25 2.75-1.29 3.8-3.31.69-1.33.62-2.62.44-3.53-6.08 1.36-26.52 5.22-42.5-4.63-23.99-14.79-23.91-51.88-4.35-70.81 6.44-6.23 13.93-9.47 18.86-11.16-16.75 19.35-21.29 41.08-11.64 54.33 2.12 2.91 6.41 7.44 15.03 10.53 6.77 1.44 12.97-.21 15.94-1.2-4.89 10.31-3.58 14.76-1.63 16.93 5.01 5.58 21.2 3.79 21.1 4.32Z" class="cls-22"/><path d="M906.89 1105.3c4.64-5.89 12.63-7.69 17.21-5.1 3.2 1.81 4.59 5.67 3.75 9.76M961.41 1156.79c7.62-1.67 13.94 2.02 14.61 6.99.47 3.47-1.84 7.4-5.69 10.09M925.32 1162.87c-3.21-5.77-.38-12.7 4.89-15.38 3.68-1.87 8.37-1.58 11.99.56M886.1 1153.25c-4.75-4.77-3.74-11.9.83-15.52 3.19-2.53 7.96-3.23 12.16-1.96M883.16 1130.99c-1.97-3.52-.24-7.76 2.98-9.4 2.25-1.14 5.11-.97 7.33.33" class="cls-12"/></g><g id="_облака" data-name="облака"><g id="_Слой_108" data-name="Слой 108"><path d="M813.56 701.01c-1.29-6.72 14.44-16.27 27.09-19.96 17.24-5.02 32.99-.4 51.33 4.99 11.27 3.31 20.27 7.12 26.38 9.98 6.15-4.64 13.02-5.73 17.11-2.85 3.94 2.77 5.47 9.33 3.56 13.54-2.92 6.44-14.27 8.3-62.02 4.99-60.52-4.19-63.05-8.61-63.45-10.69ZM796.46 646.12c-.12-2.04 4.54-5.2 26.38-9.98 1.85-5.1 4.86-10.43 9.98-14.26 28.25-21.11 95.93 21.91 92.67 32.79-1.22 4.09-21.49 2.97-62.02.71-30.51-1.7-66.67-3.71-67.01-9.27ZM931.9 669.67c-.05-1.26 1.78-3.22 10.34-6.18.72-3.16 1.9-6.46 3.91-8.82 11.07-13.07 37.6 13.56 36.32 20.3-.48 2.53-8.42 1.84-24.31.44-11.96-1.05-26.13-2.29-26.26-5.74ZM1059.49 697.19c-1.03-5.39 11.58-13.05 21.72-16 13.82-4.03 26.45-.32 41.15 4 9.04 2.65 16.25 5.71 21.15 8 4.93-3.72 10.43-4.59 13.72-2.29 3.16 2.22 4.39 7.48 2.86 10.86-2.34 5.16-11.44 6.65-49.72 4-48.52-3.36-50.55-6.91-50.87-8.57ZM1006.28 654.67c.89 2.27 3.84 3.7 40.4 5.7 9.48.52 17.27.86 22.46 1.07.16-6.25-3-12.01-8.2-14.85-5.89-3.22-11.81-1.3-12.83-.95-.64-1.54-4.92-11.49-14.26-13.78-15.09-3.71-30.34 15.76-27.56 22.81Z" class="cls-28"/></g></g><g id="_рамка_окна" data-name="рамка окна"><path d="M1175.7 1381.8V647.54c-153.51-38.97-307.01-77.94-460.51-116.91v614.5c153.51 78.89 307.01 157.78 460.51 236.67Z" style="fill:url(#_Безымянный_градиент_13);opacity:.18;stroke-width:0"/><path d="M832.82 559.86v547.49c-11.17 3.59-22.34 7.17-33.51 10.76-7.73 2.49-15.47 4.97-23.2 7.45-20.31 6.53-40.61 13.05-60.92 19.57v-614.5c27.13 6.75 54.26 13.49 81.39 20.22 12.08 3.01 24.16 6.01 36.24 9.01Z" class="cls-20"/><path d="M799.31 1118.11v.64c-7.73 2.27-15.47 4.55-23.2 6.81-20.31 5.97-40.61 11.93-60.92 17.9V530.63c27.13 6.75 54.26 13.49 81.39 20.22l2.73 567.26Z" class="cls-26"/><path d="m1195.67 1267.74-10.02 121.08-2.1 25.42c-161.59-86.06-323.17-172.12-484.75-258.18l24.93-9.06 109.09-39.65c120.95 53.46 241.9 106.93 362.85 160.39Z" class="cls-20"/><path d="m1185.65 1388.82-2.1 25.42c-161.59-86.06-323.17-172.12-484.75-258.18l24.93-9.06c153.97 80.61 307.95 161.22 461.92 241.82Z" class="cls-26"/><path d="M1184.26 1300.53c-1.43 27.56-2.85 55.13-4.28 82.69-153.27-79.13-306.53-158.26-459.8-237.39 27.07-9.65 54.14-19.31 81.21-28.96 127.62 61.22 255.25 122.44 382.87 183.66Z" style="opacity:.06;stroke-width:0"/><path d="M978.24 600.5c-.13 199.01-.25 398.02-.38 597.03 21.62 10.22 43.24 20.44 64.86 30.65l1.17-614.38c-21.88-4.44-43.77-8.87-65.65-13.31Z" class="cls-20"/><path d="M699.03 1150.83c44.59-14.5 89.19-28.99 133.78-43.49 115.13 51.68 230.26 103.37 345.39 155.05l.71 35.29c-126.53-59.64-253.07-119.29-379.6-178.93-.24-189.15-.48-378.3-.71-567.45l34.22 8.55v547.49c48.24 20.91 96.48 41.82 144.71 62.73.48-190.89.95-381.78 1.43-572.67l32.08 8.79c-.71 192.48-1.43 384.95-2.14 577.43 10.93 4.75 21.86 9.5 32.79 14.26.73-194.69 1.47-389.39 2.2-584.08" class="cls-3"/><path d="M715.19 1145.13c153.51 78.89 307.01 157.78 460.51 236.67V647.54c-153.51-38.97-307.01-77.94-460.51-116.91v614.5c-8.2 3.45-16.4 6.89-24.59 10.34 162.18 85.19 324.36 170.38 486.53 255.56" class="cls-3"/><g style="opacity:.69"><path d="m875.29 657.06 76.86 96.45M1076.32 936.51l76.86 96.45M902.16 753.19c13.24 16.62 26.48 33.23 39.73 49.85M1102.48 1046.54c13.24 16.62 26.48 33.23 39.73 49.85" class="cls-2"/></g></g></svg>