<svg width="22" height="21" viewBox="0 0 22 21" fill="none" xmlns="http://www.w3.org/2000/svg">
<path d="M7.42968 19.9626C7.15326 20.6565 6.36138 21.0021 5.70661 20.6426C4.40227 19.9266 3.25247 18.951 2.33081 17.7709C1.1307 16.2343 0.360549 14.4064 0.0992415 12.4743C-0.162067 10.5422 0.0948556 8.5753 0.843697 6.77513C1.59254 4.97497 2.80639 3.40618 4.36094 2.22943C5.91548 1.05269 7.75487 0.310264 9.69071 0.0781977C11.6266 -0.153868 13.5893 0.132762 15.3779 0.908734C17.1666 1.68471 18.7168 2.92214 19.8699 4.4943C20.7555 5.70167 21.3824 7.07314 21.7175 8.52287C21.8857 9.25062 21.3381 9.91896 20.5952 9.99665V9.99665C19.8523 10.0743 19.1979 9.52999 19.0007 8.80956C18.734 7.83548 18.2906 6.91452 17.6888 6.09405C16.8193 4.90848 15.6502 3.97533 14.3014 3.39017C12.9526 2.80501 11.4725 2.58886 10.0127 2.76386C8.55284 2.93887 7.16576 3.49873 5.99348 4.38611C4.82119 5.2735 3.90583 6.45652 3.34113 7.81403C2.77643 9.17153 2.58268 10.6547 2.77973 12.1117C2.97679 13.5688 3.55756 14.9472 4.46256 16.1059C5.08887 16.9078 5.8549 17.5846 6.72001 18.1057C7.35984 18.4911 7.7061 19.2687 7.42968 19.9626V19.9626Z" fill="url(#paint0_linear_638_340)"/>
<defs>
<linearGradient id="paint0_linear_638_340" x1="13" y1="11" x2="11" y2="22" gradientUnits="userSpaceOnUse">
<stop stop-color="white"/>
<stop offset="1" stop-color="#4796FD" stop-opacity="0"/>
</linearGradient>
</defs>
</svg>