<svg width="24" height="24" viewBox="0 0 24 24" fill="none" xmlns="http://www.w3.org/2000/svg">
<path d="M22.7155 9.90911L12.1534 21.8368C11.9705 22.0409 11.7895 22.2486 11.6066 22.4545C8.15942 18.146 4.71228 13.8376 1.26514 9.52918C2.41544 7.3132 3.56386 5.09348 4.71228 2.87563C7.13547 2.43206 9.56242 1.99036 11.9894 1.54492C12.4401 1.63289 12.8926 1.72085 13.3433 1.80507C15.1914 2.16255 17.0356 2.51815 18.8837 2.87563C20.1622 5.22075 21.4389 7.56399 22.7155 9.90911Z" fill="#46C0F6" fill-opacity="0.73"/>
<path opacity="0.78" d="M22.717 9.90891L12.1549 21.8366C11.8324 21.6364 11.51 21.438 11.1875 21.2377C12.9752 17.867 14.7629 14.4962 16.5506 11.1255C14.942 8.1103 13.3335 5.09328 11.7249 2.07812C14.1123 2.34389 16.4996 2.60966 18.887 2.8773C20.1655 5.22242 21.4422 7.56567 22.7188 9.91079L22.717 9.90891Z" fill="white"/>
<path opacity="0.11" d="M0.997559 10.4426L11.5596 22.3703C11.8821 22.2599 12.2046 22.1495 12.527 22.0372C10.9185 18.0451 9.30993 14.0529 7.70139 10.0627C9.13078 7.57905 10.5621 5.09543 11.9915 2.61182C9.60411 2.87758 7.21675 3.14336 4.8294 3.41099C3.55086 5.75611 2.27421 8.09936 0.997559 10.4445V10.4426Z" fill="#1D1582"/>
<path d="M22.7155 9.90911C19.0515 14.0397 15.3875 18.1704 11.7216 22.3029C9.96974 20.2591 8.20657 18.1554 6.43586 15.9918C4.65383 13.8151 2.93025 11.6609 1.26514 9.52918C2.41544 7.3132 3.56386 5.09348 4.71228 2.87563C7.13547 2.43206 9.56242 1.99036 11.9894 1.54492C12.4401 1.63289 12.8926 1.72085 13.3433 1.80507C15.1914 2.16255 17.0356 2.51815 18.8837 2.87563C20.1622 5.22075 21.4389 7.56399 22.7155 9.90911Z" stroke="#208CCB" stroke-width="2.28565" stroke-linecap="round" stroke-linejoin="round"/>
<path d="M3.14258 9.2627C4.66249 9.79423 6.18052 10.3276 7.70043 10.8592H16.0128C17.7119 10.5036 19.409 10.1498 21.1081 9.79424" stroke="#208CCB" stroke-width="2.28565" stroke-linecap="round" stroke-linejoin="round"/>
</svg>
