<svg xmlns="http://www.w3.org/2000/svg" width="47" height="46" fill="none"><path fill="#BCEAFF" d="M43.994 19.296 23.571 42.534c-.354.397-.704.802-1.057 1.203L2.517 18.555c2.224-4.317 4.445-8.642 6.666-12.962C13.868 4.728 18.56 3.868 23.253 3c.872.171 1.747.343 2.619.507l10.713 2.086c2.472 4.568 4.94 9.134 7.41 13.703Z"/><path fill="#fff" d="M43.996 19.296 23.573 42.534c-.623-.39-1.247-.777-1.87-1.167l10.37-19.701-9.331-17.627c4.616.518 9.232 1.036 13.849 1.557C39.063 10.166 41.53 14.73 44 19.3l-.004-.003Z" opacity=".78"/><path fill="#605D86" d="m2 20.334 20.423 23.239c.624-.216 1.247-.43 1.87-.65l-9.33-23.329c2.764-4.839 5.531-9.677 8.295-14.516-4.616.518-9.232 1.036-13.849 1.557C6.937 11.204 4.47 15.77 2 20.338v-.004Z" opacity=".11"/><path stroke="#9BBBCF" stroke-linecap="round" stroke-linejoin="round" stroke-width="4.288" d="M43.994 19.296 22.736 43.442a703.005 703.005 0 0 1-10.22-12.296 702.44 702.44 0 0 1-9.999-12.59c2.224-4.318 4.445-8.643 6.666-12.963C13.868 4.728 18.56 3.868 23.253 3c.872.171 1.747.343 2.619.507l10.713 2.086c2.472 4.568 4.94 9.134 7.41 13.703Z"/><path stroke="#9BBBCF" stroke-linecap="round" stroke-linejoin="round" stroke-width="4.288" d="M6.15 18.037c2.94 1.036 5.875 2.075 8.814 3.11h16.073l9.853-2.074"/></svg>