<svg xmlns="http://www.w3.org/2000/svg" width="29" height="43" fill="none"><path fill="#FFDE00" d="M15.72 17.72c3.527 1.142 7.05 2.285 10.575 3.431A64139.686 64139.686 0 0 0 2.573 40.586c1.251-2.737 2.502-5.47 3.757-8.206 1.318-2.887 2.639-5.774 3.96-8.657-2.765-.098-5.526-.192-8.29-.286C5.047 16.29 8.098 9.143 11.146 2l10.159 1.342c1.663.217 3.327.437 4.99.657-3.526 4.575-7.048 9.146-10.575 13.72Z"/><path fill="#fff" d="M15.72 17.72c3.527 1.142 7.05 2.285 10.576 3.431A64139.436 64139.436 0 0 0 2.573 40.585c.046-.566.266-2.533 1.877-4.102a6.24 6.24 0 0 1 2.534-1.49l12.231-12.58a80.906 80.906 0 0 1-3.844-1.398 81.344 81.344 0 0 1-4.893-2.097l9.786-15.726a963.276 963.276 0 0 0 6.032.807L15.72 17.719Z" opacity=".81"/><path stroke="#ED6D00" stroke-linecap="round" stroke-linejoin="round" stroke-width="3.495" d="M11.146 2C8.098 9.147 5.047 16.29 2 23.437c2.764.094 5.525.192 8.29.286-2.573 5.62-5.145 11.243-7.717 16.863L26.296 21.15 15.72 17.723l10.575-13.72L11.146 2Z"/></svg>