<svg xmlns="http://www.w3.org/2000/svg" width="29" height="20" fill="none"><path fill="#fff" d="M1.703 10.24c2.138 5.185 7.134 8.637 12.696 8.775 5.375.135 10.39-2.847 12.882-7.655a19.28 19.28 0 0 0-4.854-2.8c-3.517-1.39-6.508-1.354-8.588-1.307-5.146.114-9.34 1.637-12.136 2.987Z"/><path fill="#000" d="M14.585 15.468a5.975 5.975 0 1 0 0-11.949 5.975 5.975 0 0 0 0 11.95Z"/><path fill="#00C7C7" d="M2.077 10.614a23.953 23.953 0 0 1 12.51-3.547c2.12 0 7.215.283 12.508 3.547a13.536 13.536 0 0 0-12.509-8.402 13.536 13.536 0 0 0-12.509 8.402Z"/><path fill="#2AFCEF" d="M11.97 2.772c1.444-.022 5.114.122 8.589 2.614a13.871 13.871 0 0 1 3.547 3.734l3.174 1.867c-.08-.579-.816-5.274-5.227-7.841-4.804-2.795-9.673-.57-10.082-.374Z"/><path stroke="#008A9D" stroke-linecap="round" stroke-linejoin="round" stroke-width="1.867" d="M1.656 10.965A13.683 13.683 0 0 1 14.54 1.839a13.68 13.68 0 0 1 12.882 9.126 14.35 14.35 0 0 1-12.882 8.05 14.35 14.35 0 0 1-12.883-8.05Z"/><path stroke="#008A9D" stroke-linecap="round" stroke-linejoin="round" stroke-width="1.867" d="M1.889 10.8C3.73 9.675 8.287 7.23 14.584 7.253a24.297 24.297 0 0 1 12.51 3.547"/><path fill="#fff" d="M10.945 11.174a1.027 1.027 0 1 0 0-2.054 1.027 1.027 0 0 0 0 2.054ZM12.999 9.68a.467.467 0 1 0 0-.933.467.467 0 0 0 0 .933Z"/></svg>