<svg width="98" height="87" viewBox="0 0 98 87" fill="none" xmlns="http://www.w3.org/2000/svg">
<g clip-path="url(#clip0_542_294)">
<path d="M24.4755 53.5391C25.3259 50.178 22.6099 46.5916 18.409 45.5286C14.208 44.4656 10.1131 46.3285 9.26259 49.6896C8.41211 53.0507 11.1282 56.6371 15.3291 57.7001C19.53 58.7631 23.625 56.9001 24.4755 53.5391Z" fill="#25D320" stroke="#1EAC24" stroke-width="2.42565" stroke-miterlimit="10"/>
<path d="M24.5424 52.7446C25.3928 49.3836 22.6768 45.7971 18.4759 44.7341C14.2749 43.6711 10.18 45.5341 9.32949 48.8952C8.479 52.2563 11.1951 55.8427 15.396 56.9057C19.5969 57.9687 23.6919 56.1057 24.5424 52.7446Z" fill="#72F177" stroke="#1EAC24" stroke-width="2.42565" stroke-miterlimit="10"/>
<path d="M22.0226 52.0528C22.5831 49.8381 20.7661 47.4679 17.9643 46.759C15.1625 46.05 12.437 47.2707 11.8765 49.4855C11.3161 51.7002 13.1331 54.0703 15.9349 54.7793C18.7366 55.4882 21.4622 54.2676 22.0226 52.0528Z" fill="#25D320"/>
<path d="M45.4681 47.3704C46.0828 44.5246 43.9062 41.6397 40.6064 40.9268C37.3066 40.214 34.1332 41.9432 33.5184 44.789C32.9036 47.6349 35.0803 50.5198 38.3801 51.2326C41.6799 51.9454 44.8533 50.2163 45.4681 47.3704Z" fill="#25D320" stroke="#1EAC24" stroke-width="1.95993" stroke-miterlimit="10"/>
<path d="M45.5066 46.7069C46.1214 43.861 43.9448 40.9761 40.645 40.2633C37.3452 39.5504 34.1718 41.2796 33.557 44.1254C32.9422 46.9713 35.1189 49.8562 38.4187 50.569C41.7185 51.2819 44.8919 49.5527 45.5066 46.7069Z" fill="#72F177" stroke="#1EAC24" stroke-width="1.95993" stroke-miterlimit="10"/>
<path d="M43.5215 46.2283C43.9262 44.3549 42.4709 42.451 40.271 41.9758C38.0711 41.5006 35.9597 42.634 35.555 44.5074C35.1503 46.3807 36.6056 48.2847 38.8055 48.7599C41.0053 49.2351 43.1168 48.1017 43.5215 46.2283Z" fill="#25D320"/>
<path d="M35.6334 58.4816C38.421 55.8766 38.9567 51.9198 36.8298 49.6438C34.7029 47.3677 30.7189 47.6344 27.9312 50.2394C25.1436 52.8443 24.608 56.8011 26.7349 59.0772C28.8618 61.3532 32.8458 61.0866 35.6334 58.4816Z" fill="#25D320" stroke="#1EAC24" stroke-width="2.15721" stroke-miterlimit="10"/>
<path d="M35.0695 58.0422C37.8571 55.4372 38.3927 51.4804 36.2658 49.2043C34.1389 46.9283 30.1549 47.1949 27.3673 49.7999C24.5796 52.4049 24.044 56.3617 26.1709 58.6377C28.2978 60.9138 32.2818 60.6471 35.0695 58.0422Z" fill="#72F177" stroke="#1EAC24" stroke-width="2.15721" stroke-miterlimit="10"/>
<path d="M33.7215 56.6024C35.5813 54.8646 35.9529 52.2401 34.5516 50.7406C33.1504 49.2411 30.5068 49.4343 28.6471 51.1722C26.7874 52.91 26.4157 55.5344 27.817 57.034C29.2183 58.5335 31.8618 58.3403 33.7215 56.6024Z" fill="#25D320"/>
<path d="M37.5121 41.7154C41.5722 41.3352 44.5979 38.1897 44.2701 34.6898C43.9424 31.1898 40.3853 28.6608 36.3251 29.041C32.265 29.4213 29.2393 32.5667 29.5671 36.0667C29.8949 39.5666 33.4519 42.0956 37.5121 41.7154Z" fill="#25D320" stroke="#1EAC24" stroke-width="2.36743" stroke-miterlimit="10"/>
<path d="M37.3172 40.9317C41.3774 40.5515 44.4031 37.406 44.0753 33.9061C43.7475 30.4062 40.1905 27.8771 36.1303 28.2574C32.0702 28.6376 29.0445 31.7831 29.3723 35.283C29.7 38.7829 33.2571 41.3119 37.3172 40.9317Z" fill="#72F177" stroke="#1EAC24" stroke-width="2.36743" stroke-miterlimit="10"/>
<path d="M37.1095 38.7168C39.8163 38.4633 41.8354 36.3879 41.6194 34.0813C41.4034 31.7747 39.034 30.1103 36.3273 30.3638C33.6205 30.6173 31.6014 32.6926 31.8174 34.9992C32.0334 37.3058 34.4028 38.9702 37.1095 38.7168Z" fill="#25D320"/>
<path d="M81.3478 67.0916C82.9475 64.4791 81.4707 60.663 78.0494 58.568C74.628 56.473 70.5577 56.8926 68.958 59.505C67.3583 62.1175 68.8351 65.9337 72.2564 68.0286C75.6778 70.1236 79.7481 69.7041 81.3478 67.0916Z" fill="#25D320" stroke="#1EAC24" stroke-width="2.19279" stroke-miterlimit="10"/>
<path d="M81.6056 66.4378C83.2053 63.8253 81.7285 60.0092 78.3072 57.9142C74.8858 55.8192 70.8155 56.2388 69.2158 58.8512C67.6161 61.4637 69.0929 65.2799 72.5143 67.3748C75.9356 69.4698 80.006 69.0503 81.6056 66.4378Z" fill="#72F177" stroke="#1EAC24" stroke-width="2.19279" stroke-miterlimit="10"/>
<path d="M79.5669 65.1332C80.6209 63.4118 79.6267 60.8844 77.3463 59.4881C75.0659 58.0918 72.3629 58.3553 71.3089 60.0766C70.2548 61.7979 71.249 64.3253 73.5294 65.7216C75.8098 67.118 78.5129 66.8545 79.5669 65.1332Z" fill="#25D320"/>
<path d="M65.7889 48.2803C69.3641 47.2632 71.5516 43.9402 70.6748 40.858C69.798 37.7759 66.1889 36.1018 62.6137 37.1189C59.0384 38.1359 56.8509 41.459 57.7277 44.5412C58.6046 47.6233 62.2136 49.2974 65.7889 48.2803Z" fill="#25D320" stroke="#1EAC24" stroke-width="2.15721" stroke-miterlimit="10"/>
<path d="M65.4827 47.6133C69.0579 46.5962 71.2454 43.2732 70.3686 40.191C69.4918 37.1089 65.8827 35.4348 62.3075 36.4519C58.7323 37.469 56.5448 40.792 57.4216 43.8742C58.2984 46.9563 61.9075 48.6304 65.4827 47.6133Z" fill="#72F177" stroke="#1EAC24" stroke-width="2.15721" stroke-miterlimit="10"/>
<path d="M64.9283 45.6602C67.313 44.9818 68.7778 42.7857 68.2001 40.755C67.6224 38.7243 65.2209 37.628 62.8363 38.3064C60.4517 38.9847 58.9869 41.1809 59.5646 43.2116C60.1423 45.2423 62.5437 46.3386 64.9283 45.6602Z" fill="#25D320"/>
<path d="M72.4554 34.5697C73.363 31.5579 71.2663 28.2629 67.7723 27.21C64.2782 26.1571 60.7101 27.745 59.8025 30.7568C58.8949 33.7685 60.9916 37.0635 64.4856 38.1164C67.9796 39.1693 71.5478 37.5814 72.4554 34.5697Z" fill="#25D320" stroke="#1EAC24" stroke-width="2.1184" stroke-miterlimit="10"/>
<path d="M72.557 33.8573C73.4645 30.8455 71.3678 27.5505 67.8738 26.4976C64.3798 25.4447 60.8116 27.0326 59.904 30.0444C58.9965 33.0561 61.0932 36.3511 64.5872 37.404C68.0812 38.4569 71.6494 36.869 72.557 33.8573Z" fill="#72F177" stroke="#1EAC24" stroke-width="2.1184" stroke-miterlimit="10"/>
<path d="M70.4601 33.1725C71.058 31.1886 69.6543 29.0113 67.325 28.3094C64.9956 27.6075 62.6227 28.6467 62.0249 30.6305C61.427 32.6144 62.8307 34.7917 65.16 35.4936C67.4894 36.1956 69.8623 35.1564 70.4601 33.1725Z" fill="#25D320"/>
<path d="M39.4835 69.828C41.3215 67.9629 41.0582 64.7231 38.8953 62.5918C36.7325 60.4604 33.4892 60.2446 31.6512 62.1097C29.8132 63.9748 30.0766 67.2146 32.2394 69.346C34.4022 71.4773 37.6456 71.6932 39.4835 69.828Z" fill="#25D320" stroke="#1EAC24" stroke-width="1.76264" stroke-miterlimit="10"/>
<path d="M39.8307 69.3393C41.6687 67.4741 41.4054 64.2343 39.2425 62.103C37.0797 59.9716 33.8364 59.7558 31.9984 61.6209C30.1604 63.4861 30.4237 66.7259 32.5866 68.8572C34.7494 70.9886 37.9927 71.2044 39.8307 69.3393Z" fill="#72F177" stroke="#1EAC24" stroke-width="1.76264" stroke-miterlimit="10"/>
<path d="M38.5557 68.0273C39.7668 66.7983 39.5791 64.6494 38.1363 63.2277C36.6936 61.8059 34.5422 61.6497 33.3311 62.8787C32.12 64.1077 32.3078 66.2566 33.7505 67.6783C35.1932 69.1 37.3446 69.2563 38.5557 68.0273Z" fill="#25D320"/>
<path d="M31.9641 47.5507C34.3608 43.7829 32.7606 38.4747 28.3899 35.6945C24.0192 32.9144 18.5331 33.7151 16.1365 37.4829C13.7398 41.2507 15.34 46.5589 19.7107 49.3391C24.0814 52.1192 29.5674 51.3186 31.9641 47.5507Z" fill="#25D320" stroke="#1EAC24" stroke-width="3.00781" stroke-miterlimit="10"/>
<path d="M32.3753 46.6103C34.7719 42.8424 33.1717 37.5343 28.801 34.7541C24.4303 31.974 18.9443 32.7746 16.5476 36.5425C14.1509 40.3103 15.7512 45.6185 20.1218 48.3987C24.4925 51.1788 29.9786 50.3781 32.3753 46.6103Z" fill="#72F177" stroke="#1EAC24" stroke-width="3.00781" stroke-miterlimit="10"/>
<path d="M29.7766 44.8759C31.3556 42.3937 30.2726 38.8784 27.3578 37.0243C24.443 35.1702 20.8002 35.6795 19.2212 38.1617C17.6423 40.644 18.7252 44.1593 21.64 46.0133C24.5548 47.8674 28.1977 47.3582 29.7766 44.8759Z" fill="#25D320"/>
<path d="M94.0395 65.1366C95.1783 62.1261 93.2709 58.6148 89.7792 57.294C86.2875 55.9732 82.5338 57.3431 81.395 60.3536C80.2562 63.3642 82.1636 66.8754 85.6553 68.1962C89.147 69.517 92.9007 68.1472 94.0395 65.1366Z" fill="#25D320" stroke="#1EAC24" stroke-width="2.16691" stroke-miterlimit="10"/>
<path d="M94.1948 64.4164C95.3336 61.4059 93.4262 57.8946 89.9345 56.5738C86.4428 55.253 82.689 56.6229 81.5502 59.6334C80.4115 62.6439 82.3189 66.1552 85.8106 67.476C89.3023 68.7968 93.056 67.427 94.1948 64.4164Z" fill="#72F177" stroke="#1EAC24" stroke-width="2.16691" stroke-miterlimit="10"/>
<path d="M92.105 63.5717C92.8551 61.5886 91.5753 59.2668 89.2463 58.3859C86.9174 57.5049 84.4214 58.3984 83.6712 60.3815C82.9211 62.3646 84.2009 64.6863 86.5299 65.5673C88.8588 66.4482 91.3548 65.5548 92.105 63.5717Z" fill="#25D320"/>
<path d="M54.7438 43.9031C58.6541 41.5499 60.1791 36.909 58.1501 33.5375C56.121 30.166 51.3063 29.3405 47.396 31.6937C43.4858 34.0469 41.9608 38.6878 43.9898 42.0593C46.0188 45.4308 50.8336 46.2563 54.7438 43.9031Z" fill="#25D320" stroke="#1EAC24" stroke-width="2.64881" stroke-miterlimit="10"/>
<path d="M54.1686 43.2093C58.0789 40.856 59.6039 36.2152 57.5749 32.8436C55.5458 29.4721 50.7311 28.6466 46.8209 30.9998C42.9106 33.3531 41.3856 37.9939 43.4146 41.3654C45.4436 44.737 50.2584 45.5625 54.1686 43.2093Z" fill="#72F177" stroke="#1EAC24" stroke-width="2.64881" stroke-miterlimit="10"/>
<path d="M52.8833 41.0755C55.4911 39.506 56.5218 36.4336 55.1854 34.2129C53.849 31.9923 50.6516 31.4643 48.0437 33.0338C45.4359 34.6032 44.4052 37.6757 45.7416 39.8963C47.078 42.117 50.2754 42.6449 52.8833 41.0755Z" fill="#25D320"/>
<path d="M80.6227 44.7732C81.3957 40.4423 79.3653 36.4571 76.0876 35.8721C72.81 35.287 69.5262 38.3237 68.7532 42.6547C67.9802 46.9856 70.0106 50.9708 73.2883 51.5559C76.5659 52.1409 79.8497 49.1042 80.6227 44.7732Z" fill="#25D320" stroke="#1EAC24" stroke-width="2.39331" stroke-miterlimit="10"/>
<path d="M81.3874 44.7757C82.1604 40.4447 80.13 36.4595 76.8523 35.8745C73.5746 35.2895 70.2909 38.3262 69.5178 42.6571C68.7448 46.9881 70.7752 50.9733 74.0529 51.5583C77.3306 52.1433 80.6143 49.1066 81.3874 44.7757Z" fill="#72F177" stroke="#1EAC24" stroke-width="2.39331" stroke-miterlimit="10"/>
<path d="M79.4139 44.4192C79.9292 41.5319 78.5965 38.8789 76.4372 38.4934C74.2779 38.108 72.1096 40.1362 71.5943 43.0235C71.0789 45.9108 72.4116 48.5639 74.5709 48.9493C76.7303 49.3347 78.8985 47.3065 79.4139 44.4192Z" fill="#25D320"/>
<path d="M92.5452 52.2789C92.6055 48.6034 89.1985 45.5671 84.9354 45.4971C80.6723 45.4272 77.1675 48.3501 77.1072 52.0256C77.0469 55.7011 80.454 58.7374 84.717 58.8073C88.9801 58.8773 92.4849 55.9544 92.5452 52.2789Z" fill="#25D320" stroke="#1EAC24" stroke-width="2.4774" stroke-miterlimit="10"/>
<path d="M92.4339 51.4434C92.4942 47.7679 89.0872 44.7316 84.8241 44.6617C80.561 44.5917 77.0562 47.5146 76.9959 51.1901C76.9356 54.8656 80.3426 57.9019 84.6057 57.9719C88.8688 58.0418 92.3736 55.1189 92.4339 51.4434Z" fill="#72F177" stroke="#1EAC24" stroke-width="2.4774" stroke-miterlimit="10"/>
<path d="M89.8634 51.3421C89.9031 48.9203 87.6304 46.9192 84.7872 46.8726C81.9439 46.8259 79.6068 48.7514 79.5671 51.1731C79.5273 53.5949 81.8 55.5959 84.6433 55.6426C87.4865 55.6892 89.8236 53.7638 89.8634 51.3421Z" fill="#25D320"/>
<path d="M53.3256 5.52119C53.3094 5.50502 53.2933 5.49532 53.2739 5.48561C52.6044 5.11692 51.1102 7.29677 49.81 6.82457C48.3643 6.30063 48.5293 2.99528 47.8566 2.96941C47.1742 2.94353 47.2356 5.90929 45.2078 7.31941C43.5486 8.47402 41.4884 7.88216 41.3979 8.4061C41.2717 9.12086 45.1819 9.7774 45.2789 11.3169C45.3307 12.1222 44.3281 13.0148 43.3384 13.2574C41.5014 13.707 40.0783 11.8149 39.4574 12.2871C38.8461 12.7529 39.6223 15.0686 40.751 16.815C42.1967 19.0531 44.1599 20.2788 45.4406 20.916C46.0487 23.3999 46.647 26.9057 46.6987 31.5759C46.6987 31.715 46.6987 31.8476 46.702 31.9802C46.7214 38.3322 45.515 42.0547 46.8895 44.7909C47.0965 45.2016 47.3617 45.5929 47.6981 45.9681C48.9239 47.3232 50.9614 48.3129 52.9407 48.0412C54.7098 47.7987 55.9777 46.615 56.7506 45.6544C57.1226 45.1919 57.3813 44.7779 57.5236 44.5515C58.7655 42.5593 59.7293 39.3024 56.9447 28.953C56.9382 28.9336 56.935 28.9109 56.9285 28.8915C55.8839 25.0105 54.2021 19.729 51.4368 13.6584C53.5908 7.89833 53.8107 5.91253 53.3288 5.51796L53.3256 5.52119Z" fill="#21B83A"/>
<path opacity="0.13" d="M45.6018 12.2899C44.8482 12.5065 44.0914 12.72 43.3379 12.9367C43.1859 12.9367 42.9627 12.9367 42.691 12.9367C40.7085 12.9529 39.7156 12.9626 39.4568 13.2601C38.8197 13.991 40.0843 16.1871 41.0739 17.4646C42.5002 19.3016 44.2208 20.3398 45.4401 20.9187C46.0481 23.3961 46.6465 26.9052 46.6982 31.5786C46.6982 31.7015 46.6982 31.8018 46.7014 31.9829C46.7694 41.1454 46.2195 42.6234 47.3839 44.8097C47.7817 45.5568 48.7713 47.4165 50.7151 47.8434C53.1019 48.3706 55.1815 46.3589 55.4532 46.084C53.5806 46.5239 52.5036 46.1584 51.8794 45.7703C48.8813 43.9139 50.4305 38.0082 49.6413 29.3179C49.2435 24.9226 48.3929 21.4265 47.7914 19.2951C46.1387 19.1302 44.7512 17.9723 44.3178 16.3973C43.9071 14.9096 44.4084 13.2989 45.605 12.2866L45.6018 12.2899Z" fill="black"/>
<path d="M53.325 5.52081C52.0896 8.32163 50.8541 11.1224 49.6187 13.9233C51.239 18.6226 52.8561 23.3186 54.4732 28.0147C54.4732 28.0147 55.5114 31.113 56.4913 36.4204C56.9344 38.8234 57.0023 40.3855 56.6789 42.1934C56.4169 43.6553 55.9577 44.8164 55.589 45.5893C55.9965 45.6281 56.3814 45.6508 56.7468 45.654C57.1188 45.1915 57.3775 44.7775 57.5198 44.5511C58.7617 42.5589 59.7255 39.302 56.9409 28.9526C56.9344 28.9332 56.9312 28.9106 56.9247 28.8911C55.8801 25.0101 54.1983 19.7287 51.433 13.6581C53.587 7.89795 53.8069 5.91215 53.325 5.51758V5.52081Z" fill="#3BCE51"/>
<path d="M56.9251 28.8945C56.4885 29.3894 55.9128 29.9489 55.1754 30.4631C54.3863 31.0162 53.416 31.5142 52.2517 31.8215C51.3914 32.0479 50.5731 32.132 49.826 32.1255C48.5421 32.119 47.4586 31.8441 46.6986 31.5789C46.6986 31.7018 46.6986 31.8021 46.7018 31.9832C46.7244 39.2925 45.1235 43.1185 47.6947 45.9711C48.2704 46.6082 49.0207 47.1613 49.8649 47.5429C50.046 47.6238 50.2271 47.6982 50.4179 47.7629C51.2232 48.0442 52.0868 48.1607 52.9406 48.0442C54.7097 47.8017 55.9775 46.618 56.7505 45.6574C56.7537 45.6509 56.7602 45.6445 56.7666 45.638C56.799 45.5992 56.8313 45.5571 56.8637 45.5151C56.8734 45.5054 56.8798 45.4957 56.8863 45.486C56.9154 45.4472 56.9445 45.4116 56.9704 45.3728C57.0027 45.3307 57.0318 45.2887 57.0642 45.2466C57.1224 45.1658 57.1741 45.0914 57.2227 45.0203C57.255 44.9717 57.2841 44.9265 57.3132 44.8812C57.3294 44.8553 57.3488 44.8262 57.365 44.8003C57.3844 44.768 57.4038 44.7357 57.4232 44.7098C57.4588 44.6516 57.4911 44.5998 57.5202 44.5545C58.7621 42.5623 59.7259 39.3054 56.9413 28.956C56.9348 28.9366 56.9316 28.9139 56.9251 28.8945Z" fill="#0630FF"/>
<path d="M49.8261 32.1286C48.5421 32.1221 47.4587 31.8472 46.6987 31.582C46.6987 31.7049 46.6987 31.8052 46.7019 31.9863C46.7698 41.1488 46.22 42.6268 47.3843 44.8131C47.7207 45.4438 48.4742 46.8572 49.8649 47.546C50.0396 47.6334 50.2207 47.7078 50.418 47.766C50.515 47.7951 50.6153 47.8242 50.7188 47.8468C53.1056 48.374 55.182 46.3591 55.4536 46.0907C53.581 46.5305 52.5073 46.165 51.8766 45.7769C49.2149 44.1275 50.1398 39.2827 49.8261 32.1318V32.1286Z" fill="#072BCE"/>
<path d="M56.925 28.8945C56.4884 29.3894 55.9127 29.9489 55.1753 30.4631C55.5505 31.8894 56.0291 33.9075 56.4916 36.4238C56.9347 38.8268 57.0026 40.3889 56.6792 42.1968C56.4172 43.6587 55.958 44.8197 55.5893 45.5927C55.9968 45.6315 56.3817 45.6542 56.7471 45.6574C56.7503 45.6509 56.7568 45.6445 56.7633 45.638C56.7956 45.5992 56.828 45.5571 56.8603 45.5151C56.87 45.5054 56.8765 45.4957 56.883 45.486C56.9121 45.4472 56.9412 45.4116 56.967 45.3728C56.9994 45.3307 57.0285 45.2887 57.0608 45.2466C57.119 45.1658 57.1708 45.0914 57.2193 45.0203C57.2516 44.9717 57.2808 44.9265 57.3099 44.8812C57.326 44.8553 57.3454 44.8262 57.3616 44.8003C57.381 44.768 57.4004 44.7357 57.4198 44.7098C57.4554 44.6516 57.4877 44.5998 57.5169 44.5545C58.7588 42.5623 59.7226 39.3054 56.9379 28.956C56.9315 28.9366 56.9282 28.9139 56.9218 28.8945H56.925Z" fill="#064AFF"/>
<path d="M47.6947 45.9711C48.9204 47.3295 50.9547 48.3159 52.9373 48.0442C55.5667 47.6852 57.0835 45.2499 57.5202 44.5513C58.7621 42.559 59.7259 39.3022 56.9412 28.9527C55.8966 25.0652 54.2116 19.7611 51.4334 13.6582C53.6618 7.70079 53.8202 5.77967 53.2737 5.48212C52.5589 5.09079 50.8901 7.34502 49.8098 6.82108C48.5388 6.20658 49.2988 2.33525 48.8363 2.26086C48.3674 2.18324 48.1442 6.26157 45.9256 7.11216C44.7095 7.57789 43.846 6.71112 42.3679 7.43558C41.375 7.92071 40.5438 8.91038 40.7508 9.3761C41.0775 10.107 43.6843 8.89097 44.6319 10.0229C45.3046 10.8283 45.007 12.6621 43.985 13.2571C43.2509 13.6841 42.3324 13.3606 42.0445 13.2571C40.6215 12.7526 40.2301 11.5107 39.7806 11.64C39.2825 11.7823 39.1402 13.4803 39.4572 14.8742C40.2237 18.254 43.7554 20.1525 45.4404 20.9157C46.4818 25.5956 46.6921 29.4055 46.7018 31.9832C46.7244 39.2957 45.1235 43.1218 47.6979 45.9711H47.6947Z" stroke="#007537" stroke-width="1.8532" stroke-linecap="round" stroke-linejoin="round"/>
<path d="M56.9251 28.8943C56.0195 29.9227 54.5027 31.2261 52.2549 31.8212C49.9198 32.4389 47.9049 31.9991 46.6986 31.5786C46.6986 31.7177 46.6986 31.8503 46.7018 31.9829C46.7244 39.2922 45.1235 43.1183 47.6947 45.9708C48.9205 47.326 50.958 48.3156 52.9373 48.044C55.5635 47.685 57.0836 45.2496 57.517 44.551C58.7589 42.5588 59.7227 39.3019 56.9381 28.9525C56.9316 28.9331 56.9316 28.9137 56.9251 28.8943Z" stroke="#0000C1" stroke-width="1.8532" stroke-miterlimit="10"/>
<path d="M58.695 53.8296C60.3107 50.8451 58.814 46.9064 55.352 45.0321C51.89 43.1579 47.7737 44.0579 46.158 47.0424C44.5422 50.0269 46.0389 53.9657 49.5009 55.8399C52.9629 57.7141 57.0793 56.8141 58.695 53.8296Z" fill="#25D320" stroke="#1EAC24" stroke-width="2.28658" stroke-miterlimit="10"/>
<path d="M58.9582 53.1021C60.5739 50.1176 59.0772 46.1788 55.6152 44.3046C52.1532 42.4303 48.0369 43.3304 46.4211 46.3149C44.8054 49.2993 46.3021 53.2381 49.7641 55.1124C53.2261 56.9866 57.3424 56.0866 58.9582 53.1021Z" fill="#72F177" stroke="#1EAC24" stroke-width="2.28658" stroke-miterlimit="10"/>
<path d="M56.8951 51.923C57.9597 49.9564 56.951 47.3488 54.6419 46.0987C52.3329 44.8486 49.5979 45.4295 48.5332 47.3961C47.4686 49.3628 48.4773 51.9704 50.7864 53.2205C53.0954 54.4705 55.8304 53.8896 56.8951 51.923Z" fill="#25D320"/>
<path d="M69.2237 62.3249C73.7199 61.4077 76.7239 57.523 75.9335 53.6481C75.143 49.7733 70.8574 47.3757 66.3612 48.2929C61.8651 49.2101 58.861 53.0948 59.6515 56.9696C60.4419 60.8445 64.7276 63.2421 69.2237 62.3249Z" fill="#25D320" stroke="#1EAC24" stroke-width="2.66498" stroke-miterlimit="10"/>
<path d="M68.9054 61.4734C73.4015 60.5561 76.4056 56.6714 75.6151 52.7966C74.8246 48.9217 70.539 46.5241 66.0429 47.4413C61.5467 48.3585 58.5426 52.2432 59.3331 56.1181C60.1236 59.9929 64.4092 62.3906 68.9054 61.4734Z" fill="#72F177" stroke="#1EAC24" stroke-width="2.66498" stroke-miterlimit="10"/>
<path d="M68.4051 59.0199C71.4031 58.4084 73.4112 55.8426 72.8903 53.2891C72.3694 50.7356 69.5167 49.1614 66.5187 49.773C63.5207 50.3846 61.5126 52.9504 62.0335 55.5038C62.5544 58.0573 65.4071 59.6315 68.4051 59.0199Z" fill="#25D320"/>
<path d="M49.4518 57.2762C50.0775 53.9261 47.4349 50.6219 43.5492 49.8961C39.6635 49.1703 36.0063 51.2978 35.3806 54.6479C34.7548 57.9981 37.3975 61.3022 41.2832 62.028C45.1688 62.7538 48.826 60.6263 49.4518 57.2762Z" fill="#25D320" stroke="#1EAC24" stroke-width="2.29628" stroke-miterlimit="10"/>
<path d="M49.4757 56.4954C50.1015 53.1453 47.4588 49.8411 43.5731 49.1153C39.6875 48.3896 36.0303 50.517 35.4045 53.8672C34.7788 57.2173 37.4214 60.5215 41.3071 61.2472C45.1927 61.973 48.85 59.8456 49.4757 56.4954Z" fill="#72F177" stroke="#1EAC24" stroke-width="2.29628" stroke-miterlimit="10"/>
<path d="M47.1393 56.0026C47.5515 53.7955 45.7862 51.6142 43.1964 51.1304C40.6065 50.6467 38.1728 52.0437 37.7606 54.2508C37.3484 56.4579 39.1137 58.6392 41.7035 59.123C44.2934 59.6067 46.727 58.2097 47.1393 56.0026Z" fill="#25D320"/>
<path d="M68.2986 66.1555C69.5487 62.496 67.1214 58.3541 62.877 56.9042C58.6327 55.4544 54.1786 57.2456 52.9285 60.9051C51.6784 64.5646 54.1058 68.7066 58.3501 70.1564C62.5945 71.6063 67.0486 69.815 68.2986 66.1555Z" fill="#25D320" stroke="#1EAC24" stroke-width="2.60353" stroke-miterlimit="10"/>
<path d="M68.4549 65.283C69.705 61.6235 67.2776 57.4815 63.0333 56.0317C58.7889 54.5818 54.3348 56.3731 53.0847 60.0326C51.8347 63.6921 54.262 67.834 58.5064 69.2839C62.7507 70.7337 67.2048 68.9425 68.4549 65.283Z" fill="#72F177" stroke="#1EAC24" stroke-width="2.60353" stroke-miterlimit="10"/>
<path d="M65.9114 64.3507C66.7348 61.9404 65.1085 59.2028 62.2789 58.2363C59.4493 57.2697 56.4881 58.4401 55.6647 60.8505C54.8413 63.2609 56.4676 65.9984 59.2972 66.965C62.1268 67.9315 65.0881 66.7611 65.9114 64.3507Z" fill="#25D320"/>
<path d="M27.1506 70.9566C31.0445 67.9741 32.4191 63.2296 30.2208 60.3595C28.0224 57.4894 23.0837 57.5805 19.1897 60.563C15.2958 63.5456 13.9213 68.2901 16.1196 71.1602C18.3179 74.0303 23.2567 73.9391 27.1506 70.9566Z" fill="#25D320" stroke="#1EAC24" stroke-width="2.63264" stroke-miterlimit="10"/>
<path d="M26.5359 70.3985C30.4298 67.416 31.8043 62.6715 29.606 59.8014C27.4077 56.9313 22.4689 57.0224 18.575 60.0049C14.6811 62.9875 13.3065 67.732 15.5048 70.6021C17.7032 73.4722 22.6419 73.381 26.5359 70.3985Z" fill="#72F177" stroke="#1EAC24" stroke-width="2.63264" stroke-miterlimit="10"/>
<path d="M25.143 68.5797C27.7394 66.591 28.6705 63.4465 27.2227 61.5563C25.7749 59.666 22.4964 59.7459 19.9 61.7346C17.3035 63.7233 16.3724 66.8678 17.8202 68.758C19.268 70.6483 22.5465 70.5685 25.143 68.5797Z" fill="#25D320"/>
<path d="M14.3826 66.4263C17.7493 63.8072 18.7066 59.4063 16.5208 56.5965C14.335 53.7866 9.83377 53.632 6.46706 56.251C3.10035 58.87 2.14304 63.271 4.32885 66.0808C6.51466 68.8906 11.0159 69.0453 14.3826 66.4263Z" fill="#25D320" stroke="#1EAC24" stroke-width="2.43859" stroke-miterlimit="10"/>
<path d="M13.7854 65.8682C17.1521 63.2491 18.1094 58.8482 15.9236 56.0384C13.7378 53.2285 9.2366 53.0739 5.86989 55.6929C2.50318 58.3119 1.54587 62.7129 3.73169 65.5227C5.9175 68.3325 10.4187 68.4872 13.7854 65.8682Z" fill="#72F177" stroke="#1EAC24" stroke-width="2.43859" stroke-miterlimit="10"/>
<path d="M12.4008 64.0885C14.6453 62.3424 15.2974 59.4264 13.8574 57.5753C12.4174 55.7241 9.43052 55.6389 7.18605 57.3849C4.94158 59.131 4.28944 62.047 5.72946 63.8981C7.16949 65.7493 10.1564 65.8345 12.4008 64.0885Z" fill="#25D320"/>
<path d="M53.4911 64.9174C55.5427 60.9913 54.4621 56.3748 51.0775 54.6061C47.6929 52.8374 43.2859 54.5863 41.2343 58.5124C39.1827 62.4384 40.2633 67.0549 43.6479 68.8236C47.0326 70.5923 51.4395 68.8434 53.4911 64.9174Z" fill="#25D320" stroke="#1EAC24" stroke-width="2.57119" stroke-miterlimit="10"/>
<path d="M52.7885 64.3973C54.8401 60.4713 53.7595 55.8548 50.3749 54.0861C46.9902 52.3174 42.5833 54.0663 40.5317 57.9923C38.4801 61.9184 39.5607 66.5349 42.9453 68.3036C46.3299 70.0723 50.7369 68.3234 52.7885 64.3973Z" fill="#72F177" stroke="#1EAC24" stroke-width="2.57119" stroke-miterlimit="10"/>
<path d="M50.6416 63.2778C52.0099 60.6594 51.3122 57.5925 49.0832 56.4277C46.8543 55.2629 43.9381 56.4413 42.5698 59.0597C41.2015 61.6781 41.8992 64.745 44.1282 65.9098C46.3572 67.0746 49.2734 65.8962 50.6416 63.2778Z" fill="#25D320"/>
<path d="M65.1115 54.1584C68.5957 52.8737 70.2119 48.5554 68.7214 44.5131C67.231 40.4708 63.1982 38.2353 59.714 39.52C56.2298 40.8047 54.6135 45.1231 56.104 49.1654C57.5945 53.2077 61.6273 55.4431 65.1115 54.1584Z" fill="#25D320" stroke="#1EAC24" stroke-width="2.50004" stroke-miterlimit="10"/>
<path d="M65.945 53.9875C69.4292 52.7028 71.0454 48.3845 69.5549 44.3422C68.0645 40.2999 64.0317 38.0644 60.5475 39.3491C57.0633 40.6338 55.447 44.9522 56.9375 48.9945C58.428 53.0368 62.4608 55.2722 65.945 53.9875Z" fill="#72F177" stroke="#1EAC24" stroke-width="2.50004" stroke-miterlimit="10"/>
<path d="M65.1042 51.5303C67.4002 50.6837 68.456 47.8128 67.4623 45.1179C66.4687 42.4231 63.8019 40.9248 61.5059 41.7713C59.2099 42.6179 58.1541 45.4888 59.1478 48.1837C60.1414 50.8785 62.8082 52.3768 65.1042 51.5303Z" fill="#25D320"/>
<path d="M68.8121 74.2749C69.7998 70.586 67.1317 66.6667 62.8527 65.5209C58.5737 64.3752 54.3041 66.4368 53.3163 70.1258C52.3286 73.8147 54.9967 77.734 59.2757 78.8798C63.5547 80.0255 67.8243 77.9639 68.8121 74.2749Z" fill="#25D320" stroke="#1EAC24" stroke-width="2.57119" stroke-miterlimit="10"/>
<path d="M69.1641 73.4746C70.1519 69.7857 67.4838 65.8664 63.2048 64.7206C58.9257 63.5749 54.6561 65.6365 53.6684 69.3255C52.6806 73.0144 55.3487 76.9337 59.6278 78.0795C63.9068 79.2252 68.1764 77.1636 69.1641 73.4746Z" fill="#72F177" stroke="#1EAC24" stroke-width="2.57119" stroke-miterlimit="10"/>
<path d="M66.5984 72.7273C67.2489 70.2979 65.4628 67.7091 62.6089 66.9449C59.7551 66.1808 56.9143 67.5307 56.2638 69.9601C55.6133 72.3895 57.3994 74.9784 60.2533 75.7425C63.1071 76.5067 65.9479 75.1567 66.5984 72.7273Z" fill="#25D320"/>
<path d="M34.4968 83.4861C38.4582 82.5183 40.9931 78.9654 40.1588 75.5506C39.3245 72.1358 35.4368 70.1522 31.4754 71.1201C27.5141 72.0879 24.9791 75.6408 25.8134 79.0556C26.6478 82.4704 30.5354 84.454 34.4968 83.4861Z" fill="#25D320" stroke="#1EAC24" stroke-width="2.36743" stroke-miterlimit="10"/>
<path d="M34.4319 82.6844C38.3932 81.7165 40.9282 78.1636 40.0939 74.7488C39.2595 71.334 35.3719 69.3504 31.4105 70.3183C27.4491 71.2862 24.9142 74.839 25.7485 78.2538C26.5828 81.6686 30.4705 83.6522 34.4319 82.6844Z" fill="#72F177" stroke="#1EAC24" stroke-width="2.36743" stroke-miterlimit="10"/>
<path d="M33.9041 80.5227C36.5467 79.877 38.2433 77.5292 37.6934 75.2787C37.1436 73.0282 34.5555 71.7272 31.9129 72.3729C29.2702 73.0186 27.5737 75.3664 28.1235 77.6169C28.6734 79.8674 31.2614 81.1684 33.9041 80.5227Z" fill="#25D320"/>
<path d="M79.2464 84.7533C83.0719 84.3263 85.8746 81.3063 85.5064 78.008C85.1382 74.7097 81.7385 72.3822 77.913 72.8092C74.0875 73.2363 71.2848 76.2563 71.653 79.5546C72.0212 82.8528 75.4209 85.1804 79.2464 84.7533Z" fill="#25D320" stroke="#1EAC24" stroke-width="2.23483" stroke-miterlimit="10"/>
<path d="M79.0501 84.0199C82.8756 83.5929 85.6783 80.5729 85.3101 77.2746C84.9419 73.9763 81.5422 71.6488 77.7167 72.0758C73.8912 72.5029 71.0885 75.5229 71.4567 78.8212C71.825 82.1194 75.2246 84.447 79.0501 84.0199Z" fill="#72F177" stroke="#1EAC24" stroke-width="2.23483" stroke-miterlimit="10"/>
<path d="M78.8107 81.9319C81.3617 81.6471 83.233 79.6549 82.9904 77.482C82.7478 75.3092 80.4833 73.7787 77.9323 74.0635C75.3814 74.3482 73.5101 76.3405 73.7527 78.5133C73.9953 80.6861 76.2598 82.2167 78.8107 81.9319Z" fill="#25D320"/>
</g>
<defs>
<clipPath id="clip0_542_294">
<rect width="97.026" height="87" fill="white"/>
</clipPath>
</defs>
</svg>