<svg width="79" height="79" viewBox="0 0 79 79" fill="none" xmlns="http://www.w3.org/2000/svg">
<path d="M55.4103 25.6738C53.8265 38.192 52.2427 50.7049 50.6589 63.223C47.9189 64.7144 42.1117 67.3958 34.293 67.4539C33.2161 67.4645 32.176 67.4222 31.1782 67.3376C24.6372 66.7981 19.7855 64.524 17.3992 63.223C15.9897 50.8847 14.5854 38.541 13.1758 26.2027C15.7732 24.1084 21.8127 19.8352 30.5975 18.7986C43.6638 17.2596 53.193 24.0132 55.4103 25.6738Z" fill="#B3B6CF"/>
<path opacity="0.13" d="M31.1782 67.3361C24.6372 66.7967 19.7855 64.5225 17.3992 63.2215C15.9897 50.8832 14.5854 38.5395 13.1758 26.2012C15.6412 28.3166 18.1014 30.4321 20.5668 32.5475C20.5457 34.8639 20.7516 38.4972 22.1506 42.5959C24.4735 49.4077 28.0212 51.4649 30.0696 56.8752C30.9671 59.2551 31.722 62.6609 31.1782 67.3361Z" fill="black"/>
<path opacity="0.13" d="M43.7963 66.3956C42.5451 66.184 41.901 65.9037 41.8693 65.5653C41.806 64.9729 43.5851 64.1955 47.2014 63.2224C47.08 59.4939 47.2912 54.5649 48.5477 48.9431C49.6616 43.9824 51.2771 39.889 52.7711 36.7793C50.6383 38.0697 47.3017 40.5184 44.8521 44.7122C39.1874 54.3957 43.1892 64.883 43.7963 66.3956Z" fill="black"/>
<path opacity="0.88" d="M34.293 34.7811C45.9558 34.7811 55.4103 30.9524 55.4103 26.2294C55.4103 21.5065 45.9558 17.6777 34.293 17.6777C22.6303 17.6777 13.1758 21.5065 13.1758 26.2294C13.1758 30.9524 22.6303 34.7811 34.293 34.7811Z" fill="#31984F"/>
<path d="M29.7327 34.0477C29.9069 34.1693 30.0811 34.2804 30.2606 34.3861C30.4612 34.4813 30.6618 34.5765 30.8624 34.6611C30.9522 34.6982 31.0367 34.751 31.1211 34.7986C29.0305 32.0115 28.5712 28.6057 28.5395 28.3359C28.1542 30.1605 28.2175 32.0168 28.6451 33.7145C29.0252 33.7145 29.4054 33.815 29.7327 34.0477Z" fill="#1EB924"/>
<path d="M43.7229 30.7843C43.3639 28.4044 41.854 27.1245 39.5364 25.1572C37.0815 23.0787 34.5949 20.9686 32.1453 22.0369C30.5299 22.7456 29.6957 24.5331 29.1414 25.7231C28.7402 26.5851 27.4467 29.4515 28.1858 33.0425C28.2334 33.2858 28.2967 33.5132 28.3548 33.7406C28.8299 33.6666 29.3209 33.7565 29.7327 34.0526C29.9069 34.1743 30.0811 34.2853 30.2606 34.3911C30.4612 34.4863 30.6618 34.5815 30.8625 34.6661C31.137 34.7772 31.3745 34.9411 31.5857 35.1368C34.7955 34.957 37.9948 34.8142 41.1518 34.0368C42.0071 33.8252 42.704 34.1796 43.1791 34.7878C43.6331 33.656 43.9446 32.2757 43.7229 30.7843Z" stroke="#1EAC24" stroke-width="1.23401" stroke-miterlimit="10"/>
<path d="M31.829 35.1198C34.9544 34.9506 38.0744 34.7919 41.1523 34.0357C42.0128 33.8241 42.715 34.1837 43.1901 34.8025C43.2271 34.7338 43.2693 34.6703 43.301 34.6068C45.1118 31.0106 44.1193 25.9176 40.8989 22.8714C37.4779 19.6294 32.8427 19.9256 30.5461 23.5325C30.2558 23.982 30.0182 24.4633 29.8334 24.971C28.635 28.1759 29.4164 32.2798 31.829 35.1251V35.1198Z" fill="#72F177"/>
<path opacity="0.85" d="M33.1159 34.1319C33.2479 34.2588 33.3852 34.3699 33.5172 34.481C35.8084 34.3434 38.0891 34.1372 40.3433 33.5819C40.4648 33.5502 40.5756 33.5396 40.6918 33.529C42.265 30.9111 41.5945 26.9764 39.1502 24.66C36.6689 22.3118 33.3113 22.5234 31.643 25.1412C29.9748 27.7538 30.6347 31.7785 33.1159 34.1319Z" fill="#25D320"/>
<path opacity="0.25" d="M31.79 22.3643C35.2163 26.3466 38.6479 30.3289 42.0741 34.3166C44.1806 31.5665 44.8986 27.7058 43.9113 24.4533C42.9136 21.1479 40.2686 18.8315 37.233 19.0271C34.1868 19.2228 32.1649 21.8619 31.79 22.3696V22.3643Z" fill="white"/>
<path d="M40.7082 23.053C37.2872 19.8111 32.652 20.1073 30.3555 23.7141C28.3124 26.919 28.8139 31.6523 31.348 34.9366C31.4324 34.9947 31.5116 35.0582 31.5856 35.1322C34.7954 34.9524 37.9946 34.8096 41.1517 34.0322C41.9805 33.8259 42.6616 34.1538 43.1367 34.7303C44.9053 31.1393 43.9075 26.0834 40.7082 23.053Z" stroke="#1EAC24" stroke-width="1.23401" stroke-miterlimit="10"/>
<path d="M26.3848 32.8703C26.2423 32.8967 26.0997 32.9126 25.9572 32.9284C25.8041 32.9284 25.6457 32.939 25.4926 32.9284C25.424 32.9284 25.3553 32.9337 25.292 32.939C27.2717 31.8971 28.2748 30.1096 28.3487 29.9668C28.2431 31.0774 27.8261 32.0981 27.1925 32.939C26.9339 32.8438 26.6593 32.8068 26.3901 32.8597L26.3848 32.8703Z" fill="#1EB924"/>
<path d="M17.5421 27.6024C18.2654 26.3595 19.5483 26.0211 21.5227 25.4922C23.6081 24.9369 25.7251 24.371 27.1716 25.5715C28.1272 26.3648 28.3331 27.5706 28.4703 28.3692C28.5706 28.951 28.8715 30.8654 27.6415 32.69C27.557 32.8117 27.4725 32.928 27.3828 33.0391C27.0766 32.8804 26.7229 32.8117 26.385 32.8751C26.2424 32.9016 26.0999 32.9174 25.9574 32.9333C25.8043 32.9333 25.6459 32.9439 25.4928 32.9333C25.2869 32.9333 25.0863 32.9597 24.9068 33.0179C22.7634 32.1294 20.62 31.2621 18.6297 30.051C18.0912 29.7231 17.5474 29.7495 17.0987 29.9717C17.0195 29.226 17.0881 28.3798 17.5369 27.6024H17.5421Z" stroke="#1EAC24" stroke-width="1.23401" stroke-miterlimit="10"/>
<path d="M24.7482 32.9493C22.6576 32.0819 20.5722 31.2305 18.6347 30.0458C18.091 29.7179 17.5419 29.7444 17.0985 29.9718C17.0879 29.9242 17.0721 29.8819 17.0615 29.8343C16.5547 27.3803 18.2599 24.7836 21.0579 23.874C24.0355 22.9062 27.1239 24.2125 27.958 26.7933C28.0636 27.1159 28.1269 27.4438 28.1533 27.7717C28.3223 29.8554 26.9602 31.955 24.7535 32.9493H24.7482Z" fill="#72F177"/>
<path opacity="0.85" d="M23.8344 32.3094C23.713 32.3517 23.5863 32.3835 23.4596 32.4152C21.8072 31.7224 20.1706 30.9873 18.6343 30.0512C18.5551 30.0036 18.4706 29.9613 18.3914 29.9295C17.8054 27.9252 19.1569 25.7251 21.4587 24.9794C23.7975 24.2178 26.2259 25.2491 26.8806 27.2747C27.5352 29.3002 26.1731 31.5584 23.8344 32.32V32.3094Z" fill="#25D320"/>
<path opacity="0.25" d="M28.2323 29.2643C24.5157 28.9681 20.7938 28.6772 17.0771 28.381C17.4942 26.3608 19.1572 24.6367 21.3217 23.9703C23.5179 23.2987 25.9939 23.7905 27.3507 25.3718C28.7128 26.9584 28.3168 28.8993 28.2323 29.2643Z" fill="white"/>
<path d="M21.149 24.0263C24.1265 23.0585 27.2149 24.3648 28.0491 26.9456C28.7935 29.2356 27.4947 31.753 25.1085 32.9641C25.0399 32.9747 24.9712 32.9905 24.9079 33.0117C22.7645 32.1232 20.6211 31.2559 18.6308 30.0395C18.1081 29.7222 17.5802 29.738 17.142 29.939C16.6669 27.5009 18.3615 24.9254 21.149 24.021V24.0263Z" stroke="#1EAC24" stroke-width="1.23401" stroke-miterlimit="10"/>
<path opacity="0.64" d="M38.4172 50.1964L40.455 53.396C39.8742 53.9566 39.1563 54.2581 38.4172 54.2581C36.6063 54.2581 35.1123 52.4229 35.1123 50.1964C35.1123 47.9699 36.6063 46.1348 38.4172 46.1348C40.228 46.1348 41.722 47.9699 41.722 50.1964C41.722 50.5137 41.6903 50.8258 41.6323 51.1325L38.4172 50.1964Z" fill="#625E7B" stroke="#625E7B" stroke-width="0.50286" stroke-linecap="round" stroke-linejoin="round"/>
<path opacity="0.64" d="M30.3498 50.1964L32.3876 53.396C31.8069 53.9566 31.0889 54.2581 30.3498 54.2581C28.539 54.2581 27.0449 52.4229 27.0449 50.1964C27.0449 47.9699 28.539 46.1348 30.3498 46.1348C32.1606 46.1348 33.6546 47.9699 33.6546 50.1964C33.6546 50.5137 33.6229 50.8258 33.5649 51.1325L30.3498 50.1964Z" fill="#625E7B" stroke="#625E7B" stroke-width="0.50286" stroke-linecap="round" stroke-linejoin="round"/>
<path opacity="0.64" d="M25.8398 54.9258C26.7057 55.6239 29.7782 57.9297 34.3395 57.935C38.827 57.935 41.8731 55.7085 42.7548 55.0104" stroke="#625E7B" stroke-width="1.30497" stroke-linecap="round" stroke-linejoin="round"/>
<path opacity="0.64" d="M25.582 46.0676C25.6507 45.9142 26.8543 43.3545 29.7052 42.9738C32.4082 42.6088 34.1926 44.5286 34.3404 44.6926C34.5674 44.4599 36.2462 42.7728 38.8067 42.9738C41.7367 43.2065 43.1674 45.708 43.273 45.8984" stroke="#625E7B" stroke-width="1.30497" stroke-linecap="round" stroke-linejoin="round"/>
<path opacity="0.66" d="M28.4512 36.1301C32.4793 37.5316 35.9742 38.0499 38.4819 38.2455C41.2429 38.4624 44.2416 38.6739 47.9846 37.7167C50.7404 37.008 52.8838 35.9291 54.3198 35.0724C54.5257 34.4483 54.5257 33.9194 54.3198 33.4858C53.095 30.8785 44.4686 31.7564 28.4512 36.1301Z" fill="white"/>
<path d="M13.1758 26.2027C14.5854 38.5411 15.9897 50.8847 17.3992 63.2231C20.1498 64.7197 26.1787 67.5174 34.293 67.454C42.1117 67.3958 47.9189 64.7092 50.6589 63.2231C52.2427 50.7049 53.8265 38.192 55.4103 25.6738" stroke="#87839B" stroke-width="3.08503" stroke-linecap="round" stroke-linejoin="round"/>
<path d="M34.293 34.7811C45.9558 34.7811 55.4103 30.9524 55.4103 26.2294C55.4103 21.5065 45.9558 17.6777 34.293 17.6777C22.6303 17.6777 13.1758 21.5065 13.1758 26.2294C13.1758 30.9524 22.6303 34.7811 34.293 34.7811Z" stroke="#87839B" stroke-width="3.08503" stroke-linecap="round" stroke-linejoin="round"/>
<path d="M13.5706 11.9961C11.5908 15.8885 12.3722 20.6007 15.4289 23.52C18.739 26.6826 24.0025 27.0422 27.8617 24.271C27.1595 24.4402 22.4979 25.4821 18.3114 22.457C13.1746 18.7444 13.5442 12.3716 13.5706 12.0014V11.9961Z" fill="#1EB924"/>
<path d="M27.444 11.7938C29.7933 14.3482 31.3243 16.0141 31.2346 18.4522C31.1079 21.8739 27.8875 24.0528 27.1695 24.5394C26.4938 24.9995 24.3029 26.438 21.2409 26.2159C18.0152 25.9832 15.9879 24.0528 15.2594 23.3441C14.5784 22.6778 12.2238 20.3032 12.1235 16.5324C12.0232 12.7986 14.193 10.3183 14.8634 9.57784C15.7873 8.55714 17.1758 7.01815 19.2664 6.74843C22.434 6.34649 24.9575 9.086 27.444 11.7885V11.7938Z" stroke="#1EAC24" stroke-width="1.23401" stroke-miterlimit="10"/>
<path d="M29.5884 9.90222C32.7771 13.7629 32.8562 19.0463 29.9051 22.1031C29.7203 22.2935 29.525 22.4786 29.3138 22.6531C25.7714 25.5936 20.1489 24.6469 16.7596 20.5429C13.7926 16.9572 13.5181 12.134 15.8674 9.01902C16.2053 8.56949 16.5907 8.16226 17.0394 7.79206C20.5818 4.85158 26.2043 5.79825 29.5936 9.90222H29.5884Z" fill="#72F177"/>
<path opacity="0.85" d="M27.3053 20.4711C29.8207 18.385 29.908 14.332 27.5002 11.4184C25.0924 8.50476 21.1013 7.83394 18.5858 9.92004C16.0704 12.0061 15.9832 16.0592 18.391 18.9728C20.7988 21.8864 24.7899 22.5572 27.3053 20.4711Z" fill="#25D320"/>
<path opacity="0.25" d="M14.3877 11.0816C19.989 14.0538 25.5904 17.026 31.197 19.9982C32.4324 16.714 31.6247 12.7264 29.117 9.79647C26.5776 6.82426 22.5759 5.2747 19.1919 6.30069C15.7973 7.33197 14.6041 10.4787 14.3877 11.0816Z" fill="white"/>
<path d="M29.0363 22.7874C32.5803 19.8482 32.7041 14.1387 29.3127 10.035C25.9214 5.93116 20.2991 4.98705 16.755 7.92621C13.2109 10.8654 13.0871 16.5748 16.4785 20.6786C19.8699 24.7824 25.4922 25.7265 29.0363 22.7874Z" stroke="#1EAC24" stroke-width="1.23401" stroke-miterlimit="10"/>
<path d="M46.6238 15.3535C43.3717 15.5598 40.6476 17.8603 39.9455 20.9383C39.18 24.2754 40.9538 27.7976 44.2006 29.2256C43.8258 28.8395 41.3814 26.2375 41.7246 22.3874C42.1469 17.6699 46.3757 15.4752 46.6238 15.3535Z" fill="#1EB924"/>
<path d="M52.0427 24.2089C51.2983 26.6945 50.8179 28.3181 49.2182 29.1854C46.9745 30.4071 44.3507 29.1643 43.7647 28.8893C43.2104 28.6301 41.4577 27.7681 40.4335 25.7108C39.3565 23.5478 39.8158 21.5064 39.9953 20.766C40.1642 20.0731 40.7872 17.6562 43.1682 16.149C45.5227 14.6629 47.9407 15.1124 48.6692 15.2605C49.6775 15.4668 51.1927 15.7735 52.1588 17.0163C53.6265 18.8991 52.8293 21.5698 52.0427 24.1983V24.2089Z" stroke="#1EAC24" stroke-width="1.23401" stroke-miterlimit="10"/>
<path d="M54.0742 24.865C52.8124 28.3872 49.4601 30.4497 46.3717 29.7146C46.1763 29.667 45.9863 29.6141 45.7962 29.5454C42.56 28.3872 41.0237 24.4101 42.3647 20.6658C43.5367 17.3921 46.5195 15.3772 49.4126 15.6998C49.8296 15.7474 50.2414 15.8373 50.6426 15.9854C53.8789 17.1436 55.4151 21.1206 54.0742 24.865Z" fill="#72F177"/>
<path opacity="0.85" d="M51.9276 24.1151C52.8063 21.6567 51.7962 19.046 49.6716 18.2839C47.5469 17.5218 45.1122 18.897 44.2336 21.3553C43.3549 23.8137 44.3649 26.4244 46.4896 27.1865C48.6143 27.9486 51.0489 26.5735 51.9276 24.1151Z" fill="#25D320"/>
<path opacity="0.25" d="M44.998 16.3225C46.9461 20.6486 48.8889 24.9694 50.837 29.2955C53.0701 27.9258 54.4111 25.2021 54.2738 22.3251C54.1313 19.4058 52.4841 16.6557 50.0187 15.709C47.5427 14.7571 45.3993 16.0687 44.998 16.3225Z" fill="white"/>
<path d="M53.8839 24.741C55.2226 20.9956 53.6864 17.0192 50.4528 15.8593C47.2191 14.6995 43.5125 16.7954 42.1739 20.5408C40.8352 24.2861 42.3714 28.2625 45.605 29.4224C48.8387 30.5822 52.5453 28.4863 53.8839 24.741Z" stroke="#1EAC24" stroke-width="1.23401" stroke-miterlimit="10"/>
<path d="M40.6076 11.998C42.2072 13.7644 42.4659 16.3612 41.2728 18.3338C39.9794 20.4704 37.2605 21.4171 34.832 20.5074C35.2227 20.4969 37.8307 20.3752 39.6045 18.1857C41.7796 15.4938 40.6762 12.1884 40.6129 11.998H40.6076Z" fill="#1EB924"/>
<path d="M33.2705 13.8767C32.3941 15.5584 31.8239 16.6532 32.2199 17.9277C32.7742 19.71 34.7803 20.4028 35.2291 20.5562C35.6514 20.699 37.0082 21.1432 38.592 20.5932C40.255 20.0062 41.0522 18.7052 41.3372 18.2239C41.6012 17.7744 42.504 16.1878 42.0183 14.1887C41.5379 12.2054 40.0438 11.2112 39.5845 10.915C38.951 10.5078 38.0007 9.89432 36.8604 10.053C35.1341 10.291 34.1943 12.0997 33.2705 13.8767Z" stroke="#1EAC24" stroke-width="1.23401" stroke-miterlimit="10"/>
<path d="M31.876 13.1905C30.7462 15.6815 31.4589 18.4739 33.4492 19.6638C33.5759 19.7378 33.7026 19.8066 33.8399 19.8701C36.1258 20.9119 38.9503 19.6109 40.1539 16.9666C41.2045 14.6502 40.666 12.0746 38.9819 10.7683C38.7391 10.5832 38.4751 10.4193 38.19 10.2871C35.9041 9.24521 33.0797 10.5462 31.876 13.1905Z" fill="#72F177"/>
<path opacity="0.85" d="M38.6307 16.206C39.3671 14.5842 38.8281 12.7518 37.4268 12.1132C36.0255 11.4747 34.2925 12.2718 33.5561 13.8936C32.8197 15.5154 33.3586 17.3477 34.76 17.9863C36.1613 18.6248 37.8943 17.8278 38.6307 16.206Z" fill="#25D320"/>
<path opacity="0.25" d="M37.7437 18.8363C36.6881 15.8886 35.6278 12.9457 34.5723 9.99796C36.2507 9.62054 38.1336 10.2942 39.3841 11.7226C40.6536 13.1702 41.1291 15.2341 40.3968 16.8202C39.6598 18.4111 38.048 18.7742 37.7437 18.8411V18.8363Z" fill="white"/>
<path d="M40.3134 16.9887C41.5146 14.3433 40.6359 11.3547 38.3508 10.3134C36.0657 9.27214 33.2395 10.5725 32.0383 13.2179C30.8371 15.8633 31.7157 18.8519 34.0008 19.8932C36.2859 20.9345 39.1121 19.6341 40.3134 16.9887Z" stroke="#1EAC24" stroke-width="1.23401" stroke-miterlimit="10"/>
<path d="M25.7539 31.9979C27.2057 34.0551 29.819 34.9172 32.126 34.1345C34.6232 33.2883 36.2175 30.6916 35.8374 27.9785C35.7371 28.3805 35.0191 31.0459 32.353 32.3787C29.0852 34.0128 25.9334 32.1142 25.7539 32.0032V31.9979Z" fill="#1EB924"/>
<path d="M29.3711 24.8495C31.3034 24.3312 32.5651 23.9927 33.7794 24.6961C35.4899 25.6798 35.738 27.9116 35.7961 28.4087C35.8489 28.8794 35.9967 30.3814 35.0622 31.8886C34.0803 33.4752 32.5546 33.9988 31.995 34.1786C31.4723 34.3478 29.6351 34.919 27.6818 33.9565C25.7495 33.0098 25.0685 31.2328 24.8732 30.6934C24.5986 29.9477 24.1868 28.8212 24.6145 27.6842C25.2585 25.9548 27.3333 25.3995 29.3764 24.8495H29.3711Z" stroke="#1EAC24" stroke-width="1.23401" stroke-miterlimit="10"/>
<path d="M28.9802 23.247C31.8046 22.6493 34.5182 24.0244 35.2837 26.3567C35.3312 26.5048 35.3734 26.6528 35.4051 26.8062C35.9542 29.4082 33.9639 32.0261 30.9652 32.666C28.3414 33.2213 25.8126 32.0737 24.8518 30.0376C24.7145 29.7467 24.6089 29.4347 24.5403 29.112C23.9912 26.51 25.9815 23.8922 28.9802 23.2522V23.247Z" fill="#72F177"/>
<path opacity="0.85" d="M30.561 31.0897C32.4409 30.6914 33.6861 29.0482 33.3423 27.4193C32.9984 25.7905 31.1958 24.7928 29.3159 25.1911C27.436 25.5893 26.1908 27.2326 26.5347 28.8614C26.8785 30.4903 28.6812 31.4879 30.561 31.0897Z" fill="#25D320"/>
<path opacity="0.25" d="M27.3813 24.2194C29.1762 26.943 30.9765 29.6666 32.7714 32.3903C34.3869 31.2797 35.2263 29.3335 34.9148 27.4243C34.6034 25.4833 33.141 23.7857 31.1824 23.3679C29.2185 22.9501 27.6663 24.0131 27.376 24.2194H27.3813Z" fill="white"/>
<path d="M30.9606 32.8383C33.9615 32.2026 35.9493 29.5791 35.4003 26.9787C34.8514 24.3783 31.9737 22.7855 28.9727 23.4212C25.9718 24.0569 23.9841 26.6803 24.533 29.2808C25.0819 31.8812 27.9596 33.474 30.9606 32.8383Z" stroke="#1EAC24" stroke-width="1.23401" stroke-miterlimit="10"/>
<path d="M22.6092 52.6504C25.8824 55.4957 26.9118 60.1338 25.1802 63.9628C23.3061 68.109 18.5916 70.4096 14.0039 69.2937C14.7113 69.1879 19.3941 68.4052 22.1288 64.058C25.4811 58.7217 22.7728 52.9836 22.6092 52.6557V52.6504Z" fill="#1EB924"/>
<path d="M9.74921 57.6392C8.53497 60.8706 7.7378 62.9754 8.73031 65.1914C10.1188 68.2958 13.8988 69.105 14.7434 69.2848C15.5353 69.454 18.0905 69.9617 20.8305 68.6184C23.713 67.201 24.8692 64.6678 25.2757 63.737C25.6558 62.8697 26.9439 59.8023 25.6347 56.2906C24.3412 52.8107 21.4165 51.3405 20.5243 50.9068C19.2942 50.3092 17.4412 49.4101 15.4139 49.9443C12.3466 50.7534 11.0374 54.2228 9.75449 57.6392H9.74921Z" stroke="#1EAC24" stroke-width="1.23401" stroke-miterlimit="10"/>
<path d="M7.07157 56.6919C5.56696 61.4411 7.45696 66.333 11.3161 68.0518C11.559 68.1629 11.8071 68.2581 12.0658 68.3374C16.4212 69.723 21.2518 66.7561 22.8514 61.7108C24.2505 57.3001 22.7142 52.7571 19.3935 50.758C18.9183 50.4725 18.4063 50.2398 17.8625 50.0652C13.5071 48.6796 8.67648 51.6465 7.07685 56.6919H7.07157Z" fill="#72F177"/>
<path opacity="0.85" d="M20.8921 60.8598C22.0624 57.1685 20.4272 53.354 17.2398 52.3399C14.0524 51.3258 10.5198 53.4961 9.3495 57.1874C8.17919 60.8787 9.81436 64.6932 13.0018 65.7073C16.1891 66.7214 19.7218 64.5511 20.8921 60.8598Z" fill="#25D320"/>
<path opacity="0.25" d="M21.5174 52.1115C17.4576 56.94 13.403 61.7685 9.34325 66.597C6.9834 64.0321 6.24958 60.055 7.4691 56.4217C8.70446 52.7356 11.814 49.8162 15.3142 49.4989C18.8249 49.1816 21.095 51.6355 21.5174 52.1115Z" fill="white"/>
<path d="M23.1563 61.7385C24.7556 56.6943 22.5197 51.4813 18.1624 50.0949C13.8051 48.7086 8.97638 51.6739 7.37713 56.7182C5.77789 61.7624 8.01374 66.9754 12.3711 68.3617C16.7284 69.7481 21.5571 66.7828 23.1563 61.7385Z" stroke="#1EAC24" stroke-width="1.23401" stroke-miterlimit="10"/>
<path d="M41.7735 61.9486C40.5645 64.1223 40.7757 67.0998 42.2645 69.2099C43.8747 71.4999 46.6357 72.2826 48.7897 70.9922C48.4149 71.0186 45.9125 71.1614 43.8324 68.8609C41.2825 66.0368 41.7471 62.1708 41.7788 61.9434L41.7735 61.9486Z" fill="#1EB924"/>
<path d="M49.0991 63.3001C50.2289 65.1194 50.968 66.2988 50.8149 67.7849C50.6037 69.8686 48.814 70.8629 48.4128 71.085C48.038 71.2965 46.8184 71.9418 45.2135 71.4816C43.5242 70.9951 42.5316 69.5989 42.1779 69.0859C41.8453 68.6046 40.705 66.9017 40.8106 64.5747C40.9162 62.2741 42.1674 60.9837 42.5528 60.6029C43.086 60.0741 43.8831 59.2808 44.9971 59.339C46.6865 59.4289 47.9007 61.3804 49.0938 63.3001H49.0991Z" stroke="#1EAC24" stroke-width="1.23401" stroke-miterlimit="10"/>
<path d="M50.309 62.3656C51.8295 65.0734 51.6447 68.3206 49.9553 69.8808C49.8497 69.9812 49.7389 70.0711 49.6227 70.1558C47.6271 71.5784 44.7024 70.4043 43.0922 67.5273C41.6826 65.0099 41.7407 62.0272 43.108 60.3665C43.3034 60.1285 43.5251 59.917 43.7785 59.7372C45.7741 58.3145 48.6988 59.4886 50.309 62.3656Z" fill="#72F177"/>
<path opacity="0.85" d="M48.0333 68.5175C49.4431 67.9429 49.892 65.7686 49.036 63.661C48.18 61.5535 46.3432 60.3108 44.9335 60.8854C43.5237 61.46 43.0748 63.6343 43.9308 65.7418C44.7868 67.8494 46.6235 69.0921 48.0333 68.5175Z" fill="#25D320"/>
<path opacity="0.25" d="M42.2432 61.474C45.0729 63.8909 47.9026 66.3131 50.727 68.73C51.5189 66.8473 51.2602 64.3193 50.0618 62.2568C48.8476 60.1625 46.8045 58.7874 44.9778 59.0571C43.1406 59.3269 42.3804 61.1303 42.2432 61.474Z" fill="white"/>
<path d="M48.8137 70.5713C51.0526 69.6587 51.8538 66.4231 50.6033 63.3443C49.3529 60.2655 46.5242 58.5094 44.2853 59.4219C42.0464 60.3345 41.2452 63.5701 42.4956 66.6489C43.7461 69.7277 46.5748 71.4838 48.8137 70.5713Z" stroke="#1EAC24" stroke-width="1.23401" stroke-miterlimit="10"/>
<path d="M65.1487 67.3583C71.1408 64.8449 73.1738 56.0498 69.6896 47.7141C66.2053 39.3783 58.5233 34.6583 52.5312 37.1717C46.5392 39.6851 44.5062 48.4801 47.9904 56.8159C51.4746 65.1517 59.1566 69.8717 65.1487 67.3583Z" fill="#B3B6CF"/>
<path opacity="0.1" d="M57.522 38.8945C56.0754 39.0849 54.2224 39.6032 52.7706 41.01C48.79 44.876 50.5585 52.8089 53.2985 57.4047C56.3394 62.5029 61.228 64.5919 63.3292 65.3376C62.6059 65.8718 58.7098 68.643 54.3544 67.4531C50.7328 66.4641 49.0117 63.3385 47.4913 60.5779C46.1925 58.2192 41.098 48.9746 45.9075 41.01C48.526 36.6733 52.7917 34.8487 54.8823 34.1348" fill="black"/>
<path opacity="0.74" d="M50.9219 39.9969C52.1264 39.7091 55.5905 39.1163 59.0374 41.7236C63.3344 44.9813 64.5432 50.9038 65.0173 53.2349C66.2432 59.2495 65.154 64.3433 64.5902 66.4729C65.7819 66.7895 67.0206 66.7664 68.0073 65.8973C72.1376 62.2598 71.8899 43.7553 64.163 38.2702C58.4138 34.1894 51.5754 39.4731 50.9219 39.9969Z" fill="white"/>
<path d="M65.1487 67.3583C71.1408 64.8449 73.1738 56.0498 69.6896 47.7141C66.2053 39.3783 58.5233 34.6583 52.5312 37.1717C46.5392 39.6851 44.5062 48.4801 47.9904 56.8159C51.4746 65.1517 59.1566 69.8717 65.1487 67.3583Z" stroke="#87839B" stroke-width="3.19918" stroke-linecap="round" stroke-linejoin="round"/>
<path d="M58.0498 47.3559C60.0401 47.1073 61.9671 48.1809 62.8012 50.0002C63.6248 51.7983 63.1971 53.9402 61.7453 55.2888" stroke="#7B7991" stroke-width="3.19918" stroke-linecap="round" stroke-linejoin="round"/>
</svg>
