<svg xmlns="http://www.w3.org/2000/svg" width="26" height="27" fill="none"><path fill="#1EB924" d="M5.536 5.277c-3.976 3-5.523 8.228-3.84 12.744 1.824 4.896 7.049 7.895 12.394 6.982-.803-.176-6.112-1.44-8.903-6.633-3.425-6.374.135-12.726.35-13.093Z"/><path stroke="#1EAC24" stroke-miterlimit="10" stroke-width="1.464" d="M19.89 12.003c1.14 3.795 1.883 6.269.572 8.723-1.838 3.443-6.232 4.073-7.214 4.213-.924.132-3.893.513-6.925-1.245-3.195-1.852-4.32-4.843-4.713-5.935-.369-1.021-1.601-4.633.174-8.554C3.54 5.326 7.01 3.87 8.068 3.445c1.46-.585 3.654-1.47 5.936-.699 3.456 1.17 4.68 5.244 5.886 9.257Z"/><path fill="#72F177" d="M23.032 11.13c1.351 5.554-1.203 11.009-5.76 12.669a8.05 8.05 0 0 1-.882.269c-5.104 1.243-10.41-2.535-11.846-8.435-1.257-5.162.862-10.24 4.83-12.263a8.263 8.263 0 0 1 1.814-.674c5.104-1.243 10.41 2.535 11.846 8.435h-.002Z"/><path fill="#25D320" d="M15.584 21.748c4.011-.977 6.348-5.527 5.22-10.164-1.13-4.637-5.296-7.604-9.307-6.628-4.011.977-6.348 5.527-5.22 10.164 1.13 4.637 5.296 7.604 9.307 6.628Z" opacity=".85"/><path fill="#fff" d="m6.833 4.749 12.818 17.54c2.908-2.748 4.064-7.243 2.952-11.499-1.128-4.317-4.464-7.904-8.452-8.543-4.003-.64-6.8 1.992-7.318 2.5v.002Z" opacity=".25"/><path stroke="#1EAC24" stroke-miterlimit="10" stroke-width="1.464" d="M16.034 24.07c5.106-1.243 8.08-7.035 6.643-12.936-1.436-5.902-6.74-9.678-11.844-8.436-5.106 1.243-8.08 7.034-6.643 12.936 1.436 5.901 6.74 9.678 11.844 8.435Z"/><path fill="#1E8723" stroke="#1E8723" stroke-linecap="round" stroke-linejoin="round" stroke-width=".401" d="m15.68 12.81 1.377 1.498c-.199.368-.495.616-.84.7-.851.208-1.792-.614-2.085-1.82-.293-1.207.164-2.37 1.014-2.575.85-.206 1.791.614 2.084 1.82.042.171.068.344.082.517l-1.63-.14h-.002ZM11.896 13.73l1.377 1.498c-.199.368-.495.616-.841.7-.85.208-1.791-.615-2.084-1.82-.294-1.207.164-2.37 1.014-2.576.85-.206 1.79.615 2.084 1.821.042.171.068.344.082.517l-1.63-.14h-.002Z"/><path stroke="#1E8723" stroke-linecap="round" stroke-linejoin="round" stroke-width="1.044" d="M10.405 16.802c.496.28 2.243 1.177 4.38.659 2.104-.51 3.238-2.065 3.56-2.542M9.12 12.04c.012-.09.238-1.613 1.524-2.145 1.22-.505 2.308.328 2.4.401.075-.151.64-1.256 1.866-1.44 1.404-.21 2.402.98 2.477 1.072"/></svg>