<?xml version="1.0" encoding="UTF-8"?>
<svg id="_Слой_102" data-name="Слой 102" xmlns="http://www.w3.org/2000/svg" xmlns:xlink="http://www.w3.org/1999/xlink" viewBox="0 0 415.96 231.33">
  <defs>
    <style>
      .cls-1 {
        filter: url(#outer-glow-2);
      }

      .cls-1, .cls-2, .cls-3, .cls-4, .cls-5, .cls-6, .cls-7, .cls-8 {
        stroke: #528efb;
        stroke-linecap: round;
        stroke-linejoin: round;
        stroke-width: 10px;
      }

      .cls-1, .cls-2, .cls-3, .cls-5, .cls-6, .cls-7, .cls-8 {
        fill: none;
      }

      .cls-2 {
        filter: url(#outer-glow-8);
      }

      .cls-3 {
        filter: url(#outer-glow-3);
      }

      .cls-4 {
        fill: url(#_Безымянный_градиент_36);
        filter: url(#outer-glow-1);
      }

      .cls-5 {
        filter: url(#outer-glow-7);
      }

      .cls-6 {
        filter: url(#outer-glow-4);
      }

      .cls-7 {
        filter: url(#outer-glow-5);
      }

      .cls-8 {
        filter: url(#outer-glow-6);
      }
    </style>
    <linearGradient id="_Безымянный_градиент_36" data-name="Безымянный градиент 36" x1="207.46" y1="57.52" x2="207.46" y2="164.48" gradientUnits="userSpaceOnUse">
      <stop offset="0" stop-color="#fff"/>
      <stop offset=".26" stop-color="#fcfdff"/>
      <stop offset=".43" stop-color="#f3f8ff"/>
      <stop offset=".58" stop-color="#e4efff"/>
      <stop offset=".71" stop-color="#cfe3ff"/>
      <stop offset=".83" stop-color="#b4d4ff"/>
      <stop offset=".94" stop-color="#93c1ff"/>
      <stop offset="1" stop-color="#7fb6ff"/>
    </linearGradient>
    <filter id="outer-glow-1" filterUnits="userSpaceOnUse">
      <feOffset dx="0" dy="0"/>
      <feGaussianBlur result="blur" stdDeviation="30"/>
      <feFlood flood-color="#000" flood-opacity=".08"/>
      <feComposite in2="blur" operator="in"/>
      <feComposite in="SourceGraphic"/>
    </filter>
    <filter id="outer-glow-2" filterUnits="userSpaceOnUse">
      <feOffset dx="0" dy="0"/>
      <feGaussianBlur result="blur-2" stdDeviation="30"/>
      <feFlood flood-color="#000" flood-opacity=".08"/>
      <feComposite in2="blur-2" operator="in"/>
      <feComposite in="SourceGraphic"/>
    </filter>
    <filter id="outer-glow-3" filterUnits="userSpaceOnUse">
      <feOffset dx="0" dy="0"/>
      <feGaussianBlur result="blur-3" stdDeviation="30"/>
      <feFlood flood-color="#000" flood-opacity=".08"/>
      <feComposite in2="blur-3" operator="in"/>
      <feComposite in="SourceGraphic"/>
    </filter>
    <filter id="outer-glow-4" filterUnits="userSpaceOnUse">
      <feOffset dx="0" dy="0"/>
      <feGaussianBlur result="blur-4" stdDeviation="30"/>
      <feFlood flood-color="#000" flood-opacity=".08"/>
      <feComposite in2="blur-4" operator="in"/>
      <feComposite in="SourceGraphic"/>
    </filter>
    <filter id="outer-glow-5" filterUnits="userSpaceOnUse">
      <feOffset dx="0" dy="0"/>
      <feGaussianBlur result="blur-5" stdDeviation="30"/>
      <feFlood flood-color="#000" flood-opacity=".08"/>
      <feComposite in2="blur-5" operator="in"/>
      <feComposite in="SourceGraphic"/>
    </filter>
    <filter id="outer-glow-6" filterUnits="userSpaceOnUse">
      <feOffset dx="0" dy="0"/>
      <feGaussianBlur result="blur-6" stdDeviation="30"/>
      <feFlood flood-color="#000" flood-opacity=".08"/>
      <feComposite in2="blur-6" operator="in"/>
      <feComposite in="SourceGraphic"/>
    </filter>
    <filter id="outer-glow-7" filterUnits="userSpaceOnUse">
      <feOffset dx="0" dy="0"/>
      <feGaussianBlur result="blur-7" stdDeviation="30"/>
      <feFlood flood-color="#000" flood-opacity=".08"/>
      <feComposite in2="blur-7" operator="in"/>
      <feComposite in="SourceGraphic"/>
    </filter>
    <filter id="outer-glow-8" filterUnits="userSpaceOnUse">
      <feOffset dx="0" dy="0"/>
      <feGaussianBlur result="blur-8" stdDeviation="30"/>
      <feFlood flood-color="#000" flood-opacity=".08"/>
      <feComposite in2="blur-8" operator="in"/>
      <feComposite in="SourceGraphic"/>
    </filter>
  </defs>
  <path class="cls-4" d="m76.26,166.24c3.31-1.45,16.39-7.63,19.6-20.5.45-1.78.61-3.32.68-4.44.04-.73.04-1.28.04-1.45-.01-2.22-.06-32.21-.12-73.66.09-1.16.47-4.09,2.73-6.65,1.85-2.11,4.03-2.9,5.23-3.33,2.5-.88,4.69-.85,5.94-.74,72.4-.03,144.79-.06,217.19-.1,1.5.09,4.44.5,7.13,2.59.66.51,1.82,1.44,2.75,3.08,1.54,2.73,1.23,5.4,1.17,5.82v91.08c-.28.97-.85,2.43-2.05,3.82-.75.87-2.23,2.27-5.7,3.39-4.19,1.35-7.8,1.16-8.25,1.13-.02,0-.03,0-.04,0-4.88-.32-75.9-.38-246.3-.06Z"/>
  <path class="cls-1" d="m122.59,85.61h127.7"/>
  <path class="cls-3" d="m274.53,85.5h40.71"/>
  <path class="cls-6" d="m123.22,110.72h35.83"/>
  <path class="cls-7" d="m260.99,110.6h37.09"/>
  <path class="cls-8" d="m123.57,135.91h26.09"/>
  <path class="cls-5" d="m175.8,135.79h109.07"/>
  <path class="cls-2" d="m181.22,110.72h54.11"/>
</svg>