<svg width="21" height="22" viewBox="0 0 21 22" fill="none" xmlns="http://www.w3.org/2000/svg">
<path d="M19.9327 10.8892C19.906 13.1683 19.0653 15.2472 17.6909 16.8538C15.9562 18.8794 13.3729 20.1497 10.4987 20.115C5.35063 20.051 1.23275 15.821 1.29413 10.6623C1.34217 6.61649 3.95221 3.20316 7.55769 1.94885C8.5478 1.60458 9.6153 1.42044 10.7255 1.43378C15.8708 1.49783 19.9914 5.7278 19.93 10.8865L19.9327 10.8892Z" fill="#FFEB13"/>
<path opacity="0.81" d="M10.3164 4.63228C10.4018 4.5709 10.5539 4.48016 10.7354 4.49351C11.0103 4.51486 11.1998 4.76839 11.3199 4.95253C11.8643 5.77985 12.8597 7.93353 12.9318 8.08831C14.0793 8.25378 15.2242 8.41657 16.3718 8.58204C16.4065 8.59004 16.7187 8.67811 16.8335 8.969C16.9376 9.2252 16.8468 9.53478 16.604 9.72693C15.782 10.5409 14.96 11.3549 14.1381 12.1715C14.3462 13.3004 14.5544 14.4293 14.7625 15.5555" stroke="white" stroke-width="0.541756" stroke-linecap="round" stroke-linejoin="round"/>
<path d="M10.5677 5.32617L12.2143 8.72616L15.9052 9.28126L13.2311 11.9153L13.8556 15.6489L10.557 13.8768L7.25309 15.6275C7.38386 14.8776 7.51463 14.1304 7.64806 13.3805C9.17192 12.4544 10.6984 11.5283 12.2223 10.6023C10.4449 10.653 8.66752 10.7064 6.89014 10.7571C6.33504 10.2554 5.77727 9.75096 5.22217 9.24924C6.45246 9.07043 7.68276 8.89429 8.91305 8.71549L10.5677 5.32617Z" fill="#FFB515" stroke="#FFB515" stroke-width="1.33171" stroke-linecap="round" stroke-linejoin="round"/>
<path opacity="0.35" d="M17.6909 16.8522C15.9562 18.8778 13.3729 20.1481 10.4987 20.1134C5.35063 20.0494 1.23275 15.8194 1.29413 10.6607C1.34217 6.61491 3.95221 3.20158 7.55769 1.94727C7.59505 2.10205 7.62975 2.26218 7.6591 2.42764C6.90118 3.03878 4.12034 5.43532 3.70135 9.35305C3.58659 10.4419 3.29036 13.2147 5.2679 15.5232C7.26946 17.861 10.1837 18.0825 10.8162 18.1279C14.355 18.3948 16.7996 16.3905 17.2746 15.9849C17.4507 16.2918 17.5869 16.5774 17.6883 16.8469L17.6909 16.8522Z" fill="#FFB015"/>
<path d="M19.8826 10.8359C19.9474 5.53019 15.7993 1.17776 10.6174 1.11445C5.43549 1.05114 1.1822 5.30092 1.11737 10.6066C1.05255 15.9123 5.20074 20.2647 10.3826 20.328C15.5645 20.3913 19.8178 16.1415 19.8826 10.8359Z" stroke="#FFB015" stroke-width="1.90015" stroke-miterlimit="10"/>
</svg>