<svg width="14" height="14" viewBox="0 0 14 14" fill="none" xmlns="http://www.w3.org/2000/svg">
<path d="M1.67467 10.158C1.47023 10.0415 1.30018 9.873 1.18172 9.66966C1.06325 9.46633 1.00057 9.23533 1 9V2.33333C1 1.6 1.6 1 2.33333 1H9C9.5 1 9.772 1.25667 10 1.66667M3.66667 5.44467C3.66667 4.97311 3.85399 4.52087 4.18743 4.18743C4.52087 3.85399 4.97311 3.66667 5.44467 3.66667H11.222C11.4555 3.66667 11.6867 3.71266 11.9024 3.80201C12.1181 3.89136 12.3141 4.02233 12.4792 4.18743C12.6443 4.35253 12.7753 4.54854 12.8647 4.76426C12.954 4.97997 13 5.21118 13 5.44467V11.222C13 11.4555 12.954 11.6867 12.8647 11.9024C12.7753 12.1181 12.6443 12.3141 12.4792 12.4792C12.3141 12.6443 12.1181 12.7753 11.9024 12.8647C11.6867 12.954 11.4555 13 11.222 13H5.44467C5.21118 13 4.97997 12.954 4.76426 12.8647C4.54854 12.7753 4.35253 12.6443 4.18743 12.4792C4.02233 12.3141 3.89136 12.1181 3.80201 11.9024C3.71266 11.6867 3.66667 11.4555 3.66667 11.222V5.44467Z" stroke="white" stroke-width="1.33333" stroke-linecap="round" stroke-linejoin="round"/>
</svg>