<svg xmlns="http://www.w3.org/2000/svg" width="25" height="24" fill="none"><path fill="#34C0FF" d="M23.315 10.293 12.832 22.22c-.182.204-.361.411-.543.617L2.025 9.913c1.142-2.216 2.282-4.436 3.422-6.654 2.405-.443 4.813-.885 7.222-1.33.447.088.897.176 1.344.26l5.499 1.07 3.803 7.034Z"/><path fill="#fff" d="M23.316 10.293 12.833 22.22l-.96-.6 5.323-10.112-4.79-9.047c2.37.266 4.74.532 7.109.8 1.269 2.344 2.536 4.688 3.803 7.033l-.002-.002Z" opacity=".78"/><path fill="#0C0094" d="m1.76 10.826 10.483 11.928.96-.333-4.79-11.975 4.258-7.45c-2.37.265-4.739.53-7.108.799a13068.93 13068.93 0 0 0-3.803 7.033v-.002Z" opacity=".11"/><path stroke="#0093EB" stroke-linecap="round" stroke-linejoin="round" stroke-width="2.286" d="M23.315 10.293 12.403 22.687a361.052 361.052 0 0 1-5.246-6.311 360.836 360.836 0 0 1-5.132-6.463c1.142-2.216 2.282-4.436 3.422-6.654 2.405-.443 4.813-.885 7.222-1.33.447.088.897.176 1.344.26l5.499 1.07 3.803 7.034Z"/><path stroke="#0093EB" stroke-linecap="round" stroke-linejoin="round" stroke-width="2.286" d="M3.889 9.647c1.508.531 3.015 1.065 4.523 1.596h8.25l5.057-1.065"/></svg>