<svg xmlns="http://www.w3.org/2000/svg" width="17" height="25" fill="none"><path fill="#FFDE00" d="M9.036 10.357c2 .648 3.998 1.296 5.998 1.946-4.486 3.673-8.972 7.349-13.456 11.024l2.131-4.655a3737.62 3737.62 0 0 1 2.246-4.91 3516.3 3516.3 0 0 0-4.702-.162L6.44 1.44a1228556.002 1228556.002 0 0 1 8.593 1.134l-5.998 7.783Z"/><path fill="#fff" d="m9.036 10.356 5.998 1.947c-4.486 3.673-8.972 7.348-13.456 11.024.026-.321.15-1.437 1.065-2.328a3.54 3.54 0 0 1 1.437-.844l6.938-7.136c-.704-.236-1.433-.5-2.18-.793a46.143 46.143 0 0 1-2.776-1.19l5.55-8.92a549.66 549.66 0 0 0 3.422.458l-5.998 7.782Z" opacity=".81"/><path stroke="#ED6D00" stroke-linecap="round" stroke-linejoin="round" stroke-width="1.982" d="M6.44 1.44C4.713 5.494 2.983 9.546 1.254 13.6c1.568.053 3.134.109 4.702.162l-4.377 9.565 13.456-11.024-5.998-1.944 5.998-7.783L6.441 1.44Z"/></svg>