<svg xmlns="http://www.w3.org/2000/svg" width="73" height="73" fill="none"><mask id="b" fill="#fff"><path d="M70.69 36.5c1.276 0 2.318-1.036 2.237-2.31A36.5 36.5 0 1 0 45.72 71.817c1.235-.322 1.892-1.636 1.492-2.848-.4-1.212-1.705-1.861-2.942-1.55A31.88 31.88 0 1 1 68.295 34.19c.093 1.273 1.118 2.309 2.394 2.309Z"/></mask><path stroke="url(#a)" stroke-width="18" d="M70.69 36.5c1.276 0 2.318-1.036 2.237-2.31A36.5 36.5 0 1 0 45.72 71.817c1.235-.322 1.892-1.636 1.492-2.848-.4-1.212-1.705-1.861-2.942-1.55A31.88 31.88 0 1 1 68.295 34.19c.093 1.273 1.118 2.309 2.394 2.309Z" mask="url(#b)"/><defs><linearGradient id="a" x1="80.5" x2="77.5" y1="7.5" y2="69.5" gradientUnits="userSpaceOnUse"><stop stop-color="#738BF9"/><stop offset="1" stop-color="#2F3C76" stop-opacity="0"/></linearGradient></defs></svg>