<svg xmlns="http://www.w3.org/2000/svg" width="33" height="34" fill="none"><path fill="#1EB924" d="M26.043 10.694c3.102 4.188 3.105 9.892.078 13.925-3.281 4.373-9.413 5.835-14.506 3.335.858.06 6.56.366 10.9-4.019 5.324-5.38 3.635-12.81 3.528-13.24Z"/><path stroke="#1EAC24" stroke-miterlimit="10" stroke-width="1.699" d="M9.648 13.192c-2.268 3.47-3.747 5.732-3.16 8.584.825 3.998 5.048 5.933 5.992 6.364.888.407 3.755 1.668 7.318.803 3.754-.912 5.77-3.58 6.488-4.56.672-.915 2.979-4.174 2.36-8.634-.614-4.413-3.663-6.901-4.6-7.643-1.291-1.019-3.23-2.557-5.749-2.459-3.815.15-6.25 3.876-8.65 7.545Z"/><path fill="#72F177" d="M6.753 11.385c-3 5.171-2.054 11.402 2.028 14.418.254.19.523.368.805.531 4.753 2.76 11.196.54 14.385-4.954 2.791-4.807 2.17-10.53-1.213-13.737a8.645 8.645 0 0 0-1.62-1.213C16.384 3.67 9.94 5.89 6.752 11.384h.001Z"/><path fill="#25D320" d="M11.08 24.245C7.346 22.076 6.349 16.818 8.856 12.5 11.36 8.18 16.42 6.438 20.157 8.606c3.735 2.168 4.732 7.427 2.226 11.745-2.507 4.319-7.567 6.062-11.302 3.894Z" opacity=".85"/><path fill="#fff" d="M24.901 9.781c-6.02 4.6-12.039 9.203-18.06 13.803-2.103-3.618-1.931-8.471.446-12.412 2.41-3.998 6.82-6.61 11.012-6.069 4.207.543 6.233 4.013 6.603 4.677v.001Z" opacity=".25"/><path stroke="#1EAC24" stroke-miterlimit="10" stroke-width="1.699" d="M9.942 26.441c-4.755-2.76-6.023-9.452-2.834-14.948 3.19-5.496 9.63-7.715 14.385-4.955 4.755 2.76 6.024 9.452 2.834 14.948s-9.63 7.715-14.385 4.955Z"/><path fill="#1E8723" stroke="#1E8723" stroke-linecap="round" stroke-linejoin="round" stroke-width=".466" d="m13.636 15.25-1.826 1.094c.09.429.315.765.637.952.792.46 1.98-.086 2.631-1.21.652-1.123.537-2.425-.255-2.884-.792-.458-1.979.086-2.63 1.21a3.44 3.44 0 0 0-.236.494l1.677.343h.002ZM17.16 17.294l-1.826 1.094c.09.429.315.766.637.952.791.46 1.979-.086 2.63-1.21.652-1.123.538-2.425-.254-2.883-.792-.46-1.98.085-2.631 1.209-.093.16-.17.325-.236.494l1.678.343h.002Z"/><path stroke="#1E8723" stroke-linecap="round" stroke-linejoin="round" stroke-width="1.211" d="M17.745 20.818c-.58.133-2.6.516-4.59-.638-1.96-1.134-2.638-3.031-2.819-3.604M20.447 16.421c.014-.095.24-1.689-.894-2.604-1.075-.868-2.413-.355-2.527-.309-.03-.174-.27-1.45-1.446-1.998-1.346-.626-2.7.271-2.803.342"/></svg>