<?xml version="1.0" encoding="UTF-8"?>
<svg id="_Слой_2" data-name="Слой 2" xmlns="http://www.w3.org/2000/svg" viewBox="0 0 165.78 163.25">
  <defs>
    <style>
      .cls-1 {
        fill: #25d320;
        opacity: .85;
      }

      .cls-1, .cls-2, .cls-3 {
        stroke-width: 0px;
      }

      .cls-2 {
        fill: #72f177;
      }

      .cls-4 {
        stroke-width: 7.13px;
      }

      .cls-4, .cls-5 {
        stroke: #1e8723;
        stroke-linecap: round;
        stroke-linejoin: round;
      }

      .cls-4, .cls-6 {
        fill: none;
      }

      .cls-5 {
        fill: #1e8723;
        stroke-width: 2.74px;
      }

      .cls-3 {
        fill: #fff;
        opacity: .25;
      }

      .cls-6 {
        stroke: #1eac24;
        stroke-miterlimit: 10;
        stroke-width: 10px;
      }
    </style>
  </defs>
  <path class="cls-2" d="m147,84c0,32.74-24.98,59.64-56.91,62.7-2,.2-4.03.3-6.09.3-34.79,0-63-28.21-63-63,0-30.43,21.59-55.83,50.28-61.71,4.11-.85,8.36-1.29,12.72-1.29,34.79,0,63,28.21,63,63Z"/>
  <circle class="cls-1" cx="83.5" cy="84.5" r="49.5"/>
  <path class="cls-3" d="m55,27c18.33,38.33,36.67,76.67,55,115,23.02-11.35,37.49-34.81,37-60-.5-25.55-16.34-50.05-41-59-24.76-8.99-46.86,1.87-51,4Z"/>
  <circle class="cls-6" cx="84" cy="84" r="63"/>
  <g id="_Слой_5" data-name="Слой 5">
    <path class="cls-5" d="m96.5,85.32l6.51,10.2c-1.86,1.79-4.15,2.76-6.51,2.76-5.79,0-10.56-5.85-10.56-12.96s4.77-12.96,10.56-12.96,10.56,5.85,10.56,12.96c0,1.01-.1,2.01-.28,2.99l-10.28-2.99Z"/>
    <path class="cls-5" d="m70.72,85.32l6.51,10.2c-1.86,1.79-4.15,2.76-6.51,2.76-5.79,0-10.56-5.85-10.56-12.96s4.77-12.96,10.56-12.96,10.56,5.85,10.56,12.96c0,1.01-.1,2.01-.28,2.99l-10.28-2.99Z"/>
    <path class="cls-4" d="m56.32,100.4c2.76,2.22,12.59,9.59,27.15,9.6,14.34.01,24.07-7.11,26.88-9.33"/>
    <path class="cls-4" d="m55.5,72.15c.22-.49,4.06-8.65,13.17-9.87,8.64-1.16,14.33,4.96,14.81,5.49.72-.75,6.09-6.13,14.26-5.49,9.36.74,13.92,8.71,14.26,9.33"/>
  </g>
</svg><svg id="_Слой_2" data-name="Слой 2" xmlns="http://www.w3.org/2000/svg" viewBox="0 0 165.78 163.25">
  <defs>
    <style>
      .cls-1 {
        fill: #25d320;
        opacity: .85;
      }

      .cls-1, .cls-2, .cls-3 {
        stroke-width: 0px;
      }

      .cls-2 {
        fill: #72f177;
      }

      .cls-4 {
        stroke-width: 7.13px;
      }

      .cls-4, .cls-5 {
        stroke: #1e8723;
        stroke-linecap: round;
        stroke-linejoin: round;
      }

      .cls-4, .cls-6 {
        fill: none;
      }

      .cls-5 {
        fill: #1e8723;
        stroke-width: 2.74px;
      }

      .cls-3 {
        fill: #fff;
        opacity: .25;
      }

      .cls-6 {
        stroke: #1eac24;
        stroke-miterlimit: 10;
        stroke-width: 10px;
      }
    </style>
  </defs>
  <path class="cls-2" d="m147,84c0,32.74-24.98,59.64-56.91,62.7-2,.2-4.03.3-6.09.3-34.79,0-63-28.21-63-63,0-30.43,21.59-55.83,50.28-61.71,4.11-.85,8.36-1.29,12.72-1.29,34.79,0,63,28.21,63,63Z"/>
  <circle class="cls-1" cx="83.5" cy="84.5" r="49.5"/>
  <path class="cls-3" d="m55,27c18.33,38.33,36.67,76.67,55,115,23.02-11.35,37.49-34.81,37-60-.5-25.55-16.34-50.05-41-59-24.76-8.99-46.86,1.87-51,4Z"/>
  <circle class="cls-6" cx="84" cy="84" r="63"/>
  <g id="_Слой_5" data-name="Слой 5">
    <path class="cls-5" d="m96.5,85.32l6.51,10.2c-1.86,1.79-4.15,2.76-6.51,2.76-5.79,0-10.56-5.85-10.56-12.96s4.77-12.96,10.56-12.96,10.56,5.85,10.56,12.96c0,1.01-.1,2.01-.28,2.99l-10.28-2.99Z"/>
    <path class="cls-5" d="m70.72,85.32l6.51,10.2c-1.86,1.79-4.15,2.76-6.51,2.76-5.79,0-10.56-5.85-10.56-12.96s4.77-12.96,10.56-12.96,10.56,5.85,10.56,12.96c0,1.01-.1,2.01-.28,2.99l-10.28-2.99Z"/>
    <path class="cls-4" d="m56.32,100.4c2.76,2.22,12.59,9.59,27.15,9.6,14.34.01,24.07-7.11,26.88-9.33"/>
    <path class="cls-4" d="m55.5,72.15c.22-.49,4.06-8.65,13.17-9.87,8.64-1.16,14.33,4.96,14.81,5.49.72-.75,6.09-6.13,14.26-5.49,9.36.74,13.92,8.71,14.26,9.33"/>
  </g>
</svg>