<svg xmlns="http://www.w3.org/2000/svg" width="91" height="85" fill="none"><path fill="#1EB924" d="M9.87 47.615c-4.994 6.737-5.002 15.919-.133 22.411 5.279 7.04 15.146 9.395 23.344 5.374-1.38.098-10.557.585-17.539-6.473-8.567-8.663-5.844-20.618-5.672-21.312Z"/><path stroke="#1EAC24" stroke-miterlimit="10" stroke-width="2.466" d="M36.257 51.64c3.649 5.587 6.028 9.228 5.08 13.817-1.33 6.436-8.126 9.546-9.647 10.24-1.428.654-6.043 2.683-11.777 1.288-6.042-1.47-9.285-5.763-10.44-7.341-1.081-1.474-4.792-6.72-3.792-13.899.988-7.101 5.897-11.105 7.406-12.297 2.078-1.64 5.2-4.115 9.253-3.955 6.14.243 10.057 6.24 13.917 12.148Z"/><path fill="#72F177" d="M40.916 48.735c4.827 8.326 3.3 18.353-3.27 23.205-.41.305-.843.592-1.296.854-7.652 4.44-18.02.865-23.151-7.98-4.489-7.74-3.485-16.95 1.96-22.108a13.915 13.915 0 0 1 2.609-1.953c7.652-4.438 18.02-.864 23.15 7.982h-.002Z"/><path fill="#25D320" d="M33.944 69.43c6.014-3.487 7.62-11.95 3.589-18.901-4.032-6.952-12.175-9.76-18.189-6.273-6.013 3.488-7.62 11.95-3.588 18.902 4.031 6.952 12.174 9.76 18.188 6.272Z" opacity=".85"/><path fill="#fff" d="M11.713 46.142C21.399 53.55 31.084 60.96 40.77 68.368c3.388-5.823 3.114-13.634-.71-19.978-3.877-6.435-10.974-10.64-17.72-9.772-6.77.871-10.034 6.455-10.63 7.523l.002.002Z" opacity=".25"/><path stroke="#1EAC24" stroke-miterlimit="10" stroke-width="2.466" d="M35.776 72.966c7.654-4.439 9.7-15.21 4.568-24.057-5.131-8.847-15.495-12.422-23.15-7.983-7.653 4.439-9.698 15.21-4.567 24.057 5.131 8.848 15.495 12.422 23.15 7.983Z"/><path fill="#1E8723" stroke="#1E8723" stroke-linecap="round" stroke-linejoin="round" stroke-width=".676" d="m29.842 54.95 2.938 1.763c-.146.69-.507 1.231-1.026 1.53-1.274.741-3.185-.138-4.233-1.947-1.049-1.809-.864-3.904.411-4.642 1.275-.737 3.186.14 4.234 1.948.15.257.274.523.379.796l-2.7.55-.003.002ZM24.17 58.238 27.106 60c-.146.69-.507 1.231-1.026 1.531-1.274.74-3.185-.14-4.233-1.948-1.048-1.809-.863-3.904.412-4.642 1.274-.737 3.185.14 4.233 1.948.15.257.274.523.379.796l-2.7.55-.003.002Z"/><path stroke="#1E8723" stroke-linecap="round" stroke-linejoin="round" stroke-width="1.758" d="M23.223 63.91c.934.215 4.184.832 7.388-1.023 3.155-1.825 4.246-4.878 4.538-5.8M18.88 56.83c-.024-.152-.385-2.718 1.439-4.19 1.73-1.397 3.884-.57 4.068-.495.049-.281.436-2.335 2.328-3.215 2.167-1.007 4.346.437 4.511.551"/><path fill="#1EB924" d="M48.217 11.282c-8.554 3.86-13.57 12.824-12.354 21.823 1.317 9.757 9.672 17.44 19.875 17.983-1.403-.657-10.633-5.186-13.604-15.89-3.645-13.137 5.536-23.331 6.083-23.916Z"/><path stroke="#1EAC24" stroke-miterlimit="10" stroke-width="2.759" d="M71.8 29.609c.518 7.448.857 12.303-2.573 16.268-4.809 5.563-13.145 4.895-15.01 4.743-1.752-.14-7.367-.675-12.208-5.166-5.101-4.731-5.928-10.695-6.195-12.866-.252-2.03-1.016-9.18 3.876-15.647 4.84-6.398 11.819-7.632 13.943-7.975 2.925-.468 7.325-1.182 11.198 1.184 5.865 3.586 6.42 11.582 6.97 19.459Z"/><path fill="#72F177" d="M77.936 29.311c.175 10.767-6.786 19.73-15.852 20.887a15.17 15.17 0 0 1-1.732.127c-9.897.163-18.076-8.984-18.264-20.424-.164-10.009 5.841-18.46 13.974-20.53 1.164-.299 2.37-.461 3.613-.484 9.897-.162 18.076 8.985 18.264 20.425h-.003Z"/><path fill="#25D320" d="M59.837 45.727C67.614 45.6 73.8 38.21 73.653 29.218c-.147-8.99-6.57-16.175-14.348-16.048-7.777.127-13.963 7.518-13.816 16.508.147 8.991 6.57 16.176 14.348 16.05Z" opacity=".85"/><path fill="#fff" d="M50.82 10.85c5.423 12.52 10.843 25.042 16.266 37.562 6.487-3.84 10.479-11.621 10.204-19.904-.278-8.403-4.918-16.382-11.983-19.214-7.09-2.84-13.323.835-14.487 1.553v.003Z" opacity=".25"/><path stroke="#1EAC24" stroke-miterlimit="10" stroke-width="2.759" d="M59.7 50.18c9.898-.161 17.77-9.569 17.584-21.01-.187-11.443-8.363-20.588-18.262-20.426-9.898.162-17.771 9.569-17.584 21.01.187 11.443 8.363 20.588 18.261 20.426Z"/><path fill="#1E8723" stroke="#1E8723" stroke-linecap="round" stroke-linejoin="round" stroke-width=".756" d="m63.728 29.342 1.909 3.325c-.52.594-1.168.926-1.837.937-1.65.028-3.036-1.874-3.074-4.213-.038-2.338 1.286-4.285 2.934-4.31 1.648-.025 3.036 1.874 3.074 4.212.005.332-.018.66-.064.984l-2.939-.934h-.003ZM56.393 29.46l1.908 3.325c-.519.594-1.167.926-1.837.936-1.649.029-3.036-1.873-3.074-4.212-.037-2.338 1.286-4.285 2.934-4.31 1.648-.025 3.037 1.873 3.074 4.212.006.332-.018.66-.064.984l-2.938-.935h-.003Z"/><path stroke="#1E8723" stroke-linecap="round" stroke-linejoin="round" stroke-width="1.967" d="M52.374 34.486c.795.72 3.634 3.095 7.776 3.03 4.077-.062 6.809-2.449 7.597-3.191M51.992 25.2c.06-.162 1.107-2.866 3.693-3.31 2.452-.42 4.104 1.563 4.244 1.736.201-.248 1.7-2.043 4.028-1.87 2.666.198 4.007 2.797 4.107 2.998"/><path fill="#1EB924" d="M62.153 59.858c-3.259 4.658-3.094 10.878.325 15.186 3.707 4.671 10.435 6.084 15.914 3.208-.933.092-7.14.592-12.001-4.06-5.965-5.71-4.342-13.86-4.238-14.334Z"/><path stroke="#1EAC24" stroke-miterlimit="10" stroke-width="1.671" d="M80.104 62.097c2.576 3.717 4.255 6.14 3.698 9.266-.782 4.384-5.329 6.618-6.346 7.116-.955.47-4.044 1.93-7.955 1.09-4.12-.883-6.397-3.731-7.209-4.779-.76-.979-3.37-4.464-2.826-9.346.538-4.829 3.79-7.632 4.79-8.468 1.377-1.15 3.446-2.884 6.195-2.85 4.164.05 6.929 4.04 9.653 7.971Z"/><path fill="#72F177" d="M83.207 60.042c3.424 5.55 2.576 12.372-1.786 15.781-.272.214-.56.417-.862.603-5.101 3.149-12.191.92-15.831-4.978-3.185-5.16-2.675-11.418.918-15.013a9.435 9.435 0 0 1 1.73-1.371c5.103-3.15 12.193-.92 15.833 4.978h-.002Z"/><path fill="#25D320" d="M78.866 74.191c4.01-2.474 4.941-8.237 2.081-12.871-2.86-4.635-8.429-6.387-12.438-3.913-4.01 2.475-4.94 8.237-2.08 12.872 2.86 4.635 8.428 6.386 12.437 3.912Z" opacity=".85"/><path fill="#fff" d="M63.374 58.827c6.7 4.839 13.398 9.68 20.098 14.518 2.188-4.008 1.857-9.294-.85-13.521-2.747-4.288-7.633-7.005-12.187-6.292-4.57.716-6.678 4.56-7.061 5.294v.001Z" opacity=".25"/><path stroke="#1EAC24" stroke-miterlimit="10" stroke-width="1.671" d="M80.174 76.553c5.103-3.15 6.288-10.484 2.648-16.383-3.64-5.898-10.727-8.128-15.83-4.979-5.103 3.15-6.29 10.484-2.649 16.383 3.64 5.899 10.728 8.128 15.83 4.979Z"/><path fill="#1E8723" stroke="#1E8723" stroke-linecap="round" stroke-linejoin="round" stroke-width=".458" d="m75.82 64.457 2.023 1.14c-.087.47-.321.843-.667 1.056-.85.525-2.16-.035-2.904-1.241-.744-1.206-.657-2.629.193-3.152.85-.524 2.16.035 2.904 1.24.106.172.195.35.271.533l-1.819.423h-.001ZM72.037 66.79l2.023 1.14c-.086.47-.32.843-.666 1.056-.85.525-2.16-.035-2.904-1.241-.744-1.206-.658-2.629.193-3.152.85-.524 2.16.035 2.904 1.24.106.172.195.35.271.533l-1.819.423h-.002Z"/><path stroke="#1E8723" stroke-linecap="round" stroke-linejoin="round" stroke-width="1.191" d="M71.502 70.65c.636.129 2.85.486 4.985-.83 2.104-1.295 2.787-3.383 2.967-4.014M68.427 65.934c-.018-.102-.31-1.834.898-2.866 1.146-.977 2.62-.457 2.747-.41.028-.191.252-1.59 1.517-2.221 1.45-.723 2.953.216 3.067.29"/></svg>