<svg width="49" height="49" viewBox="0 0 49 49" fill="none" xmlns="http://www.w3.org/2000/svg">
<path d="M32.7148 41.8076C32.4567 42.9498 32.1592 44.1472 31.8224 45.4044C31.3018 45.9091 30.5209 46.5731 29.4688 47.1552C27.1327 48.4456 24.9957 48.4788 24.2323 48.481C20.3782 48.4943 17.6155 46.4093 16.6903 45.6412C16.2331 44.3973 15.8154 43.056 15.4654 41.6173C13.6193 34.0386 14.4811 27.2214 15.5922 22.5489C15.5922 22.5489 15.5922 22.5445 15.5922 22.5423C15.6579 22.2058 15.7497 21.9004 15.8722 21.8938C16.01 21.8871 16.0647 22.2678 16.3163 22.6441C16.6028 23.0713 16.9834 23.2484 17.4668 23.4719C18.1361 23.7818 18.7705 23.8615 19.2473 23.8659C20.5991 24.1492 22.1827 24.3816 23.9567 24.4569C26.144 24.552 28.0755 24.3883 29.6678 24.1404C30.825 24.1204 31.304 23.7685 31.5227 23.4299C32.0564 22.6043 32.413 21.9712 32.413 21.9712C32.4502 21.9048 32.5333 21.7543 32.6361 21.761C32.8133 21.772 32.9292 22.2568 32.9948 22.6109C34.3291 26.0837 34.9765 31.812 32.7148 41.8054V41.8076Z" fill="#171817"/>
<path d="M16.6881 45.6431C18.0705 46.4067 23.1496 48.9897 28.5917 47.0995C29.8757 46.6524 30.9475 46.0393 31.8202 45.4062C31.9908 44.7312 32.2468 43.6886 32.5246 42.4093C32.5246 42.4093 34.1826 34.7731 33.5023 25.8376C33.4782 25.53 33.2879 23.2148 32.5355 23.0798C32.3124 23.0399 32.1461 23.1794 31.409 23.5888C31.1071 23.7571 30.6981 23.9474 30.1119 24.1311C29.307 24.3835 28.5589 24.4786 27.0955 24.6579C25.7591 24.8217 25.0919 24.9036 24.4248 24.9213C22.8915 24.9634 22.6793 24.7531 18.9345 24.1842C18.263 24.0824 17.4734 23.9673 16.6597 23.3963C16.3185 23.155 16.3119 23.0731 16.2157 23.0798C15.1614 23.1572 13.9146 32.8563 15.9816 42.6461C16.2528 43.9321 16.5131 44.9768 16.6859 45.6431H16.6881Z" stroke="black" stroke-width="2.18735" stroke-linejoin="round"/>
<path d="M32.7148 41.2437C30.6652 42.264 27.6489 43.311 23.9348 43.2291C20.5269 43.1538 17.7402 42.1556 15.7366 41.1241C13.5492 31.3764 14.236 25.8606 15.5944 22.5449C17.1605 23.3395 20.2075 24.6211 24.2301 24.6476C28.3138 24.6764 31.4177 23.3971 32.9948 22.6135C33.686 24.3577 34.4012 26.7349 34.6353 29.6079C35.0596 34.8226 33.6772 38.9749 32.7148 41.2437Z" fill="#072FBE" stroke="#072FBE" stroke-width="0.218735" stroke-miterlimit="10"/>
<path d="M27.3482 39.6007C30.7034 39.318 33.2163 36.5725 32.9609 33.4686C32.7055 30.3646 29.7785 28.0775 26.4233 28.3602C23.0681 28.6429 20.5552 31.3884 20.8106 34.4923C21.0661 37.5963 23.9931 39.8834 27.3482 39.6007Z" fill="#001374" stroke="white" stroke-width="1.09368" stroke-miterlimit="10"/>
<path d="M20.9028 33.8643C21.7275 34.4154 22.9743 35.0462 24.4354 34.9178C26.1328 34.7696 26.8109 33.7093 28.5673 33.3707C29.5057 33.1892 30.9012 33.187 32.7539 34.11C32.7976 33.6407 32.8151 32.8063 32.4849 31.8789C32.0168 30.5663 31.1396 29.8691 30.689 29.5194C28.996 28.2113 27.1324 28.3109 26.6053 28.3463C25.8966 28.395 23.0596 28.7137 21.64 31.2525C21.0822 32.2507 20.94 33.2401 20.9028 33.8621V33.8643Z" fill="#D40B00" stroke="white" stroke-width="1.09368" stroke-miterlimit="10"/>
<path d="M14.9099 21.8124C14.8399 20.3648 19.8971 18.4481 24.6174 18.4193C28.6071 18.3949 33.4893 19.7141 33.5046 21.1417C33.5221 22.7398 27.4412 24.5238 21.9663 24.132C19.4071 23.9483 14.9755 23.1471 14.9099 21.8102V21.8124Z" fill="#00255F"/>
<path opacity="0.42" d="M31.7304 22.3454C31.4657 22.6619 30.967 23.2108 30.2298 23.7266C24.9518 27.4229 15.8239 23.6402 15.9421 22.4649C15.9596 22.2967 16.1761 22.082 17.0598 21.8939C18.4116 19.0297 19.7502 15.5857 20.7695 11.5994C21.2289 9.80211 21.5745 8.08673 21.8348 6.47095C21.7648 6.28724 21.5504 5.66085 21.8457 5.13185C22.281 4.35716 23.4709 4.41471 24.0309 4.54088C25.4789 4.87067 26.0651 6.42447 26.1264 6.59712C26.5923 8.65778 27.1938 10.8778 27.9681 13.2152C29.1187 16.6791 30.4289 19.7292 31.7304 22.3476V22.3454Z" fill="white"/>
<path opacity="0.6" d="M32.9942 22.6132C32.3643 22.9187 31.4172 23.3392 30.2294 23.7243C21.8825 26.4291 16.1188 22.6863 15.9416 22.4627C15.8454 22.341 15.8257 22.206 15.8257 22.206C15.8038 22.0599 15.8542 21.9381 15.8738 21.8939C16.5104 20.4109 16.8756 19.6982 16.9719 19.4768C17.4925 18.2573 18.1246 16.657 18.7436 14.7424C19.9183 11.0992 20.5066 7.98271 20.8216 5.90655C20.8938 5.63873 21.0404 5.2536 21.3707 4.94151C21.7009 4.62942 22.0662 4.57187 24.0348 4.53867C25.5047 4.51432 25.8394 4.53867 26.2309 4.78436C26.6597 5.05218 26.9112 5.42845 27.0512 5.69628C27.2853 6.76534 27.5937 8.05796 27.9961 9.51438C28.4117 11.0128 28.9367 12.7172 29.5973 14.5587C30.9666 18.3768 32.2571 20.9399 32.6377 21.7633C32.7602 22.0311 32.8805 22.3122 32.9964 22.6132H32.9942Z" stroke="white" stroke-width="2.18735" stroke-linejoin="round"/>
<path d="M32.8806 40.8275C31.286 41.58 27.9568 42.8837 23.6149 42.6292C19.8243 42.4056 16.9851 41.0953 15.4802 40.2631C15.0296 37.4476 14.7168 34.0036 14.8699 30.0859C14.9793 27.2992 15.303 24.7937 15.7077 22.6245C17.2235 23.4014 20.1502 24.6476 24.024 24.714C28.2587 24.7848 31.4544 23.4103 32.9921 22.6201C33.1059 23.0805 33.2108 23.5497 33.3071 24.0256C34.5364 30.0792 34.0705 35.8119 32.8784 40.8297L32.8806 40.8275Z" stroke="#080F99" stroke-width="2.18735" stroke-linejoin="round"/>
<path d="M23.8822 5.74619C25.5892 5.74619 26.973 5.00792 26.973 4.09722C26.973 3.18651 25.5892 2.44824 23.8822 2.44824C22.1753 2.44824 20.7915 3.18651 20.7915 4.09722C20.7915 5.00792 22.1753 5.74619 23.8822 5.74619Z" fill="#072FBE" stroke="#080F99" stroke-width="2.18735" stroke-miterlimit="10"/>
<path d="M26.903 2.99679C26.9949 3.165 27.0867 3.33544 27.0583 3.55013C26.9511 4.37794 25.1881 4.84275 23.9326 4.87817C22.7777 4.90916 20.949 4.60592 20.7412 3.70728C20.6778 3.43282 20.7872 3.19378 20.8572 3.03663C21.4543 1.72409 23.6723 1.69531 23.8976 1.69531C24.1294 1.69531 26.1943 1.71966 26.8986 2.99679H26.903Z" fill="#072FBE" stroke="#080F99" stroke-width="2.18735" stroke-miterlimit="10"/>
</svg>
