<svg xmlns="http://www.w3.org/2000/svg" width="46" height="31" fill="none"><path fill="#FF55DB" d="m44.098 25.741-12.691-1.18c-.346.139-.86.345-1.476.59-4.853 1.933-7.282 2.899-7.674 2.952-2.97.39-4.442-1.984-6.971-3.737-1-.69-2.167-1.287-3.654-1.576-2.075-.404-5.035-.263-8.987 2.048-.307-.92-2.928-9.214 1.505-16.15 3.35-5.236 8.713-6.552 12.343-6.945.97-.103 1.82-.141 2.47-.17 1.727-.078 5.198-.19 8.79 1.915.723.425 1.472.858 2.26 1.644 3.805 3.798 1.06 8.388 4.345 12.345 1.331 1.603 1.803.877 5.313 3.837a36.993 36.993 0 0 1 4.427 4.427Z"/><path fill="#fff" d="M31.111 17.182c-.047-2.883-.593-7.095-3.541-10.035-4.144-4.132-10.664-3.394-10.625-3.837.04-.48 7.83-2.526 13.281 2.067 5.106 4.3 4.504 11.348 4.427 12.1" opacity=".63"/><path fill="#000" d="M18.42 17.773a6.036 6.036 0 0 1-3.837 2.951c-.304 1.015-.826 2.217-1.723 2.394-.57.115-1.048-.292-1.228-.328-2.075-.404-5.035-.262-8.987 2.049-.307-.921-2.928-9.215 1.505-16.15 3.35-5.237 8.713-6.553 12.343-6.946-2.677 2.246-6.724 6.464-6.042 11.012.127.847.46 3.079 2.361 4.428 2.317 1.643 5.198.729 5.608.59Z" opacity=".19"/><path fill="#000" d="m29.34 24.492-7.97 5.018c-6.469-3.267-9.518-5.528-9.149-6.788.216-.735 1.594-1.128 4.132-1.181 1.94 1.322 5.617 3.368 10.33 3.247a15.793 15.793 0 0 0 2.657-.296Z" opacity=".19"/><path stroke="#D40095" stroke-linecap="round" stroke-linejoin="round" stroke-width="2.951" d="M10.929 22.102c3.745 2.196 7.493 4.395 11.239 6.59 2.007-1.416 6.251-3.986 12.113-4.4 4.28-.3 7.73.667 9.816 1.45-1.67-2.264-4.371-5.11-8.311-6.65-1.812-.708-3.318-.998-4.519-1.095a37.392 37.392 0 0 0-10.044.546 38.378 38.378 0 0 0-10.294 3.56Z"/><path stroke="#D40095" stroke-linecap="round" stroke-linejoin="round" stroke-width="2.951" d="M34.281 17.448c0-2.007-.203-8.56-4.268-12.317-.92-.853-1.903-1.434-2.26-1.64-3.592-2.105-7.063-1.996-8.79-1.916-3.087.139-10.569.475-14.813 7.116-4.433 6.933-1.812 15.23-1.505 16.15l9.29-3.01"/><path stroke="#D40095" stroke-linecap="round" stroke-linejoin="round" stroke-width="2.361" d="M17.238 2.13c-1.378.96-3.25 2.553-4.722 5.017-3.686 6.166-1.892 12.762-1.476 14.167"/></svg>