<svg xmlns="http://www.w3.org/2000/svg" width="39" height="40" fill="none"><path fill="#B3B6CF" d="m27.771 12.914-2.589 20.424a19.041 19.041 0 0 1-10.615 2.238 19.057 19.057 0 0 1-7.508-2.238C6.291 26.627 5.526 19.913 4.758 13.2c1.415-1.139 4.706-3.463 9.493-4.027 7.12-.837 12.312 2.836 13.52 3.74Z"/><path fill="#000" d="M14.567 35.576a19.057 19.057 0 0 1-7.508-2.238c-.768-6.711-1.533-13.425-2.301-20.137l4.027 3.452c-.011 1.26.1 3.237.863 5.466 1.266 3.705 3.199 4.824 4.315 7.767.49 1.294.9 3.147.604 5.69ZM21.443 35.064c-.682-.115-1.033-.268-1.05-.452-.035-.322.935-.745 2.905-1.274a30.894 30.894 0 0 1 3.035-14.383c-1.162.701-2.98 2.033-4.315 4.314-3.087 5.268-.906 10.972-.575 11.795Z" opacity=".13"/><path fill="#31984F" d="M16.265 17.867c6.354 0 11.506-2.083 11.506-4.652S22.62 8.565 16.265 8.565c-6.355 0-11.507 2.082-11.507 4.652 0 2.569 5.152 4.651 11.507 4.651Z" opacity=".88"/><path fill="#1EB924" d="M13.778 17.467c.095.067.19.127.288.184.11.052.219.104.328.15.049.02.095.049.141.075-1.14-1.516-1.39-3.369-1.407-3.515a6.506 6.506 0 0 0 .058 2.925c.207 0 .414.055.592.181Z"/><path stroke="#1EAC24" stroke-miterlimit="10" stroke-width="1.151" d="M21.401 15.692c-.195-1.294-1.018-1.99-2.28-3.06-1.338-1.13-2.693-2.279-4.028-1.698-.88.386-1.335 1.358-1.637 2.005-.218.47-.923 2.028-.52 3.982.025.132.06.256.091.38.26-.04.527.008.751.17.095.065.19.126.288.183.11.052.219.104.328.15.15.06.279.15.394.256 1.75-.098 3.492-.176 5.213-.598.466-.116.845.077 1.104.408.248-.616.417-1.366.296-2.178Z"/><path fill="#72F177" d="M14.92 18.051c1.704-.092 3.404-.178 5.08-.59.47-.114.852.081 1.111.418.02-.038.043-.072.06-.107.987-1.956.446-4.726-1.308-6.383-1.864-1.763-4.39-1.602-5.641.36a3.89 3.89 0 0 0-.389.782c-.653 1.743-.227 3.976 1.088 5.523v-.003Z"/><path fill="#25D320" d="M15.622 17.513c.072.07.147.13.219.19 1.248-.075 2.49-.187 3.72-.489.065-.017.126-.023.189-.029.857-1.424.492-3.564-.84-4.824-1.352-1.277-3.182-1.162-4.09.262-.91 1.42-.55 3.61.802 4.89Z" opacity=".85"/><path fill="#fff" d="M14.9 11.113c1.867 2.166 3.737 4.332 5.604 6.501 1.148-1.496 1.54-3.596 1.001-5.365-.543-1.798-1.985-3.058-3.639-2.951-1.66.106-2.761 1.542-2.966 1.818v-.003Z" opacity=".25"/><path stroke="#1EAC24" stroke-miterlimit="10" stroke-width="1.151" d="M19.759 11.487c-1.865-1.763-4.39-1.602-5.642.36-1.113 1.743-.84 4.317.541 6.104.046.031.09.066.13.106 1.749-.098 3.492-.175 5.212-.598.452-.112.823.066 1.082.38.963-1.954.42-4.704-1.323-6.352Z"/><path fill="#1EB924" d="M11.955 16.829a3.256 3.256 0 0 1-.233.031c-.084 0-.17.006-.253 0a1.31 1.31 0 0 0-.11.006 4.32 4.32 0 0 0 1.666-1.617 3.184 3.184 0 0 1-.63 1.617.812.812 0 0 0-.437-.043l-.003.006Z"/><path stroke="#1EAC24" stroke-miterlimit="10" stroke-width="1.151" d="M7.137 13.964c.394-.676 1.093-.86 2.169-1.148 1.136-.302 2.29-.61 3.078.043.52.431.633 1.087.708 1.522.054.316.218 1.357-.452 2.35-.046.066-.092.13-.14.19a.852.852 0 0 0-.545-.09c-.077.015-.155.024-.233.032-.083 0-.17.006-.253 0-.112 0-.221.015-.32.046-1.167-.483-2.335-.955-3.42-1.613a.838.838 0 0 0-.834-.044c-.043-.405-.005-.866.24-1.288h.002Z"/><path fill="#72F177" d="M11.063 16.872c-1.14-.472-2.275-.935-3.331-1.58a.836.836 0 0 0-.837-.04c-.006-.026-.015-.049-.02-.075-.277-1.334.653-2.747 2.177-3.242 1.623-.526 3.306.184 3.76 1.588a2.3 2.3 0 0 1 .107.533c.091 1.133-.65 2.275-1.853 2.816h-.003Z"/><path fill="#25D320" d="M10.566 16.524c-.067.023-.136.04-.205.057-.9-.377-1.792-.776-2.629-1.286a.938.938 0 0 0-.132-.066c-.32-1.09.417-2.287 1.671-2.692 1.274-.415 2.598.146 2.954 1.248.357 1.102-.385 2.33-1.66 2.744v-.005Z" opacity=".85"/><path fill="#fff" d="M12.961 14.867c-2.025-.162-4.053-.32-6.078-.48.227-1.1 1.133-2.037 2.313-2.4 1.196-.365 2.546-.098 3.285.762.742.863.526 1.92.48 2.118Z" opacity=".25"/><path stroke="#1EAC24" stroke-miterlimit="10" stroke-width="1.151" d="M9.1 12.019c1.623-.527 3.306.184 3.76 1.588.406 1.245-.301 2.615-1.602 3.273a.678.678 0 0 0-.11.026c-1.167-.483-2.335-.955-3.42-1.616a.842.842 0 0 0-.81-.055c-.26-1.326.664-2.727 2.183-3.219v.003Z"/><path fill="#625E7B" stroke="#625E7B" stroke-linecap="round" stroke-linejoin="round" stroke-width=".469" d="m18.51 26.253 1.111 1.74a1.598 1.598 0 0 1-1.11.469c-.987 0-1.801-.998-1.801-2.21 0-1.21.814-2.209 1.8-2.209.987 0 1.801.998 1.801 2.21 0 .172-.017.342-.048.509l-1.752-.51ZM14.115 26.253l1.11 1.74a1.598 1.598 0 0 1-1.11.469c-.986 0-1.8-.998-1.8-2.21 0-1.21.814-2.209 1.8-2.209.987 0 1.801.998 1.801 2.21 0 .172-.017.342-.049.509l-1.752-.51Z" opacity=".64"/><path stroke="#625E7B" stroke-linecap="round" stroke-linejoin="round" stroke-width="1.217" d="M11.658 29.641c.472.38 2.146 1.634 4.632 1.637a7.486 7.486 0 0 0 4.585-1.59M11.518 24.006c.037-.083.693-1.476 2.246-1.683 1.473-.198 2.445.846 2.526.935.124-.127 1.038-1.044 2.434-.935 1.596.127 2.376 1.487 2.433 1.59" opacity=".64"/><path fill="#fff" d="M12.813 18.954c2.194.762 4.099 1.044 5.465 1.15 1.505.119 3.139.234 5.178-.287a13.137 13.137 0 0 0 3.452-1.438c.112-.34.112-.627 0-.863-.667-1.418-5.368-.94-14.096 1.438Z" opacity=".66"/><path stroke="#87839B" stroke-linecap="round" stroke-linejoin="round" stroke-width="2.877" d="M4.758 13.201c.768 6.712 1.533 13.426 2.301 20.137a19.055 19.055 0 0 0 9.206 2.301 19.077 19.077 0 0 0 8.917-2.301l2.59-20.424"/><path stroke="#87839B" stroke-linecap="round" stroke-linejoin="round" stroke-width="2.877" d="M16.265 17.867c6.354 0 11.506-2.083 11.506-4.652S22.62 8.565 16.265 8.565c-6.355 0-11.507 2.082-11.507 4.652 0 2.569 5.152 4.651 11.507 4.651Z"/><path fill="#1EB924" d="M4.975 5.474c-1.079 2.118-.653 4.68 1.012 6.269 1.804 1.72 4.672 1.915 6.775.408-.383.092-2.923.659-5.204-.987C4.759 9.145 4.96 5.68 4.975 5.477v-.003Z"/><path stroke="#1EAC24" stroke-miterlimit="10" stroke-width="1.151" d="M12.534 5.365c1.28 1.39 2.114 2.296 2.065 3.622-.07 1.861-1.824 3.046-2.215 3.31-.368.251-1.562 1.034-3.23.913-1.758-.127-2.863-1.177-3.26-1.562-.37-.363-1.654-1.654-1.709-3.705-.054-2.031 1.128-3.38 1.493-3.783.504-.555 1.26-1.392 2.4-1.54 1.726-.218 3.1 1.272 4.456 2.742v.003Z"/><path fill="#72F177" d="M13.702 4.335c1.737 2.1 1.78 4.974.172 6.637-.1.103-.207.204-.322.299-1.93 1.6-4.994 1.084-6.84-1.148-1.617-1.95-1.767-4.574-.487-6.268.185-.245.395-.466.64-.668 1.93-1.599 4.993-1.084 6.84 1.148h-.003Z"/><path fill="#25D320" d="M12.457 10.084c1.371-1.134 1.419-3.339.107-4.924-1.312-1.584-3.487-1.95-4.858-.815C6.336 5.48 6.288 7.685 7.6 9.27c1.312 1.585 3.487 1.95 4.857.815Z" opacity=".85"/><path fill="#fff" d="m5.42 4.977 9.16 4.85c.672-1.787.232-3.956-1.134-5.55-1.384-1.616-3.564-2.459-5.408-1.9-1.85.56-2.5 2.272-2.618 2.6Z" opacity=".25"/><path stroke="#1EAC24" stroke-miterlimit="10" stroke-width="1.151" d="M13.4 11.344c1.932-1.599 2-4.704.151-6.936C11.703 2.175 8.64 1.662 6.71 3.26c-1.932 1.598-1.999 4.704-.151 6.936s4.911 2.746 6.842 1.147Z"/><path fill="#1EB924" d="M22.984 7.301c-1.772.112-3.256 1.364-3.639 3.038-.417 1.815.55 3.731 2.319 4.508-.204-.21-1.536-1.626-1.35-3.72.231-2.566 2.535-3.76 2.67-3.826Z"/><path stroke="#1EAC24" stroke-miterlimit="10" stroke-width="1.151" d="M25.935 12.117c-.405 1.352-.667 2.235-1.539 2.707-1.222.664-2.652-.012-2.971-.161-.302-.141-1.257-.61-1.816-1.73-.586-1.176-.336-2.286-.238-2.689.092-.377.431-1.691 1.729-2.511 1.283-.809 2.6-.564 2.997-.483.55.112 1.375.279 1.902.955.8 1.024.365 2.476-.064 3.906v.006Z"/><path fill="#72F177" d="M27.043 12.474c-.688 1.915-2.514 3.037-4.197 2.637a3.007 3.007 0 0 1-.314-.092c-1.763-.63-2.6-2.793-1.87-4.83.64-1.78 2.265-2.876 3.84-2.7.228.025.453.074.671.155 1.764.63 2.6 2.793 1.87 4.83Z"/><path fill="#25D320" d="M25.873 12.066c.479-1.338-.072-2.758-1.23-3.172-1.157-.415-2.484.333-2.963 1.67-.478 1.338.072 2.758 1.23 3.172 1.157.415 2.484-.333 2.963-1.67Z" opacity=".85"/><path fill="#fff" d="m22.099 7.828 3.181 7.056c1.217-.745 1.948-2.226 1.873-3.791-.078-1.588-.975-3.084-2.319-3.599-1.349-.518-2.517.196-2.735.334Z" opacity=".25"/><path stroke="#1EAC24" stroke-miterlimit="10" stroke-width="1.151" d="M26.94 12.406c.73-2.037-.108-4.2-1.87-4.83-1.762-.631-3.782.509-4.511 2.546-.73 2.037.108 4.2 1.87 4.83 1.762.632 3.781-.508 4.51-2.546Z"/><path fill="#1EB924" d="M19.706 5.477c.871.961 1.012 2.374.362 3.447-.705 1.162-2.186 1.677-3.51 1.182.213-.006 1.634-.072 2.601-1.263 1.185-1.464.584-3.262.55-3.366h-.003Z"/><path stroke="#1EAC24" stroke-miterlimit="10" stroke-width="1.151" d="M15.707 6.499c-.478.914-.789 1.51-.573 2.203.302.97 1.395 1.346 1.64 1.43.23.077.97.32 1.832.02.906-.32 1.34-1.027 1.496-1.289.144-.244.636-1.107.371-2.195-.261-1.078-1.075-1.62-1.326-1.78-.345-.222-.863-.556-1.484-.47-.94.13-1.453 1.114-1.956 2.08Z"/><path fill="#72F177" d="M14.947 6.125c-.616 1.354-.227 2.873.857 3.52.07.04.138.078.213.113 1.246.567 2.785-.141 3.44-1.58.573-1.26.28-2.66-.638-3.37-.132-.102-.276-.19-.431-.263-1.246-.566-2.785.141-3.441 1.58Z"/><path fill="#25D320" d="M18.627 7.766c.402-.882.108-1.88-.656-2.226-.763-.348-1.707.086-2.109.968-.401.882-.107 1.879.656 2.226.764.347 1.708-.086 2.11-.968Z" opacity=".85"/><path fill="#fff" d="M18.102 9.35c-.7-1.615-1.401-3.228-2.1-4.843 1.111-.206 2.358.163 3.186.945.84.793 1.155 1.924.67 2.793-.488.872-1.555 1.07-1.756 1.108V9.35Z" opacity=".25"/><path stroke="#1EAC24" stroke-miterlimit="10" stroke-width="1.151" d="M19.545 8.19c.654-1.44.175-3.065-1.07-3.631-1.245-.566-2.785.14-3.44 1.58-.654 1.439-.175 3.064 1.07 3.63 1.245.567 2.785-.14 3.44-1.58Z"/><path fill="#1EB924" d="M11.612 16.354c.791 1.119 2.215 1.588 3.472 1.162 1.361-.46 2.23-1.872 2.023-3.348-.055.218-.446 1.668-1.899 2.393-1.78.889-3.498-.144-3.596-.204v-.003Z"/><path stroke="#1EAC24" stroke-miterlimit="10" stroke-width="1.151" d="M13.583 12.465c1.053-.282 1.74-.466 2.402-.083.932.534 1.067 1.748 1.1 2.019.028.256.108 1.073-.4 1.893-.536.863-1.367 1.148-1.672 1.245-.285.092-1.286.403-2.35-.12-1.053-.515-1.424-1.482-1.53-1.775-.15-.406-.375-1.019-.142-1.637.351-.94 1.482-1.243 2.595-1.542h-.003Z"/><path fill="#72F177" d="M13.37 11.593c1.54-.325 3.018.423 3.435 1.692.026.08.049.16.066.244.3 1.415-.785 2.84-2.42 3.188-1.429.302-2.807-.323-3.33-1.43a2.307 2.307 0 0 1-.17-.504c-.3-1.415.785-2.839 2.42-3.187v-.003Z"/><path fill="#25D320" d="M14.231 15.86c1.025-.217 1.703-1.11 1.516-1.997-.188-.886-1.17-1.428-2.194-1.212-1.024.217-1.703 1.11-1.516 1.997.188.886 1.17 1.428 2.194 1.212Z" opacity=".85"/><path fill="#fff" d="m12.499 12.123 2.937 4.444a2.754 2.754 0 0 0 1.168-2.701c-.17-1.056-.967-1.98-2.034-2.207-1.07-.227-1.916.351-2.074.463h.003Z" opacity=".25"/><path stroke="#1EAC24" stroke-miterlimit="10" stroke-width="1.151" d="M14.45 16.81c1.634-.345 2.718-1.772 2.418-3.187-.299-1.414-1.867-2.28-3.502-1.935-1.635.346-2.718 1.773-2.42 3.187.3 1.415 1.868 2.281 3.503 1.935Z"/><path fill="#1EB924" d="M9.898 28.404c1.784 1.548 2.344 4.07 1.4 6.153-1.02 2.256-3.59 3.507-6.089 2.9.385-.057 2.937-.483 4.427-2.848 1.827-2.902.351-6.024.262-6.202v-.003Z"/><path stroke="#1EAC24" stroke-miterlimit="10" stroke-width="1.151" d="M2.891 31.117c-.661 1.758-1.096 2.903-.555 4.108.757 1.689 2.816 2.129 3.276 2.227.432.092 1.824.368 3.317-.363 1.57-.77 2.2-2.149 2.422-2.655.207-.472.91-2.14.196-4.05-.705-1.893-2.298-2.693-2.785-2.929-.67-.325-1.68-.814-2.784-.523-1.672.44-2.385 2.327-3.084 4.185h-.003Z"/><path fill="#72F177" d="M1.432 30.602c-.82 2.584.21 5.245 2.313 6.18.132.06.267.112.408.155 2.374.754 5.006-.86 5.877-3.605.763-2.399-.074-4.87-1.884-5.957a3.978 3.978 0 0 0-.834-.377c-2.373-.754-5.005.86-5.877 3.604h-.003Z"/><path fill="#25D320" d="M8.963 32.87c.637-2.008-.254-4.083-1.99-4.634-1.737-.552-3.662.629-4.3 2.637-.637 2.007.253 4.082 1.99 4.634 1.737.551 3.662-.63 4.3-2.637Z" opacity=".85"/><path fill="#fff" d="M9.304 28.111c-2.213 2.626-4.422 5.253-6.634 7.88-1.286-1.396-1.686-3.56-1.021-5.535.673-2.006 2.367-3.593 4.275-3.766 1.913-.173 3.15 1.162 3.38 1.421Z" opacity=".25"/><path stroke="#1EAC24" stroke-miterlimit="10" stroke-width="1.151" d="M10.196 33.346c.872-2.743-.347-5.579-2.72-6.333-2.375-.754-5.006.859-5.878 3.602-.871 2.744.347 5.58 2.721 6.334 2.375.754 5.006-.859 5.877-3.603Z"/><path fill="#1EB924" d="M20.34 33.462c-.658 1.182-.543 2.801.268 3.95.878 1.245 2.382 1.67 3.556.969-.204.014-1.568.092-2.701-1.16-1.39-1.536-1.137-3.639-1.12-3.762l-.002.003Z"/><path stroke="#1EAC24" stroke-miterlimit="10" stroke-width="1.151" d="M24.334 34.198c.615.99 1.018 1.63.934 2.44-.115 1.133-1.09 1.673-1.308 1.794a2.245 2.245 0 0 1-1.744.216c-.92-.265-1.461-1.024-1.654-1.303-.181-.262-.802-1.188-.745-2.454a3.171 3.171 0 0 1 .95-2.16c.29-.288.724-.72 1.331-.688.92.05 1.583 1.11 2.233 2.155h.003Z"/><path fill="#72F177" d="M24.992 33.689c.828 1.473.727 3.239-.193 4.088a1.797 1.797 0 0 1-.181.15c-1.088.773-2.681.134-3.559-1.43-.768-1.37-.736-2.992.009-3.895.106-.13.227-.245.365-.343 1.088-.774 2.681-.135 3.559 1.43Z"/><path fill="#25D320" d="M23.752 37.034c.768-.313 1.013-1.495.546-2.642-.466-1.146-1.467-1.822-2.235-1.51-.768.313-1.013 1.496-.547 2.642.467 1.146 1.468 1.822 2.236 1.51Z" opacity=".85"/><path fill="#fff" d="M20.597 33.203c1.542 1.314 3.083 2.632 4.622 3.946.432-1.024.291-2.399-.362-3.52-.662-1.14-1.775-1.888-2.77-1.741-1.001.147-1.415 1.128-1.49 1.315Z" opacity=".25"/><path stroke="#1EAC24" stroke-miterlimit="10" stroke-width="1.151" d="M24.177 38.151c1.22-.496 1.657-2.256.976-3.93-.682-1.675-2.223-2.63-3.443-2.134-1.22.496-1.657 2.256-.975 3.93.681 1.675 2.222 2.63 3.442 2.134Z"/><path fill="#B3B6CF" d="M33.077 35.588c3.265-1.367 4.373-6.151 2.474-10.686-1.898-4.534-6.084-7.101-9.35-5.734-3.264 1.367-4.372 6.151-2.473 10.685 1.898 4.534 6.084 7.102 9.35 5.735Z"/><path fill="#000" d="M28.922 20.105c-.788.104-1.798.386-2.59 1.15-2.168 2.104-1.205 6.419.288 8.918 1.657 2.774 4.321 3.91 5.466 4.315-.394.291-2.517 1.798-4.89 1.151-1.974-.538-2.912-2.238-3.74-3.74-.708-1.283-3.484-6.311-.863-10.643 1.427-2.36 3.751-3.352 4.89-3.74" opacity=".1"/><path fill="#fff" d="M24.031 20.968c.812-.144 3.144-.44 5.466.863 2.894 1.628 3.708 4.588 4.027 5.754.826 3.006.092 5.551-.287 6.616.802.158 1.636.147 2.3-.288 2.783-1.818 2.616-11.066-2.588-13.808-3.872-2.04-8.478.601-8.918.863Z" opacity=".74"/><path stroke="#87839B" stroke-linecap="round" stroke-linejoin="round" stroke-width="2.983" d="M33.077 35.588c3.265-1.367 4.373-6.151 2.474-10.686-1.898-4.534-6.084-7.101-9.35-5.734-3.264 1.367-4.372 6.151-2.473 10.685 1.898 4.534 6.084 7.102 9.35 5.735Z"/><path stroke="#7B7991" stroke-linecap="round" stroke-linejoin="round" stroke-width="2.983" d="M29.21 25.525a2.51 2.51 0 0 1 2.589 1.438 2.507 2.507 0 0 1-.575 2.877"/></svg>